<?xml version="1.0" encoding="UTF-8" standalone="no"?>
<svg width="125px" height="180px" viewBox="0 0 125 180" version="1.1" xmlns="http://www.w3.org/2000/svg" xmlns:xlink="http://www.w3.org/1999/xlink">
    <!-- Generator: Sketch 47.1 (45422) - http://www.bohemiancoding.com/sketch -->
    <title>egg-right-outline</title>
    <desc>Created with Sketch.</desc>
    <defs></defs>
    <g id="Page-1" stroke="none" stroke-width="1" fill="none" fill-rule="evenodd">
        <g id="egg-right-outline" stroke="#000000" stroke-width="2">
            <g id="Group" transform="translate(34.000000, 49.000000)">
                <path d="M9.33198617,124.182449 C9.58256363,124.270319 9.87752603,124.373794 10.2171409,124.492967 L8.96551599,125.045845 L9.33198617,124.182449 Z M37.4977937,41.3415362 L30.8028777,1.96210123 L59.0215052,17.5945109 L74.2177543,-1.60474704 L74.8693859,-0.0324685003 C82.7343561,18.944396 87.3485544,41.0006756 87.3079974,59.0382946 C87.2117228,101.16473 62.6633168,129.404009 28.98,129.404009 C21.6951331,129.404009 14.9846962,128.298928 8.87282813,126.145054 C8.40022174,125.978504 8.05991389,125.858467 7.85174662,125.784887 C7.71190768,125.735427 7.71190768,125.735427 7.63648095,125.708605 C7.61279367,125.700215 7.61279367,125.700215 7.57460746,125.685856 C7.55000178,125.676025 7.55000178,125.676025 7.87222133,123.757363 L8.18665368,123.785891 C8.20432709,123.790488 8.20432709,123.790488 8.22476403,123.796383 C8.25441032,123.805587 8.25441032,123.805587 8.26097778,123.807844 C8.27281213,123.811846 8.27281213,123.811846 8.2842599,123.815786 C8.36695913,123.844289 8.71486899,123.966045 9.33198617,124.182449 L21.9629523,94.4241716 L-1.33569043,55.109764 L23.5492761,50.193933 L13.2848301,39.6976698 L24.8245163,34.8674225 L37.4977937,41.3415362 Z" id="Combined-Shape"></path>
            </g>
        </g>
    </g>
</svg>