<?xml version="1.0" encoding="UTF-8" standalone="no"?>
<svg width="58px" height="876px" viewBox="0 0 58 876" version="1.1" xmlns="http://www.w3.org/2000/svg" xmlns:xlink="http://www.w3.org/1999/xlink">
    <!-- Generator: Sketch 47.1 (45422) - http://www.bohemiancoding.com/sketch -->
    <title>Group 2</title>
    <desc>Created with Sketch.</desc>
    <defs></defs>
    <g id="Page-1" stroke="none" stroke-width="1" fill="none" fill-rule="evenodd">
        <g id="Group-2">
            <g id="Group-3" transform="translate(0.000000, 602.000000)">
                <path d="M39.6399445,254.481039 C39.4970869,254.57004 39.3573349,254.65904 39.2155124,254.74804 C39.1792804,254.708715 39.146154,254.664215 39.1088868,254.624889 C39.1378724,254.456202 39.1523652,254.289585 39.1699636,254.124003 C39.6088885,254.000851 40.0488486,253.885979 40.4898439,253.779385 C40.2496774,254.035003 39.9743142,254.274062 39.6399445,254.481039 M43.9939965,230.804871 C42.3356058,230.16738 40.3997814,230.103217 38.6637507,229.902448 C38.5250339,229.88589 38.3863171,229.870367 38.2486355,229.854843 C38.1813474,229.842425 38.106813,229.825867 38.0281378,229.806204 L38.0281378,167.932317 C38.0281378,166.028123 37.3749265,164.548234 36.3625007,163.479194 C37.0736833,162.482597 37.5105377,161.209685 37.5105377,159.653213 L37.5105377,0 L21.982535,0 L21.982535,168.449762 C21.982535,170.886923 23.0446504,172.637953 24.5705354,173.705958 L24.5705354,176.648145 C23.0446504,177.715114 21.982535,179.468214 21.982535,181.903306 L21.982535,232.612912 C14.8168793,232.752621 8.34273737,237.883505 4.30752706,244.446765 C2.13774748,247.975733 1.51041617,252.758986 2.37377312,256.770212 C2.87791561,259.111128 3.68433655,261.922919 5.42554326,263.664636 C5.79718012,264.045475 6.2185066,264.347662 6.66260748,264.614663 C6.67295948,264.957211 6.68124108,265.442573 6.68124108,266.102832 C6.68227628,270.286884 10.4700738,273.329455 14.5032137,272.971384 C20.0260066,272.481882 25.3842028,270.619083 30.5105141,268.333016 C31.6450935,270.406931 33.9246043,271.603262 36.4753375,271.938566 C39.9753494,272.399091 42.8687339,271.023725 44.9577678,268.239876 C45.3666719,267.693455 45.6482464,267.069417 45.8977296,266.430892 C46.3904849,266.124565 46.8811698,265.818238 47.3739251,265.512946 C50.4018856,263.633589 53.0416461,260.806275 54.0706351,257.323877 C54.887408,254.558656 54.6358544,251.65269 55.6596673,248.957842 C56.9785124,245.484758 54.2580063,241.751916 51.0457801,240.713924 C51.1927785,236.121091 48.6347989,232.589018 43.9939965,230.804871 Z" id="Fill-2289" fill="#FFDC00"></path>
                <path d="M35.9836289,120.507516 C40.7125143,128.645075 34.9886507,134.843041 29.504817,140.14757 C27.9750007,141.627976 30.2677332,144.012209 31.7945616,142.53492 C38.4586247,136.087621 44.3557878,128.403015 38.7793284,118.802712 C37.7006884,116.947269 34.900009,118.642724 35.9836289,120.507516" id="Fill-2291" fill="#000000"></path>
                <path d="M24.8705192,145.518674 C20.4235209,137.403534 26.0600987,131.919451 31.4927771,126.791742 C33.0264991,125.345883 30.7358623,123.011126 29.2071134,124.452912 C26.04319,127.439324 22.4475964,130.164056 20.8422608,134.432395 C19.2836729,138.575495 19.9988131,143.39265 22.078588,147.189557 C23.0970909,149.046774 25.8900167,147.379963 24.8705192,145.518674" id="Fill-2293" fill="#000000"></path>
                <path d="M36.1767248,106.493891 C40.5205818,114.60711 34.9263863,120.070385 29.507258,125.198715 C27.9734299,126.649802 30.2642251,128.992372 31.7930797,127.54537 C34.9562273,124.553334 38.5490855,121.821696 40.1565214,117.544003 C41.7092489,113.410295 41.005001,108.624058 38.9688491,104.819168 C37.966191,102.946336 35.173072,104.619018 36.1767248,106.493891" id="Fill-2295" fill="#000000"></path>
                <path d="M24.6089048,131.446353 C20.6831939,123.260858 26.151326,117.966128 31.4930791,112.84126 C33.0265443,111.369466 30.7348049,108.993466 29.2053201,110.461117 C26.0478345,113.490672 22.4684221,116.251969 20.8513676,120.573099 C19.3228779,124.653935 19.9786557,129.312718 21.8156297,133.146011 C22.746058,135.083891 25.5373429,133.38009 24.6089048,131.446353" id="Fill-2297" fill="#000000"></path>
                <path d="M35.9831366,91.5071423 C40.7120774,99.6456545 34.9891427,105.843556 29.5052447,111.146991 C27.9744145,112.62842 30.2681699,115.011589 31.7940202,113.535354 C38.4581614,107.088123 44.3563896,99.4025587 38.7788689,89.8033945 C37.7002162,87.9469328 34.899504,89.6423696 35.9831366,91.5071423" id="Fill-2299" fill="#000000"></path>
                <path d="M24.8698887,116.51956 C20.4227849,108.403068 26.0594965,102.919777 31.4932984,97.791857 C33.0260622,96.3459383 30.735371,94.011085 29.2075805,95.4529307 C26.0425873,98.4384475 22.4469084,101.16431 20.8415348,105.432825 C19.2839046,109.576095 19.9990617,114.39243 22.078886,118.189494 C23.0964183,120.046787 25.8894104,118.379907 24.8698887,116.51956" id="Fill-2301" fill="#000000"></path>
                <path d="M36.1770572,77.4942356 C40.5198416,85.6064582 34.9267412,91.0707712 29.5067155,96.1991174 C27.9739096,97.6502086 30.2646637,99.9917653 31.7924962,98.54578 C34.955587,95.5527129 38.5483806,92.821067 40.1557877,88.5433605 C41.709482,84.410661 41.0052467,79.6233876 38.9691314,75.8184857 C37.9664913,73.94667 35.1734225,75.6193563 36.1770572,77.4942356" id="Fill-2303" fill="#000000"></path>
                <path d="M24.608287,102.446707 C20.6832499,94.2612636 26.1508345,88.9655313 31.493025,83.8417315 C33.0266158,82.3699467 30.7346887,79.993962 29.2060739,81.4605681 C26.0473346,84.4911398 22.4676291,87.2524193 20.8514373,91.5735215 C19.3228225,95.6543322 19.978654,100.313085 21.8157783,104.145319 C22.7452876,106.084222 25.5368011,104.380431 24.608287,102.446707" id="Fill-2305" fill="#000000"></path>
                <path d="M35.9841326,62.5075041 C40.7120774,70.6450238 34.9891427,76.842961 29.5052447,82.1474645 C27.9744145,83.6289024 30.2681699,86.0120851 31.7940202,84.5348027 C38.4581614,78.088574 44.3563896,70.4029655 38.7788689,60.8027077 C37.7012122,58.9472743 34.9005,60.6427207 35.9841326,62.5075041" id="Fill-2307" fill="#000000"></path>
                <path d="M24.869741,88.5186227 C20.422545,80.4033169 26.0593734,74.9201397 31.4932879,69.7923254 C33.0260835,68.3454183 30.7353448,66.0106133 29.2075226,67.4534475 C26.0424639,70.4389025 22.4467105,73.1647085 20.8422983,77.4321171 C19.2836411,81.5763197 19.9988131,86.3925551 22.0786804,90.1895408 C23.0972285,92.0467952 25.8892838,90.3799501 24.869741,88.5186227" id="Fill-2309" fill="#000000"></path>
                <path d="M36.1770522,48.4942477 C40.5198411,56.6065097 34.9267348,62.0708493 29.5067035,67.1992204 C27.973896,68.6492974 30.2646524,70.9918867 31.7934812,69.5458944 C34.9565753,66.5528128 38.5493727,63.8211536 40.1557868,59.5434263 C41.7094827,55.4107067 41.0052467,50.6234101 38.9691292,46.8184896 C37.9664881,44.9466648 35.1734164,46.6193593 36.1770522,48.4942477" id="Fill-2311" fill="#000000"></path>
                <path d="M24.6090772,73.4461106 C20.6832195,65.2605037 26.150561,59.9657014 31.4925139,54.8407637 C33.0270317,53.3699853 30.7352065,50.9939531 29.2056645,52.4605885 C26.0470657,55.4901849 22.4685145,58.2515195 20.8513995,62.5737437 C19.3228526,66.6546359 19.9786549,71.3124461 21.8156976,75.1457918 C22.7461607,77.0836977 25.5365549,75.3809092 24.6090772,73.4461106" id="Fill-2313" fill="#000000"></path>
                <path d="M35.9841326,33.5071412 C40.7120774,41.6456497 34.9891427,47.8435488 29.5052447,53.1480196 C27.9744145,54.6284095 30.2681699,57.0115776 31.7940202,55.5353431 C38.4581614,49.0881152 44.3563896,41.402554 38.7788689,31.8033942 C37.7002162,29.9469333 34.899504,31.6423693 35.9841326,33.5071412" id="Fill-2315" fill="#000000"></path>
                <path d="M24.8698887,59.5195598 C20.4227849,51.4030679 26.0594965,45.9197774 31.4932984,40.791857 C33.0260622,39.3459383 30.735371,37.011085 29.2075805,38.4529307 C26.0425873,41.4384475 22.4469084,44.1643098 20.8415348,48.4328249 C19.2839046,52.576095 19.9990617,57.39243 22.078886,61.1894941 C23.0964183,63.046787 25.8894104,61.3799074 24.8698887,59.5195598" id="Fill-2317" fill="#000000"></path>
                <path d="M36.1770572,19.4942356 C40.5198416,27.6064582 34.9267412,33.0707712 29.5067155,38.1991174 C27.9739096,39.6502086 30.2646637,41.9917653 31.7924962,40.54578 C34.955587,37.5527129 38.5483806,34.821067 40.1557877,30.5433605 C41.709482,26.410661 41.0052467,21.6233876 38.9691314,17.8184857 C37.9664913,15.94667 35.1734225,17.6193563 36.1770572,19.4942356" id="Fill-2319" fill="#000000"></path>
                <path d="M24.6090772,44.4467071 C20.6832195,36.2612636 26.150561,30.9655313 31.4925139,25.8417315 C33.0270317,24.3699467 30.7352065,21.993962 29.2056645,23.4605681 C26.0470657,26.4911398 22.4685145,29.2524193 20.8513995,33.5735215 C19.3228526,37.6543322 19.9786549,42.3130852 21.8156976,46.1453187 C22.7461607,48.0842217 25.5365549,46.3804314 24.6090772,44.4467071" id="Fill-2321" fill="#000000"></path>
                <path d="M34.9841326,235.507516 C39.7130734,243.645075 33.9891427,249.843041 28.5052447,255.14757 C26.9744145,256.627976 29.2681699,259.012209 30.7940202,257.53492 C37.4581614,251.087621 43.3563896,243.403015 37.7788689,233.802712 C36.7012122,231.947269 33.9005,233.642724 34.9841326,235.507516" id="Fill-2323" fill="#000000"></path>
                <path d="M24.869575,261.518672 C20.4225306,253.403529 26.0591669,247.919444 31.4928961,242.792751 C33.0266341,241.345872 30.7349789,239.011114 29.2072088,240.452901 C26.0432526,243.439315 22.4466271,246.164048 20.8422695,250.432389 C19.2836655,254.57549 19.9988131,259.392648 22.0786096,263.189557 C23.097123,265.046774 25.8890831,263.379963 24.869575,261.518672" id="Fill-2325" fill="#000000"></path>
                <path d="M35.1770522,221.493891 C39.5198411,229.60711 33.9267348,235.070385 28.5067035,240.198715 C26.973896,241.649802 29.2646524,243.992372 30.7934812,242.54537 C33.9565753,239.553334 37.5493727,236.821696 39.1557868,232.544003 C40.7094827,228.410295 40.0052467,223.624058 37.9691292,219.819168 C36.9664881,217.946336 34.1734164,219.619018 35.1770522,221.493891" id="Fill-2327" fill="#000000"></path>
                <path d="M24.6090772,246.446123 C20.6832195,238.260557 26.150561,232.96578 31.4925139,227.840868 C33.0270317,226.369061 30.7352065,223.994076 29.2056645,225.460704 C26.0470657,228.490286 22.4685145,231.251607 20.8513995,235.572774 C19.3228526,239.653646 19.9786549,244.312469 21.8156976,248.145796 C22.7461607,250.083692 25.5365549,248.380912 24.6090772,246.446123" id="Fill-2329" fill="#000000"></path>
                <path d="M34.9831885,206.507141 C39.7120804,214.64565 33.9882089,220.843549 28.5053636,226.14802 C26.9745492,227.62841 29.2672849,230.011578 30.7941154,228.535343 C37.4581877,222.088115 43.3563549,214.402554 37.7788918,204.803394 C36.7002503,202.946933 33.8995671,204.642369 34.9831885,206.507141" id="Fill-2331" fill="#000000"></path>
                <path d="M24.8699187,232.51956 C20.4228335,224.403068 26.0595214,218.919777 31.4933005,213.791857 C33.0260579,212.345938 30.7353763,210.011085 29.2075922,211.452931 C26.0426124,214.438447 22.4469485,217.16431 20.8415816,221.432825 C19.283958,225.576095 19.9991121,230.39243 22.077933,234.189494 C23.0964557,236.046787 25.8894361,234.379907 24.8699187,232.51956" id="Fill-2333" fill="#000000"></path>
                <path d="M35.177088,192.494236 C39.5198909,200.606458 33.9267666,206.070771 28.5067177,211.199117 C26.9739052,212.650209 29.2646691,214.991765 30.7925082,213.54578 C33.9556125,210.552713 37.5484215,207.821067 39.1558355,203.54336 C40.7095364,199.410661 40.0052981,194.623388 37.9681794,190.818486 C36.9665297,188.94667 34.1734489,190.619356 35.177088,192.494236" id="Fill-2335" fill="#000000"></path>
                <path d="M24.6085973,218.446707 C20.6827299,210.261264 26.1510801,204.965531 31.4930463,199.841732 C33.0265727,198.369947 30.7347418,195.993962 29.2061912,197.460568 C26.0475845,200.49114 22.4680293,203.252419 20.8509103,207.573521 C19.3233548,211.654332 19.9781636,216.313085 21.8162059,220.145319 C22.7456762,222.084222 25.5370725,220.380431 24.6085973,218.446707" id="Fill-2337" fill="#000000"></path>
                <path d="M34.9831366,177.507504 C39.7120774,185.645024 33.9891427,191.842961 28.5052447,197.147464 C26.9744145,198.628902 29.2681699,201.012085 30.7940202,199.534803 C37.4581614,193.088574 43.3563896,185.402966 37.7788689,175.802708 C36.7002162,173.947274 33.899504,175.642721 34.9831366,177.507504" id="Fill-2339" fill="#000000"></path>
                <path d="M24.8699187,203.518623 C20.4228335,195.403317 26.0595214,189.92014 31.4933005,184.792325 C33.0260579,183.345418 30.7353763,181.010613 29.2075922,182.453447 C26.0426124,185.438902 22.4469485,188.164708 20.8415816,192.432117 C19.283958,196.57632 19.9991121,201.392555 22.077933,205.189541 C23.0964557,207.046795 25.8894361,205.37995 24.8699187,203.518623" id="Fill-2341" fill="#000000"></path>
                <path d="M36.1770572,163.494248 C40.5198416,171.60651 34.9267412,177.070849 29.5067155,182.19922 C27.9739096,183.649297 30.2646637,185.991887 31.7924962,184.545894 C34.955587,181.552813 38.5483806,178.821154 40.1557877,174.543426 C41.709482,170.410707 41.0052467,165.62341 38.9691314,161.81849 C37.9664913,159.946665 35.1734225,161.619359 36.1770572,163.494248" id="Fill-2343" fill="#000000"></path>
                <path d="M24.608287,189.446111 C20.6832499,181.260504 26.1508345,175.965701 31.493025,170.840764 C33.0266158,169.369985 30.7346887,166.993953 29.2060739,168.460588 C26.0473346,171.490185 22.4676291,174.252555 20.8514373,178.573744 C19.3228225,182.654636 19.978654,187.312446 21.8157783,191.145792 C22.7452876,193.083698 25.5368011,191.380909 24.608287,189.446111" id="Fill-2345" fill="#000000"></path>
                <path d="M35.9831366,148.506728 C40.7120774,156.645386 34.9891427,162.843399 29.5052447,168.147967 C27.9744145,169.628384 30.2681699,172.011596 31.7940202,170.535335 C38.4581614,164.087988 44.3563896,156.402286 38.7788689,146.80295 C37.7002162,144.947493 34.899504,146.641922 35.9831366,148.506728" id="Fill-2347" fill="#000000"></path>
                <path d="M24.8699187,174.51956 C20.4228335,166.403068 26.0595214,160.919777 31.4933005,155.791857 C33.0260579,154.345938 30.7353763,152.011085 29.2075922,153.452931 C26.0426124,156.438447 22.4469485,159.16431 20.8415816,163.432825 C19.283958,167.576095 19.9991121,172.39243 22.077933,176.189494 C23.0964557,178.046787 25.8894361,176.379907 24.8699187,174.51956" id="Fill-2349" fill="#000000"></path>
                <path d="M36.177088,134.494236 C40.5198909,142.607479 34.9267666,148.070771 29.5067177,153.199117 C27.9739052,154.650209 30.2646691,156.991765 31.7925082,155.54578 C34.9556125,152.552713 38.5484215,149.821067 40.1558355,145.54336 C41.7095364,141.410661 41.0052981,136.623388 38.9681794,132.818486 C37.9665297,130.94667 35.1734489,132.619356 36.177088,134.494236" id="Fill-2351" fill="#000000"></path>
                <path d="M24.6085973,160.446707 C20.6827299,152.261264 26.1510801,146.965531 31.4930463,141.841732 C33.0265727,140.369947 30.7347418,137.993962 29.2061912,139.460568 C26.0475845,142.49114 22.4680293,145.252419 20.8509103,149.573521 C19.3233548,153.654332 19.9781636,158.313085 21.8162059,162.145319 C22.7456762,164.084222 25.5370725,162.380431 24.6085973,160.446707" id="Fill-2353" fill="#000000"></path>
                <path d="M44.7280224,265.043238 C45.486055,269.992494 38.0237584,270.144655 35.1635844,268.719141 C32.7867199,267.532882 31.5474129,265.77902 29.7871493,263.888012 C28.3473962,262.339367 26.0142838,264.645816 27.449967,266.188454 C30.9297944,269.930428 34.6151555,273.650378 40.3538183,272.903585 C44.793142,272.325971 48.6168822,268.749173 47.9168467,264.17832 C47.6004063,262.114128 44.4125994,262.991059 44.7280224,265.043238" id="Fill-2355" fill="#000000"></path>
                <path d="M22.4842888,260.583476 C27.4991321,257.503686 32.0350356,260.211573 36.4899037,262.759651 C38.3557953,263.827022 40.0554604,261.056 38.1947634,259.990602 C32.6282561,256.807232 26.8996781,254.056926 20.7804679,257.815414 C18.9613275,258.932109 20.6526814,261.70905 22.4842888,260.583476" id="Fill-2357" fill="#000000"></path>
                <path d="M51.6874913,254.44835 C54.1142442,257.914941 51.1417572,262.379837 47.1089276,262.671138 C44.0378765,262.892983 41.1255656,260.994859 38.5442226,259.626467 C36.6279283,258.611577 34.9222499,261.518372 36.8416568,262.536372 C41.1100028,264.797328 45.928233,267.462581 50.7443881,265.043016 C55.3177642,262.745778 57.6988663,257.174766 54.5998022,252.74719 C53.3641192,250.983832 50.439358,252.665294 51.6874913,254.44835" id="Fill-2359" fill="#000000"></path>
                <path d="M31.7321995,258.451254 C34.7970817,254.812956 39.1629503,255.070137 43.4380524,255.580418 C45.529716,255.829434 45.5115627,252.510572 43.4380524,252.263597 C38.297643,251.649219 33.0362116,251.806386 29.4146283,256.106006 C28.0541393,257.721553 30.3616254,260.079047 31.7321995,258.451254" id="Fill-2361" fill="#000000"></path>
                <path d="M37.4246059,254.762038 C38.0131774,251.895527 39.8717675,249.347166 42.7854665,248.407517 C44.9205232,247.719427 44.0068874,244.400532 41.8534716,245.094963 C37.814467,246.397154 34.8759292,249.782638 34.0400497,253.84987 C33.5961912,256.008209 36.9785875,256.932004 37.4246059,254.762038" id="Fill-2363" fill="#000000"></path>
                <path d="M51.3540534,242.386721 C54.7399277,243.796234 55.7016578,247.898238 53.1106191,250.579321 C50.5894674,253.187802 46.8666747,252.749079 43.6299624,252.53646 C41.4519878,252.39333 41.4613756,255.76413 43.6299624,255.90726 C48.619068,256.236043 54.366501,255.933189 57.0076081,250.889435 C59.5245874,246.082155 57.0044788,241.114114 52.2542411,239.136232 C50.2462904,238.299236 49.3680076,241.55906 51.3540534,242.386721" id="Fill-2365" fill="#000000"></path>
                <path d="M43.1663407,232.317131 C47.00733,232.520058 50.4919498,234.928675 49.3975367,239.005581 C48.3832541,242.785743 44.3988734,243.4965 41.1567536,244.688571 C39.1155361,245.438078 40.0001339,248.644128 42.0677102,247.884425 C46.9904605,246.074393 52.4287869,244.387749 52.962287,238.394759 C53.4768087,232.609795 48.6500041,229.292593 43.1663407,229.002988 C40.9627536,228.886738 40.9690797,232.200881 43.1663407,232.317131" id="Fill-2367" fill="#000000"></path>
                <path d="M44.7280224,265.043238 C45.486055,269.992494 38.0237584,270.144655 35.1635844,268.719141 C32.7867199,267.532882 31.5474129,265.77902 29.7871493,263.888012 C28.3473962,262.339367 26.0142838,264.645816 27.449967,266.188454 C30.9297944,269.930428 34.6151555,273.650378 40.3538183,272.903585 C44.793142,272.325971 48.6168822,268.749173 47.9168467,264.17832 C47.6004063,262.114128 44.4125994,262.991059 44.7280224,265.043238" id="Fill-2369" fill="#000000"></path>
                <path d="M22.4842888,260.583476 C27.4991321,257.503686 32.0350356,260.211573 36.4899037,262.759651 C38.3557953,263.827022 40.0554604,261.056 38.1947634,259.990602 C32.6282561,256.807232 26.8996781,254.056926 20.7804679,257.815414 C18.9613275,258.932109 20.6526814,261.70905 22.4842888,260.583476" id="Fill-2371" fill="#000000"></path>
                <path d="M51.6874913,254.44835 C54.1142442,257.914941 51.1417572,262.379837 47.1089276,262.671138 C44.0378765,262.892983 41.1255656,260.994859 38.5442226,259.626467 C36.6279283,258.611577 34.9222499,261.518372 36.8416568,262.536372 C41.1100028,264.797328 45.928233,267.462581 50.7443881,265.043016 C55.3177642,262.745778 57.6988663,257.174766 54.5998022,252.74719 C53.3641192,250.983832 50.439358,252.665294 51.6874913,254.44835" id="Fill-2373" fill="#000000"></path>
                <path d="M51.3540534,242.386721 C54.7399277,243.796234 55.7016578,247.898238 53.1106191,250.579321 C50.5894674,253.187802 46.8666747,252.749079 43.6299624,252.53646 C41.4519878,252.39333 41.4613756,255.76413 43.6299624,255.90726 C48.619068,256.236043 54.366501,255.933189 57.0076081,250.889435 C59.5245874,246.082155 57.0044788,241.114114 52.2542411,239.136232 C50.2462904,238.299236 49.3680076,241.55906 51.3540534,242.386721" id="Fill-2375" fill="#000000"></path>
                <path d="M43.1663407,232.317131 C47.00733,232.520058 50.4919498,234.928675 49.3975367,239.005581 C48.3832541,242.785743 44.3988734,243.4965 41.1567536,244.688571 C39.1155361,245.438078 40.0001339,248.644128 42.0677102,247.884425 C46.9904605,246.074393 52.4287869,244.387749 52.962287,238.394759 C53.4768087,232.609795 48.6500041,229.292593 43.1663407,229.002988 C40.9627536,228.886738 40.9690797,232.200881 43.1663407,232.317131" id="Fill-2377" fill="#000000"></path>
                <path d="M40.5826898,229.114536 C43.5785937,230.675177 40.6952442,235.38942 39.3964646,237.038676 C38.0878976,238.698356 40.3272403,241.107603 41.6455947,239.433328 C44.2725159,236.100414 47.3868466,228.897693 42.1887919,226.189245 C40.3575811,225.234303 38.7426705,228.155424 40.5826898,229.114536" id="Fill-2379" fill="#000000"></path>
                <path d="M3.7573915,249.258029 C-0.805107072,251.978681 -1.04741045,257.543832 2.13745056,261.406311 C5.66407573,265.682627 11.2783191,265.172127 16.3561091,264.677738 C18.5368396,264.466288 18.5590595,261.192848 16.3561091,261.405304 C13.1564348,261.716437 8.93570041,262.563242 6.11482351,260.605823 C3.2473905,258.613163 2.10359158,254.105259 5.49266461,252.084405 C7.36337367,250.96775 5.63868149,248.13634 3.7573915,249.258029" id="Fill-2381" fill="#000000"></path>
                <path d="M24.9100135,261.01607 C23.1001702,255.572933 18.2256455,253.466073 13.0391835,252.065156 C10.9933618,251.512765 10.1203428,254.638656 12.164139,255.190049 C16.118044,256.257937 20.3271703,257.639909 21.7359515,261.87756 C22.3922349,263.850809 25.5713608,263.006271 24.9100135,261.01607" id="Fill-2383" fill="#000000"></path>
                <path d="M21.7701853,256.833696 C22.5390592,253.000251 21.3955499,249.008942 18.0848184,246.412605 C16.3662874,245.064297 13.8516561,247.336961 15.5821668,248.694204 C17.9062132,250.517101 18.9092341,253.223646 18.3570825,255.976855 C17.9508645,258.00726 21.3607001,258.878001 21.7701853,256.833696" id="Fill-2385" fill="#000000"></path>
                <path d="M10.8214792,237.000326 C5.49778047,237.091921 1.35076545,241.128356 2.08433764,246.510615 C2.84441171,252.096882 8.11934696,254.3597 12.8918065,255.90641 C15.0024166,256.590252 15.9066609,253.325091 13.8077116,252.644372 C10.7886169,251.665968 7.39213523,250.713586 5.9143901,247.57645 C4.18646718,243.91056 6.95750431,240.448678 10.8214792,240.383104 C13.0359767,240.345633 13.0433973,236.961815 10.8214792,237.000326" id="Fill-2387" fill="#000000"></path>
                <path d="M22.8297821,230.666207 C17.7327134,228.962656 12.0623291,230.460553 10.3706296,235.919078 C9.69060194,238.107604 9.9919065,240.251111 10.9031435,242.324021 C12.1271933,245.108022 14.3691921,246.534298 16.579805,248.541726 C18.1815317,249.99665 20.5909219,247.650559 18.9839643,246.190519 C16.4668158,243.90377 13.0363379,241.886111 13.3951833,237.994034 C13.8073847,233.532061 18.199317,232.627593 21.9258685,233.872771 C24.0004759,234.566469 24.8918352,231.355813 22.8297821,230.666207" id="Fill-2389" fill="#000000"></path>
                <path d="M4.8973487,261.807188 C2.44748875,266.110678 5.36515093,270.745519 9.41367416,272.725471 C12.3109971,274.142635 15.6771393,274.28945 18.7890411,273.600239 C22.502984,272.778487 27.1972777,268.972534 30.9641026,270.112383 C33.0051441,270.730226 33.87668,267.53294 31.8427573,266.918156 C28.3128843,265.850695 25.1003034,267.818412 21.8867054,269.087743 C18.8266686,270.293862 15.5561209,271.270584 12.2713356,270.281627 C9.62723605,269.484345 5.9478698,266.647977 7.75195927,263.480258 C8.80756518,261.62469 5.9529546,259.95366 4.8973487,261.807188" id="Fill-2391" fill="#000000"></path>
                <path d="M29.5041114,264.05972 C25.6479683,260.12138 20.1290563,260.829921 15.209646,261.605285 C13.0903097,261.938341 13.9911047,265.260421 16.0981013,264.928425 C19.7208192,264.357774 24.26387,263.558014 27.1410669,266.497185 C28.6711845,268.05958 31.0352573,265.623177 29.5041114,264.05972" id="Fill-2393" fill="#000000"></path>
                <path d="M3.7573915,249.258029 C-0.805107072,251.978681 -1.04741045,257.543832 2.13745056,261.406311 C5.66407573,265.682627 11.2783191,265.172127 16.3561091,264.677738 C18.5368396,264.466288 18.5590595,261.192848 16.3561091,261.405304 C13.1564348,261.716437 8.93570041,262.563242 6.11482351,260.605823 C3.2473905,258.613163 2.10359158,254.105259 5.49266461,252.084405 C7.36337367,250.96775 5.63868149,248.13634 3.7573915,249.258029" id="Fill-2395" fill="#000000"></path>
                <path d="M10.8214792,237.000326 C5.49778047,237.091921 1.35076545,241.128356 2.08433764,246.510615 C2.84441171,252.096882 8.11934696,254.3597 12.8918065,255.90641 C15.0024166,256.590252 15.9066609,253.325091 13.8077116,252.644372 C10.7886169,251.665968 7.39213523,250.713586 5.9143901,247.57645 C4.18646718,243.91056 6.95750431,240.448678 10.8214792,240.383104 C13.0359767,240.345633 13.0433973,236.961815 10.8214792,237.000326" id="Fill-2397" fill="#000000"></path>
                <path d="M22.8297821,230.666207 C17.7327134,228.962656 12.0623291,230.460553 10.3706296,235.919078 C9.69060194,238.107604 9.9919065,240.251111 10.9031435,242.324021 C12.1271933,245.108022 14.3691921,246.534298 16.579805,248.541726 C18.1815317,249.99665 20.5909219,247.650559 18.9839643,246.190519 C16.4668158,243.90377 13.0363379,241.886111 13.3951833,237.994034 C13.8073847,233.532061 18.199317,232.627593 21.9258685,233.872771 C24.0004759,234.566469 24.8918352,231.355813 22.8297821,230.666207" id="Fill-2399" fill="#000000"></path>
                <path d="M34.9833766,5.50774005 C39.7120912,13.6453689 33.9884344,19.8433892 28.5047987,25.1479638 C26.9750377,26.6283827 29.2676874,29.0115974 30.7944606,27.535334 C37.458283,21.08798 43.356229,13.4033074 37.7789751,3.80292084 C36.7003741,1.94746251 33.8997959,3.64189282 34.9833766,5.50774005" id="Fill-2401" fill="#000000"></path>
                <path d="M24.8699238,30.5189755 C20.422834,22.4037222 26.0595278,16.9195623 31.4933126,11.7917812 C33.0260715,10.3459017 30.7353876,8.0111118 29.2066072,9.45291841 C26.0426187,12.4383541 22.4469511,15.1641424 20.8415825,19.4325416 C19.2839572,23.5756992 19.9991121,28.3919034 22.0779352,32.1888645 C23.096459,34.0471251 25.8894423,32.3802908 24.8699238,30.5189755" id="Fill-2403" fill="#000000"></path>
                <path d="M36.6068068,1.11890524 C35.06675,4.95702705 31.4986562,7.46265332 28.529068,10.1780243 C26.9264497,11.6421243 29.3267278,14.0017518 30.9251754,12.5397081 C34.4244514,9.34007374 38.0676189,6.50954887 39.874605,2.0072356 C40.6764356,0.00746412925 37.4013384,-0.86133119 36.6068068,1.11890524" id="Fill-2405" fill="#000000"></path>
                <path d="M24.5904516,16.5015585 C22.196749,11.8305262 23.1578799,6.74695537 26.5684752,2.86950062 C27.9655621,1.28132929 25.643843,-1.06383989 24.2386452,0.534492482 C19.8030463,5.57640299 18.6411729,12.1119871 21.7445713,18.168986 C22.7138131,20.0589404 25.5586795,18.3894807 24.5904516,16.5015585" id="Fill-2407" fill="#000000"></path>
            </g>
            <g id="Group" transform="translate(20.000000, 307.000000)">
                <path d="M17.5518,239.915036 L17.5518,66.9334178 C17.5518,64.8177579 16.7148,63.2444726 15.4708,62.2015978 C16.7168,61.156729 17.5518,59.5784587 17.5518,57.4618018 L17.5518,0 L2.5518,0 L2.5518,57.4618018 C2.5518,60.2165465 3.9668,62.056034 5.8598,62.9952195 C5.2808,63.7160594 4.8578,64.6004092 4.6688,65.6552481 C3.4048,66.7001169 2.5518,68.2863633 2.5518,70.4229605 L2.5518,248.38964 C2.5518,250.736607 3.5768,252.424549 5.0518,253.453465 L5.0518,256.286974 C3.5768,257.31589 2.5518,259.003832 2.5518,261.350799 L2.5518,307 L18.0518,307 L18.0518,247.891134 C18.0518,246.056632 17.4198,244.629907 16.4428,243.600991 C17.1288,242.639871 17.5518,241.413546 17.5518,239.915036" id="Fill-8931" fill="#FFDC00"></path>
                <path d="M15.6133,201.5378 C20.3613,209.3708 14.6143,215.3368 9.1083,220.4438 C7.5713,221.8688 9.8743,224.1628 11.4063,222.7418 C18.0973,216.5358 24.0193,209.1378 18.4193,199.8978 C17.3373,198.1118 14.5253,199.7428 15.6133,201.5378" id="Fill-8935" fill="#000000"></path>
                <path d="M5.1357,226.6389 C0.6647,218.6689 6.3327,213.2829 11.7947,208.2479 C13.3367,206.8269 11.0337,204.5339 9.4967,205.9499 C6.3157,208.8829 2.7007,211.5589 1.0867,215.7509 C-0.4803,219.8199 0.2387,224.5509 2.3297,228.2789 C3.3537,230.1029 6.1607,228.4669 5.1357,226.6389" id="Fill-8937" fill="#000000"></path>
                <path d="M15.8691,188.0066 C20.2361,195.9516 14.6121,201.3016 9.1631,206.3236 C7.6221,207.7446 9.9251,210.0376 11.4621,208.6216 C14.6421,205.6906 18.2541,203.0156 19.8691,198.8266 C21.4311,194.7796 20.7231,190.0916 18.6761,186.3656 C17.6681,184.5326 14.8601,186.1706 15.8691,188.0066" id="Fill-8939" fill="#000000"></path>
                <path d="M4.9316,212.3713 C0.9866,204.4683 6.4806,199.3563 11.8496,194.4083 C13.3906,192.9883 11.0876,190.6943 9.5506,192.1103 C6.3776,195.0353 2.7806,197.7013 1.1556,201.8733 C-0.3804,205.8143 0.2786,210.3113 2.1246,214.0113 C3.0596,215.8833 5.8636,214.2393 4.9316,212.3713" id="Fill-8941" fill="#000000"></path>
                <path d="M15.5508,173.7048 C20.2988,181.5378 14.5528,187.5038 9.0468,192.6098 C7.5098,194.0358 9.8128,196.3298 11.3448,194.9078 C18.0358,188.7028 23.9578,181.3048 18.3578,172.0638 C17.2748,170.2778 14.4628,171.9098 15.5508,173.7048" id="Fill-8943" fill="#000000"></path>
                <path d="M5.0742,198.8054 C0.6032,190.8354 6.2702,185.4494 11.7332,180.4144 C13.2742,178.9934 10.9712,176.7004 9.4352,178.1164 C6.2532,181.0494 2.6382,183.7254 1.0242,187.9174 C-0.5418,191.9864 0.1772,196.7174 2.2672,200.4454 C3.2912,202.2704 6.0992,200.6334 5.0742,198.8054" id="Fill-8945" fill="#000000"></path>
                <path d="M15.8076,160.1731 C20.1736,168.1181 14.5506,173.4681 9.1016,178.4901 C7.5606,179.9111 9.8636,182.2051 11.3996,180.7881 C14.5796,177.8571 18.1916,175.1821 19.8076,170.9941 C21.3696,166.9461 20.6616,162.2581 18.6136,158.5331 C17.6066,156.6991 14.7986,158.3371 15.8076,160.1731" id="Fill-8947" fill="#000000"></path>
                <path d="M4.8691,184.5378 C0.9241,176.6348 6.4191,171.5228 11.7871,166.5748 C13.3281,165.1548 11.0251,162.8608 9.4891,164.2768 C6.3151,167.2018 2.7181,169.8688 1.0931,174.0398 C-0.4419,177.9808 0.2161,182.4778 2.0631,186.1788 C2.9971,188.0498 5.8021,186.4058 4.8691,184.5378" id="Fill-8949" fill="#000000"></path>
                <path d="M15.6592,145.8196 C20.4072,153.6526 14.6612,159.6186 9.1552,164.7246 C7.6182,166.1506 9.9212,168.4446 11.4532,167.0236 C18.1442,160.8176 24.0662,153.4196 18.4662,144.1796 C17.3832,142.3926 14.5712,144.0246 15.6592,145.8196" id="Fill-8951" fill="#000000"></path>
                <path d="M5.1826,170.9202 C0.7116,162.9502 6.3786,157.5642 11.8416,152.5292 C13.3826,151.1082 11.0796,148.8152 9.5436,150.2312 C6.3616,153.1642 2.7466,155.8402 1.1326,160.0332 C-0.4334,164.1012 0.2856,168.8322 2.3766,172.5612 C3.3996,174.3852 6.2076,172.7482 5.1826,170.9202" id="Fill-8953" fill="#000000"></path>
                <path d="M15.916,132.2878 C20.282,140.2328 14.659,145.5828 9.21,150.6048 C7.669,152.0258 9.972,154.3198 11.508,152.9038 C14.688,149.9718 18.3,147.2968 19.916,143.1088 C21.478,139.0608 20.77,134.3728 18.723,130.6478 C17.715,128.8138 14.907,130.4528 15.916,132.2878" id="Fill-8955" fill="#000000"></path>
                <path d="M4.9775,156.6531 C1.0335,148.7491 6.5275,143.6381 11.8955,138.6901 C13.4375,137.2691 11.1335,134.9761 9.5975,136.3921 C6.4235,139.3171 2.8275,141.9831 1.2025,146.1551 C-0.3335,150.0961 0.3255,154.5931 2.1715,158.2931 C3.1055,160.1651 5.9105,158.5211 4.9775,156.6531" id="Fill-8957" fill="#000000"></path>
                <path d="M15.7686,117.7693 C20.5166,125.6023 14.7706,131.5683 9.2646,136.6743 C7.7276,138.1003 10.0306,140.3943 11.5626,138.9733 C18.2536,132.7673 24.1756,125.3693 18.5756,116.1283 C17.4926,114.3423 14.6806,115.9743 15.7686,117.7693" id="Fill-8959" fill="#000000"></path>
                <path d="M5.292,142.8699 C0.821,134.8999 6.488,129.5139 11.951,124.4789 C13.492,123.0579 11.189,120.7649 9.653,122.1809 C6.471,125.1139 2.856,127.7899 1.242,131.9819 C-0.324,136.0509 0.395,140.7819 2.485,144.5109 C3.509,146.3349 6.317,144.6979 5.292,142.8699" id="Fill-8961" fill="#000000"></path>
                <path d="M16.0254,104.2375 C20.3914,112.1825 14.7684,117.5325 9.3194,122.5545 C7.7784,123.9755 10.0814,126.2695 11.6174,124.8525 C14.7974,121.9215 18.4094,119.2465 20.0254,115.0585 C21.5874,111.0105 20.8794,106.3225 18.8324,102.5975 C17.8244,100.7635 15.0164,102.4015 16.0254,104.2375" id="Fill-8963" fill="#000000"></path>
                <path d="M5.0869,128.6023 C1.1419,120.6993 6.6369,115.5873 12.0049,110.6393 C13.5459,109.2193 11.2429,106.9253 9.7069,108.3413 C6.5329,111.2663 2.9359,113.9333 1.3119,118.1043 C-0.2241,122.0453 0.4349,126.5423 2.2809,130.2433 C3.2149,132.1143 6.0199,130.4703 5.0869,128.6023" id="Fill-8965" fill="#000000"></path>
                <path d="M17.2297,306.3342 C17.2132762,306.624957 17.0123893,307 17.0031178,307 C16.9938463,307 20.2259001,307 20.248646,307 C20.4219836,307 20.4651382,306.591253 20.4797,306.3342 C20.6437,303.4222 19.9637,300.6042 18.4857,298.0912 C17.4247,296.2912 14.6147,297.9242 15.6787,299.7322 C16.8867,301.7842 17.3637,303.9642 17.2297,306.3342 Z" id="Fill-8967" fill="#000000"></path>
                <path d="M8.8554,304.3354 C8.57624306,304.594565 7.77733707,305.482765 6.45868201,307 L10.751128,307 C10.9187257,306.85012 11.0531497,306.728253 11.1544,306.6344 C17.8454,300.4284 23.7674,293.0304 18.1674,283.7894 C17.0844,282.0034 14.2724,283.6354 15.3604,285.4304 C20.1084,293.2634 14.3614,299.2294 8.8554,304.3354 Z" id="Fill-8969" fill="#000000"></path>
                <path d="M11.5431,292.1396 C13.0761,290.7106 10.7731,288.4166 9.2441,289.8416 C4.3171,294.4356 -0.5329,298.9366 0.1201,306.2366 C0.137003789,306.424359 0.216800703,306.678826 0.359490744,307 L3.61631865,307 C3.46122825,306.59208 3.37915537,306.337613 3.3701,306.2366 C2.7981,299.8416 7.2681,296.1246 11.5431,292.1396 Z" id="Fill-8971" fill="#000000"></path>
                <path d="M15.6172,271.8987 C19.9832,279.8437 14.3602,285.1937 8.9112,290.2157 C7.3692,291.6367 9.6732,293.9307 11.2092,292.5137 C14.3892,289.5827 18.0012,286.9077 19.6172,282.7197 C21.1792,278.6717 20.4712,273.9837 18.4232,270.2587 C17.4152,268.4247 14.6072,270.0627 15.6172,271.8987" id="Fill-8973" fill="#000000"></path>
                <path d="M4.6787,296.2634 C0.7337,288.3604 6.2287,283.2484 11.5967,278.3004 C13.1377,276.8804 10.8347,274.5864 9.2987,276.0024 C6.1247,278.9274 2.5277,281.5944 0.9027,285.7654 C-0.6323,289.7064 0.0257,294.2034 1.8717,297.9044 C2.8067,299.7754 5.6117,298.1314 4.6787,296.2634" id="Fill-8975" fill="#000000"></path>
                <path d="M15.4688,257.5452 C20.2168,265.3782 14.4698,271.3442 8.9648,276.4502 C7.4278,277.8762 9.7298,280.1702 11.2628,278.7492 C17.9538,272.5432 23.8758,265.1452 18.2758,255.9052 C17.1928,254.1182 14.3808,255.7502 15.4688,257.5452" id="Fill-8977" fill="#000000"></path>
                <path d="M4.9922,282.6458 C0.5212,274.6758 6.1882,269.2898 11.6512,264.2548 C13.1922,262.8338 10.8892,260.5408 9.3532,261.9568 C6.1712,264.8898 2.5562,267.5658 0.9422,271.7588 C-0.6238,275.8278 0.0952,280.5578 2.1852,284.2868 C3.2092,286.1108 6.0172,284.4738 4.9922,282.6458" id="Fill-8979" fill="#000000"></path>
                <path d="M15.7256,244.0134 C20.0916,251.9584 14.4686,257.3084 9.0196,262.3304 C7.4786,263.7514 9.7816,266.0454 11.3176,264.6294 C14.4976,261.6974 18.1096,259.0224 19.7256,254.8344 C21.2876,250.7864 20.5796,246.0984 18.5316,242.3734 C17.5246,240.5394 14.7166,242.1784 15.7256,244.0134" id="Fill-8981" fill="#000000"></path>
                <path d="M4.7871,268.3787 C0.8421,260.4757 6.3371,255.3637 11.7051,250.4157 C13.2461,248.9947 10.9431,246.7017 9.4071,248.1177 C6.2331,251.0427 2.6361,253.7087 1.0111,257.8807 C-0.5239,261.8217 0.1341,266.3187 1.9811,270.0187 C2.9151,271.8907 5.7201,270.2467 4.7871,268.3787" id="Fill-8983" fill="#000000"></path>
                <path d="M15.5781,229.4949 C20.3261,237.3279 14.5791,243.2939 9.0741,248.3999 C7.5371,249.8259 9.8391,252.1199 11.3721,250.6989 C18.0631,244.4929 23.9851,237.0949 18.3851,227.8539 C17.3021,226.0679 14.4901,227.6999 15.5781,229.4949" id="Fill-8985" fill="#000000"></path>
                <path d="M5.1016,254.5955 C0.6306,246.6255 6.2976,241.2395 11.7606,236.2045 C13.3016,234.7835 10.9986,232.4905 9.4616,233.9065 C6.2806,236.8395 2.6656,239.5155 1.0516,243.7075 C-0.5144,247.7765 0.2046,252.5075 2.2946,256.2365 C3.3186,258.0605 6.1266,256.4235 5.1016,254.5955" id="Fill-8987" fill="#000000"></path>
                <path d="M15.835,215.9631 C20.201,223.9081 14.578,229.2581 9.129,234.2801 C7.588,235.7011 9.891,237.9951 11.427,236.5781 C14.607,233.6471 18.219,230.9721 19.835,226.7841 C21.397,222.7361 20.689,218.0481 18.641,214.3231 C17.633,212.4891 14.825,214.1271 15.835,215.9631" id="Fill-8989" fill="#000000"></path>
                <path d="M4.8965,240.3279 C0.9515,232.4249 6.4465,227.3129 11.8145,222.3649 C13.3555,220.9449 11.0525,218.6509 9.5165,220.0669 C6.3425,222.9919 2.7455,225.6589 1.1205,229.8299 C-0.4145,233.7709 0.2435,238.2679 2.0895,241.9689 C3.0245,243.8399 5.8295,242.1959 4.8965,240.3279" id="Fill-8991" fill="#000000"></path>
                <path d="M15.6563,6.4729 C20.4033,14.3059 14.6573,20.2719 9.1513,25.3779 C7.6143,26.8039 9.9173,29.0979 11.4493,27.6769 C18.1403,21.4709 24.0623,14.0729 18.4623,4.8319 C17.3803,3.0459 14.5683,4.6779 15.6563,6.4729" id="Fill-8993" fill="#000000"></path>
                <path d="M5.1787,31.5735 C0.7077,23.6035 6.3747,18.2175 11.8377,13.1825 C13.3787,11.7615 11.0757,9.4685 9.5397,10.8845 C6.3577,13.8175 2.7427,16.4935 1.1297,20.6855 C-0.4373,24.7545 0.2817,29.4855 2.3727,33.2135 C3.3967,35.0385 6.2037,33.4015 5.1787,31.5735" id="Fill-8995" fill="#000000"></path>
                <path d="M17.0532195,8.8817842e-16 C16.4862195,4.902 12.5644,8.1453 9.2064,11.2583 C7.6694,12.6833 9.9714,14.9773 11.5044,13.5563 C15.6844,9.6823 19.7340524,6.01 20.4300524,2.24854856e-15 L17.0532195,8.8817842e-16 Z" id="Fill-8997" fill="#000000"></path>
                <path d="M9.6173922,1.1907321 C9.89769028,0.938661595 10.2726424,0.541750895 10.7422485,-1.77635684e-15 L6.45999383,-1.77635684e-15 C1.25240344,5.20860727 -1.43826231,11.849143 2.1676,18.9469 C3.1156,20.8109 5.9206,19.1679 4.9746,17.3059 C1.7806,11.0199 4.8543922,5.4797321 9.6173922,1.1907321 Z" id="Fill-8999" fill="#000000"></path>
                <path d="M3.61570962,2.22044605e-15 L0.392127847,2.22044605e-15 C0.689127847,1.766 1.3752,3.849 2.3102,5.381 C3.3992,7.162 6.2122,5.532 5.1172,3.74 C4.3142,2.427 3.86970962,1.514 3.61570962,2.22044605e-15 Z" id="Fill-9001" fill="#000000"></path>
                <path d="M15.4033,90.365 C20.1513,98.198 14.4043,104.164 8.8983,109.27 C7.3623,110.696 9.6643,112.99 11.1973,111.569 C17.8883,105.363 23.8103,97.965 18.2103,88.725 C17.1273,86.938 14.3153,88.57 15.4033,90.365" id="Fill-9003" fill="#000000"></path>
                <path d="M4.9268,115.4656 C0.4558,107.4956 6.1228,102.1096 11.5848,97.0746 C13.1268,95.6536 10.8238,93.3606 9.2868,94.7766 C6.1058,97.7096 2.4908,100.3856 0.8768,104.5786 C-0.6902,108.6476 0.0288,113.3776 2.1198,117.1066 C3.1438,118.9306 5.9518,117.2936 4.9268,115.4656" id="Fill-9005" fill="#000000"></path>
                <path d="M15.6592,76.8333 C20.0262,84.7783 14.4022,90.1283 8.9542,95.1503 C7.4122,96.5713 9.7152,98.8653 11.2522,97.4493 C14.4322,94.5173 18.0442,91.8423 19.6602,87.6543 C21.2212,83.6063 20.5132,78.9183 18.4662,75.1933 C17.4582,73.3593 14.6502,74.9983 15.6592,76.8333" id="Fill-9007" fill="#000000"></path>
                <path d="M4.7217,101.1985 C0.7767,93.2955 6.2717,88.1835 11.6397,83.2355 C13.1807,81.8145 10.8777,79.5215 9.3407,80.9375 C6.1677,83.8625 2.5707,86.5285 0.9457,90.7005 C-0.5903,94.6415 0.0687,99.1385 1.9147,102.8385 C2.8497,104.7105 5.6547,103.0665 4.7217,101.1985" id="Fill-9009" fill="#000000"></path>
                <path d="M15.5117,62.4797 C20.2597,70.3127 14.5127,76.2787 9.0077,81.3857 C7.4707,82.8107 9.7727,85.1047 11.3057,83.6837 C17.9967,77.4777 23.9187,70.0797 18.3187,60.8397 C17.2357,59.0537 14.4237,60.6847 15.5117,62.4797" id="Fill-9011" fill="#000000"></path>
                <path d="M5.0352,87.5808 C0.5642,79.6108 6.2312,74.2248 11.6942,69.1898 C13.2352,67.7688 10.9322,65.4758 9.3952,66.8918 C6.2142,69.8248 2.5992,72.5008 0.9852,76.6928 C-0.5808,80.7618 0.1382,85.4928 2.2282,89.2208 C3.2522,91.0448 6.0602,89.4088 5.0352,87.5808" id="Fill-9013" fill="#000000"></path>
                <path d="M15.7686,48.9485 C20.1346,56.8935 14.5116,62.2435 9.0626,67.2655 C7.5216,68.6865 9.8246,70.9805 11.3606,69.5635 C14.5406,66.6325 18.1526,63.9575 19.7686,59.7685 C21.3306,55.7215 20.6226,51.0335 18.5746,47.3075 C17.5666,45.4745 14.7596,47.1125 15.7686,48.9485" id="Fill-9015" fill="#000000"></path>
                <path d="M4.8301,73.3132 C0.8851,65.4102 6.3801,60.2982 11.7481,55.3502 C13.2891,53.9302 10.9861,51.6362 9.4501,53.0522 C6.2761,55.9772 2.6791,58.6432 1.0541,62.8152 C-0.4809,66.7562 0.1771,71.2532 2.0231,74.9532 C2.9581,76.8252 5.7631,75.1812 4.8301,73.3132" id="Fill-9017" fill="#000000"></path>
                <path d="M15.6211,34.4294 C20.3691,42.2624 14.6221,48.2284 9.1161,53.3344 C7.5801,54.7604 9.8821,57.0544 11.4151,55.6334 C18.1061,49.4274 24.0281,42.0294 18.4281,32.7894 C17.3451,31.0024 14.5331,32.6344 15.6211,34.4294" id="Fill-9019" fill="#000000"></path>
                <path d="M5.1445,59.53 C0.6735,51.56 6.3405,46.174 11.8035,41.139 C13.3445,39.718 11.0415,37.425 9.5045,38.841 C6.3235,41.774 2.7085,44.45 1.0945,48.643 C-0.4715,52.712 0.2465,57.442 2.3375,61.171 C3.3615,62.995 6.1695,61.358 5.1445,59.53" id="Fill-9021" fill="#000000"></path>
                <path d="M15.8779,20.8982 C20.2439,28.8422 14.6209,34.1922 9.1719,39.2152 C7.6299,40.6362 9.9329,42.9292 11.4699,41.5132 C14.6499,38.5822 18.2619,35.9072 19.8779,31.7182 C21.4399,27.6712 20.7319,22.9832 18.6839,19.2572 C17.6759,17.4242 14.8679,19.0622 15.8779,20.8982" id="Fill-9023" fill="#000000"></path>
                <path d="M4.9395,45.2629 C0.9945,37.3599 6.4895,32.2479 11.8575,27.2999 C13.3985,25.8789 11.0955,23.5859 9.5595,25.0019 C6.3855,27.9269 2.7885,30.5929 1.1635,34.7649 C-0.3715,38.7059 0.2865,43.2029 2.1325,46.9029 C3.0675,48.7749 5.8725,47.1309 4.9395,45.2629" id="Fill-9025" fill="#000000"></path>
            </g>
            <g id="Group" transform="translate(20.000000, 0.000000)">
                <path d="M17.5518,239.915036 L17.5518,66.9334178 C17.5518,64.8177579 16.7148,63.2444726 15.4708,62.2015978 C16.7168,61.156729 17.5518,59.5784587 17.5518,57.4618018 L17.5518,0 L2.5518,0 L2.5518,57.4618018 C2.5518,60.2165465 3.9668,62.056034 5.8598,62.9952195 C5.2808,63.7160594 4.8578,64.6004092 4.6688,65.6552481 C3.4048,66.7001169 2.5518,68.2863633 2.5518,70.4229605 L2.5518,248.38964 C2.5518,250.736607 3.5768,252.424549 5.0518,253.453465 L5.0518,256.286974 C3.5768,257.31589 2.5518,259.003832 2.5518,261.350799 L2.5518,307 L18.0518,307 L18.0518,247.891134 C18.0518,246.056632 17.4198,244.629907 16.4428,243.600991 C17.1288,242.639871 17.5518,241.413546 17.5518,239.915036" id="Fill-8931" fill="#FFDC00"></path>
                <path d="M15.6133,201.5378 C20.3613,209.3708 14.6143,215.3368 9.1083,220.4438 C7.5713,221.8688 9.8743,224.1628 11.4063,222.7418 C18.0973,216.5358 24.0193,209.1378 18.4193,199.8978 C17.3373,198.1118 14.5253,199.7428 15.6133,201.5378" id="Fill-8935" fill="#000000"></path>
                <path d="M5.1357,226.6389 C0.6647,218.6689 6.3327,213.2829 11.7947,208.2479 C13.3367,206.8269 11.0337,204.5339 9.4967,205.9499 C6.3157,208.8829 2.7007,211.5589 1.0867,215.7509 C-0.4803,219.8199 0.2387,224.5509 2.3297,228.2789 C3.3537,230.1029 6.1607,228.4669 5.1357,226.6389" id="Fill-8937" fill="#000000"></path>
                <path d="M15.8691,188.0066 C20.2361,195.9516 14.6121,201.3016 9.1631,206.3236 C7.6221,207.7446 9.9251,210.0376 11.4621,208.6216 C14.6421,205.6906 18.2541,203.0156 19.8691,198.8266 C21.4311,194.7796 20.7231,190.0916 18.6761,186.3656 C17.6681,184.5326 14.8601,186.1706 15.8691,188.0066" id="Fill-8939" fill="#000000"></path>
                <path d="M4.9316,212.3713 C0.9866,204.4683 6.4806,199.3563 11.8496,194.4083 C13.3906,192.9883 11.0876,190.6943 9.5506,192.1103 C6.3776,195.0353 2.7806,197.7013 1.1556,201.8733 C-0.3804,205.8143 0.2786,210.3113 2.1246,214.0113 C3.0596,215.8833 5.8636,214.2393 4.9316,212.3713" id="Fill-8941" fill="#000000"></path>
                <path d="M15.5508,173.7048 C20.2988,181.5378 14.5528,187.5038 9.0468,192.6098 C7.5098,194.0358 9.8128,196.3298 11.3448,194.9078 C18.0358,188.7028 23.9578,181.3048 18.3578,172.0638 C17.2748,170.2778 14.4628,171.9098 15.5508,173.7048" id="Fill-8943" fill="#000000"></path>
                <path d="M5.0742,198.8054 C0.6032,190.8354 6.2702,185.4494 11.7332,180.4144 C13.2742,178.9934 10.9712,176.7004 9.4352,178.1164 C6.2532,181.0494 2.6382,183.7254 1.0242,187.9174 C-0.5418,191.9864 0.1772,196.7174 2.2672,200.4454 C3.2912,202.2704 6.0992,200.6334 5.0742,198.8054" id="Fill-8945" fill="#000000"></path>
                <path d="M15.8076,160.1731 C20.1736,168.1181 14.5506,173.4681 9.1016,178.4901 C7.5606,179.9111 9.8636,182.2051 11.3996,180.7881 C14.5796,177.8571 18.1916,175.1821 19.8076,170.9941 C21.3696,166.9461 20.6616,162.2581 18.6136,158.5331 C17.6066,156.6991 14.7986,158.3371 15.8076,160.1731" id="Fill-8947" fill="#000000"></path>
                <path d="M4.8691,184.5378 C0.9241,176.6348 6.4191,171.5228 11.7871,166.5748 C13.3281,165.1548 11.0251,162.8608 9.4891,164.2768 C6.3151,167.2018 2.7181,169.8688 1.0931,174.0398 C-0.4419,177.9808 0.2161,182.4778 2.0631,186.1788 C2.9971,188.0498 5.8021,186.4058 4.8691,184.5378" id="Fill-8949" fill="#000000"></path>
                <path d="M15.6592,145.8196 C20.4072,153.6526 14.6612,159.6186 9.1552,164.7246 C7.6182,166.1506 9.9212,168.4446 11.4532,167.0236 C18.1442,160.8176 24.0662,153.4196 18.4662,144.1796 C17.3832,142.3926 14.5712,144.0246 15.6592,145.8196" id="Fill-8951" fill="#000000"></path>
                <path d="M5.1826,170.9202 C0.7116,162.9502 6.3786,157.5642 11.8416,152.5292 C13.3826,151.1082 11.0796,148.8152 9.5436,150.2312 C6.3616,153.1642 2.7466,155.8402 1.1326,160.0332 C-0.4334,164.1012 0.2856,168.8322 2.3766,172.5612 C3.3996,174.3852 6.2076,172.7482 5.1826,170.9202" id="Fill-8953" fill="#000000"></path>
                <path d="M15.916,132.2878 C20.282,140.2328 14.659,145.5828 9.21,150.6048 C7.669,152.0258 9.972,154.3198 11.508,152.9038 C14.688,149.9718 18.3,147.2968 19.916,143.1088 C21.478,139.0608 20.77,134.3728 18.723,130.6478 C17.715,128.8138 14.907,130.4528 15.916,132.2878" id="Fill-8955" fill="#000000"></path>
                <path d="M4.9775,156.6531 C1.0335,148.7491 6.5275,143.6381 11.8955,138.6901 C13.4375,137.2691 11.1335,134.9761 9.5975,136.3921 C6.4235,139.3171 2.8275,141.9831 1.2025,146.1551 C-0.3335,150.0961 0.3255,154.5931 2.1715,158.2931 C3.1055,160.1651 5.9105,158.5211 4.9775,156.6531" id="Fill-8957" fill="#000000"></path>
                <path d="M15.7686,117.7693 C20.5166,125.6023 14.7706,131.5683 9.2646,136.6743 C7.7276,138.1003 10.0306,140.3943 11.5626,138.9733 C18.2536,132.7673 24.1756,125.3693 18.5756,116.1283 C17.4926,114.3423 14.6806,115.9743 15.7686,117.7693" id="Fill-8959" fill="#000000"></path>
                <path d="M5.292,142.8699 C0.821,134.8999 6.488,129.5139 11.951,124.4789 C13.492,123.0579 11.189,120.7649 9.653,122.1809 C6.471,125.1139 2.856,127.7899 1.242,131.9819 C-0.324,136.0509 0.395,140.7819 2.485,144.5109 C3.509,146.3349 6.317,144.6979 5.292,142.8699" id="Fill-8961" fill="#000000"></path>
                <path d="M16.0254,104.2375 C20.3914,112.1825 14.7684,117.5325 9.3194,122.5545 C7.7784,123.9755 10.0814,126.2695 11.6174,124.8525 C14.7974,121.9215 18.4094,119.2465 20.0254,115.0585 C21.5874,111.0105 20.8794,106.3225 18.8324,102.5975 C17.8244,100.7635 15.0164,102.4015 16.0254,104.2375" id="Fill-8963" fill="#000000"></path>
                <path d="M5.0869,128.6023 C1.1419,120.6993 6.6369,115.5873 12.0049,110.6393 C13.5459,109.2193 11.2429,106.9253 9.7069,108.3413 C6.5329,111.2663 2.9359,113.9333 1.3119,118.1043 C-0.2241,122.0453 0.4349,126.5423 2.2809,130.2433 C3.2149,132.1143 6.0199,130.4703 5.0869,128.6023" id="Fill-8965" fill="#000000"></path>
                <path d="M17.2297,306.3342 C17.2132762,306.624957 17.0123893,307 17.0031178,307 C16.9938463,307 20.2259001,307 20.248646,307 C20.4219836,307 20.4651382,306.591253 20.4797,306.3342 C20.6437,303.4222 19.9637,300.6042 18.4857,298.0912 C17.4247,296.2912 14.6147,297.9242 15.6787,299.7322 C16.8867,301.7842 17.3637,303.9642 17.2297,306.3342 Z" id="Fill-8967" fill="#000000"></path>
                <path d="M8.8554,304.3354 C8.57624306,304.594565 7.77733707,305.482765 6.45868201,307 L10.751128,307 C10.9187257,306.85012 11.0531497,306.728253 11.1544,306.6344 C17.8454,300.4284 23.7674,293.0304 18.1674,283.7894 C17.0844,282.0034 14.2724,283.6354 15.3604,285.4304 C20.1084,293.2634 14.3614,299.2294 8.8554,304.3354 Z" id="Fill-8969" fill="#000000"></path>
                <path d="M11.5431,292.1396 C13.0761,290.7106 10.7731,288.4166 9.2441,289.8416 C4.3171,294.4356 -0.5329,298.9366 0.1201,306.2366 C0.137003789,306.424359 0.216800703,306.678826 0.359490744,307 L3.61631865,307 C3.46122825,306.59208 3.37915537,306.337613 3.3701,306.2366 C2.7981,299.8416 7.2681,296.1246 11.5431,292.1396 Z" id="Fill-8971" fill="#000000"></path>
                <path d="M15.6172,271.8987 C19.9832,279.8437 14.3602,285.1937 8.9112,290.2157 C7.3692,291.6367 9.6732,293.9307 11.2092,292.5137 C14.3892,289.5827 18.0012,286.9077 19.6172,282.7197 C21.1792,278.6717 20.4712,273.9837 18.4232,270.2587 C17.4152,268.4247 14.6072,270.0627 15.6172,271.8987" id="Fill-8973" fill="#000000"></path>
                <path d="M4.6787,296.2634 C0.7337,288.3604 6.2287,283.2484 11.5967,278.3004 C13.1377,276.8804 10.8347,274.5864 9.2987,276.0024 C6.1247,278.9274 2.5277,281.5944 0.9027,285.7654 C-0.6323,289.7064 0.0257,294.2034 1.8717,297.9044 C2.8067,299.7754 5.6117,298.1314 4.6787,296.2634" id="Fill-8975" fill="#000000"></path>
                <path d="M15.4688,257.5452 C20.2168,265.3782 14.4698,271.3442 8.9648,276.4502 C7.4278,277.8762 9.7298,280.1702 11.2628,278.7492 C17.9538,272.5432 23.8758,265.1452 18.2758,255.9052 C17.1928,254.1182 14.3808,255.7502 15.4688,257.5452" id="Fill-8977" fill="#000000"></path>
                <path d="M4.9922,282.6458 C0.5212,274.6758 6.1882,269.2898 11.6512,264.2548 C13.1922,262.8338 10.8892,260.5408 9.3532,261.9568 C6.1712,264.8898 2.5562,267.5658 0.9422,271.7588 C-0.6238,275.8278 0.0952,280.5578 2.1852,284.2868 C3.2092,286.1108 6.0172,284.4738 4.9922,282.6458" id="Fill-8979" fill="#000000"></path>
                <path d="M15.7256,244.0134 C20.0916,251.9584 14.4686,257.3084 9.0196,262.3304 C7.4786,263.7514 9.7816,266.0454 11.3176,264.6294 C14.4976,261.6974 18.1096,259.0224 19.7256,254.8344 C21.2876,250.7864 20.5796,246.0984 18.5316,242.3734 C17.5246,240.5394 14.7166,242.1784 15.7256,244.0134" id="Fill-8981" fill="#000000"></path>
                <path d="M4.7871,268.3787 C0.8421,260.4757 6.3371,255.3637 11.7051,250.4157 C13.2461,248.9947 10.9431,246.7017 9.4071,248.1177 C6.2331,251.0427 2.6361,253.7087 1.0111,257.8807 C-0.5239,261.8217 0.1341,266.3187 1.9811,270.0187 C2.9151,271.8907 5.7201,270.2467 4.7871,268.3787" id="Fill-8983" fill="#000000"></path>
                <path d="M15.5781,229.4949 C20.3261,237.3279 14.5791,243.2939 9.0741,248.3999 C7.5371,249.8259 9.8391,252.1199 11.3721,250.6989 C18.0631,244.4929 23.9851,237.0949 18.3851,227.8539 C17.3021,226.0679 14.4901,227.6999 15.5781,229.4949" id="Fill-8985" fill="#000000"></path>
                <path d="M5.1016,254.5955 C0.6306,246.6255 6.2976,241.2395 11.7606,236.2045 C13.3016,234.7835 10.9986,232.4905 9.4616,233.9065 C6.2806,236.8395 2.6656,239.5155 1.0516,243.7075 C-0.5144,247.7765 0.2046,252.5075 2.2946,256.2365 C3.3186,258.0605 6.1266,256.4235 5.1016,254.5955" id="Fill-8987" fill="#000000"></path>
                <path d="M15.835,215.9631 C20.201,223.9081 14.578,229.2581 9.129,234.2801 C7.588,235.7011 9.891,237.9951 11.427,236.5781 C14.607,233.6471 18.219,230.9721 19.835,226.7841 C21.397,222.7361 20.689,218.0481 18.641,214.3231 C17.633,212.4891 14.825,214.1271 15.835,215.9631" id="Fill-8989" fill="#000000"></path>
                <path d="M4.8965,240.3279 C0.9515,232.4249 6.4465,227.3129 11.8145,222.3649 C13.3555,220.9449 11.0525,218.6509 9.5165,220.0669 C6.3425,222.9919 2.7455,225.6589 1.1205,229.8299 C-0.4145,233.7709 0.2435,238.2679 2.0895,241.9689 C3.0245,243.8399 5.8295,242.1959 4.8965,240.3279" id="Fill-8991" fill="#000000"></path>
                <path d="M15.6563,6.4729 C20.4033,14.3059 14.6573,20.2719 9.1513,25.3779 C7.6143,26.8039 9.9173,29.0979 11.4493,27.6769 C18.1403,21.4709 24.0623,14.0729 18.4623,4.8319 C17.3803,3.0459 14.5683,4.6779 15.6563,6.4729" id="Fill-8993" fill="#000000"></path>
                <path d="M5.1787,31.5735 C0.7077,23.6035 6.3747,18.2175 11.8377,13.1825 C13.3787,11.7615 11.0757,9.4685 9.5397,10.8845 C6.3577,13.8175 2.7427,16.4935 1.1297,20.6855 C-0.4373,24.7545 0.2817,29.4855 2.3727,33.2135 C3.3967,35.0385 6.2037,33.4015 5.1787,31.5735" id="Fill-8995" fill="#000000"></path>
                <path d="M17.0532195,8.8817842e-16 C16.4862195,4.902 12.5644,8.1453 9.2064,11.2583 C7.6694,12.6833 9.9714,14.9773 11.5044,13.5563 C15.6844,9.6823 19.7340524,6.01 20.4300524,2.24854856e-15 L17.0532195,8.8817842e-16 Z" id="Fill-8997" fill="#000000"></path>
                <path d="M9.6173922,1.1907321 C9.89769028,0.938661595 10.2726424,0.541750895 10.7422485,-1.77635684e-15 L6.45999383,-1.77635684e-15 C1.25240344,5.20860727 -1.43826231,11.849143 2.1676,18.9469 C3.1156,20.8109 5.9206,19.1679 4.9746,17.3059 C1.7806,11.0199 4.8543922,5.4797321 9.6173922,1.1907321 Z" id="Fill-8999" fill="#000000"></path>
                <path d="M3.61570962,2.22044605e-15 L0.392127847,2.22044605e-15 C0.689127847,1.766 1.3752,3.849 2.3102,5.381 C3.3992,7.162 6.2122,5.532 5.1172,3.74 C4.3142,2.427 3.86970962,1.514 3.61570962,2.22044605e-15 Z" id="Fill-9001" fill="#000000"></path>
                <path d="M15.4033,90.365 C20.1513,98.198 14.4043,104.164 8.8983,109.27 C7.3623,110.696 9.6643,112.99 11.1973,111.569 C17.8883,105.363 23.8103,97.965 18.2103,88.725 C17.1273,86.938 14.3153,88.57 15.4033,90.365" id="Fill-9003" fill="#000000"></path>
                <path d="M4.9268,115.4656 C0.4558,107.4956 6.1228,102.1096 11.5848,97.0746 C13.1268,95.6536 10.8238,93.3606 9.2868,94.7766 C6.1058,97.7096 2.4908,100.3856 0.8768,104.5786 C-0.6902,108.6476 0.0288,113.3776 2.1198,117.1066 C3.1438,118.9306 5.9518,117.2936 4.9268,115.4656" id="Fill-9005" fill="#000000"></path>
                <path d="M15.6592,76.8333 C20.0262,84.7783 14.4022,90.1283 8.9542,95.1503 C7.4122,96.5713 9.7152,98.8653 11.2522,97.4493 C14.4322,94.5173 18.0442,91.8423 19.6602,87.6543 C21.2212,83.6063 20.5132,78.9183 18.4662,75.1933 C17.4582,73.3593 14.6502,74.9983 15.6592,76.8333" id="Fill-9007" fill="#000000"></path>
                <path d="M4.7217,101.1985 C0.7767,93.2955 6.2717,88.1835 11.6397,83.2355 C13.1807,81.8145 10.8777,79.5215 9.3407,80.9375 C6.1677,83.8625 2.5707,86.5285 0.9457,90.7005 C-0.5903,94.6415 0.0687,99.1385 1.9147,102.8385 C2.8497,104.7105 5.6547,103.0665 4.7217,101.1985" id="Fill-9009" fill="#000000"></path>
                <path d="M15.5117,62.4797 C20.2597,70.3127 14.5127,76.2787 9.0077,81.3857 C7.4707,82.8107 9.7727,85.1047 11.3057,83.6837 C17.9967,77.4777 23.9187,70.0797 18.3187,60.8397 C17.2357,59.0537 14.4237,60.6847 15.5117,62.4797" id="Fill-9011" fill="#000000"></path>
                <path d="M5.0352,87.5808 C0.5642,79.6108 6.2312,74.2248 11.6942,69.1898 C13.2352,67.7688 10.9322,65.4758 9.3952,66.8918 C6.2142,69.8248 2.5992,72.5008 0.9852,76.6928 C-0.5808,80.7618 0.1382,85.4928 2.2282,89.2208 C3.2522,91.0448 6.0602,89.4088 5.0352,87.5808" id="Fill-9013" fill="#000000"></path>
                <path d="M15.7686,48.9485 C20.1346,56.8935 14.5116,62.2435 9.0626,67.2655 C7.5216,68.6865 9.8246,70.9805 11.3606,69.5635 C14.5406,66.6325 18.1526,63.9575 19.7686,59.7685 C21.3306,55.7215 20.6226,51.0335 18.5746,47.3075 C17.5666,45.4745 14.7596,47.1125 15.7686,48.9485" id="Fill-9015" fill="#000000"></path>
                <path d="M4.8301,73.3132 C0.8851,65.4102 6.3801,60.2982 11.7481,55.3502 C13.2891,53.9302 10.9861,51.6362 9.4501,53.0522 C6.2761,55.9772 2.6791,58.6432 1.0541,62.8152 C-0.4809,66.7562 0.1771,71.2532 2.0231,74.9532 C2.9581,76.8252 5.7631,75.1812 4.8301,73.3132" id="Fill-9017" fill="#000000"></path>
                <path d="M15.6211,34.4294 C20.3691,42.2624 14.6221,48.2284 9.1161,53.3344 C7.5801,54.7604 9.8821,57.0544 11.4151,55.6334 C18.1061,49.4274 24.0281,42.0294 18.4281,32.7894 C17.3451,31.0024 14.5331,32.6344 15.6211,34.4294" id="Fill-9019" fill="#000000"></path>
                <path d="M5.1445,59.53 C0.6735,51.56 6.3405,46.174 11.8035,41.139 C13.3445,39.718 11.0415,37.425 9.5045,38.841 C6.3235,41.774 2.7085,44.45 1.0945,48.643 C-0.4715,52.712 0.2465,57.442 2.3375,61.171 C3.3615,62.995 6.1695,61.358 5.1445,59.53" id="Fill-9021" fill="#000000"></path>
                <path d="M15.8779,20.8982 C20.2439,28.8422 14.6209,34.1922 9.1719,39.2152 C7.6299,40.6362 9.9329,42.9292 11.4699,41.5132 C14.6499,38.5822 18.2619,35.9072 19.8779,31.7182 C21.4399,27.6712 20.7319,22.9832 18.6839,19.2572 C17.6759,17.4242 14.8679,19.0622 15.8779,20.8982" id="Fill-9023" fill="#000000"></path>
                <path d="M4.9395,45.2629 C0.9945,37.3599 6.4895,32.2479 11.8575,27.2999 C13.3985,25.8789 11.0955,23.5859 9.5595,25.0019 C6.3855,27.9269 2.7885,30.5929 1.1635,34.7649 C-0.3715,38.7059 0.2865,43.2029 2.1325,46.9029 C3.0675,48.7749 5.8725,47.1309 4.9395,45.2629" id="Fill-9025" fill="#000000"></path>
            </g>
        </g>
    </g>
</svg>