<?xml version="1.0" encoding="UTF-8" standalone="no"?>
<svg width="150px" height="155px" viewBox="0 0 150 155" version="1.1" xmlns="http://www.w3.org/2000/svg" xmlns:xlink="http://www.w3.org/1999/xlink">
    <!-- Generator: Sketch 48 (47235) - http://www.bohemiancoding.com/sketch -->
    <title>anoter-box</title>
    <desc>Created with Sketch.</desc>
    <defs></defs>
    <g id="Boxes" stroke="none" stroke-width="1" fill="none" fill-rule="evenodd">
        <g id="anoter-box">
            <g id="Group" transform="translate(1.000000, 0.000000)">
                <polygon id="Fill-172" fill="#A98F3B" points="4.86205797 154.166594 146.745014 154.166594 146.745014 12.5392754 4.86205797 12.5392754"></polygon>
                <g id="Group-193">
                    <path d="M146.744925,11.8093826 L98.7762435,11.8093826 L22.3558522,11.8093826 L4.86196812,11.8093826 C4.46705507,11.8093826 4.13189565,12.1436435 4.13189565,12.5394551 L4.13189565,60.5881072 L4.13189565,136.637397 L4.13189565,154.166774 C4.13189565,154.561687 4.46615652,154.896846 4.86196812,154.896846 L52.8302,154.896846 L129.251041,154.896846 L146.744925,154.896846 C147.139388,154.896846 147.474997,154.562586 147.474997,154.166774 L147.474997,106.118122 L147.474997,30.0692812 L147.474997,12.5394551 C147.474997,11.599571 146.014852,11.5982232 146.014852,12.5394551 L146.014852,60.5881072 L146.014852,136.637397 L146.014852,154.166774 C146.258359,153.923716 146.501417,153.680209 146.744925,153.436701 L98.7762435,153.436701 L22.3558522,153.436701 L4.86196812,153.436701 C5.10502609,153.680209 5.34853333,153.923716 5.59204058,154.166774 L5.59204058,106.118122 L5.59204058,30.0692812 L5.59204058,12.5394551 C5.34853333,12.782513 5.10502609,13.0260203 4.86196812,13.2695275 L52.8302,13.2695275 L129.251041,13.2695275 L146.744925,13.2695275 C147.684359,13.2695275 147.686157,11.8093826 146.744925,11.8093826" id="Fill-173" fill="#000000"></path>
                    <polygon id="Fill-175" fill="#000000" points="1.03535507 1.53571304 5.00515217 12.5393652 5.00515217 153.593409 1.03535507 139.562988"></polygon>
                    <path d="M0.331610145,1.73006957 C1.23600145,4.23702609 2.14039275,6.74443188 3.04523333,9.25183768 C3.43295797,10.3269536 3.97792899,11.4425043 4.23716087,12.5571565 C4.3094942,12.8671565 4.22907391,12.339258 4.2749,12.7665188 C4.49324783,14.801287 4.2749,16.981171 4.2749,19.0240261 L4.2749,50.3124609 L4.2749,133.458954 L4.2749,153.593678 C4.75292899,153.528983 5.23095797,153.463838 5.70898696,153.399591 L3.66343623,146.169403 C3.12295797,144.258186 1.92968261,140.922765 1.76524783,139.555171 C1.57700145,137.982707 1.76524783,136.270519 1.76524783,134.690417 L1.76524783,104.837867 L1.76524783,22.0179971 L1.76524783,1.53553333 C1.76524783,0.596547826 0.305102899,0.594750725 0.305102899,1.53553333 L0.305102899,56.9311855 L0.305102899,132.744606 C0.305102899,134.946504 0.0669869565,137.299809 0.305102899,139.493171 C0.514914493,141.419214 1.36853768,143.420736 1.89418986,145.279388 C2.69659565,148.115214 3.49900145,150.95149 4.30095797,153.787316 C4.52424783,154.575794 5.73504493,154.425736 5.73504493,153.593678 L5.73504493,98.8930551 L5.73504493,21.1890841 C5.73504493,18.4714174 5.93047971,15.6715333 5.73504493,12.959258 C5.65911739,11.905258 5.21343623,10.9707652 4.85176957,9.96843188 C3.81439275,7.09306957 2.77656667,4.21725797 1.73963913,1.34189565 C1.42334928,0.46446087 0.011726087,0.842750725 0.331610145,1.73006957" id="Fill-177" fill="#000000"></path>
                    <polygon id="Fill-179" fill="#D42314" points="1.03535507 1.30492029 139.215384 1.30492029 146.60192 12.5395 5.00515217 12.5395"></polygon>
                    <path d="M1.03535507,2.03499275 L55.4210362,2.03499275 L131.339587,2.03499275 L136.427181,2.03499275 C136.972152,2.03499275 138.450268,2.30500725 138.940428,2.03499275 C139.448109,1.75554348 138.673109,2.06239855 138.678949,1.81664493 C138.65963,2.63432609 140.510645,4.60305072 140.950935,5.27202174 C142.624036,7.81716667 144.298036,10.3623116 145.971587,12.9074565 C146.181399,12.5417464 146.391659,12.1751377 146.60192,11.8094275 L98.5631522,11.8094275 L22.5309348,11.8094275 L5.00515217,11.8094275 C5.23967391,11.9877899 5.47464493,12.1666014 5.70871739,12.3449638 C4.38605072,8.60025362 3.06293478,4.85554348 1.73936957,1.11083333 C1.42847101,0.230702899 0.0172971014,0.609891304 0.331789855,1.49900725 C1.6549058,5.24416667 2.97802174,8.98887681 4.30113768,12.7331377 C4.40941304,13.0395435 4.66774638,13.2695725 5.00515217,13.2695725 L53.043471,13.2695725 L129.075688,13.2695725 L146.60192,13.2695725 C147.132964,13.2695725 147.541355,12.6410362 147.231804,12.1710942 C145.796819,9.98761594 144.361384,7.80458696 142.9255,5.6211087 L140.463022,1.8755 C140.088775,1.30626812 139.877167,0.774326087 139.213587,0.574847826 C137.908442,0.182630435 135.878167,0.574847826 134.535732,0.574847826 L104.581645,0.574847826 L21.4603116,0.574847826 L1.03535507,0.574847826 C0.0959202899,0.574847826 0.0941231884,2.03499275 1.03535507,2.03499275" id="Fill-181" fill="#000000"></path>
                    <path d="M0.390824638,1.70944783 C1.61465072,5.39440435 2.83847681,9.07936087 4.06275217,12.7643174 C4.35747681,13.6520855 5.76820145,13.2715493 5.47078116,12.3761435 C4.24695507,8.69118696 3.02267971,5.00623043 1.79885362,1.32127391 C1.50412899,0.433955072 0.0934043478,0.814491304 0.390824638,1.70944783" id="Fill-183" fill="#000000"></path>
                    <path d="M146.744925,11.8405174 L98.8252145,11.8405174 L22.4812,11.8405174 L5.00528696,11.8405174 C4.61037391,11.8405174 4.27521449,12.1747783 4.27521449,12.5705899 L4.27521449,60.6089087 L4.27521449,136.641126 L4.27521449,154.166909 C4.27521449,154.561822 4.60947536,154.896981 5.00528696,154.896981 L52.9249971,154.896981 L129.269012,154.896981 L146.744925,154.896981 C147.139388,154.896981 147.474997,154.56272 147.474997,154.166909 L147.474997,106.12859 L147.474997,30.0963725 L147.474997,12.5705899 C147.474997,11.6307058 146.014852,11.629358 146.014852,12.5705899 L146.014852,60.6089087 L146.014852,136.641126 L146.014852,154.166909 C146.258359,153.923851 146.501417,153.680343 146.744925,153.436836 L98.8252145,153.436836 L22.4812,153.436836 L5.00528696,153.436836 C5.2487942,153.680343 5.49185217,153.923851 5.73535942,154.166909 L5.73535942,106.12859 L5.73535942,30.0963725 L5.73535942,12.5705899 C5.49185217,12.8136478 5.2487942,13.0571551 5.00528696,13.3006623 L52.9249971,13.3006623 L129.269012,13.3006623 L146.744925,13.3006623 C147.684359,13.3006623 147.686157,11.8405174 146.744925,11.8405174" id="Fill-185" fill="#000000"></path>
                    <path d="M138.584691,1.74103188 C141.063343,5.46327826 143.541097,9.18552464 146.019749,12.9073217 C146.537764,13.6863652 147.803372,12.9558435 147.279967,12.1709594 C144.802213,8.44871304 142.323561,4.72646667 139.845807,1.00377101 C139.327343,0.225626087 138.062184,0.955698551 138.584691,1.74103188" id="Fill-187" fill="#000000"></path>
                    <path d="M0.331610145,139.756806 C1.65472609,144.625154 2.9782913,149.493052 4.30095797,154.3614 C4.54716087,155.26669 5.95653768,154.882559 5.70898696,153.973226 C4.38587101,149.105328 3.06275507,144.23698 1.73963913,139.369081 C1.49343623,138.462893 0.0840594203,138.847472 0.331610145,139.756806" id="Fill-189" fill="#000000"></path>
                    <path d="M0.305282609,1.53571304 L0.305282609,48.2320464 L0.305282609,122.589814 L0.305282609,139.562988 C0.305282609,140.502423 1.76542754,140.503771 1.76542754,139.562988 L1.76542754,92.8666551 L1.76542754,18.5084377 L1.76542754,1.53571304 C1.76542754,0.596278261 0.305282609,0.594481159 0.305282609,1.53571304" id="Fill-191" fill="#000000"></path>
                </g>
            </g>
        </g>
    </g>
</svg>