<?xml version="1.0" encoding="UTF-8" standalone="no"?>
<svg width="150px" height="150px" viewBox="0 0 150 150" version="1.1" xmlns="http://www.w3.org/2000/svg" xmlns:xlink="http://www.w3.org/1999/xlink">
    <!-- Generator: Sketch 47.1 (45422) - http://www.bohemiancoding.com/sketch -->
    <title>bottom-left</title>
    <desc>Created with Sketch.</desc>
    <defs></defs>
    <g id="Boxes" stroke="none" stroke-width="1" fill="none" fill-rule="evenodd">
        <g id="bottom-left" fill-rule="nonzero">
            <g transform="translate(-2.000000, -3.000000)">
                <polygon id="Fill-3427" fill="#D42314" points="25.3196237 1.5466141 1.18999551 1.01995385 1.15297628 153.335826 25.3334442 102.142178"></polygon>
                <polygon id="Fill-3429" fill="#D42314" points="1.18624423 153.335579 24.8721353 102.141931 153.134392 102.141931 153.134392 153.335579"></polygon>
                <g id="Group-3477" transform="translate(0.000000, 0.158788)" fill="#1D1D1B">
                    <path d="M24.6414314,101.936006 C17.5371942,116.765416 10.4339442,131.594826 3.32970705,146.424237 C2.3168609,148.540256 1.30302756,150.655781 0.289194231,152.771801 C-0.154542949,153.698269 1.22800192,154.513185 1.67470064,153.581288 C8.77795064,138.751878 15.8821878,123.922467 22.9859314,109.093057 C23.9992712,106.977038 25.0131045,104.861512 26.0264442,102.745493 C26.4701814,101.819025 25.0871429,101.004108 24.6414314,101.936006" id="Fill-3437"></path>
                    <path d="M26.1356756,102.340453 L26.1356756,68.2368571 L26.1356756,13.7914404 L26.1356756,1.17528654 C26.1356756,0.142696795 24.531509,0.141216026 24.531509,1.17528654 L24.531509,35.2788827 L24.531509,89.7242994 L24.531509,102.340453 C24.531509,103.373043 26.1356756,103.374524 26.1356756,102.340453" id="Fill-3439"></path>
                    <path d="M152.982958,101.538814 L109.796324,101.538814 L41.0289071,101.538814 L25.3347276,101.538814 C24.3021378,101.538814 24.3006571,103.142981 25.3347276,103.142981 L68.5213622,103.142981 L137.288779,103.142981 L152.982958,103.142981 C154.015548,103.142981 154.017029,101.538814 152.982958,101.538814" id="Fill-3475"></path>
                </g>
            </g>
        </g>
    </g>
</svg>