<?xml version="1.0" encoding="UTF-8" standalone="no"?>
<svg width="308px" height="308px" viewBox="0 0 308 308" version="1.1" xmlns="http://www.w3.org/2000/svg" xmlns:xlink="http://www.w3.org/1999/xlink">
    <!-- Generator: Sketch 47.1 (45422) - http://www.bohemiancoding.com/sketch -->
    <title>Slice</title>
    <desc>Created with Sketch.</desc>
    <defs></defs>
    <g id="Page-1" stroke="none" stroke-width="1" fill="none" fill-rule="evenodd">
        <polygon id="Fill-3427" fill="#A1A0A5" points="49.2969 0.1334 0.4109 -0.9336 0.3359 307.6544 49.3249 203.9374"></polygon>
        <polygon id="Fill-3429" fill="#A1A0A5" points="0.4033 307.6539 48.3903 203.9369 308.2463 203.9369 308.2463 307.6539"></polygon>
        <g id="Group-3477" transform="translate(-2.000000, -2.678300)" fill="#1D1D1B">
            <path d="M49.9229,206.5197 C35.5299,236.5637 21.1389,266.6077 6.7459,296.6517 C4.6939,300.9387 2.6399,305.2247 0.5859,309.5117 C-0.3131,311.3887 2.4879,313.0397 3.3929,311.1517 C17.7839,281.1077 32.1769,251.0637 46.5689,221.0197 C48.6219,216.7327 50.6759,212.4467 52.7289,208.1597 C53.6279,206.2827 50.8259,204.6317 49.9229,206.5197" id="Fill-3437"></path>
            <path d="M52.9502,207.3391 L52.9502,138.2461 L52.9502,27.9411 L52.9502,2.3811 C52.9502,0.2891 49.7002,0.2861 49.7002,2.3811 L49.7002,71.4741 L49.7002,181.7791 L49.7002,207.3391 C49.7002,209.4311 52.9502,209.4341 52.9502,207.3391" id="Fill-3439"></path>
            <path d="M309.9395,205.715 L222.4445,205.715 L83.1235,205.715 L51.3275,205.715 C49.2355,205.715 49.2325,208.965 51.3275,208.965 L138.8225,208.965 L278.1435,208.965 L309.9395,208.965 C312.0315,208.965 312.0345,205.715 309.9395,205.715" id="Fill-3475"></path>
        </g>
    </g>
</svg>