<?xml version="1.0" encoding="UTF-8" standalone="no"?>
<svg width="305px" height="305px" viewBox="0 0 305 305" version="1.1" xmlns="http://www.w3.org/2000/svg" xmlns:xlink="http://www.w3.org/1999/xlink">
    <!-- Generator: Sketch 47.1 (45422) - http://www.bohemiancoding.com/sketch -->
    <title>Slice</title>
    <desc>Created with Sketch.</desc>
    <defs></defs>
    <g id="Page-1" stroke="none" stroke-width="1" fill="none" fill-rule="evenodd">
        <g id="background" transform="translate(-4.000000, -2.000000)">
            <polyline id="Fill-8821" fill="#006D3C" points="3.6113 309.103 308.8353 309.103 207.6673 284.435 0.5823 284.435"></polyline>
            <polyline id="Stroke-8822" stroke="#000000" stroke-width="0.65" points="3.6113 309.103 308.8353 309.103 207.6673 284.435 0.5823 284.435"></polyline>
            <polygon id="Fill-8824" fill="#0455AF" points="1.044 285.7993 208.177 285.7993 208.177 236.4213 1.044 236.4213"></polygon>
            <g id="Group-8842" transform="translate(0.000000, 1.540300)" fill="#006D3C">
                <polyline id="Fill-8839" points="3.8896 0.0842 309.1146 0.0842 207.9456 16.5652 0.8616 16.5652"></polyline>
            </g>
            <polygon id="Fill-8843" fill="#006D3C" points="309.5537 309.103 208.1767 285.799 208.1767 18.644 309.0937 1.624"></polygon>
            <polyline id="Stroke-8845" stroke="#000000" stroke-width="0.65" points="309.5537 309.103 208.1767 285.799 208.1767 18.644 309.0937 1.624 309.5537 309.103"></polyline>
            <path d="M208.6084,19.354 C238.1264,14.638 267.6424,9.923 297.1604,5.208 C301.3654,4.536 305.5714,3.864 309.7764,3.192 C311.8364,2.863 310.9624,-0.27 308.9124,0.058 C279.3954,4.774 249.8784,9.489 220.3604,14.205 C216.1554,14.876 211.9504,15.548 207.7444,16.22 C205.6844,16.549 206.5584,19.682 208.6084,19.354" id="Fill-8847" fill="#1D1D1B"></path>
            <path d="M209.8018,285.3598 L209.8018,194.8018 L209.8018,50.6398 L209.8018,17.7878 C209.8018,15.6958 206.5518,15.6928 206.5518,17.7878 L206.5518,108.3448 L206.5518,252.5068 L206.5518,285.3598 C206.5518,287.4518 209.8018,287.4548 209.8018,285.3598" id="Fill-8855" fill="#1D1D1B"></path>
            <path d="M208.1768,283.7348 L138.4178,283.7348 L27.2908,283.7348 L1.8648,283.7348 C-0.2252,283.7348 -0.2292,286.9848 1.8648,286.9848 L71.6238,286.9848 L182.7498,286.9848 L208.1768,286.9848 C210.2678,286.9848 210.2718,283.7348 208.1768,283.7348" id="Fill-8857" fill="#1D1D1B"></path>
            <path d="M1.8652,19.4126 L71.6242,19.4126 L182.7502,19.4126 L208.1772,19.4126 C210.2672,19.4126 210.2702,16.1626 208.1772,16.1626 L138.4182,16.1626 L27.2912,16.1626 L1.8652,16.1626 C-0.2258,16.1626 -0.2298,19.4126 1.8652,19.4126" id="Fill-8859" fill="#1D1D1B"></path>
            <path d="M207.7441,286.9272 C237.2591,293.8602 266.7721,300.7922 296.2861,307.7252 L308.9481,310.6982 C310.9821,311.1772 311.8501,308.0442 309.8121,307.5652 C280.2981,300.6322 250.7841,293.6992 221.2701,286.7672 L208.6081,283.7932 C206.5741,283.3152 205.7061,286.4482 207.7441,286.9272" id="Fill-8849" fill="#1D1D1B"></path>
            <path d="M1.8662,238.0463 L71.6242,238.0463 L182.7512,238.0463 L208.1772,238.0463 C210.2682,238.0463 210.2712,234.7963 208.1772,234.7963 L138.4182,234.7963 L27.2922,234.7963 L1.8662,234.7963 C-0.2258,234.7963 -0.2288,238.0463 1.8662,238.0463" id="Fill-8851" fill="#1D1D1B"></path>
        </g>
    </g>
</svg>