<?xml version="1.0" encoding="UTF-8" standalone="no"?>
<svg width="150px" height="150px" viewBox="0 0 150 150" version="1.1" xmlns="http://www.w3.org/2000/svg" xmlns:xlink="http://www.w3.org/1999/xlink">
    <!-- Generator: Sketch 47.1 (45422) - http://www.bohemiancoding.com/sketch -->
    <title>left-middle-pink</title>
    <desc>Created with Sketch.</desc>
    <defs></defs>
    <g id="Boxes" stroke="none" stroke-width="1" fill="none" fill-rule="evenodd">
        <g id="left-middle-pink">
            <g id="green-side-blue-bottom" transform="translate(75.500000, 75.500000) scale(-1, 1) translate(-75.500000, -75.500000) translate(-1.000000, -1.000000)">
                <polyline id="Fill-8821" fill="#EF88B7" fill-rule="nonzero" points="1.77662026 152.066749 151.935051 152.066749 102.164299 139.931045 0.286469132 139.931045"></polyline>
                <polyline id="Fill-8839" fill="#EF88B7" fill-rule="nonzero" points="1.91353312 0.799191318 152.072456 0.799191318 102.301212 8.9072074 0.423873955 8.9072074"></polyline>
                <polygon id="Fill-8843" fill="#EF88B7" fill-rule="nonzero" points="152.288476 152.066749 102.414904 140.60208 102.414904 9.17212862 152.062174 0.798945338"></polygon>
                <polyline id="Stroke-8845" stroke="#000000" stroke-width="0.65" points="152.288476 152.066749 102.414904 140.60208 102.414904 9.17212862 152.062174 0.798945338 152.288476 152.066749"></polyline>
                <path d="M102.627284,9.52142122 C117.149001,7.20133119 131.669734,4.88173312 146.191451,2.56213505 C148.260149,2.23153698 150.329338,1.90093891 152.398036,1.57034084 C153.411477,1.40848553 152.981502,-0.132829582 151.972981,0.0285337621 C137.451756,2.34862379 122.930531,4.66822186 108.408814,6.9883119 C106.340116,7.31841801 104.271419,7.64901608 102.202229,7.97961415 C101.188788,8.14146945 101.618763,9.68278457 102.627284,9.52142122" id="Fill-8847" fill="#1D1D1B" fill-rule="nonzero"></path>
                <path d="M103.21439,140.386011 L103.21439,95.8349691 L103.21439,24.9128277 L103.21439,8.75091125 C103.21439,7.72172797 101.615516,7.72025209 101.615516,8.75091125 L101.615516,53.3014611 L101.615516,124.223603 L101.615516,140.386011 C101.615516,141.415194 103.21439,141.41667 103.21439,140.386011" id="Fill-8855" fill="#1D1D1B" fill-rule="nonzero"></path>
                <path d="M102.414953,139.586574 L68.0962167,139.586574 L13.4260206,139.586574 L0.917409646,139.586574 C-0.110789711,139.586574 -0.112757556,141.185448 0.917409646,141.185448 L35.236146,141.185448 L89.9058502,141.185448 L102.414953,141.185448 C103.443644,141.185448 103.445612,139.586574 102.414953,139.586574" id="Fill-8857" fill="#1D1D1B" fill-rule="nonzero"></path>
                <path d="M0.917606431,9.55025016 L35.2363428,9.55025016 L89.9060469,9.55025016 L102.41515,9.55025016 C103.443349,9.55025016 103.444825,7.95137556 102.41515,7.95137556 L68.0964135,7.95137556 L13.4262174,7.95137556 L0.917606431,7.95137556 C-0.111084887,7.95137556 -0.113052733,9.55025016 0.917606431,9.55025016" id="Fill-8859" fill="#1D1D1B" fill-rule="nonzero"></path>
                <path d="M102.202081,141.157111 C116.722323,144.56788 131.24158,147.978156 145.761329,151.388925 L151.990544,152.851526 C152.991194,153.087176 153.418216,151.54586 152.415599,151.310211 C137.89585,147.899442 123.376101,144.488674 108.856351,141.078397 L102.627136,139.615304 C101.626486,139.380147 101.199464,140.921462 102.202081,141.157111" id="Fill-8849" fill="#1D1D1B" fill-rule="nonzero"></path>
            </g>
        </g>
    </g>
</svg>