<?xml version="1.0" encoding="UTF-8" standalone="no"?>
<svg width="229px" height="229px" viewBox="0 0 229 229" version="1.1" xmlns="http://www.w3.org/2000/svg" xmlns:xlink="http://www.w3.org/1999/xlink">
    <!-- Generator: Sketch 47.1 (45422) - http://www.bohemiancoding.com/sketch -->
    <title>left-middle-green copy</title>
    <desc>Created with Sketch.</desc>
    <defs></defs>
    <g id="Boxes" stroke="none" stroke-width="1" fill="none" fill-rule="evenodd">
        <g id="left-middle-green-copy">
            <polygon id="Combined-Shape" fill="#EF88B7" points="32 19 229 19 229 -1 1 -1 1 1 -1 1 -1 230 32 230"></polygon>
            <path d="M0.0181,1.9676 C10.2501,8.1196 20.4831,14.2716 30.7161,20.4236 C32.5141,21.5046 34.1491,18.6956 32.3571,17.6176 C22.1241,11.4656 11.8911,5.3136 1.6581,-0.8384 C-0.1389,-1.9194 -1.7739,0.8896 0.0181,1.9676" id="Fill-44" fill="#000000"></path>
            <path d="M229.2124,17.3934 L162.3024,17.3934 L56.1364,17.3934 L31.5324,17.3934 C29.4414,17.3934 29.4384,20.6434 31.5324,20.6434 L98.4434,20.6434 L204.6084,20.6434 L229.2124,20.6434 C231.3034,20.6434 231.3074,17.3934 229.2124,17.3934" id="Fill-45" fill="#000000"></path>
            <path d="M29.9077,19.0184 L29.9077,90.3094 L29.9077,203.3604 L29.9077,229.4174 C29.9077,231.5084 33.1577,231.5124 33.1577,229.4174 L33.1577,158.1254 L33.1577,45.0754 L33.1577,19.0184 C33.1577,16.9274 29.9077,16.9234 29.9077,19.0184" id="Fill-46" fill="#000000"></path>
        </g>
    </g>
</svg>