<?xml version="1.0" encoding="UTF-8" standalone="no"?>
<svg width="308px" height="308px" viewBox="0 0 308 308" version="1.1" xmlns="http://www.w3.org/2000/svg" xmlns:xlink="http://www.w3.org/1999/xlink">
    <!-- Generator: Sketch 47.1 (45422) - http://www.bohemiancoding.com/sketch -->
    <title>Slice</title>
    <desc>Created with Sketch.</desc>
    <defs></defs>
    <g id="Page-1" stroke="none" stroke-width="1" fill="none" fill-rule="evenodd">
        <polygon id="Fill-308" fill="#A98F3B" points="0.2451 308.0669 0.2451 283.3799 258.0761 283.9299 307.8531 308.0669"></polygon>
        <polygon id="Fill-316" fill="#A98F3B" points="0.5234 0.36 0.5234 25.047 258.3554 24.497 308.1324 0.36"></polygon>
        <polygon id="Fill-320" fill="#A98F3B" points="257.7431 25.5856 308.7271 0.3596 308.9601 308.0666 257.7431 284.7446"></polygon>
        <path d="M259.1494,25.3961 C275.7514,17.5181 292.3514,9.6411 308.9534,1.7631 C310.8414,0.8681 309.1944,-1.9359 307.3124,-1.0419 C290.7114,6.8341 274.1104,14.7121 257.5084,22.5891 C255.6204,23.4861 257.2674,26.2891 259.1494,25.3961" id="Fill-324" fill="#1D1D1B"></path>
        <path d="M257.7373,285.9644 L307.3483,309.4984 C309.2283,310.3904 310.8793,307.5894 308.9883,306.6924 L259.3773,283.1574 C257.4983,282.2664 255.8463,285.0674 257.7373,285.9644" id="Fill-326" fill="#1D1D1B"></path>
        <path d="M260.3037,284.3052 L260.3037,196.7502 L260.3037,57.0282 L260.3037,24.7282 C260.3037,22.6372 257.0537,22.6332 257.0537,24.7282 L257.0537,112.2832 L257.0537,252.0052 L257.0537,284.3052 C257.0537,286.3972 260.3037,286.4002 260.3037,284.3052" id="Fill-328" fill="#1D1D1B"></path>
        <path d="M256.869002,282.6802 L33.521427,282.6802 L1.84266053,282.6802 C-2.1373995,282.6802 -2.14310704,285.9302 1.84266053,285.9302 L225.190236,285.9302 L256.869002,285.9302 C260.84716,285.9302 260.85477,282.6802 256.869002,282.6802" id="Fill-334" fill="#1D1D1B"></path>
        <path d="M0.4257,26.3531 L87.7997,26.3531 L226.9257,26.3531 L258.6787,26.3531 C260.7697,26.3531 260.7737,23.1031 258.6787,23.1031 L171.3047,23.1031 L32.1787,23.1031 L0.4257,23.1031 C-1.6653,23.1031 -1.6693,26.3531 0.4257,26.3531" id="Fill-338" fill="#1D1D1B"></path>
    </g>
</svg>