<?xml version="1.0" encoding="UTF-8" standalone="no"?>
<svg width="308px" height="308px" viewBox="0 0 308 308" version="1.1" xmlns="http://www.w3.org/2000/svg" xmlns:xlink="http://www.w3.org/1999/xlink">
    <!-- Generator: Sketch 47.1 (45422) - http://www.bohemiancoding.com/sketch -->
    <title>Slice</title>
    <desc>Created with Sketch.</desc>
    <defs></defs>
    <g id="Page-1" stroke="none" stroke-width="1" fill="none" fill-rule="evenodd">
        <g id="box" transform="translate(-2.000000, -2.000000)" fill-rule="nonzero">
            <path d="M103.574,105.886 L103.574,310.452 L2,310.452 L2.461,2 L103.574,105.886 Z M311.452,2 L311.452,105.886 L103.967,105.886 L3,2 L311.452,2 Z" id="sides" fill="#006D3C"></path>
            <polygon id="back" fill="#FEDC01" points="104 311.201 311.542 311.201 311.542 106 104 106"></polygon>
            <g id="Group-702" fill="#1D1D1B">
                <path d="M104.584775,104.249533 C74.822775,73.9175326 45.060775,43.5855326 15.297775,13.2545326 C11.121775,8.99853255 6.94477502,4.74153255 2.76877502,0.485532552 C1.30177502,-1.00946745 -0.996224983,1.28853255 0.470775017,2.78353255 L89.756775,93.7785326 C93.933775,98.0345326 98.109775,102.291533 102.286775,106.547533 C103.753775,108.042533 106.051775,105.744533 104.584775,104.249533" id="Fill-494"></path>
                <path d="M104.25,311.79687 L104.25,131.877691 L104.25,106.272594 C104.25,103.244641 101,103.240297 101,106.272594 L101,286.191773 L101,311.79687 C101,314.824823 104.25,314.830615 104.25,311.79687" id="Fill-498"></path>
                <path d="M308.828846,104 L106.141155,104 C100.624892,104 100.61434,107.25 106.141155,107.25 L308.828846,107.25 C314.345109,107.25 314.355661,104 308.828846,104" id="Fill-504"></path>
            </g>
        </g>
    </g>
</svg>