<?xml version="1.0" encoding="UTF-8" standalone="no"?>
<svg width="150px" height="150px" viewBox="0 0 150 150" version="1.1" xmlns="http://www.w3.org/2000/svg" xmlns:xlink="http://www.w3.org/1999/xlink">
    <!-- Generator: Sketch 47.1 (45422) - http://www.bohemiancoding.com/sketch -->
    <title>top-left-red</title>
    <desc>Created with Sketch.</desc>
    <defs></defs>
    <g id="Boxes" stroke="none" stroke-width="1" fill="none" fill-rule="evenodd">
        <g id="top-left-red" fill-rule="nonzero">
            <g id="top-left2" transform="translate(-3.000000, -3.000000)">
                <path d="M51.2118186,52.5218743 L51.2118186,154.025157 L0.974842767,154.025157 L1.20284645,0.974842767 L51.2118186,52.5218743 Z M154.025157,0.974842767 L154.025157,52.5218743 L51.4061905,52.5218743 L1.46942776,0.974842767 L154.025157,0.974842767 Z" id="sides" fill="#D42314"></path>
                <g id="Group-702" fill="#1D1D1B">
                    <path d="M51.7911825,51.6200143 C37.0528119,36.6008747 22.3144413,21.5817352 7.57557548,6.56309091 C5.50758826,4.45569746 3.43910584,2.34780887 1.37111862,0.240415439 C0.644648972,-0.499846118 -0.49333825,0.638027497 0.233131398,1.37828905 L44.4482432,46.4352123 C46.5167256,48.5426057 48.5847129,50.6504945 50.6531953,52.757888 C51.3796649,53.4981495 52.5176522,52.3602759 51.7911825,51.6200143" id="Fill-494"></path>
                    <path d="M51.6253994,154.388787 L51.6253994,65.3003242 L51.6253994,52.6217496 C51.6253994,51.1224338 50.0159744,51.1202828 50.0159744,52.6217496 L50.0159744,141.710212 L50.0159744,154.388787 C50.0159744,155.888102 51.6253994,155.89097 51.6253994,154.388787" id="Fill-498"></path>
                    <path d="M152.934413,51.496456 L52.5619138,51.496456 C49.8302181,51.496456 49.8249927,53.1057203 52.5619138,53.1057203 L152.934413,53.1057203 C155.666108,53.1057203 155.671334,51.496456 152.934413,51.496456" id="Fill-504"></path>
                </g>
            </g>
        </g>
    </g>
</svg>