<?xml version="1.0" encoding="UTF-8" standalone="no"?>
<svg width="307px" height="307px" viewBox="0 0 307 307" version="1.1" xmlns="http://www.w3.org/2000/svg" xmlns:xlink="http://www.w3.org/1999/xlink">
    <!-- Generator: Sketch 47.1 (45422) - http://www.bohemiancoding.com/sketch -->
    <title>Slice</title>
    <desc>Created with Sketch.</desc>
    <defs></defs>
    <g id="Page-1" stroke="none" stroke-width="1" fill="none" fill-rule="evenodd">
        <g id="box-green-side-red-back" transform="translate(-2.000000, -2.000000)" fill-rule="nonzero">
            <polygon id="Fill-7465" fill="#006D3C" points="50.212601 105.300796 1.845601 1.65979603 1.625601 309.383796 50.212601 309.383796"></polygon>
            <polygon id="Fill-7468" fill="#006D3C" points="1.740501 1.66019603 49.693501 105.301196 309.356501 105.301196 309.356501 1.66019603"></polygon>
            <path d="M51.750701,104.362796 C37.571701,74.163796 23.392701,43.965796 9.212701,13.766796 C7.189701,9.45779603 5.166701,5.14879603 3.143701,0.840796029 C2.254701,-1.05220397 -0.547298996,0.595796029 0.336701004,2.48079603 C14.516701,32.678796 28.695701,62.877796 42.875701,93.076796 C44.898701,97.385796 46.921701,101.694796 48.944701,106.002796 C49.832701,107.894796 52.635701,106.246796 51.750701,104.362796" id="Fill-7479" fill="#1D1D1B"></path>
            <path d="M51.972901,309.383796 L51.972901,240.175796 L51.972901,130.457796 L51.972901,105.182796 C51.972901,103.091796 48.722901,103.088796 48.722901,105.182796 L48.722901,174.389796 L48.722901,284.108796 L48.722901,309.383796 C48.722901,311.474796 51.972901,311.478796 51.972901,309.383796" id="Fill-7480" fill="#1D1D1B"></path>
            <path d="M228.639796,103.558196 L53.1372877,103.558196 C47.329239,103.558196 47.3209061,106.808196 53.1372877,106.808196 L228.639796,106.808196 C234.447845,106.808196 234.458955,103.558196 228.639796,103.558196" id="Fill-7482" fill="#1D1D1B"></path>
            <path d="M229.91499,103.558196 C227.782767,103.558196 227.779709,106.808196 229.91499,106.808196 L309.40045,106.808196 C311.531654,106.808196 311.534712,103.558196 309.40045,103.558196 L229.91499,103.558196 Z" id="Fill-7483" fill="#1D1D1B"></path>
        </g>
    </g>
</svg>