<?xml version="1.0" encoding="UTF-8" standalone="no"?>
<svg width="150px" height="150px" viewBox="0 0 150 150" version="1.1" xmlns="http://www.w3.org/2000/svg" xmlns:xlink="http://www.w3.org/1999/xlink">
    <!-- Generator: Sketch 47.1 (45422) - http://www.bohemiancoding.com/sketch -->
    <title>bird</title>
    <desc>Created with Sketch.</desc>
    <defs></defs>
    <g id="Page-1" stroke="none" stroke-width="1" fill="none" fill-rule="evenodd">
        <g id="bird">
            <g id="Group-3" transform="translate(13.000000, 32.000000)">
                <path d="M38.8567286,62.6466821 C38.1437286,61.9336821 36.9823357,61.9292536 36.2449786,62.5979679 C36.1270679,62.4800571 36.0025143,62.366575 35.8480679,62.2680393 C35.4915679,62.0405214 35.0442821,61.9071107 34.6075143,61.8893964 C34.3943893,61.552825 34.0616929,61.2743786 33.5834071,61.1215929 C30.1900143,60.0404679 26.8885143,59.7371107 23.3523,59.6014857 C20.4853536,59.491325 19.0372107,60.0637179 17.0299607,61.4659143 C16.7077821,61.4703429 16.3789607,61.5417536 16.0695143,61.6901107 C14.8998179,62.2492179 14.4508714,63.5196643 14.66455,64.7275571 C14.7785857,65.3708071 15.2723714,65.8302714 15.7639429,66.1972893 C15.9676571,66.3489679 16.19905,66.4386464 16.4415143,66.4890214 C16.6114607,66.9711821 16.8998714,67.3631107 17.2314607,67.7445214 C16.9502464,68.9983607 17.9151214,70.5383964 19.5088536,70.0551286 C21.71705,69.3847536 24.3514964,69.4024679 26.657675,69.1799321 C29.1061214,68.9435571 31.5695143,68.915325 34.0251571,68.98895 C34.4215143,69.0011286 34.7464607,68.9037 35.0138357,68.7442714 C35.3930321,68.5942536 35.7279429,68.3324143 35.9399607,67.9587536 C36.00805,67.8336464 36.0805679,67.7113071 36.1602821,67.5933964 C36.00805,67.8319857 36.3601214,67.365325 36.3595679,67.3664321 C36.4868893,67.2302536 36.6291571,67.1084679 36.7692107,66.9866821 C36.8035321,66.9573429 36.8190321,66.94295 36.8406214,66.9241286 C36.8671929,66.9053071 36.9076036,66.8765214 36.96905,66.8316821 C37.6183893,66.3517357 38.2804607,65.8872893 38.8567286,65.3182179 C39.5891036,64.5952536 39.5808,63.3707536 38.8567286,62.6466821" id="Fill-3" fill="#2B924C"></path>
                <path d="M38.8567286,62.6466821 C38.1437286,61.9336821 36.9823357,61.9292536 36.2449786,62.5979679 C36.1270679,62.4800571 36.0025143,62.366575 35.8480679,62.2680393 C35.4915679,62.0405214 35.0442821,61.9071107 34.6075143,61.8893964 C34.3943893,61.552825 34.0616929,61.2743786 33.5834071,61.1215929 C30.1900143,60.0404679 26.8885143,59.7371107 23.3523,59.6014857 C20.4853536,59.491325 19.0372107,60.0637179 17.0299607,61.4659143 C16.7077821,61.4703429 16.3789607,61.5417536 16.0695143,61.6901107 C14.8998179,62.2492179 14.4508714,63.5196643 14.66455,64.7275571 C14.7785857,65.3708071 15.2723714,65.8302714 15.7639429,66.1972893 C15.9676571,66.3489679 16.19905,66.4386464 16.4415143,66.4890214 C16.6114607,66.9711821 16.8998714,67.3631107 17.2314607,67.7445214 C16.9502464,68.9983607 17.9151214,70.5383964 19.5088536,70.0551286 C21.71705,69.3847536 24.3514964,69.4024679 26.657675,69.1799321 C29.1061214,68.9435571 31.5695143,68.915325 34.0251571,68.98895 C34.4215143,69.0011286 34.7464607,68.9037 35.0138357,68.7442714 C35.3930321,68.5942536 35.7279429,68.3324143 35.9399607,67.9587536 C36.00805,67.8336464 36.0805679,67.7113071 36.1602821,67.5933964 C36.00805,67.8319857 36.3601214,67.365325 36.3595679,67.3664321 C36.4868893,67.2302536 36.6291571,67.1084679 36.7692107,66.9866821 C36.8035321,66.9573429 36.8190321,66.94295 36.8406214,66.9241286 C36.8671929,66.9053071 36.9076036,66.8765214 36.96905,66.8316821 C37.6183893,66.3517357 38.2804607,65.8872893 38.8567286,65.3182179 C39.5891036,64.5952536 39.5808,63.3707536 38.8567286,62.6466821 Z" id="Stroke-5" stroke="#1D1D1B"></path>
                <path d="M42.0229911,62.5971929 C41.4223661,62.5971929 41.0077411,62.8856036 40.7774554,63.2830679 C40.7735804,63.2863893 40.7691518,63.28805 40.7658304,63.2913714 C40.0738661,63.9124786 39.6786161,64.8203357 39.0674732,65.5211571 C38.3445089,66.3498536 37.3718839,67.0528893 36.8138839,68.0055857 C35.8268661,69.6912107 38.4391696,71.2118714 39.4239732,69.5312286 C39.6027768,69.2262107 39.9238482,68.9981393 40.1873482,68.7589964 C40.5549196,68.4251929 40.8759911,68.0288357 41.2042589,67.6584964 C41.5496875,67.2704429 41.8774018,66.872425 42.1885089,66.4572464 C42.4431518,66.1168 42.5826518,65.7165679 42.9031696,65.4292643 C43.0941518,65.2576571 43.2192589,65.0722107 43.2962054,64.8817821 C43.7678482,63.9872107 43.3460268,62.5971929 42.0229911,62.5971929" id="Fill-7" fill="#F4EED8"></path>
                <path d="M42.0229911,62.5971929 C41.4223661,62.5971929 41.0077411,62.8856036 40.7774554,63.2830679 C40.7735804,63.2863893 40.7691518,63.28805 40.7658304,63.2913714 C40.0738661,63.9124786 39.6786161,64.8203357 39.0674732,65.5211571 C38.3445089,66.3498536 37.3718839,67.0528893 36.8138839,68.0055857 C35.8268661,69.6912107 38.4391696,71.2118714 39.4239732,69.5312286 C39.6027768,69.2262107 39.9238482,68.9981393 40.1873482,68.7589964 C40.5549196,68.4251929 40.8759911,68.0288357 41.2042589,67.6584964 C41.5496875,67.2704429 41.8774018,66.872425 42.1885089,66.4572464 C42.4431518,66.1168 42.5826518,65.7165679 42.9031696,65.4292643 C43.0941518,65.2576571 43.2192589,65.0722107 43.2962054,64.8817821 C43.7678482,63.9872107 43.3460268,62.5971929 42.0229911,62.5971929 Z" id="Stroke-9" stroke="#1D1D1B"></path>
                <path d="M16.5506232,67.6891089 C16.4465518,66.9257339 15.8547839,66.2592339 14.9746054,66.4319482 C14.9651946,66.3223411 14.9496946,66.2088589 14.9220161,66.0848589 C14.6496589,64.8819482 13.2164625,64.7424482 12.3960696,65.4178054 C11.4466946,66.1994482 10.3096589,66.9600554 9.09014107,67.5717518 C8.90137321,67.5739661 8.71205179,67.5772875 8.52162321,67.5723054 C7.85401607,67.5540375 7.42167679,67.8989125 7.21131964,68.3583768 C7.14765893,68.3799661 7.08344464,68.4054304 7.01978393,68.4259125 C5.90599821,68.5814661 4.79387321,68.7503054 3.68728393,68.9578946 C1.96014107,69.2811804 2.43842679,71.8890554 4.08862321,71.9261446 C5.47698036,71.9571446 6.88526607,71.6809125 8.25203393,71.2048411 C9.49203393,71.0199482 10.7375696,70.8898589 11.9593018,70.8870911 C13.5569089,70.8832161 15.2126411,70.9291625 16.3048375,69.5756804 C16.7023018,69.0824482 16.8755696,68.2581804 16.5506232,67.6891089" id="Fill-11" fill="#FFDC00"></path>
                <path d="M16.5506232,67.6891089 C16.4465518,66.9257339 15.8547839,66.2592339 14.9746054,66.4319482 C14.9651946,66.3223411 14.9496946,66.2088589 14.9220161,66.0848589 C14.6496589,64.8819482 13.2164625,64.7424482 12.3960696,65.4178054 C11.4466946,66.1994482 10.3096589,66.9600554 9.09014107,67.5717518 C8.90137321,67.5739661 8.71205179,67.5772875 8.52162321,67.5723054 C7.85401607,67.5540375 7.42167679,67.8989125 7.21131964,68.3583768 C7.14765893,68.3799661 7.08344464,68.4054304 7.01978393,68.4259125 C5.90599821,68.5814661 4.79387321,68.7503054 3.68728393,68.9578946 C1.96014107,69.2811804 2.43842679,71.8890554 4.08862321,71.9261446 C5.47698036,71.9571446 6.88526607,71.6809125 8.25203393,71.2048411 C9.49203393,71.0199482 10.7375696,70.8898589 11.9593018,70.8870911 C13.5569089,70.8832161 15.2126411,70.9291625 16.3048375,69.5756804 C16.7023018,69.0824482 16.8755696,68.2581804 16.5506232,67.6891089 Z" id="Stroke-13" stroke="#1D1D1B"></path>
                <path d="M62.6765196,76.3270375 C62.6106446,76.2744482 62.5364661,76.2323768 62.4678232,76.1820018 C62.4777875,76.0347518 62.4694839,75.8819661 62.4357161,75.7247518 C61.7000196,72.2599482 60.7213054,68.9274482 58.9775554,66.0051446 C58.4898589,64.6754661 57.7364482,63.5733054 56.6315196,62.8708232 C56.2185554,62.4296268 55.7817875,62.0011625 55.3084839,61.5915196 C54.6851625,61.0517875 53.9406089,61.1298411 53.4019839,61.4918768 C53.1440196,61.3822696 52.8495196,61.3335554 52.5162696,61.3916804 C50.4957339,61.7443054 48.4945732,62.1965732 46.4707161,62.5248411 C46.3118411,62.5508589 46.1784304,62.5995732 46.0566446,62.6576982 C45.9503589,62.6576982 45.8446268,62.6621268 45.7383411,62.6604661 C44.6577696,62.6388768 44.1800375,63.5572518 44.2973946,64.3870554 C43.4116804,65.9010732 41.8400911,66.9152161 40.6698411,68.2305018 C39.7614304,68.7685732 39.6507161,70.5610375 40.9914661,71.1074125 C42.0808946,71.5508232 43.1830554,71.9510554 44.2896446,72.3374482 C45.7388946,73.3626625 47.4295018,74.0385732 49.1655018,74.6796089 C51.0326982,75.3704661 53.2348054,75.7164482 55.3433589,76.2345911 C56.8064482,76.8335554 58.2723054,77.4247696 59.7724839,77.9307339 C60.0370911,78.0962518 60.2956089,78.2700732 60.5391804,78.4643768 C62.0460018,79.6678411 64.1999482,77.5432339 62.6765196,76.3270375" id="Fill-15" fill="#AD7240"></path>
                <path d="M62.6765196,76.3270375 C62.6106446,76.2744482 62.5364661,76.2323768 62.4678232,76.1820018 C62.4777875,76.0347518 62.4694839,75.8819661 62.4357161,75.7247518 C61.7000196,72.2599482 60.7213054,68.9274482 58.9775554,66.0051446 C58.4898589,64.6754661 57.7364482,63.5733054 56.6315196,62.8708232 C56.2185554,62.4296268 55.7817875,62.0011625 55.3084839,61.5915196 C54.6851625,61.0517875 53.9406089,61.1298411 53.4019839,61.4918768 C53.1440196,61.3822696 52.8495196,61.3335554 52.5162696,61.3916804 C50.4957339,61.7443054 48.4945732,62.1965732 46.4707161,62.5248411 C46.3118411,62.5508589 46.1784304,62.5995732 46.0566446,62.6576982 C45.9503589,62.6576982 45.8446268,62.6621268 45.7383411,62.6604661 C44.6577696,62.6388768 44.1800375,63.5572518 44.2973946,64.3870554 C43.4116804,65.9010732 41.8400911,66.9152161 40.6698411,68.2305018 C39.7614304,68.7685732 39.6507161,70.5610375 40.9914661,71.1074125 C42.0808946,71.5508232 43.1830554,71.9510554 44.2896446,72.3374482 C45.7388946,73.3626625 47.4295018,74.0385732 49.1655018,74.6796089 C51.0326982,75.3704661 53.2348054,75.7164482 55.3433589,76.2345911 C56.8064482,76.8335554 58.2723054,77.4247696 59.7724839,77.9307339 C60.0370911,78.0962518 60.2956089,78.2700732 60.5391804,78.4643768 C62.0460018,79.6678411 64.1999482,77.5432339 62.6765196,76.3270375 Z" id="Stroke-17" stroke="#1D1D1B"></path>
                <path d="M113.875898,78.3404875 C112.634237,78.3338446 111.392577,78.3139161 110.150916,78.2912196 C110.062345,78.1777375 109.943327,78.0747732 109.787773,77.9911839 C108.745952,77.4337375 107.685309,76.9205768 106.595327,76.4649875 C105.597791,76.0481482 104.414255,75.8903804 103.490345,75.3462196 C103.158755,75.1513625 102.836577,75.1458268 102.562559,75.2526661 C102.142952,74.8319518 101.552291,74.5568268 100.777291,74.5618089 C94.6237911,74.6033268 87.8320232,74.9792018 82.3660589,71.6433804 C82.2603268,71.5243625 82.1413089,71.4136482 82.0084518,71.3123446 C81.3856839,70.7061839 80.7357911,70.1332375 80.0753804,69.5719161 C79.4343446,68.9358625 78.8226482,68.2721304 78.2198089,67.6000946 C81.9951661,67.4434339 85.7135054,66.6252554 88.9734875,64.6373804 C91.0327732,63.3807732 93.1341304,62.0970411 93.9063625,59.6696304 C95.2155589,55.5516125 97.4160054,51.7491304 98.5690946,47.6078625 C98.6310946,47.3836661 98.6438268,47.1766304 98.6344161,46.9790054 C99.8616839,41.5805768 99.2367018,36.0564875 97.6800589,30.7986661 C96.8009875,27.8287554 96.1217554,25.2026125 94.5999875,22.4707375 C94.0098804,21.4128625 93.6362196,20.5564875 92.7887018,19.6840589 C92.2334696,19.1122196 91.1097196,18.8548089 91.1069518,18.8481661 C90.7067196,17.9187196 89.7745054,17.7758982 88.9651839,18.0560054 C88.5915232,17.8987911 88.1807732,17.7792196 87.7467732,17.6845589 C87.8397732,17.4376661 87.9399696,17.1929875 88.0506839,16.9505232 C88.9768089,14.9133804 86.2582196,13.1220232 85.0497732,14.6238625 C85.3376304,13.2847732 85.6398804,11.9462375 85.7898982,10.5811304 C86.0052375,8.61041607 83.5390768,8.26221964 82.4734518,9.49280893 C82.5033446,8.68127321 82.5232732,7.86863036 82.5149696,7.05488036 C82.4978089,5.43346964 80.8210411,4.89705893 79.7072554,5.43457679 C79.7255232,5.17827321 79.7393625,4.9208625 79.7443446,4.66179107 C79.7897375,2.2238625 76.0116125,2.22829107 75.9662196,4.66179107 C75.9263625,6.77588036 75.2975054,8.7726125 74.9000411,10.8346661 C74.8778982,10.9475946 74.8701482,11.0560946 74.8684875,11.1618268 C74.7400589,11.2941304 74.6348804,11.4485768 74.5485232,11.6129875 C73.9279696,12.0287196 73.4009696,12.6343268 73.0782375,13.4807375 C70.5201839,20.1855946 66.3313089,26.1054875 63.8839696,32.8767732 C63.7483446,33.2520946 63.6780411,33.6074875 63.6536839,33.9451661 C62.8836661,34.5518804 62.3605411,35.4951661 62.3633089,36.7777911 C62.3721661,40.7867554 62.3561125,44.7818804 62.2027732,48.7880768 C62.0616125,52.4676661 60.5370768,55.8710232 60.1750411,59.5334518 C60.1318625,59.4996839 60.0903446,59.4648089 60.0460589,59.4315946 C58.8890946,58.5652554 57.0938625,59.2428268 56.4273625,60.3804161 C55.6363089,61.7311304 56.2242018,63.1372018 57.3761839,63.9991125 C57.4232375,64.0345411 57.4669696,64.0727375 57.5134696,64.1087196 C57.5228804,64.1159161 57.5322911,64.1236661 57.5417018,64.1314161 C58.4036125,64.7951482 59.1891304,65.5540946 59.9530589,66.3362911 C59.9176304,66.8090411 60.0222554,67.3172196 60.3311482,67.8364696 C61.0391661,69.0216661 61.6896125,70.2362018 62.2276839,71.4900411 C61.7200589,72.1305232 61.5373804,73.0073804 61.7023446,73.8798089 C61.9713804,75.3052554 62.8072732,76.6011661 63.6060768,77.7863625 C63.6332018,77.8262196 63.6669696,77.8588804 63.6957554,77.8970768 C64.0035411,79.2688268 65.2640232,79.9264696 66.4680411,79.8794161 C66.7558982,80.1130232 67.1179339,80.2951482 67.5796125,80.3870411 C68.1270946,80.4960946 68.6773446,80.5813446 69.2248268,80.6826482 C70.0607196,80.9400589 70.9154339,81.1592732 71.7668268,81.3773804 C75.6429339,82.3710411 79.4277018,83.6985054 83.4178446,84.1906304 C92.8512554,85.3542375 100.883577,82.9522911 109.995362,81.1830768 C110.448184,81.0956125 110.743238,80.8625589 110.912077,80.5669518 C111.900202,80.5830054 112.887773,80.6023804 113.875898,80.6073625 C115.33788,80.6151125 115.337327,78.3482375 113.875898,78.3404875" id="Fill-19" fill="#D7E1CE"></path>
                <path d="M113.875898,78.3404875 C112.634237,78.3338446 111.392577,78.3139161 110.150916,78.2912196 C110.062345,78.1777375 109.943327,78.0747732 109.787773,77.9911839 C108.745952,77.4337375 107.685309,76.9205768 106.595327,76.4649875 C105.597791,76.0481482 104.414255,75.8903804 103.490345,75.3462196 C103.158755,75.1513625 102.836577,75.1458268 102.562559,75.2526661 C102.142952,74.8319518 101.552291,74.5568268 100.777291,74.5618089 C94.6237911,74.6033268 87.8320232,74.9792018 82.3660589,71.6433804 C82.2603268,71.5243625 82.1413089,71.4136482 82.0084518,71.3123446 C81.3856839,70.7061839 80.7357911,70.1332375 80.0753804,69.5719161 C79.4343446,68.9358625 78.8226482,68.2721304 78.2198089,67.6000946 C81.9951661,67.4434339 85.7135054,66.6252554 88.9734875,64.6373804 C91.0327732,63.3807732 93.1341304,62.0970411 93.9063625,59.6696304 C95.2155589,55.5516125 97.4160054,51.7491304 98.5690946,47.6078625 C98.6310946,47.3836661 98.6438268,47.1766304 98.6344161,46.9790054 C99.8616839,41.5805768 99.2367018,36.0564875 97.6800589,30.7986661 C96.8009875,27.8287554 96.1217554,25.2026125 94.5999875,22.4707375 C94.0098804,21.4128625 93.6362196,20.5564875 92.7887018,19.6840589 C92.2334696,19.1122196 91.1097196,18.8548089 91.1069518,18.8481661 C90.7067196,17.9187196 89.7745054,17.7758982 88.9651839,18.0560054 C88.5915232,17.8987911 88.1807732,17.7792196 87.7467732,17.6845589 C87.8397732,17.4376661 87.9399696,17.1929875 88.0506839,16.9505232 C88.9768089,14.9133804 86.2582196,13.1220232 85.0497732,14.6238625 C85.3376304,13.2847732 85.6398804,11.9462375 85.7898982,10.5811304 C86.0052375,8.61041607 83.5390768,8.26221964 82.4734518,9.49280893 C82.5033446,8.68127321 82.5232732,7.86863036 82.5149696,7.05488036 C82.4978089,5.43346964 80.8210411,4.89705893 79.7072554,5.43457679 C79.7255232,5.17827321 79.7393625,4.9208625 79.7443446,4.66179107 C79.7897375,2.2238625 76.0116125,2.22829107 75.9662196,4.66179107 C75.9263625,6.77588036 75.2975054,8.7726125 74.9000411,10.8346661 C74.8778982,10.9475946 74.8701482,11.0560946 74.8684875,11.1618268 C74.7400589,11.2941304 74.6348804,11.4485768 74.5485232,11.6129875 C73.9279696,12.0287196 73.4009696,12.6343268 73.0782375,13.4807375 C70.5201839,20.1855946 66.3313089,26.1054875 63.8839696,32.8767732 C63.7483446,33.2520946 63.6780411,33.6074875 63.6536839,33.9451661 C62.8836661,34.5518804 62.3605411,35.4951661 62.3633089,36.7777911 C62.3721661,40.7867554 62.3561125,44.7818804 62.2027732,48.7880768 C62.0616125,52.4676661 60.5370768,55.8710232 60.1750411,59.5334518 C60.1318625,59.4996839 60.0903446,59.4648089 60.0460589,59.4315946 C58.8890946,58.5652554 57.0938625,59.2428268 56.4273625,60.3804161 C55.6363089,61.7311304 56.2242018,63.1372018 57.3761839,63.9991125 C57.4232375,64.0345411 57.4669696,64.0727375 57.5134696,64.1087196 C57.5228804,64.1159161 57.5322911,64.1236661 57.5417018,64.1314161 C58.4036125,64.7951482 59.1891304,65.5540946 59.9530589,66.3362911 C59.9176304,66.8090411 60.0222554,67.3172196 60.3311482,67.8364696 C61.0391661,69.0216661 61.6896125,70.2362018 62.2276839,71.4900411 C61.7200589,72.1305232 61.5373804,73.0073804 61.7023446,73.8798089 C61.9713804,75.3052554 62.8072732,76.6011661 63.6060768,77.7863625 C63.6332018,77.8262196 63.6669696,77.8588804 63.6957554,77.8970768 C64.0035411,79.2688268 65.2640232,79.9264696 66.4680411,79.8794161 C66.7558982,80.1130232 67.1179339,80.2951482 67.5796125,80.3870411 C68.1270946,80.4960946 68.6773446,80.5813446 69.2248268,80.6826482 C70.0607196,80.9400589 70.9154339,81.1592732 71.7668268,81.3773804 C75.6429339,82.3710411 79.4277018,83.6985054 83.4178446,84.1906304 C92.8512554,85.3542375 100.883577,82.9522911 109.995362,81.1830768 C110.448184,81.0956125 110.743238,80.8625589 110.912077,80.5669518 C111.900202,80.5830054 112.887773,80.6023804 113.875898,80.6073625 C115.33788,80.6151125 115.337327,78.3482375 113.875898,78.3404875 Z" id="Stroke-21" stroke="#1D1D1B"></path>
                <path d="M114.913346,72.8347768 C111.6124,72.0503661 108.432686,71.8317054 105.352061,70.1914732 C104.966775,69.9860982 104.591454,69.9274196 104.243811,69.9672768 C103.770507,69.4712768 103.050864,69.1944911 102.384364,69.4341875 C100.830489,69.9932946 99.1885964,70.1278125 97.5671857,70.3785804 C97.3230607,70.4167768 97.1071679,70.5202946 96.9217214,70.6653304 C93.411525,70.5125446 89.9843643,69.6910446 86.5754714,68.5839018 C85.7229714,68.3071161 85.05315,68.6254196 84.6567929,69.1729018 C83.5413464,68.4953304 82.4458286,67.7773482 81.3552929,67.0654554 C80.1269179,66.2638839 78.9920964,68.2274018 80.2110607,69.0228839 C84.5704357,71.8682411 88.8921679,74.5740982 94.1964893,75.0341161 C94.7976679,75.0861518 95.1447571,74.7290982 95.2488286,74.2845804 C97.2737929,74.4584018 99.3242214,74.4495446 101.420043,74.2286696 C103.562918,76.1634018 108.952489,76.0560089 111.010114,76.0737232 C111.15515,76.0748304 111.290221,76.0604375 111.418096,76.0366339 C112.252329,76.1622946 113.086561,76.2829732 113.909168,76.4783839 C116.2779,77.0413661 117.283186,73.3983125 114.913346,72.8347768" id="Fill-23" fill="#AD7240"></path>
                <path d="M114.913346,72.8347768 C111.6124,72.0503661 108.432686,71.8317054 105.352061,70.1914732 C104.966775,69.9860982 104.591454,69.9274196 104.243811,69.9672768 C103.770507,69.4712768 103.050864,69.1944911 102.384364,69.4341875 C100.830489,69.9932946 99.1885964,70.1278125 97.5671857,70.3785804 C97.3230607,70.4167768 97.1071679,70.5202946 96.9217214,70.6653304 C93.411525,70.5125446 89.9843643,69.6910446 86.5754714,68.5839018 C85.7229714,68.3071161 85.05315,68.6254196 84.6567929,69.1729018 C83.5413464,68.4953304 82.4458286,67.7773482 81.3552929,67.0654554 C80.1269179,66.2638839 78.9920964,68.2274018 80.2110607,69.0228839 C84.5704357,71.8682411 88.8921679,74.5740982 94.1964893,75.0341161 C94.7976679,75.0861518 95.1447571,74.7290982 95.2488286,74.2845804 C97.2737929,74.4584018 99.3242214,74.4495446 101.420043,74.2286696 C103.562918,76.1634018 108.952489,76.0560089 111.010114,76.0737232 C111.15515,76.0748304 111.290221,76.0604375 111.418096,76.0366339 C112.252329,76.1622946 113.086561,76.2829732 113.909168,76.4783839 C116.2779,77.0413661 117.283186,73.3983125 114.913346,72.8347768 Z" id="Stroke-25" stroke="#1D1D1B"></path>
                <path d="M98.8381304,67.3477214 C98.5851482,67.29015 98.3282911,67.2464179 98.0692196,67.2115429 C97.9446661,66.8899179 97.6734161,66.6175607 97.2510411,66.5644179 C95.4463982,66.3385607 94.7987196,65.9588107 93.6085411,64.7304357 C93.0267375,64.1303643 92.5013982,64.1502929 91.7369161,64.2322214 C90.9657911,64.3152571 90.4570589,64.8018464 90.1636661,65.4174179 C89.0343804,65.6233464 87.9172732,65.968775 87.3902732,66.643025 C85.5928268,66.449275 83.7987018,66.2178821 82.0106661,65.9682214 C80.8193804,65.80215 80.3056661,67.6222929 81.5080232,67.790025 C83.4477375,68.0607214 85.3913268,68.293775 87.3376839,68.5024714 C87.9471661,69.5852571 89.4600768,69.7707036 90.5788446,69.8221857 C93.0283982,69.9351143 96.5402554,70.0203643 98.8381304,69.169525 C99.6529875,68.8678286 99.8212732,67.5724714 98.8381304,67.3477214" id="Fill-27" fill="#1D1D1B"></path>
                <path d="M98.8381304,67.3477214 C98.5851482,67.29015 98.3282911,67.2464179 98.0692196,67.2115429 C97.9446661,66.8899179 97.6734161,66.6175607 97.2510411,66.5644179 C95.4463982,66.3385607 94.7987196,65.9588107 93.6085411,64.7304357 C93.0267375,64.1303643 92.5013982,64.1502929 91.7369161,64.2322214 C90.9657911,64.3152571 90.4570589,64.8018464 90.1636661,65.4174179 C89.0343804,65.6233464 87.9172732,65.968775 87.3902732,66.643025 C85.5928268,66.449275 83.7987018,66.2178821 82.0106661,65.9682214 C80.8193804,65.80215 80.3056661,67.6222929 81.5080232,67.790025 C83.4477375,68.0607214 85.3913268,68.293775 87.3376839,68.5024714 C87.9471661,69.5852571 89.4600768,69.7707036 90.5788446,69.8221857 C93.0283982,69.9351143 96.5402554,70.0203643 98.8381304,69.169525 C99.6529875,68.8678286 99.8212732,67.5724714 98.8381304,67.3477214 Z" id="Stroke-29" stroke="#1D1D1B"></path>
                <path d="M117.200039,75.6191304 C117.378843,75.4646839 116.789289,75.6385054 116.711789,75.6434875 C116.200843,75.6794696 115.683807,75.6390589 115.174521,75.6019696 C114.194146,75.5305589 113.221521,75.3434518 112.238379,75.3179875 C109.80045,75.2543268 109.806539,79.0330054 112.238379,79.0961125 C114.799754,79.1625411 117.698807,80.1628446 119.871575,78.2912196 C121.720504,76.6974875 119.035129,74.0375768 117.200039,75.6191304" id="Fill-31" fill="#D7E1CE"></path>
                <path d="M117.200039,75.6191304 C117.378843,75.4646839 116.789289,75.6385054 116.711789,75.6434875 C116.200843,75.6794696 115.683807,75.6390589 115.174521,75.6019696 C114.194146,75.5305589 113.221521,75.3434518 112.238379,75.3179875 C109.80045,75.2543268 109.806539,79.0330054 112.238379,79.0961125 C114.799754,79.1625411 117.698807,80.1628446 119.871575,78.2912196 C121.720504,76.6974875 119.035129,74.0375768 117.200039,75.6191304 Z" id="Stroke-33" stroke="#1D1D1B"></path>
                <path d="M13.4913661,62.6620714 C11.0573125,65.8157679 6.14325893,67.3613393 2.45315179,68.2996429 C1.33161607,68.5847321 1.80713393,70.3201786 2.9314375,70.0345357 C7.14965179,68.9617143 12.2829196,67.1482143 15.0452411,63.5699286 C15.7515982,62.6543214 14.1899732,61.7575357 13.4913661,62.6620714" id="Fill-72" fill="#1D1D1B"></path>
                <path d="M2.45293036,68.2994214 C1.32364464,68.6182786 -0.392980357,69.3141179 0.0808767857,70.8381 C0.500483929,72.1882607 2.14348393,71.9081536 3.2484125,71.7824929 C7.08632321,71.345725 11.8846804,70.9189214 15.3660911,69.1491536 C16.3979482,68.6243679 15.4889839,67.0716 14.4582339,67.5958321 C12.4487696,68.6171714 9.83093036,68.8612964 7.6426625,69.2642964 C6.4724125,69.4796357 5.29884107,69.6839036 4.12194821,69.857725 C3.66414464,69.9252607 3.17368036,69.9379929 2.72418036,70.0476 C1.9619125,70.2330464 0.936698214,70.5967429 2.93121607,70.0343143 C4.04389464,69.7204393 3.57114464,67.9844393 2.45293036,68.2994214" id="Fill-74" fill="#1D1D1B"></path>
                <path d="M15.7510446,71.4218964 C22.1353839,70.5157 28.3171161,69.7163429 34.7784018,70.387825 C40.2941875,70.961325 45.6129018,73.9710929 50.7245804,75.9694857 C51.8029375,76.3918607 52.2707054,74.6525393 51.2028661,74.2351464 C45.9007589,72.1620214 40.5045446,69.1672 34.7784018,68.5887179 C28.1488304,67.9188964 21.8192946,68.7581107 15.2727589,69.6870036 C14.1307411,69.8492 14.6167768,71.5829857 15.7510446,71.4218964" id="Fill-76" fill="#1D1D1B"></path>
                <path d="M15.3213071,63.1962125 C20.8326643,57.0980696 29.8331821,61.7945696 36.4743786,62.8911946 C39.6070393,63.4082304 42.8565036,63.8461054 46.0323429,63.5416411 C50.7000571,63.0932482 55.1950571,61.5089268 59.7570393,60.5119446 C60.8879857,60.2650518 60.4097,58.5301589 59.2793071,58.7770518 C54.0386464,59.9218375 48.7725214,61.9717125 43.3442,61.8327661 C39.3285929,61.7298018 35.2980393,60.9725161 31.413075,60.0015518 C25.4151286,58.5019268 18.8292893,56.6352839 14.0492,61.9241054 C13.2747536,62.7810339 14.5429857,64.0575696 15.3213071,63.1962125" id="Fill-78" fill="#1D1D1B"></path>
                <path d="M13.9087036,62.1060643 C12.9847929,63.3172786 12.6310607,64.7704036 13.6679,66.0281179 C14.40415,66.920475 15.7808821,67.3760643 16.2724536,68.4455643 C16.7551679,69.4967964 18.3057214,68.5834036 17.825775,67.5377071 C17.4000786,66.6099214 16.485025,66.0973143 15.7166679,65.4900464 C14.6693107,64.6635643 14.6338821,64.1005821 15.462025,63.0139214 C16.1639536,62.0938857 14.6023286,61.1965464 13.9087036,62.1060643" id="Fill-80" fill="#1D1D1B"></path>
                <path d="M19.8687857,61.320325 C18.445,61.1503786 18.1809464,63.3580214 19.6047321,63.5285214 C21.0290714,63.6984679 21.2925714,61.490825 19.8687857,61.320325" id="Fill-82" fill="#1D1D1B"></path>
                <path d="M19.8687857,61.320325 C18.445,61.1503786 18.1809464,63.3580214 19.6047321,63.5285214 C21.0290714,63.6984679 21.2925714,61.490825 19.8687857,61.320325 Z" id="Stroke-84" stroke="#1D1D1B"></path>
                <path d="M16.1813911,68.2307786 C16.3801232,68.9000464 15.8271054,69.4945821 15.2724268,69.687225 C14.1863196,70.0647607 14.6529804,71.8035286 15.7512661,71.4221179 C17.2641768,70.896225 18.4012125,69.384975 17.9162839,67.7524929 C17.5880161,66.64535 15.8509089,67.1164393 16.1813911,68.2307786" id="Fill-86" fill="#1D1D1B"></path>
                <path d="M90.6956482,64.7461018 C93.2570232,65.8836911 95.5189161,67.4480839 98.1921125,68.3614768 C99.2898446,68.7367982 99.7614875,66.9996911 98.6703982,66.6265839 C96.1499875,65.7657804 94.0203982,64.2656018 91.6040589,63.1922268 C90.5544875,62.7266732 89.6383268,64.2766732 90.6956482,64.7461018" id="Fill-88" fill="#1D1D1B"></path>
                <path d="M98.1921125,68.3615875 C103.79647,69.9121411 108.899291,72.6894089 114.399023,74.5056768 C115.501184,74.8693732 115.97338,73.1322661 114.877862,72.7702304 C109.374809,70.9539625 104.278077,68.1778018 98.6703982,66.6266946 C97.5527375,66.3178018 97.0755589,68.0526946 98.1921125,68.3615875" id="Fill-90" fill="#1D1D1B"></path>
                <path d="M50.7244696,75.9697071 C66.2615589,81.8414393 81.6608089,86.1997071 98.4312554,84.3911893 C99.5699518,84.26885 99.5826839,82.4680821 98.4312554,82.5920821 C81.8147018,84.3839929 66.5881661,80.0495286 51.2027554,74.2348143 C50.1183089,73.8251714 49.6499875,75.5639393 50.7244696,75.9697071" id="Fill-92" fill="#1D1D1B"></path>
                <path d="M2.69185179,72.6071482 C6.92224464,72.9409518 11.5910661,72.1930768 15.7511554,71.4219518 C16.8881911,71.2110411 16.4060304,69.4767018 15.2728696,69.6870589 C11.2794054,70.4271839 6.75894107,71.1291125 2.69185179,70.8080411 C1.53765536,70.7167018 1.54374464,72.5163625 2.69185179,72.6071482" id="Fill-94" fill="#1D1D1B"></path>
                <path d="M123.01844,77.9033986 C123.366456,77.6606967 122.963297,77.1905716 121.803011,77.2199109 C115.818904,77.3704824 107.283416,77.21325 102.191666,73.8176429 C101.225684,73.1738393 100.323916,74.7315893 101.283255,75.3715179 C106.630202,78.9370714 117.030283,82.0794687 123.01844,77.9033986 Z" id="Fill-96" fill="#1D1D1B"></path>
                <path d="M60.6389893,61.4351911 C60.3898821,61.1196554 60.303525,60.7149946 60.3400607,60.3208518 C60.3527929,60.1852268 60.3821321,60.0545839 60.4192214,59.9233875 C60.4657214,59.7578696 60.4900786,59.6914411 60.5066857,59.6571196 C60.7092929,59.2159232 60.6317929,58.6883696 60.1839536,58.4259768 C59.7964536,58.1995661 59.156525,58.3052982 58.9528107,58.7487089 C58.3283821,60.1082804 58.4285786,61.5198875 59.3663286,62.7072982 C59.668025,63.0887089 60.3234536,63.0228339 60.6389893,62.7072982 C61.0159714,62.3308696 60.9412393,61.8177089 60.6389893,61.4351911" id="Fill-98" fill="#1D1D1B"></path>
                <path d="M60.5968625,59.4420018 C62.3400589,53.4412875 63.5999875,47.3996089 63.3420232,41.1210018 C63.2944161,39.9673589 61.4953089,39.9618232 61.5429161,41.1210018 C61.7942375,47.2401804 60.5597732,53.1191089 58.8619696,58.9637161 C58.5386839,60.0775018 60.2741304,60.5535732 60.5968625,59.4420018" id="Fill-100" fill="#1D1D1B"></path>
                <path d="M63.3603464,40.9600786 C63.44615,38.0953464 63.9687214,35.4188286 65.0791857,32.7722036 C65.527025,31.706025 63.78715,31.2404714 63.3448464,32.2939179 C62.1745964,35.0805964 61.6514714,37.9480964 61.5612393,40.9600786 C61.5263643,42.11815 63.3254714,42.1170429 63.3603464,40.9600786" id="Fill-102" fill="#1D1D1B"></path>
                <path d="M64.9886214,32.9873768 C70.0322107,23.1902696 75.4417107,13.2946268 77.8298179,2.45348393 C78.0783714,1.32530536 76.3451393,0.843144643 76.094925,1.97519821 C73.7394786,12.6668768 68.4108,22.4152696 63.4353,32.0789661 C62.9060857,33.1069482 64.4583,34.0181268 64.9886214,32.9873768" id="Fill-104" fill="#1D1D1B"></path>
                <path d="M77.8299839,2.45365 C77.4098232,2.00415 77.3068589,2.0119 77.5188768,2.47745357 C77.5963768,2.74372143 77.6694482,3.01109643 77.7375375,3.28013214 C77.8964125,4.00973929 77.9384839,4.75373929 77.9390375,5.50050714 C77.9406982,7.19665 77.5803232,8.80865 77.1252875,10.432275 C76.8119661,11.5488286 78.5474125,12.0254536 78.8596268,10.9105607 C79.6822339,7.97884643 80.1898589,4.78972143 79.2028411,1.82922143 C78.4981446,-0.285975 76.7283768,-0.0833678571 76.0950911,1.97536429 C75.7540911,3.08472143 77.4906446,3.55857857 77.8299839,2.45365" id="Fill-106" fill="#1D1D1B"></path>
                <path d="M76.8428554,66.5441018 C80.2871768,67.0760839 83.6506768,67.1546911 87.1027482,66.6448518 C88.2442125,66.4765661 87.7587304,64.7427804 86.6244625,64.9099589 C83.5189268,65.3688696 80.4189268,65.2874946 77.3211411,64.8092089 C76.1879804,64.6342804 75.7008375,66.3675125 76.8428554,66.5441018" id="Fill-108" fill="#1D1D1B"></path>
                <path d="M98.4310339,84.3914107 C102.85407,83.9153393 107.160302,83.0124643 111.391248,81.6351786 C112.487873,81.2786786 112.018445,79.5410179 110.913516,79.9008393 C106.839784,81.2266429 102.69132,82.1339464 98.4310339,82.5923036 C97.2917839,82.7151964 97.2796054,84.5154107 98.4310339,84.3914107" id="Fill-110" fill="#1D1D1B"></path>
                <path d="M111.457843,81.5751161 C114.474807,81.4572054 117.397111,81.3204732 120.279004,80.3295804 C121.367325,79.9553661 120.900111,78.2171518 119.800718,78.5946875 C117.066075,79.5352054 114.319807,79.6641875 111.457843,79.7760089 C110.303646,79.8208482 110.298111,81.6205089 111.457843,81.5751161" id="Fill-112" fill="#1D1D1B"></path>
                <path d="M77.1250661,10.4320536 C76.1358339,13.5320536 74.8581911,16.4986429 73.3629946,19.3871786 C72.8315661,20.4140536 74.3837804,21.3246786 74.9168696,20.2950357 C76.4818161,17.270875 77.8242268,14.1559286 78.8599589,10.9103393 C79.2125839,9.80485714 77.4765839,9.33155357 77.1250661,10.4320536" id="Fill-114" fill="#1D1D1B"></path>
                <path d="M74.8442411,20.4825304 C77.6010268,15.5003875 79.9869196,10.3610304 81.5933839,4.88731607 C81.9199911,3.77408393 80.1845446,3.29856607 79.8590446,4.40903036 C78.2952054,9.73604821 75.9735268,14.7264946 73.2909196,19.5741196 C72.7301518,20.5882625 74.2829196,21.4966732 74.8442411,20.4825304" id="Fill-116" fill="#1D1D1B"></path>
                <path d="M81.5936054,4.88737143 C81.1928196,4.52699643 81.0876411,4.56353214 81.2786232,4.996425 C81.3395161,5.26103214 81.3959804,5.52619286 81.4469089,5.79301429 C81.5554089,6.50933571 81.5448911,7.24613929 81.4978375,7.96910357 C81.3904446,9.623175 80.9199089,11.17705 80.3685518,12.7287107 C79.9799446,13.8214607 81.7176054,14.2919964 82.1034446,13.2069964 C83.1004268,10.4031571 83.7984804,7.29208571 82.9725518,4.34874643 C82.3603018,2.16490714 80.5977304,2.48597857 79.8587125,4.40908571 C79.4429804,5.49076429 81.1817482,5.95908571 81.5936054,4.88737143" id="Fill-118" fill="#1D1D1B"></path>
                <path d="M80.3686071,12.7287661 C79.143,15.8232304 77.6085,18.7549446 75.8464821,21.5759446 C75.2314643,22.5607482 76.787,23.4647304 77.3998036,22.4843554 C79.2454107,19.5293911 80.8203214,16.4459982 82.1035,13.2070518 C82.5291964,12.1303554 80.7904286,11.6631411 80.3686071,12.7287661" id="Fill-120" fill="#1D1D1B"></path>
                <path d="M77.4267071,22.6014357 C80.3861,18.23265 82.9541179,13.6739893 84.8036,8.72284643 C85.2093679,7.63673929 83.4706,7.16786429 83.0681536,8.24456071 C81.2718143,13.0539893 78.7453143,17.453775 75.8728321,21.6935786 C75.2218321,22.6545786 76.7801357,23.5557929 77.4267071,22.6014357" id="Fill-122" fill="#1D1D1B"></path>
                <path d="M84.7128696,8.93779821 C84.7820661,8.79220893 84.8518161,8.64661964 84.9210125,8.50103036 C84.7516196,8.5292625 84.5827804,8.55749464 84.4139411,8.58572679 C84.3646732,8.71194107 84.5285304,9.12878036 84.5528875,9.26495893 C84.6685839,9.92315536 84.6608339,10.5581018 84.6027089,11.2273696 C84.4670839,12.7773696 83.9583518,14.2149946 83.3294946,15.6277089 C82.8628339,16.6767268 84.4128339,17.5928875 84.8833696,16.5361196 C85.9694768,14.0937625 86.7821196,11.4792446 86.2877804,8.78667321 C86.1527089,8.05153036 85.9910661,7.1536375 85.2271375,6.81595893 C84.2473161,6.38417321 83.5426196,7.22670893 83.1589946,8.0293875 C82.6635482,9.06954821 84.2141018,9.98349464 84.7128696,8.93779821" id="Fill-124" fill="#1D1D1B"></path>
                <path d="M83.3294946,15.6279857 C81.8099411,18.7213429 79.9455125,21.6010214 77.8209054,24.3124143 C77.1145482,25.2136286 78.3794589,26.4957 79.0930125,25.5845214 C81.3144946,22.7491286 83.2929589,19.7731286 84.8833696,16.5363964 C85.3921018,15.5006643 83.8409946,14.587825 83.3294946,15.6279857" id="Fill-126" fill="#1D1D1B"></path>
                <path d="M79.2031179,25.7147214 C82.4260107,21.99915 85.3389036,18.0632571 87.7685286,13.780275 C88.3403679,12.7716679 86.7864929,11.8638107 86.2146536,12.8724179 C83.8608679,17.0230964 81.0559214,20.8399714 77.9310107,24.4426143 C77.1753857,25.3133821 78.4425107,26.591025 79.2031179,25.7147214" id="Fill-128" fill="#1D1D1B"></path>
                <path d="M87.7683071,13.7802196 C87.7290036,13.8383446 87.6022357,13.0007911 87.4439143,13.8311482 C87.4012893,14.0547911 87.4367179,14.3105411 87.4195571,14.5386125 C87.3619857,15.3036482 87.17045,16.0437732 86.9457,16.7783625 C86.4491464,18.3992196 85.6193429,19.8407196 84.7037357,21.2562018 C84.0726643,22.2315946 85.6298607,23.1344696 86.2576107,22.1646125 C87.8474679,19.7062018 89.1710571,16.9859518 89.2391464,14.0033089 C89.2922893,11.7048804 87.6454143,10.7704518 86.2144321,12.8723625 C85.5617714,13.8317018 87.1195214,14.7329161 87.7683071,13.7802196" id="Fill-130" fill="#1D1D1B"></path>
                <path d="M84.7036804,21.2564232 C83.3485375,23.2132982 81.8511268,25.0544768 80.2485375,26.8142804 C79.4702161,27.6684411 80.7390018,28.9444232 81.5206446,28.0863875 C83.2256446,26.2142089 84.8149482,24.2462625 86.2575554,22.1642804 C86.9179661,21.2104768 85.3596625,20.3098161 84.7036804,21.2564232" id="Fill-132" fill="#1D1D1B"></path>
                <path d="M81.4763036,28.2755429 C84.52925,25.1500786 87.3314286,21.817025 89.7361429,18.1656679 C90.3744107,17.1958107 88.8172143,16.2934893 88.1822679,17.2578107 C85.8611429,20.7824 83.1503036,23.987025 80.2041964,27.0034357 C79.394875,27.8321321 80.665875,29.1053464 81.4763036,28.2755429" id="Fill-134" fill="#1D1D1B"></path>
                <path d="M89.5955357,18.3477375 C90.0577679,17.7592911 89.6187857,17.6386125 89.407875,17.8450946 C89.3431071,17.9093089 89.3741071,18.3682196 89.3663571,18.4634339 C89.3049107,19.2323446 89.1244464,19.9309518 88.8758929,20.6633268 C88.2868929,22.3998804 87.3054107,23.8995054 86.214875,25.3576125 C85.52125,26.2848446 87.0823214,27.1821839 87.7681964,26.2654696 C89.4554821,24.0102196 90.8848036,21.4953446 91.1494107,18.6405768 C91.2208214,17.8683446 91.3392857,16.8807732 90.6589464,16.3305232 C89.7898393,15.6274875 88.877,16.3709339 88.322875,17.0756304 C87.6154107,17.9757375 88.8797679,19.2578089 89.5955357,18.3477375" id="Fill-136" fill="#1D1D1B"></path>
                <path d="M86.3557589,25.1752107 C85.0914018,26.7600857 83.7274018,28.254175 82.2715089,29.664675 C81.4378304,30.4712286 82.7110446,31.7427821 83.5436161,30.9367821 C85.0000625,29.5262821 86.3635089,28.0321929 87.6278661,26.4473179 C88.3425268,25.5510857 87.0781696,24.2701214 86.3557589,25.1752107" id="Fill-138" fill="#1D1D1B"></path>
                <path d="M83.7084143,31.0768911 C86.5609679,28.6112839 89.1688429,25.9286768 91.4606286,22.9321946 C92.1631107,22.0127125 90.6014857,21.1153732 89.9067536,22.0237839 C87.7135036,24.8923911 85.1648607,27.4465696 82.4363071,29.8047839 C81.5588964,30.5631768 82.8365393,31.8308554 83.7084143,31.0768911" id="Fill-140" fill="#1D1D1B"></path>
                <path d="M91.3200214,23.1138768 C90.8760571,23.5954839 91.3465929,22.0211268 91.1019143,22.8348768 C91.026075,23.0889661 91.0592893,23.3978589 91.0133429,23.6624661 C90.902075,24.3101446 90.6751107,24.9445375 90.4110571,25.5457161 C89.8192893,26.8964304 88.933575,28.0500732 87.9687,29.1522339 C87.2086464,30.0202339 88.476325,31.2978768 89.2408071,30.4243411 C90.9159143,28.5117518 92.4703429,26.3002339 92.8058071,23.7150554 C92.9065571,22.9378411 93.1025214,21.9142875 92.45595,21.3070196 C91.6283607,20.5303589 90.6751107,21.1608768 90.0473607,21.8417696 C89.2640571,22.6920554 90.5328429,23.9674839 91.3200214,23.1138768" id="Fill-142" fill="#1D1D1B"></path>
                <path d="M87.9688661,29.1523446 C86.8124554,30.3868089 85.5696875,31.5277196 84.2544018,32.5905768 C83.3531875,33.3179696 84.6335982,34.5839875 85.5265089,33.8626839 C86.8423482,32.7998268 88.0851161,31.6589161 89.2409732,30.4244518 C90.0320268,29.5797018 88.7621339,28.3048268 87.9688661,29.1523446" id="Fill-144" fill="#1D1D1B"></path>
                <path d="M85.4242643,34.1136732 C88.1749607,32.0975661 90.7728714,29.9109589 93.1930857,27.5067982 C94.0162464,26.6902804 92.7441393,25.4181732 91.9209786,26.2352446 C89.6103714,28.5297982 87.14255,30.6350304 84.5164071,32.5603518 C83.5919429,33.2373696 84.4892821,34.7995482 85.4242643,34.1136732" id="Fill-146" fill="#1D1D1B"></path>
                <path d="M93.1931964,27.507075 C93.1212321,26.7691643 93.0586786,26.5754143 93.0055357,26.9269321 C92.9817321,27.0608964 92.9479643,27.1920929 92.9036786,27.3216286 C92.7890893,27.5878964 92.7370536,27.886825 92.6368571,28.1597357 C92.3728036,28.8815929 91.9830893,29.5486464 91.5668036,30.1946643 C90.6506429,31.6178964 89.4488393,32.7815036 88.1839286,33.8908607 C87.3120536,34.6558964 88.5891429,35.9241286 89.4565893,35.1629679 C91.6044464,33.2791643 93.5917679,31.072075 94.4824643,28.3020036 C94.7315714,27.5270036 95.1168571,26.4541821 94.4553393,25.7655393 C93.654875,24.9324143 92.5975536,25.6587 91.9210893,26.2349679 C91.0386964,26.987825 92.3168929,28.25495 93.1931964,27.507075" id="Fill-148" fill="#1D1D1B"></path>
                <path d="M88.1840393,33.8909714 C87.3902179,34.5480607 86.5770214,35.178025 85.7427893,35.7836321 C85.3503071,36.0687214 85.1571107,36.5658286 85.4200571,37.0142214 C85.6464679,37.4017214 86.2553964,37.6242571 86.6506464,37.3369536 C87.608325,36.6416679 88.5444143,35.9175964 89.4567,35.1630786 C89.8309143,34.8530786 89.7772179,34.2120429 89.4567,33.8909714 C89.0858071,33.5206321 88.5599143,33.5798643 88.1840393,33.8909714" id="Fill-150" fill="#1D1D1B"></path>
                <path d="M86.8017161,37.4891857 C89.6891446,35.6723643 92.4470375,33.6800607 95.0266804,31.4458464 C95.9035375,30.6863464 94.6264482,29.4186679 93.7551268,30.1737393 C91.2895196,32.3083107 88.6523054,34.2004179 85.8933054,35.9358643 C84.9162518,36.5508821 85.8180196,38.1080786 86.8017161,37.4891857" id="Fill-152" fill="#1D1D1B"></path>
                <path d="M94.8447214,31.5863982 C95.3573286,31.2066482 95.0323821,30.9093804 94.7937929,31.0378089 C94.72515,31.0748982 94.5363821,31.7541304 94.5125786,31.8155768 C94.2750964,32.4289339 93.9595607,32.9587018 93.589775,33.5072911 C92.5811679,35.0052554 91.2664357,36.2004161 89.8382214,37.2909518 C88.9298107,37.9840232 89.8254893,39.5467554 90.7466321,38.8442732 C92.9420964,37.1680589 95.0833107,35.2012196 96.1350964,32.5811661 C96.4423286,31.8172375 96.9477393,30.7770768 96.4445429,29.9832554 C95.8228821,29.0034339 94.6598286,29.4972196 93.9368643,30.0325232 C93.0168286,30.7145232 93.9125071,32.2767018 94.8447214,31.5863982" id="Fill-154" fill="#1D1D1B"></path>
                <path d="M89.8382768,37.2907857 C88.8645446,37.9899464 87.8675625,38.6536786 86.8484375,39.2841964 C85.8652946,39.8920179 86.7681696,41.4492143 87.7562946,40.8375179 C88.7759732,40.207 89.7724018,39.5432679 90.7466875,38.8441071 C91.1435982,38.5590179 91.3257232,38.0635714 91.0694196,37.6135179 C90.8457768,37.2210357 90.2318661,37.0079107 89.8382768,37.2907857" id="Fill-156" fill="#1D1D1B"></path>
                <path d="M87.7564054,40.8565607 C90.3526554,39.487025 92.8420661,37.9552929 95.1930839,36.1954893 C96.1086911,35.5096143 95.2130125,33.9468821 94.2846732,34.6416143 C91.9342089,36.4019714 89.4447982,37.9337036 86.8479946,39.3032393 C85.8238875,39.843525 86.7317446,41.3968464 87.7564054,40.8565607" id="Fill-158" fill="#1D1D1B"></path>
                <path d="M95.1928625,36.1952679 C95.9230232,35.7369107 95.3777554,35.5614286 95.0965411,35.7341429 C95.0212554,35.7800893 94.8518625,36.37075 94.8214161,36.4421607 C94.5551482,37.06825 94.1776125,37.6234821 93.7541304,38.1560179 C92.7920232,39.366125 91.5824696,40.2750893 90.2937554,41.109875 C89.3255589,41.737625 90.2262196,43.2959286 91.2016125,42.66375 C93.2841482,41.3146964 95.3893804,39.6251964 96.4013089,37.2880179 C96.7207196,36.5506607 97.2050946,35.6311786 96.7960054,34.83625 C96.2579339,33.7922143 95.0843625,34.1409643 94.2844518,34.6419464 C93.3062911,35.2558571 94.2080589,36.8130536 95.1928625,36.1952679" id="Fill-160" fill="#1D1D1B"></path>
                <path d="M90.2939768,41.1100964 C89.3479232,41.6819357 88.3819411,42.2161321 87.3965839,42.7160071 C86.3630661,43.2402393 87.2731375,44.7924536 88.3044411,44.2698821 C89.2903518,43.7694536 90.2563339,43.2352571 91.2018339,42.6634179 C92.1916196,42.0655607 91.2881911,40.5089179 90.2939768,41.1100964" id="Fill-162" fill="#1D1D1B"></path>
                <path d="M88.2764857,44.3258482 C90.5992714,43.4163304 92.8722357,42.3999732 95.0820929,41.2413482 C96.1078607,40.7032768 95.19945,39.1499554 94.1736821,39.6874732 C92.1011107,40.7741339 89.9770571,41.7379018 87.7982,42.5909554 C86.7320214,43.0083482 87.1959143,44.7487768 88.2764857,44.3258482" id="Fill-164" fill="#1D1D1B"></path>
                <path d="M95.0820375,41.2411821 C95.1750375,40.59295 95.1407161,40.4329679 94.9801804,40.759575 C94.9370018,40.8265571 94.8938232,40.8940929 94.8506446,40.961075 C94.6524661,41.1719857 94.5041089,41.4875214 94.3291804,41.7189143 C93.8763589,42.3140036 93.3222339,42.8238429 92.7526089,43.3071107 C91.4373232,44.4242179 89.9105732,45.200325 88.3445196,45.9000393 C87.2894125,46.3716821 88.2033589,47.9222357 89.2529304,47.4539143 C91.8087696,46.3118964 94.3208768,44.8200214 95.9732875,42.4983429 C96.4543411,41.8218786 97.1706625,40.9228786 96.7947875,40.0415929 C96.3131804,38.9134143 95.0222518,39.3225036 94.1736268,39.6873071 C93.1135375,40.1445571 94.0291446,41.6945571 95.0820375,41.2411821" id="Fill-166" fill="#1D1D1B"></path>
                <path d="M89.0365393,47.5637429 C90.95245,46.9315643 92.8301643,46.2097071 94.6757714,45.3942964 C95.7325393,44.9276357 94.8174857,43.3770821 93.7673607,43.840975 C92.0651286,44.5932786 90.3252536,45.2459393 88.5582536,45.82885 C87.4638429,46.1897786 87.9327179,47.9279929 89.0365393,47.5637429" id="Fill-168" fill="#1D1D1B"></path>
                <path d="M94.67555,45.3943518 C94.8216929,45.3190661 94.9744786,45.2631554 95.1339071,45.2266196 C94.7735321,44.4737625 94.5598536,44.3021554 94.4939786,44.7123518 C94.3854786,44.8280482 94.30355,45.1302982 94.2205143,45.2731196 C94.0372821,45.5869946 93.8308,45.8826018 93.5888893,46.1532982 C92.3123536,47.5831732 90.4318714,48.5037625 88.6803714,49.1940661 C87.6158536,49.6136732 88.0797464,51.3541018 89.1586571,50.9289589 C91.6275857,49.9557804 94.3057643,48.6150304 95.7251214,46.2612446 C96.0982286,45.6417982 96.5565857,44.7560839 96.1668714,44.0403161 C95.6526036,43.0942625 94.5194429,43.4956018 93.7671393,43.8410304 C92.7164607,44.3231911 93.6293,45.8748518 94.67555,45.3943518" id="Fill-170" fill="#1D1D1B"></path>
                <path d="M89.2155089,51.0459839 C90.6010982,50.6833946 91.9673125,50.2637875 93.3141518,49.7783054 C94.3952768,49.3891446 93.9297232,47.6503768 92.8364196,48.0439661 C91.4884732,48.5288946 90.1228125,48.9485018 88.7377768,49.3110911 C87.6179018,49.6044839 88.0928661,51.3399304 89.2155089,51.0459839" id="Fill-172" fill="#1D1D1B"></path>
                <path d="M93.45105,49.7785821 C93.5960857,49.71935 93.7433357,49.668975 93.8950143,49.6285643 C94.2277107,49.5864929 94.0931929,49.3755821 93.4920143,48.9969393 C93.470425,49.0069036 93.3253893,49.4010464 93.3121036,49.4276179 C93.1443714,49.7497964 92.9168536,50.0227071 92.6599964,50.2751357 C91.5384607,51.3795107 90.0643,52.0886357 88.5918,52.5940464 C87.502925,52.9682607 87.9706929,54.706475 89.0700857,54.3289393 C91.1775321,53.605975 93.5113893,52.4872071 94.7441929,50.536975 C95.1156393,49.9485286 95.477675,49.1596893 95.1422107,48.4782429 C94.7214964,47.6257429 93.7117821,47.7691179 92.9733179,48.0436893 C91.897175,48.4439214 92.3627286,50.1832429 93.45105,49.7785821" id="Fill-174" fill="#1D1D1B"></path>
                <path d="M89.0787214,54.3179786 C90.396775,53.9930321 91.6965607,53.6110679 92.9780786,53.1637821 C94.0641857,52.7845857 93.5969714,51.0458179 92.4997929,51.4288893 C91.2177214,51.876175 89.9184893,52.2581393 88.6004357,52.5830857 C87.4766857,52.860425 87.9527571,54.5953179 89.0787214,54.3179786" id="Fill-176" fill="#1D1D1B"></path>
                <path d="M92.9780786,53.1635054 C93.1159179,53.1059339 93.2570786,53.0588804 93.4021143,53.0223446 C93.1618643,52.9465054 92.9952393,52.7660411 92.9016857,52.4798446 C92.9022393,52.4798446 92.7704893,52.7688089 92.7588643,52.7909518 C92.6121679,53.0710589 92.43115,53.3284696 92.2202393,53.5631839 C91.2204893,54.6764161 89.7568464,55.3833268 88.3673821,55.8610589 C87.2790607,56.2347196 87.7468286,57.9734875 88.8456679,57.5953982 C90.861775,56.9028804 93.0517036,55.7935232 94.1926143,53.9058446 C94.5330607,53.3434161 94.8729536,52.6016304 94.5967214,51.9478625 C94.2274893,51.0748804 93.2432393,51.1523804 92.4997929,51.4286125 C91.4242036,51.8288446 91.8897571,53.5687196 92.9780786,53.1635054" id="Fill-178" fill="#1D1D1B"></path>
                <path d="M88.8646554,57.6566786 C90.1373161,57.361625 91.3922625,57.0101071 92.6311554,56.5938214 C93.7227982,56.2273571 93.2550304,54.4891429 92.1528696,54.8589286 C90.9139768,55.2746607 89.6590304,55.6267321 88.3863696,55.9217857 C87.2587446,56.1830714 87.7359232,57.9185179 88.8646554,57.6566786" id="Fill-180" fill="#1D1D1B"></path>
                <path d="M92.6309893,56.5938768 C92.7599714,56.5418411 92.892275,56.4992161 93.0267929,56.4660018 C93.3395607,56.4582518 93.1674,56.2661625 92.5092036,55.8880732 C92.5330071,55.8775554 92.4438821,56.0879125 92.4051321,56.1377339 C92.2086143,56.3907161 92.0824,56.6868768 91.8648464,56.9310018 C90.8916679,58.0220911 89.4545964,58.7018768 88.09115,59.1524839 C86.9967393,59.5139661 87.4656143,61.2516268 88.5694357,60.8868232 C90.5523286,60.2319482 92.690775,59.1508232 93.8117571,57.3052161 C94.1284,56.7837518 94.450025,56.1000911 94.2424357,55.4817518 C93.9302214,54.5500911 92.9166321,54.5838589 92.1532571,54.8589839 C91.0721321,55.2486982 91.5382393,56.9880196 92.6309893,56.5938768" id="Fill-182" fill="#1D1D1B"></path>
                <path d="M88.5581429,60.8986696 C89.7649286,60.6689375 90.9562143,60.3827411 92.1336607,60.0323304 C93.24025,59.7024018 92.7686071,57.9658482 91.655375,58.2974375 C90.4779286,58.6478482 89.2860893,58.9345982 88.0798571,59.1637768 C86.9439286,59.3802232 87.4244286,61.1145625 88.5581429,60.8986696" id="Fill-184" fill="#1D1D1B"></path>
                <path d="M92.1336607,60.0320536 C92.2565536,59.9866607 92.3816607,59.9506786 92.5100893,59.9246607 C92.1773929,59.8111786 91.9825357,59.6179821 91.9244107,59.3461786 C91.8823393,59.368875 91.7500357,59.6999107 91.7262321,59.740875 C91.5823036,59.9861071 91.407375,60.2064286 91.2075357,60.4090357 C90.237125,61.3932857 88.9113214,61.9905893 87.6043393,62.3725536 C86.4949821,62.6963929 86.9671786,64.4335 88.0831786,64.1074464 C90.027875,63.538375 92.0644643,62.5225714 93.2003929,60.7738393 C93.5292143,60.2684286 93.8702143,59.5880893 93.678125,58.9703036 C93.39525,58.0613393 92.411,58.0530357 91.655375,58.2971607 C90.5576429,58.652 91.0270714,60.3896607 92.1336607,60.0320536" id="Fill-186" fill="#1D1D1B"></path>
                <path d="M88.0915929,64.1200679 C89.2208786,63.904175 90.3352179,63.6345857 91.436825,63.3046571 C92.5434143,62.974175 92.0717714,61.2370679 90.9585393,61.5703179 C89.8569321,61.8996929 88.7425929,62.1692821 87.6133071,62.385175 C86.4773786,62.6027286 86.9584321,64.3370679 88.0915929,64.1200679" id="Fill-188" fill="#1D1D1B"></path>
                <path d="M91.436825,63.3048786 C91.5431107,63.2700036 91.64995,63.2356821 91.7567893,63.2013607 C91.5436643,62.4590214 91.3454857,62.2215393 91.1622536,62.4894679 C91.0703607,62.5531286 90.99895,62.7645929 90.9264321,62.8636821 C90.6812,63.1985929 90.3811643,63.4814679 90.0296464,63.7028964 C89.0072,64.3461464 87.7738429,64.5919321 86.6246286,64.9102357 C85.5102893,65.2191286 85.9830393,66.9551286 87.1029143,66.6451286 C88.9701107,66.1280929 90.9862179,65.6736107 92.2472536,64.0782179 C92.6485929,63.5700393 93.1285393,62.8897 92.9298071,62.2027179 C92.6679679,61.2954143 91.6787357,61.3363786 90.9585393,61.5699857 C89.8619143,61.9264857 90.3313429,63.6641464 91.436825,63.3048786" id="Fill-190" fill="#1D1D1B"></path>
                <path d="M123.067571,75.5741519 C120.460843,74.5892149 117.849138,73.6204124 115.19336,72.7836192 C113.768083,72.3347872 113.159586,74.6346848 114.579887,75.0827835 C117.234954,75.9188432 119.846659,76.8876458 122.453387,77.8725828 C123.851651,78.4006206 124.454462,76.0985227 123.067571,75.5741519" id="Fill-192" fill="#1D1D1B"></path>
                <path d="M101.322725,75.4620821 C106.014243,76.6328857 111.766404,77.6979571 116.595761,76.8244214 C117.444386,76.6716357 118.693796,76.4037071 118.714832,75.3065286 C118.74085,73.9591357 116.704814,73.3889571 115.757654,73.0263679 C114.675421,72.6117429 114.2071,74.3499571 115.279368,74.7607071 C115.70285,74.9062964 116.112493,75.081225 116.509404,75.2860464 C116.860368,75.6270464 117.046921,75.4897607 117.067957,74.8741893 C116.755189,74.8858143 116.244243,75.0651714 115.946421,75.1077964 C114.685386,75.2877071 113.3391,75.2196179 112.071975,75.1686893 C108.613814,75.0302964 105.160082,74.5652964 101.801011,73.7271893 C100.677261,73.4470821 100.198421,75.1814214 101.322725,75.4620821" id="Fill-194" fill="#1D1D1B"></path>
                <path d="M90.8875714,18.6574607 C91.1494107,18.0612643 91.4007321,17.4611929 91.6409821,16.8566929 C91.8214464,16.4049786 91.4450179,15.8685679 91.0132321,15.7501036 C90.5011786,15.6094964 90.0871071,15.9250321 89.9066429,16.3784071 C89.7228571,16.838425 89.5335357,17.295675 89.33425,17.7496036 C89.1393929,18.1941214 89.2036071,18.7150321 89.6569821,18.9801929 C90.0383929,19.2032821 90.6916071,19.1047464 90.8875714,18.6574607" id="Fill-196" fill="#1D1D1B"></path>
                <path d="M91.6411482,16.8564714 C91.6754696,16.7557214 91.7086839,16.6544179 91.7424518,16.5536679 C91.4108625,16.5830071 91.0787196,16.6117929 90.7471304,16.6411321 C90.7355054,16.6599536 90.8860768,17.035275 90.8999161,17.0867571 C90.9929161,17.4233286 91.0150589,17.7034357 91.0028804,18.0588286 C90.9574875,19.3663643 90.5550411,20.6517571 90.0380054,21.84415 C89.5829696,22.8959357 91.1324161,23.8132036 91.5918804,22.7525607 C92.4183625,20.8444 93.2448446,18.4839714 92.5750232,16.4042036 C92.0236661,14.6942214 90.4592732,14.6167214 89.9062554,16.3781857 C89.5591661,17.4853286 91.2951661,17.9591857 91.6411482,16.8564714" id="Fill-198" fill="#1D1D1B"></path>
                <path d="M91.9828125,23.1603768 C92.7279196,21.9242518 93.4176696,20.6598946 94.0437589,19.3595554 C94.5430804,18.3210554 92.9919732,17.4071089 92.4898839,18.4516982 C91.8643482,19.7520375 91.1745982,21.0163946 90.4289375,22.2519661 C89.8299732,23.2461804 91.3849554,24.1518232 91.9828125,23.1603768" id="Fill-200" fill="#1D1D1B"></path>
                <path d="M94.0435929,19.3597214 C93.8260393,19.2074893 93.6095929,19.0558107 93.3920393,18.9035786 L93.4097536,19.166525 C93.35495,19.3159893 93.4357714,19.6176857 93.4346643,19.7804357 C93.4313429,20.3467393 93.3317,20.894775 93.1982893,21.4455786 C92.9148607,22.6125071 92.4000393,23.6654 91.8160214,24.7083286 C91.2491643,25.71915 92.8024857,26.6275607 93.3687893,25.6161857 C94.4731643,23.6454714 95.3677357,21.4688286 95.2088607,19.166525 C95.0815393,17.30265 93.50995,16.7319179 92.4897179,18.4513107 C91.89795,19.4499536 93.4529321,20.3555964 94.0435929,19.3597214" id="Fill-202" fill="#1D1D1B"></path>
                <path d="M91.8157446,24.7081071 C91.5622089,25.1310357 91.3003696,25.5484286 91.0307804,25.9613929 C90.7733696,26.3560893 90.9388875,26.9727679 91.3535125,27.1919821 C91.8030125,27.4294643 92.3095304,27.2910714 92.5846554,26.86925 C92.8536911,26.4562857 93.1155304,26.0388929 93.3690661,25.6165179 C93.6115304,25.2124107 93.4725839,24.6106786 93.0463339,24.385375 C92.6112268,24.1550893 92.0742625,24.276875 91.8157446,24.7081071" id="Fill-204" fill="#1D1D1B"></path>
                <path d="M92.3439071,27.8803482 C93.6658357,26.2080089 94.8853536,24.4709018 95.94655,22.6208661 C96.523925,21.6150268 94.9694964,20.7071696 94.3932286,21.7124554 C93.4095321,23.4274196 92.2974071,25.0576875 91.0718,26.6082411 C90.3610143,27.5072411 91.625925,28.7887589 92.3439071,27.8803482" id="Fill-206" fill="#1D1D1B"></path>
                <path d="M95.9464946,22.6205893 C95.7272804,22.4821964 95.5069589,22.3443571 95.2871911,22.2059643 C95.2932804,22.3100357 95.2982625,22.4141071 95.3004768,22.5181786 C95.2667089,22.6593393 95.3121018,22.8514286 95.3076732,22.998125 C95.2910661,23.4919107 95.1847804,23.9602321 95.0480482,24.4363036 C94.7380482,25.516875 94.1767268,26.4601607 93.5578339,27.3896071 C92.9134768,28.3555893 94.4717804,29.2579107 95.1111554,28.2974643 C96.2326911,26.6146071 97.1582625,24.7042321 97.1034589,22.6349821 C97.0530839,20.7650179 95.5529054,20.0664107 94.3931732,21.7127321 C93.7250125,22.661 95.2844232,23.5611071 95.9464946,22.6205893" id="Fill-208" fill="#1D1D1B"></path>
                <path d="M93.5575571,27.3894964 C93.2021643,27.8877107 92.8329321,28.3743 92.4470929,28.8492643 C92.1409679,29.2262464 92.0789679,29.7532464 92.4470929,30.121925 C92.7631821,30.4380143 93.4114143,30.5005679 93.7197536,30.121925 C94.2019143,29.5279429 94.6669143,28.920675 95.1114321,28.2979071 C95.3932,27.9021036 95.1811821,27.2964964 94.7887,27.0667643 C94.3364321,26.8027107 93.8409857,26.9931393 93.5575571,27.3894964" id="Fill-210" fill="#1D1D1B"></path>
                <path d="M93.8965089,30.73495 C95.1558839,29.4838786 96.3499375,28.1741286 97.4670446,26.794075 C98.1889018,25.9017179 96.9239911,24.6213071 96.1943839,25.5219679 C95.0778304,26.9020214 93.8837768,28.2117714 92.6238482,29.4628429 C91.8012411,30.2799143 93.0739018,31.5520214 93.8965089,30.73495" id="Fill-212" fill="#1D1D1B"></path>
                <path d="M97.6077071,26.6118393 C97.997975,26.0571607 96.8205286,26.2575536 96.80835,26.2719464 C96.7723679,26.3145714 96.8105643,26.5836071 96.8077964,26.6461607 C96.7939571,26.9639107 96.742475,27.2456786 96.6467071,27.5484821 C96.2420464,28.833875 95.4044929,29.9803214 94.5342786,30.9889286 C93.781975,31.8619107 95.0491,33.1401071 95.8063857,32.2615893 C97.1726,30.6767143 98.57535,28.72925 98.6091179,26.5509464 C98.617975,25.9381429 98.5426893,25.1675714 97.9476,24.8332143 C97.1366179,24.3781786 96.48285,25.0950536 96.0538321,25.7039821 C95.386225,26.6528036 96.9456357,27.5523571 97.6077071,26.6118393" id="Fill-214" fill="#1D1D1B"></path>
                <path d="M96.0924161,32.5943411 C96.8818089,31.8597518 97.6440768,31.0985911 98.3758982,30.3069839 C99.1614161,29.4578054 97.8920768,28.1829304 97.1037911,29.0348768 C96.3719696,29.8264839 95.6097018,30.5876446 94.8203089,31.3222339 C93.9705768,32.1127339 95.2454518,33.3826268 96.0924161,32.5943411" id="Fill-216" fill="#1D1D1B"></path>
                <path d="M98.3758982,30.3070946 C98.4489696,30.2041304 98.5297911,30.1089161 98.6194696,30.0214518 C98.9460768,29.7308268 98.6382911,29.5990768 97.6961125,29.6245411 C97.6651125,29.6693804 97.6905768,30.0828982 97.6850411,30.1426839 C97.6590232,30.4128268 97.6042196,30.6890589 97.5167554,30.9459161 C97.0550768,32.3049339 95.9883446,33.4679875 94.9891482,34.4555589 C94.1648804,35.2709696 95.4364339,36.5430768 96.2612554,35.7276661 C97.7619875,34.2446482 99.2721304,32.4134339 99.4736304,30.2351304 C99.5300946,29.6289696 99.5251125,28.8893982 98.9981125,28.4814161 C98.3033804,27.9427911 97.5599339,28.4714518 97.1037911,29.0349875 C96.3813804,29.9267911 97.6468446,31.2072018 98.3758982,30.3070946" id="Fill-218" fill="#1D1D1B"></path>
                <path d="M96.5659964,36.1963196 C97.4279071,35.5259446 98.2588179,34.8190339 99.0559607,34.0728196 C99.9023714,33.2795518 98.6286036,32.0096589 97.7833,32.8007125 C96.9867107,33.5469268 96.1558,34.2532839 95.2938893,34.9242125 C94.9102643,35.2225875 94.9805679,35.8829982 95.2938893,36.1963196 C95.6730857,36.5749625 96.1812643,36.4958018 96.5659964,36.1963196" id="Fill-220" fill="#1D1D1B"></path>
                <path d="M99.0559607,34.072875 C98.7332286,33.4445714 98.5439071,33.2967679 98.4879964,33.6300179 C98.461425,33.7374107 98.4326393,33.84425 98.4016393,33.9499821 C98.3584607,34.1027679 98.3191571,34.2610893 98.2626929,34.4088929 C98.0872107,34.8744464 97.8131929,35.3123214 97.5336393,35.723625 C96.9341214,36.6060179 96.13255,37.3101607 95.3104964,37.9783214 C94.4114964,38.7090357 95.6913536,39.9750536 96.5826036,39.2509821 C98.1171036,38.0032321 99.5303714,36.4858929 100.102211,34.5467321 C100.293746,33.894625 100.508532,33.0764464 99.9638179,32.5239821 C99.2768357,31.8286964 98.4055143,32.3108571 97.7833,32.8007679 C96.8748893,33.5170893 98.1558536,34.782 99.0559607,34.072875" id="Fill-222" fill="#1D1D1B"></path>
                <path d="M95.4923446,37.8378804 C95.1026304,38.1351482 94.7046125,38.4213446 94.2988446,38.6970232 C93.9102375,38.9605232 93.7004339,39.5002554 93.9761125,39.9276125 C94.2257732,40.3145589 94.7898625,40.5326661 95.2067018,40.2503446 C95.6130232,39.9746661 96.0110411,39.6884696 96.4007554,39.3912018 C96.7733089,39.1066661 97.0085768,38.6034696 96.7234875,38.1606125 C96.4860054,37.7919339 95.8931304,37.5323089 95.4923446,37.8378804" id="Fill-224" fill="#1D1D1B"></path>
                <path d="M95.3339679,40.4775857 C96.8418964,39.63505 98.3005571,38.716675 99.7116107,37.7208 C100.650468,37.058175 99.752575,35.4971036 98.8043071,36.166925 C97.3927,37.1633536 95.9334857,38.081175 94.4255571,38.9242643 C93.4152893,39.4894607 94.3214857,41.0438893 95.3339679,40.4775857" id="Fill-226" fill="#1D1D1B"></path>
                <path d="M99.7117214,37.7205786 C99.7892214,37.6829357 99.8661679,37.6458464 99.9431143,37.6082036 C99.7310964,37.5201857 99.5190786,37.4321679 99.3076143,37.3447036 C98.960525,37.0574 99.3054,37.0657036 99.0795429,37.3607571 C98.952775,37.5257214 98.8642036,37.7958643 98.7634536,37.9790964 C98.50715,38.4468643 98.1849714,38.8587214 97.8279179,39.2556321 C97.0291143,40.1430071 96.0642393,40.7740786 95.0528643,41.3918643 C94.0664,41.9947036 94.969275,43.5513464 95.961275,42.9451857 C97.705025,41.8795607 99.3928643,40.6284893 100.372132,38.781775 C100.709257,38.1468286 101.163739,37.3629714 100.934561,36.6217393 C100.614596,35.5893286 99.5561679,35.7310429 98.8038643,36.1672571 C97.8024536,36.7479536 98.7075429,38.3029357 99.7117214,37.7205786" id="Fill-228" fill="#1D1D1B"></path>
                <path d="M95.2312804,43.6682054 C96.8847982,42.9336161 98.4884946,42.1303839 100.035173,41.1887589 C101.022745,40.5881339 100.11987,39.0314911 99.1273161,39.6354375 C97.5806375,40.5765089 95.9769411,41.3802946 94.3228696,42.1143304 C93.2666554,42.5837589 94.1817089,44.1343125 95.2312804,43.6682054" id="Fill-230" fill="#1D1D1B"></path>
                <path d="M100.035007,41.1887589 C100.589132,41.0509196 100.483954,40.7857589 99.7189179,40.3932768 C99.6989893,40.4619196 99.6679893,40.5255804 99.6275786,40.5848125 C99.5124357,40.7215446 99.42165,40.9474018 99.3297571,41.1001875 C99.0618286,41.5435982 98.7407571,41.9155982 98.3859179,42.2947946 C97.6048286,43.1295804 96.7085964,43.6859196 95.6999893,44.2134732 C94.6731143,44.7498839 95.5820786,46.3032054 96.6084,45.7667946 C98.2912571,44.8866161 99.8180071,43.7368482 100.830489,42.0944018 C101.20415,41.4871339 101.712329,40.7298482 101.417275,39.9924911 C101.0104,38.9750268 99.88665,39.2435089 99.12715,39.6354375 C98.0975071,40.1657589 99.007025,41.7190804 100.035007,41.1887589" id="Fill-232" fill="#1D1D1B"></path>
                <path d="M95.3399464,46.4901464 C96.9231607,45.9243964 98.5085893,45.3807893 100.009875,44.6157536 C101.041732,44.0904143 100.132214,42.5376464 99.1014643,43.0624321 C97.7374643,43.7571643 96.2998393,44.2415393 94.8616607,44.7552536 C93.7794286,45.1422 94.2455357,46.8815214 95.3399464,46.4901464" id="Fill-234" fill="#1D1D1B"></path>
                <path d="M99.794425,44.7067054 C100.273818,44.6092768 100.223443,44.3419018 99.6438536,43.9034732 C99.6145143,43.9699018 99.5796393,44.0341161 99.5397821,44.0950089 C99.4041571,44.2361696 99.3222286,44.4647946 99.2115143,44.6253304 C98.9469071,45.0072946 98.6158714,45.3333482 98.2615857,45.6367054 C97.4727464,46.3131696 96.5023357,46.7117411 95.555175,47.1136339 C94.493425,47.5653482 95.4084786,49.1153482 96.4630321,48.6669554 C98.1021571,47.9711161 99.6837107,47.1307946 100.710586,45.6151161 C101.089229,45.0565625 101.596854,44.3374732 101.387604,43.6228125 C101.110264,42.6734375 100.0773,42.6512946 99.3166929,42.9718125 C98.2654607,43.4146696 98.7276929,45.1562054 99.794425,44.7067054" id="Fill-236" fill="#1D1D1B"></path>
                <path d="M95.7702375,47.023125 C94.9941304,47.3286964 94.2075054,47.6038214 93.4098089,47.8512679 C92.3082018,48.1939286 92.7787375,49.9310357 93.8886482,49.5861607 C94.6852375,49.3387143 95.4718625,49.0635893 96.2485232,48.7580179 C96.7002375,48.5803214 97.0152196,48.1551786 96.8768268,47.6514286 C96.7583625,47.22075 96.2247196,46.8437679 95.7702375,47.023125" id="Fill-238" fill="#1D1D1B"></path>
                <path d="M94.0316911,49.5842232 C95.8191732,49.2133304 97.5800839,48.7544196 99.3166375,48.1903304 C100.412709,47.8343839 99.9443875,46.0967232 98.8383518,46.4559911 C97.1017982,47.0195268 95.3408875,47.4784375 93.5539589,47.8493304 C92.4207982,48.0845982 92.9001911,49.8194911 94.0316911,49.5842232" id="Fill-240" fill="#1D1D1B"></path>
                <path d="M99.3165821,48.1905518 C99.3940821,47.4354804 99.3210107,47.2002125 99.0973679,47.4847482 C99.044225,47.5439804 98.9894214,47.6015518 98.9346179,47.6585696 C98.7585821,47.7786946 98.6268321,47.9857304 98.46685,48.1302125 C98.0610821,48.4955696 97.5883321,48.7917304 97.1161357,49.0635339 C96.0499571,49.6768911 94.8985286,50.0356054 93.7127786,50.3411768 C92.5929036,50.6301411 93.0673143,52.3655875 94.1910643,52.0760696 C96.3632786,51.5158554 98.5266357,50.6655696 100.116493,49.0247839 C100.585921,48.5398554 101.14835,47.9381232 100.955154,47.1979982 C100.700511,46.2198375 99.6088679,46.2685518 98.8382964,46.4556589 C97.7134393,46.7285696 98.1900643,48.4640161 99.3165821,48.1905518" id="Fill-242" fill="#1D1D1B"></path>
                <path d="M94.1873554,52.0904071 C95.6349446,51.8711929 97.0681411,51.5888714 98.4880518,51.2301571 C99.6095875,50.9467286 99.1346232,49.2112821 98.0092125,49.4952643 C96.5898554,49.8539786 95.1572125,50.1368536 93.7096232,50.3555143 C92.5681589,50.5282286 93.0530875,52.2620143 94.1873554,52.0904071" id="Fill-244" fill="#1D1D1B"></path>
                <path d="M98.4878304,51.2303232 C98.6068482,51.1849304 98.7291875,51.1600196 98.8542946,51.1544839 C98.6267768,50.2582518 98.4252768,49.9908768 98.2497946,50.3523589 C98.1684196,50.4104839 98.0936875,50.5920554 98.0244911,50.6784125 C97.8080446,50.9507696 97.5484196,51.1849304 97.2660982,51.3842161 C96.1202054,52.1940911 94.7296339,52.5898946 93.3744911,52.8755375 C92.2424375,53.1141268 92.7212768,54.8490196 93.8527768,54.6104304 C95.8223839,54.1946982 98.0150804,53.4844661 99.3519554,51.8868589 C99.7488661,51.4118946 100.195045,50.7808232 99.9819196,50.1276089 C99.6968304,49.2524125 98.7330625,49.3055554 98.0095446,49.4954304 C96.8902232,49.7888232 97.3651875,51.5248232 98.4878304,51.2303232" id="Fill-246" fill="#1D1D1B"></path>
                <path d="M93.6408143,54.7369214 C94.797225,54.6350643 95.9481,54.4850464 97.0906714,54.2807786 C98.2288143,54.0776179 97.7466536,52.3432786 96.6129393,52.5458857 C95.6270286,52.7219214 94.63835,52.85035 93.6408143,52.9378143 C92.4965821,53.0385643 92.4855107,54.8387786 93.6408143,54.7369214" id="Fill-248" fill="#1D1D1B"></path>
                <path d="M97.1930821,54.2979393 C97.7782071,54.1894393 96.5326714,53.6441714 96.920725,53.5041179 C96.8969214,53.512975 96.7707071,53.722225 96.7568679,53.73385 C96.5049929,53.9425464 96.3632786,54.125225 96.0898143,54.2962786 C95.1127607,54.9057607 94.0045107,55.2091179 92.8774393,55.3951179 C91.7381893,55.5827786 92.2214571,57.3171179 93.355725,57.1300107 C95.0380286,56.8526714 96.9782964,56.2597964 98.1164393,54.9041 C98.4845643,54.4651179 98.8477071,53.8877429 98.6606,53.2887786 C98.3876893,52.41635 97.4504929,52.4268679 96.7147964,52.5630464 C95.5777607,52.7745107 96.0593679,54.5082964 97.1930821,54.2979393" id="Fill-250" fill="#1D1D1B"></path>
                <path d="M93.1245536,57.1550321 C94.2261607,57.0736571 95.3227857,56.9408 96.4116607,56.7575679 C97.5514643,56.5660321 97.0681964,54.8316929 95.9339286,55.022675 C95.0022679,55.1793357 94.0667321,55.2867286 93.1245536,55.355925 C91.977,55.4400679 91.9675893,57.2402821 93.1245536,57.1550321" id="Fill-252" fill="#1D1D1B"></path>
                <path d="M96.4119375,56.7574018 C96.8647589,56.6727054 96.2143125,55.9004732 96.0233304,56.0217054 C95.9640982,56.0587946 95.9059732,56.1839018 95.8544911,56.2447946 C95.6568661,56.4778482 95.4315625,56.6516696 95.1724911,56.8094375 C94.2878839,57.3475089 93.3130446,57.6309375 92.2966875,57.7981161 C91.1574375,57.9857768 91.6407054,59.7195625 92.7755268,59.5330089 C94.3781161,59.2689554 96.1871875,58.6650089 97.2544732,57.3674375 C97.6181696,56.9256875 97.9802054,56.3577232 97.8052768,55.7582054 C97.5572768,54.9117946 96.6505268,54.8890982 95.9342054,55.0225089 C94.7971696,55.2350804 95.2782232,56.9694196 96.4119375,56.7574018" id="Fill-254" fill="#1D1D1B"></path>
                <path d="M92.5423071,59.6125571 C93.6073786,59.5488964 94.6652536,59.4315393 95.7192536,59.266575 C96.1980929,59.1918429 96.4682357,58.5895571 96.3475571,58.1599857 C96.2041821,57.6484857 95.7247893,57.4558429 95.2409679,57.5316821 C94.3463964,57.6717357 93.4462893,57.7597536 92.5423071,57.81345 C91.3919857,57.8820929 91.3836821,59.6817536 92.5423071,59.6125571" id="Fill-256" fill="#1D1D1B"></path>
                <path d="M95.7194196,59.266575 C96.1689196,59.1879679 95.6424732,58.2662714 95.3214018,58.4827179 C95.2887411,58.5048607 95.1990625,58.6582 95.1669554,58.69695 C94.9560446,58.9549143 94.7905268,59.0750393 94.5342232,59.2366821 C93.6645625,59.785825 92.6841875,60.0581821 91.6744732,60.2126286 C90.5335625,60.3875571 91.0184911,62.1213429 92.1527589,61.9475214 C93.7426161,61.70395 95.5112768,61.1099679 96.5614018,59.8212536 C96.9361696,59.3617893 97.2771696,58.7727893 97.0341518,58.1705036 C96.7291339,57.4165393 95.9253482,57.4121107 95.2411339,57.5316821 C94.1029911,57.7309679 94.5851518,59.4653071 95.7194196,59.266575" id="Fill-258" fill="#1D1D1B"></path>
                <path d="M91.903375,61.9868804 C92.8311607,61.9686125 93.7539643,61.9060589 94.6745536,61.7947911 C95.1567143,61.7361125 95.5741071,61.4227911 95.5741071,60.8952375 C95.5741071,60.4540411 95.1600357,59.9364518 94.6745536,59.9956839 C93.7539643,60.1069518 92.8311607,60.1695054 91.903375,60.1877732 C90.7475179,60.2110232 90.7436429,62.0101304 91.903375,61.9868804" id="Fill-260" fill="#1D1D1B"></path>
                <path d="M94.9134196,61.7625179 C95.3629196,61.6468214 94.6194732,60.7721786 94.3908482,60.9985893 C94.4932589,60.8967321 94.3664911,61.0378929 94.3365982,61.0904821 C94.3067054,61.1408571 94.2745982,61.1906786 94.2408304,61.2388393 C94.2967411,61.1729643 94.2950804,61.174625 94.2364018,61.2432679 C94.1500446,61.345125 94.0553839,61.4480893 93.9518661,61.5322321 C93.4519911,61.9368929 92.7993304,62.1422679 92.1909554,62.31 C91.0766161,62.6177857 91.5499196,64.3537857 92.6692411,64.0448929 C93.8799018,63.7105357 95.1414911,63.1724643 95.8434196,62.073625 C96.1318304,61.6224643 96.3305625,61.0323571 96.0570982,60.5252857 C95.7255089,59.9097143 95.0418482,59.8709643 94.4356875,60.027625 C93.3147054,60.3165893 93.7902232,62.0520357 94.9134196,61.7625179" id="Fill-262" fill="#1D1D1B"></path>
                <path d="M93.9803196,64.1100482 C94.0378911,64.0951018 94.1015518,64.0873518 94.1569089,64.0679768 C94.2748196,64.0275661 93.9875161,64.0867982 94.0838375,64.0801554 C94.2410518,64.0690839 94.0240518,64.0757268 93.9808732,64.0613339 C93.7395161,63.9832804 93.5391232,63.7712625 93.4555339,63.5348875 C93.4245339,63.4485304 93.4328375,63.2248875 93.4439089,63.1833696 C93.4267482,63.2459232 93.5673554,62.9741196 93.4854268,63.0870482 C93.4477839,63.1396375 93.4162304,63.2016375 93.3808018,63.2558875 C93.2817125,63.4081196 93.5119982,63.1119589 93.3531232,63.2879946 C93.3021946,63.3439054 93.2529268,63.4003696 93.1997839,63.4546196 C93.1505161,63.5044411 93.1001411,63.5537089 93.0475518,63.6002089 C93.0276232,63.6184768 93.0043732,63.6356375 92.9849982,63.6550125 C92.8753911,63.7657268 93.1654625,63.5221554 93.0575161,63.6002089 C92.6766589,63.8736732 92.4546768,64.3962446 92.7347839,64.8307982 C92.9783554,65.2088875 93.5568375,65.4469232 93.9659268,65.1535304 C94.4386768,64.8136375 94.8881768,64.3597089 95.1168018,63.8177625 C95.2950518,63.3953875 95.2513196,62.9110125 94.9069982,62.5821911 C94.5194982,62.2112982 93.9814268,62.2489411 93.5025875,62.3751554 C93.0469982,62.4952804 92.7253732,63.0228339 92.8737304,63.4817446 C93.0254089,63.9495125 93.4931768,64.2390304 93.9803196,64.1100482" id="Fill-264" fill="#1D1D1B"></path>
                <path d="M59.64865,69.2579304 C60.4751321,71.8049125 61.0536143,74.4343768 61.9420964,76.9603232 C62.442525,78.3824482 63.01215,79.8477518 64.3036321,80.7218411 C65.2651857,81.3728411 66.1658464,79.8150911 65.2114893,79.1685196 C63.9216679,78.2955375 63.5114714,76.0496982 63.1057036,74.6685375 C62.5288821,72.7055732 62.0151679,70.7265554 61.3835429,68.7796446 C61.0275964,67.6830196 59.2899357,68.1518946 59.64865,69.2579304" id="Fill-266" fill="#1D1D1B"></path>
                <path d="M52.5122286,62.2780036 C56.7536929,61.7100393 58.5051929,65.8978071 59.6488714,69.2579857 C60.0197643,70.3479679 61.7579786,69.8802 61.3832107,68.7797 C59.9937464,64.69545 57.6222464,59.7946821 52.5122286,60.4788964 C51.3812821,60.6300214 51.3668893,62.4313429 52.5122286,62.2780036" id="Fill-268" fill="#1D1D1B"></path>
                <path d="M76.4590089,66.8249286 C82.7226696,74.2732321 92.1571875,76.6574643 101.561813,75.4944107 C102.69608,75.3538036 102.70992,73.5530357 101.561813,73.6953036 C92.5834375,74.8057679 83.7290625,72.6839286 77.7311161,65.5528214 C76.9849018,64.666 75.7177768,65.9441964 76.4590089,66.8249286" id="Fill-270" fill="#1D1D1B"></path>
                <path d="M34.7698214,68.4356554 C34.723875,68.4655482 34.5544821,68.5159232 34.6591071,68.5153696 C34.6840179,68.5148161 34.9048929,68.4954411 34.8058036,68.4827089 C34.3374821,68.4229232 33.8863214,68.9394054 33.90625,69.3822625 C33.9300536,69.9208875 34.3037143,70.2176018 34.8058036,70.2818161 C35.1063929,70.3205661 35.4335536,70.1472982 35.6776786,69.9889768 C36.072375,69.7332268 36.2722143,69.1796554 36.0004107,68.7583875 C35.7463214,68.3642446 35.1921964,68.1616375 34.7698214,68.4356554" id="Fill-272" fill="#1D1D1B"></path>
                <path d="M39.7260018,62.3036893 C38.5352696,64.4925107 36.8280554,66.9625464 34.7698768,68.4356 C33.8360018,69.1037607 34.7333411,70.6648321 35.6777339,69.9889214 C37.9944304,68.330975 39.9324839,65.6876714 41.2798768,63.2121 C41.8334482,62.1946357 40.2801268,61.2851179 39.7260018,62.3036893" id="Fill-274" fill="#1D1D1B"></path>
                <path d="M38.4296482,69.2103232 C38.5381482,69.1245196 38.3117375,69.2761982 38.3056482,69.2861625 C38.2403268,69.3215911 38.2691125,69.3121804 38.3908982,69.2568232 C38.5597375,69.2512875 38.6023625,69.2446446 38.5171125,69.2368946 C38.0482375,69.1837518 37.5976304,69.6886089 37.6175589,70.1364482 C37.6413625,70.6695375 38.0144696,70.9789839 38.5171125,71.0360018 C38.9655054,71.0869304 39.3784696,70.7376268 39.7017554,70.4824304 C40.0732018,70.1895911 40.0311304,69.5125732 39.7017554,69.2103232 C39.3081661,68.8488411 38.8260054,68.8981089 38.4296482,69.2103232" id="Fill-276" fill="#1D1D1B"></path>
                <path d="M43.1982786,62.8596964 C42.0418679,65.1747321 40.4221179,67.5301786 38.4298143,69.2102679 C37.5435464,69.9575893 38.8217429,71.2247143 39.7019214,70.482375 C41.7916536,68.7198036 43.5392786,66.1955179 44.7521536,63.7675536 C45.2675286,62.7345893 43.7164214,61.8223036 43.1982786,62.8596964" id="Fill-278" fill="#1D1D1B"></path>
                <path d="M77.7942786,66.9074107 C85.8266,70.6999286 94.1196536,71.6598214 102.835636,70.0417321 C103.972671,69.8302679 103.491618,68.0959286 102.357904,68.3068393 C94.1501,69.8302679 86.2628143,68.9235179 78.7026893,65.3535357 C77.6608679,64.8625179 76.7463679,66.4125179 77.7942786,66.9074107" id="Fill-280" fill="#1D1D1B"></path>
            </g>
        </g>
    </g>
</svg>