<?xml version="1.0" encoding="UTF-8" standalone="no"?>
<svg width="388px" height="520px" viewBox="0 0 388 520" version="1.1" xmlns="http://www.w3.org/2000/svg" xmlns:xlink="http://www.w3.org/1999/xlink">
    <!-- Generator: Sketch 48 (47235) - http://www.bohemiancoding.com/sketch -->
    <title>mirror-with-no-back</title>
    <desc>Created with Sketch.</desc>
    <defs>
        <polygon id="path-1" points="0.274749642 0.853581988 160.791568 0.853581988 160.791568 109 0.274749642 109"></polygon>
        <polygon id="path-3" points="0.182864161 0.853772125 160.699825 0.853772125 160.699825 109 0.182864161 109"></polygon>
        <polygon id="path-5" points="0 0.329149642 38.425102 0.329149642 38.425102 143.093413 0 143.093413"></polygon>
    </defs>
    <g id="Page-1" stroke="none" stroke-width="1" fill="none" fill-rule="evenodd">
        <g id="mirror-with-no-back">
            <g id="Group" transform="translate(0.000000, 1.000000)">
                <path d="M194,517 C87.4090433,517 1,407.533621 1,272.5 C1,137.466379 87.4090433,28 194,28 C300.590957,28 387,137.466379 387,272.5 C387,407.533621 300.590957,517 194,517 Z M194,483 C281.26099,483 352,389.203655 352,273.5 C352,157.796345 281.26099,64 194,64 C106.73901,64 36,157.796345 36,273.5 C36,389.203655 106.73901,483 194,483 Z" id="Combined-Shape" fill="#A98F3B"></path>
                <g id="Page-1">
                    <path d="M198.2655,7.6703 C197.9595,13.3333 189.4235,13.3823 189.4235,7.6703 C189.4235,1.9553 197.9595,2.0053 198.2655,7.6703 C198.3765,9.7513 201.6275,9.7643 201.5155,7.6703 C201.2905,3.5123 198.1835,0.0003 193.8445,0.0003 C189.6765,0.0003 186.1735,3.5033 186.1735,7.6703 C186.1735,11.7193 189.4765,15.1533 193.5155,15.3233 C197.9815,15.5113 201.2845,11.9633 201.5155,7.6703 C201.6275,5.5803 198.3775,5.5873 198.2655,7.6703" id="Fill-63" fill="#020203"></path>
                    <path d="M138.7621,41.2318 C155.3811,30.5118 172.0001,19.7928 188.6191,9.0738 C190.3711,7.9438 188.7431,5.1288 186.9781,6.2678 C170.3601,16.9868 153.7411,27.7058 137.1211,38.4258 C135.3701,39.5558 136.9971,42.3698 138.7621,41.2318" id="Fill-65" fill="#020203"></path>
                    <path d="M250.8378,38.6014 C234.1288,27.8234 217.4198,17.0454 200.7108,6.2674 C198.9468,5.1304 197.3168,7.9424 199.0698,9.0734 C215.7788,19.8514 232.4878,30.6294 249.1968,41.4084 C250.9598,42.5444 252.5918,39.7324 250.8378,38.6014" id="Fill-67" fill="#020203"></path>
                    <path d="M319.6562,395.5931 C293.8362,441.9731 249.3932,481.2711 193.8442,481.6041 C191.7542,481.6161 191.7492,484.8661 193.8442,484.8541 C250.5342,484.5141 296.0812,444.6211 322.4622,397.2331 C323.4802,395.4041 320.6752,393.7631 319.6562,395.5931" id="Fill-69" fill="#020203"></path>
                    <path d="M350.0907,273.5799 C349.9457,316.0059 340.0737,358.2849 319.6557,395.5929 C318.6517,397.4279 321.4567,399.0709 322.4617,397.2329 C343.1527,359.4289 353.1947,316.5749 353.3407,273.5799 C353.3477,271.4889 350.0977,271.4859 350.0907,273.5799" id="Fill-71" fill="#020203"></path>
                    <path d="M314.2626,142.3318 C338.3516,181.6688 349.9366,227.6148 350.0906,273.5798 C350.0976,275.6708 353.3476,275.6748 353.3406,273.5798 C353.1846,227.0658 341.4456,180.4988 317.0686,140.6918 C315.9786,138.9108 313.1656,140.5418 314.2626,142.3318" id="Fill-73" fill="#020203"></path>
                    <path d="M193.8446,65.556 C245.5026,65.873 287.9786,100.116 314.2626,142.332 C315.3656,144.104 318.1786,142.474 317.0686,140.692 C290.1736,97.495 246.6646,62.63 193.8446,62.306 C191.7526,62.293 191.7506,65.543 193.8446,65.556" id="Fill-75" fill="#020203"></path>
                    <path d="M327.8134,400.2923 C300.3224,449.6073 252.8144,490.8983 193.8444,491.2293 C191.7534,491.2403 191.7504,494.4903 193.8444,494.4793 C253.9514,494.1423 302.5674,452.2543 330.6194,401.9333 C331.6384,400.1043 328.8334,398.4633 327.8134,400.2923" id="Fill-77" fill="#020203"></path>
                    <path d="M359.5224,273.5799 C359.3774,317.6549 349.0574,361.5569 327.8134,400.2919 C326.8064,402.1269 329.6124,403.7689 330.6194,401.9329 C352.1354,362.7029 362.6264,318.2229 362.7724,273.5799 C362.7794,271.4889 359.5294,271.4859 359.5224,273.5799" id="Fill-79" fill="#020203"></path>
                    <path d="M321.5399,136.2098 C347.0379,177.2768 359.3669,225.4088 359.5219,273.5798 C359.5289,275.6708 362.7789,275.6748 362.7719,273.5798 C362.6149,224.8618 350.1349,176.1038 324.3469,134.5688 C323.2459,132.7958 320.4329,134.4258 321.5399,136.2098" id="Fill-81" fill="#020203"></path>
                    <path d="M193.8446,55.9315 C248.3146,56.2425 293.5016,91.7555 321.5396,136.2095 C322.6536,137.9745 325.4666,136.3455 324.3466,134.5695 C295.6916,89.1385 249.4796,52.9985 193.8446,52.6815 C191.7526,52.6695 191.7506,55.9195 193.8446,55.9315" id="Fill-83" fill="#020203"></path>
                    <g id="Group-87" transform="translate(192.000000, 410.681000)">
                        <mask id="mask-2" fill="white">
                            <use xlink:href="#path-1"></use>
                        </mask>
                        <g id="Clip-86"></g>
                        <path d="M157.7655,1.6513 C132.8435,46.2563 93.8425,85.0773 43.8345,99.7003 C30.1755,103.6933 16.0705,105.6823 1.8445,105.7503 C-0.2465,105.7593 -0.2505,109.0093 1.8445,109.0003 C54.0915,108.7513 101.1125,81.3313 134.1115,41.9443 C144.1635,29.9453 152.9405,16.9513 160.5715,3.2923 C161.5925,1.4643 158.7865,-0.1767 157.7655,1.6513" id="Fill-85" fill="#020203" mask="url(#mask-2)"></path>
                    </g>
                    <path d="M384.7245,273.5799 C384.5785,321.8809 373.1105,369.9349 349.7655,412.3319 C348.7555,414.1659 351.5615,415.8079 352.5715,413.9729 C376.1885,371.0809 387.8275,322.4469 387.9745,273.5799 C387.9815,271.4889 384.7315,271.4859 384.7245,273.5799" id="Fill-88" fill="#020203"></path>
                    <path d="M340.6825,119.7073 C370.1335,165.3733 384.5645,219.4233 384.7245,273.5803 C384.7315,275.6703 387.9815,275.6753 387.9745,273.5803 C387.8135,218.8833 373.2355,164.1913 343.4895,118.0663 C342.3595,116.3143 339.5445,117.9423 340.6825,119.7073" id="Fill-90" fill="#020203"></path>
                    <path d="M193.8446,30.7288 C255.5746,31.0288 307.8986,69.5768 340.6826,119.7078 C341.8236,121.4508 344.6376,119.8238 343.4896,118.0668 C310.0716,66.9678 256.7536,27.7848 193.8446,27.4788 C191.7526,27.4688 191.7496,30.7188 193.8446,30.7288" id="Fill-92" fill="#020203"></path>
                    <path d="M65.5126,397.2327 C91.8936,444.6227 137.4406,484.5137 194.1306,484.8537 C196.2216,484.8667 196.2246,481.6167 194.1306,481.6037 C138.5806,481.2707 94.1386,441.9717 68.3196,395.5927 C67.3016,393.7647 64.4936,395.4027 65.5126,397.2327" id="Fill-94" fill="#020203"></path>
                    <path d="M34.6342,273.5799 C34.7802,316.5749 44.8222,359.4289 65.5122,397.2329 C66.5172,399.0689 69.3242,397.4299 68.3192,395.5929 C47.9002,358.2849 38.0292,316.0059 37.8842,273.5799 C37.8772,271.4889 34.6272,271.4849 34.6342,273.5799" id="Fill-96" fill="#020203"></path>
                    <path d="M70.9062,140.6917 C46.5292,180.4987 34.7902,227.0667 34.6342,273.5797 C34.6272,275.6717 37.8772,275.6737 37.8842,273.5797 C38.0382,227.6147 49.6232,181.6687 73.7122,142.3317 C74.8082,140.5437 71.9982,138.9087 70.9062,140.6917" id="Fill-98" fill="#020203"></path>
                    <path d="M194.1308,62.306 C141.3098,62.63 97.8008,97.495 70.9058,140.692 C69.7978,142.472 72.6088,144.106 73.7128,142.332 C99.9968,100.116 142.4718,65.873 194.1308,65.556 C196.2208,65.543 196.2258,62.293 194.1308,62.306" id="Fill-100" fill="#020203"></path>
                    <path d="M57.3554,401.9329 C85.4074,452.2539 134.0234,494.1419 194.1304,494.4789 C196.2214,494.4909 196.2244,491.2409 194.1304,491.2289 C135.1604,490.8989 87.6524,449.6079 60.1624,400.2919 C59.1434,398.4649 56.3354,400.1019 57.3554,401.9329" id="Fill-102" fill="#020203"></path>
                    <path d="M25.2025,273.5799 C25.3485,318.2229 35.8395,362.7029 57.3555,401.9329 C58.3615,403.7669 61.1695,402.1289 60.1615,400.2919 C38.9165,361.5569 28.5975,317.6549 28.4525,273.5799 C28.4455,271.4889 25.1955,271.4849 25.2025,273.5799" id="Fill-104" fill="#020203"></path>
                    <path d="M63.6283,134.5692 C37.8403,176.1042 25.3593,224.8612 25.2023,273.5802 C25.1953,275.6712 28.4453,275.6742 28.4523,273.5802 C28.6073,225.4082 40.9363,177.2772 66.4343,136.2102 C67.5413,134.4272 64.7303,132.7942 63.6283,134.5692" id="Fill-106" fill="#020203"></path>
                    <path d="M194.1308,52.6815 C138.4958,52.9985 92.2828,89.1385 63.6288,134.5695 C62.5088,136.3435 65.3198,137.9765 66.4348,136.2095 C94.4728,91.7555 139.6608,56.2425 194.1308,55.9315 C196.2208,55.9195 196.2258,52.6695 194.1308,52.6815" id="Fill-108" fill="#020203"></path>
                    <g id="Group-112" transform="translate(35.000000, 410.681000)">
                        <mask id="mask-4" fill="white">
                            <use xlink:href="#path-3"></use>
                        </mask>
                        <g id="Clip-111"></g>
                        <path d="M0.4032,3.292 C25.8442,48.827 65.8392,88.336 116.9472,103.03 C130.6632,106.974 144.8642,108.933 159.1312,109 C161.2212,109.01 161.2242,105.76 159.1312,105.75 C107.9592,105.507 62.0812,78.672 29.6502,40.225 C19.5722,28.277 10.8282,15.288 3.2092,1.651 C2.1892,-0.175 -0.6188,1.462 0.4032,3.292" id="Fill-110" fill="#020203" mask="url(#mask-4)"></path>
                    </g>
                    <g id="Group-115" transform="translate(0.000000, 271.681000)">
                        <mask id="mask-6" fill="white">
                            <use xlink:href="#path-5"></use>
                        </mask>
                        <g id="Clip-114"></g>
                        <path d="M-0.0001,1.8989 C0.1479,50.7659 11.7869,99.3999 35.4029,142.2919 C36.4129,144.1249 39.2199,142.4869 38.2089,140.6509 C14.8649,98.2539 3.3959,50.1999 3.2499,1.8989 C3.2439,-0.1921 -0.0061,-0.1961 -0.0001,1.8989" id="Fill-113" fill="#020203" mask="url(#mask-6)"></path>
                    </g>
                    <path d="M44.4862,118.0667 C14.7392,164.1917 0.1612,218.8827 0.0002,273.5797 C-0.0058,275.6717 3.2442,275.6737 3.2502,273.5797 C3.4102,219.4237 17.8412,165.3737 47.2922,119.7077 C48.4292,117.9437 45.6172,116.3137 44.4862,118.0667" id="Fill-116" fill="#020203"></path>
                    <path d="M194.1308,27.4788 C131.2218,27.7848 77.9038,66.9678 44.4858,118.0668 C43.3378,119.8228 46.1508,121.4528 47.2928,119.7078 C80.0768,69.5768 132.3998,31.0288 194.1308,30.7288 C196.2208,30.7188 196.2258,27.4688 194.1308,27.4788" id="Fill-118" fill="#020203"></path>
                </g>
            </g>
        </g>
    </g>
</svg>