<?xml version="1.0" encoding="UTF-8"?>
<svg width="571px" height="412px" viewBox="0 0 571 412" version="1.1" xmlns="http://www.w3.org/2000/svg" xmlns:xlink="http://www.w3.org/1999/xlink">
    <!-- Generator: Sketch 48.2 (47327) - http://www.bohemiancoding.com/sketch -->
    <title>rect-frame</title>
    <desc>Created with Sketch.</desc>
    <defs>
        <polygon id="path-1" points="0 0.181044834 2.98004781 0.181044834 2.98004781 383.310423 0 383.310423"></polygon>
        <polygon id="path-3" points="0.0509903452 0.819877059 570.882016 0.819877059 570.882016 4.76826722 0.0509903452 4.76826722"></polygon>
        <polygon id="path-5" points="0.419488309 0.550734864 15.2502511 0.550734864 15.2502511 15.3702814 0.419488309 15.3702814"></polygon>
    </defs>
    <g id="Page-1" stroke="none" stroke-width="1" fill="none" fill-rule="evenodd">
        <g id="rect-frame">
            <g id="Page-1" transform="translate(0.000000, 2.000000)">
                <polygon id="Fill-1" fill="#A88D3A" points="531.908553 407.572409 568.950837 407.572409 568.950837 27.3221712 531.908553 27.3221712"></polygon>
                <polygon id="Fill-2" fill="#A88D3A" points="0.998951983 65.2585052 568.952029 65.2585052 568.952029 27.3221712 0.998951983 27.3221712"></polygon>
                <polygon id="Fill-3" fill="#A88D3A" points="0.998951983 407.573601 38.0412359 407.573601 38.0412359 27.3233633 0.998951983 27.3233633"></polygon>
                <polygon id="Fill-4" fill="#A88D3A" points="19.5200939 407.572409 568.950837 407.572409 568.950837 370.590921 19.5200939 370.590921"></polygon>
                <g id="Group-54" transform="translate(0.000000, 0.641332)">
                    <path d="M284.382318,3.09281733 C278.2694,3.09281733 278.2694,12.5721326 284.382318,12.5721326 C290.494045,12.5721326 290.494045,3.09281733 284.382318,3.09281733" id="Fill-5" fill="#A88D3A"></path>
                    <path d="M531.478336,368.459505 L482.621478,368.459505 L364.658123,368.459505 L222.474355,368.459505 L99.0525263,368.459505 L58.5627852,368.459505 C52.4605952,368.459505 45.3642215,367.449825 39.3216349,368.459505 C39.0546119,368.503612 38.7446745,368.459505 38.4728833,368.459505 C36.5548478,368.459505 36.5512716,371.439672 38.4728833,371.439672 L87.3297413,371.439672 L205.293096,371.439672 L347.476865,371.439672 L470.899885,371.439672 L511.387242,371.439672 C517.491816,371.439672 524.586998,372.449353 530.629585,371.439672 C530.896608,371.395566 531.205353,371.439672 531.478336,371.439672 C533.396372,371.439672 533.398756,368.459505 531.478336,368.459505" id="Fill-7" fill="#1E1E1C"></path>
                    <path d="M530.910197,63.6355063 L530.910197,167.587308 L530.910197,331.930406 L530.910197,369.948993 C530.910197,371.867028 533.890364,371.870604 533.890364,369.948993 L533.890364,265.997191 L533.890364,101.655285 L533.890364,63.6355063 C533.890364,61.7186628 530.910197,61.7150866 530.910197,63.6355063" id="Fill-9" fill="#1E1E1C"></path>
                    <path d="M38.4725257,65.1255898 L87.6500497,65.1255898 L205.729035,65.1255898 L347.955718,65.1255898 L471.47768,65.1255898 L512.079476,65.1255898 C518.256766,65.1255898 525.435392,66.147191 531.551887,65.1255898 C531.817718,65.0814833 532.127655,65.1255898 532.400638,65.1255898 C534.317482,65.1255898 534.321058,62.1454228 532.400638,62.1454228 L483.221922,62.1454228 L365.142937,62.1454228 L222.917446,62.1454228 L99.3942919,62.1454228 L58.7924965,62.1454228 C52.6152063,62.1454228 45.437772,61.1250136 39.3200852,62.1454228 C39.0542543,62.1907213 38.745509,62.1454228 38.4725257,62.1454228 C36.5544902,62.1454228 36.5521061,65.1255898 38.4725257,65.1255898" id="Fill-11" fill="#1E1E1C"></path>
                    <path d="M39.9626092,369.949589 L39.9626092,265.997787 L39.9626092,101.654689 L39.9626092,63.6361023 C39.9626092,61.7180668 36.9824422,61.7156827 36.9824422,63.6361023 L36.9824422,167.587904 L36.9824422,331.92981 L36.9824422,369.949589 C36.9824422,371.866432 39.9626092,371.870008 39.9626092,369.949589" id="Fill-13" fill="#1E1E1C"></path>
                    <path d="M39.5260743,62.5819576 C35.6852351,58.7411184 31.8443958,54.9014712 28.0035566,51.0606319 C26.6457925,49.7028678 24.5382184,51.8092499 25.8971745,53.1682061 C29.7380138,57.0078532 33.577661,60.8486925 37.4185002,64.6895317 C38.7762643,66.0472958 40.8850305,63.9409138 39.5260743,62.5819576" id="Fill-15" fill="#1E1E1C"></path>
                    <path d="M533.453829,64.6896509 C537.322086,60.8309307 541.190343,56.9710184 545.0586,53.1134902 C546.418748,51.7557261 544.311174,49.648152 542.952218,51.0059161 C539.083961,54.8646363 535.215704,58.7233566 531.346255,62.5820768 C529.987299,63.9386489 532.092489,66.046223 533.453829,64.6896509" id="Fill-17" fill="#1E1E1C"></path>
                    <path d="M37.479534,368.89604 C33.6196217,372.745224 29.7597094,376.5956 25.9009891,380.444783 C24.5408409,381.801355 26.648415,383.908929 28.0085633,382.552357 C31.8672835,378.703174 35.7271958,374.852798 39.5871081,371.003614 C40.9460643,369.647042 38.8396823,367.539468 37.479534,368.89604" id="Fill-19" fill="#1E1E1C"></path>
                    <path d="M530.424788,370.021709 C533.46575,373.062671 536.506713,376.103634 539.546483,379.143404 C540.905439,380.501168 543.013013,378.394786 541.654057,377.037022 C538.613095,373.996059 535.572132,370.955097 532.532362,367.914135 C531.174598,366.556371 529.065832,368.662753 530.424788,370.021709" id="Fill-21" fill="#1E1E1C"></path>
                    <path d="M544.008985,382.989011 C545.92702,382.989011 545.929405,380.008844 544.008985,380.008844 C542.092142,380.008844 542.088565,382.989011 544.008985,382.989011" id="Fill-23" fill="#1E1E1C"></path>
                    <path d="M26.954657,382.989011 L78.3112791,382.989011 L201.668736,382.989011 L350.961991,382.989011 L480.123622,382.989011 L523.015377,382.989011 C529.412008,382.989011 536.745603,383.993924 543.08859,382.989011 C543.379454,382.942521 543.712041,382.989011 544.008866,382.989011 C545.926901,382.989011 545.929285,380.008844 544.008866,380.008844 L492.653436,380.008844 L369.294786,380.008844 L220.001532,380.008844 L90.8399013,380.008844 L47.9493376,380.008844 C41.551515,380.008844 34.21792,379.003932 27.8761246,380.008844 C27.5852603,380.054143 27.2514816,380.008844 26.954657,380.008844 C25.0366215,380.008844 25.0342374,382.989011 26.954657,382.989011" id="Fill-25" fill="#1E1E1C"></path>
                    <g id="Group-29" transform="translate(0.000000, 25.033403)">
                        <mask id="mask-2" fill="white">
                            <use xlink:href="#path-1"></use>
                        </mask>
                        <g id="Clip-28"></g>
                        <path d="M2.98004781,381.871449 L2.98004781,253.259361 L2.98004781,48.4241378 L2.98004781,1.62001879 C2.98004781,-0.296824635 -0.000119206681,-0.300400835 -0.000119206681,1.62001879 L-0.000119206681,130.232106 L-0.000119206681,335.066138 L-0.000119206681,381.871449 C-0.000119206681,383.788292 2.98004781,383.791868 2.98004781,381.871449" id="Fill-27" fill="#1E1E1C" mask="url(#mask-2)"></path>
                    </g>
                    <path d="M1.4899643,28.1436244 L58.2871793,28.1436244 L193.436561,28.1436244 L358.020457,28.1436244 L499.316135,28.1436244 L546.263303,28.1436244 C553.364444,28.1436244 561.45381,29.2331735 568.495348,28.1436244 C568.795749,28.0971338 569.13668,28.1436244 569.443042,28.1436244 C571.359885,28.1436244 571.363461,25.1634574 569.443042,25.1634574 L512.644634,25.1634574 L377.496444,25.1634574 L212.911357,25.1634574 L71.6168704,25.1634574 L24.6708954,25.1634574 C17.5697534,25.1634574 9.47919603,24.0739084 2.43765741,25.1634574 C2.13725658,25.209948 1.79632547,25.1634574 1.4899643,25.1634574 C-0.426879123,25.1634574 -0.430455324,28.1436244 1.4899643,28.1436244" id="Fill-30" fill="#1E1E1C"></path>
                    <path d="M569.442803,408.394935 C571.359647,408.394935 571.363223,405.414768 569.442803,405.414768 C567.52596,405.414768 567.522384,408.394935 569.442803,408.394935" id="Fill-32" fill="#1E1E1C"></path>
                    <g id="Group-36" transform="translate(0.000000, 404.110647)">
                        <mask id="mask-4" fill="white">
                            <use xlink:href="#path-3"></use>
                        </mask>
                        <g id="Clip-35"></g>
                        <path d="M1.4899643,4.2842881 L58.2871793,4.2842881 L193.436561,4.2842881 L358.020457,4.2842881 L499.316135,4.2842881 L546.263303,4.2842881 C553.364444,4.2842881 561.45381,5.37383716 568.495348,4.2842881 C568.795749,4.23779749 569.13668,4.2842881 569.443042,4.2842881 C571.359885,4.2842881 571.363461,1.30412109 569.443042,1.30412109 L512.644634,1.30412109 L377.496444,1.30412109 L212.911357,1.30412109 L71.6168704,1.30412109 L24.6708954,1.30412109 C17.5697534,1.30412109 9.47919603,0.214572025 2.43765741,1.30412109 C2.13725658,1.35061169 1.79632547,1.30412109 1.4899643,1.30412109 C-0.426879123,1.30412109 -0.430455324,4.2842881 1.4899643,4.2842881" id="Fill-34" fill="#1E1E1C" mask="url(#mask-4)"></path>
                    </g>
                    <path d="M570.932887,406.904852 L570.932887,278.292764 L570.932887,73.4575407 L570.932887,26.6534217 C570.932887,24.7365783 567.95272,24.7330021 567.95272,26.6534217 L567.95272,155.265509 L567.95272,360.099541 L567.95272,406.904852 C567.95272,408.821695 570.932887,408.825271 570.932887,406.904852" id="Fill-37" fill="#1E1E1C"></path>
                    <path d="M544.008985,53.5489522 C545.92702,53.5489522 545.929405,50.5687852 544.008985,50.5687852 C542.092142,50.5687852 542.088565,53.5489522 544.008985,53.5489522" id="Fill-39" fill="#1E1E1C"></path>
                    <path d="M545.499068,381.498928 L545.499068,270.089556 L545.499068,92.6325313 L545.499068,52.0593455 C545.499068,50.14131 542.518901,50.1377338 542.518901,52.0593455 L542.518901,163.468717 L542.518901,340.92455 L542.518901,381.498928 C542.518901,383.415771 545.499068,383.419348 545.499068,381.498928" id="Fill-41" fill="#1E1E1C"></path>
                    <path d="M28.4406875,381.498928 L28.4406875,270.108629 L28.4406875,92.6814061 L28.4406875,52.1141806 C28.4406875,50.1961451 25.4605205,50.193761 25.4605205,52.1141806 L25.4605205,163.504479 L25.4605205,340.931703 L25.4605205,381.498928 C25.4605205,383.415771 28.4406875,383.419348 28.4406875,381.498928" id="Fill-43" fill="#1E1E1C"></path>
                    <path d="M26.950604,53.6042641 L78.3072261,53.6042641 L201.665875,53.6042641 L350.960322,53.6042641 L480.124337,53.6042641 L523.013708,53.6042641 C529.411531,53.6042641 536.746318,54.6091764 543.088113,53.6042641 C543.378978,53.5577735 543.711564,53.6042641 544.009581,53.6042641 C545.927616,53.6042641 545.930001,50.6240971 544.009581,50.6240971 L492.651767,50.6240971 L369.293118,50.6240971 L219.998671,50.6240971 L90.8370403,50.6240971 L47.9452846,50.6240971 C41.5486541,50.6240971 34.213867,49.6191848 27.8720716,50.6240971 C27.5812073,50.6705877 27.2486207,50.6240971 26.950604,50.6240971 C25.0337605,50.6240971 25.0301843,53.6042641 26.950604,53.6042641" id="Fill-45" fill="#1E1E1C"></path>
                    <g id="Group-49" transform="translate(276.559499, 0.000000)">
                        <mask id="mask-6" fill="white">
                            <use xlink:href="#path-5"></use>
                        </mask>
                        <g id="Clip-48"></g>
                        <path d="M12.2674403,7.96527119 C11.9622712,13.6454695 3.39965532,13.6955363 3.39965532,7.96527119 C3.39965532,2.23262192 11.9610791,2.28268873 12.2674403,7.96527119 C12.369958,9.87377015 15.3513171,9.88449875 15.2476073,7.96527119 C15.0306511,3.94562192 12.0266428,0.550615658 7.83295177,0.550615658 C3.80376597,0.550615658 0.419488309,3.93727745 0.419488309,7.96527119 C0.419488309,11.8776344 3.60707495,15.1963484 7.50990167,15.3632378 C11.8299518,15.5468161 15.0246908,12.1172399 15.2476073,7.96527119 C15.3501251,6.04961983 12.369958,6.0543881 12.2674403,7.96527119" id="Fill-47" fill="#1E1E1C" mask="url(#mask-6)"></path>
                    </g>
                    <path d="M166.109264,28.0906967 C198.950705,22.6477196 231.793337,17.2035505 264.634778,11.7605735 C269.378012,10.9750015 274.121246,10.1882374 278.864479,9.40266534 C280.751521,9.08915177 279.951644,6.21746284 278.071755,6.52859228 C245.230314,11.9715693 212.388874,17.4145463 179.546241,22.8587154 C174.803008,23.6442875 170.059774,24.4310516 165.31654,25.2166236 C163.429498,25.5301372 164.230567,28.4018261 166.109264,28.0906967" id="Fill-50" fill="#1E1E1C"></path>
                    <path d="M403.653609,25.2163852 C370.69773,19.7638716 337.743043,14.310166 304.787164,8.8576524 C300.095189,8.08042484 295.404406,7.30438935 290.713623,6.52835386 C288.83731,6.21722443 288.030281,9.08891336 289.920899,9.40242693 C322.875586,14.8549405 355.832657,20.3086461 388.787344,25.7623518 C393.479319,26.5371952 398.170101,27.3144228 402.862076,28.0904582 C404.737197,28.4003956 405.544227,25.5298987 403.653609,25.2163852" id="Fill-52" fill="#1E1E1C"></path>
                </g>
            </g>
        </g>
    </g>
</svg>