<?xml version="1.0" encoding="UTF-8" standalone="no"?>
<svg width="335px" height="55px" viewBox="0 0 335 55" version="1.1" xmlns="http://www.w3.org/2000/svg" xmlns:xlink="http://www.w3.org/1999/xlink">
    <!-- Generator: Sketch 47.1 (45422) - http://www.bohemiancoding.com/sketch -->
    <title>arrow-start</title>
    <desc>Created with Sketch.</desc>
    <defs></defs>
    <g id="Page-1" stroke="none" stroke-width="1" fill="none" fill-rule="evenodd">
        <g id="arrow-start" transform="translate(0.000000, -0.160000)">
            <path d="M139.2119,13.5212 C109.2619,13.5182 79.3129,13.5152 49.3639,13.5122 L36.5629,13.5112 C34.4709,13.5112 34.4679,16.7612 36.5629,16.7612 C66.5119,16.7642 96.4619,16.7672 126.4109,16.7702 C130.6779,16.7712 134.9449,16.7712 139.2119,16.7712 C141.3029,16.7712 141.3069,13.5212 139.2119,13.5212" id="Fill-2412" fill="#000000"></path>
            <path d="M333,2.4939 L14.9387774,2.4009 C14.0626128,2.1729 13.0867003,2.1879 12.2914124,2.5819 C10.7884532,3.3259 9.92037627,4.2939 8.89593768,5.3649 C9.23831584,5.0079 8.56838692,5.5569 8.5292965,5.5829 C8.42685264,5.6469 8.35945536,5.6919 8.31362522,5.7219 C8.25701151,5.7479 8.17478683,5.7879 8.02516488,5.8639 C7.81488538,5.9709 7.59517026,6.0649 7.37815103,6.1639 C4.39245173,5.8089 2.76817739,8.5049 4.18756401,10.1159 C4.63373397,10.8959 5.57999172,11.5059 7.07081946,11.5389 C9.24775146,12.1389 10.8302395,13.0109 12.2698453,14.1109 C12.7011879,14.4409 13.1716208,14.6439 13.6501415,14.7619 L13.6663168,15.0809 L333,15.1359 L333,2.4939 Z" id="arrow-fill" fill="#E20613"></path>
            <path d="M331.881845,0.8127 C295.665208,0.8087 259.449921,0.8047 223.234635,0.7997 C165.772507,0.7927 108.310379,0.7867 50.8482505,0.7797 C37.6132218,0.7777 24.378193,0.7767 11.1445154,0.7747 C8.31808824,0.7747 8.31403504,4.0247 11.1445154,4.0247 C47.3598017,4.0297 83.5750881,4.0337 119.791726,4.0377 C177.253854,4.0447 234.715982,4.0517 292.176759,4.0587 L331.881845,4.0627 C334.708272,4.0627 334.712326,0.8127 331.881845,0.8127" id="Fill-2418" fill="#000000"></path>
            <path d="M332.369869,13.4934 C296.202143,13.4894 260.033064,13.4854 223.865339,13.4804 C166.271806,13.4734 108.678274,13.4674 51.0833885,13.4604 C37.9362883,13.4584 24.789188,13.4574 11.640734,13.4554 C8.80986318,13.4554 8.80444783,16.7054 11.640734,16.7054 C47.8084595,16.7104 83.9761849,16.7144 120.145264,16.7184 C177.738796,16.7254 235.332328,16.7324 292.92586,16.7394 C306.074315,16.7404 319.222769,16.7424 332.369869,16.7434 C335.202093,16.7434 335.206155,13.4934 332.369869,13.4934" id="Fill-2420" fill="#000000"></path>
            <path d="M27.7563,13.488 C21.6963,13.379 21.1913,4.589 27.3023,4.04 C29.3683,3.855 29.3883,0.603 27.3023,0.79 C22.9713,1.179 19.4483,4.463 19.5553,8.991 C19.6603,13.472 23.4423,16.66 27.7563,16.738 C29.8483,16.776 29.8483,13.526 27.7563,13.488" id="Fill-2422" fill="#000000"></path>
            <path d="M1.7363,10.2629 C4.5663,12.3419 7.3973,14.4219 10.2273,16.5009 C11.9143,17.7409 13.5373,14.9219 11.8673,13.6949 C9.0373,11.6159 6.2073,9.5359 3.3773,7.4569 C1.6893,6.2169 0.0673,9.0359 1.7363,10.2629" id="Fill-2424" fill="#000000"></path>
            <path d="M9.4438,1.2512 C6.7648,3.4042 4.0868,5.5572 1.4078,7.7102 C-0.2232,9.0212 2.0898,11.3082 3.7058,10.0092 L11.7418,3.5492 C13.3718,2.2392 11.0598,-0.0478 9.4438,1.2512" id="Fill-2426" fill="#000000"></path>
            <path d="M160.8369,53.719 L104.7969,53.713" id="Fill-2430" fill="#000000"></path>
            <path d="M160.8369,52.469 C142.1559,52.467 123.4769,52.465 104.7969,52.463 C103.1889,52.463 103.1859,54.963 104.7969,54.963 C123.4769,54.965 142.1559,54.967 160.8369,54.969 C162.4449,54.969 162.4469,52.469 160.8369,52.469" id="Fill-2432" fill="#1D1D1B"></path>
            <path d="M248.503439,46.8118 L92.3715781,46.7608 C91.9425178,46.6368 91.4625522,46.6448 91.0722771,46.8598 C90.3341481,47.2658 89.9087239,47.7948 89.4057296,48.3788 C89.5729904,48.1848 89.244529,48.4838 89.2251365,48.4978 C89.1754431,48.5328 89.1415061,48.5578 89.1196895,48.5738 C89.0918127,48.5878 89.0518156,48.6098 88.9778815,48.6518 C88.8748585,48.7098 88.7669874,48.7618 88.6603284,48.8148 C87.1949787,48.6218 86.39746,50.0928 87.0943798,50.9728 C87.312546,51.3988 87.7779673,51.7318 88.5100361,51.7498 C88.5694258,51.7508 88.6215433,51.7428 88.6785089,51.7398 C89.5778385,52.0768 90.3547526,52.5538 91.0625808,53.1538 C91.2734748,53.3338 91.5037614,53.4448 91.738896,53.5088 L91.7473803,53.6838 L248.503439,53.7128 L248.503439,46.8118 Z" id="Fill-2434" fill="#000000"></path>
            <path d="M248.503439,46.8118 L92.3715781,46.7608 C91.9425178,46.6368 91.4625522,46.6448 91.0722771,46.8598 C90.3341481,47.2658 89.9087239,47.7948 89.4057296,48.3788 C89.5729904,48.1848 89.244529,48.4838 89.2251365,48.4978 C89.1754431,48.5328 89.1415061,48.5578 89.1196895,48.5738 C89.0918127,48.5878 89.0518156,48.6098 88.9778815,48.6518 C88.8748585,48.7098 88.7669874,48.7618 88.6603284,48.8148 C87.1949787,48.6218 86.39746,50.0928 87.0943798,50.9728 C87.312546,51.3988 87.7779673,51.7318 88.5100361,51.7498 C88.5694258,51.7508 88.6215433,51.7428 88.6785089,51.7398 C89.5778385,52.0768 90.3547526,52.5538 91.0625808,53.1538 C91.2734748,53.3338 91.5037614,53.4448 91.738896,53.5088 L91.7473803,53.6838 L248.503439,53.7128 L248.503439,46.8118 Z" id="Stroke-2436" stroke="#1D1D1B" stroke-width="0.5"></path>
            <path d="M248.503439,46.781 L91.421343,46.76" id="Fill-2438" fill="#000000"></path>
            <path d="M248.503439,45.531 C202.658234,45.525 156.813028,45.519 110.966611,45.513 C104.451926,45.512 97.9360285,45.511 91.421343,45.51 C89.4723915,45.51 89.4687554,48.01 91.421343,48.01 C137.266548,48.016 183.111753,48.023 228.956958,48.029 C235.471644,48.03 241.987541,48.03 248.503439,48.031 C250.45239,48.031 250.456026,45.531 248.503439,45.531" id="Fill-2440" fill="#1D1D1B"></path>
            <path d="M248.503439,53.7039 L91.7473803,53.6829" id="Fill-2442" fill="#000000"></path>
            <path d="M248.503439,52.4539 C202.814586,52.4479 157.124521,52.4419 111.436881,52.4359 C104.873714,52.4349 98.3105471,52.4339 91.7473803,52.4329 C89.7972168,52.4329 89.7947927,54.9329 91.7473803,54.9329 C137.436233,54.9389 183.125085,54.9449 228.813938,54.9519 C235.377105,54.9519 241.940272,54.9529 248.503439,54.9539 C250.45239,54.9539 250.456026,52.4539 248.503439,52.4539" id="Fill-2444" fill="#1D1D1B"></path>
            <path d="M99.9897,53.7009 C98.0747,53.7689 96.4687,52.2729 96.3997,50.3589 C96.3307,48.4449 97.8277,46.8369 99.7417,46.7689" id="Fill-2446" fill="#000000"></path>
            <path d="M99.9897,52.4509 C97.1557,52.3999 96.8637,48.2769 99.7417,48.0189 C101.3317,47.8759 101.3457,45.3749 99.7417,45.5189 C97.1797,45.7489 95.0947,47.6779 95.1497,50.3589 C95.2037,53.0039 97.4417,54.9049 99.9897,54.9509 C101.5987,54.9799 101.5987,52.4799 99.9897,52.4509" id="Fill-2448" fill="#1D1D1B"></path>
            <path d="M86.2324,50.2869 L90.8674,53.6929" id="Fill-2450" fill="#000000"></path>
            <path d="M85.6016,51.3665 C87.1466,52.5015 88.6916,53.6365 90.2366,54.7715 C91.5346,55.7255 92.7836,53.5565 91.4986,52.6135 C89.9536,51.4775 88.4086,50.3435 86.8636,49.2075 C85.5656,48.2545 84.3176,50.4225 85.6016,51.3665" id="Fill-2452" fill="#1D1D1B"></path>
            <path d="M90.6196,46.7605 L86.2326,50.2865" id="Fill-2454" fill="#000000"></path>
            <path d="M89.7358,45.8767 C88.2738,47.0517 86.8108,48.2277 85.3488,49.4027 C84.8188,49.8297 84.9128,50.7257 85.3488,51.1707 C85.8628,51.6967 86.5928,51.5917 87.1158,51.1707 C88.5788,49.9957 90.0408,48.8197 91.5038,47.6447 C92.0338,47.2177 91.9398,46.3217 91.5038,45.8767 C90.9888,45.3507 90.2588,45.4557 89.7358,45.8767" id="Fill-2456" fill="#1D1D1B"></path>
            <rect id="Rectangle" fill="#000000" x="231" y="45.4600031" width="101" height="9.5"></rect>
        </g>
    </g>
</svg>