<?xml version="1.0" encoding="UTF-8" standalone="no"?>
<svg width="310px" height="310px" viewBox="0 0 310 310" version="1.1" xmlns="http://www.w3.org/2000/svg" xmlns:xlink="http://www.w3.org/1999/xlink">
    <!-- Generator: Sketch 47.1 (45422) - http://www.bohemiancoding.com/sketch -->
    <title>Slice</title>
    <desc>Created with Sketch.</desc>
    <defs></defs>
    <g id="Page-1" stroke="none" stroke-width="1" fill="none" fill-rule="evenodd">
        <g id="Group" transform="translate(-3.000000, 138.000000)">
            <polygon id="Fill-6052" fill="#FFDC00" points="2 14 316 14 316 1 2 1"></polygon>
            <polygon id="Stroke-6054" stroke="#000000" stroke-width="0.65" points="2 14 316 14 316 1 2 1"></polygon>
            <path d="M315.399319,0.0346715328 L209.130857,0.022810219 C152.765694,0.0164233577 96.399511,0.0109489051 40.0343477,0.0045620438 C27.2238052,0.00273722628 14.4112233,0.000912408759 1.60068086,0 C-0.531520392,0 -0.535599208,2.96532847 1.60068086,2.96532847 C37.0231616,2.9689781 72.4456423,2.97354015 107.868123,2.97718978 L276.965652,2.99543796 C289.776195,2.99726277 302.587757,2.99817518 315.399319,3 C317.53152,3 317.535599,0.0346715328 315.399319,0.0346715328" id="Fill-6055" fill="#000000"></path>
            <path d="M315.399319,12.0346715 C279.976838,12.0310219 244.553338,12.0273723 209.130857,12.0228102 L40.0343477,12.004562 C27.2238052,12.0027372 14.4112233,12.0018248 1.60068086,12 C-0.531520392,12 -0.535599208,14.9653285 1.60068086,14.9653285 C37.0231616,14.9698905 72.4456423,14.9735401 107.868123,14.9771898 L276.965652,14.9963504 C289.776195,14.9972628 302.587757,14.9990876 315.399319,15 C317.53152,15 317.535599,12.0346715 315.399319,12.0346715" id="Fill-6056" fill="#000000"></path>
            <path d="M315.399333,20 L209.130681,20 L40.0352657,20 L1.59990204,20 C-0.531771228,20 -0.534829582,23 1.59990204,23 L107.868555,23 L276.964989,23 L315.399333,23 C317.532026,23 317.535084,20 315.399333,20" id="Fill-6057" fill="#000000"></path>
            <path d="M1.02647724,13 C1.01731204,13.8787684 1,14.7624133 1,15.1515683 C1,17.876628 1.66498607,19.0626239 1,21.4668015 C28.1371344,21.3946274 233.212524,21.0210777 260.350677,21.0152257 C261.477996,21.0152257 262.341562,20.6348487 262.972942,20.0594066 C264.982157,20.0798885 266.992391,20.0925677 269.001606,20.0954937 C271.423255,20.0984197 273.843886,20.0584313 276.263498,20.0057637 C276.758419,20.2310639 277.33379,20.3656589 278.001831,20.3656589 C284.154734,20.3656589 290.366702,20.1110989 296.502293,20.6036383 C301.389381,20.9966945 301.381234,22.8478625 306.173614,21.5380002 C307.657358,21.1332401 314.140208,22.5611168 314.46099,21.4668015 C315.637191,20.135482 314.667717,14.4025182 313.653435,13 L1.02647724,13 Z" id="Fill-6058" fill="#000000"></path>
        </g>
    </g>
</svg>