<?xml version="1.0" encoding="UTF-8" standalone="no"?>
<svg width="385px" height="120px" viewBox="0 0 385 120" version="1.1" xmlns="http://www.w3.org/2000/svg" xmlns:xlink="http://www.w3.org/1999/xlink">
    <!-- Generator: Sketch 47.1 (45422) - http://www.bohemiancoding.com/sketch -->
    <title>arrow-end</title>
    <desc>Created with Sketch.</desc>
    <defs></defs>
    <g id="Page-1" stroke="none" stroke-width="1" fill="none" fill-rule="evenodd">
        <g id="arrow-end">
            <path d="M139.459,57.6125 C156.417,54.4265 173.498,52.2015 190.592,49.8935 C203.039,48.2135 216.136,45.1545 228.558,48.5445 C240.609,51.8335 246.584,62.2215 247.829,74.0995 C248.045,76.1595 251.297,76.1805 251.079,74.0995 C250.038,64.1715 246.22,54.3725 237.466,48.8185 C226.993,42.1745 213.585,43.4845 201.918,45.0935 C180.774,48.0105 159.58,50.5365 138.595,54.4785 C136.542,54.8645 137.411,57.9975 139.459,57.6125" id="Fill-13484" fill="#000000"></path>
            <path d="M247.8291,74.0998 L248.0021,77.8268 C248.1001,79.9098 251.3501,79.9208 251.2521,77.8268 L251.0791,74.0998 C250.9811,72.0178 247.7311,72.0048 247.8291,74.0998" id="Fill-13486" fill="#000000"></path>
            <path d="M260.8135,90.1604 C265.7055,89.3404 265.7065,78.0424 260.8145,77.2214 C258.7685,76.8764 257.8885,80.0084 259.9505,80.3544 C261.5945,80.6304 261.5925,86.7514 259.9495,87.0264 C257.8915,87.3724 258.7635,90.5044 260.8135,90.1604" id="Fill-13488" fill="#000000"></path>
            <path d="M109.832,88.6828 C121.206,86.5508 132.654,85.0298 144.119,83.4858 C152.364,82.3758 161.098,80.2808 169.416,81.8708 C178.714,83.6468 183.607,90.5188 184.637,99.6828 C184.867,101.7378 188.12,101.7608 187.887,99.6828 C187.116,92.8158 184.646,86.0888 178.729,82.0328 C171.914,77.3588 162.82,77.7068 155.009,78.7458 C139.635,80.7918 124.217,82.6898 108.968,85.5488 C106.915,85.9338 107.784,89.0678 109.832,88.6828" id="Fill-13490" fill="#000000"></path>
            <path d="M184.6367,99.6828 C184.6767,100.5468 184.7177,101.4118 184.7577,102.2768 C184.7967,103.1238 185.4767,103.9428 186.3827,103.9018 C187.2297,103.8638 188.0497,103.1858 188.0077,102.2768 C187.9677,101.4118 187.9267,100.5468 187.8867,99.6828 C187.8477,98.8348 187.1677,98.0168 186.2617,98.0578 C185.4147,98.0958 184.5947,98.7728 184.6367,99.6828" id="Fill-13492" fill="#000000"></path>
            <path d="M194.2998,111.3381 C198.1818,110.6871 198.1828,102.0301 194.3008,101.3781 C192.2548,101.0341 191.3748,104.1661 193.4368,104.5121 C194.0378,104.6131 194.0288,108.1051 193.4358,108.2041 C191.3778,108.5491 192.2508,111.6821 194.2998,111.3381" id="Fill-13494" fill="#000000"></path>
            <path d="M277.2256,79.8303 L277.2286,79.7153 L276.9136,79.7153 C276.5436,79.6083 276.2096,79.6203 275.9176,79.7153 L267.1906,79.7133 C267.2306,79.4463 267.2586,79.1773 267.2616,78.9013 C267.2766,77.1763 267.1176,75.4463 266.8456,73.7403 C266.9626,72.9213 266.9456,72.0603 266.8366,71.1663 C266.7636,70.5673 266.5196,69.9963 266.1946,69.4653 C266.0476,67.6443 265.3686,65.8983 264.3316,64.3923 C264.0706,64.0103 263.7976,63.6363 263.5226,63.2643 C263.4166,62.9963 263.2956,62.7313 263.1456,62.4763 C262.4986,61.3903 261.9326,60.3743 261.1146,59.3713 C261.1106,59.3673 261.1066,59.3633 261.1026,59.3583 C259.8166,56.8173 257.5286,55.1193 254.9736,53.7873 C254.2746,53.0893 253.4096,52.5423 252.4166,52.2263 C251.8666,52.0523 251.3086,51.9493 250.7466,51.8863 C250.1446,51.6403 249.5466,51.3983 248.9656,51.1583 C245.5166,49.7293 241.1836,49.7573 237.5116,49.6763 C234.8936,49.6173 232.0036,49.6063 229.3516,50.1373 C229.3206,50.1383 229.2916,50.1353 229.2606,50.1363 C225.5626,50.2843 221.8176,50.5993 218.3006,51.7783 C217.9386,51.7093 217.5626,51.6583 217.1586,51.6463 C215.8436,51.6063 214.7356,51.9063 213.8296,52.4313 C213.3816,52.4503 212.9426,52.4763 212.5226,52.5233 C210.4076,52.7653 208.2916,53.2143 206.1786,53.5043 C203.3906,53.8873 200.5116,54.3333 197.6366,54.8853 C194.0756,55.2163 190.5046,55.5013 186.9606,56.0213 C184.0216,56.4523 181.0486,56.6163 178.0936,56.9273 C175.6386,57.1843 173.3576,58.4603 170.9436,58.6883 C170.0876,58.7693 169.2616,58.9583 168.5006,59.2523 C168.0976,59.2643 167.6856,59.2993 167.2516,59.3903 C161.4006,60.6083 155.7586,62.0423 149.8086,62.7863 C143.9466,63.5193 139.6796,66.6073 134.6576,69.3513 C133.3156,70.0833 132.4386,71.0693 131.9466,72.1633 C131.5706,72.6273 131.2376,73.1283 130.9486,73.6843 C129.8166,75.0833 128.8316,76.4973 128.2046,78.3193 C128.0496,78.7693 127.9616,79.2273 127.9246,79.6853 L97.5286,79.6823 L97.6056,88.4653 L128.0956,88.4673 C129.1966,91.6753 130.7466,94.8313 133.3676,97.0033 C135.3856,98.6773 137.3106,100.2723 139.7546,101.2853 C141.2786,101.9163 142.9826,102.2303 144.2956,103.1483 C145.2026,103.7823 146.1076,104.1253 146.9796,104.2473 C148.1726,104.6643 149.4196,104.9493 150.6576,105.1753 C153.9116,105.7683 157.1286,106.4773 160.3896,107.0533 C163.7526,107.6463 167.2486,107.8953 170.5736,108.5973 C173.6436,109.2433 176.5696,110.1953 179.7296,110.3343 C180.3426,110.5673 181.0296,110.7143 181.7896,110.7543 C188.5276,111.1063 195.3296,113.0463 202.0066,114.0513 C205.3516,114.5543 208.7386,114.7673 212.1076,115.0283 C214.6686,115.2263 217.3756,115.1473 219.7466,116.2313 C220.5706,116.6083 221.4426,116.6983 222.2986,116.5803 C222.5266,116.6683 222.7606,116.7443 223.0066,116.7973 C229.9516,118.3073 237.0876,117.9073 244.1356,117.4203 C244.9476,117.3633 245.6796,117.1843 246.3396,116.9173 C246.7356,116.9053 247.1326,116.8493 247.5286,116.7493 C248.0846,116.6983 248.6446,116.6013 249.2046,116.4123 C249.9656,116.1563 250.6686,115.7953 251.2926,115.3513 C251.6626,115.1863 252.0306,115.0203 252.3976,114.8543 C251.2736,115.3613 254.1216,114.1733 254.3686,114.0743 C255.2636,113.7173 256.0836,113.2553 256.8836,112.7223 C260.0676,110.5983 262.1966,107.5873 263.7046,104.1213 C263.7456,104.0263 263.7716,103.9303 263.8056,103.8353 C266.3636,99.4643 267.2176,94.8453 267.2896,89.6713 C267.2956,89.2533 267.2606,88.8603 267.2026,88.4833 L276.9656,88.4843 L276.9706,88.3193 C277.5706,88.2453 278.1416,87.9003 278.4216,87.1943 C279.3506,84.8513 280.1816,80.9873 277.2256,79.8303" id="Fill-13496" fill="#000000"></path>
            <path d="M277.2256,79.8303 L277.2286,79.7153 L276.9136,79.7153 C276.5436,79.6083 276.2096,79.6203 275.9176,79.7153 L267.1906,79.7133 C267.2306,79.4463 267.2586,79.1773 267.2616,78.9013 C267.2766,77.1763 267.1176,75.4463 266.8456,73.7403 C266.9626,72.9213 266.9456,72.0603 266.8366,71.1663 C266.7636,70.5673 266.5196,69.9963 266.1946,69.4653 C266.0476,67.6443 265.3686,65.8983 264.3316,64.3923 C264.0706,64.0103 263.7976,63.6363 263.5226,63.2643 C263.4166,62.9963 263.2956,62.7313 263.1456,62.4763 C262.4986,61.3903 261.9326,60.3743 261.1146,59.3713 C261.1106,59.3673 261.1066,59.3633 261.1026,59.3583 C259.8166,56.8173 257.5286,55.1193 254.9736,53.7873 C254.2746,53.0893 253.4096,52.5423 252.4166,52.2263 C251.8666,52.0523 251.3086,51.9493 250.7466,51.8863 C250.1446,51.6403 249.5466,51.3983 248.9656,51.1583 C245.5166,49.7293 241.1836,49.7573 237.5116,49.6763 C234.8936,49.6173 232.0036,49.6063 229.3516,50.1373 C229.3206,50.1383 229.2916,50.1353 229.2606,50.1363 C225.5626,50.2843 221.8176,50.5993 218.3006,51.7783 C217.9386,51.7093 217.5626,51.6583 217.1586,51.6463 C215.8436,51.6063 214.7356,51.9063 213.8296,52.4313 C213.3816,52.4503 212.9426,52.4763 212.5226,52.5233 C210.4076,52.7653 208.2916,53.2143 206.1786,53.5043 C203.3906,53.8873 200.5116,54.3333 197.6366,54.8853 C194.0756,55.2163 190.5046,55.5013 186.9606,56.0213 C184.0216,56.4523 181.0486,56.6163 178.0936,56.9273 C175.6386,57.1843 173.3576,58.4603 170.9436,58.6883 C170.0876,58.7693 169.2616,58.9583 168.5006,59.2523 C168.0976,59.2643 167.6856,59.2993 167.2516,59.3903 C161.4006,60.6083 155.7586,62.0423 149.8086,62.7863 C143.9466,63.5193 139.6796,66.6073 134.6576,69.3513 C133.3156,70.0833 132.4386,71.0693 131.9466,72.1633 C131.5706,72.6273 131.2376,73.1283 130.9486,73.6843 C129.8166,75.0833 128.8316,76.4973 128.2046,78.3193 C128.0496,78.7693 127.9616,79.2273 127.9246,79.6853 L97.5286,79.6823 L97.6056,88.4653 L128.0956,88.4673 C129.1966,91.6753 130.7466,94.8313 133.3676,97.0033 C135.3856,98.6773 137.3106,100.2723 139.7546,101.2853 C141.2786,101.9163 142.9826,102.2303 144.2956,103.1483 C145.2026,103.7823 146.1076,104.1253 146.9796,104.2473 C148.1726,104.6643 149.4196,104.9493 150.6576,105.1753 C153.9116,105.7683 157.1286,106.4773 160.3896,107.0533 C163.7526,107.6463 167.2486,107.8953 170.5736,108.5973 C173.6436,109.2433 176.5696,110.1953 179.7296,110.3343 C180.3426,110.5673 181.0296,110.7143 181.7896,110.7543 C188.5276,111.1063 195.3296,113.0463 202.0066,114.0513 C205.3516,114.5543 208.7386,114.7673 212.1076,115.0283 C214.6686,115.2263 217.3756,115.1473 219.7466,116.2313 C220.5706,116.6083 221.4426,116.6983 222.2986,116.5803 C222.5266,116.6683 222.7606,116.7443 223.0066,116.7973 C229.9516,118.3073 237.0876,117.9073 244.1356,117.4203 C244.9476,117.3633 245.6796,117.1843 246.3396,116.9173 C246.7356,116.9053 247.1326,116.8493 247.5286,116.7493 C248.0846,116.6983 248.6446,116.6013 249.2046,116.4123 C249.9656,116.1563 250.6686,115.7953 251.2926,115.3513 C251.6626,115.1863 252.0306,115.0203 252.3976,114.8543 C251.2736,115.3613 254.1216,114.1733 254.3686,114.0743 C255.2636,113.7173 256.0836,113.2553 256.8836,112.7223 C260.0676,110.5983 262.1966,107.5873 263.7046,104.1213 C263.7456,104.0263 263.7716,103.9303 263.8056,103.8353 C266.3636,99.4643 267.2176,94.8453 267.2896,89.6713 C267.2956,89.2533 267.2606,88.8603 267.2026,88.4833 L276.9656,88.4843 L276.9706,88.3193 C277.5706,88.2453 278.1416,87.9003 278.4216,87.1943 C279.3506,84.8513 280.1816,80.9873 277.2256,79.8303 Z" id="Stroke-13498" stroke="#000000" stroke-width="0.65"></path>
            <path d="M129.5508,79.5656 C134.0488,64.9876 153.2908,63.7016 165.9518,61.2686 C175.7848,59.3786 185.6558,57.7686 195.5748,56.3976 C208.5808,54.5986 221.9058,51.8906 235.0188,51.3446 C242.4528,51.0356 250.8798,51.9486 256.8218,56.8626 C262.3798,61.4606 264.7828,68.4986 265.5238,75.4626 C265.7408,77.5206 268.9938,77.5436 268.7738,75.4626 C267.7518,65.8456 263.7668,56.2656 254.7458,51.6246 C243.6078,45.8926 230.5778,48.4036 218.7848,50.0136 C197.5988,52.9086 176.5188,55.7786 155.5478,60.0216 C143.6298,62.4336 130.4288,65.6966 126.4158,78.7026 C125.7988,80.7056 128.9348,81.5616 129.5508,79.5656" id="Fill-13500" fill="#000000"></path>
            <path d="M276.5059,78.0334 C256.3329,78.0314 236.1599,78.0284 215.9859,78.0264 C183.8519,78.0234 151.7169,78.0194 119.5809,78.0164 C112.2309,78.0154 104.8789,78.0144 97.5279,78.0134 C95.4379,78.0134 95.4339,81.2634 97.5279,81.2634 C117.7009,81.2654 137.8749,81.2684 158.0479,81.2704 C190.1829,81.2734 222.3179,81.2774 254.4529,81.2814 C261.8039,81.2814 269.1549,81.2824 276.5059,81.2834 C278.5979,81.2834 278.6009,78.0334 276.5059,78.0334" id="Fill-13502" fill="#000000"></path>
            <path d="M276.9658,86.8596 C256.7148,86.8576 236.4638,86.8556 216.2128,86.8526 C184.1078,86.8496 152.0028,86.8456 119.8988,86.8426 C112.4678,86.8416 105.0358,86.8406 97.6058,86.8396 C95.5148,86.8396 95.5108,90.0896 97.6058,90.0896 C117.8568,90.0926 138.1078,90.0946 158.3588,90.0966 C190.4638,90.1006 222.5688,90.1036 254.6728,90.1076 C262.1048,90.1076 269.5348,90.1086 276.9658,90.1096 C279.0578,90.1096 279.0608,86.8596 276.9658,86.8596" id="Fill-13504" fill="#000000"></path>
            <path d="M265.5234,75.4631 L265.6784,78.8121 C265.7194,79.6881 266.3964,80.4371 267.3034,80.4371 C268.1524,80.4371 268.9694,79.6921 268.9284,78.8121 L268.7734,75.4631 C268.7324,74.5861 268.0554,73.8381 267.1484,73.8381 C266.2994,73.8381 265.4824,74.5821 265.5234,75.4631" id="Fill-13506" fill="#000000"></path>
            <path d="M126.415,88.8987 C129.817,99.9357 139.923,104.0527 150.334,106.5047 C160.913,108.9967 171.731,110.8487 182.465,112.5527 C192.627,114.1667 202.839,115.4497 213.035,116.8277 C225.586,118.5237 239.12,121.7767 251.482,117.3907 C262.45,113.5017 267.601,103.1697 268.771,92.1707 C268.992,90.0937 265.74,90.1097 265.521,92.1707 C264.779,99.1417 262.376,106.1657 256.814,110.7687 C250.878,115.6837 242.442,116.6037 235.011,116.2817 C221.894,115.7117 208.58,113.0217 195.568,111.2197 C185.65,109.8457 175.778,108.2337 165.946,106.3407 C153.284,103.9047 134.045,102.6187 129.549,88.0357 C128.935,86.0427 125.797,86.8927 126.415,88.8987" id="Fill-13508" fill="#000000"></path>
            <path d="M268.7715,92.1711 C268.8235,91.0551 268.8755,89.9391 268.9275,88.8221 C268.9685,87.9451 268.1515,87.1971 267.3025,87.1971 C266.3885,87.1971 265.7185,87.9421 265.6775,88.8221 C265.6255,89.9391 265.5735,91.0551 265.5215,92.1711 C265.4805,93.0491 266.2975,93.7961 267.1465,93.7961 C268.0605,93.7961 268.7295,93.0511 268.7715,92.1711" id="Fill-13510" fill="#000000"></path>
            <path d="M277.3984,90.052 C281.9534,89.287 281.9534,78.872 277.3994,78.108 C275.3534,77.764 274.4734,80.895 276.5354,81.241 C277.8394,81.46 277.8394,86.698 276.5344,86.918 C274.4754,87.263 275.3484,90.396 277.3984,90.052" id="Fill-13512" fill="#000000"></path>
            <path d="M378.2626,45.4123 L365.7236,45.4103 C365.7816,45.0273 365.8226,44.6403 365.8256,44.2433 C365.8476,41.7643 365.6186,39.2803 365.2276,36.8283 C365.3966,35.6523 365.3716,34.4153 365.2156,33.1303 C365.1116,32.2703 364.7586,31.4493 364.2926,30.6863 C364.0816,28.0703 363.1046,25.5623 361.6166,23.3963 C361.2406,22.8493 360.8486,22.3123 360.4536,21.7773 C360.3016,21.3923 360.1286,21.0133 359.9116,20.6463 C358.9836,19.0843 358.1686,17.6253 356.9946,16.1853 C355.1296,12.5153 351.8416,10.0753 348.1706,8.1613 C347.1666,7.1593 345.9236,6.3733 344.4976,5.9203 C343.7066,5.6693 342.9066,5.5223 342.0996,5.4323 C341.2336,5.0773 340.3756,4.7303 339.5406,4.3853 C334.5836,2.3333 328.3596,2.3713 323.0836,2.2553 C319.3226,2.1723 315.1706,2.1563 311.3616,2.9183 C305.9156,3.1293 300.5366,3.5823 295.4846,5.2763 C294.9636,5.1773 294.4226,5.1033 293.8426,5.0863 C291.9536,5.0303 290.3616,5.4603 289.0596,6.2143 C288.4166,6.2423 287.7866,6.2783 287.1826,6.3473 C284.1436,6.6933 281.1046,7.3393 278.0686,7.7563 C274.0626,8.3063 269.9266,8.9463 265.7966,9.7393 C260.6796,10.2153 255.5496,10.6253 250.4576,11.3723 C246.2356,11.9913 241.9636,12.2253 237.7186,12.6733 C234.1916,13.0433 230.9126,14.8763 227.4456,15.2053 C226.2166,15.3213 225.0296,15.5913 223.9366,16.0143 C223.3586,16.0303 222.7646,16.0813 222.1416,16.2113 C213.7366,17.9633 205.6306,20.0213 197.0816,21.0913 C188.6606,22.1443 182.5306,26.5803 175.3136,30.5223 C173.3856,31.5743 172.1256,32.9923 171.4186,34.5623 C170.8786,35.2293 170.4006,35.9483 169.9846,36.7473 C168.3586,38.7583 166.9456,40.7893 166.0436,43.4083 C165.8216,44.0553 165.6956,44.7133 165.6416,45.3693 L1.29316292,45.5783 L1.29316292,57.7743 L165.8866,57.9863 C167.4676,62.5953 169.6966,67.1293 173.4606,70.2513 C176.3606,72.6553 179.1256,74.9473 182.6376,76.4023 C184.8266,77.3083 187.2746,77.7603 189.1616,79.0793 C190.4636,79.9893 191.7636,80.4823 193.0166,80.6573 C194.7316,81.2573 196.5226,81.6663 198.3006,81.9903 C202.9756,82.8433 207.5986,83.8623 212.2836,84.6883 C217.1156,85.5413 222.1376,85.8993 226.9136,86.9063 C231.3256,87.8363 235.5296,89.2043 240.0696,89.4023 C240.9496,89.7383 241.9366,89.9493 243.0306,90.0063 C252.7086,90.5123 262.4816,93.2993 272.0746,94.7423 C276.8796,95.4653 281.7446,95.7703 286.5856,96.1463 C290.2666,96.4323 294.1556,96.3183 297.5596,97.8753 C298.7446,98.4173 299.9966,98.5463 301.2276,98.3773 C301.5546,98.5033 301.8916,98.6123 302.2446,98.6883 C312.2216,100.8573 322.4746,100.2823 332.6006,99.5833 C333.7676,99.5023 334.8196,99.2453 335.7666,98.8603 C336.3346,98.8433 336.9066,98.7623 337.4746,98.6203 C338.2756,98.5463 339.0776,98.4063 339.8836,98.1353 C340.9776,97.7673 341.9876,97.2483 342.8836,96.6093 C343.4136,96.3743 343.9426,96.1363 344.4706,95.8973 C342.8546,96.6263 346.9476,94.9173 347.3016,94.7753 C348.5876,94.2623 349.7666,93.5993 350.9146,92.8333 C355.4906,89.7813 358.5476,85.4563 360.7146,80.4763 C360.7746,80.3413 360.8116,80.2023 360.8616,80.0653 C364.5356,73.7853 365.7626,67.1493 365.8666,59.7173 C365.8746,59.1163 365.8246,58.5523 365.7406,58.0103 L379.7676,58.0123 C380.6366,57.6683 381.4566,57.1733 381.8596,56.1583 C383.1946,52.7933 384.3876,47.2403 380.1406,45.5783 C379.1616,45.2603 378.6816,45.2763 378.2626,45.4123 Z" id="arrow-fill" fill="#FEDC01"></path>
            <path d="M167.292,45.01 C172.204,28.23 190.351,24.191 205.427,21.131 C218.237,18.531 231.074,16.05 243.982,13.984 C255.999,12.059 268.067,10.483 280.129,8.868 C296.075,6.734 312.813,2.683 328.947,4.119 C338.26,4.949 347.528,7.706 354.077,14.682 C360.344,21.357 363.137,30.366 364.037,39.303 C364.245,41.364 367.498,41.386 367.287,39.303 C365.861,25.161 359.631,11.201 346.077,4.987 C329.286,-2.714 310.039,1.571 292.58,3.942 C263.624,7.872 234.826,11.883 206.169,17.672 C189.364,21.067 169.629,25.457 164.158,44.146 C163.57,46.157 166.705,47.016 167.292,45.01" id="Fill-13518" fill="#000000"></path>
            <path d="M379.1074,43.7063 C347.4094,43.7033 315.7114,43.6993 284.0124,43.6963 L132.4104,43.6823 C120.7954,43.6813 109.1814,43.6803 97.5674,43.6783 C95.4754,43.6783 95.4724,46.9283 97.5674,46.9283 C129.2644,46.9323 160.9624,46.9353 192.6614,46.9373 C243.1954,46.9423 293.7294,46.9473 344.2644,46.9523 C355.8784,46.9543 367.4934,46.9553 379.1074,46.9563 C381.1984,46.9563 381.2024,43.7063 379.1074,43.7063" id="Fill-13520" fill="#000000"></path>
            <path d="M379.7676,56.3869 C347.8016,56.3839 315.8366,56.3799 283.8716,56.3769 C233.3616,56.3719 182.8506,56.3669 132.3406,56.3629 C120.7496,56.3619 109.1586,56.3609 97.5666,56.3589 C95.4756,56.3589 95.4726,59.6089 97.5666,59.6089 C129.5326,59.6129 161.4976,59.6159 193.4636,59.6179 C243.9736,59.6229 294.4836,59.6279 344.9946,59.6329 C356.5846,59.6349 368.1766,59.6359 379.7676,59.6369 C381.8596,59.6369 381.8626,56.3869 379.7676,56.3869" id="Fill-13522" fill="#000000"></path>
            <path d="M364.0371,39.3029 C364.1121,40.9069 364.1861,42.5109 364.2621,44.1149 C364.3581,46.1969 367.6091,46.2079 367.5121,44.1149 C367.4361,42.5109 367.3621,40.9069 367.2871,39.3029 C367.1901,37.2209 363.9401,37.2089 364.0371,39.3029" id="Fill-13524" fill="#000000"></path>
            <path d="M164.1572,58.4182 C168.7662,74.1822 183.8522,79.9932 198.5192,83.3312 C213.4132,86.7202 228.5532,89.4102 243.6352,91.8172 C257.2962,93.9982 271.0212,95.7472 284.7302,97.5922 C302.8312,100.0282 322.2072,104.8362 340.2472,99.7192 C357.1492,94.9252 365.5962,80.0072 367.2852,63.3082 C367.4952,61.2302 364.2432,61.2432 364.0352,63.3082 C362.3972,79.5072 353.9322,93.0252 337.5322,97.0722 C320.3832,101.3042 301.9772,96.6622 284.8552,94.3592 C260.3292,91.0602 235.9332,87.5382 211.6552,82.6982 C195.0932,79.3972 172.8252,76.4792 167.2912,57.5552 C166.7052,55.5512 163.5672,56.4032 164.1572,58.4182" id="Fill-13526" fill="#000000"></path>
            <path d="M367.2852,63.3078 C367.3592,61.7038 367.4342,60.1008 367.5102,58.4968 C367.6072,56.4068 364.3572,56.4118 364.2602,58.4968 C364.1842,60.1008 364.1092,61.7038 364.0352,63.3078 C363.9362,65.3998 367.1872,65.3938 367.2852,63.3078" id="Fill-13528" fill="#000000"></path>
            <path d="M380.2002,59.5783 C386.0562,58.5963 386.0582,44.7713 380.2012,43.7873 C378.1552,43.4433 377.2762,46.5743 379.3372,46.9213 C381.9452,47.3593 381.9352,56.0093 379.3362,56.4443 C377.2772,56.7903 378.1502,59.9233 380.2002,59.5783" id="Fill-13530" fill="#000000"></path>
            <rect id="Rectangle" fill="#000000" x="0" y="78" width="101" height="12"></rect>
            <rect id="Rectangle-2" fill="#000000" x="0" y="56.5" width="103" height="3.0999999"></rect>
            <rect id="Rectangle-2" fill="#000000" x="0" y="43.7000122" width="103" height="3.0999999"></rect>
        </g>
    </g>
</svg>