<?xml version="1.0" encoding="UTF-8" standalone="no"?>
<svg width="174px" height="174px" viewBox="0 0 174 174" version="1.1" xmlns="http://www.w3.org/2000/svg" xmlns:xlink="http://www.w3.org/1999/xlink">
    <!-- Generator: Sketch 48.1 (47250) - http://www.bohemiancoding.com/sketch -->
    <title>blue-green-at-top</title>
    <desc>Created with Sketch.</desc>
    <defs></defs>
    <g id="Boxes" stroke="none" stroke-width="1" fill="none" fill-rule="evenodd">
        <g id="blue-green-at-top">
            <g id="Group-2" transform="translate(3.000000, 3.000000)">
                <path d="M170.848915,169.970906 L118.128386,169.970906 L34.2384212,169.970906 L15.1712094,169.970906 C14.1134094,169.970906 14.1113859,171.615024 15.1712094,171.615024 L67.8912329,171.615024 L151.781704,171.615024 L170.848915,171.615024 C171.906715,171.615024 171.908739,169.970906 170.848915,169.970906" id="Fill-15" fill="#000000"></path>
                <path d="M15.1710576,15.9374188 L67.8915871,15.9374188 L151.781552,15.9374188 L170.848764,15.9374188 C171.906564,15.9374188 171.908587,14.2933012 170.848764,14.2933012 L118.12874,14.2933012 L34.2382694,14.2933012 L15.1710576,14.2933012 C14.1132576,14.2933012 14.1112341,15.9374188 15.1710576,15.9374188" id="Fill-17" fill="#000000"></path>
                <polygon id="Fill-2495" fill="#006D3C" points="166.128021 166.460588 0.979691765 166.460588 15.1712094 170.771718 170.848915 170.771718"></polygon>
                <polygon id="Stroke-2496" stroke="#000000" stroke-width="0.65" points="166.128021 166.460588 0.979691765 166.460588 15.1712094 170.771718 170.848915 170.771718"></polygon>
                <polygon id="Fill-2497" fill="#1D1D1B" points="170.848915 15.1975659 166.128021 2.04867176 166.128021 166.460436 170.848915 170.772072"></polygon>
                <polygon id="Stroke-2498" stroke="#000000" stroke-width="0.65" points="170.848915 15.1975659 166.128021 2.04867176 166.128021 166.460436 170.848915 170.772072"></polygon>
                <path d="M15.3893965,169.979051 C16.4006553,170.286121 15.9671141,171.872568 14.95282,171.564486 C10.2218082,170.127274 5.49180824,168.690568 0.760796471,167.253356 C-0.249956471,166.94578 0.183078824,165.359839 1.19787882,165.667921 C5.92889059,167.105133 10.6588906,168.542345 15.3893965,169.979051 Z" id="Fill-2499" fill="#000000"></path>
                <path d="M171.430376,170.190509 C169.856576,168.753298 168.282776,167.316592 166.708976,165.87938 C165.929412,165.167098 164.762847,166.32658 165.546459,167.041898 C167.119753,168.479109 168.694059,169.916321 170.267353,171.353027 C171.047424,172.065309 172.213482,170.905827 171.430376,170.190509" id="Fill-2501" fill="#000000"></path>
                <polygon id="Fill-2503" fill="#0456AF" points="0.979894118 166.460588 166.125694 166.460588 166.125694 1.31428235 0.979894118 1.31428235"></polygon>
                <path d="M0.979641176,2.13654353 L56.9357941,2.13654353 L145.767218,2.13654353 L166.125441,2.13654353 C165.851759,1.86235529 165.577571,1.58867294 165.303382,1.31448471 L165.303382,57.2706376 L165.303382,146.102061 L165.303382,166.460791 C165.577571,166.186602 165.851759,165.912414 166.125441,165.638732 L110.169794,165.638732 L21.3378647,165.638732 L0.979641176,165.638732 C1.25332353,165.912414 1.52751176,166.186602 1.8017,166.460791 L1.8017,110.504132 L1.8017,21.6732141 L1.8017,1.31448471 C1.8017,0.256684706 0.157582353,0.254661176 0.157582353,1.31448471 L0.157582353,57.2706376 L0.157582353,146.102061 L0.157582353,166.460791 C0.157582353,166.904955 0.533958824,167.282849 0.979641176,167.282849 L56.9357941,167.282849 L145.767218,167.282849 L166.125441,167.282849 C166.570112,167.282849 166.9475,166.905967 166.9475,166.460791 L166.9475,110.504132 L166.9475,21.6732141 L166.9475,1.31448471 C166.9475,0.87032 166.571124,0.492425882 166.125441,0.492425882 L110.169794,0.492425882 L21.3378647,0.492425882 L0.979641176,0.492425882 C-0.0786647059,0.492425882 -0.0801823529,2.13654353 0.979641176,2.13654353" id="Fill-2505" fill="#000000"></path>
                <path d="M165.333128,1.53307647 C166.907434,6.17302941 168.48174,10.8134882 170.056046,15.4539471 C170.394481,16.4505353 171.982952,16.0230647 171.641481,15.0168647 C170.067175,10.3764059 168.492869,5.73645294 166.918564,1.09599412 C166.580128,0.0994058824 164.991658,0.526876471 165.333128,1.53307647" id="Fill-2506" fill="#000000"></path>
                <path d="M170.026856,15.1975659 L170.026856,67.8831894 L170.026856,151.717001 L170.026856,170.772072 C170.026856,171.829872 171.670974,171.831389 171.670974,170.772072 L171.670974,118.086448 L171.670974,34.2526365 L171.670974,15.1975659 C171.670974,14.1397659 170.026856,14.1377424 170.026856,15.1975659" id="Fill-2507" fill="#000000"></path>
                <path d="M15.1710576,171.594029 L67.8915871,171.594029 L151.781552,171.594029 L170.848764,171.594029 C171.906564,171.594029 171.908587,169.949912 170.848764,169.949912 L118.12874,169.949912 L34.2382694,169.949912 L15.1710576,169.949912 C14.1132576,169.949912 14.1112341,171.594029 15.1710576,171.594029" id="Fill-2508" fill="#000000"></path>
            </g>
        </g>
    </g>
</svg>