<?xml version="1.0" encoding="UTF-8" standalone="no"?>
<svg width="174px" height="174px" viewBox="0 0 174 174" version="1.1" xmlns="http://www.w3.org/2000/svg" xmlns:xlink="http://www.w3.org/1999/xlink">
    <!-- Generator: Sketch 48.1 (47250) - http://www.bohemiancoding.com/sketch -->
    <title>white-cube-brown-sides copy</title>
    <desc>Created with Sketch.</desc>
    <defs></defs>
    <g id="Boxes" stroke="none" stroke-width="1" fill="none" fill-rule="evenodd">
        <g id="white-cube-brown-sides-copy">
            <g id="Group">
                <polygon id="Fill-458" fill="#0455AF" points="1.08764948 161.903113 150.463959 161.903113 150.463959 12.779732 1.08764948 12.779732"></polygon>
                <g id="Group-479">
                    <path d="M1.08788866,13.7512021 L51.6686722,13.7512021 L131.955621,13.7512021 L150.464198,13.7512021 L149.492548,12.7795526 L149.492548,63.2748309 L149.492548,143.425449 L149.492548,161.902934 C149.816033,161.578852 150.140115,161.254769 150.464198,160.931285 L99.8834144,160.931285 L19.5970639,160.931285 L1.08788866,160.931285 C1.41197113,161.254769 1.73545567,161.578852 2.05953814,161.902934 L2.05953814,111.407656 L2.05953814,31.2570371 L2.05953814,12.7795526 C2.05953814,11.5292639 0.116239175,11.5268722 0.116239175,12.7795526 L0.116239175,63.2748309 L0.116239175,143.425449 L0.116239175,161.902934 C0.116239175,162.427924 0.561703093,162.874584 1.08788866,162.874584 L51.6686722,162.874584 L131.955621,162.874584 L150.464198,162.874584 C150.989188,162.874584 151.435847,162.42912 151.435847,161.902934 L151.435847,111.407656 L151.435847,31.2570371 L151.435847,12.7795526 C151.435847,12.2545629 150.990384,11.8079031 150.464198,11.8079031 L99.8834144,11.8079031 L19.5970639,11.8079031 L1.08788866,11.8079031 C-0.1624,11.8079031 -0.164791753,13.7512021 1.08788866,13.7512021" id="Fill-459" fill="#000000"></path>
                    <polygon id="Fill-461" fill="#0455AF" points="172.358959 1.885 150.322546 12.779433 150.322546 161.335371 172.358959 138.546155"></polygon>
                    <path d="M171.86847,1.04585361 C164.5228,4.6777299 157.177728,8.30900825 149.832058,11.9402866 C149.531295,12.0891732 149.350718,12.4557093 149.350718,12.7797918 L149.350718,63.2427814 L149.350718,142.953318 L149.350718,161.335132 C149.350718,162.165668 150.419831,162.631462 151.009398,162.022163 L162.853357,149.773998 C165.396986,147.143668 167.940016,144.513338 170.483645,141.883606 C171.373975,140.962781 172.985419,139.830287 173.330429,138.546513 C173.768718,136.917132 173.330429,134.570823 173.330429,132.900781 L173.330429,118.41274 L173.330429,26.8139979 L173.330429,1.88476082 C173.330429,0.634472165 171.38713,0.632678351 171.38713,1.88476082 L171.38713,66.3329258 L171.38713,112.423194 L171.38713,129.131379 C171.38713,131.903421 170.92014,135.140658 171.38713,137.882204 C171.420016,138.07474 171.40148,138.333647 171.38713,138.532761 C171.415831,138.130348 171.944408,137.724348 171.424202,138.1154 C171.165295,138.310328 170.950635,138.605111 170.724614,138.838905 C168.25513,141.392699 165.785047,143.947091 163.314965,146.500885 C158.755089,151.216823 154.195212,155.932761 149.635336,160.647503 C150.188429,160.877111 150.741522,161.106122 151.294016,161.335132 L151.294016,97.1853381 L151.294016,16.2574 C151.294016,15.5673794 151.640223,13.7424722 151.294016,13.1271938 C150.823439,12.2894825 152.570614,13.8626577 150.880243,13.5852144 C151.51047,13.6886577 153.109955,12.4826165 153.676202,12.2027814 C160.066965,9.04327629 166.458326,5.88377113 172.849089,2.72366804 C173.970223,2.16937938 172.987212,0.492760825 171.86847,1.04585361" id="Fill-463" fill="#000000"></path>
                    <polygon id="Fill-465" fill="#0455AF" points="172.358959 1.65634845 35.5459278 1.65634845 1.22965979 12.7797918 150.322546 12.7797918"></polygon>
                    <path d="M172.358959,0.684698969 L105.14533,0.684698969 L58.280732,0.684698969 L42.2308763,0.684698969 C40.0890619,0.684698969 37.7313918,0.404265979 35.6009381,0.684698969 C34.1951856,0.870059794 32.7691031,1.53556495 31.4243402,1.97146186 L19.5421134,5.82278144 C13.3522577,7.82946186 7.16180412,9.83614227 0.971350515,11.8428227 C-0.0493298969,12.1734825 0.100752577,13.7514412 1.22965979,13.7514412 L66.2572268,13.7514412 L147.25034,13.7514412 C150.050485,13.7514412 151.070567,13.4883485 153.675784,12.1728845 C160.067144,8.94700825 166.458505,5.72113196 172.849268,2.49525567 C173.966216,1.9314 172.983206,0.254781443 171.868649,0.817441237 C166.169701,3.69412165 160.470753,6.57020412 154.771804,9.44688454 C153.544835,10.0663485 152.317268,10.6858124 151.090299,11.3052763 C150.653206,11.5259155 149.347907,11.9402866 150.293845,11.8081423 C149.743144,11.8846784 149.122485,11.8081423 148.568196,11.8081423 L119.855804,11.8081423 L25.5400309,11.8081423 L1.22965979,11.8081423 L1.48796907,13.7161629 C6.7366701,12.0150289 11.9853711,10.3138948 17.2334742,8.61276082 C23.2349794,6.66766804 29.2574124,4.2765134 35.3767113,2.73203918 C35.8419072,2.6148433 35.4945052,2.62799794 36.4063608,2.62799794 C37.5890825,2.6274 38.7712062,2.62799794 39.9539278,2.62799794 L54.0903814,2.62799794 L146.819825,2.62799794 L172.358959,2.62799794 C173.609247,2.62799794 173.611639,0.684698969 172.358959,0.684698969" id="Fill-467" fill="#000000"></path>
                    <path d="M171.810052,1.02576289 C164.562443,4.67438144 157.315433,8.323 150.067825,11.9716186 C148.950876,12.5342784 149.933289,14.2108969 151.048443,13.649433 C158.296052,10.0008144 165.54366,6.35219588 172.79067,2.70357732 C173.908216,2.14151546 172.925206,0.464298969 171.810052,1.02576289" id="Fill-469" fill="#000000"></path>
                    <path d="M1.08788866,13.7821155 L51.6208371,13.7821155 L131.831249,13.7821155 L150.322487,13.7821155 C149.998404,13.458033 149.67492,13.1345485 149.350837,12.810466 L149.350837,63.2955794 L149.350837,143.429456 L149.350837,161.903353 C149.67492,161.57927 149.998404,161.255188 150.322487,160.931703 L99.7895381,160.931703 L19.5791258,160.931703 L1.08788866,160.931703 C1.41197113,161.255188 1.73545567,161.57927 2.05953814,161.903353 L2.05953814,111.418239 L2.05953814,31.2843629 L2.05953814,12.810466 C2.05953814,11.5601773 0.116239175,11.5577856 0.116239175,12.810466 L0.116239175,63.2955794 L0.116239175,143.429456 L0.116239175,161.903353 C0.116239175,162.428342 0.561703093,162.875002 1.08788866,162.875002 L51.6208371,162.875002 L131.831249,162.875002 L150.322487,162.875002 C150.847476,162.875002 151.294136,162.429538 151.294136,161.903353 L151.294136,111.418239 L151.294136,31.2843629 L151.294136,12.810466 C151.294136,12.2854763 150.848672,11.8388165 150.322487,11.8388165 L99.7895381,11.8388165 L19.5791258,11.8388165 L1.08788866,11.8388165 C-0.1624,11.8388165 -0.164791753,13.7821155 1.08788866,13.7821155" id="Fill-471" fill="#000000"></path>
                    <path d="M35.2877381,0.786348454 C23.8330371,4.47203918 12.3783361,8.15713196 0.923635052,11.8428227 C-0.262076289,12.2243072 0.244975258,14.1012351 1.44025361,13.7167608 C12.8949546,10.0310701 24.3496557,6.34537938 35.8043567,2.6602866 C36.990068,2.27880206 36.4830165,0.401874227 35.2877381,0.786348454" id="Fill-473" fill="#000000"></path>
                    <path d="M171.671928,137.859542 C164.326258,145.645295 156.980588,153.430449 149.635515,161.216202 C148.777474,162.125068 150.149144,163.50212 151.009577,162.589666 L173.04599,139.233604 C173.903433,138.32414 172.532361,136.947687 171.671928,137.859542" id="Fill-475" fill="#000000"></path>
                    <path d="M171.387309,1.885 L171.387309,48.1612268 L171.387309,121.597 L171.387309,138.546155 C171.387309,139.797041 173.330608,139.798835 173.330608,138.546155 L173.330608,92.2705258 L173.330608,18.8347526 L173.330608,1.885 C173.330608,0.63471134 171.387309,0.632319588 171.387309,1.885" id="Fill-477" fill="#000000"></path>
                </g>
            </g>
        </g>
    </g>
</svg>