<?xml version="1.0" encoding="UTF-8" standalone="no"?>
<svg width="107px" height="81px" viewBox="0 0 107 81" version="1.1" xmlns="http://www.w3.org/2000/svg" xmlns:xlink="http://www.w3.org/1999/xlink">
    <!-- Generator: Sketch 47.1 (45422) - http://www.bohemiancoding.com/sketch -->
    <title>boat</title>
    <desc>Created with Sketch.</desc>
    <defs></defs>
    <g id="Page-1" stroke="none" stroke-width="1" fill="none" fill-rule="evenodd">
        <g id="boat">
            <path d="M11.5186,49.8276 C11.6886,49.6646 12.0406,49.7896 12.2936,49.7746 C12.4066,49.3136 12.6076,48.8586 13.0286,48.4486 C19.2856,42.3386 23.1706,34.0566 29.5106,28.1106 C30.3446,27.3286 31.0266,24.1996 31.8836,24.4366 C33.0936,19.7926 34.8206,18.8826 34.9286,13.9406 C34.9586,12.5466 36.4976,11.2436 37.5286,10.9026 C37.9376,10.6446 38.4096,10.4536 39.0206,10.4576 C44.2316,10.4856 47.1966,8.1656 52.3106,9.4416 C52.3286,9.4456 55.5946,8.9516 55.6256,9.6896 C57.3106,8.5236 60.3606,6.7896 60.3196,9.4416 C60.2606,13.2206 59.2536,19.7616 59.3006,23.3086 C59.4406,23.2936 59.5766,23.2556 59.7186,23.2596 C59.6686,21.0326 58.5556,18.8416 60.5206,17.4646 C65.7666,13.7886 69.6326,8.7706 68.2396,12.1866 C66.8366,15.6256 65.4366,24.7536 65.9656,28.3286 C66.2766,30.4246 66.3176,33.7386 61.7606,31.5666 C60.9436,31.1776 60.3726,30.4156 59.6896,29.8296 C60.0636,33.0976 60.7946,36.3656 62.0566,39.7016 C62.9386,38.2756 64.3886,34.3146 66.3176,33.7386 C66.3146,33.0566 70.8006,28.4176 70.7826,27.7376 C70.6856,24.0496 71.7916,30.8066 71.8896,34.4866 C72.1286,43.5716 70.8816,52.7566 70.6926,61.8616 C70.6706,62.9116 70.2096,63.6286 69.5816,64.0816 C72.1886,66.0996 73.8496,71.9426 70.7836,70.1356 C68.2136,68.6196 61.6116,66.7106 58.9966,65.7916 C58.4216,66.1516 57.3796,65.6066 56.5436,65.4436 C55.6346,65.2296 54.7166,65.0956 53.7986,64.9706 C53.4576,64.9186 53.1156,64.8776 52.7736,64.8316 C51.3586,64.6756 49.9366,64.5706 48.5126,64.4756 C44.6616,64.3646 40.8296,64.8886 37.3906,66.7156 C36.0456,67.4316 34.2376,67.1076 33.4636,65.7006 C32.0286,63.0856 31.6206,59.9736 31.0996,56.9586 C29.7726,57.8356 27.8086,57.8526 27.0146,56.1586 C26.9056,55.9276 26.8646,55.6916 26.7646,55.4596 L26.7236,55.4766 C26.5836,55.0846 25.9726,54.8756 25.1856,54.7596 C24.5496,54.9066 23.8786,54.8776 23.2736,54.6376 C21.6756,54.6426 20.0216,54.8156 19.5056,54.8476 C16.8436,55.0046 10.4986,55.5716 7.8316,55.6426 C4.1306,55.7406 8.3456,52.8826 11.5186,49.8276" id="Fill-8827" fill="#FEFEFE"></path>
            <path d="M11.5186,49.8276 C11.6886,49.6646 12.0406,49.7896 12.2936,49.7746 C12.4066,49.3136 12.6076,48.8586 13.0286,48.4486 C19.2856,42.3386 23.1706,34.0566 29.5106,28.1106 C30.3446,27.3286 31.0266,24.1996 31.8836,24.4366 C33.0936,19.7926 34.8206,18.8826 34.9286,13.9406 C34.9586,12.5466 36.4976,11.2436 37.5286,10.9026 C37.9376,10.6446 38.4096,10.4536 39.0206,10.4576 C44.2316,10.4856 47.1966,8.1656 52.3106,9.4416 C52.3286,9.4456 55.5946,8.9516 55.6256,9.6896 C57.3106,8.5236 60.3606,6.7896 60.3196,9.4416 C60.2606,13.2206 59.2536,19.7616 59.3006,23.3086 C59.4406,23.2936 59.5766,23.2556 59.7186,23.2596 C59.6686,21.0326 58.5556,18.8416 60.5206,17.4646 C65.7666,13.7886 69.6326,8.7706 68.2396,12.1866 C66.8366,15.6256 65.4366,24.7536 65.9656,28.3286 C66.2766,30.4246 66.3176,33.7386 61.7606,31.5666 C60.9436,31.1776 60.3726,30.4156 59.6896,29.8296 C60.0636,33.0976 60.7946,36.3656 62.0566,39.7016 C62.9386,38.2756 64.3886,34.3146 66.3176,33.7386 C66.3146,33.0566 70.8006,28.4176 70.7826,27.7376 C70.6856,24.0496 71.7916,30.8066 71.8896,34.4866 C72.1286,43.5716 70.8816,52.7566 70.6926,61.8616 C70.6706,62.9116 70.2096,63.6286 69.5816,64.0816 C72.1886,66.0996 73.8496,71.9426 70.7836,70.1356 C68.2136,68.6196 61.6116,66.7106 58.9966,65.7916 C58.4216,66.1516 57.3796,65.6066 56.5436,65.4436 C55.6346,65.2296 54.7166,65.0956 53.7986,64.9706 C53.4576,64.9186 53.1156,64.8776 52.7736,64.8316 C51.3586,64.6756 49.9366,64.5706 48.5126,64.4756 C44.6616,64.3646 40.8296,64.8886 37.3906,66.7156 C36.0456,67.4316 34.2376,67.1076 33.4636,65.7006 C32.0286,63.0856 31.6206,59.9736 31.0996,56.9586 C29.7726,57.8356 27.8086,57.8526 27.0146,56.1586 C26.9056,55.9276 26.8646,55.6916 26.7646,55.4596 L26.7236,55.4766 C26.5836,55.0846 25.9726,54.8756 25.1856,54.7596 C24.5496,54.9066 23.8786,54.8776 23.2736,54.6376 C21.6756,54.6426 20.0216,54.8156 19.5056,54.8476 C16.8436,55.0046 10.4986,55.5716 7.8316,55.6426 C4.1306,55.7406 8.3456,52.8826 11.5186,49.8276 Z" id="Stroke-8829" stroke="#1D1D1B"></path>
            <path d="M72.8135,35.5922 C73.8285,32.8872 76.2695,31.8312 78.2675,29.8282 C80.4045,27.6872 85.5475,20.6432 88.1445,19.0482 C90.9145,17.3482 89.9985,21.8022 89.5485,26.9522 C91.7435,31.3652 91.3585,36.4942 92.5615,41.1812 C94.7545,49.7262 98.3095,59.0252 102.5595,66.8182 C103.5635,68.6582 101.0135,69.1182 98.7655,69.0562 C98.1745,69.0402 97.4395,68.9662 96.6565,68.8762 C96.1985,69.6102 95.4365,70.1022 94.3885,69.9662 C93.6285,69.8672 92.9005,69.8102 92.1675,69.7432 C92.1365,69.7472 92.1065,69.7602 92.0775,69.7642 C88.8835,70.1262 86.1475,69.7482 82.9275,70.0762 C79.7655,70.4002 72.7795,72.5062 73.2555,71.0822 C70.6765,67.9032 71.9345,56.2622 70.7835,52.8832 C68.9865,47.6132 72.2175,41.7182 73.8565,37.0962 C73.1775,36.4932 72.3805,36.7462 72.8135,35.5922" id="Fill-8831" fill="#FEFEFE"></path>
            <path d="M72.8135,35.5922 C73.8285,32.8872 76.2695,31.8312 78.2675,29.8282 C80.4045,27.6872 85.5475,20.6432 88.1445,19.0482 C90.9145,17.3482 89.9985,21.8022 89.5485,26.9522 C91.7435,31.3652 91.3585,36.4942 92.5615,41.1812 C94.7545,49.7262 98.3095,59.0252 102.5595,66.8182 C103.5635,68.6582 101.0135,69.1182 98.7655,69.0562 C98.1745,69.0402 97.4395,68.9662 96.6565,68.8762 C96.1985,69.6102 95.4365,70.1022 94.3885,69.9662 C93.6285,69.8672 92.9005,69.8102 92.1675,69.7432 C92.1365,69.7472 92.1065,69.7602 92.0775,69.7642 C88.8835,70.1262 86.1475,69.7482 82.9275,70.0762 C79.7655,70.4002 72.7795,72.5062 73.2555,71.0822 C70.6765,67.9032 71.9345,56.2622 70.7835,52.8832 C68.9865,47.6132 72.2175,41.7182 73.8565,37.0962 C73.1775,36.4932 72.3805,36.7462 72.8135,35.5922 Z" id="Stroke-8833" stroke="#1D1D1B"></path>
            <path d="M21.5986,65.521 C23.0036,65.517 23.8706,66.341 24.2106,67.363 C24.4026,67.356 24.5896,67.331 24.7856,67.359 C29.0106,67.968 33.0806,69.321 37.3836,69.291 C38.1186,69.286 38.6646,69.547 39.1096,69.905 C40.8146,70.239 42.5076,70.512 44.1926,70.736 C44.6676,70.552 45.1896,70.447 45.7976,70.561 C53.3646,71.988 61.9726,70.943 69.6556,70.874 C70.4646,70.866 71.0646,71.165 71.5206,71.587 C73.5016,71.567 75.4946,71.553 77.5096,71.567 C77.8766,70.606 81.6386,70.21 82.9276,70.077 C88.2636,69.525 93.3926,69.155 98.7656,69.056 C102.4656,68.989 99.6506,73.834 95.9546,73.901 C93.6806,73.943 93.7496,73.53 91.4936,73.755 C91.4086,74.516 88.6966,75.875 87.8486,76.39 C82.9056,79.4 77.6586,79.222 72.0676,79.204 C71.4626,79.202 71.0086,79 70.6136,78.734 C58.1956,78.613 45.7666,79.034 33.3466,79.066 C32.2866,79.069 31.5646,78.58 31.1106,77.911 C30.8506,77.714 30.5956,77.499 30.3866,77.182 C29.6266,76.029 27.7696,75.49 26.5676,74.954 C24.9016,74.21 23.3326,73.416 22.0066,72.143 C21.6866,71.835 21.4806,71.51 21.3336,71.181 C17.9476,70.879 18.0056,65.531 21.5986,65.521" id="Fill-8835" fill="#A88D3B"></path>
            <path d="M21.5986,65.521 C23.0036,65.517 23.8706,66.341 24.2106,67.363 C24.4026,67.356 24.5896,67.331 24.7856,67.359 C29.0106,67.968 33.0806,69.321 37.3836,69.291 C38.1186,69.286 38.6646,69.547 39.1096,69.905 C40.8146,70.239 42.5076,70.512 44.1926,70.736 C44.6676,70.552 45.1896,70.447 45.7976,70.561 C53.3646,71.988 61.9726,70.943 69.6556,70.874 C70.4646,70.866 71.0646,71.165 71.5206,71.587 C73.5016,71.567 75.4946,71.553 77.5096,71.567 C77.8766,70.606 81.6386,70.21 82.9276,70.077 C88.2636,69.525 93.3926,69.155 98.7656,69.056 C102.4656,68.989 99.6506,73.834 95.9546,73.901 C93.6806,73.943 93.7496,73.53 91.4936,73.755 C91.4086,74.516 88.6966,75.875 87.8486,76.39 C82.9056,79.4 77.6586,79.222 72.0676,79.204 C71.4626,79.202 71.0086,79 70.6136,78.734 C58.1956,78.613 45.7666,79.034 33.3466,79.066 C32.2866,79.069 31.5646,78.58 31.1106,77.911 C30.8506,77.714 30.5956,77.499 30.3866,77.182 C29.6266,76.029 27.7696,75.49 26.5676,74.954 C24.9016,74.21 23.3326,73.416 22.0066,72.143 C21.6866,71.835 21.4806,71.51 21.3336,71.181 C17.9476,70.879 18.0056,65.531 21.5986,65.521 Z" id="Stroke-8837" stroke="#1D1D1B"></path>
            <path d="M105.1563,66.4956 C94.1023,67.5246 83.0503,68.5556 71.9973,69.5856 C69.9323,69.7776 69.9123,73.0296 71.9973,72.8356 C83.0503,71.8056 94.1023,70.7746 105.1563,69.7456 C107.2203,69.5526 107.2413,66.3016 105.1563,66.4956" id="Fill-8861" fill="#1D1D1B"></path>
            <path d="M70.5498,2.4409 C70.2598,25.3649 69.9708,48.2889 69.6818,71.2119 C69.6548,73.3039 72.9048,73.3049 72.9318,71.2119 C73.2208,48.2889 73.5098,25.3649 73.7998,2.4409 C73.8258,0.3489 70.5758,0.3479 70.5498,2.4409" id="Fill-8863" fill="#1D1D1B"></path>
            <path d="M70.7109,69.5756 C53.1649,69.9896 36.5509,68.5586 19.6829,63.6006 C17.6719,63.0106 16.8139,66.1446 18.8189,66.7346 C35.9689,71.7756 52.8669,73.2466 70.7109,72.8256 C72.7989,72.7756 72.8069,69.5256 70.7109,69.5756" id="Fill-8865" fill="#1D1D1B"></path>
            <path d="M15.7295,64.7124 C18.2815,71.5534 25.2825,77.6774 31.6335,80.8114 C33.5025,81.7334 35.1515,78.9324 33.2745,78.0054 C27.7825,75.2954 21.1075,69.8634 18.8635,63.8484 C18.1395,61.9054 14.9975,62.7464 15.7295,64.7124" id="Fill-8867" fill="#1D1D1B"></path>
            <path d="M95.0947,78.8159 C94.5357,76.7159 92.6007,75.5859 90.8077,74.6409 C88.9577,73.6669 87.3147,76.4699 89.1667,77.4469 C89.7987,77.7799 90.4407,78.1059 91.0237,78.5209 C91.4507,78.8259 91.8587,79.2949 91.9607,79.6799 C92.4977,81.6989 95.6337,80.8419 95.0947,78.8159" id="Fill-8869" fill="#1D1D1B"></path>
            <path d="M99.5176,70.271 C99.8076,70.282 99.3686,70.224 99.2226,70.072 C99.1756,70.022 98.9946,69.62 99.0586,69.776 C99.0816,69.833 99.0336,69.701 99.0496,69.703 C99.0576,69.704 99.0896,69.594 99.0646,69.673 C99.0356,69.768 99.0226,69.868 98.9856,69.96 C98.8906,70.204 99.0836,69.767 98.9586,70.02 C98.8946,70.15 98.8186,70.28 98.7366,70.399 C98.1746,71.216 97.1156,71.715 96.0556,71.896 C95.1896,72.043 94.7046,73.11 94.9196,73.895 C95.1716,74.811 96.0506,75.177 96.9186,75.03 C99.1256,74.654 101.2216,73.174 102.0366,71.046 C102.7946,69.065 101.7076,67.101 99.5176,67.021 C97.4256,66.944 97.4286,70.194 99.5176,70.271" id="Fill-8871" fill="#1D1D1B"></path>
            <path d="M96.4873,71.8374 C95.0483,72.0304 93.6073,72.2234 92.1683,72.4164 C91.2983,72.5324 90.5433,73.0794 90.5433,74.0414 C90.5433,74.8284 91.2923,75.7834 92.1683,75.6664 C93.6073,75.4734 95.0483,75.2804 96.4873,75.0874 C97.3563,74.9714 98.1123,74.4244 98.1123,73.4624 C98.1123,72.6754 97.3633,71.7204 96.4873,71.8374" id="Fill-8873" fill="#1D1D1B"></path>
            <path d="M90.6807,72.8647 C88.2617,75.1367 85.5027,76.7647 82.3187,77.7097 C80.3177,78.3017 81.1687,81.4397 83.1827,80.8437 C86.9007,79.7417 90.1557,77.8147 92.9787,75.1637 C94.5057,73.7277 92.2037,71.4327 90.6807,72.8647" id="Fill-8875" fill="#1D1D1B"></path>
            <path d="M90.1934,14.5044 C83.9664,21.0684 77.7404,27.6334 71.5134,34.1984 C70.0744,35.7154 72.3694,38.0184 73.8114,36.4964 C80.0384,29.9324 86.2644,23.3664 92.4914,16.8024 C93.9304,15.2854 91.6354,12.9834 90.1934,14.5044" id="Fill-8877" fill="#1D1D1B"></path>
            <path d="M92.6982,44.061 C95.2552,52.572 98.0852,61.29 102.4832,69.059 C103.5132,70.878 106.3222,69.243 105.2892,67.418 C101.0252,59.887 98.3122,51.452 95.8322,43.197 C95.2312,41.199 92.0942,42.05 92.6982,44.061" id="Fill-8879" fill="#1D1D1B"></path>
            <path d="M88.1104,17.3481 C87.3574,26.2341 90.2584,35.6421 92.6984,44.0611 C93.2794,46.0661 96.4164,45.2131 95.8324,43.1971 C93.4624,35.0141 90.6314,25.9631 91.3604,17.3481 C91.5374,15.2641 88.2864,15.2761 88.1104,17.3481" id="Fill-8881" fill="#1D1D1B"></path>
            <path d="M45.125,64.3129 C45.08,66.2229 45.025,68.1319 44.98,70.0419 C44.933,72.1339 48.183,72.1329 48.23,70.0419 C48.275,68.1319 48.33,66.2229 48.375,64.3129 C48.423,62.2209 45.173,62.2219 45.125,64.3129" id="Fill-8883" fill="#1D1D1B"></path>
            <path d="M46.5234,2.0434 C46.4764,4.1754 46.4374,6.3074 46.3904,8.4394 C46.3434,10.5314 49.5934,10.5304 49.6404,8.4394 C49.6874,6.3074 49.7264,4.1754 49.7734,2.0434 C49.8204,-0.0496 46.5704,-0.0486 46.5234,2.0434" id="Fill-8885" fill="#1D1D1B"></path>
            <path d="M20.75,64.0727 C14.683,61.3177 8.614,58.5627 2.547,55.8077 C0.656,54.9497 -0.997,57.7497 0.906,58.6137 C6.975,61.3697 13.042,64.1247 19.11,66.8797 C21,67.7377 22.654,64.9367 20.75,64.0727" id="Fill-8887" fill="#1D1D1B"></path>
            <path d="M62.2598,6.646 L34.8758,8.366 C32.7988,8.496 32.7838,11.747 34.8758,11.616 L62.2598,9.896 C64.3368,9.766 64.3518,6.515 62.2598,6.646" id="Fill-8889" fill="#1D1D1B"></path>
            <path d="M59.041,8.4477 C57.274,19.9667 59.071,31.9407 61.638,43.2087 C63.827,52.8197 66.52,63.6357 72.208,71.8767 C73.388,73.5867 76.206,71.9637 75.014,70.2357 C69.727,62.5757 67.204,52.6387 65.087,43.7027 C62.468,32.6427 60.434,20.6687 62.175,9.3117 C62.489,7.2657 59.358,6.3847 59.041,8.4477" id="Fill-8891" fill="#1D1D1B"></path>
            <path d="M28.2012,36.937 C28.1362,47.624 29.4032,58.91 33.3862,68.892 C34.1512,70.811 37.2962,69.974 36.5192,68.028 C32.6272,58.27 31.3882,47.382 31.4512,36.937 C31.4642,34.845 28.2142,34.843 28.2012,36.937" id="Fill-8893" fill="#1D1D1B"></path>
            <path d="M34.79,9.5063 C33.05,14.1083 31.588,18.7833 30.46,23.5733 C29.98,25.6083 33.113,26.4763 33.594,24.4383 C34.722,19.6483 36.184,14.9723 37.924,10.3703 C38.665,8.4123 35.524,7.5663 34.79,9.5063" id="Fill-8895" fill="#1D1D1B"></path>
            <path d="M36.6494,69.6147 C47.3534,62.3667 59.9284,67.1987 70.6934,71.6677 C72.6234,72.4687 73.4634,69.3247 71.5564,68.5337 C59.9334,63.7087 46.4714,59.0477 35.0084,66.8077 C33.2874,67.9747 34.9114,70.7917 36.6494,69.6147" id="Fill-8897" fill="#1D1D1B"></path>
            <path d="M46.8584,4.0922 C32.1254,21.7312 17.3924,39.3682 2.6594,57.0072 C1.3274,58.6022 3.6144,60.9122 4.9574,59.3052 C19.6904,41.6662 34.4224,24.0292 49.1564,6.3902 C50.4884,4.7952 48.2014,2.4852 46.8584,4.0922" id="Fill-8899" fill="#1D1D1B"></path>
            <path d="M70.7822,7.5747 C73.7952,13.8237 76.8082,20.0737 79.8212,26.3227 C80.7282,28.2067 83.5322,26.5597 82.6272,24.6817 L73.5892,5.9347 C72.6802,4.0517 69.8782,5.6977 70.7822,7.5747" id="Fill-8901" fill="#1D1D1B"></path>
            <path d="M71.0371,5.6059 C66.9691,9.4009 62.8991,13.1959 58.8311,16.9919 C57.2991,18.4209 59.6001,20.7149 61.1301,19.2899 C65.1981,15.4949 69.2661,11.6989 73.3351,7.9039 C74.8671,6.4739 72.5651,4.1789 71.0371,5.6059" id="Fill-8903" fill="#1D1D1B"></path>
            <path d="M70.3164,28.5092 C74.1324,43.6492 77.9494,58.7892 81.7654,73.9292 C82.2764,75.9562 85.4114,75.0972 84.8994,73.0652 C81.0834,57.9252 77.2664,42.7852 73.4504,27.6452 C72.9394,25.6182 69.8044,26.4772 70.3164,28.5092" id="Fill-8905" fill="#1D1D1B"></path>
            <path d="M70.3164,28.5092 C72.5724,43.8422 74.8274,59.1752 77.0824,74.5092 C77.3844,76.5712 80.5174,75.6942 80.2154,73.6452 C77.9614,58.3122 75.7064,42.9782 73.4504,27.6452 C73.1474,25.5832 70.0154,26.4592 70.3164,28.5092" id="Fill-8907" fill="#1D1D1B"></path>
            <path d="M70.2588,28.0776 C70.8368,43.4146 71.4148,58.7526 71.9938,74.0906 C72.0718,76.1756 75.3218,76.1846 75.2438,74.0906 C74.6648,58.7526 74.0868,43.4146 73.5088,28.0776 C73.4298,25.9926 70.1798,25.9816 70.2588,28.0776" id="Fill-8909" fill="#1D1D1B"></path>
            <path d="M68.0449,8.9311 C64.5049,16.3831 63.4299,24.1961 64.8039,32.3281 C65.1499,34.3861 68.2829,33.5141 67.9379,31.4641 C66.7219,24.2671 67.7209,17.1621 70.8519,10.5721 C71.7439,8.6921 68.9429,7.0411 68.0449,8.9311" id="Fill-8911" fill="#1D1D1B"></path>
            <path d="M70.3096,25.7221 C67.0986,30.0511 63.8886,34.3801 60.6786,38.7101 C59.4316,40.3911 62.2506,42.0141 63.4846,40.3501 C66.6956,36.0211 69.9056,31.6921 73.1156,27.3631 C74.3626,25.6811 71.5426,24.0591 70.3096,25.7221" id="Fill-8913" fill="#1D1D1B"></path>
            <path d="M67.457,31.5131 C65.578,30.4651 63.513,29.9281 61.359,29.9541 C59.269,29.9811 59.264,33.2311 61.359,33.2041 C62.951,33.1851 64.425,33.5431 65.816,34.3201 C67.644,35.3391 69.285,32.5341 67.457,31.5131" id="Fill-8915" fill="#1D1D1B"></path>
            <path d="M41.5059,10.5004 C36.5559,16.5054 32.1559,22.8884 29.4999,30.2564 C26.6369,38.2034 25.9099,46.7444 25.4419,55.1164 C25.3249,57.2064 28.5749,57.1994 28.6919,55.1164 C29.1229,47.4104 29.7819,39.6284 32.2379,32.2634 C34.6659,24.9814 38.9579,18.6774 43.8039,12.7984 C45.1239,11.1964 42.8369,8.8844 41.5059,10.5004" id="Fill-8917" fill="#1D1D1B"></path>
            <path d="M27.0664,53.4917 C19.7454,52.7207 12.0404,52.6887 4.8954,54.6737 C2.8824,55.2327 3.7384,58.3687 5.7594,57.8067 C12.6134,55.9027 20.0444,56.0037 27.0664,56.7417 C29.1444,56.9607 29.1294,53.7087 27.0664,53.4917" id="Fill-8919" fill="#1D1D1B"></path>
            <path d="M25.918,56.2661 C32.152,61.6101 39.224,65.8481 45.457,71.1911 C47.037,72.5451 49.347,70.2561 47.755,68.8931 C41.521,63.5491 34.449,59.3101 28.216,53.9671 C26.636,52.6141 24.326,54.9021 25.918,56.2661" id="Fill-8921" fill="#1D1D1B"></path>
            <path d="M70.6191,7.187 C72.4071,14.749 74.1961,22.313 75.9851,29.875 C76.4661,31.911 79.6001,31.049 79.1191,29.012 C77.3301,21.449 75.5411,13.886 73.7531,6.323 C73.2711,4.289 70.1371,5.15 70.6191,7.187" id="Fill-8923" fill="#1D1D1B"></path>
        </g>
    </g>
</svg>