<?xml version="1.0" encoding="UTF-8" standalone="no"?>
<svg width="150px" height="150px" viewBox="0 0 150 150" version="1.1" xmlns="http://www.w3.org/2000/svg" xmlns:xlink="http://www.w3.org/1999/xlink">
    <!-- Generator: Sketch 48 (47235) - http://www.bohemiancoding.com/sketch -->
    <title>box-with-egg</title>
    <desc>Created with Sketch.</desc>
    <defs></defs>
    <g id="Page-1" stroke="none" stroke-width="1" fill="none" fill-rule="evenodd">
        <g id="box-with-egg">
            <g id="Page-1" transform="translate(-1.000000, -1.000000)">
                <rect id="Rectangle" fill="#016D3C" x="0" y="0.652360515" width="22.1802575" height="149.390558"></rect>
                <rect id="Rectangle-2" fill="#016D3C" x="1.30472103" y="123.296137" width="150.695279" height="29.3562232"></rect>
                <g id="Group-64" transform="translate(0.000000, 0.293562)">
                    <path d="M42.0026232,102.646709 C42.0502455,123.567911 54.422915,136.148031 69.6894558,136.148031 C89.9198077,136.148031 98.173473,118.249215 98.173473,101.38961 C98.173473,83.6323571 86.5301425,52.8709494 69.6894558,52.8846489 C53.3784858,52.8976961 41.9582627,83.1006833 42.0026232,102.646709" id="Fill-22" fill="#FDEDD8"></path>
                    <path d="M124.920906,125.673665 C122.842486,125.706283 120.76537,125.823056 118.687602,125.947004 C118.49907,124.781888 118.125267,123.894678 117.556409,123.884893 C115.379482,123.846403 113.205816,124.093648 111.032803,124.403519 C110.794039,123.605682 110.441112,123.072704 109.972065,123.072052 C104.227379,123.060961 98.4826918,122.921356 92.7380052,122.828721 C92.7327863,122.837202 92.7308292,122.845682 92.7249579,122.854815 C89.2544,128.38618 84.5065202,131.745837 78.8257648,134.358541 C79.007121,135.175948 79.3117734,135.755897 79.7449408,135.755897 L99.8591725,135.755897 C100.458039,135.755897 100.811619,134.647536 100.929044,133.326506 C102.310743,133.309545 103.691791,133.227348 105.072185,133.060343 C105.49622,133.091657 105.920906,133.123622 106.344288,133.154283 C106.587619,133.171245 106.798984,133.043382 106.98034,132.809185 C110.503739,132.295777 114.025833,131.62776 117.556409,131.690386 C117.905421,131.696258 118.179413,131.362249 118.384906,130.84297 C120.563138,130.711845 122.742022,130.58594 124.920906,130.55267 C125.983602,130.535708 125.984254,125.657356 124.920906,125.673665" id="Fill-24" fill="#1D1D1B"></path>
                    <path d="M45.4402369,121.528893 C50.3205459,131.094455 58.9838936,136.538403 69.7374043,136.706712 C71.1021425,136.72824 71.1021425,134.608069 69.7374043,134.586541 C59.6962712,134.42867 51.8170609,129.368309 47.2707605,120.458369 C46.6503657,119.243021 44.8204944,120.31485 45.4402369,121.528893" id="Fill-26" fill="#1D1D1B"></path>
                    <path d="M40.9902901,100.220124 C41.0620498,107.593755 42.2617408,114.83039 45.4400412,121.528827 C46.0245562,122.761136 47.8537751,121.686046 47.2705648,120.458304 C44.259921,114.112793 43.1783073,107.199076 43.1104618,100.220124 C43.0967622,98.8566901 40.9765906,98.852776 40.9902901,100.220124" id="Fill-28" fill="#1D1D1B"></path>
                    <path d="M47.8926558,71.852618 C43.7371193,80.7358112 41.0996258,90.3757425 40.9900292,100.219863 C40.9750249,101.584601 43.0951966,101.585906 43.1102009,100.219863 C43.2158833,90.7652017 45.7313854,81.4579742 49.7238318,72.9231416 C50.2985614,71.6947468 48.4712996,70.6163948 47.8926558,71.852618" id="Fill-30" fill="#1D1D1B"></path>
                    <path d="M69.7582146,51.8243674 C59.0960343,52.1779468 52.0518455,63.3352687 47.8923948,71.8524876 C47.2961373,73.0737064 49.1240515,74.1501013 49.7235708,72.9230112 C53.5118283,65.1651399 59.9564979,54.2694146 69.7582146,53.9445391 C71.1190386,53.9001785 71.1249099,51.7793545 69.7582146,51.8243674" id="Fill-32" fill="#1D1D1B"></path>
                    <path d="M74.6661837,134.289391 C73.1533597,134.509236 71.6157459,134.579039 70.0879176,134.586215 C68.7244841,134.592738 68.7212223,136.71291 70.0879176,136.706386 C71.8114541,136.697906 73.5245528,136.581785 75.2298232,136.333888 C76.5749906,136.13818 76.0028704,134.094987 74.6661837,134.289391" id="Fill-34" fill="#1D1D1B"></path>
                    <path d="M91.9068979,122.273627 C88.0194815,128.802452 82.1880309,133.000391 74.6663142,134.289456 C73.3237562,134.519087 73.893267,136.56228 75.2299536,136.333954 C83.2729064,134.955516 89.5871039,130.314623 93.7374215,123.344151 C94.4374043,122.168597 92.6049236,121.100683 91.9068979,122.273627" id="Fill-36" fill="#1D1D1B"></path>
                    <path d="M97.0350386,100.220124 C96.9639313,107.889926 95.6631245,115.505583 91.9068326,122.273823 C91.2446867,123.467643 93.0745579,124.538167 93.7373562,123.343694 C97.6730472,116.253188 99.0808412,108.259162 99.1552103,100.220124 C99.1682575,98.8553854 97.0480858,98.8540807 97.0350386,100.220124" id="Fill-38" fill="#1D1D1B"></path>
                    <path d="M90.0106815,72.0768996 C94.2562438,80.8315777 96.9270077,90.4558524 97.0352996,100.220385 C97.0503039,101.583166 99.1704755,101.58708 99.1554712,100.220385 C99.0432652,90.0690026 96.2537717,80.1061528 91.8412052,71.0070283 C91.2462524,69.7799382 89.4170335,70.8537236 90.0106815,72.0768996" id="Fill-40" fill="#1D1D1B"></path>
                    <path d="M70.3872858,53.9445391 C79.8836979,54.2609339 86.2148567,64.5780155 90.0109425,72.0768996 C90.6267708,73.2948567 92.4566421,72.2230283 91.8414661,71.0070283 C87.6591828,62.74423 80.743509,52.1694661 70.3872858,51.8243674 C69.0225476,51.7793545 69.0245047,53.8995262 70.3872858,53.9445391" id="Fill-42" fill="#1D1D1B"></path>
                    <path d="M128.360086,128.012312 C128.094575,126.233978 126.04812,125.306321 124.596618,124.669617 C120.752258,122.983265 116.498215,122.180862 112.393562,121.430647 C111.059485,121.186664 110.487365,123.229858 111.829923,123.475145 C114.935811,124.042699 118.045614,124.673531 121.061476,125.622716 C122.416429,126.048707 126.063124,126.884381 126.315588,128.575952 C126.515863,129.921119 128.559056,129.349652 128.360086,128.012312" id="Fill-44" fill="#1D1D1B"></path>
                    <path d="M88.6266335,135.095904 C81.5296034,135.079595 74.446273,135.171578 67.3727279,134.48138 C66.0151657,134.348299 66.0249511,136.469123 67.3727279,136.601552 C74.446273,137.291749 81.5296034,137.199767 88.6266335,137.216076 C89.9913717,137.219337 89.9933288,135.099166 88.6266335,135.095904" id="Fill-46" fill="#1D1D1B"></path>
                    <path d="M111.829727,133.265641 C104.161229,134.494036 96.3935725,135.096817 88.6265682,135.045933 C87.2624824,135.037452 87.2605253,137.157624 88.6265682,137.166105 C96.5860189,137.218294 104.535684,136.568542 112.393367,135.310139 C113.737229,135.09486 113.167066,133.051015 111.829727,133.265641" id="Fill-48" fill="#1D1D1B"></path>
                    <path d="M126.279773,128.47738 C126.104288,129.996076 121.882864,130.972007 120.781679,131.301449 C117.85258,132.177569 114.840632,132.752951 111.829988,133.265706 C110.48743,133.49338 111.056941,135.537226 112.393627,135.310204 C116.476752,134.614788 120.70731,133.865226 124.534057,132.214754 C126.243241,131.478239 128.165748,130.51144 128.399945,128.47738 C128.555859,127.124385 126.434383,127.135475 126.279773,128.47738" id="Fill-50" fill="#1D1D1B"></path>
                    <path d="M126.541305,126.813339 C125.026524,125.453167 123.281459,124.879742 121.356343,124.310884 C118.809528,123.558712 116.467554,122.499279 113.811794,122.124824 C113.049837,122.017837 112.407262,122.252687 111.921253,122.655845 C111.654438,122.588 111.390232,122.512979 111.120807,122.451004 C108.254987,121.792773 107.037682,126.195554 109.906764,126.854438 C112.342678,127.414815 114.703571,128.1983 117.069682,128.984395 C111.557236,130.759468 105.006884,130.937562 99.5055279,131.013236 C96.563382,131.054335 96.5594678,135.620858 99.5055279,135.57976 C106.943742,135.477991 115.735605,135.012858 122.512326,131.680601 C122.947451,131.466627 123.237099,131.176326 123.423674,130.854712 C124.148446,130.917991 124.860172,130.868412 125.53406,130.6303 C127.050798,130.092755 127.907348,128.041082 126.541305,126.813339" id="Fill-52" fill="#1D1D1B"></path>
                    <path d="M2.60520172,150.648113 C9.27493562,141.310877 15.9453219,131.973641 22.6150558,122.636405 C23.4096309,121.52413 21.571279,120.464045 20.7845322,121.566534 C14.1147983,130.903118 7.44441202,140.241006 0.774025751,149.57759 C-0.0198969957,150.689864 1.81780258,151.74995 2.60520172,150.648113" id="Fill-58" fill="#000000"></path>
                    <path d="M93.9605288,123.141919 L143.56537,123.141919 L150.672185,123.141919 C152.036271,123.141919 152.038881,121.021748 150.672185,121.021748 L101.067997,121.021748 L93.9605288,121.021748 C92.5964429,121.021748 92.5938335,123.141919 93.9605288,123.141919" id="Fill-60" fill="#000000"></path>
                    <path d="M20.6085253,1.129497 L20.6085253,42.0879519 L20.6085253,107.040879 L20.6085253,122.081703 C20.6085253,122.654476 21.0945339,123.141789 21.6686112,123.141789 L46.5607313,123.141789 C47.9254695,123.141789 47.9274266,121.021617 46.5607313,121.021617 L21.6686112,121.021617 C22.0221906,121.374544 22.3751176,121.728124 22.728697,122.081703 L22.728697,81.1232481 L22.728697,16.170321 L22.728697,1.129497 C22.728697,-0.235241202 20.6085253,-0.237198283 20.6085253,1.129497" id="Fill-62" fill="#000000"></path>
                </g>
            </g>
        </g>
    </g>
</svg>