<?xml version="1.0" encoding="UTF-8" standalone="no"?>
<svg width="305px" height="305px" viewBox="0 0 305 305" version="1.1" xmlns="http://www.w3.org/2000/svg" xmlns:xlink="http://www.w3.org/1999/xlink">
    <!-- Generator: Sketch 47.1 (45422) - http://www.bohemiancoding.com/sketch -->
    <title>Group 2285</title>
    <desc>Created with Sketch.</desc>
    <defs></defs>
    <g id="Page-1" stroke="none" stroke-width="1" fill="none" fill-rule="evenodd">
        <g id="Group-2285" transform="translate(-3.000000, -3.194500)">
            <g id="Group">
                <path d="M206.998,1.1623 L0.545,1.1623 L0.545,205.8813 L207.735,205.8813 L207.735,1.0893 C207.496,1.1223 207.26,1.1623 206.998,1.1623" id="Fill-2003" fill="#0456AF"></path>
                <path d="M206.998,1.1623 L0.545,1.1623 L0.545,205.8813 L207.735,205.8813 L207.735,1.0893 C207.496,1.1223 207.26,1.1623 206.998,1.1623 Z" id="Stroke-2005" stroke="#000000" stroke-width="0.65"></path>
                <polygon id="Fill-2015" fill="#F088B6" points="207.5166 2.1545 308.4976 1.0895 308.6536 309.2905 207.4566 205.7035"></polygon>
                <path d="M209.3604,206.427 L209.3604,137.42 L209.3604,27.253 L209.3604,1.725 C209.3604,-0.366 206.1104,-0.37 206.1104,1.725 L206.1104,70.731 L206.1104,180.899 L206.1104,206.427 C206.1104,208.518 209.3604,208.522 209.3604,206.427" id="Fill-2027" fill="#1D1D1B"></path>
                <polyline id="Fill-2000" fill="#F088B6" points="3.3438 309.2902 308.6538 309.2902 207.4568 205.7032 0.3138 205.7032"></polyline>
                <path d="M206.5869,207.5764 C236.0299,237.5734 265.4739,267.5694 294.9179,297.5664 C299.1289,301.8574 303.3409,306.1484 307.5529,310.4384 C309.0199,311.9334 311.3169,309.6354 309.8509,308.1404 C280.4069,278.1434 250.9639,248.1474 221.5199,218.1504 C217.3089,213.8594 213.0969,209.5684 208.8849,205.2784 C207.4179,203.7834 205.1199,206.0824 206.5869,207.5764" id="Fill-2019" fill="#1D1D1B"></path>
                <path d="M56.8203,204.802 L1.5753,204.802 C-0.5157,204.802 -0.5197,208.052 1.5753,208.052 L56.8203,208.052 C58.9113,208.052 58.9153,204.802 56.8203,204.802" id="Fill-2023" fill="#1D1D1B"></path>
                <path d="M207.7354,204.802 L150.9594,204.802 C148.8684,204.802 148.8644,208.052 150.9594,208.052 L207.7354,208.052 C209.8274,208.052 209.8304,204.802 207.7354,204.802" id="Fill-2025" fill="#1D1D1B"></path>
            </g>
            <g id="big-stone" transform="translate(39.000000, 175.000000)">
                <path d="M8.2627,58.9592 C12.5517,62.8412 19.7737,63.7982 25.0437,65.6892 C33.7097,68.8012 42.2137,65.2002 50.9957,66.9032 C52.0647,67.1112 53.0517,67.0792 53.9507,66.8722 C56.1957,67.9792 58.9747,67.8942 61.2827,65.6002 C62.2557,64.6322 63.1207,63.5642 63.9257,62.4542 C64.1227,62.4732 64.2957,62.5282 64.4997,62.5372 C69.0597,62.7482 73.2907,63.2662 77.4337,63.7282 C77.7237,63.9992 77.9527,64.3172 78.2847,64.5542 C83.8987,68.5452 92.6807,67.7842 98.0547,63.8312 C99.1697,63.6472 100.2797,63.4792 101.4327,63.2052 C105.5367,62.2302 109.9377,63.1712 114.1587,62.1562 C118.2057,61.1842 121.0117,58.2002 122.8187,54.6932 C130.7557,50.4762 129.2007,35.7422 118.0907,35.7422 C117.7207,35.7422 117.4007,35.8152 117.0517,35.8472 C115.6947,35.5962 114.3377,35.3502 112.9877,35.0942 C112.2607,33.7202 111.1287,32.4992 109.3977,31.7712 C101.6097,28.4932 87.5307,27.0832 83.3517,19.3042 C79.7917,12.6762 71.8847,11.9122 66.7447,7.0272 C58.9087,-0.4188 52.0397,4.5442 45.7747,9.9452 C41.9867,10.3422 39.0387,11.5562 36.7747,15.4212 C32.4977,22.7192 24.4827,23.6282 18.4977,28.9792 C17.7087,29.6842 17.2687,30.5692 16.9697,31.5022 C15.5677,32.2552 14.3317,33.5182 13.5667,35.3972 C11.8337,39.6472 4.9487,39.2482 3.9257,44.5732 C2.8347,50.2602 3.8547,54.9702 8.2627,58.9592" id="Fill-2007" fill="#D42314"></path>
                <path d="M8.2627,58.9592 C12.5517,62.8412 19.7737,63.7982 25.0437,65.6892 C33.7097,68.8012 42.2137,65.2002 50.9957,66.9032 C52.0647,67.1112 53.0517,67.0792 53.9507,66.8722 C56.1957,67.9792 58.9747,67.8942 61.2827,65.6002 C62.2557,64.6322 63.1207,63.5642 63.9257,62.4542 C64.1227,62.4732 64.2957,62.5282 64.4997,62.5372 C69.0597,62.7482 73.2907,63.2662 77.4337,63.7282 C77.7237,63.9992 77.9527,64.3172 78.2847,64.5542 C83.8987,68.5452 92.6807,67.7842 98.0547,63.8312 C99.1697,63.6472 100.2797,63.4792 101.4327,63.2052 C105.5367,62.2302 109.9377,63.1712 114.1587,62.1562 C118.2057,61.1842 121.0117,58.2002 122.8187,54.6932 C130.7557,50.4762 129.2007,35.7422 118.0907,35.7422 C117.7207,35.7422 117.4007,35.8152 117.0517,35.8472 C115.6947,35.5962 114.3377,35.3502 112.9877,35.0942 C112.2607,33.7202 111.1287,32.4992 109.3977,31.7712 C101.6097,28.4932 87.5307,27.0832 83.3517,19.3042 C79.7917,12.6762 71.8847,11.9122 66.7447,7.0272 C58.9087,-0.4188 52.0397,4.5442 45.7747,9.9452 C41.9867,10.3422 39.0387,11.5562 36.7747,15.4212 C32.4977,22.7192 24.4827,23.6282 18.4977,28.9792 C17.7087,29.6842 17.2687,30.5692 16.9697,31.5022 C15.5677,32.2552 14.3317,33.5182 13.5667,35.3972 C11.8337,39.6472 4.9487,39.2482 3.9257,44.5732 C2.8347,50.2602 3.8547,54.9702 8.2627,58.9592 Z" id="Stroke-2009" stroke="#000000" stroke-width="0.65"></path>
                <path d="M3.334,48.6213 C5.603,46.0683 7.87,43.5163 10.138,40.9623 C11.522,39.4033 9.232,37.0973 7.84,38.6643 C5.572,41.2173 3.304,43.7703 1.036,46.3233 C-0.349,47.8833 1.942,50.1893 3.334,48.6213" id="Fill-2029" fill="#1D1D1B"></path>
                <path d="M9.8086,41.216 C11.7076,40.025 13.6066,38.834 15.5056,37.643 C17.2736,36.533 15.6446,33.721 13.8656,34.836 C11.9666,36.028 10.0676,37.219 8.1676,38.41 C6.4006,39.519 8.0306,42.332 9.8086,41.216" id="Fill-2031" fill="#1D1D1B"></path>
                <path d="M16.0889,37.0598 C17.8669,34.3298 19.6459,31.5988 21.4249,28.8698 C22.5689,27.1118 19.7569,25.4808 18.6179,27.2288 C16.8399,29.9588 15.0609,32.6888 13.2819,35.4188 C12.1379,37.1768 14.9499,38.8078 16.0889,37.0598" id="Fill-2033" fill="#1D1D1B"></path>
                <path d="M20.8418,29.4523 C25.2348,26.8893 29.6268,24.3253 34.0208,21.7633 C35.8248,20.7093 34.1918,17.8983 32.3798,18.9563 C27.9868,21.5193 23.5938,24.0823 19.2008,26.6453 C17.3958,27.6993 19.0298,30.5093 20.8418,29.4523" id="Fill-2035" fill="#1D1D1B"></path>
                <path d="M34.6025,21.1799 C36.3635,18.7399 38.1235,16.2999 39.8825,13.8609 C41.1085,12.1609 38.2905,10.5369 37.0775,12.2199 C35.3165,14.6589 33.5565,17.0999 31.7965,19.5389 C30.5715,21.2379 33.3895,22.8619 34.6025,21.1799" id="Fill-2037" fill="#1D1D1B"></path>
                <path d="M39.2998,14.4436 C44.5248,11.4226 49.7478,8.4026 54.9728,5.3816 C56.7818,4.3356 55.1488,1.5256 53.3318,2.5756 C48.1088,5.5956 42.8838,8.6166 37.6588,11.6366 C35.8498,12.6836 37.4848,15.4936 39.2998,14.4436" id="Fill-2039" fill="#1D1D1B"></path>
                <path d="M54.584,5.5451 C56.732,5.0261 58.88,4.5071 61.027,3.9881 C63.06,3.4971 62.199,0.3621 60.164,0.8551 C58.016,1.3731 55.868,1.8931 53.721,2.4111 C51.688,2.9021 52.549,6.0371 54.584,5.5451" id="Fill-2041" fill="#1D1D1B"></path>
                <path d="M59.7754,3.8244 C65.9484,7.6454 72.1214,11.4674 78.2934,15.2884 C80.0774,16.3924 81.7114,13.5824 79.9334,12.4814 C73.7604,8.6604 67.5884,4.8394 61.4164,1.0174 C59.6324,-0.0856 57.9984,2.7244 59.7754,3.8244" id="Fill-2043" fill="#1D1D1B"></path>
                <path d="M77.9648,15.0344 C80.5578,17.8244 83.1498,20.6154 85.7418,23.4064 C87.1688,24.9414 89.4628,22.6384 88.0398,21.1074 C85.4478,18.3174 82.8558,15.5264 80.2628,12.7364 C78.8358,11.2004 76.5418,13.5034 77.9648,15.0344" id="Fill-2045" fill="#1D1D1B"></path>
                <path d="M86.46,23.8234 C90.887,25.2824 95.314,26.7414 99.742,28.2004 C101.733,28.8554 102.587,25.7194 100.606,25.0654 C96.179,23.6074 91.751,22.1484 87.323,20.6894 C85.332,20.0344 84.479,23.1714 86.46,23.8234" id="Fill-2047" fill="#1D1D1B"></path>
                <path d="M99.3545,28.0363 C102.1225,29.2243 104.8905,30.4133 107.6585,31.6003 C109.5595,32.4173 111.2165,29.6183 109.2985,28.7953 C106.5305,27.6063 103.7625,26.4183 100.9955,25.2293 C99.0935,24.4133 97.4355,27.2123 99.3545,28.0363" id="Fill-2049" fill="#1D1D1B"></path>
                <path d="M107.6582,31.6008 C112.1272,33.5638 116.5952,35.5268 121.0632,37.4888 C122.9602,38.3218 124.6162,35.5228 122.7042,34.6818 C118.2352,32.7198 113.7662,30.7568 109.2992,28.7948 C107.4012,27.9618 105.7452,30.7608 107.6582,31.6008" id="Fill-2051" fill="#1D1D1B"></path>
                <path d="M120.7344,37.2346 C123.3174,40.1706 125.9014,43.1056 128.4844,46.0426 C129.8694,47.6156 132.1604,45.3086 130.7824,43.7446 C128.1994,40.8076 125.6164,37.8726 123.0324,34.9366 C121.6484,33.3636 119.3574,35.6696 120.7344,37.2346" id="Fill-2053" fill="#1D1D1B"></path>
                <path d="M128.0664,44.4611 C127.5054,46.3941 126.9444,48.3261 126.3834,50.2601 C125.7994,52.2731 128.9344,53.1321 129.5174,51.1231 C130.0794,49.1901 130.6394,47.2581 131.2004,45.3241 C131.7844,43.3131 128.6494,42.4531 128.0664,44.4611" id="Fill-2055" fill="#1D1D1B"></path>
                <path d="M126.8018,49.5422 L119.3018,57.3762 C117.8548,58.8872 120.1498,61.1882 121.5998,59.6742 C124.0998,57.0632 126.5998,54.4522 129.0998,51.8412 C130.5468,50.3302 128.2518,48.0282 126.8018,49.5422" id="Fill-2057" fill="#1D1D1B"></path>
                <path d="M119.3018,57.3762 C117.8338,58.6682 116.3648,59.9592 114.8978,61.2512 C113.3238,62.6362 115.6298,64.9272 117.1958,63.5492 C118.6638,62.2582 120.1318,60.9662 121.5998,59.6742 C123.1728,58.2902 120.8668,55.9992 119.3018,57.3762" id="Fill-2059" fill="#1D1D1B"></path>
                <path d="M116.0469,60.7756 C113.1419,60.5896 110.2369,60.4046 107.3319,60.2186 C105.2439,60.0856 105.2519,63.3366 107.3319,63.4686 C110.2369,63.6546 113.1419,63.8396 116.0469,64.0256 C118.1349,64.1586 118.1269,60.9086 116.0469,60.7756" id="Fill-2061" fill="#1D1D1B"></path>
                <path d="M106.9004,60.2766 C103.0854,61.7836 99.2704,63.2896 95.4554,64.7966 C93.5324,65.5546 94.3704,68.6996 96.3194,67.9296 C100.1334,66.4226 103.9494,64.9176 107.7644,63.4106 C109.6874,62.6516 108.8494,59.5066 106.9004,60.2766" id="Fill-2063" fill="#1D1D1B"></path>
                <path d="M95.8877,64.7375 L87.7987,64.6585 C85.7067,64.6385 85.7047,67.8875 87.7987,67.9085 L95.8877,67.9875 C97.9797,68.0085 97.9807,64.7585 95.8877,64.7375" id="Fill-2065" fill="#1D1D1B"></path>
                <path d="M88.2305,64.717 L76.3595,62.209 C74.3195,61.778 73.4475,64.909 75.4955,65.343 L87.3665,67.851 C89.4075,68.281 90.2795,65.15 88.2305,64.717" id="Fill-2067" fill="#1D1D1B"></path>
                <path d="M76.3594,62.2092 C74.1304,61.7022 71.9034,61.1942 69.6744,60.6882 C67.6384,60.2252 66.7694,63.3572 68.8114,63.8222 C71.0394,64.3292 73.2674,64.8362 75.4954,65.3432 C77.5324,65.8062 78.4014,62.6732 76.3594,62.2092" id="Fill-2069" fill="#1D1D1B"></path>
                <path d="M68.4229,60.8518 C64.7489,62.4408 61.0739,64.0288 57.4009,65.6168 C55.4849,66.4448 57.1389,69.2458 59.0399,68.4228 C62.7149,66.8348 66.3889,65.2468 70.0639,63.6588 C71.9789,62.8308 70.3249,60.0298 68.4229,60.8518" id="Fill-2071" fill="#1D1D1B"></path>
                <path d="M58.2197,65.3947 C54.2987,65.1447 50.3767,64.8937 46.4547,64.6437 C44.3667,64.5097 44.3747,67.7607 46.4547,67.8937 C50.3767,68.1437 54.2987,68.3947 58.2197,68.6447 C60.3087,68.7787 60.3007,65.5277 58.2197,65.3947" id="Fill-2073" fill="#1D1D1B"></path>
                <path d="M46.4551,64.6438 C40.6131,64.7808 34.7711,64.9178 28.9291,65.0558 C26.8411,65.1048 26.8331,68.3548 28.9291,68.3058 C34.7711,68.1678 40.6131,68.0308 46.4551,67.8938 C48.5441,67.8448 48.5511,64.5938 46.4551,64.6438" id="Fill-2075" fill="#1D1D1B"></path>
                <path d="M29.3613,65.1135 C24.6583,63.3915 19.9563,61.6695 15.2543,59.9475 C13.2863,59.2265 12.4383,62.3665 14.3893,63.0815 C19.0913,64.8025 23.7953,66.5255 28.4973,68.2475 C30.4643,68.9675 31.3123,65.8285 29.3613,65.1135" id="Fill-2077" fill="#1D1D1B"></path>
                <path d="M15.2539,59.9475 C13.7809,59.5975 12.3089,59.2485 10.8359,58.8995 C8.8029,58.4175 7.9349,61.5505 9.9719,62.0335 C11.4439,62.3825 12.9169,62.7315 14.3899,63.0815 C16.4229,63.5635 17.2909,60.4295 15.2539,59.9475" id="Fill-2079" fill="#1D1D1B"></path>
                <path d="M11.8076,59.6457 C9.0676,55.3147 6.3286,50.9837 3.5886,46.6527 C2.4736,44.8887 -0.3394,46.5177 0.7826,48.2927 C3.5216,52.6247 6.2616,56.9557 9.0006,61.2867 C10.1166,63.0487 12.9296,61.4197 11.8076,59.6457" id="Fill-2081" fill="#1D1D1B"></path>
                <path d="M18.3965,28.049 C18.2755,29.937 18.1555,31.825 18.0345,33.713 C17.9015,35.802 21.1515,35.794 21.2845,33.713 C21.4055,31.825 21.5255,29.937 21.6465,28.049 C21.7795,25.96 18.5295,25.969 18.3965,28.049" id="Fill-2083" fill="#1D1D1B"></path>
                <path d="M18.5107,34.8625 L22.4687,37.9595 C23.1587,38.4995 24.0937,38.6335 24.7667,37.9595 C25.3287,37.3965 25.4617,36.2045 24.7667,35.6615 L20.8087,32.5645 C20.1177,32.0245 19.1837,31.8905 18.5107,32.5645 C17.9487,33.1265 17.8157,34.3185 18.5107,34.8625" id="Fill-2085" fill="#1D1D1B"></path>
                <path d="M22.5674,36.9016 C22.6484,38.3096 22.7294,39.7186 22.8104,41.1286 C22.9304,43.2076 26.1814,43.2206 26.0604,41.1286 C25.9794,39.7186 25.8984,38.3096 25.8174,36.9016 C25.6974,34.8226 22.4474,34.8086 22.5674,36.9016" id="Fill-2087" fill="#1D1D1B"></path>
                <path d="M23.1855,38.3772 C30.0795,39.4742 36.9725,40.5692 43.8665,41.6662 C45.9135,41.9912 46.7935,38.8602 44.7305,38.5322 C37.8365,37.4362 30.9435,36.3392 24.0495,35.2432 C22.0035,34.9172 21.1225,38.0492 23.1855,38.3772" id="Fill-2089" fill="#1D1D1B"></path>
                <path d="M44.2988,38.4748 C38.8468,38.7828 33.3948,39.0908 27.9428,39.3988 C25.8628,39.5158 25.8498,42.7668 27.9428,42.6488 C33.3948,42.3408 38.8468,42.0328 44.2988,41.7248 C46.3778,41.6068 46.3918,38.3558 44.2988,38.4748" id="Fill-2091" fill="#1D1D1B"></path>
                <path d="M27.9424,39.3986 C25.0044,39.7216 22.0684,40.0446 19.1304,40.3676 C17.0744,40.5926 17.0504,43.8456 19.1304,43.6176 C22.0684,43.2946 25.0044,42.9716 27.9424,42.6486 C29.9994,42.4226 30.0224,39.1696 27.9424,39.3986" id="Fill-2093" fill="#1D1D1B"></path>
                <path d="M18.6992,40.425 C13.0502,42.252 7.4012,44.078 1.7532,45.905 C-0.2288,46.546 0.6192,49.686 2.6172,49.039 C8.2652,47.213 13.9142,45.386 19.5622,43.559 C21.5452,42.918 20.6972,39.779 18.6992,40.425" id="Fill-2095" fill="#1D1D1B"></path>
                <path d="M18.2549,38.8684 C18.0249,39.7654 17.7939,40.6634 17.5639,41.5594 C17.3529,42.3824 17.8329,43.3614 18.6989,43.5584 C19.5449,43.7524 20.4719,43.3054 20.6969,42.4244 C20.9279,41.5264 21.1579,40.6304 21.3889,39.7324 C21.6009,38.9104 21.1199,37.9314 20.2539,37.7334 C19.4069,37.5414 18.4819,37.9874 18.2549,38.8684" id="Fill-2097" fill="#1D1D1B"></path>
                <path d="M18.0342,33.7131 C18.0892,35.5751 18.1422,37.4391 18.1972,39.3011 C18.2582,41.3881 21.5082,41.3971 21.4472,39.3011 C21.3922,37.4391 21.3392,35.5751 21.2842,33.7131 C21.2232,31.6261 17.9732,31.6171 18.0342,33.7131" id="Fill-2099" fill="#1D1D1B"></path>
                <path d="M44.2988,41.7248 C46.0578,41.5808 47.8178,41.4368 49.5758,41.2928 C51.6468,41.1238 51.6638,37.8728 49.5758,38.0428 C47.8178,38.1868 46.0578,38.3308 44.2988,38.4748 C42.2288,38.6438 42.2108,41.8948 44.2988,41.7248" id="Fill-2101" fill="#1D1D1B"></path>
                <path d="M60.1338,45.384 C61.9548,44.844 63.7758,44.304 65.5968,43.764 C67.5978,43.17 66.7448,40.032 64.7328,40.629 C62.9118,41.17 61.0908,41.71 59.2698,42.25 C57.2698,42.844 58.1208,45.982 60.1338,45.384" id="Fill-2103" fill="#1D1D1B"></path>
                <path d="M49.1445,41.2355 L59.2695,45.3835 C61.2045,46.1765 62.0455,43.0345 60.1335,42.2505 C56.7585,40.8675 53.3835,39.4845 50.0075,38.1015 C48.0745,37.3085 47.2315,40.4525 49.1445,41.2355" id="Fill-2105" fill="#1D1D1B"></path>
                <path d="M65.9854,43.5998 C68.6084,41.9088 71.2324,40.2168 73.8564,38.5258 C75.6084,37.3958 73.9804,34.5808 72.2154,35.7188 C69.5914,37.4108 66.9684,39.1018 64.3444,40.7928 C62.5924,41.9228 64.2194,44.7378 65.9854,43.5998" id="Fill-2107" fill="#1D1D1B"></path>
                <path d="M73.4678,38.6887 C75.4888,37.8707 77.5098,37.0507 79.5308,36.2327 C80.3508,35.9007 80.9078,35.1537 80.6658,34.2337 C80.4618,33.4597 79.4798,32.7697 78.6668,33.0987 C76.6458,33.9177 74.6248,34.7367 72.6038,35.5547 C71.7838,35.8867 71.2268,36.6347 71.4688,37.5537 C71.6728,38.3287 72.6558,39.0177 73.4678,38.6887" id="Fill-2109" fill="#1D1D1B"></path>
                <path d="M80.248,35.8147 C81.926,34.0987 83.602,32.3827 85.28,30.6677 C86.743,29.1697 84.447,26.8707 82.981,28.3697 C81.305,30.0857 79.627,31.8007 77.95,33.5167 C76.486,35.0127 78.783,37.3137 80.248,35.8147" id="Fill-2111" fill="#1D1D1B"></path>
                <path d="M85.6982,29.0861 C85.0422,27.0751 84.3862,25.0651 83.7312,23.0541 C83.0862,21.0741 79.9462,21.9221 80.5972,23.9181 L82.5632,29.9501 C83.2092,31.9301 86.3482,31.0821 85.6982,29.0861" id="Fill-2113" fill="#1D1D1B"></path>
                <path d="M83.3135,22.3371 C82.1785,20.9881 81.0425,19.6401 79.9085,18.2911 C79.3415,17.6191 78.1935,17.7081 77.6095,18.2911 C76.9445,18.9571 77.0425,19.9161 77.6095,20.5901 C78.7455,21.9391 79.8795,23.2861 81.0155,24.6351 C81.5815,25.3071 82.7305,25.2191 83.3135,24.6351 C83.9785,23.9701 83.8805,23.0111 83.3135,22.3371" id="Fill-2115" fill="#1D1D1B"></path>
                <path d="M80.3262,19.009 C79.9182,16.831 79.5102,14.654 79.1022,12.476 C78.7182,10.423 75.5852,11.292 75.9692,13.34 C76.3762,15.518 76.7842,17.696 77.1912,19.872 C77.5762,21.926 80.7092,21.056 80.3262,19.009" id="Fill-2117" fill="#1D1D1B"></path>
                <path d="M86.0713,23.6604 C90.0903,26.1034 94.1083,28.5484 98.1273,30.9924 C99.9183,32.0824 101.5533,29.2724 99.7663,28.1854 C95.7483,25.7424 91.7303,23.2984 87.7123,20.8534 C85.9203,19.7644 84.2853,22.5734 86.0713,23.6604" id="Fill-2119" fill="#1D1D1B"></path>
                <path d="M97.7979,30.7385 C98.1239,31.0505 98.4499,31.3635 98.7769,31.6755 C99.3919,32.2635 100.4729,32.3325 101.0749,31.6755 C101.6599,31.0395 101.7309,30.0065 101.0749,29.3785 C100.7489,29.0655 100.4219,28.7535 100.0959,28.4405 C99.4819,27.8515 98.4009,27.7845 97.7979,28.4405 C97.2129,29.0775 97.1419,30.1105 97.7979,30.7385" id="Fill-2121" fill="#1D1D1B"></path>
                <path d="M99.1055,29.1232 C97.6685,29.9432 96.2305,30.7632 94.7925,31.5822 C92.9755,32.6182 94.6115,35.4272 96.4325,34.3892 C97.8705,33.5692 99.3085,32.7492 100.7465,31.9302 C102.5625,30.8942 100.9275,28.0852 99.1055,29.1232" id="Fill-2123" fill="#1D1D1B"></path>
                <path d="M95.1807,31.4191 C93.7887,31.8041 92.3977,32.1891 91.0047,32.5741 C88.9927,33.1311 89.8467,36.2681 91.8687,35.7081 C93.2607,35.3221 94.6527,34.9381 96.0447,34.5531 C98.0577,33.9951 97.2027,30.8591 95.1807,31.4191" id="Fill-2125" fill="#1D1D1B"></path>
                <path d="M79.0986,36.2902 C80.6606,36.3902 82.2216,36.4902 83.7836,36.5902 C85.8706,36.7232 85.8636,33.4732 83.7836,33.3402 C82.2216,33.2402 80.6606,33.1402 79.0986,33.0402 C77.0106,32.9072 77.0186,36.1572 79.0986,36.2902" id="Fill-2127" fill="#1D1D1B"></path>
                <path d="M56.3955,50.9982 C58.1015,51.3982 59.8085,51.7992 61.5145,52.1992 C63.5485,52.6772 64.4165,49.5442 62.3775,49.0652 C60.6715,48.6652 58.9655,48.2652 57.2595,47.8632 C55.2255,47.3862 54.3575,50.5192 56.3955,50.9982" id="Fill-2129" fill="#1D1D1B"></path>
                <path d="M66.0361,56.5061 L71.9801,61.0411 C72.6831,61.5781 73.7931,61.1461 74.2041,60.4581 C74.7011,59.6281 74.3151,58.7651 73.6211,58.2351 C71.6401,56.7241 69.6581,55.2111 67.6771,53.6991 C66.9731,53.1631 65.8641,53.5951 65.4531,54.2821 C64.9561,55.1121 65.3421,55.9761 66.0361,56.5061" id="Fill-2131" fill="#1D1D1B"></path>
                <path d="M72.3691,61.2053 C75.4711,61.7313 78.5721,62.2583 81.6751,62.7843 C83.7211,63.1313 84.5991,60.0003 82.5381,59.6503 L73.2331,58.0713 C71.1871,57.7253 70.3071,60.8553 72.3691,61.2053" id="Fill-2133" fill="#1D1D1B"></path>
                <path d="M81.6748,62.7844 C84.1628,63.4904 86.6528,64.1954 89.1408,64.9014 C91.1558,65.4724 92.0168,62.3384 90.0048,61.7674 C87.5158,61.0614 85.0278,60.3554 82.5378,59.6504 C80.5228,59.0784 79.6618,62.2134 81.6748,62.7844" id="Fill-2135" fill="#1D1D1B"></path>
                <path d="M90.0049,64.9016 C92.8019,64.2056 95.5989,63.5086 98.3969,62.8126 C100.4249,62.3076 99.5659,59.1726 97.5319,59.6786 C94.7349,60.3756 91.9379,61.0716 89.1409,61.7676 C87.1119,62.2726 87.9719,65.4076 90.0049,64.9016" id="Fill-2137" fill="#1D1D1B"></path>
                <path d="M97.9639,62.8703 C101.0869,63.0693 104.2099,63.2693 107.3319,63.4693 C109.4209,63.6013 109.4129,60.3513 107.3319,60.2193 C104.2099,60.0193 101.0869,59.8193 97.9639,59.6203 C95.8759,59.4873 95.8839,62.7373 97.9639,62.8703" id="Fill-2139" fill="#1D1D1B"></path>
                <path d="M108.4814,62.9924 C109.2524,62.3484 110.0214,61.7064 110.7924,61.0624 C111.4474,60.5144 111.3994,59.3214 110.7924,58.7634 C110.0954,58.1254 109.1924,58.1804 108.4944,58.7634 C107.7234,59.4074 106.9534,60.0514 106.1834,60.6944 C105.5284,61.2414 105.5764,62.4354 106.1834,62.9924 C106.8794,63.6324 107.7824,63.5764 108.4814,62.9924" id="Fill-2141" fill="#1D1D1B"></path>
                <path d="M111.0459,60.7336 C112.1989,58.9476 113.3529,57.1626 114.5059,55.3766 C115.6439,53.6136 112.8309,51.9826 111.6989,53.7356 C110.5459,55.5216 109.3929,57.3066 108.2399,59.0926 C107.1019,60.8556 109.9139,62.4866 111.0459,60.7336" id="Fill-2143" fill="#1D1D1B"></path>
                <path d="M113.9229,53.1525 C112.9199,52.5785 111.9179,52.0045 110.9149,51.4295 C109.0979,50.3875 107.4589,53.1945 109.2759,54.2355 C110.2769,54.8105 111.2799,55.3845 112.2819,55.9595 C114.0999,57.0015 115.7389,54.1935 113.9229,53.1525" id="Fill-2145" fill="#1D1D1B"></path>
                <path d="M110.5273,51.2658 C106.7313,50.1848 102.9363,49.1038 99.1403,48.0228 C97.1253,47.4498 96.2653,50.5838 98.2763,51.1568 C102.0723,52.2378 105.8673,53.3188 109.6633,54.3998 C111.6783,54.9738 112.5383,51.8378 110.5273,51.2658" id="Fill-2147" fill="#1D1D1B"></path>
                <path d="M99.8574,48.4406 L95.9754,44.1456 C94.5704,42.5906 92.2774,44.8946 93.6774,46.4446 C94.9714,47.8766 96.2654,49.3066 97.5594,50.7386 C98.9644,52.2946 101.2574,49.9896 99.8574,48.4406" id="Fill-2149" fill="#1D1D1B"></path>
                <path d="M95.6465,43.8918 C94.6445,43.1718 93.6425,42.4518 92.6395,41.7308 C91.9265,41.2188 90.8305,41.6068 90.4175,42.3138 C89.9385,43.1318 90.2855,44.0238 91.0005,44.5378 C92.0015,45.2578 93.0035,45.9778 94.0055,46.6988 C94.7195,47.2108 95.8165,46.8228 96.2295,46.1158 C96.7085,45.2968 96.3615,44.4058 95.6465,43.8918" id="Fill-2151" fill="#1D1D1B"></path>
                <path d="M93.3867,42.7023 C92.6747,40.5783 91.9627,38.4553 91.2507,36.3313 C90.5887,34.3583 87.4497,35.2043 88.1167,37.1953 C88.8287,39.3183 89.5407,41.4423 90.2527,43.5663 C90.9137,45.5393 94.0547,44.6933 93.3867,42.7023" id="Fill-2153" fill="#1D1D1B"></path>
                <path d="M90.1162,35.1965 C88.1482,34.5965 86.1812,33.9975 84.2152,33.3975 C82.2102,32.7865 81.3522,35.9225 83.3502,36.5315 C85.3182,37.1315 87.2852,37.7305 89.2522,38.3305 C91.2572,38.9415 92.1142,35.8055 90.1162,35.1965" id="Fill-2155" fill="#1D1D1B"></path>
                <path d="M80.7617,24.3068 C82.1797,26.3658 83.5977,28.4248 85.0157,30.4848 C86.1947,32.1968 89.0117,30.5728 87.8217,28.8438 C86.4037,26.7848 84.9857,24.7258 83.5677,22.6658 C82.3887,20.9538 79.5717,22.5778 80.7617,24.3068" id="Fill-2157" fill="#1D1D1B"></path>
                <path d="M85.2695,30.8137 L90.2885,35.2907 C91.8445,36.6787 94.1515,34.3877 92.5855,32.9927 C90.9135,31.5007 89.2405,30.0067 87.5675,28.5147 C86.0105,27.1267 83.7055,29.4177 85.2695,30.8137" id="Fill-2159" fill="#1D1D1B"></path>
                <path d="M90.0342,33.3205 C89.4492,34.1945 88.8652,35.0695 88.2802,35.9435 C87.8062,36.6515 88.1202,37.7735 88.8632,38.1665 C89.6812,38.5985 90.5812,38.3405 91.0872,37.5835 C91.6722,36.7095 92.2562,35.8355 92.8412,34.9615 C93.3142,34.2535 93.0012,33.1315 92.2582,32.7375 C91.4392,32.3055 90.5392,32.5645 90.0342,33.3205" id="Fill-2161" fill="#1D1D1B"></path>
                <path d="M110.168,36.0383 C113.929,36.5763 117.69,37.1143 121.451,37.6523 C123.497,37.9453 124.381,34.8133 122.315,34.5183 C118.555,33.9803 114.793,33.4423 111.032,32.9043 C108.986,32.6113 108.103,35.7423 110.168,36.0383" id="Fill-2163" fill="#1D1D1B"></path>
                <path d="M99.4941,32.0939 C103.0521,33.4079 106.6091,34.7229 110.1681,36.0379 C112.1331,36.7639 112.9801,33.6239 111.0321,32.9049 C107.4731,31.5889 103.9161,30.2749 100.3571,28.9599 C98.3931,28.2339 97.5461,31.3739 99.4941,32.0939" id="Fill-2165" fill="#1D1D1B"></path>
                <path d="M113.9229,55.9592 C115.8419,54.7322 117.7619,53.5062 119.6809,52.2792 C121.4389,51.1572 119.8109,48.3432 118.0409,49.4742 C116.1209,50.7002 114.2019,51.9262 112.2819,53.1522 C110.5249,54.2752 112.1529,57.0902 113.9229,55.9592" id="Fill-2167" fill="#1D1D1B"></path>
                <path d="M119.293,52.4436 C121.392,52.1226 123.49,51.7996 125.589,51.4776 C126.463,51.3436 126.929,50.2556 126.724,49.4786 C126.479,48.5496 125.588,48.2126 124.725,48.3436 C122.626,48.6666 120.527,48.9886 118.429,49.3096 C117.555,49.4436 117.089,50.5316 117.294,51.3086 C117.539,52.2386 118.43,52.5766 119.293,52.4436" id="Fill-2169" fill="#1D1D1B"></path>
                <path d="M126.3057,51.0598 C127.7977,49.3878 129.2897,47.7148 130.7827,46.0418 C132.1707,44.4858 129.8807,42.1788 128.4847,43.7448 C126.9927,45.4158 125.4997,47.0888 124.0077,48.7618 C122.6187,50.3188 124.9097,52.6248 126.3057,51.0598" id="Fill-2171" fill="#1D1D1B"></path>
                <path d="M123.7539,49.091 C120.7169,53.254 117.6809,57.417 114.6439,61.58 C113.4089,63.272 116.2289,64.896 117.4499,63.221 C120.4859,59.058 123.5239,54.895 126.5599,50.732 C127.7939,49.039 124.9759,47.416 123.7539,49.091" id="Fill-2173" fill="#1D1D1B"></path>
                <path d="M96.4512,45.2951 C96.5022,44.6421 96.5532,43.9891 96.6032,43.3361 C96.6702,42.4861 95.8092,41.6741 94.9782,41.7111 C94.0422,41.7531 93.4252,42.4261 93.3532,43.3361 C93.3032,43.9891 93.2522,44.6421 93.2012,45.2951 C93.1362,46.1451 93.9962,46.9571 94.8262,46.9201 C95.7642,46.8781 96.3812,46.2051 96.4512,45.2951" id="Fill-2175" fill="#1D1D1B"></path>
                <path d="M96.1279,44.4855 C97.6009,42.9745 99.0729,41.4645 100.5459,39.9545 C102.0079,38.4565 99.7119,36.1565 98.2479,37.6565 C96.7749,39.1675 95.3029,40.6765 93.8299,42.1865 C92.3679,43.6855 94.6639,45.9855 96.1279,44.4855" id="Fill-2177" fill="#1D1D1B"></path>
                <path d="M98.9648,40.3723 C102.4568,41.0693 105.9488,41.7673 109.4418,42.4633 C111.4838,42.8713 112.3578,39.7393 110.3048,39.3293 C106.8138,38.6333 103.3208,37.9353 99.8288,37.2383 C97.7868,36.8313 96.9118,39.9633 98.9648,40.3723" id="Fill-2179" fill="#1D1D1B"></path>
                <path d="M109.873,42.5217 C114.727,41.8837 119.58,41.2457 124.433,40.6077 C126.477,40.3387 126.504,37.0847 124.433,37.3577 C119.58,37.9957 114.727,38.6337 109.873,39.2717 C107.829,39.5407 107.803,42.7937 109.873,42.5217" id="Fill-2181" fill="#1D1D1B"></path>
                <path d="M111.498,40.8967 C111.74,38.7547 111.982,36.6127 112.225,34.4707 C112.459,32.3967 109.208,32.4137 108.975,34.4707 C108.732,36.6127 108.49,38.7547 108.248,40.8967 C108.014,42.9717 111.266,42.9547 111.498,40.8967" id="Fill-2183" fill="#1D1D1B"></path>
                <path d="M98.3594,30.0949 C97.8764,32.2309 97.3934,34.3659 96.9114,36.5009 C96.4504,38.5369 99.5834,39.4079 100.0454,37.3649 C100.5274,35.2299 101.0094,33.0939 101.4934,30.9589 C101.9534,28.9219 98.8204,28.0519 98.3594,30.0949" id="Fill-2185" fill="#1D1D1B"></path>
                <path d="M97.0742,36.1125 C95.9082,38.2475 94.7422,40.3815 93.5762,42.5155 C92.5722,44.3515 95.3782,45.9945 96.3822,44.1565 C97.5492,42.0215 98.7152,39.8875 99.8812,37.7535 C100.8842,35.9175 98.0792,34.2745 97.0742,36.1125" id="Fill-2187" fill="#1D1D1B"></path>
                <path d="M27.9424,42.6486 C33.3524,42.9946 38.7624,43.3396 44.1734,43.6846 C46.2614,43.8186 46.2544,40.5676 44.1734,40.4346 C38.7624,40.0896 33.3524,39.7446 27.9424,39.3986 C25.8544,39.2646 25.8624,42.5156 27.9424,42.6486" id="Fill-2189" fill="#1D1D1B"></path>
                <path d="M42.7705,42.8801 C43.5405,44.5331 44.3095,46.1871 45.0785,47.8401 C45.4495,48.6361 46.5945,48.8371 47.3015,48.4231 C48.1185,47.9461 48.2565,46.9981 47.8845,46.2001 L45.5765,41.2401 C45.2065,40.4441 44.0605,40.2431 43.3535,40.6571 C42.5375,41.1341 42.3985,42.0811 42.7705,42.8801" id="Fill-2191" fill="#1D1D1B"></path>
                <path d="M45.333,45.8713 C44.027,47.4653 42.723,49.0593 41.418,50.6523 C40.862,51.3313 40.754,52.2863 41.418,52.9503 C41.991,53.5233 43.157,53.6333 43.716,52.9503 C45.021,51.3563 46.326,49.7633 47.631,48.1693 C48.187,47.4903 48.295,46.5353 47.631,45.8713 C47.058,45.2983 45.892,45.1883 45.333,45.8713" id="Fill-2193" fill="#1D1D1B"></path>
                <path d="M41.1641,50.9816 C40.2221,52.8896 39.2791,54.7976 38.3371,56.7076 C37.4141,58.5766 40.2171,60.2246 41.1431,58.3466 C42.0861,56.4386 43.0281,54.5306 43.9701,52.6216 C44.8931,50.7526 42.0911,49.1036 41.1641,50.9816" id="Fill-2195" fill="#1D1D1B"></path>
                <path d="M38.9199,56.1242 C35.7979,58.4952 32.6749,60.8652 29.5519,63.2362 C27.9069,64.4852 29.5239,67.3092 31.1919,66.0432 C34.3149,63.6722 37.4379,61.3012 40.5609,58.9302 C42.2049,57.6822 40.5879,54.8582 38.9199,56.1242" id="Fill-2197" fill="#1D1D1B"></path>
                <path d="M30.3721,63.0148 C27.5401,62.8338 24.7081,62.6538 21.8751,62.4718 C19.7871,62.3388 19.7951,65.5888 21.8751,65.7218 C24.7081,65.9038 27.5401,66.0838 30.3721,66.2648 C32.4601,66.3988 32.4521,63.1478 30.3721,63.0148" id="Fill-2199" fill="#1D1D1B"></path>
                <path d="M29.5518,66.0432 C30.9148,66.6802 32.2778,67.3162 33.6408,67.9532 C34.4358,68.3252 35.3928,68.1772 35.8638,67.3702 C36.2758,66.6662 36.0798,65.5212 35.2808,65.1472 C33.9178,64.5112 32.5548,63.8732 31.1928,63.2362 C30.3978,62.8652 29.4408,63.0142 28.9688,63.8192 C28.5568,64.5232 28.7528,65.6702 29.5518,66.0432" id="Fill-2201" fill="#1D1D1B"></path>
                <path d="M46.4814,48.6447 C48.1314,48.4957 49.7824,48.3457 51.4324,48.1957 C53.4984,48.0077 53.5174,44.7557 51.4324,44.9457 C49.7824,45.0957 48.1314,45.2457 46.4814,45.3947 C44.4164,45.5817 44.3954,48.8337 46.4814,48.6447" id="Fill-2203" fill="#1D1D1B"></path>
                <path d="M50.6123,47.9738 C52.4103,48.9268 54.2093,49.8808 56.0083,50.8338 C57.8543,51.8128 59.4993,49.0088 57.6473,48.0278 C55.8493,47.0748 54.0503,46.1208 52.2533,45.1668 C50.4053,44.1888 48.7613,46.9928 50.6123,47.9738" id="Fill-2205" fill="#1D1D1B"></path>
                <path d="M55.2607,49.8625 L57.3697,56.2315 C58.0247,58.2085 61.1637,57.3615 60.5037,55.3685 L58.3947,48.9995 C57.7397,47.0225 54.6007,47.8695 55.2607,49.8625" id="Fill-2207" fill="#1D1D1B"></path>
                <path d="M57.7881,56.9494 C59.4481,58.9144 61.1091,60.8804 62.7701,62.8454 C64.1221,64.4444 66.4111,62.1364 65.0681,60.5474 C63.4071,58.5824 61.7471,56.6164 60.0861,54.6504 C58.7341,53.0514 56.4451,55.3604 57.7881,56.9494" id="Fill-2209" fill="#1D1D1B"></path>
                <path d="M62.7705,60.5471 C60.8715,62.3211 58.9705,64.0961 57.0715,65.8711 C55.5395,67.3021 57.8405,69.5961 59.3695,68.1691 C61.2685,66.3951 63.1685,64.6201 65.0685,62.8451 C66.6005,61.4141 64.2985,59.1201 62.7705,60.5471" id="Fill-2211" fill="#1D1D1B"></path>
                <path d="M63.9199,63.3215 C65.8069,63.1685 67.6939,63.0155 69.5819,62.8625 C71.6519,62.6945 71.6699,59.4435 69.5819,59.6125 C67.6939,59.7655 65.8069,59.9185 63.9199,60.0715 C61.8499,60.2395 61.8309,63.4905 63.9199,63.3215" id="Fill-2213" fill="#1D1D1B"></path>
                <path d="M70.4014,62.6408 L73.6214,61.0408 C74.4074,60.6518 74.6264,59.5388 74.2044,58.8188 C73.7354,58.0178 72.7694,57.8438 71.9804,58.2358 C70.9074,58.7688 69.8354,59.3008 68.7614,59.8338 C67.9754,60.2248 67.7564,61.3368 68.1784,62.0578 C68.6464,62.8588 69.6134,63.0328 70.4014,62.6408" id="Fill-2215" fill="#1D1D1B"></path>
                <path d="M68.0049,53.9533 C66.3689,52.4643 64.7329,50.9743 63.0959,49.4833 C61.5519,48.0783 59.2469,50.3703 60.7969,51.7813 C62.4339,53.2713 64.0699,54.7623 65.7069,56.2513 C67.2509,57.6573 69.5559,55.3653 68.0049,53.9533" id="Fill-2217" fill="#1D1D1B"></path>
                <path d="M63.5137,50.2004 C62.7657,47.9294 62.0167,45.6574 61.2687,43.3864 C60.6177,41.4084 57.4787,42.2554 58.1347,44.2494 C58.8827,46.5214 59.6307,48.7934 60.3797,51.0644 C61.0307,53.0424 64.1697,52.1954 63.5137,50.2004" id="Fill-2219" fill="#1D1D1B"></path>
            </g>
            <g id="small-stone" transform="translate(180.000000, 235.000000)">
                <path d="M5.7451,22.8098 C10.8691,28.2018 19.3321,27.3158 26.0761,27.2398 C27.3161,27.2258 28.3281,26.8858 29.2121,26.4028 L31.7021,26.4028 C33.6791,27.4328 35.7681,27.0398 37.4921,25.8698 C42.6221,23.7518 42.5861,15.5758 37.4041,13.5198 C34.9991,10.9408 32.4531,8.5388 29.6131,6.4018 C27.8201,5.0528 25.2061,3.8848 22.9311,3.9918 C21.5981,4.0548 20.3111,4.2318 19.0081,4.5148 C18.7661,4.5878 18.5261,4.6728 18.2851,4.7488 C15.8591,3.5678 12.9281,3.5398 10.8491,5.8738 C10.5031,6.2868 10.1341,6.6768 9.7411,7.0438 C9.3191,7.4638 8.9931,7.9188 8.7141,8.3848 C7.3371,9.8398 5.8271,11.1388 4.6941,12.9048 C2.7591,15.9198 3.3251,20.2638 5.7451,22.8098" id="Fill-2011" fill="#D42314"></path>
                <path d="M5.7451,22.8098 C10.8691,28.2018 19.3321,27.3158 26.0761,27.2398 C27.3161,27.2258 28.3281,26.8858 29.2121,26.4028 L31.7021,26.4028 C33.6791,27.4328 35.7681,27.0398 37.4921,25.8698 C42.6221,23.7518 42.5861,15.5758 37.4041,13.5198 C34.9991,10.9408 32.4531,8.5388 29.6131,6.4018 C27.8201,5.0528 25.2061,3.8848 22.9311,3.9918 C21.5981,4.0548 20.3111,4.2318 19.0081,4.5148 C18.7661,4.5878 18.5261,4.6728 18.2851,4.7488 C15.8591,3.5678 12.9281,3.5398 10.8491,5.8738 C10.5031,6.2868 10.1341,6.6768 9.7411,7.0438 C9.3191,7.4638 8.9931,7.9188 8.7141,8.3848 C7.3371,9.8398 5.8271,11.1388 4.6941,12.9048 C2.7591,15.9198 3.3251,20.2638 5.7451,22.8098 Z" id="Stroke-2013" stroke="#000000" stroke-width="0.65"></path>
                <path d="M5.8184,21.5441 C5.2094,20.2731 4.5984,19.0031 3.9894,17.7331 C3.6094,16.9411 2.4794,16.7321 1.7654,17.1501 C0.9574,17.6231 0.8014,18.5791 1.1824,19.3731 C1.7934,20.6441 2.4024,21.9141 3.0114,23.1851 C3.3914,23.9761 4.5214,24.1851 5.2354,23.7681 C6.0444,23.2941 6.1994,22.3381 5.8184,21.5441" id="Fill-2221" fill="#1D1D1B"></path>
                <path d="M4.1533,18.9855 C4.7623,16.6985 5.3723,14.4125 5.9823,12.1265 C6.5213,10.1025 3.3873,9.2395 2.8483,11.2615 C2.2383,13.5485 1.6293,15.8355 1.0193,18.1215 C0.4793,20.1445 3.6133,21.0065 4.1533,18.9855" id="Fill-2223" fill="#1D1D1B"></path>
                <path d="M5.5645,12.843 C8.0535,10.303 10.5435,7.762 13.0335,5.222 C14.4985,3.727 12.2025,1.426 10.7355,2.923 C8.2465,5.464 5.7555,8.004 3.2665,10.545 C1.8005,12.04 4.0975,14.34 5.5645,12.843" id="Fill-2225" fill="#1D1D1B"></path>
                <path d="M12.3164,5.6389 C15.5384,4.9919 18.7604,4.3439 21.9824,3.6959 C24.0314,3.2839 23.1644,0.1509 21.1194,0.5619 C17.8964,1.2099 14.6744,1.8579 11.4524,2.5049 C9.4034,2.9169 10.2704,6.0509 12.3164,5.6389" id="Fill-2227" fill="#1D1D1B"></path>
                <path d="M21.5508,3.7541 C23.6138,3.9951 25.6748,4.2361 27.7378,4.4781 C28.6158,4.5811 29.3538,3.6571 29.3628,2.8531 C29.3718,1.8901 28.6058,1.3291 27.7378,1.2281 C25.6748,0.9861 23.6138,0.7451 21.5508,0.5041 C20.6718,0.4001 19.9348,1.3241 19.9258,2.1291 C19.9158,3.0911 20.6828,3.6521 21.5508,3.7541" id="Fill-2229" fill="#1D1D1B"></path>
                <path d="M26.334,3.673 C27.605,5.35 28.875,7.027 30.145,8.703 C30.674,9.402 31.547,9.767 32.368,9.286 C33.056,8.884 33.484,7.767 32.951,7.063 C31.681,5.386 30.411,3.709 29.141,2.032 C28.611,1.334 27.738,0.969 26.917,1.449 C26.23,1.852 25.801,2.969 26.334,3.673" id="Fill-2231" fill="#1D1D1B"></path>
                <path d="M31.1162,9.4504 C32.6912,10.0594 34.2662,10.6694 35.8422,11.2794 C36.6602,11.5964 37.6252,10.9294 37.8412,10.1444 C38.0932,9.2254 37.5272,8.4634 36.7052,8.1454 C35.1302,7.5354 33.5552,6.9264 31.9802,6.3164 C31.1612,5.9994 30.1972,6.6654 29.9812,7.4514 C29.7282,8.3694 30.2952,9.1324 31.1162,9.4504" id="Fill-2233" fill="#1D1D1B"></path>
                <path d="M34.8701,10.5324 C36.4451,12.9974 38.0201,15.4614 39.5961,17.9254 C40.7191,19.6824 43.5331,18.0534 42.4021,16.2854 C40.8271,13.8204 39.2521,11.3564 37.6771,8.8914 C36.5541,7.1354 33.7391,8.7624 34.8701,10.5324" id="Fill-2235" fill="#1D1D1B"></path>
                <path d="M3.5947,23.7678 C6.0847,25.3928 8.5737,27.0188 11.0647,28.6448 C12.8207,29.7918 14.4507,26.9798 12.7037,25.8388 C10.2147,24.2128 7.7257,22.5868 5.2357,20.9608 C3.4797,19.8138 1.8487,22.6268 3.5947,23.7678" id="Fill-2237" fill="#1D1D1B"></path>
                <path d="M12.3164,28.8088 C16.0254,28.2498 19.7344,27.6908 23.4444,27.1318 C25.5044,26.8218 24.6294,23.6898 22.5804,23.9978 C18.8714,24.5568 15.1614,25.1168 11.4524,25.6748 C9.3914,25.9858 10.2664,29.1178 12.3164,28.8088" id="Fill-2239" fill="#1D1D1B"></path>
                <path d="M24.5869,28.8088 L28.6499,27.9708 C29.5109,27.7928 30.0069,26.7788 29.7849,25.9718 C29.5399,25.0788 28.6489,24.6588 27.7859,24.8368 C26.4319,25.1168 25.0769,25.3958 23.7239,25.6748 C22.8629,25.8528 22.3659,26.8678 22.5879,27.6738 C22.8339,28.5668 23.7249,28.9868 24.5869,28.8088" id="Fill-2241" fill="#1D1D1B"></path>
                <path d="M11.8848,28.8674 L24.1558,28.8674 C26.2458,28.8674 26.2498,25.6174 24.1558,25.6174 L11.8848,25.6174 C9.7928,25.6174 9.7898,28.8674 11.8848,28.8674" id="Fill-2243" fill="#1D1D1B"></path>
                <path d="M31.5225,28.3898 C33.2505,27.9708 34.9775,27.5508 36.7055,27.1318 C38.7375,26.6388 37.8765,23.5038 35.8415,23.9978 C34.1145,24.4168 32.3865,24.8368 30.6595,25.2558 C28.6265,25.7488 29.4875,28.8838 31.5225,28.3898" id="Fill-2245" fill="#1D1D1B"></path>
                <path d="M36.7051,27.132 L40.3641,26.37 C41.2241,26.191 41.7211,25.179 41.4991,24.371 C41.2541,23.48 40.3621,23.057 39.5001,23.236 C38.2801,23.49 37.0601,23.744 35.8421,23.998 C34.9811,24.177 34.4841,25.19 34.7061,25.997 C34.9511,26.889 35.8441,27.312 36.7051,27.132" id="Fill-2247" fill="#1D1D1B"></path>
                <path d="M41.0811,25.9523 C41.9951,24.8853 42.9101,23.8183 43.8241,22.7513 C44.3951,22.0853 44.4781,21.1063 43.8241,20.4533 C43.2401,19.8683 42.1011,19.7833 41.5261,20.4533 C40.6121,21.5193 39.6971,22.5873 38.7831,23.6543 C38.2121,24.3193 38.1291,25.2983 38.7831,25.9523 C39.3671,26.5363 40.5071,26.6213 41.0811,25.9523" id="Fill-2249" fill="#1D1D1B"></path>
                <path d="M44.2422,21.1701 C43.6832,19.6711 43.1252,18.1721 42.5652,16.6731 C42.2602,15.8521 41.4672,15.2911 40.5662,15.5381 C39.7772,15.7551 39.1242,16.7111 39.4312,17.5371 C39.9912,19.0361 40.5502,20.5351 41.1082,22.0341 C41.4152,22.8561 42.2082,23.4161 43.1072,23.1691 C43.8972,22.9521 44.5512,21.9961 44.2422,21.1701" id="Fill-2251" fill="#1D1D1B"></path>
                <path d="M20.7305,3.5324 C22.1195,4.1794 23.5085,4.8274 24.8975,5.4754 C25.6925,5.8454 26.6495,5.6984 27.1215,4.8924 C27.5325,4.1884 27.3365,3.0424 26.5385,2.6694 C25.1485,2.0214 23.7595,1.3734 22.3715,0.7254 C21.5765,0.3544 20.6195,0.5024 20.1475,1.3084 C19.7365,2.0114 19.9315,3.1594 20.7305,3.5324" id="Fill-2253" fill="#1D1D1B"></path>
                <path d="M24.1504,4.5041 C24.5094,5.7751 24.8684,7.0451 25.2274,8.3161 C25.7954,10.3241 28.9314,9.4711 28.3614,7.4511 C28.0024,6.1811 27.6434,4.9101 27.2844,3.6411 C26.7164,1.6311 23.5804,2.4841 24.1504,4.5041" id="Fill-2255" fill="#1D1D1B"></path>
                <path d="M22.752,14.2287 C23.946,16.5797 25.14,18.9287 26.334,21.2787 C27.282,23.1437 30.087,21.5007 29.141,19.6387 C27.946,17.2887 26.752,14.9387 25.559,12.5887 C24.61,10.7237 21.806,12.3667 22.752,14.2287" id="Fill-2257" fill="#1D1D1B"></path>
                <path d="M25.3906,7.0627 C24.5116,8.9047 23.6316,10.7467 22.7516,12.5887 C21.8556,14.4667 24.6566,16.1177 25.5586,14.2287 C26.4376,12.3867 27.3176,10.5447 28.1976,8.7037 C29.0936,6.8257 26.2926,5.1737 25.3906,7.0627" id="Fill-2259" fill="#1D1D1B"></path>
                <path d="M26.5879,19.3098 C25.0129,21.0118 23.4379,22.7138 21.8629,24.4158 C20.4439,25.9498 22.7359,28.2528 24.1609,26.7138 L28.8869,21.6078 C30.3059,20.0748 28.0129,17.7708 26.5879,19.3098" id="Fill-2261" fill="#1D1D1B"></path>
                <path d="M30.7275,6.4797 C30.0925,6.7857 29.4575,7.0897 28.8225,7.3947 C28.0535,7.7637 27.7905,8.9217 28.2395,9.6187 C28.7485,10.4067 29.6405,10.5947 30.4625,10.2007 C31.0975,9.8957 31.7335,9.5907 32.3685,9.2867 C33.1365,8.9177 33.4005,7.7587 32.9515,7.0627 C32.4425,6.2737 31.5495,6.0847 30.7275,6.4797" id="Fill-2263" fill="#1D1D1B"></path>
                <path d="M30.0742,7.2307 L27.2262,6.3167 C26.3902,6.0477 25.4532,6.6297 25.2272,7.4517 C24.9862,8.3297 25.5232,9.1807 26.3622,9.4507 C27.3112,9.7547 28.2612,10.0597 29.2112,10.3647 C30.0462,10.6327 30.9842,10.0497 31.2102,9.2297 C31.4512,8.3517 30.9132,7.5007 30.0742,7.2307" id="Fill-2265" fill="#1D1D1B"></path>
                <path d="M28.8223,10.2004 C30.2453,11.1664 31.6683,12.1324 33.0913,13.0964 C34.8263,14.2744 36.4543,11.4604 34.7303,10.2914 C33.3083,9.3254 31.8853,8.3594 30.4633,7.3944 C28.7273,6.2174 27.0993,9.0314 28.8223,10.2004" id="Fill-2267" fill="#1D1D1B"></path>
                <path d="M32.5078,12.5139 C33.2948,13.6579 34.0828,14.8009 34.8698,15.9439 C35.3668,16.6649 36.2958,16.9929 37.0938,16.5269 C37.8088,16.1089 38.1768,15.0299 37.6768,14.3039 C36.8888,13.1599 36.1018,12.0169 35.3138,10.8739 C34.8168,10.1519 33.8878,9.8249 33.0908,10.2909 C32.3758,10.7089 32.0078,11.7879 32.5078,12.5139" id="Fill-2269" fill="#1D1D1B"></path>
                <path d="M35.8418,16.6906 C37.4168,17.3506 38.9918,18.0116 40.5668,18.6716 C41.3768,19.0116 42.3548,18.3056 42.5658,17.5376 C42.8228,16.5996 42.2428,15.8786 41.4308,15.5386 C39.8558,14.8786 38.2798,14.2166 36.7048,13.5566 C35.8958,13.2166 34.9178,13.9226 34.7058,14.6916 C34.4488,15.6286 35.0288,16.3496 35.8418,16.6906" id="Fill-2271" fill="#1D1D1B"></path>
                <path d="M26.917,21.8615 C28.188,22.4975 29.458,23.1325 30.728,23.7675 C31.513,24.1595 32.488,23.9755 32.951,23.1845 C33.372,22.4645 33.156,21.3545 32.368,20.9615 C31.098,20.3265 29.828,19.6905 28.558,19.0555 C27.772,18.6635 26.797,18.8465 26.334,19.6385 C25.913,20.3585 26.129,21.4675 26.917,21.8615" id="Fill-2273" fill="#1D1D1B"></path>
                <path d="M30.1445,23.1848 C30.6155,23.9968 31.0845,24.8108 31.5545,25.6228 C31.9805,26.3598 33.0425,26.6798 33.7785,26.2058 C34.5205,25.7278 34.8165,24.7708 34.3615,23.9828 C33.8915,23.1698 33.4205,22.3568 32.9515,21.5438 C32.5255,20.8078 31.4625,20.4868 30.7275,20.9608 C29.9855,21.4398 29.6895,22.3968 30.1445,23.1848" id="Fill-2275" fill="#1D1D1B"></path>
                <path d="M32.958,26.4279 L39.932,26.4279 C42.023,26.4279 42.026,23.1779 39.932,23.1779 L32.958,23.1779 C30.867,23.1779 30.863,26.4279 32.958,26.4279" id="Fill-2277" fill="#1D1D1B"></path>
                <path d="M26.1123,20.4592 C26.2723,22.4402 26.4323,24.4222 26.5933,26.4032 C26.7603,28.4742 30.0123,28.4922 29.8433,26.4032 C29.6823,24.4222 29.5223,22.4402 29.3623,20.4592 C29.1943,18.3892 25.9433,18.3702 26.1123,20.4592" id="Fill-2279" fill="#1D1D1B"></path>
                <path d="M27.7861,27.9709 C28.7441,28.1109 29.7011,28.2499 30.6591,28.3899 C31.5261,28.5169 32.4051,28.1749 32.6581,27.2549 C32.8681,26.4909 32.3961,25.3829 31.5221,25.2559 C30.5651,25.1169 29.6071,24.9769 28.6501,24.8369 C27.7831,24.7099 26.9041,25.0519 26.6511,25.9719 C26.4411,26.7359 26.9121,27.8429 27.7861,27.9709" id="Fill-2281" fill="#1D1D1B"></path>
                <path d="M26.917,1.4494 C26.288,1.8394 25.659,2.2284 25.031,2.6194 C24.309,3.0664 23.964,4.0914 24.448,4.8424 C24.915,5.5664 25.898,5.9044 26.671,5.4254 L28.558,4.2564 C29.279,3.8084 29.624,2.7834 29.141,2.0324 C28.674,1.3084 27.69,0.9704 26.917,1.4494" id="Fill-2283" fill="#1D1D1B"></path>
            </g>
        </g>
    </g>
</svg>