<?xml version="1.0" encoding="UTF-8" standalone="no"?>
<svg width="176px" height="347px" viewBox="0 0 176 347" version="1.1" xmlns="http://www.w3.org/2000/svg" xmlns:xlink="http://www.w3.org/1999/xlink">
    <!-- Generator: Sketch 47.1 (45422) - http://www.bohemiancoding.com/sketch -->
    <title>candle</title>
    <desc>Created with Sketch.</desc>
    <defs></defs>
    <g id="Page-1" stroke="none" stroke-width="1" fill="none" fill-rule="evenodd">
        <g id="Group">
            <g id="candle">
                <path d="M83.0617284,179.736 C87.2017284,178.191 91.4177284,176.867 95.8037284,176.46 C97.4807284,176.303 99.0527284,175.79 100.413728,175 L134.525728,175 C135.597728,175.492 136.836728,175.792 138.253728,175.819 C142.567728,175.901 146.632728,176.595 150.730728,177.988 C151.607728,178.286 152.506728,178.473 153.403728,178.671 C153.733728,178.538 154.059728,178.394 154.392728,178.267 C155.775728,177.737 156.772728,178.457 157.214728,179.496 C157.485728,179.553 157.759728,179.598 158.029728,179.661 C157.837728,179.796 157.628728,179.911 157.394728,179.995 C157.664728,181.206 157.227728,182.646 155.755728,183.21 C152.459728,184.471 149.374728,186.127 147.122728,188.897 C145.823728,190.496 144.458728,192.187 142.492728,192.795 C142.909728,194.072 142.854728,195.408 142.040728,196.507 L142.040728,217.13 C142.040728,218.082 141.595728,218.727 140.990728,219.131 C140.982728,219.174 140.998728,219.209 140.988728,219.253 C140.188728,222.889 138.034728,225.362 135.360728,227.838 C132.419728,230.561 130.305728,233.783 129.401728,237.548 C131.790728,239.575 134.022728,241.807 136.778728,243.3 C140.848728,245.504 139.491728,250.428 136.343728,252.15 C134.454728,256.339 129.091728,257.817 124.836728,258.441 C117.285728,259.548 109.855728,258.233 104.776728,251.992 C104.698728,251.896 104.650728,251.795 104.581728,251.697 C103.740728,250.999 103.088728,250.078 102.817728,249.089 C102.017728,246.18 103.798728,243.803 106.397728,242.783 C107.919728,242.186 109.242728,240.512 110.411728,239.427 C111.183728,238.711 111.894728,237.981 112.588728,237.234 C112.115728,236.69 111.755728,236.058 111.627728,235.313 C111.203728,232.839 109.978728,230.576 107.896728,229.085 C106.950728,228.408 106.282728,227.498 105.851728,226.51 C103.799728,224.844 102.162728,222.569 101.169728,219.896 C99.9227284,216.537 100.269728,212.781 100.205728,209.258 C100.116728,204.257 99.5887284,200.497 99.1097284,195.344 C99.0397284,194.587 99.0877284,193.851 99.2037284,193.132 C98.8457284,192.944 98.5087284,192.688 98.2357284,192.284 C95.4627284,188.174 90.9327284,185.173 86.5007284,183.111 C85.1177284,182.468 82.5717284,181.962 83.0617284,180.899 L84.3727284,180.126 C83.8387284,180.126 83.4227284,179.961 83.0617284,179.736" id="Fill-480" fill="#A88D3B"></path>
                <path d="M2.90440052,310.029114 C3.13240052,309.573114 3.44140052,309.288114 3.77640052,309.077114 C3.66740052,308.407114 3.85940052,307.701114 4.58740052,307.107114 C5.86040052,306.069114 7.02040052,304.993114 8.26640052,304.051114 C8.06440052,303.087114 8.30940052,302.002114 9.27040052,301.260114 C14.9694005,296.859114 29.4644005,299.790114 30.1044005,307.505114 C30.2164005,307.633114 30.3604005,307.696114 30.4524005,307.859114 C32.4424005,311.372114 30.9414005,316.002114 28.0034005,318.202114 C26.6074005,319.852114 24.6134005,320.828114 21.7134005,320.374114 C18.7944005,319.919114 16.6554005,317.573114 16.5544005,314.661114 C16.4524005,311.733114 18.8714005,309.158114 21.1244005,307.668114 C21.2634005,307.576114 21.3954005,307.554114 21.5304005,307.497114 C19.3654005,307.319114 17.2314005,306.913114 15.0524005,306.769114 C14.6064005,306.740114 14.2244005,306.871114 13.8234005,306.953114 C13.6424005,307.191114 13.4354005,307.421114 13.1394005,307.609114 C7.52140052,311.169114 7.49940052,318.117114 9.43040052,324.061114 C15.8084005,330.662114 23.5784005,334.035114 32.9524005,334.069114 C33.6344005,334.071114 34.1404005,334.324114 34.5414005,334.672114 C36.9834005,333.981114 39.3994005,333.087114 41.7274005,332.345114 C41.9224005,331.641114 42.2624005,330.944114 42.8224005,330.285114 C43.9384005,328.972114 45.3714005,328.041114 46.8634005,327.201114 C48.7484005,326.139114 49.3544005,324.898114 50.4404005,323.026114 C51.2534005,321.626114 51.7884005,320.131114 52.2824005,318.625114 C51.8914005,317.438114 51.9504005,316.071114 52.7534005,314.662114 C53.3304005,313.650114 53.5544005,311.595114 53.6554005,310.041114 C53.7104005,309.192114 53.9694005,308.411114 54.3484005,307.711114 C53.9744005,307.054114 53.7074005,306.301114 53.6554005,305.396114 C53.6454005,305.228114 53.5994005,305.065114 53.5824005,304.898114 C50.6314005,305.833114 46.8114005,304.319114 46.7674005,300.270114 C46.6904005,293.314114 43.5594005,286.340114 40.4194005,280.270114 C39.8004005,279.074114 39.7684005,277.936114 39.9874005,276.885114 C37.5204005,274.232114 34.7064005,271.361114 31.8574005,269.643114 C31.1394005,269.211114 30.7764005,268.603114 30.6704005,267.964114 C30.4384005,267.598114 30.2654005,267.176114 30.2674005,266.630114 C30.2694005,265.910114 30.2534005,265.200114 30.2434005,264.487114 C30.2244005,264.282114 30.2314005,264.081114 30.2374005,263.879114 C30.1964005,262.555114 30.0884005,261.240114 29.7184005,259.942114 C28.8244005,256.801114 33.6014005,255.466114 34.6034005,258.467114 C35.9874005,258.201114 37.4724005,258.616114 38.6974005,260.121114 C42.2424005,264.475114 46.9794005,267.525114 50.7754005,271.636114 C54.9814005,276.192114 59.6104005,279.987114 64.3284005,283.990114 C65.0214005,284.578114 65.4414005,285.223114 65.7074005,285.885114 C66.7044005,286.072114 67.7034005,286.253114 68.7134005,286.333114 C71.9854005,286.593114 72.0104005,291.721114 68.7134005,291.459114 C67.2644005,291.343114 65.8464005,291.124114 64.4454005,290.836114 C64.4304005,290.850114 64.4104005,290.857114 64.3954005,290.871114 C65.3664005,291.695114 66.0594005,292.897114 66.1504005,294.503114 C66.1924005,295.236114 66.4324005,295.984114 66.7074005,296.725114 C66.9264005,296.944114 67.1784005,297.081114 67.3744005,297.352114 C69.0514005,299.673114 70.6124005,301.918114 72.2294005,304.117114 C75.6974005,308.426114 79.5304005,312.043114 84.5964005,315.547114 C85.3324005,316.056114 85.8574005,316.665114 86.2284005,317.321114 C91.4324005,320.053114 97.4824005,321.674114 102.721401,321.720114 C103.071401,321.561114 103.402401,321.379114 103.827401,321.312114 C114.937401,319.563114 124.834401,316.569114 131.727401,307.133114 C131.761401,307.087114 131.801401,307.056114 131.836401,307.012114 C131.800401,306.131114 131.936401,305.211114 132.528401,304.250114 C136.918401,297.129114 136.508401,287.620114 132.848401,280.110114 C132.352401,279.091114 132.297401,278.122114 132.405401,277.198114 C130.930401,275.445114 128.430401,272.154114 126.061401,272.076114 C124.342401,272.019114 123.538401,270.601114 123.611401,269.269114 C122.001401,268.635114 120.326401,268.142114 118.416401,268.068114 C109.753401,267.730114 102.409401,270.521114 101.872401,280.086114 C101.836401,280.731114 101.575401,281.213114 101.235401,281.606114 C101.455401,281.804114 101.689401,281.974114 101.843401,282.316114 C102.324401,283.386114 102.608401,284.543114 103.143401,285.582114 C103.282401,285.853114 103.509401,286.092114 103.691401,286.349114 C104.289401,285.630114 105.043401,285.046114 105.984401,284.782114 C106.528401,281.637114 109.103401,278.873114 112.486401,278.873114 C116.524401,278.873114 118.499401,282.258114 118.849401,285.825114 C119.492401,292.384114 111.566401,296.215114 105.956401,294.640114 C104.631401,294.268114 103.706401,293.545114 103.123401,292.654114 C102.746401,292.591114 102.388401,292.421114 102.051401,292.189114 C101.974401,292.172114 101.911401,292.192114 101.832401,292.168114 C95.4874005,290.253114 94.1354005,284.063114 95.0354005,278.067114 C94.8834005,277.733114 94.7894005,277.349114 94.8244005,276.882114 C96.1744005,258.635114 119.363401,256.510114 132.253401,265.150114 C133.459401,257.833114 136.357401,252.208114 142.861401,247.757114 C150.178401,242.749114 158.943401,240.973114 166.602401,245.994114 C166.685401,246.049114 166.719401,246.125114 166.793401,246.184114 C167.282401,246.115114 167.816401,246.224114 168.363401,246.635114 C172.191401,249.508114 174.162401,255.036114 173.958401,259.741114 C173.914401,260.751114 173.381401,261.415114 172.695401,261.806114 C172.576401,263.071114 172.328401,264.292114 171.846401,265.360114 C171.624401,265.853114 171.305401,266.148114 170.957401,266.362114 C170.736401,267.278114 170.363401,268.177114 169.734401,268.973114 C166.010401,273.677114 158.173401,273.508114 155.154401,268.201114 C153.704401,265.651114 153.797401,261.983114 155.912401,259.822114 C157.681401,258.014114 159.978401,257.648114 162.170401,258.278114 C162.568401,258.167114 162.923401,257.998114 163.385401,257.979114 C164.188401,257.946114 164.960401,258.023114 165.710401,258.322114 C166.463401,258.624114 167.120401,259.052114 167.677401,259.565114 C167.544401,258.296114 167.204401,257.048114 166.699401,256.427114 C166.183401,255.793114 166.041401,255.097114 166.123401,254.443114 C165.938401,254.319114 165.748401,254.222114 165.578401,254.025114 C163.498401,251.620114 161.105401,250.061114 157.988401,249.464114 C157.785401,249.560114 157.601401,249.673114 157.339401,249.718114 C152.735401,250.504114 148.212401,254.552114 145.130401,257.866114 C141.425401,261.850114 140.576401,267.991114 140.332401,273.190114 C140.860401,273.607114 141.330401,274.175114 141.701401,274.935114 C146.932401,285.670114 147.756401,298.822114 141.507401,309.179114 C141.617401,310.158114 141.370401,311.225114 140.579401,312.308114 C138.127401,315.665114 135.422401,318.412114 132.517401,320.751114 C132.301401,322.275114 131.410401,323.733114 130.053401,324.672114 C126.270401,327.289114 121.812401,328.175114 117.536401,329.690114 C113.354401,331.171114 109.599401,332.028114 105.350401,331.403114 C104.683401,331.750114 103.920401,331.986114 102.994401,331.987114 C93.0734005,332.002114 84.5454005,328.007114 76.2174005,322.933114 C70.9314005,319.713114 67.2684005,315.123114 63.8864005,310.289114 C63.8744005,310.433114 63.8604005,310.579114 63.8494005,310.723114 C65.1104005,312.152114 65.5464005,314.199114 64.1694005,316.313114 C62.9484005,318.186114 62.8264005,320.522114 62.1224005,322.625114 C61.3324005,324.983114 59.9224005,327.117114 58.6824005,329.253114 C57.5724005,331.164114 56.4534005,332.951114 54.6894005,334.326114 C53.2184005,335.472114 51.2764005,336.117114 50.0714005,337.534114 C49.7544005,337.907114 49.4204005,338.197114 49.0774005,338.440114 C48.8554005,339.151114 48.3594005,339.779114 47.4484005,340.065114 C40.2904005,342.317114 33.4134005,345.017114 25.7984005,344.001114 C25.4304005,343.951114 25.0674005,343.846114 24.7014005,343.775114 C24.2934005,343.920114 23.8504005,344.001114 23.3394005,343.910114 C16.2974005,342.650114 11.5404005,338.478114 6.51740052,333.654114 C5.75640052,332.925114 5.62240052,332.125114 5.80940052,331.408114 C4.45040052,329.882114 3.24640052,328.233114 2.50740052,326.272114 C0.513400523,320.987114 0.352400523,315.142114 2.90440052,310.029114" id="Fill-482" fill="#A88D3B"></path>
                <path d="M109.708344,122.815267 C110.354344,121.491267 111.373344,120.331267 112.702344,119.513267 C114.279344,118.543267 115.961344,117.761267 117.743344,117.243267 C118.567344,117.003267 119.401344,116.955267 120.222344,117.008267 C122.085344,114.607267 125.534344,113.450267 128.452344,114.253267 C132.688344,115.418267 134.667344,119.610267 133.822344,123.711267 C133.503344,125.259267 132.941344,126.724267 132.428344,128.208267 C132.657344,128.945267 132.818344,129.736267 132.815344,130.638267 C132.812344,131.649267 132.836344,132.657267 132.867344,133.666267 C132.900344,133.905267 132.934344,134.146267 132.956344,134.390267 C133.017344,134.459267 133.062344,134.510267 133.214344,134.695267 C133.865344,135.452267 134.451344,136.264267 135.045344,137.068267 C140.226344,140.216267 139.554344,149.386267 133.108344,151.018267 C133.053344,152.696267 133.006344,154.375267 133.029344,156.055267 C133.041344,156.888267 132.873344,157.681267 132.619344,158.438267 C133.036344,160.377267 133.062344,162.299267 133.018344,164.301267 C132.957344,167.119267 133.582344,169.889267 133.456344,172.714267 C133.434344,173.221267 133.267344,173.622267 133.046344,173.973267 C132.674344,174.715267 131.981344,175.285267 130.893344,175.277267 C124.266344,175.231267 117.657344,174.683267 111.030344,174.637267 C108.412344,174.618267 107.901344,171.430267 109.432344,170.104267 C109.331344,169.083267 109.440344,167.987267 109.656344,166.945267 C109.310344,166.073267 109.098344,165.088267 109.107344,163.958267 C109.159344,157.935267 109.343344,151.989267 108.653344,145.998267 C108.259344,142.578267 108.236344,138.854267 109.484344,135.601267 C108.954344,133.481267 108.444344,131.323267 108.101344,129.051267 C107.723344,126.555267 108.434344,124.435267 109.708344,122.815267" id="Fill-484" fill="#FEEFBB"></path>
                <path d="M101.298188,60.785744 C102.366188,58.235744 106.260188,58.376744 106.333188,61.466744 C106.391188,63.938744 106.272188,66.417744 106.929188,68.823744 C106.987188,69.035744 106.959188,69.214744 106.968188,69.409744 C107.985188,70.058744 109.155188,70.699744 109.688188,71.323744 C110.174188,71.893744 110.333188,72.522744 110.306188,73.125744 C110.689188,73.249744 111.064188,73.458744 111.396188,73.886744 C112.732188,75.608744 113.048188,77.457744 113.092188,79.386744 C113.875188,80.539744 114.601188,81.715744 115.056188,83.010744 C119.403188,86.414744 122.369188,90.703744 125.625188,95.137744 C127.018188,97.034744 126.791188,98.878744 125.753188,100.255744 C126.131188,103.286744 125.875188,105.970744 122.927188,108.798744 C120.556188,111.072744 117.575188,110.422744 115.758188,108.635744 C114.912188,108.234744 114.130188,107.611744 113.594188,106.479744 C110.485188,99.896744 106.144188,94.824744 106.926188,87.074744 C107.020188,86.137744 107.455188,85.222744 108.017188,84.389744 C107.945188,84.143744 107.868188,83.901744 107.875188,83.601744 C107.880188,83.388744 107.923188,83.081744 107.953188,82.808744 C107.360188,81.523744 106.878188,80.223744 106.997188,78.771744 C107.050188,78.127744 107.281188,77.599744 107.613188,77.193744 C107.322188,76.701744 107.255188,76.187744 107.281188,75.688744 C106.857188,75.584744 106.437188,75.386744 106.063188,74.948744 C104.203188,72.765744 100.965188,72.390744 100.231188,69.240744 C99.6271881,66.648744 100.285188,63.203744 101.298188,60.785744" id="Fill-486" fill="#FEDC01"></path>
                <path d="M101.298188,60.785744 C102.366188,58.235744 106.260188,58.376744 106.333188,61.466744 C106.391188,63.938744 106.272188,66.417744 106.929188,68.823744 C106.987188,69.035744 106.959188,69.214744 106.968188,69.409744 C107.985188,70.058744 109.155188,70.699744 109.688188,71.323744 C110.174188,71.893744 110.333188,72.522744 110.306188,73.125744 C110.689188,73.249744 111.064188,73.458744 111.396188,73.886744 C112.732188,75.608744 113.048188,77.457744 113.092188,79.386744 C113.875188,80.539744 114.601188,81.715744 115.056188,83.010744 C119.403188,86.414744 122.369188,90.703744 125.625188,95.137744 C127.018188,97.034744 126.791188,98.878744 125.753188,100.255744 C126.131188,103.286744 125.875188,105.970744 122.927188,108.798744 C120.556188,111.072744 117.575188,110.422744 115.758188,108.635744 C114.912188,108.234744 114.130188,107.611744 113.594188,106.479744 C110.485188,99.896744 106.144188,94.824744 106.926188,87.074744 C107.020188,86.137744 107.455188,85.222744 108.017188,84.389744 C107.945188,84.143744 107.868188,83.901744 107.875188,83.601744 C107.880188,83.388744 107.923188,83.081744 107.953188,82.808744 C107.360188,81.523744 106.878188,80.223744 106.997188,78.771744 C107.050188,78.127744 107.281188,77.599744 107.613188,77.193744 C107.322188,76.701744 107.255188,76.187744 107.281188,75.688744 C106.857188,75.584744 106.437188,75.386744 106.063188,74.948744 C104.203188,72.765744 100.965188,72.390744 100.231188,69.240744 C99.6271881,66.648744 100.285188,63.203744 101.298188,60.785744 Z" id="Stroke-488" stroke="#000000" stroke-width="0.65"></path>
                <path d="M87.001638,27.1101135 C87.060638,25.4201135 87.299638,23.7971135 87.715638,22.1581135 C87.959638,21.2001135 89.131638,19.0211135 88.279638,18.3241135 C86.098638,16.5401135 88.518638,13.6241135 90.772638,14.0401135 C94.775638,14.7771135 97.023638,19.4051135 93.237638,21.8691135 C92.786638,23.6711135 92.184638,25.4881135 92.127638,27.1101135 C92.117638,27.3891135 92.028638,27.6101135 91.953638,27.8421135 C92.054638,28.0091135 92.179638,28.1451135 92.249638,28.3511135 C93.049638,30.6961135 92.880638,33.0331135 94.789638,34.9361135 C96.484638,36.6271135 98.436638,38.0911135 100.198638,39.7161135 C103.319638,42.5951135 104.949638,45.9851135 105.370638,50.1771135 C105.699638,53.4661135 100.570638,53.4341135 100.243638,50.1771135 C100.116638,48.9051135 99.719638,47.8141135 99.194638,46.8071135 C98.773638,46.8041135 98.336638,46.7171135 97.882638,46.4101135 C95.975638,45.1201135 94.962638,43.0851135 93.183638,41.7111135 C92.393638,41.1011135 92.126638,40.2631135 92.153638,39.4471135 C90.997638,38.4791135 89.782638,37.4481135 89.084638,36.1551135 C87.924638,34.0071135 88.074638,31.9631135 87.306638,29.7141135 C87.126638,29.1871135 87.161638,28.7351135 87.274638,28.3221135 C87.101638,27.9811135 86.984638,27.5911135 87.001638,27.1101135" id="Fill-490" fill="#FEDC01"></path>
                <path d="M87.001638,27.1101135 C87.060638,25.4201135 87.299638,23.7971135 87.715638,22.1581135 C87.959638,21.2001135 89.131638,19.0211135 88.279638,18.3241135 C86.098638,16.5401135 88.518638,13.6241135 90.772638,14.0401135 C94.775638,14.7771135 97.023638,19.4051135 93.237638,21.8691135 C92.786638,23.6711135 92.184638,25.4881135 92.127638,27.1101135 C92.117638,27.3891135 92.028638,27.6101135 91.953638,27.8421135 C92.054638,28.0091135 92.179638,28.1451135 92.249638,28.3511135 C93.049638,30.6961135 92.880638,33.0331135 94.789638,34.9361135 C96.484638,36.6271135 98.436638,38.0911135 100.198638,39.7161135 C103.319638,42.5951135 104.949638,45.9851135 105.370638,50.1771135 C105.699638,53.4661135 100.570638,53.4341135 100.243638,50.1771135 C100.116638,48.9051135 99.719638,47.8141135 99.194638,46.8071135 C98.773638,46.8041135 98.336638,46.7171135 97.882638,46.4101135 C95.975638,45.1201135 94.962638,43.0851135 93.183638,41.7111135 C92.393638,41.1011135 92.126638,40.2631135 92.153638,39.4471135 C90.997638,38.4791135 89.782638,37.4481135 89.084638,36.1551135 C87.924638,34.0071135 88.074638,31.9631135 87.306638,29.7141135 C87.126638,29.1871135 87.161638,28.7351135 87.274638,28.3221135 C87.101638,27.9811135 86.984638,27.5911135 87.001638,27.1101135 Z" id="Stroke-492" stroke="#000000" stroke-width="0.65"></path>
                <path d="M110.250001,168.201125 C110.264001,157.657125 110.278001,147.114125 110.292001,136.570125 C110.294001,134.478125 107.044001,134.475125 107.042001,136.570125 C107.028001,147.114125 107.014001,157.657125 107.000001,168.201125 C106.998001,170.292125 110.248001,170.296125 110.250001,168.201125" id="Fill-508" fill="#1D1D1B"></path>
                <path d="M134.250001,168.068375 C134.258001,162.235375 134.266001,156.402375 134.273001,150.569375 C134.276001,148.478375 131.026001,148.475375 131.023001,150.569375 C131.016001,156.402375 131.008001,162.235375 131.000001,168.068375 C130.998001,170.160375 134.248001,170.163375 134.250001,168.068375" id="Fill-510" fill="#1D1D1B"></path>
                <path d="M131.000092,167.569376 C131.033092,170.958376 131.513092,175.321376 135.275092,176.521376 C137.272092,177.157376 138.127092,174.021376 136.139092,173.387376 C135.666092,173.236376 135.202092,172.799376 134.903092,172.132376 C134.277092,170.738376 134.265092,169.062376 134.250092,167.569376 C134.230092,165.479376 130.980092,165.474376 131.000092,167.569376" id="Fill-512" fill="#1D1D1B"></path>
                <path d="M109.258514,126.946128 C109.497514,124.411128 110.926514,122.057128 113.413514,121.226128 C115.387514,120.567128 114.541514,117.426128 112.550514,118.092128 C108.590514,119.416128 106.390514,122.901128 106.008514,126.946128 C105.812514,129.028128 109.063514,129.014128 109.258514,126.946128" id="Fill-514" fill="#1D1D1B"></path>
                <path d="M110.493499,136.078752 C110.445499,132.864752 109.045499,129.740752 109.276499,126.560752 C109.428499,124.474752 106.178499,124.484752 106.026499,126.560752 C105.791499,129.784752 107.195499,132.849752 107.243499,136.078752 C107.274499,138.167752 110.524499,138.174752 110.493499,136.078752" id="Fill-516" fill="#1D1D1B"></path>
                <path d="M112.99345,121.386103 C115.12945,120.705103 117.36245,120.338103 119.34245,119.245103 C122.55645,117.469103 126.81645,114.025103 130.02745,118.296103 C131.26945,119.948103 134.09245,118.330103 132.83345,116.656103 C130.83245,113.995103 127.43345,112.520103 124.08145,113.141103 C122.01045,113.525103 120.44545,114.723103 118.69545,115.818103 C116.60145,117.127103 114.44345,117.514103 112.12945,118.252103 C110.14445,118.885103 110.99345,122.024103 112.99345,121.386103" id="Fill-518" fill="#1D1D1B"></path>
                <path d="M131.000066,130.569376 C131.021066,133.137376 131.802066,135.034376 133.087066,137.215376 C134.148066,139.016376 136.958066,137.382376 135.893066,135.574376 C134.889066,133.870376 134.267066,132.576376 134.250066,130.569376 C134.233066,128.479376 130.983066,128.474376 131.000066,130.569376" id="Fill-520" fill="#1D1D1B"></path>
                <path d="M130.273147,118.383826 C132.840147,122.273826 130.858147,126.702826 130.666147,130.918826 C130.570147,133.008826 133.820147,133.004826 133.916147,130.918826 C134.141147,126.000826 136.066147,121.270826 133.080147,116.743826 C131.933147,115.004826 129.117147,116.631826 130.273147,118.383826" id="Fill-522" fill="#1D1D1B"></path>
                <path d="M139.766988,141.604137 C138.786988,139.532137 137.385988,137.613137 136.091988,135.728137 C134.915988,134.015137 132.098988,135.638137 133.285988,137.369137 C134.579988,139.253137 135.979988,141.173137 136.960988,143.244137 C137.854988,145.134137 140.657988,143.486137 139.766988,141.604137" id="Fill-524" fill="#1D1D1B"></path>
                <path d="M134.137942,151.385473 C136.075942,151.969473 138.221942,150.942473 139.162942,149.225473 C140.371942,147.019473 140.260942,144.354473 139.320942,142.076473 C138.533942,140.170473 135.387942,141.006473 136.186942,142.940473 C136.734942,144.267473 137.077942,145.750473 136.553942,147.144473 C136.309942,147.790473 135.833942,148.502473 135.001942,148.251473 C132.994942,147.646473 132.137942,150.781473 134.137942,151.385473" id="Fill-526" fill="#1D1D1B"></path>
                <path d="M134.250117,150.149774 C134.252117,149.989774 134.266117,149.830774 134.269117,149.670774 C134.267117,149.810774 134.226117,149.852774 134.271117,149.689774 C134.319117,149.517774 134.451117,149.347774 134.261117,149.663774 C134.126117,149.798774 133.992117,149.932774 133.857117,150.067774 C133.496117,150.293774 133.163117,150.325774 132.856117,150.163774 C132.746117,150.110774 132.731117,150.104774 132.811117,150.146774 C132.860117,150.172774 132.909117,150.200774 132.957117,150.231774 C133.043117,150.282774 133.127117,150.339774 133.215117,150.388774 C133.518117,150.555774 133.853117,150.697774 134.191117,150.771774 C135.020117,150.951774 135.988117,150.523774 136.190117,149.635774 C136.377117,148.816774 135.943117,147.830774 135.055117,147.637774 C134.957117,147.615774 134.863117,147.590774 134.767117,147.560774 C135.071117,147.655774 134.827117,147.571774 134.749117,147.519774 C134.622117,147.434774 134.489117,147.359774 134.353117,147.291774 C133.699117,146.965774 132.913117,146.862774 132.253117,147.245774 C131.217117,147.846774 131.015117,149.049774 131.000117,150.149774 C130.989117,150.999774 131.755117,151.813774 132.625117,151.774774 C133.515117,151.734774 134.238117,151.060774 134.250117,150.149774" id="Fill-528" fill="#1D1D1B"></path>
                <path d="M107.521879,167.569375 C107.500879,169.086375 107.377879,170.667375 106.740879,172.068375 C106.519879,172.554375 105.975879,173.446375 105.564879,173.468375 C103.484879,173.582375 103.471879,176.833375 105.564879,176.718375 C109.831879,176.485375 110.725879,170.879375 110.771879,167.569375 C110.801879,165.477375 107.551879,165.476375 107.521879,167.569375" id="Fill-530" fill="#1D1D1B"></path>
                <path d="M119.256439,117.823628 C119.427439,115.735628 119.597439,113.647628 119.768439,111.559628 C119.938439,109.474628 116.687439,109.485628 116.518439,111.559628 C116.347439,113.647628 116.177439,115.735628 116.006439,117.823628 C115.836439,119.907628 119.087439,119.896628 119.256439,117.823628" id="Fill-532" fill="#1D1D1B"></path>
                <path d="M63.7887466,285.036578 C66.0007466,286.311578 68.3297466,287.306578 70.7477466,288.118578 C71.3537466,288.321578 72.1677466,288.766578 72.8027466,288.811578 C72.8697466,288.834578 72.9337466,288.865578 72.9937466,288.904578 C73.5967466,289.318578 73.5587466,288.773578 72.8787466,287.268578 C72.7727466,287.266578 72.2147466,287.746578 72.1327466,287.796578 C70.3597466,288.897578 71.9897466,291.710578 73.7737466,290.603578 C75.5007466,289.530578 76.9627466,287.392578 74.5477466,286.055578 C73.5307466,285.491578 72.3127466,285.226578 71.2207466,284.852578 C69.1997466,284.161578 67.2797466,283.297578 65.4287466,282.229578 C63.6137466,281.183578 61.9757466,283.991578 63.7887466,285.036578" id="Fill-534" fill="#1D1D1B"></path>
                <path d="M43.5009895,266.752012 C50.0759895,272.952012 55.8739895,281.139012 63.7489895,285.746012 C65.5579895,286.804012 67.1959895,283.996012 65.3889895,282.939012 C57.8069895,278.503012 52.1389895,270.432012 45.7989895,264.454012 C44.2779895,263.020012 41.9759895,265.314012 43.5009895,266.752012" id="Fill-536" fill="#1D1D1B"></path>
                <path d="M29.8258755,256.992891 C34.9688755,259.557891 39.6308755,262.721891 43.7178755,266.777891 C45.2038755,268.252891 47.5038755,265.954891 46.0158755,264.478891 C41.7408755,260.236891 36.8488755,256.871891 31.4658755,254.186891 C29.5998755,253.255891 27.9518755,256.057891 29.8258755,256.992891" id="Fill-538" fill="#1D1D1B"></path>
                <path d="M117.940755,320.999408 C126.457755,317.480408 132.806755,312.020408 136.467755,303.493408 C137.283755,301.591408 134.484755,299.934408 133.660755,301.852408 C130.358755,309.543408 124.805755,314.671408 117.076755,317.865408 C115.170755,318.653408 116.005755,321.798408 117.940755,320.999408" id="Fill-540" fill="#1D1D1B"></path>
                <path d="M94.1331996,320.991184 C102.0032,323.449184 110.2312,323.101184 117.9442,320.242184 C119.8882,319.522184 119.0482,316.379184 117.0802,317.109184 C109.8572,319.786184 102.3712,320.159184 94.9971996,317.857184 C92.9961996,317.232184 92.1401996,320.368184 94.1331996,320.991184" id="Fill-542" fill="#1D1D1B"></path>
                <path d="M66.2486337,297.410345 C73.0416337,308.521345 80.2596337,317.393345 93.1886337,321.420345 C95.1906337,322.043345 96.0466337,318.907345 94.0536337,318.286345 C81.9306337,314.511345 75.3896337,306.131345 69.0546337,295.770345 C67.9656337,293.988345 65.1536337,295.619345 66.2486337,297.410345" id="Fill-544" fill="#1D1D1B"></path>
                <path d="M62.3935629,291.849197 C63.8715629,293.657197 65.2635629,295.531197 66.6615629,297.401197 C67.1905629,298.109197 68.0605629,298.453197 68.8845629,297.984197 C69.5815629,297.587197 69.9915629,296.462197 69.4675629,295.761197 C67.9045629,293.669197 66.3445629,291.573197 64.6915629,289.551197 C63.3675629,287.931197 61.0795629,290.242197 62.3935629,291.849197" id="Fill-546" fill="#1D1D1B"></path>
                <path d="M13.8656945,309.875694 C16.1406945,308.112694 18.8446945,307.575694 21.2376945,309.362694 C22.9136945,310.615694 24.5356945,307.794694 22.8776945,306.556694 C19.2416945,303.840694 14.8956945,304.998694 11.5676945,307.577694 C9.91669451,308.856694 12.2316945,311.141694 13.8656945,309.875694" id="Fill-548" fill="#1D1D1B"></path>
                <path d="M14.0960037,325.490443 C10.8240037,320.887443 9.64300374,313.752443 14.5350037,309.698443 C16.1470037,308.362443 13.8370037,306.073443 12.2380037,307.399443 C6.26100374,312.353443 7.23000374,321.420443 11.2890037,327.130443 C12.4920037,328.821443 15.3110037,327.199443 14.0960037,325.490443" id="Fill-550" fill="#1D1D1B"></path>
                <path d="M8.32769618,304.811904 C13.9376962,300.563904 21.5326962,299.596904 26.9056962,304.731904 C28.4176962,306.176904 30.7196962,303.881904 29.2036962,302.433904 C22.8376962,296.349904 13.5136962,296.836904 6.68769618,302.005904 C5.04069618,303.251904 6.65869618,306.075904 8.32769618,304.811904" id="Fill-552" fill="#1D1D1B"></path>
                <path d="M6.32433007,329.639488 C1.65133007,321.727488 1.99133007,310.943488 9.38633007,304.705488 C10.9873301,303.354488 8.67833007,301.065488 7.08833007,302.407488 C-1.40466993,309.571488 -1.83866993,322.211488 3.51733007,331.279488 C4.58033007,333.079488 7.39133007,331.446488 6.32433007,329.639488" id="Fill-554" fill="#1D1D1B"></path>
                <path d="M22.2229679,306.048639 C16.8369679,307.299639 14.1739679,313.277639 17.3969679,317.993639 C18.8339679,320.096639 21.2519679,321.467639 23.7499679,321.830639 C26.5939679,322.243639 28.9559679,321.001639 31.1189679,319.273639 C32.7529679,317.968639 30.4399679,315.681639 28.8209679,316.975639 C26.2119679,319.059639 22.7959679,319.307639 20.4239679,316.612639 C17.8619679,313.701639 19.6699679,309.976639 23.0869679,309.182639 C25.1229679,308.709639 24.2619679,305.574639 22.2229679,306.048639" id="Fill-556" fill="#1D1D1B"></path>
                <path d="M27.4708936,304.783411 C30.7388936,308.112411 32.5118936,313.824411 28.6848936,317.338411 C27.1418936,318.756411 29.4448936,321.050411 30.9838936,319.637411 C36.1558936,314.886411 34.2698936,307.070411 29.7688936,302.485411 C28.3008936,300.990411 26.0038936,303.289411 27.4708936,304.783411" id="Fill-558" fill="#1D1D1B"></path>
                <path d="M32.5678768,336.621052 C50.5928768,336.051052 58.0008768,316.648052 55.4688768,301.175052 C55.1318768,299.117052 51.9998768,299.990052 52.3348768,302.039052 C54.5178768,315.379052 48.3278768,332.872052 32.5678768,333.371052 C30.4818768,333.437052 30.4728768,336.687052 32.5678768,336.621052" id="Fill-560" fill="#1D1D1B"></path>
                <path d="M11.3696682,327.866246 C16.6796682,334.729246 24.4336682,336.588246 32.7616682,336.669246 C34.8536682,336.689246 34.8556682,333.439246 32.7616682,333.419246 C25.2306682,333.345246 18.4656682,331.769246 13.6676682,325.568246 C12.3896682,323.916246 10.1046682,326.231246 11.3696682,327.866246" id="Fill-562" fill="#1D1D1B"></path>
                <path d="M63.9577549,323.237751 C65.4607549,319.797751 66.7507549,316.343751 66.9867549,312.563751 C67.1177549,310.474751 63.8667549,310.482751 63.7367549,312.563751 C63.5387549,315.736751 62.4127549,318.709751 61.1517549,321.597751 C60.3227549,323.495751 63.1217549,325.151751 63.9577549,323.237751" id="Fill-564" fill="#1D1D1B"></path>
                <path d="M40.0059572,344.81031 C51.0979572,341.58031 59.8399572,333.92031 64.7639572,323.47731 C65.6509572,321.59631 62.8499572,319.94431 61.9579572,321.83731 C57.3859572,331.53431 49.4759572,338.66631 39.1419572,341.67631 C37.1379572,342.26031 37.9909572,345.39731 40.0059572,344.81031" id="Fill-566" fill="#1D1D1B"></path>
                <path d="M3.22339859,331.434895 C10.4693986,344.272895 25.7803986,348.790895 39.6123986,345.431895 C41.6443986,344.937895 40.7843986,341.803895 38.7483986,342.297895 C26.3133986,345.317895 12.5533986,341.353895 6.03039859,329.794895 C5.00139859,327.972895 2.19339859,329.608895 3.22339859,331.434895" id="Fill-568" fill="#1D1D1B"></path>
                <path d="M29.7170845,270.101697 C42.2950845,278.995697 47.9120845,294.078697 46.0530845,309.144697 C45.7970845,311.215697 49.0500845,311.196697 49.3030845,309.144697 C51.3100845,292.878697 44.8190845,276.813697 31.3570845,267.295697 C29.6460845,266.085697 28.0210845,268.902697 29.7170845,270.101697" id="Fill-570" fill="#1D1D1B"></path>
                <path d="M48.8288529,304.814904 C48.4278529,305.581904 48.0098529,306.339904 47.5468529,307.071904 C47.4088529,307.290904 47.1448529,307.689904 47.0818529,307.772904 C47.1828529,307.640904 46.9488529,307.915904 46.9378529,307.939904 C46.9118529,307.965904 46.8858529,307.992904 46.8598529,308.019904 C47.0968529,307.811904 47.3828529,307.705904 47.7178529,307.703904 C47.9908529,307.777904 48.2648529,307.851904 48.5378529,307.925904 C48.5258529,307.918904 48.5148529,307.911904 48.5028529,307.903904 L49.0858529,308.486904 L49.2558529,309.122904 C49.1698529,308.249904 48.5698529,307.497904 47.6308529,307.497904 C46.8178529,307.497904 45.9188529,308.244904 46.0058529,309.122904 C46.1828529,310.930904 48.0638529,311.494904 49.2778529,310.189904 C50.2668529,309.126904 50.9688529,307.729904 51.6358529,306.454904 C52.6028529,304.603904 49.7998529,302.958904 48.8288529,304.814904" id="Fill-572" fill="#1D1D1B"></path>
                <path d="M46.2502332,279.40863 C50.9752332,287.10163 52.9752332,297.01963 48.8252332,305.41763 C47.9022332,307.28663 50.7042332,308.93563 51.6322332,307.05763 C56.2972332,297.61563 54.4272332,286.51263 49.0562332,277.76863 C47.9632332,275.98963 45.1512332,277.61963 46.2502332,279.40863" id="Fill-574" fill="#1D1D1B"></path>
                <path d="M70.0530434,292.30241 C71.1940434,292.02741 72.2910434,291.58641 73.3170434,291.01741 C74.0830434,290.59141 74.3350434,289.53941 73.8990434,288.79341 C73.4470434,288.02041 72.4460434,287.78341 71.6760434,288.21041 C70.8730434,288.65641 70.0890434,288.95141 69.1890434,289.16841 C68.3360434,289.37441 67.8270434,290.34041 68.0540434,291.16741 C68.2930434,292.03841 69.1970434,292.50941 70.0530434,292.30241" id="Fill-576" fill="#1D1D1B"></path>
                <path d="M63.1767878,292.18078 C65.6167878,292.55478 67.9927878,292.68878 70.4247878,292.17478 C72.4697878,291.74178 71.6047878,288.60878 69.5607878,289.04078 C67.7387878,289.42578 65.8717878,289.32778 64.0407878,289.04678 C61.9947878,288.73278 61.1127878,291.86478 63.1767878,292.18078" id="Fill-578" fill="#1D1D1B"></path>
                <path d="M55.6872126,300.541246 C55.3242126,298.732246 54.9272126,296.908246 54.2212126,295.196246 C53.8872126,294.389246 53.1412126,293.804246 52.2222126,294.061246 C51.4572126,294.275246 50.7492126,295.241246 51.0862126,296.060246 C51.7922126,297.771246 52.1902126,299.596246 52.5532126,301.405246 C52.9652126,303.454246 56.0982126,302.587246 55.6872126,300.541246" id="Fill-580" fill="#1D1D1B"></path>
                <path d="M101.034646,279.561127 C100.716646,283.829127 102.583646,287.878127 106.804646,289.307127 C108.789646,289.979127 109.641646,286.841127 107.667646,286.173127 C104.818646,285.208127 104.081646,282.279127 104.284646,279.561127 C104.440646,277.475127 101.189646,277.484127 101.034646,279.561127" id="Fill-582" fill="#1D1D1B"></path>
                <path d="M116.983514,267.012951 C109.789514,266.724951 101.651514,271.254951 101.006514,279.124951 C100.835514,281.209951 104.086514,281.198951 104.256514,279.124951 C104.755514,273.033951 111.748514,270.053951 116.983514,270.262951 C119.074514,270.345951 119.071514,267.095951 116.983514,267.012951" id="Fill-584" fill="#1D1D1B"></path>
                <path d="M93.0405748,277.563751 C92.5065748,285.968751 97.2685748,294.305751 105.843575,296.083751 C107.884575,296.506751 108.757575,293.374751 106.707575,292.949751 C99.4705748,291.448751 95.8445748,284.589751 96.2905748,277.563751 C96.4225748,275.474751 93.1725748,275.482751 93.0405748,277.563751" id="Fill-586" fill="#1D1D1B"></path>
                <path d="M115.107345,258.001917 C104.443345,258.469917 94.0463449,266.237917 93.0083449,277.391917 C92.8143449,279.472917 96.0653449,279.459917 96.2583449,277.391917 C97.1263449,268.066917 106.355345,261.635917 115.107345,261.251917 C117.190345,261.159917 117.202345,257.909917 115.107345,258.001917" id="Fill-588" fill="#1D1D1B"></path>
                <path d="M108.664995,286.712661 C107.242995,282.916661 110.166995,279.209661 114.303995,280.498661 C117.529995,281.503661 118.539995,284.226661 118.275995,287.350661 C118.099995,289.434661 121.350995,289.422661 121.525995,287.350661 C121.965995,282.144661 118.781995,277.403661 113.254995,277.020661 C107.414995,276.615661 103.530995,282.236661 105.530995,287.576661 C106.257995,289.517661 109.400995,288.676661 108.664995,286.712661" id="Fill-590" fill="#1D1D1B"></path>
                <path d="M106.171603,296.457367 C112.346603,297.658367 120.212603,294.992367 121.173603,288.041367 C121.456603,285.996367 118.325603,285.111367 118.039603,287.177367 C117.333603,292.284367 111.646603,294.220367 107.035603,293.323367 C104.992603,292.926367 104.117603,296.057367 106.171603,296.457367" id="Fill-592" fill="#1D1D1B"></path>
                <path d="M116.569375,270.250193 C132.686375,270.470193 138.149375,289.136193 132.975375,301.956193 C132.193375,303.895193 135.335375,304.738193 136.109375,302.820193 C142.132375,287.895193 134.659375,267.248193 116.569375,267.000193 C114.477375,266.971193 114.476375,270.221193 116.569375,270.250193" id="Fill-594" fill="#1D1D1B"></path>
                <path d="M142.842717,282.005524 C148.345717,300.835524 138.194717,320.477524 120.086717,327.683524 C118.165717,328.447524 119.003717,331.591524 120.949717,330.817524 C140.676717,322.967524 152.013717,301.797524 145.976717,281.141524 C145.390717,279.138524 142.253717,279.990524 142.842717,282.005524" id="Fill-596" fill="#1D1D1B"></path>
                <path d="M131.691953,266.121221 C136.945953,270.063221 141.108953,275.485221 142.897953,281.851221 C143.462953,283.862221 146.598953,283.008221 146.030953,280.988221 C143.999953,273.754221 139.281953,267.779221 133.331953,263.315221 C131.658953,262.059221 130.036953,264.879221 131.691953,266.121221" id="Fill-598" fill="#1D1D1B"></path>
                <path d="M115.560007,261.328582 C121.622007,260.851582 126.999007,262.725582 131.943007,266.166582 C133.664007,267.364582 135.290007,264.548582 133.583007,263.360582 C128.220007,259.626582 122.133007,257.561582 115.560007,258.078582 C113.489007,258.241582 113.471007,261.492582 115.560007,261.328582" id="Fill-600" fill="#1D1D1B"></path>
                <path d="M162.548879,253.694663 C164.631879,255.409663 166.324879,257.930663 165.079879,260.673663 C164.221879,262.564663 167.021879,264.217663 167.885879,262.314663 C169.736879,258.236663 168.195879,254.153663 164.846879,251.396663 C163.244879,250.076663 160.932879,252.363663 162.548879,253.694663" id="Fill-602" fill="#1D1D1B"></path>
                <path d="M147.728116,257.076488 C151.222116,253.149488 158.092116,250.087488 162.916116,253.881488 C164.542116,255.159488 166.857116,252.875488 165.214116,251.582488 C158.978116,246.678488 150.282116,249.326488 145.430116,254.778488 C144.043116,256.336488 146.334116,258.642488 147.728116,257.076488" id="Fill-604" fill="#1D1D1B"></path>
                <path d="M166.536733,247.710534 C171.932733,252.322534 174.426733,259.377534 170.592733,265.832534 C169.521733,267.634534 172.330733,269.271534 173.398733,267.472534 C177.911733,259.876534 175.355733,250.986534 168.834733,245.412534 C167.252733,244.060534 164.943733,246.349534 166.536733,247.710534" id="Fill-606" fill="#1D1D1B"></path>
                <path d="M141.796446,250.164357 C148.420446,243.872357 159.200446,241.920357 166.806446,247.789357 C168.460446,249.065357 170.080446,246.244357 168.446446,244.982357 C159.675446,238.215357 147.075446,240.668357 139.498446,247.866357 C137.978446,249.310357 140.279446,251.605357 141.796446,250.164357" id="Fill-608" fill="#1D1D1B"></path>
                <path d="M168.051465,260.543033 C165.626465,255.567033 159.196465,254.353033 155.330465,258.537033 C151.471465,262.712033 152.703465,268.621033 156.838465,271.943033 C158.453465,273.241033 160.767465,270.956033 159.135465,269.645033 C156.615465,267.619033 155.270465,264.824033 157.005465,261.735033 C159.051465,258.092033 163.546465,258.697033 165.244465,262.184033 C166.160465,264.064033 168.964465,262.418033 168.051465,260.543033" id="Fill-610" fill="#1D1D1B"></path>
                <path d="M170.371817,265.750657 C167.817817,269.693657 162.618817,272.552657 158.363817,269.591657 C156.642817,268.394657 155.016817,271.209657 156.723817,272.397657 C162.497817,276.416657 169.703817,272.754657 173.177817,267.390657 C174.318817,265.630657 171.505817,263.999657 170.371817,265.750657" id="Fill-612" fill="#1D1D1B"></path>
                <path d="M145.310235,254.508228 C139.027235,261.296228 139.054235,269.096228 141.619235,277.562228 C142.224235,279.559228 145.362235,278.708228 144.753235,276.698228 C142.547235,269.418228 142.076235,262.782228 147.608235,256.806228 C149.027235,255.273228 146.734235,252.969228 145.310235,254.508228" id="Fill-614" fill="#1D1D1B"></path>
                <path d="M139.514248,248.431028 C134.800248,252.634028 132.086248,258.251028 131.027248,264.429028 C130.677248,266.474028 133.808248,267.353028 134.161248,265.293028 C135.132248,259.626028 137.479248,254.592028 141.812248,250.729028 C143.376248,249.334028 141.072248,247.042028 139.514248,248.431028" id="Fill-616" fill="#1D1D1B"></path>
                <path d="M65.3227547,314.32218 C78.4487547,331.43118 101.124755,339.68618 121.611755,331.30718 C123.521755,330.52718 122.685755,327.38118 120.747755,328.17418 C101.710755,335.95918 80.4327547,328.71918 68.1287547,312.68118 C66.8727547,311.04518 64.0487547,312.66118 65.3227547,314.32218" id="Fill-618" fill="#1D1D1B"></path>
                <path d="M59.1560053,304.486991 C60.6960053,307.955991 62.5090053,311.122991 64.7510053,314.188991 C65.9730053,315.859991 68.7940053,314.239991 67.5570053,312.547991 C65.3150053,309.482991 63.5020053,306.314991 61.9620053,302.846991 C61.1150053,300.938991 58.3140053,302.590991 59.1560053,304.486991" id="Fill-620" fill="#1D1D1B"></path>
                <path d="M56.7665817,290.058366 C58.6385817,291.217366 60.6895817,292.149366 62.8555817,292.584366 C64.8975817,292.994366 65.7715817,289.862366 63.7195817,289.450366 C61.7985817,289.064366 60.0665817,288.279366 58.4065817,287.252366 C56.6235817,286.148366 54.9895817,288.958366 56.7665817,290.058366" id="Fill-622" fill="#1D1D1B"></path>
                <path d="M81.025034,181.039485 C81.474034,183.785485 87.032034,184.727485 89.107034,185.830485 C93.329034,188.073485 95.252034,192.158485 99.012034,194.891485 C100.706034,196.122485 102.330034,193.304485 100.652034,192.085485 C97.674034,189.920485 96.099034,186.524485 93.035034,184.405485 C91.520034,183.357485 89.896034,182.563485 88.198034,181.874485 C87.309034,181.514485 86.405034,181.188485 85.542034,180.769485 C84.971034,180.492485 84.080034,179.692485 84.159034,180.175485 C83.822034,178.116485 80.690034,178.990485 81.025034,181.039485" id="Fill-624" fill="#1D1D1B"></path>
                <path d="M99.5697504,195.250002 L120.81175,195.278002 C122.90275,195.280002 122.90575,192.030002 120.81175,192.028002 L99.5697504,192.000002 C97.4787504,191.997002 97.4747504,195.247002 99.5697504,195.250002" id="Fill-626" fill="#1D1D1B"></path>
                <path d="M101.156969,222.486871 C102.238969,224.912871 103.862969,227.063871 105.610969,229.051871 C107.856969,231.608871 110.799969,233.922871 111.240969,237.522871 C111.491969,239.571871 114.744969,239.596871 114.490969,237.522871 C113.630969,230.510871 106.709969,227.008871 103.962969,220.845871 C103.113969,218.939871 100.311969,220.590871 101.156969,222.486871" id="Fill-628" fill="#1D1D1B"></path>
                <path d="M98.0005485,193.569001 C98.0995485,197.762001 98.2985485,201.927001 98.5475485,206.111001 C98.8775485,211.633001 98.6075485,217.841001 101.167549,222.909001 C102.111549,224.777001 104.916549,223.133001 103.974549,221.269001 C101.459549,216.291001 102.042549,209.839001 101.691549,204.416001 C101.458549,200.800001 101.335549,197.193001 101.250549,193.569001 C101.201549,191.481001 97.9515485,191.473001 98.0005485,193.569001" id="Fill-630" fill="#1D1D1B"></path>
                <path d="M111.440831,236.162722 C107.621831,237.903722 105.486831,242.099722 101.805831,244.092722 C99.9658307,245.088722 101.604831,247.895722 103.445831,246.898722 C107.127831,244.905722 109.309831,240.687722 113.081831,238.968722 C114.981831,238.102722 113.331831,235.300722 111.440831,236.162722" id="Fill-632" fill="#1D1D1B"></path>
                <path d="M121.093076,236.858049 C119.417076,236.850049 117.740076,236.812049 116.067076,236.693049 C115.488076,236.652049 114.904076,236.613049 114.329076,236.530049 C114.153076,236.505049 113.919076,236.419049 113.744076,236.431049 C113.152076,236.475049 113.505076,235.802049 113.952076,236.853049 C113.135076,234.935049 110.334076,236.589049 111.146076,238.493049 C111.609076,239.578049 113.318076,239.659049 114.285076,239.776049 C116.540076,240.050049 118.823076,240.097049 121.093076,240.108049 C123.185076,240.118049 123.187076,236.868049 121.093076,236.858049" id="Fill-634" fill="#1D1D1B"></path>
                <path d="M121.307644,249.807269 C117.544644,249.767269 113.763644,249.587269 110.058644,248.879269 C108.033644,248.493269 105.199644,248.119269 103.737644,246.514269 C102.326644,244.964269 100.033644,247.267269 101.439644,248.811269 C103.091644,250.625269 105.842644,251.292269 108.142644,251.801269 C112.451644,252.752269 116.908644,253.011269 121.307644,253.057269 C123.399644,253.079269 123.400644,249.829269 121.307644,249.807269" id="Fill-636" fill="#1D1D1B"></path>
                <path d="M104.344022,247.048543 C104.282022,246.970543 104.228022,246.887543 104.181022,246.799543 C104.249022,246.976543 104.258022,246.977543 104.207022,246.804543 C104.224022,246.927543 104.131022,247.311543 104.234022,247.041543 C104.103022,247.385543 104.231022,247.056543 104.291022,246.973543 C104.172022,247.131543 104.176022,247.143543 104.302022,247.008543 C104.152022,247.121543 104.155022,247.127543 104.312022,247.026543 C105.041022,246.589543 105.374022,245.546543 104.895022,244.802543 C104.422022,244.069543 103.452022,243.752543 102.672022,244.219543 C101.140022,245.136543 100.432022,247.149543 101.538022,248.689543 C102.032022,249.377543 102.976022,249.778543 103.761022,249.272543 C104.444022,248.831543 104.874022,247.787543 104.344022,247.048543" id="Fill-638" fill="#1D1D1B"></path>
                <path d="M159.231346,180.175923 C159.312346,179.689923 158.413346,180.490923 157.844346,180.764923 C156.980346,181.180923 156.074346,181.503923 155.185346,181.861923 C153.485346,182.546923 151.859346,183.336923 150.342346,184.380923 C147.274346,186.492923 145.690346,189.883923 142.707346,192.040923 C141.028346,193.254923 142.648346,196.074923 144.347346,194.846923 C148.115346,192.122923 150.044346,188.042923 154.273346,185.810923 C156.355346,184.712923 161.908346,183.788923 162.365346,181.039923 C162.705346,178.993923 159.574346,178.113923 159.231346,180.175923" id="Fill-640" fill="#1D1D1B"></path>
                <path d="M143.04375,192.029002 C135.55175,192.019002 128.06075,192.009002 120.56975,192.000002 C118.47875,191.997002 118.47475,195.247002 120.56975,195.250002 C128.06075,195.259002 135.55175,195.269002 143.04375,195.279002 C145.13475,195.282002 145.13775,192.032002 143.04375,192.029002" id="Fill-642" fill="#1D1D1B"></path>
                <path d="M138.58378,220.845738 C135.81978,227.003738 128.89378,230.480738 128.01478,237.494738 C127.75478,239.564738 131.00778,239.546738 131.26478,237.494738 C131.71478,233.902738 134.67178,231.584738 136.91978,229.039738 C138.67278,227.055738 140.30278,224.909738 141.39078,222.485738 C142.23978,220.593738 139.43978,218.938738 138.58378,220.845738" id="Fill-644" fill="#1D1D1B"></path>
                <path d="M141.878897,193.568625 C141.786897,197.186625 141.691897,200.800625 141.492897,204.415625 C141.193897,209.818625 141.707897,216.314625 139.191897,221.260625 C138.246897,223.121625 141.049897,224.768625 141.998897,222.901625 C144.566897,217.851625 144.341897,211.621625 144.646897,206.109625 C144.877897,201.928625 145.022897,197.755625 145.128897,193.568625 C145.181897,191.476625 141.931897,191.477625 141.878897,193.568625" id="Fill-646" fill="#1D1D1B"></path>
                <path d="M128.842269,238.970178 C132.609269,240.699178 134.780269,244.923178 138.456269,246.925178 C140.294269,247.926178 141.936269,245.121178 140.096269,244.119178 C136.420269,242.116178 134.298269,237.915178 130.482269,236.164178 C128.594269,235.298178 126.941269,238.098178 128.842269,238.970178" id="Fill-648" fill="#1D1D1B"></path>
                <path d="M121.56975,240.072859 C123.87875,240.066859 126.20375,240.027859 128.49875,239.754859 C129.49575,239.635859 131.13475,239.564859 131.63775,238.480859 C132.51275,236.594859 129.71275,234.942859 128.83175,236.839859 C129.13775,236.180859 129.62975,236.431859 128.79375,236.458859 C128.15375,236.479859 127.49475,236.610859 126.85475,236.655859 C125.09575,236.782859 123.33275,236.818859 121.56975,236.822859 C119.47875,236.827859 119.47475,240.077859 121.56975,240.072859" id="Fill-650" fill="#1D1D1B"></path>
                <path d="M121.570126,253.005896 C125.995126,252.970896 130.463126,252.711896 134.801126,251.782896 C137.116126,251.286896 139.897126,250.627896 141.567126,248.809896 C142.979126,247.270896 140.687126,244.966896 139.269126,246.510896 C137.801126,248.108896 134.899126,248.481896 132.876126,248.858896 C129.151126,249.553896 125.350126,249.725896 121.570126,249.755896 C119.479126,249.772896 119.474126,253.022896 121.570126,253.005896" id="Fill-652" fill="#1D1D1B"></path>
                <path d="M141.55763,248.685861 C142.66763,247.147861 141.95763,245.134861 140.42963,244.214861 C139.70063,243.775861 138.61263,244.028861 138.20663,244.797861 C137.79063,245.584861 138.01163,246.552861 138.78963,247.020861 C138.94663,247.122861 138.94963,247.117861 138.79863,247.004861 C138.92463,247.139861 138.92863,247.127861 138.80863,246.970861 C138.86863,247.053861 139.00863,247.395861 138.86563,247.038861 C138.89963,247.191861 138.90263,247.201861 138.87563,247.069861 C138.84763,246.980861 138.85163,246.891861 138.89063,246.802861 C138.83863,246.975861 138.84763,246.973861 138.91463,246.796861 C138.86763,246.884861 138.81363,246.966861 138.75163,247.044861 C138.25163,247.736861 138.60963,248.885861 139.33463,249.268861 C140.17563,249.712861 141.02463,249.423861 141.55763,248.685861" id="Fill-654" fill="#1D1D1B"></path>
                <path d="M102.044632,250.029693 C103.607632,257.068693 114.522632,261.508693 120.877632,261.344693 C122.964632,261.291693 122.973632,258.040693 120.877632,258.094693 C115.916632,258.222693 106.419632,254.753693 105.178632,249.165693 C104.725632,247.124693 101.591632,247.987693 102.044632,250.029693" id="Fill-656" fill="#1D1D1B"></path>
                <path d="M137.293875,249.165126 C136.038875,254.750126 126.522875,258.190126 121.567875,258.049126 C119.476875,257.990126 119.477875,261.240126 121.567875,261.299126 C127.925875,261.479126 138.846875,257.064126 140.427875,250.029126 C140.885875,247.992126 137.752875,247.122126 137.293875,249.165126" id="Fill-658" fill="#1D1D1B"></path>
                <path d="M63.9942481,323.535935 C64.7072481,322.107935 65.6652481,320.007935 67.2862481,319.393935 C68.6962481,318.860935 69.9682481,319.987935 70.9072481,320.901935 C72.4062481,322.361935 74.7062481,320.065935 73.2042481,318.603935 C71.4952481,316.938935 69.2592481,315.520935 66.7752481,316.153935 C64.0412481,316.849935 62.3632481,319.543935 61.1872481,321.895935 C60.2552481,323.761935 63.0572481,325.408935 63.9942481,323.535935" id="Fill-660" fill="#1D1D1B"></path>
                <path d="M19.852985,310.761422 C20.779985,309.354422 20.732985,307.518422 19.594985,306.245422 C18.498985,305.019422 16.706985,304.725422 15.192985,305.245422 C14.362985,305.530422 13.814985,306.360422 14.057985,307.244422 C14.279985,308.051422 15.222985,308.665422 16.056985,308.379422 C16.135985,308.352422 16.722985,308.224422 16.502985,308.243422 C16.573985,308.237422 17.004985,308.268422 16.715985,308.221422 C16.816985,308.240422 16.914985,308.265422 17.012985,308.296422 C16.856985,308.219422 16.862985,308.223422 17.029985,308.307422 C17.186985,308.410422 17.193985,308.407422 17.051985,308.296422 C17.105985,308.341422 17.156985,308.388422 17.203985,308.440422 C17.281985,308.525422 17.269985,308.505422 17.166985,308.378422 C17.218985,308.454422 17.264985,308.533422 17.304985,308.615422 C17.230985,308.437422 17.222985,308.437422 17.279985,308.615422 C17.265985,308.435422 17.262985,308.407422 17.269985,308.530422 C17.274985,308.601422 17.274985,308.673422 17.269985,308.745422 C17.299985,308.557422 17.293985,308.561422 17.250985,308.756422 C17.191985,308.935422 17.185985,308.956422 17.231985,308.820422 C17.176985,308.924422 17.114985,309.024422 17.046985,309.120422 C16.563985,309.853422 16.900985,310.918422 17.629985,311.344422 C18.422985,311.808422 19.368985,311.495422 19.852985,310.761422" id="Fill-662" fill="#1D1D1B"></path>
                <path d="M51.0144486,307.01063 C51.0784486,306.89063 51.1444486,306.77363 51.2194486,306.65963 C51.3204486,306.50763 51.1094486,306.78463 51.2934486,306.56563 C51.3194486,306.53463 51.6054486,306.27063 51.4444486,306.40263 C51.2954486,306.52363 51.6044486,306.30263 51.6154486,306.29663 C51.7924486,306.20663 51.6684486,306.22363 51.5784486,306.29963 C51.5794486,306.29863 51.9894486,306.17463 51.7224486,306.24263 C51.4694486,306.30763 51.8164486,306.21163 51.8674486,306.25163 C51.5884486,306.03263 51.8224486,306.38963 51.8474486,306.27163 C51.8404486,306.30363 51.6964486,306.15563 51.8354486,306.28763 C52.1374486,306.57363 51.7634486,306.14863 51.9064486,306.35863 C51.9824486,306.46963 52.0534486,306.59163 52.1074486,306.71563 C52.1054486,306.71063 52.2614486,307.25863 52.2914486,307.44863 C52.3484486,307.80163 52.3464486,308.16663 52.3464486,308.52463 C52.3464486,310.61563 55.5964486,310.61863 55.5964486,308.52463 C55.5964486,306.44163 54.9944486,303.81863 52.7114486,303.13763 C50.8584486,302.58463 49.0674486,303.77263 48.2084486,305.36963 C47.2184486,307.21263 50.0224486,308.85563 51.0144486,307.01063" id="Fill-664" fill="#1D1D1B"></path>
                <path d="M69.8114894,289.032547 C68.4854894,289.281547 67.2104894,289.863547 66.5194894,291.082547 C65.5104894,292.864547 66.1694894,295.135547 66.8274894,296.908547 C67.5484894,298.852547 70.6904894,298.011547 69.9614894,296.044547 C69.6364894,295.168547 68.9794894,293.484547 69.3264894,292.722547 C69.3904894,292.582547 69.4614894,292.507547 69.7484894,292.385547 C69.7284894,292.394547 70.4154894,292.215547 70.6754894,292.166547 C72.7284894,291.781547 71.8584894,288.648547 69.8114894,289.032547" id="Fill-666" fill="#1D1D1B"></path>
                <path d="M105.441222,281.826277 C105.279222,282.106277 105.501222,281.839277 105.294222,282.037277 C105.487222,281.852277 105.140222,282.117277 105.104222,282.151277 C105.294222,281.972277 104.911222,282.183277 105.177222,282.143277 C105.072222,282.153277 104.968222,282.156277 104.863222,282.151277 C105.007222,282.179277 105.021222,282.180277 104.904222,282.155277 C104.693222,282.120277 104.595222,282.055277 104.484222,281.932277 C104.350222,281.785277 104.247222,281.502277 104.175222,281.167277 C103.736222,279.123277 100.602222,279.988277 101.042222,282.031277 C101.384222,283.627277 102.554222,284.999277 104.196222,285.319277 C105.821222,285.635277 107.421222,284.899277 108.248222,283.466277 C109.295222,281.652277 106.487222,280.013277 105.441222,281.826277" id="Fill-668" fill="#1D1D1B"></path>
                <path d="M121.605317,173.000023 C112.751317,173.041023 103.869317,173.438023 95.1033171,174.751023 C90.6763171,175.414023 85.1293171,176.018023 81.5453171,179.000023 C79.9363171,180.340023 82.2463171,182.628023 83.8433171,181.299023 C87.2193171,178.489023 93.7723171,178.160023 97.8663171,177.625023 C105.732317,176.599023 113.679317,176.287023 121.605317,176.250023 C123.696317,176.240023 123.700317,172.990023 121.605317,173.000023" id="Fill-670" fill="#1D1D1B"></path>
                <path d="M121.569375,176.250015 C129.368375,176.278015 137.185375,176.575015 144.930375,177.533015 C149.167375,178.057015 156.095375,178.358015 159.605375,181.256015 C161.206375,182.579015 163.518375,180.292015 161.903375,178.958015 C158.281375,175.967015 152.664375,175.381015 148.209375,174.723015 C139.397375,173.420015 130.468375,173.032015 121.569375,173.000015 C119.478375,172.992015 119.475375,176.242015 121.569375,176.250015" id="Fill-672" fill="#1D1D1B"></path>
                <path d="M128.234999,103.974237 C128.898999,96.2012366 126.354999,90.8592366 120.788999,85.4652366 C119.285999,84.0092366 116.984999,86.3052366 118.490999,87.7642366 C123.479999,92.5992366 125.576999,97.0412366 124.984999,103.974237 C124.806999,106.057237 128.057999,106.046237 128.234999,103.974237" id="Fill-674" fill="#1D1D1B"></path>
                <path d="M120.584155,85.6623756 C113.024155,79.0073756 106.377155,66.8443756 106.250155,56.5693756 C106.224155,54.4793756 102.974155,54.4743756 103.000155,56.5693756 C103.137155,67.6223756 110.131155,80.7813756 118.286155,87.9603756 C119.850155,89.3383756 122.158155,87.0483756 120.584155,85.6623756" id="Fill-676" fill="#1D1D1B"></path>
                <path d="M112.023152,102.876974 C108.995152,97.8739743 106.190152,93.1619743 107.595152,87.0279743 C108.061152,84.9919743 104.928152,84.1229743 104.461152,86.1639743 C102.852152,93.1899743 105.698152,98.7049743 109.217152,104.517974 C110.299152,106.303974 113.110152,104.672974 112.023152,102.876974" id="Fill-678" fill="#1D1D1B"></path>
                <path d="M120.244315,112.332996 C119.920315,110.787996 119.053315,109.578996 117.996315,108.439996 C116.193315,106.495996 114.352315,104.625996 112.684315,102.555996 C111.372315,100.926996 109.086315,103.238996 110.387315,104.853996 C111.917315,106.754996 113.564315,108.515996 115.254315,110.271996 C116.117315,111.169996 116.849315,111.951996 117.110315,113.196996 C117.538315,115.242996 120.672315,114.376996 120.244315,112.332996" id="Fill-680" fill="#1D1D1B"></path>
                <path d="M108.276011,87.0100574 C108.815011,82.6320574 110.161011,75.7830574 106.306011,72.3420574 C105.400011,71.5320574 104.197011,71.5270574 103.293011,70.8820574 C101.539011,69.6300574 102.353011,67.0770574 102.704011,65.0390574 C103.056011,62.9930574 99.9250106,62.1150574 99.5700106,64.1750574 C99.0070106,67.4430574 98.0080106,71.9060574 101.581011,73.7130574 C102.925011,74.3940574 103.878011,74.2170574 104.748011,75.6500574 C106.685011,78.8410574 105.445011,83.6000574 105.026011,87.0100574 C104.771011,89.0810574 108.024011,89.0630574 108.276011,87.0100574" id="Fill-682" fill="#1D1D1B"></path>
                <path d="M102.188048,64.6802723 C102.734048,62.4692723 103.344048,60.2902723 103.718048,58.0392723 C104.059048,55.9932723 100.927048,55.1142723 100.584048,57.1762723 C100.210048,59.4262723 99.6000478,61.6052723 99.0540478,63.8162723 C98.5530478,65.8472723 101.687048,66.7132723 102.188048,64.6802723" id="Fill-684" fill="#1D1D1B"></path>
                <path d="M103.708881,57.5397447 C104.145881,51.3197447 100.137881,47.5307447 96.0158811,43.4597447 C94.1008811,41.5687447 91.4158811,39.4047447 90.7748811,36.7157447 C90.4808811,35.4807447 90.7618811,34.3797447 90.2528811,33.0887447 C89.4958811,31.1647447 86.3518811,32.0027447 87.1198811,33.9537447 C88.0858811,36.4097447 87.5378811,38.4047447 89.2038811,40.7707447 C93.0548811,46.2407447 100.989881,49.9787447 100.458881,57.5397447 C100.312881,59.6267447 103.562881,59.6177447 103.708881,57.5397447" id="Fill-686" fill="#1D1D1B"></path>
                <path d="M90.4094936,33.0404511 C89.2754936,30.1084511 88.9114936,27.1304511 89.5394936,24.0344511 C89.9524936,21.9924511 86.8214936,21.1184511 86.4054936,23.1704511 C85.6654936,26.8234511 85.9284936,30.4214511 87.2754936,33.9044511 C88.0224936,35.8344511 91.1664936,34.9954511 90.4094936,33.0404511" id="Fill-688" fill="#1D1D1B"></path>
                <path d="M89.6634933,24.2991745 C90.1844933,19.8381745 89.8334933,15.0181745 86.7274933,11.5231745 C85.3354933,9.95617452 83.0434933,12.2611745 84.4294933,13.8201745 C86.9154933,16.6191745 86.8224933,20.8001745 86.4134933,24.2991745 C86.1704933,26.3721745 89.4224933,26.3551745 89.6634933,24.2991745" id="Fill-690" fill="#1D1D1B"></path>
                <path d="M87.1456129,11.4542204 C85.4476129,9.83122042 84.1416129,7.98722042 84.2506129,5.54922042 C84.3046129,4.34322042 84.7546129,3.22522042 84.9256129,2.04122042 C85.2226129,-0.00477958424 82.0916129,-0.887779584 81.7916129,1.17722042 C81.5316129,2.97322042 80.8996129,4.61322042 81.0136129,6.46922042 C81.1926129,9.39922042 82.7766129,11.7722204 84.8476129,13.7522204 C86.3596129,15.1972204 88.6616129,12.9032204 87.1456129,11.4542204" id="Fill-692" fill="#1D1D1B"></path>
                <path d="M88.7698503,12.3411701 C87.3178503,11.4781701 80.4918503,7.85217006 81.3578503,5.88617006 C81.9798503,4.47217006 83.8848503,3.84817006 84.2428503,2.03517006 C84.6468503,-0.0078299366 81.5158503,-0.881829937 81.1088503,1.17117006 C80.7988503,2.74017006 78.1718503,3.71917006 78.0108503,5.93117006 C77.6978503,10.2161701 84.2378503,13.4271701 87.1298503,15.1471701 C88.9318503,16.2191701 90.5678503,13.4101701 88.7698503,12.3411701" id="Fill-694" fill="#1D1D1B"></path>
                <path d="M106.005812,56.6017821 C106.377812,50.7127821 106.489812,43.3777821 101.889812,38.9257821 C98.3358123,35.4847821 92.8968123,32.4677821 92.1518123,27.1767821 C91.8618123,25.1147821 88.7298123,25.9917821 89.0188123,28.0407821 C89.7198123,33.0327821 94.3448123,36.8127821 97.9508123,39.9577821 C103.022812,44.3817821 103.170812,50.0227821 102.755812,56.6017821 C102.623812,58.6907821 105.874812,58.6827821 106.005812,56.6017821" id="Fill-696" fill="#1D1D1B"></path>
                <path d="M92.72084,27.5615109 C92.68384,24.2145109 95.92384,23.4185109 96.78084,20.5865109 C97.97084,16.6475109 91.95484,13.7415109 89.42084,12.2385109 C87.61684,11.1695109 85.98084,13.9785109 87.78084,15.0445109 C89.03284,15.7875109 93.28084,17.6655109 93.57284,19.3375109 C93.68384,19.9725109 93.16984,20.2805109 92.70084,20.7685109 C90.79284,22.7555109 89.43884,24.6845109 89.47084,27.5615109 C89.49384,29.6515109 92.74384,29.6565109 92.72084,27.5615109" id="Fill-698" fill="#1D1D1B"></path>
                <path d="M120.152566,113.094018 C120.287566,112.133018 123.153566,111.032018 124.059566,110.394018 C126.288566,108.822018 127.855566,106.736018 128.413566,104.034018 C128.834566,101.992018 125.702566,101.119018 125.279566,103.170018 C124.720566,105.877018 122.964566,107.353018 120.673566,108.678018 C119.271566,109.489018 117.272566,110.419018 117.018566,112.230018 C116.731566,114.276018 119.862566,115.160018 120.152566,113.094018" id="Fill-700" fill="#1D1D1B"></path>
            </g>
        </g>
    </g>
</svg>