<?xml version="1.0" encoding="UTF-8" standalone="no"?>
<svg width="150px" height="57px" viewBox="0 0 150 57" version="1.1" xmlns="http://www.w3.org/2000/svg" xmlns:xlink="http://www.w3.org/1999/xlink">
    <!-- Generator: Sketch 47.1 (45422) - http://www.bohemiancoding.com/sketch -->
    <title>cloud</title>
    <desc>Created with Sketch.</desc>
    <defs></defs>
    <g id="Page-1" stroke="none" stroke-width="1" fill="none" fill-rule="evenodd">
        <g id="cloud">
            <g id="Page-1" transform="translate(0.000000, -1.000000)">
                <g id="Group-42" transform="translate(0.000000, 0.140000)">
                    <path d="M143.7614,43.6644 C143.6194,43.5424 143.4744,43.4244 143.3134,43.3324 C142.8594,42.5244 142.0324,41.9314 140.8294,41.9154 C139.2114,41.8944 137.6074,41.7054 136.0004,41.5384 C135.8914,38.9634 135.4814,36.4974 134.0734,34.1924 C132.8364,32.1664 130.8274,30.8304 128.9594,29.3944 C129.1014,28.5774 128.9364,27.6894 128.2784,26.8944 C125.1894,23.1644 121.6654,20.5394 116.7324,20.2234 C112.1724,19.9324 107.5814,22.7844 103.7804,25.1084 C103.5604,23.3274 103.5564,21.5144 103.2884,19.7284 C102.9054,17.1754 101.2264,14.7614 99.3024,13.1304 C95.6244,10.0154 90.5444,10.0964 86.2824,11.8104 C83.8064,9.3344 81.1654,6.4824 77.8614,5.1534 C74.8924,3.9594 71.9884,4.4634 68.9334,4.6654 C63.0384,1.9764 53.1744,1.3224 49.0184,7.2114 C46.5064,10.7714 45.2484,15.1034 45.7444,19.4444 C46.1104,22.6414 46.7584,24.4024 43.8664,26.2484 C42.3114,27.2414 40.8994,28.2494 39.6254,29.5944 C39.5604,29.6624 39.5184,29.7344 39.4624,29.8044 C39.1574,29.6964 38.8274,29.6204 38.4484,29.6164 C32.8564,29.5494 28.2154,29.9124 25.2304,35.1074 C23.5004,38.1184 20.6744,39.5704 18.4514,41.7194 C18.0044,41.9564 17.6054,42.3324 17.3094,42.8864 C17.2464,42.9964 17.1924,43.1094 17.1314,43.2204 C16.4514,44.1404 15.8914,45.2054 15.5444,46.5384 C15.4394,46.9424 15.4254,47.3304 15.4824,47.6954 C13.6384,48.9564 10.7404,49.9944 9.7744,50.6264 C7.3034,52.2434 8.2294,56.1574 11.2854,56.2164 C12.4144,56.2384 13.2884,56.1194 14.3974,55.9074 C15.0864,55.7754 15.5934,55.4764 15.9424,55.0794 C16.0204,55.0880667 57.6494,55.0997333 140.8294,55.1144 C142.2914,55.1144 147.120425,50.950087 147.344827,48.6642574 C147.494428,47.140371 146.299952,45.4737519 143.7614,43.6644 Z" id="Fill-11" fill="#FBEDD5"></path>
                    <path d="M142.3732,54.1781 L19.9772,54.1781 L2.8242,54.1781 C0.7322,54.1781 0.7292,57.4281 2.8242,57.4281 L125.2192,57.4281 L142.3732,57.4281 C144.4642,57.4281 144.4682,54.1781 142.3732,54.1781" id="Fill-12" fill="#000000"></path>
                    <path d="M2.8239,54.1781 C2.7179,54.1781 2.6119,54.1761 2.5059,54.1701 C2.3359,54.1551 2.3269,54.1561 2.4779,54.1731 C2.6139,54.1941 2.6199,54.1921 2.4989,54.1651 C2.8159,54.2651 3.0679,54.4631 3.2529,54.7591 C3.3269,55.0321 3.4009,55.3051 3.4749,55.5791 C3.4779,55.8991 3.3819,56.1701 3.1889,56.3911 C3.0779,56.5221 3.0659,56.5441 3.1509,56.4571 C3.1349,56.5111 2.8289,56.6681 3.0379,56.5491 C3.2329,56.4381 3.4219,56.3231 3.6229,56.2211 C4.1989,55.9321 4.3079,55.9011 4.9489,55.6631 C5.4729,55.4691 6.0029,55.2901 6.5389,55.1301 C6.7819,55.0581 7.0269,54.9881 7.2749,54.9291 C7.4409,54.8891 8.0659,54.8071 7.4569,54.8721 C8.3289,54.7801 9.0819,54.1911 9.0819,53.2471 C9.0819,52.4401 8.3349,51.5291 7.4569,51.6221 C5.5909,51.8191 3.6469,52.5801 1.9829,53.4151 C1.1329,53.8411 0.2279,54.4831 0.2209,55.5401 C0.2129,57.0061 1.6429,57.4131 2.8239,57.4281 C4.9159,57.4541 4.9169,54.2041 2.8239,54.1781" id="Fill-13" fill="#000000"></path>
                    <path d="M138.6467,44.4486 C139.5317,43.1626 141.0347,42.8796 142.4347,43.4006 C144.3977,44.1306 145.2447,40.9906 143.2987,40.2666 C140.4777,39.2176 137.5037,40.3926 135.8407,42.8076 C134.6517,44.5346 137.4667,46.1616 138.6467,44.4486" id="Fill-14" fill="#000000"></path>
                    <path d="M2.8239,54.0809 C2.7179,54.0809 2.6119,54.0789 2.5059,54.0729 C2.3359,54.0579 2.3269,54.0589 2.4779,54.0759 C2.6139,54.0969 2.6199,54.0939 2.4989,54.0679 C2.8159,54.1669 3.0679,54.3649 3.2529,54.6619 C3.3269,54.9349 3.4009,55.2079 3.4749,55.4819 C3.4779,55.8019 3.3819,56.0719 3.1889,56.2929 C3.0779,56.4249 3.0659,56.4469 3.1509,56.3599 C3.1349,56.4139 2.8289,56.5709 3.0379,56.4519 C3.2329,56.3409 3.4219,56.2249 3.6229,56.1239 C4.1989,55.8349 4.3079,55.8029 4.9489,55.5659 C5.4729,55.3719 6.0029,55.1919 6.5389,55.0329 C6.7819,54.9599 7.0269,54.8909 7.2749,54.8319 C7.4409,54.7919 8.0659,54.7099 7.4569,54.7739 C8.3289,54.6819 9.0819,54.0939 9.0819,53.1489 C9.0819,52.3419 8.3349,51.4319 7.4569,51.5239 C5.5909,51.7219 3.6469,52.4829 1.9829,53.3179 C1.1329,53.7439 0.2279,54.3849 0.2209,55.4419 C0.2129,56.9089 1.6429,57.3159 2.8239,57.3309 C4.9159,57.3569 4.9169,54.1069 2.8239,54.0809" id="Fill-15" fill="#000000"></path>
                    <path d="M17.3957,46.9208 C15.9697,42.7018 18.4187,38.7328 22.7767,38.0258 C24.8367,37.6918 23.9627,34.5598 21.9137,34.8918 C15.8607,35.8748 12.3127,42.0198 14.2617,47.7848 C14.9277,49.7558 18.0677,48.9098 17.3957,46.9208" id="Fill-16" fill="#000000"></path>
                    <path d="M24.1765,37.0004 C24.2985,36.8114 24.6345,36.4604 24.8635,36.3114 C25.0585,36.1844 25.2625,36.0654 25.4745,35.9714 C25.7305,35.8574 25.3035,36.0254 25.5665,35.9414 C25.7015,35.8974 25.8355,35.8574 25.9725,35.8214 C26.8215,35.5964 27.3385,34.6624 27.1085,33.8224 C26.8725,32.9664 25.9605,32.4624 25.1095,32.6874 C23.5725,33.0934 22.2325,34.0214 21.3705,35.3604 C20.8945,36.0984 21.2185,37.1544 21.9535,37.5834 C22.7405,38.0434 23.6995,37.7404 24.1765,37.0004" id="Fill-17" fill="#000000"></path>
                    <path d="M26.944,35.0741 C28.778,30.8621 33.21,28.9551 37.436,31.0711 C39.3,32.0051 40.948,29.2031 39.076,28.2651 C33.413,25.4291 26.715,27.5171 24.138,33.4341 C23.311,35.3321 26.11,36.9891 26.944,35.0741" id="Fill-18" fill="#000000"></path>
                    <path d="M39.0251,31.1849 C39.1251,31.1459 39.2281,31.1149 39.3291,31.0779 C39.5891,30.9789 39.2981,31.0519 39.4531,31.0449 C39.4811,31.0429 39.7961,31.0359 39.6391,31.0289 C39.4851,31.0229 39.8811,31.0869 39.8971,31.0909 C40.7161,31.3129 41.7001,30.8139 41.8961,29.9559 C42.0901,29.0999 41.6381,28.1949 40.7601,27.9569 C39.9121,27.7269 38.9851,27.7279 38.1611,28.0509 C37.3721,28.3599 36.7361,29.1549 37.0261,30.0499 C37.2741,30.8159 38.1771,31.5169 39.0251,31.1849" id="Fill-19" fill="#000000"></path>
                    <path d="M42.0197,29.7709 C42.6347,28.1229 44.3017,27.1239 46.0197,27.1449 C48.1117,27.1709 48.1127,23.9209 46.0197,23.8949 C42.7717,23.8539 40.0057,25.9059 38.8857,28.9069 C38.1537,30.8689 41.2937,31.7159 42.0197,29.7709" id="Fill-20" fill="#000000"></path>
                    <path d="M47.6442,25.5199 C47.6452,25.4499 47.6582,25.3759 47.6552,25.3059 C47.6462,25.1249 47.5822,25.6249 47.6412,25.4229 C47.6982,25.2239 47.7252,25.0139 47.7822,24.8129 C47.8062,24.7289 47.8342,24.6459 47.8602,24.5619 C47.9112,24.3929 47.9502,24.3279 47.8572,24.5299 C47.9242,24.3839 48.2462,23.9319 47.9412,24.2979 C48.4842,23.6449 48.6272,22.6299 47.9412,21.9999 C47.3412,21.4489 46.2242,21.3019 45.6432,21.9999 C44.8502,22.9519 44.4102,24.2809 44.3942,25.5199 C44.3832,26.3709 45.1492,27.1839 46.0192,27.1449 C46.9092,27.1049 47.6322,26.4309 47.6442,25.5199" id="Fill-21" fill="#000000"></path>
                    <path d="M47.7678,21.8783 C45.5658,19.5453 45.8388,16.3413 48.1838,14.2413 C49.7448,12.8423 47.4398,10.5503 45.8858,11.9433 C42.1988,15.2453 42.1118,20.6193 45.4698,24.1763 C46.9088,25.7003 49.2038,23.3993 47.7678,21.8783" id="Fill-22" fill="#000000"></path>
                    <path d="M48.7409,12.7201 C48.5219,7.7501 52.5849,3.7071 57.6429,4.5421 C59.6889,4.8801 60.5689,1.7491 58.5069,1.4081 C51.4709,0.2461 45.1709,5.4671 45.4909,12.7201 C45.5829,14.8031 48.8329,14.8151 48.7409,12.7201" id="Fill-23" fill="#000000"></path>
                    <path d="M58.9357,4.4246 C60.9597,3.8486 62.9867,4.3646 64.4787,5.8526 C65.9617,7.3316 68.2607,5.0346 66.7777,3.5546 C64.4847,1.2686 61.1897,0.4036 58.0717,1.2906 C56.0627,1.8616 56.9167,4.9996 58.9357,4.4246" id="Fill-24" fill="#000000"></path>
                    <path d="M66.8737,6.2211 C69.8167,4.7411 73.1937,4.6081 76.2207,5.9431 C78.1167,6.7801 79.7727,3.9801 77.8617,3.1371 C73.6997,1.3011 69.3097,1.3651 65.2327,3.4151 C63.3647,4.3551 65.0077,7.1591 66.8737,6.2211" id="Fill-25" fill="#000000"></path>
                    <path d="M77.0412,6.1654 C79.2392,6.3304 81.5122,7.6344 82.2092,9.8254 C82.8402,11.8104 85.9792,10.9624 85.3432,8.9604 C84.1832,5.3144 80.7332,3.1914 77.0412,2.9154 C74.9552,2.7594 74.9652,6.0094 77.0412,6.1654" id="Fill-26" fill="#000000"></path>
                    <path d="M83.5236,11.2445 C83.7216,11.2755 83.9066,11.3275 84.1006,11.3745 C84.2786,11.4395 84.2866,11.4395 84.1256,11.3735 C84.2146,11.4165 84.3016,11.4625 84.3876,11.5115 C84.4726,11.5615 84.5566,11.6145 84.6376,11.6715 C84.5056,11.5655 84.5116,11.5735 84.6546,11.6955 C84.7006,11.7425 85.0766,12.1815 84.8886,11.9225 C85.3886,12.6075 86.3226,13.0145 87.1116,12.5055 C87.7906,12.0685 88.2306,11.0165 87.6946,10.2825 C86.8896,9.1775 85.7686,8.3255 84.3876,8.1105 C83.5506,7.9805 82.5986,8.3225 82.3886,9.2455 C82.2116,10.0225 82.6256,11.1045 83.5236,11.2445" id="Fill-27" fill="#000000"></path>
                    <path d="M87.5412,12.6893 C89.0392,11.7053 90.6592,11.4983 92.3592,12.0693 C94.3462,12.7383 95.1982,9.6013 93.2232,8.9363 C90.7692,8.1103 88.0642,8.4623 85.9012,9.8823 C84.1602,11.0263 85.7862,13.8413 87.5412,12.6893" id="Fill-28" fill="#000000"></path>
                    <path d="M93.2233,12.0697 C96.0853,11.1287 101.2503,13.3707 101.4943,16.7187 C101.6443,18.7927 104.8953,18.8087 104.7443,16.7187 C104.3503,11.3067 97.3903,7.2817 92.3593,8.9357 C90.3813,9.5867 91.2283,12.7257 93.2233,12.0697" id="Fill-29" fill="#000000"></path>
                    <path d="M101.9699,17.868 C103.4309,19.614 103.2199,22.229 102.2689,24.158 C101.3469,26.027 104.1489,27.676 105.0749,25.798 C106.7269,22.447 106.7339,18.516 104.2679,15.57 C102.9249,13.964 100.6359,16.274 101.9699,17.868" id="Fill-30" fill="#000000"></path>
                    <path d="M104.278,26.5428 C104.44,26.4478 104.323,26.5018 104.217,26.5438 C104.3,26.5118 104.386,26.4848 104.471,26.4618 C104.562,26.4368 104.654,26.4178 104.746,26.4018 C104.508,26.4438 104.676,26.4098 104.821,26.4118 C104.919,26.4138 105.016,26.4158 105.113,26.4178 C105.369,26.4248 104.86,26.3818 105.102,26.4188 C105.147,26.4278 105.191,26.4388 105.235,26.4518 C105.324,26.4808 105.321,26.4758 105.225,26.4358 C105.132,26.3908 105.126,26.3898 105.205,26.4308 C105.31,26.4918 105.281,26.4628 105.118,26.3438 C105.797,26.8998 106.753,27.0078 107.417,26.3438 C107.99,25.7708 108.099,24.6058 107.417,24.0458 C106.103,22.9688 104.104,22.8698 102.638,23.7368 C100.839,24.8008 102.472,27.6108 104.278,26.5428" id="Fill-31" fill="#000000"></path>
                    <path d="M107.6706,26.0155 C108.3326,24.8185 109.4896,24.1375 110.8576,24.1595 C112.9496,24.1925 112.9506,20.9425 110.8576,20.9095 C108.3826,20.8695 106.0626,22.2075 104.8646,24.3745 C103.8516,26.2065 106.6576,27.8485 107.6706,26.0155" id="Fill-32" fill="#000000"></path>
                    <path d="M112.258,23.2543 C115.087,19.7293 120.883,19.4363 122.643,24.2943 C123.35,26.2463 126.491,25.4033 125.777,23.4303 C123.277,16.5283 114.488,15.3143 109.96,20.9563 C108.663,22.5723 110.948,24.8853 112.258,23.2543" id="Fill-33" fill="#000000"></path>
                    <path d="M123.3898,25.2655 C125.0478,26.1635 126.1018,27.6235 126.1548,29.5425 C126.2118,31.6295 129.4618,31.6385 129.4048,29.5425 C129.3218,26.5105 127.6968,23.9035 125.0298,22.4595 C123.1908,21.4635 121.5478,24.2675 123.3898,25.2655" id="Fill-34" fill="#000000"></path>
                    <path d="M127.7795,31.1674 C129.0055,31.0554 130.2785,31.6204 130.7195,32.8444 C131.0185,33.6694 131.8255,34.2254 132.7185,33.9794 C133.5155,33.7604 134.1535,32.8104 133.8545,31.9804 C132.9475,29.4714 130.5115,27.6664 127.7795,27.9174 C126.9055,27.9984 126.1545,28.6064 126.1545,29.5424 C126.1545,30.3594 126.9005,31.2484 127.7795,31.1674" id="Fill-35" fill="#000000"></path>
                    <path d="M131.8552,33.9794 C135.0882,35.2084 135.6912,39.0754 133.7802,41.6514 C132.5332,43.3334 135.3532,44.9554 136.5862,43.2924 C139.8652,38.8724 137.7212,32.7474 132.7192,30.8454 C130.7622,30.1014 129.9162,33.2424 131.8552,33.9794" id="Fill-36" fill="#000000"></path>
                    <path d="M135.1833,44.097 C135.2643,44.09 135.3453,44.09 135.4253,44.098 C135.2053,44.068 135.1893,44.074 135.3773,44.117 C135.4203,44.131 135.4633,44.145 135.5073,44.16 C135.3333,44.084 135.3303,44.089 135.4993,44.173 C135.5953,44.236 135.8093,44.457 135.6223,44.241 C135.6883,44.3 135.7503,44.363 135.8083,44.43 C135.6843,44.267 135.6683,44.26 135.7593,44.408 C136.1703,45.153 137.2573,45.458 137.9823,44.991 C138.7373,44.504 139.0043,43.565 138.5653,42.768 C137.9283,41.613 136.5053,40.793 135.1833,40.847 C134.3353,40.882 133.5173,41.57 133.5583,42.472 C133.5963,43.323 134.2733,44.134 135.1833,44.097" id="Fill-37" fill="#000000"></path>
                    <path d="M15.8376,45.8851 C13.4486,45.6801 11.1616,46.9541 9.9356,48.9821 C8.8506,50.7771 11.6596,52.4121 12.7416,50.6221 C13.4146,49.5101 14.5686,49.0261 15.8376,49.1351 C16.7136,49.2101 17.4626,48.3341 17.4626,47.5101 C17.4626,46.5681 16.7156,45.9601 15.8376,45.8851" id="Fill-38" fill="#000000"></path>
                    <path d="M10.4557,48.537 C9.4407,49.135 8.5787,49.832 7.9087,50.805 C7.8317,50.917 7.7567,51.032 7.6867,51.148 C7.4507,51.541 7.7517,51.008 7.6187,51.256 C7.5657,51.313 7.5107,51.367 7.4527,51.417 C7.6187,51.293 7.6217,51.284 7.4597,51.391 C7.2137,51.524 7.2447,51.507 7.0247,51.582 C6.1957,51.868 5.6467,52.697 5.8897,53.581 C6.1117,54.388 7.0557,55.003 7.8887,54.716 C8.9467,54.352 9.7627,53.851 10.4037,52.925 C10.4887,52.801 10.5647,52.672 10.6477,52.547 C10.6937,52.477 10.7387,52.409 10.7877,52.342 C10.9197,52.156 10.6167,52.531 10.7937,52.34 C11.1847,51.921 11.6017,51.635 12.0957,51.343 C13.8967,50.283 12.2637,47.473 10.4557,48.537" id="Fill-39" fill="#000000"></path>
                    <path d="M142.656056,41.6347474 C145.394706,43.1839807 148.600463,45.5967429 147.9783,49.1355303 C147.422134,52.2989272 144.204771,55.8938692 142.088803,55.7440643" id="Path-2" stroke="#000000" stroke-width="3"></path>
                </g>
            </g>
        </g>
    </g>
</svg>