<?xml version="1.0" encoding="UTF-8" standalone="no"?>
<svg width="150px" height="150px" viewBox="0 0 150 150" version="1.1" xmlns="http://www.w3.org/2000/svg" xmlns:xlink="http://www.w3.org/1999/xlink">
    <!-- Generator: Sketch 48.1 (47250) - http://www.bohemiancoding.com/sketch -->
    <title>colon</title>
    <desc>Created with Sketch.</desc>
    <defs></defs>
    <g id="Page-1" stroke="none" stroke-width="1" fill="none" fill-rule="evenodd">
        <g id="colon">
            <g id="Group-65" transform="translate(39.000000, -1.000000)">
                <path d="M22.9266667,47.6054349 C23.5274286,47.9665354 24.2158519,48.231128 25.0932698,48.231128 L23.6175026,150.193371 L49.3215873,150.193371 L48.1554497,48.1989587 C51.2573757,48.0284614 52.4757884,45.1082921 51.8605503,42.703636 C55.6935238,40.876419 59.9945608,37.0354032 57.1572275,32.5896042 C60.3202751,31.6100487 60.8229206,27.2889058 58.6539048,25.2759111 C58.5590053,24.9638688 58.5324656,24.6598688 58.3547302,24.3397841 C57.7869418,23.3216254 57.5955344,22.5157841 57.6502222,21.1719111 C57.6695238,20.7134984 57.988,20.2438265 58.2035344,20.1601862 C58.5758942,20.017837 58.889545,19.796673 59.2152593,19.589181 C61.5869418,19.3020698 63.8444233,17.3228529 63.1053333,14.3126095 C62.9509206,13.6836995 62.8833651,13.0242286 62.8407407,12.3551069 C62.8463704,12.3551069 62.8495873,12.3575196 62.8552169,12.3575196 C64.6792169,12.3575196 65.843746,11.3964614 66.4726561,10.1507048 C71.761291,9.86922328 71.6993651,1.56873651 66.2265608,1.56873651 L12.2818413,1.56873651 C11.1422434,1.56873651 10.2961905,1.9877418 9.62385185,2.56276825 C8.51079365,2.04484233 7.34465608,1.60894815 5.94287831,1.4336254 C3.60256085,1.14168889 1.62736508,3.61872593 1.62736508,5.74913862 C1.62736508,8.3226836 3.60899471,9.77351958 5.94287831,10.0646519 C6.43024339,10.1257735 7.30605291,10.8954243 7.73390476,11.1777101 C8.54296296,11.7109164 9.33352381,12.2513608 10.1787725,12.725054 C9.13809524,15.063763 10.0870899,18.3152762 13.0506878,18.8557206 C13.1536296,19.1750011 13.2051005,19.5095619 13.4101799,19.7958688 C14.0672381,20.7126942 14.5859683,21.565181 14.6704127,22.719255 C14.692127,23.0224508 14.7218836,23.1696254 14.747619,23.2420063 C14.6993651,23.2572868 14.6133122,23.3417312 14.4613122,23.6296466 C14.1653545,24.1885884 13.8324021,24.7209905 13.5444868,25.2839534 C13.2927619,25.7785566 13.206709,26.2586836 13.1383492,26.7323767 C13.1005503,26.8345143 13.0820529,26.9374561 13.0514921,27.0420063 C13.0498836,27.0661333 13.041037,27.0902603 13.0402328,27.1143873 C12.436254,29.3163767 13.3852487,32.0009058 15.929037,32.5936254 C14.4765926,34.4481862 13.7640423,36.5906624 14.6985608,39.0049693 C15.6853545,41.5568 17.5873651,43.3381757 20.0941587,44.2373079 C20.3233651,45.7701757 21.2715556,47.1301333 22.9266667,47.6054349" id="Fill-7" fill="#FEEFBB"></path>
                <path d="M24.2394159,150.317143 C24.5731725,120.677947 24.9069291,91.0379471 25.2406857,61.3987513 C25.2881354,57.1644656 25.3355852,52.9301799 25.3830349,48.6966984 C25.4023365,47.0142434 22.7885799,47.0134392 22.7692783,48.6966984 C22.4363259,78.3358942 22.1025693,107.975894 21.7688127,137.61509 C21.721363,141.849376 21.673109,146.082857 21.6256593,150.317143 C21.6071619,151.999598 24.2209185,152.000402 24.2394159,150.317143" id="Fill-9" fill="#1D1D1B"></path>
                <path d="M21.7945481,47.394163 L21.7945481,42.692618 C21.7945481,41.0109672 19.1807915,41.0085545 19.1807915,42.692618 L19.1807915,47.394163 C19.1807915,49.0758138 21.7945481,49.0790307 21.7945481,47.394163" id="Fill-11" fill="#1D1D1B"></path>
                <path d="M20.4876698,44.0005418 L36.0576169,44.0005418 C37.7392677,44.0005418 37.7424847,41.3867852 36.0576169,41.3867852 L20.4876698,41.3867852 C18.806019,41.3867852 18.8028021,44.0005418 20.4876698,44.0005418" id="Fill-13" fill="#1D1D1B"></path>
                <path d="M20.488072,48.7010413 L36.0065481,48.7010413 C37.6890032,48.7010413 37.6914159,46.0872847 36.0065481,46.0872847 L20.488072,46.0872847 C18.8064212,46.0872847 18.8032042,48.7010413 20.488072,48.7010413" id="Fill-15" fill="#1D1D1B"></path>
                <path d="M13.3540444,37.7135323 C14.5193778,42.379691 18.3483302,43.9519661 22.8295153,43.9994159 C24.5119704,44.0179132 24.5135788,41.4041566 22.8295153,41.3856593 C19.4967746,41.350273 16.7527323,40.5371937 15.8745101,37.0194794 C15.466764,35.387691 12.9454942,36.0793312 13.3540444,37.7135323" id="Fill-17" fill="#1D1D1B"></path>
                <path d="M15.8743492,37.0192381 C15.4859048,35.2040847 15.7891005,33.7926561 17.324381,32.6216931 C18.644127,31.6147937 17.3436825,29.3436402 16.0054392,30.3650159 C13.4889947,32.2839153 12.6976296,34.6467513 13.3538836,37.713291 C13.7053333,39.3579471 16.2257989,38.6622857 15.8743492,37.0192381" id="Fill-19" fill="#1D1D1B"></path>
                <path d="M13.9474074,31.4933545 L13.9474074,25.7623915 C13.9474074,24.0807407 11.3336508,24.0775238 11.3336508,25.7623915 L11.3336508,31.4933545 C11.3336508,33.1750053 13.9474074,33.1782222 13.9474074,31.4933545" id="Fill-21" fill="#1D1D1B"></path>
                <path d="M12.6405291,32.8002328 L36.006709,32.8002328 C37.689164,32.8002328 37.6915767,30.1864762 36.006709,30.1864762 L12.6405291,30.1864762 C10.9588783,30.1864762 10.9556614,32.8002328 12.6405291,32.8002328" id="Fill-23" fill="#1D1D1B"></path>
                <path d="M0.0571005291,1.87177143 C0.279873016,9.83608889 6.33092063,12.9380148 13.5738413,13.0425651 C15.2562963,13.0666921 15.2571005,10.4529354 13.5738413,10.4288085 C7.85815873,10.3459725 2.85180952,8.33458624 2.67085714,1.87177143 C2.62421164,0.193337566 0.00965079365,0.186099471 0.0571005291,1.87177143" id="Fill-25" fill="#1D1D1B"></path>
                <path d="M36.0064677,10.4285672 L9.25688042,10.4285672 C7.57522963,10.4285672 7.57281693,13.0423238 9.25688042,13.0423238 L36.0064677,13.0423238 C37.6881185,13.0423238 37.6913354,10.4285672 36.0064677,10.4285672" id="Fill-27" fill="#1D1D1B"></path>
                <path d="M12.6405291,26.9577228 L36.006709,26.9577228 C37.689164,26.9577228 37.6915767,24.3439661 36.006709,24.3439661 L12.6405291,24.3439661 C10.9588783,24.3439661 10.9556614,26.9577228 12.6405291,26.9577228" id="Fill-29" fill="#1D1D1B"></path>
                <path d="M9.87396825,18.9005164 C12.54,19.3894899 14.3648042,22.2606011 12.132254,24.3427598 C10.8993651,25.4920085 12.750709,27.3369185 13.980381,26.1900825 C17.6066667,22.8090878 15.1819048,17.2269079 10.5688254,16.3800508 C8.92416931,16.0784635 8.21885714,18.5973206 9.87396825,18.9005164" id="Fill-31" fill="#1D1D1B"></path>
                <path d="M10.5639196,17.6406857 L10.5639196,11.7352042 C10.5639196,10.0535534 7.95016296,10.0503365 7.95016296,11.7352042 L7.95016296,17.6406857 C7.95016296,19.3223365 10.5639196,19.3255534 10.5639196,17.6406857" id="Fill-33" fill="#1D1D1B"></path>
                <path d="M9.25704127,18.947564 L36.0066286,18.947564 C37.6890836,18.947564 37.6914963,16.3338074 36.0066286,16.3338074 L9.25704127,16.3338074 C7.57539048,16.3338074 7.57217354,18.947564 9.25704127,18.947564" id="Fill-35" fill="#1D1D1B"></path>
                <path d="M50.5293841,150.317143 L49.5281143,61.3987513 C49.4806646,57.1644656 49.4332148,52.9301799 49.3849608,48.6966984 C49.3664635,47.0158519 46.7527069,47.0118307 46.7712042,48.6966984 L47.7724741,137.61509 C47.820728,141.849376 47.8673735,146.082857 47.9156275,150.317143 C47.9341249,151.997989 50.5478815,152.002011 50.5293841,150.317143" id="Fill-37" fill="#1D1D1B"></path>
                <path d="M52.9742519,47.394163 L52.9742519,42.692618 C52.9742519,41.0109672 50.3604952,41.0085545 50.3604952,42.692618 L50.3604952,47.394163 C50.3604952,49.0758138 52.9742519,49.0790307 52.9742519,47.394163" id="Fill-39" fill="#1D1D1B"></path>
                <path d="M51.6673735,41.3867852 L36.0974265,41.3867852 C34.4157757,41.3867852 34.4125587,44.0005418 36.0974265,44.0005418 L51.6673735,44.0005418 C53.3490243,44.0005418 53.3522413,41.3867852 51.6673735,41.3867852" id="Fill-41" fill="#1D1D1B"></path>
                <path d="M51.6673735,46.0872847 L36.1480931,46.0872847 C34.4664423,46.0872847 34.4632254,48.7010413 36.1480931,48.7010413 L51.6673735,48.7010413 C53.3490243,48.7010413 53.3522413,46.0872847 51.6673735,46.0872847" id="Fill-43" fill="#1D1D1B"></path>
                <path d="M56.2807746,37.0192381 C55.4025524,40.5361481 52.6569016,41.350836 49.3257693,41.3862222 C47.6449228,41.4039153 47.6400974,44.017672 49.3257693,43.9999788 C53.808563,43.9517249 57.6367111,42.3786455 58.8012402,37.713291 C59.2089862,36.0815026 56.6885206,35.3858413 56.2807746,37.0192381" id="Fill-45" fill="#1D1D1B"></path>
                <path d="M58.8009989,37.7135323 C59.4572529,34.6469926 58.6666921,32.2849608 56.1494434,30.3644529 C54.8128085,29.3454899 53.5091471,31.6134265 54.8305016,32.6219344 C56.365782,33.7928974 56.6689778,35.2043259 56.2805333,37.0194794 C55.9298878,38.6593101 58.448745,39.3606011 58.8009989,37.7135323" id="Fill-47" fill="#1D1D1B"></path>
                <path d="M60.8210709,31.4933545 L60.8210709,25.7623915 C60.8210709,24.0807407 58.2073143,24.0775238 58.2073143,25.7623915 L58.2073143,31.4933545 C58.2073143,33.1750053 60.8210709,33.1782222 60.8210709,31.4933545" id="Fill-49" fill="#1D1D1B"></path>
                <path d="M59.5141926,30.1864762 L36.1480127,30.1864762 C34.4663619,30.1864762 34.4639492,32.8002328 36.1480127,32.8002328 L59.5141926,32.8002328 C61.1966476,32.8002328 61.1990603,30.1864762 59.5141926,30.1864762" id="Fill-51" fill="#1D1D1B"></path>
                <path d="M69.4837841,1.87177143 C69.3028317,8.33297778 64.2916571,10.3459725 58.5808,10.4288085 C56.9007577,10.4529354 56.8959323,13.0666921 58.5808,13.0425651 C65.8237206,12.9380148 71.8755725,9.83608889 72.0975407,1.87177143 C72.1449905,0.189316402 69.5312339,0.190120635 69.4837841,1.87177143" id="Fill-53" fill="#1D1D1B"></path>
                <path d="M36.1485757,13.0423238 L62.898163,13.0423238 C64.5798138,13.0423238 64.5830307,10.4285672 62.898163,10.4285672 L36.1485757,10.4285672 C34.4669249,10.4285672 34.4637079,13.0423238 36.1485757,13.0423238" id="Fill-55" fill="#1D1D1B"></path>
                <path d="M59.5141926,24.3439661 L36.1480127,24.3439661 C34.4663619,24.3439661 34.4639492,26.9577228 36.1480127,26.9577228 L59.5141926,26.9577228 C61.1966476,26.9577228 61.1990603,24.3439661 59.5141926,24.3439661" id="Fill-57" fill="#1D1D1B"></path>
                <path d="M61.5859767,16.3802116 C56.9737016,17.2270688 54.5481354,22.8092487 58.1744212,26.1902434 C59.4032889,27.3370794 61.2562413,25.4921693 60.0225481,24.3421164 C57.7899979,22.2607619 59.6115852,19.390455 62.2808339,18.9006772 C63.932728,18.5982857 63.2330455,16.0786243 61.5859767,16.3802116" id="Fill-59" fill="#1D1D1B"></path>
                <path d="M64.2044783,17.6406857 L64.2044783,11.7352042 C64.2044783,10.0535534 61.5907217,10.0503365 61.5907217,11.7352042 L61.5907217,17.6406857 C61.5907217,19.3223365 64.2044783,19.3255534 64.2044783,17.6406857" id="Fill-61" fill="#1D1D1B"></path>
                <path d="M62.8976,16.3338074 L36.1480127,16.3338074 C34.4663619,16.3338074 34.4639492,18.947564 36.1480127,18.947564 L62.8976,18.947564 C64.580055,18.947564 64.5824677,16.3338074 62.8976,16.3338074" id="Fill-63" fill="#1D1D1B"></path>
            </g>
        </g>
    </g>
</svg>