<?xml version="1.0" encoding="UTF-8" standalone="no"?>
<svg width="150px" height="150px" viewBox="0 0 150 150" version="1.1" xmlns="http://www.w3.org/2000/svg" xmlns:xlink="http://www.w3.org/1999/xlink">
    <!-- Generator: Sketch 48 (47235) - http://www.bohemiancoding.com/sketch -->
    <title>dots</title>
    <desc>Created with Sketch.</desc>
    <defs></defs>
    <g id="Page-1" stroke="none" stroke-width="1" fill="none" fill-rule="evenodd">
        <g id="dots" fill="#1D1D1B">
            <g id="Page-1" transform="translate(-1.000000, -1.000000)">
                <g id="Group-116">
                    <path d="M41.9812104,151.296372 C42.3010713,150.06385 42.0816626,148.702459 41.2615235,147.60145 C39.824793,145.673033 37.0980452,145.274529 35.1696278,146.711259 C33.7064626,147.800372 33.12688,149.632963 33.5584278,151.296372 L41.9812104,151.296372 Z" id="Fill-2"></path>
                    <path d="M70.3915304,151.296372 C68.8807826,149.948859 66.5822783,149.800824 64.8957391,151.057798 C64.7939652,151.133137 64.6988,151.214424 64.6062783,151.296372 L70.3915304,151.296372 Z" id="Fill-4"></path>
                    <path d="M58.3542539,134.869534 C59.7903235,136.797951 59.3918191,139.524699 57.4634017,140.96143 C55.5356452,142.397499 52.8082365,141.998334 51.372167,140.069917 C49.9360974,138.14216 50.3346017,135.414751 52.2630191,133.978682 C54.1907757,132.542612 56.9181843,132.941777 58.3542539,134.869534" id="Fill-6"></path>
                    <path d="M76.38456,121.439805 C77.8206296,123.367562 77.4221252,126.09497 75.4937078,127.53104 C73.5659513,128.96711 70.8385426,128.568605 69.402473,126.640188 C67.9664035,124.712431 68.3649078,121.985023 70.2933252,120.548292 C72.2210817,119.112883 74.9484904,119.511388 76.38456,121.439805" id="Fill-8"></path>
                    <path d="M88.12656,144.609628 C86.1988035,146.045697 83.4713948,145.646532 82.0353252,143.718776 C80.5985948,141.790358 80.99776,139.06295 82.9255165,137.627541 C84.8539339,136.191471 87.5813426,136.589976 89.0174122,138.517732 C90.4534817,140.44615 90.0543165,143.173558 88.12656,144.609628" id="Fill-10"></path>
                    <path d="M15.9388522,113.486769 C17.3749217,115.414525 16.9764174,118.141934 15.048,119.578664 C13.1202435,121.014734 10.3928348,120.615569 8.95676522,118.687151 C7.52069565,116.759395 7.9192,114.031986 9.84761739,112.595917 C11.7753739,111.159847 14.5027826,111.558351 15.9388522,113.486769" id="Fill-12"></path>
                    <path d="M10.701593,149.304115 C8.77383652,150.740184 6.04642783,150.341019 4.61035826,148.413263 C3.17362783,146.484845 3.57279304,143.757437 5.50054957,142.322028 C7.42896696,140.885958 10.1563757,141.284463 11.5924452,143.212219 C13.0285148,145.140637 12.6293496,147.868045 10.701593,149.304115" id="Fill-14"></path>
                    <path d="M28.6286713,130.522929 C30.0647409,132.451346 29.6655757,135.178094 27.7378191,136.614824 C25.8094017,138.050894 23.0826539,137.651729 21.6465843,135.723972 C20.2105148,133.795555 20.6090191,131.068146 22.5367757,129.632077 C24.465193,128.196007 27.1926017,128.595172 28.6286713,130.522929" id="Fill-16"></path>
                    <path d="M45.6647652,117.83344 C47.1008348,119.761197 46.7023304,122.488605 44.773913,123.924675 C42.8461565,125.361405 40.1187478,124.96224 38.6826783,123.033823 C37.2466087,121.106066 37.645113,118.378657 39.5735304,116.942588 C41.501287,115.506518 44.2286957,115.905023 45.6647652,117.83344" id="Fill-18"></path>
                    <path d="M33.0317809,100.75472 C34.4678504,102.683137 34.0693461,105.410546 32.1409287,106.846616 C30.2131722,108.282685 27.4857635,107.88352 26.0496939,105.955763 C24.6136243,104.027346 25.0121287,101.299937 26.9405461,99.8638678 C28.8683026,98.4277983 31.5957113,98.8269635 33.0317809,100.75472" id="Fill-20"></path>
                    <path d="M51.062087,87.3249913 C52.4981565,89.2527478 52.0996522,91.9801565 50.1712348,93.4162261 C48.2434783,94.8529565 45.5160696,94.4537913 44.08,92.5253739 C42.6439304,90.5976174 43.0424348,87.8702087 44.9708522,86.4341391 C46.8986087,84.9980696 49.6260174,85.3965739 51.062087,87.3249913" id="Fill-22"></path>
                    <path d="M62.804153,110.494814 C60.8763965,111.930883 58.1489878,111.531718 56.7129183,109.603962 C55.2768487,107.675544 55.675353,104.948797 57.6031096,103.512727 C59.531527,102.076657 62.2589357,102.475162 63.6950052,104.402918 C65.1310748,106.331336 64.7319096,109.058744 62.804153,110.494814" id="Fill-24"></path>
                    <path d="M3.24936348,96.4506748 C2.56073739,95.5261183 1.57405913,94.9571096 0.521954783,94.7694226 L0.521954783,103.33297 C1.16696348,103.217979 1.79677217,102.960901 2.3585113,102.54191 C4.2869287,101.10584 4.68543304,98.3784313 3.24936348,96.4506748" id="Fill-26"></path>
                    <path d="M20.2854574,83.7611861 C21.721527,85.6889426 21.3230226,88.4163513 19.3946052,89.8524209 C17.4668487,91.2884904 14.73944,90.8899861 13.3033704,88.9615687 C11.8673009,87.0338122 12.2658052,84.3064035 14.1942226,82.869673 C16.1219791,81.4342643 18.8493878,81.8327687 20.2854574,83.7611861" id="Fill-28"></path>
                    <path d="M7.65280348,66.6825322 C6.21673391,64.7547757 3.48932522,64.3556104 1.56090783,65.79168 C1.13861217,66.1069148 0.79429913,66.485593 0.52136,66.9026017 L0.52136,71.6608626 C0.570264348,71.7355409 0.616525217,71.81088 0.670716522,71.8829148 C2.10678609,73.8113322 4.83353391,74.2104974 6.7619513,72.7744278 C8.68970783,71.3376974 9.08887304,68.6109496 7.65280348,66.6825322" id="Fill-30"></path>
                    <path d="M25.6827791,53.2528035 C27.1188487,55.18056 26.7203443,57.9079687 24.791927,59.3440383 C22.8641704,60.7801078 20.1367617,60.3809426 18.7006922,58.4531861 C17.2646226,56.5247687 17.663127,53.7980209 19.5915443,52.3612904 C21.5193009,50.9258817 24.2467096,51.3243861 25.6827791,53.2528035" id="Fill-32"></path>
                    <path d="M37.4251757,76.4226261 C35.4974191,77.8586957 32.7700104,77.4595304 31.33328,75.5317739 C29.8972104,73.6033565 30.2963757,70.8759478 32.2241322,69.4405391 C34.1525496,68.0044696 36.8792974,68.4029739 38.3160278,70.3307304 C39.7520974,72.2591478 39.3529322,74.9858957 37.4251757,76.4226261" id="Fill-34"></path>
                    <path d="M0.521690435,23.9776696 L0.521690435,24.0999304 C1.45351652,22.6565913 1.47202087,20.7420522 0.441064348,19.2584 C0.433794783,19.906713 0.382246957,20.5530435 0.309551304,21.1980522 C0.448333913,22.1067478 0.521690435,23.0346087 0.521690435,23.9776696" id="Fill-36"></path>
                    <path d="M12.1027026,42.3078122 C10.1749461,43.7438817 7.44753739,43.3447165 6.01146783,41.41696 C4.57473739,39.4885426 4.97390261,36.7617948 6.90165913,35.3257252 C8.83007652,33.8896557 11.5568243,34.28816 12.9935548,36.2159165 C14.4296243,38.1443339 14.0304591,40.8717426 12.1027026,42.3078122" id="Fill-38"></path>
                    <path d="M93.5342574,108.66513 C94.970327,110.593548 94.5718226,113.320957 92.6434052,114.757026 C90.7156487,116.193096 87.98824,115.79393 86.5521704,113.866174 C85.1161009,111.937757 85.5146052,109.211009 87.4430226,107.774278 C89.3707791,106.338209 92.0981878,106.737374 93.5342574,108.66513" id="Fill-40"></path>
                    <path d="M110.570351,95.9757078 C112.006421,97.9041252 111.607917,100.631534 109.679499,102.067603 C107.751743,103.503673 105.024334,103.104508 103.588264,101.176751 C102.152195,99.2483339 102.550699,96.5209252 104.479117,95.0848557 C106.406873,93.6487861 109.134282,94.0479513 110.570351,95.9757078" id="Fill-42"></path>
                    <path d="M105.333092,131.792988 C103.405336,133.229057 100.677927,132.829892 99.2418574,130.902136 C97.805127,128.973718 98.2042922,126.24697 100.132049,124.810901 C102.060466,123.374831 104.787875,123.773336 106.223944,125.701753 C107.660014,127.62951 107.260849,130.356918 105.333092,131.792988" id="Fill-44"></path>
                    <path d="M123.260104,113.011802 C124.696174,114.940219 124.297009,117.667628 122.369252,119.103697 C120.440835,120.539767 117.714087,120.140602 116.278017,118.212845 C114.841948,116.284428 115.240452,113.557019 117.168209,112.12095 C119.096626,110.68488 121.824035,111.084045 123.260104,113.011802" id="Fill-46"></path>
                    <path d="M140.296264,100.322313 C141.732334,102.25073 141.33383,104.977478 139.405412,106.414209 C137.477656,107.850278 134.750247,107.451113 133.314177,105.523357 C131.878108,103.594939 132.276612,100.86753 134.20503,99.4314609 C136.132786,97.9953913 138.860195,98.3945565 140.296264,100.322313" id="Fill-48"></path>
                    <path d="M135.059005,136.139659 C133.131249,137.575729 130.40384,137.176563 128.96777,135.248807 C127.53104,133.32039 127.930205,130.593642 129.857962,129.157572 C131.786379,127.721503 134.513127,128.120007 135.949857,130.047763 C137.385927,131.976181 136.986762,134.70359 135.059005,136.139659" id="Fill-50"></path>
                    <path d="M127.663214,83.2442539 C129.099283,85.1720104 128.700779,87.8994191 126.772362,89.3354887 C124.844605,90.7715583 122.117197,90.372393 120.681127,88.4446365 C119.245057,86.5162191 119.643562,83.7894713 121.571979,82.3527409 C123.499736,80.9173322 126.227144,81.3158365 127.663214,83.2442539" id="Fill-52"></path>
                    <path d="M144.699638,70.5541704 C146.135708,72.4825878 145.736543,75.2099965 143.808786,76.6460661 C141.880369,78.0821357 139.153621,77.6829704 137.717551,75.7552139 C136.281482,73.8267965 136.679986,71.0993878 138.607743,69.6633183 C140.53616,68.2272487 143.263569,68.6264139 144.699638,70.5541704" id="Fill-54"></path>
                    <path d="M111.931148,147.938494 C110.495078,146.010737 110.894243,143.283329 112.822,141.847259 C114.750417,140.410529 117.477165,140.809694 118.913235,142.738111 C120.349304,144.665868 119.9508,147.393277 118.022383,148.829346 C116.094626,150.265416 113.367217,149.866911 111.931148,147.938494" id="Fill-56"></path>
                    <path d="M151.782045,86.4034087 C151.597002,86.5032 151.414602,86.6122435 151.240793,86.7424348 C149.313037,88.1785043 148.913871,90.9052522 150.349941,92.8330087 C150.743819,93.3623652 151.236828,93.7714435 151.782045,94.0642087 L151.782045,86.4034087 Z" id="Fill-58"></path>
                    <path d="M151.782045,116.258059 C150.308306,115.348042 148.367993,115.36985 146.894254,116.467555 C144.966497,117.903624 144.567332,120.631033 146.003402,122.55945 C147.363471,124.385433 149.881384,124.836807 151.782045,123.659137 L151.782045,116.258059 Z" id="Fill-60"></path>
                    <path d="M68.2117843,74.5509774 C69.6478539,76.4787339 69.2493496,79.2061426 67.3209322,80.6422122 C65.3931757,82.0782817 62.665767,81.6797774 61.2296974,79.75136 C59.7936278,77.8236035 60.1921322,75.0961948 62.1205496,73.6594643 C64.0483061,72.2240557 66.7757148,72.62256 68.2117843,74.5509774" id="Fill-62"></path>
                    <path d="M85.2478783,61.8608939 C86.6839478,63.7893113 86.2854435,66.51672 84.3570261,67.9527896 C82.4292696,69.3888591 79.7018609,68.9896939 78.2657913,67.0619374 C76.8297217,65.13352 77.2282261,62.4067722 79.1566435,60.9700417 C81.0844,59.5339722 83.8118087,59.9331374 85.2478783,61.8608939" id="Fill-64"></path>
                    <path d="M80.0106191,97.6781739 C78.0828626,99.1149043 75.3554539,98.7157391 73.9193843,96.7873217 C72.4833148,94.8595652 72.8818191,92.1321565 74.8095757,90.6967478 C76.737993,89.2600174 79.4654017,89.6585217 80.9014713,91.5869391 C82.3375409,93.5146957 81.9383757,96.2421043 80.0106191,97.6781739" id="Fill-66"></path>
                    <path d="M97.9376313,78.8976487 C99.3737009,80.8254052 98.9745357,83.5528139 97.0467791,84.9888835 C95.1183617,86.424953 92.3916139,86.0264487 90.9555443,84.0980313 C89.5194748,82.1702748 89.9179791,79.4428661 91.8463965,78.0061357 C93.774153,76.570727 96.5015617,76.9692313 97.9376313,78.8976487" id="Fill-68"></path>
                    <path d="M114.973791,66.2074991 C116.409861,68.1359165 116.011357,70.8633252 114.082939,72.2993948 C112.155183,73.7354643 109.427774,73.3362991 107.991704,71.4085426 C106.555635,69.4801252 106.954139,66.7533774 108.882557,65.316647 C110.810313,63.8805774 113.537722,64.2797426 114.973791,66.2074991" id="Fill-70"></path>
                    <path d="M102.341071,49.12944 C103.777141,51.0571965 103.377976,53.7846052 101.450219,55.2206748 C99.5218017,56.6574052 96.7950539,56.25824 95.3589843,54.3298226 C93.9229148,52.4020661 94.3214191,49.6746574 96.2491757,48.2385878 C98.177593,46.8025183 100.905002,47.2010226 102.341071,49.12944" id="Fill-72"></path>
                    <path d="M119.377231,36.4400174 C120.813301,38.3677739 120.414797,41.0951826 118.486379,42.5312522 C116.558623,43.9673217 113.831214,43.5688174 112.395144,41.6404 C110.959075,39.7126435 111.357579,36.9852348 113.285997,35.5485043 C115.213753,34.1130957 117.941162,34.5116 119.377231,36.4400174" id="Fill-74"></path>
                    <path d="M131.119231,59.6097739 C129.191475,61.0458435 126.464066,60.6466783 125.027997,58.7189217 C123.591266,56.7905043 123.990431,54.0630957 125.918188,52.627687 C127.846605,51.1916174 130.574014,51.5901217 132.010083,53.5178783 C133.446153,55.4462957 133.046988,58.1737043 131.119231,59.6097739" id="Fill-76"></path>
                    <path d="M136.470094,23.7079026 C137.906163,25.6356591 137.507659,28.3630678 135.579242,29.7991374 C133.651485,31.2358678 130.924077,30.8367026 129.488007,28.9082852 C128.051937,26.9805287 128.450442,24.25312 130.378859,22.8170504 C132.306616,21.3809809 135.034024,21.7794852 136.470094,23.7079026" id="Fill-78"></path>
                    <path d="M151.782045,9.64248348 C150.392237,9.02589217 148.720897,9.15476174 147.415019,10.1275617 C145.486602,11.5636313 145.088097,14.29104 146.524167,16.2187965 C147.763297,17.8828661 149.963332,18.404953 151.782045,17.5940661 L151.782045,9.64248348 Z" id="Fill-80"></path>
                    <path d="M148.268929,46.83576 C146.341172,48.2718296 143.613763,47.8726643 142.177694,45.944247 C140.740963,44.0164904 141.140129,41.2890817 143.067885,39.853673 C144.996303,38.4176035 147.723711,38.8161078 149.159781,40.7438643 C150.59585,42.6722817 150.196685,45.3990296 148.268929,46.83576" id="Fill-82"></path>
                    <path d="M42.8324765,40.4781287 C44.2685461,42.4065461 43.8700417,45.1339548 41.9416243,46.5700243 C40.0138678,48.0060939 37.2864591,47.6069287 35.8503896,45.6791722 C34.41432,43.7507548 34.8128243,41.024007 36.7412417,39.5872765 C38.6689983,38.151207 41.396407,38.5503722 42.8324765,40.4781287" id="Fill-84"></path>
                    <path d="M59.868967,27.78864 C61.3050365,29.7170574 60.9058713,32.4438052 58.9781148,33.8805357 C57.0496974,35.3166052 54.3229496,34.91744 52.88688,32.9896835 C51.4508104,31.0612661 51.8493148,28.3338574 53.7777322,26.8977878 C55.7054887,25.4617183 58.4328974,25.8608835 59.868967,27.78864" id="Fill-86"></path>
                    <path d="M54.6317078,63.6059861 C52.7032904,65.0420557 49.9765426,64.6428904 48.5398122,62.7151339 C47.1037426,60.7867165 47.5029078,58.0599687 49.4306643,56.6238991 C51.3590817,55.1878296 54.0858296,55.5863339 55.52256,57.5140904 C56.9586296,59.4425078 56.5594643,62.1699165 54.6317078,63.6059861" id="Fill-88"></path>
                    <path d="M72.5583896,44.8248 C73.9944591,46.7532174 73.5959548,49.4806261 71.6675374,50.9166957 C69.7397809,52.3527652 67.0123722,51.9536 65.5763026,50.0258435 C64.140233,48.0974261 64.5387374,45.3700174 66.4671548,43.9339478 C68.3949113,42.4978783 71.12232,42.8970435 72.5583896,44.8248" id="Fill-90"></path>
                    <path d="M89.5944835,32.1353113 C91.030553,34.0637287 90.6320487,36.7904765 88.7036313,38.227207 C86.7758748,39.6632765 84.0484661,39.2641113 82.6123965,37.3363548 C81.176327,35.4079374 81.5748313,32.6805287 83.5032487,31.2444591 C85.4310052,29.8083896 88.1584139,30.2075548 89.5944835,32.1353113" id="Fill-92"></path>
                    <path d="M76.9618296,15.0572522 C78.3978991,16.9850087 77.9993948,19.7124174 76.0709774,21.148487 C74.1432209,22.5845565 71.4158122,22.1853913 69.9797426,20.2576348 C68.543673,18.3292174 68.9421774,15.6024696 70.8705948,14.1657391 C72.7983513,12.7303304 75.52576,13.1288348 76.9618296,15.0572522" id="Fill-94"></path>
                    <path d="M93.9979235,2.36710261 C95.433993,4.29552 95.0354887,7.0229287 93.1070713,8.45899826 C91.1793148,9.89506783 88.4519061,9.49590261 87.0158365,7.56814609 C85.579767,5.6397287 85.9782713,2.91232 87.9066887,1.47625043 C89.8344452,0.0401808696 92.5618539,0.439346087 93.9979235,2.36710261" id="Fill-96"></path>
                    <path d="M105.73999,25.5375861 C103.812233,26.9736557 101.084824,26.5744904 99.6487548,24.646073 C98.2126852,22.7183165 98.6111896,19.9909078 100.538946,18.5554991 C102.467363,17.1194296 105.194772,17.517273 106.630842,19.4456904 C108.066911,21.373447 107.667746,24.1008557 105.73999,25.5375861" id="Fill-98"></path>
                    <path d="M17.5103339,6.36397565 C18.9464035,8.29173217 18.5472383,11.0191409 16.6194817,12.4552104 C14.6910643,13.89128 11.9643165,13.4927757 10.528247,11.5643583 C9.09217739,9.63660174 9.49068174,6.90919304 11.4184383,5.47246261 C13.3468557,4.03705391 16.0742643,4.43555826 17.5103339,6.36397565" id="Fill-100"></path>
                    <path d="M29.3091687,29.4911722 C27.3814122,30.9279026 24.6540035,30.5287374 23.2179339,28.60032 C21.7812035,26.6725635 22.1803687,23.9451548 24.1081252,22.5097461 C26.0365426,21.0730157 28.7632904,21.47152 30.2000209,23.3999374 C31.6360904,25.3276939 31.2369252,28.0551026 29.3091687,29.4911722" id="Fill-104"></path>
                    <path d="M47.2359165,10.7105809 C48.6719861,12.6383374 48.2734817,15.3657461 46.3450643,16.8018157 C44.4173078,18.2378852 41.6898991,17.83872 40.2538296,15.9109635 C38.81776,13.9825461 39.2162643,11.2557983 41.1446817,9.81906783 C43.0724383,8.38365913 45.799847,8.78216348 47.2359165,10.7105809" id="Fill-106"></path>
                    <path d="M56.4442087,0.292897391 C56.3675478,1.30336696 56.6371826,2.34423652 57.2901217,3.2218713 C58.7261913,5.14962783 61.4536,5.54813217 63.3813565,4.11206261 C64.6224696,3.18816696 65.2258435,1.72962783 65.1181217,0.292897391 L56.4442087,0.292897391 Z" id="Fill-108"></path>
                    <path d="M122.889687,12.7629113 C120.96193,14.1996417 118.234522,13.8004765 116.798452,11.8720591 C115.362383,9.94430261 115.760887,7.21689391 117.688643,5.78148522 C119.617061,4.34475478 122.34447,4.74325913 123.780539,6.67167652 C125.216609,8.59943304 124.817443,11.3268417 122.889687,12.7629113" id="Fill-110"></path>
                    <path d="M149.306097,151.296372 C149.90815,149.912511 149.775315,148.25439 148.809784,146.957763 C147.373054,145.030007 144.646306,144.630842 142.717889,146.066911 C141.06241,147.299433 140.538341,149.482946 141.331384,151.296372 L149.306097,151.296372 Z" id="Fill-114"></path>
                </g>
            </g>
        </g>
    </g>
</svg>