<?xml version="1.0" encoding="UTF-8" standalone="no"?>
<svg width="150px" height="150px" viewBox="0 0 150 150" version="1.1" xmlns="http://www.w3.org/2000/svg" xmlns:xlink="http://www.w3.org/1999/xlink">
    <!-- Generator: Sketch 48.1 (47250) - http://www.bohemiancoding.com/sketch -->
    <title>face</title>
    <desc>Created with Sketch.</desc>
    <defs>
        <polygon id="path-1" points="0.586876345 0.773225688 5.29365789 0.773225688 5.29365789 12.9320266 0.586876345 12.9320266"></polygon>
        <polygon id="path-3" points="0.47159323 0.758684211 9.81932306 0.758684211 9.81932306 43.2586619 0.47159323 43.2586619"></polygon>
    </defs>
    <g id="Page-1" stroke="none" stroke-width="1" fill="none" fill-rule="evenodd">
        <g id="face">
            <g id="Page-1" transform="translate(75.197368, 111.500000) scale(1, -1) rotate(90.000000) translate(-75.197368, -111.500000) translate(34.000000, 34.000000)">
                <g id="Group-47" transform="translate(0.815789, 0.057105)">
                    <path d="M65.2678079,86.1421474 C63.7520711,85.8598842 62.1653605,86.0295684 60.7548605,85.6159632 C60.1887026,85.4503579 59.6029658,85.2831211 59.0082553,85.1419895 C59.0710711,84.7544895 59.0947289,84.3661737 59.0620974,83.9860158 C58.6745974,79.4689895 57.3473079,75.3598579 55.9930974,71.0671737 C54.5711763,66.5583053 53.4494658,61.9539895 52.4313605,57.3382526 C51.4320184,52.8122526 50.6064395,48.2503579 49.8020711,43.6860158 C49.2775184,40.7140947 48.7390974,37.4109632 47.5252026,34.5075684 C50.1659132,32.0634632 52.2584132,28.6534632 53.3613605,25.1170158 C54.0368342,28.0122526 56.8619132,30.2148842 59.8558605,30.2148842 C63.5946237,30.2148842 66.3536237,27.1858579 66.5053605,23.5662 C66.7125711,18.5743842 65.24415,14.0418579 63.3262289,9.51259474 C62.1620974,6.76338421 61.0966763,3.97093684 59.8232289,1.24946316 L8.26778158,1.24946316 C8.27104474,1.50480526 8.27349211,1.75933158 8.27675526,2.01467368 L2.22278158,2.01467368 C2.15017632,2.01467368 2.08654474,2.02772632 2.01883421,2.03506842 C1.95112368,2.02772632 1.88749211,2.01467368 1.81488684,2.01467368 C0.185755263,2.01467368 -0.176455263,3.96522632 0.716018421,4.84872632 C0.643413158,5.10488421 0.591202632,5.37735789 0.591202632,5.68572632 L0.591202632,149.672568 C0.591202632,152.125647 3.11933421,152.934911 4.81209737,152.119937 L9.90996579,152.119937 C9.91404474,152.465832 9.92138684,152.811726 9.92628158,153.155989 L55.9808605,153.155989 C55.9775974,152.870463 55.9792289,152.580858 55.9580184,152.307568 C55.7377553,149.533884 54.6119658,147.145253 53.3589132,144.701963 C51.4809658,141.041516 52.1980447,136.051332 53.3964395,132.301963 C53.4184658,132.235884 53.4298868,132.173068 53.44865,132.107805 C55.9971763,129.644121 56.5772026,125.087121 52.5700447,122.901621 C50.9539658,122.019753 49.4064132,121.148489 47.6834658,120.696542 C48.0424132,120.482805 48.3874921,120.236437 48.7105447,119.953358 C48.0603605,120.521963 48.2504395,120.423253 48.6526237,120.2397 C48.3589395,120.431411 49.6168868,120.237253 50.0778079,120.241332 C53.3540184,120.271516 56.2060184,118.099068 56.9834658,114.933805 C57.5537026,112.615332 56.8097026,110.592174 55.2123868,109.078068 C55.13815,108.807226 55.0737026,108.533937 55.0223079,108.257384 C55.0133342,108.160305 55.0027289,108.046911 54.9880447,107.899253 C54.8460974,106.357411 54.8795447,104.804963 54.7522816,103.261489 C54.6274658,101.741674 54.25465,100.537568 54.61115,99.1931474 C54.4985711,99.6206211 55.0524921,99.0642526 55.0255711,98.9753316 C55.3747289,98.8725421 55.7255184,98.7819895 56.0812026,98.7093842 C57.0585184,98.4834105 57.9599658,97.9286737 58.6860184,97.1879368 C59.8509658,97.4424632 61.4964132,97.3037789 62.1572026,97.4261474 C65.2890184,98.0078053 68.4550974,96.6070947 69.3540974,93.3390421 C70.1454132,90.4650158 68.40615,86.7246211 65.2678079,86.1421474" id="Fill-1" fill="#B17F49"></path>
                    <path d="M67.4602421,98.6020263 C68.5175053,98.7904737 70.6785316,99.4643158 71.6909263,99.3598947 C72.9554,99.2293684 74.0999526,98.611 75.2901895,98.2145263 C75.5536895,98.1280526 75.7967947,98.1247895 76.0162421,98.1753684 C76.0594789,98.1052105 76.1035316,98.0366842 76.1426895,97.9583684 C76.4739,97.4664474 76.9527684,97.2763684 77.4210316,97.2943158 C77.4740579,97.2437368 77.5327947,97.1988684 77.5850053,97.1466579 C78.7409789,95.9906842 79.5477947,94.5516316 80.0030053,93.0106053 C79.7060579,90.4514737 79.1252158,87.9404737 78.6545053,85.3919474 C78.5965842,85.0819474 78.6341105,84.8045789 78.7287421,84.5614737 C78.6047421,84.3860789 78.4823737,84.2106842 78.3445053,84.0434474 C78.0883474,83.0702105 77.9300842,82.0684211 77.7090053,81.0870263 C77.4520316,79.9514474 76.9495053,78.9096842 76.2781105,77.9870263 C76.1435053,76.9330263 75.9982947,75.8790263 75.7959789,74.8331842 C75.2355316,71.9363158 74.4213737,69.0516842 73.8160579,66.1548158 C72.4977421,59.8373421 69.8676368,53.8828947 68.6619,47.5303421 C68.4571368,46.4494211 68.0060053,45.4533421 67.3835579,44.5657632 C67.3158474,43.8723421 67.2473211,43.1805526 67.1632947,42.4895789 C66.9740316,40.9289737 66.5465579,39.4426053 65.8988211,38.1145 C65.8653737,37.6796842 65.8327421,37.2652632 65.8335579,37.0955789 C65.8392684,35.9877368 65.9428737,34.8798947 66.0464789,33.7777632 C66.0774789,33.4767368 66.1158211,33.1757105 66.1517158,32.8746842 C66.1688474,32.7572105 66.1884263,32.6193421 66.2153474,32.4366053 C67.0523474,26.8476316 67.9358474,20.5937895 63.4808211,16.1387632 C60.4126368,13.0705789 54.4728737,11.6918947 50.7536895,14.4892368 C47.6267684,16.8395263 45.6533737,19.4745263 44.3407684,23.1586316 C42.5745842,28.1194474 43.1790842,33.4481842 43.2337421,38.5925526 C43.2696368,41.9895 45.0407158,45.0258684 47.7059,46.7993947 C47.7940053,47.0539211 47.8870053,47.3076316 47.9824526,47.5613421 C48.2549263,50.2599737 48.6440579,52.9431053 49.6491105,55.4532895 C50.0056105,56.3441316 50.4322684,57.1819474 50.9233737,57.9545 C52.3420316,63.0466579 54.1881632,68.0229737 55.2111632,73.2260789 C55.5081105,74.7295789 55.8205579,76.2273684 56.1819526,77.7178158 C56.3720316,78.5058684 56.6159526,79.2800526 56.8182684,80.0656579 C56.8492684,80.1872105 56.8753737,80.2851053 56.8990316,80.3658684 C57.3469,83.8615263 57.9146895,86.5715789 59.4606105,89.3362895 C60.2478474,92.2372368 61.3589526,94.9897105 63.6692684,97.1466579 C64.0119,97.4664474 64.3773737,97.7511579 64.7518211,98.0187368 C65.6483737,98.2292105 66.5473737,98.4388684 67.4602421,98.6020263" id="Fill-3" fill="#B17F49"></path>
                    <path d="M76.3614026,82.1858132 C76.8076395,83.8769447 77.2538763,85.5680763 77.7009289,87.2592079 C78.1357447,88.9071026 80.6940605,88.2079711 80.2567974,86.55355 C79.8113763,84.8632342 79.3643237,83.1721026 78.9180868,81.4809711 C78.4832711,79.8322605 75.9249553,80.5322079 76.3614026,82.1858132" id="Fill-5" fill="#000000"></path>
                    <g id="Group-9" transform="translate(75.868421, 84.842105)">
                        <mask id="mask-2" fill="white">
                            <use xlink:href="#path-1"></use>
                        </mask>
                        <g id="Clip-8"></g>
                        <path d="M1.83218158,2.41693947 C2.65449737,5.48430789 3.58041842,8.21801842 0.992734211,10.6833342 C-0.245634211,11.86215 1.63068158,13.7352026 2.86741842,12.5580184 C6.19094474,9.39275526 5.47060263,5.74943947 4.38886579,1.71209737 C3.94752368,0.0658342105 1.38920789,0.764965789 1.83218158,2.41693947" id="Fill-7" fill="#000000" mask="url(#mask-2)"></path>
                    </g>
                    <path d="M76.8609105,95.5252763 C71.6137526,99.7575921 66.5852263,96.4128553 60.7743579,95.7292237 C57.3186737,95.3229605 54.1477,96.4169342 53.2478842,100.039039 C52.8359105,101.695092 55.3925947,102.402382 55.8037526,100.743882 C57.0355947,95.7871447 66.2556474,99.9346184 69.7774105,100.278066 C73.4965947,100.641092 75.8273053,99.7461711 78.7355947,97.3999605 C80.0637,96.3280132 78.1767789,94.4623026 76.8609105,95.5252763" id="Fill-10" fill="#000000"></path>
                    <path d="M53.1998342,100.392113 C52.7079132,104.586903 53.9283342,108.218797 55.2792816,112.134587 C55.8332026,113.736797 58.3947816,113.048271 57.8359658,111.428929 C56.5519132,107.708929 55.3837026,104.383771 55.85115,100.392113 C56.0493868,98.7009816 53.3964395,98.7140342 53.1998342,100.392113" id="Fill-12" fill="#000000"></path>
                    <path d="M55.2792,112.134261 C56.9923579,117.830918 51.2149368,118.791918 47.1441474,119.391524 C43.6517526,119.907103 40.1936211,120.472445 36.9639105,121.959629 C35.4155421,122.672629 36.7615947,124.959287 38.3018053,124.24955 C44.5858316,121.354313 61.3364368,123.073182 57.8358842,111.429418 C57.3455947,109.799471 54.7864632,110.493708 55.2792,112.134261" id="Fill-14" fill="#000000"></path>
                    <path d="M37.2808447,124.383013 C43.02645,125.259171 44.8097658,132.534382 50.4843974,133.64875 C53.7067658,134.282618 56.04645,132.65675 56.92995,129.573882 C57.4014763,127.930882 54.8431605,127.229303 54.3732658,128.869039 C52.7335289,134.589355 46.8745289,128.194382 44.8660553,126.083118 C42.8902132,124.005303 40.9062132,122.27175 37.9848711,121.826329 C36.3157658,121.571803 35.5970553,124.126039 37.2808447,124.383013" id="Fill-16" fill="#000000"></path>
                    <path d="M44.3552079,122.5523 C47.2749184,122.557195 51.0667079,122.775826 53.1208658,125.183221 C55.7411816,128.250589 53.5923921,130.635142 51.8245763,133.300326 C50.8782605,134.725511 53.1747079,136.055247 54.1144974,134.637405 C56.4966026,131.047932 58.4251289,128.004221 55.5176553,123.935879 C53.0556026,120.492432 48.2603921,119.907511 44.3552079,119.900984 C42.6493921,119.898537 42.6469447,122.549853 44.3552079,122.5523" id="Fill-18" fill="#000000"></path>
                    <path d="M51.8248211,133.300163 C48.4809,139.731032 52.5614789,146.2859 54.4271895,152.518532 C54.9150316,154.149295 57.4749789,153.454242 56.9838737,151.812874 C55.4094,146.551032 51.2757947,140.096505 54.1147421,134.638058 C54.9003474,133.125584 52.6128737,131.784426 51.8248211,133.300163" id="Fill-20" fill="#000000"></path>
                    <path d="M43.8573316,80.4395342 C40.7842526,84.8292974 41.1456474,90.2371658 44.5107789,94.32835 C45.5949632,95.6482974 47.4614895,93.7630079 46.3854632,92.4544816 C43.7480158,89.2476132 43.7994105,85.1311395 46.1472526,81.7774289 C47.1278316,80.3767184 44.8297526,79.0502447 43.8573316,80.4395342" id="Fill-22" fill="#000000"></path>
                    <path d="M78.9179237,81.4808079 C75.4336868,68.2062816 71.9502658,54.9301237 68.4668447,41.6555974 C68.0344763,40.0060711 65.4761605,40.7060184 65.9109763,42.3604395 C69.3935816,55.6349658 72.8778184,68.9103079 76.3612395,82.18565 C76.7936079,83.8351763 79.3519237,83.1352289 78.9179237,81.4808079" id="Fill-24" fill="#000000"></path>
                    <g id="Group-28" transform="translate(58.736842, 0.000000)">
                        <mask id="mask-4" fill="white">
                            <use xlink:href="#path-3"></use>
                        </mask>
                        <g id="Clip-27"></g>
                        <path d="M0.568686842,2.35241053 C3.25100263,9.19362105 6.95387105,15.4849895 6.71484474,23.0506211 C6.50845,29.5744895 4.81813421,36.0249368 7.17413421,42.3603579 C7.76313421,43.9446211 10.3263447,43.2593579 9.73000263,41.6555158 C7.12273947,34.6454368 9.73652895,27.3873579 9.36208158,20.1782263 C9.02026579,13.5923579 5.48055526,7.65422632 3.12537105,1.64756842 C2.50945,0.0763578947 -0.0553921053,0.760805263 0.568686842,2.35241053" id="Fill-26" fill="#000000" mask="url(#mask-4)"></path>
                    </g>
                    <path d="M62.9351395,37.9627632 C60.5407974,17.8837368 37.1398763,18.4050263 21.9245868,21.4691316 C20.25385,21.8060526 20.9611395,24.3619211 22.6302447,24.0258158 C35.8582711,21.3614474 58.1382974,19.9672632 60.2838237,37.9627632 C60.4828763,39.6367632 63.1366395,39.6563421 62.9351395,37.9627632" id="Fill-29" fill="#000000"></path>
                    <path d="M47.5873658,35.6189184 C48.2726289,39.2842605 47.6412079,42.8843395 45.8285237,46.1319974 C44.9947868,47.6232605 47.2838921,48.9611553 48.1168132,47.4698921 C50.2925237,43.5753132 50.9622868,39.2907868 50.14405,34.9140763 C49.8316026,33.2384447 47.2757342,33.9481816 47.5873658,35.6189184" id="Fill-31" fill="#000000"></path>
                    <path d="M50.1422553,34.9139132 C47.3073868,26.0209921 33.29865,37.0333342 28.7930447,38.2488605 C27.1475974,38.6934658 27.8459132,41.2517816 29.4978868,40.8055447 C32.4649132,40.0044395 34.9440974,38.5172553 37.5823605,36.9925447 C39.3640447,35.9613868 46.4557026,32.0733342 47.5855711,35.6187553 C48.1019658,37.2389132 50.6627289,36.5463079 50.1422553,34.9139132" id="Fill-33" fill="#000000"></path>
                    <path d="M45.8282789,46.1293868 C44.3419105,48.5123079 39.9268579,45.3560184 38.4445684,44.1592553 C36.2868053,42.4159132 34.6462526,40.1129395 33.0367,37.8825711 C32.0479632,36.5112289 29.7474368,37.8336237 30.7484105,39.2204658 C33.3426211,42.8180974 43.4584105,54.9382816 48.1173842,47.4680974 C49.0229105,46.0151763 46.7297263,44.6838079 45.8282789,46.1293868" id="Fill-35" fill="#000000"></path>
                    <path d="M27.8673684,39.8795421 C29.1677368,43.2242789 31.4976316,46.4809105 34.3333158,48.6990421 C35.6622368,49.7383579 37.5516053,47.8742789 36.2088158,46.8243579 C33.7443158,44.8966474 31.5604474,42.0993053 30.4240526,39.1747 C29.8122105,37.6018579 27.2473684,38.2854895 27.8673684,39.8795421" id="Fill-37" fill="#000000"></path>
                    <path d="M50.1438053,41.3700711 C51.1113316,40.3544132 52.2289632,39.3460974 52.9150421,38.1052816 C53.5823579,36.9011763 53.7300158,35.5714395 53.6982,34.2147816 C53.6590421,32.5122289 51.0077263,32.5057026 51.0468842,34.2147816 C51.0705421,35.2018868 51.0338316,36.1261763 50.4986737,36.9827553 C49.9113053,37.9225447 49.0286211,38.6983605 48.2691211,39.4953868 C47.0927526,40.7313079 48.9649895,42.6092553 50.1438053,41.3700711" id="Fill-39" fill="#000000"></path>
                    <path d="M53.6922447,34.3856895 C53.0714289,28.8032421 50.5074026,25.1615579 44.27885,26.2147421 C35.9626921,27.6219789 30.6690342,35.5522684 21.9466132,35.8973474 C20.2465079,35.9650579 20.2375342,38.6163737 21.9466132,38.5486632 C27.22885,38.3398211 31.0720342,36.1241368 35.4307974,33.3349526 C40.5270342,30.0734263 49.9420605,24.5064789 51.0409289,34.3856895 C51.2277447,36.0629526 53.8798763,36.0817158 53.6922447,34.3856895" id="Fill-41" fill="#000000"></path>
                    <path d="M46.8448342,44.0636447 C46.4181763,45.0450395 46.0853342,45.9676974 46.4100184,47.0445395 C46.6735184,47.9215132 47.3400184,48.58475 47.3506237,49.5514605 C47.3587816,50.3174868 46.7754921,50.7841184 46.0918605,51.0851447 C45.0925184,51.5248553 44.0450447,51.0410921 43.1134132,50.66175 C41.5332289,50.0205395 40.8455184,52.58375 42.4085711,53.21925 C44.7784395,54.1810658 47.1107816,54.1100921 49.0189132,52.2174605 C49.8020711,51.4408289 50.0549658,50.3851974 49.9831763,49.3108026 C49.8983342,48.0398026 48.6248868,46.5738289 49.1347553,45.4023553 C49.8085974,43.8531711 47.5243868,42.5014079 46.8448342,44.0636447" id="Fill-43" fill="#000000"></path>
                    <path d="M61.4135289,91.0790605 C59.0779237,90.2224816 57.1347132,89.6922184 54.6424763,90.1808763 C53.1928184,90.4647711 51.47395,91.5742447 52.04745,93.3477711 C52.6552132,95.2297974 54.7876868,94.7876395 56.1761605,94.2842974 C58.1422132,93.5721132 59.3455026,93.0916132 61.4061868,93.9065868 C62.9928974,94.5339289 63.6814237,91.9715342 62.1102132,91.3499026 C60.6262921,90.7625342 59.2157921,90.5071921 57.6674237,90.96485 C57.1208447,91.1271921 56.5726342,91.3123763 56.0374763,91.5065342 C55.6540553,91.6460342 55.2828711,91.8206132 54.8937395,91.9405342 C54.7681079,91.9788763 54.6416605,92.0172184 54.5152132,92.0555605 C54.0918184,92.0906395 54.0542921,92.1281658 54.40345,92.1681395 C54.4483184,92.5091395 54.4923711,92.8493237 54.5364237,93.1895079 C54.7493447,92.5564553 56.3548184,92.5221921 57.1632658,92.5882711 C58.3918447,92.6877974 59.56495,93.2164289 60.7086868,93.6357447 C62.3133447,94.2231132 63.0043184,91.66235 61.4135289,91.0790605" id="Fill-45" fill="#000000"></path>
                </g>
            </g>
        </g>
    </g>
</svg>