<?xml version="1.0" encoding="UTF-8" standalone="no"?>
<svg width="139px" height="185px" viewBox="0 0 139 185" version="1.1" xmlns="http://www.w3.org/2000/svg" xmlns:xlink="http://www.w3.org/1999/xlink">
    <!-- Generator: Sketch 47.1 (45422) - http://www.bohemiancoding.com/sketch -->
    <title>Page 1</title>
    <desc>Created with Sketch.</desc>
    <defs>
        <polygon id="path-1" points="15.63 0.77734991 15.63 53.0863059 0.0103217518 53.0863059 0.0103217518 0.77734991 15.63 0.77734991"></polygon>
    </defs>
    <g id="Page-1" stroke="none" stroke-width="1" fill="none" fill-rule="evenodd">
        <g>
            <path d="M94.1741,151.3436 C93.4381,151.4026 92.6981,151.4236 91.9601,151.4366 C91.2981,151.4476 90.6501,151.5296 90.0231,151.6686 C86.7131,150.5996 82.8291,151.2266 80.4141,153.9166 C79.8841,154.5086 79.3411,155.0646 78.7621,155.6076 C78.7361,155.6316 78.7221,155.6466 78.6981,155.6686 C78.5951,155.7286 78.4671,155.8066 78.2811,155.9276 C77.8271,156.2236 77.3461,156.4726 76.8611,156.7126 C78.0071,156.1216 75.6871,157.0716 75.2031,157.2006 C74.6881,157.3396 74.1611,157.4376 73.6351,157.5296 C75.0071,157.2736 72.2991,157.5946 71.8231,157.6126 C70.0071,157.6766 68.1851,157.5486 66.3761,157.3856 C66.1661,157.3666 65.1441,157.2396 64.8441,157.2086 C64.0671,157.0906 63.2901,156.9646 62.5161,156.8346 C60.6621,156.5226 58.8171,156.1666 56.9701,155.8216 C53.5211,155.1766 50.0531,154.5976 46.5651,154.2096 C44.7731,153.1886 43.0091,152.1196 41.3041,150.9476 C41.0861,150.7986 40.9201,150.6856 40.7941,150.6026 C40.6831,150.5096 40.5431,150.3926 40.3601,150.2426 C39.6661,149.6756 39.0171,149.0576 38.3701,148.4386 C37.7221,147.8176 37.1311,147.1426 36.5431,146.4666 C37.6171,147.7016 35.6091,144.9896 35.4101,144.6586 C34.2711,142.7566 32.8491,141.0336 31.4481,139.3216 C30.9751,138.7416 30.4921,138.1696 30.0171,137.5926 C30.8301,138.5586 29.4181,136.6246 29.3141,136.4526 C29.2051,136.2766 29.1191,136.1426 29.0491,136.0366 C28.9991,135.8746 28.9211,135.6436 28.8021,135.3186 C28.4531,134.3696 28.1411,133.4066 27.8151,132.4486 C26.9201,129.8236 25.8831,127.2206 24.6101,124.7556 C24.5061,122.9176 23.8771,121.0916 22.7691,119.4996 C22.6781,119.0226 22.5981,118.5106 22.6021,118.6556 C22.4301,116.8936 22.3041,115.1426 22.0641,113.3746 C21.8471,111.7746 21.5421,110.1976 21.2131,108.6166 C21.0491,107.8266 20.9021,107.0346 20.7601,106.2406 C20.9481,107.1126 20.6861,104.4756 20.6851,104.4226 C20.6021,100.9596 20.6131,97.4676 20.6831,93.9976 C20.8061,93.6496 20.9121,93.2916 20.9841,92.9176 C21.0311,92.6656 21.0731,92.4136 21.1191,92.1616 C22.8011,93.7616 25.0551,94.7596 27.5551,94.7596 C27.6001,94.7596 27.6451,94.7536 27.6901,94.7526 C28.1151,95.1216 28.5761,95.4626 29.0841,95.7606 C33.4271,98.3036 39.5451,96.8856 42.0091,92.3716 C49.4931,78.6546 58.7761,68.4696 70.3011,57.3576 C74.0071,53.7836 73.8911,47.5876 70.3011,43.9986 C70.1871,43.8836 70.0641,43.7836 69.9451,43.6766 C70.3101,42.2106 70.3131,40.6236 69.8681,39.0066 C68.7841,35.0686 64.9041,32.0436 60.8341,32.0126 C61.3051,31.8106 61.7801,31.6186 62.2471,31.4076 C62.3041,31.3826 63.4561,30.8866 63.8131,30.7216 C64.0881,30.6246 64.3661,30.5386 64.6501,30.4646 C64.7871,30.4566 64.9481,30.4456 65.1581,30.4306 C66.6481,30.3556 68.1421,30.4266 69.6331,30.3546 C70.3171,30.3216 70.9841,30.2196 71.6301,30.0636 C73.3801,30.7806 75.2261,31.1636 77.1761,31.3426 C78.0401,31.4216 78.8871,31.4476 79.7561,31.4476 C79.9361,31.4476 81.1521,31.5056 81.4361,31.4686 C81.4421,31.4716 81.4461,31.4736 81.4521,31.4766 C82.2451,31.8676 82.9871,32.3626 83.7291,32.8406 C83.7901,32.8806 85.2701,33.9596 85.2111,33.8846 C85.8261,34.3766 86.4301,34.8846 87.0311,35.3926 C88.2421,36.7976 89.8681,37.9096 91.7391,38.6046 C92.1731,38.7626 92.6061,38.9256 93.0371,39.0926 C93.0961,39.1146 93.1481,39.1346 93.1961,39.1526 C94.0721,39.5476 94.9121,40.0096 95.7331,40.5076 C95.7511,40.5186 95.7691,40.5316 95.7871,40.5436 C96.0221,40.7226 96.3911,41.0056 96.5791,41.1786 C96.7081,41.2996 96.8311,41.4266 96.9561,41.5516 C98.1841,44.2036 99.7391,46.1306 102.2351,48.0106 C102.7881,48.4276 103.3571,48.8086 103.9391,49.1856 C104.7501,49.7276 104.7291,49.7256 103.8731,49.1816 C104.1601,49.5106 104.3441,49.7156 104.4341,49.8076 C107.1961,53.6396 109.0581,57.7266 110.9971,62.0296 C111.3851,62.8896 111.9301,63.6256 112.5821,64.2446 C112.5801,64.3026 112.5711,64.3596 112.5701,64.4176 C112.4391,70.1126 112.4401,76.4756 114.6251,81.8136 C115.0661,82.8906 115.6301,83.8876 116.2941,84.7786 C116.3471,86.8176 117.0311,88.7156 118.1561,90.2696 C118.1931,90.9196 118.2121,91.5706 118.2321,92.2196 C118.3131,94.8786 118.2031,97.5396 118.2951,100.1996 C118.3651,102.2446 118.4801,104.2816 118.4681,106.3306 C118.4631,107.1466 118.4101,107.9606 118.3431,108.7736 C118.3151,108.8836 118.2711,109.0906 118.2071,109.4216 C118.1751,109.5656 118.1521,109.6846 118.1341,109.7836 C117.3481,111.2636 116.9611,112.8676 116.9451,114.4486 C115.0071,118.3966 112.1901,122.3566 112.6141,126.9836 C112.6251,127.0976 112.6391,127.2096 112.6521,127.3226 C112.2511,128.1366 111.8701,128.9646 111.5101,129.8426 C111.3071,130.3196 111.2161,130.5396 111.2311,130.5186 C110.8811,131.2546 110.4791,131.9676 110.0831,132.6776 C109.1251,134.3996 108.0751,136.0656 107.1401,137.8006 C107.0741,137.9226 107.0241,138.0446 106.9631,138.1666 C106.4121,138.9756 105.9141,139.8146 105.4931,140.7036 C104.3751,141.7056 103.4741,142.9746 102.8841,144.4336 C100.2911,145.4876 98.3971,147.7476 97.5791,150.3646 C97.1021,150.5576 96.5381,150.7896 96.3331,150.8506 C95.9901,150.9526 94.1271,151.3016 94.1741,151.3436 M134.4781,119.2566 C137.5181,113.5786 137.5111,107.1326 137.2181,100.8646 C136.9221,94.5536 137.6371,88.0736 135.7051,81.9436 C135.4701,81.1976 135.1481,80.5006 134.7661,79.8476 C134.6311,78.8276 134.4811,77.8096 134.3201,76.7926 C134.1791,75.9016 134.0081,75.0146 133.8451,74.1266 C133.7831,73.7896 133.2201,70.2176 133.4661,72.1466 C133.2011,70.0736 132.5181,68.1356 131.4311,66.5536 C131.4361,65.8416 131.4451,65.1286 131.4621,64.4176 C131.5251,61.7236 130.3151,59.2706 128.4281,57.5366 C128.4341,55.8616 128.0491,54.1336 127.3101,52.4936 C125.5781,48.6506 124.0031,44.8706 121.5451,41.4186 C120.0051,39.2546 118.5231,37.0126 116.5611,35.2036 C115.7741,34.4786 114.7571,33.7556 113.8161,33.1086 C113.3721,32.1146 112.7951,31.1546 112.0931,30.2586 C108.8471,26.1166 104.5901,23.6086 99.9221,21.6346 C96.9071,19.0866 93.7821,16.5416 90.2371,14.7946 C87.3381,13.3656 84.7041,12.7626 81.4841,12.5626 C80.6251,12.5096 79.7501,12.5556 78.8901,12.5556 C78.8681,12.5546 78.8551,12.5536 78.8341,12.5526 C78.7871,12.5236 78.7471,12.4986 78.6951,12.4656 C76.4711,11.0146 73.7761,10.8306 71.3411,11.5696 C70.7851,11.4776 70.2161,11.4336 69.6331,11.4616 C66.1081,11.6336 62.6391,11.4426 59.1791,12.3656 C58.4331,12.5656 57.6991,12.8346 56.9761,13.1376 C55.8791,13.0336 54.7591,13.1366 53.6681,13.5166 C51.7681,14.1786 49.9931,15.0076 48.4461,16.1956 C46.0881,17.1336 43.8831,18.4386 41.4481,19.6356 C37.5701,21.5446 34.1171,23.7876 30.9701,26.7986 C28.2961,29.3566 26.0271,32.2316 23.2281,34.6776 C20.4011,37.1506 18.5391,40.0496 17.5221,43.3866 C16.8351,44.2966 16.2721,45.3256 15.8691,46.4486 C15.8451,46.5176 15.8231,46.5796 15.8031,46.6376 C15.7501,46.7396 15.6881,46.8636 15.6111,47.0186 C15.1321,47.9826 14.5631,48.9036 14.0011,49.8216 C12.8431,51.7166 11.5901,53.5516 10.4511,55.4596 C7.9641,59.6286 6.0191,64.6236 6.2761,69.5616 C4.7551,71.2446 3.8121,73.4596 3.7961,75.8676 C3.7921,76.4206 3.7711,76.9716 3.7581,77.5236 C3.3851,78.1926 3.0931,78.9126 2.9241,79.6926 C2.2971,82.5886 2.1941,85.3946 2.3111,88.2746 C2.1221,89.7916 1.9101,91.3076 1.8131,92.8286 C1.5281,97.2716 1.5771,102.0056 1.8861,106.4456 C2.0541,108.8566 2.5101,111.2736 2.9951,113.6396 C3.1871,114.5716 3.3771,115.5016 3.5521,116.4356 C3.5641,116.5056 3.5711,116.5576 3.5821,116.6196 C3.6201,117.0976 3.6551,117.5756 3.6861,118.0536 C3.9811,122.4546 4.6871,126.3386 7.0531,129.8436 C7.1291,131.3086 7.5181,132.7856 8.2351,134.1636 C9.4631,136.5236 11.0741,142.4006 13.0001,145.9886 C14.1801,148.1866 15.9481,150.1116 17.5401,152.0206 C17.6161,152.1126 18.2721,152.9596 18.5151,153.2606 C19.0621,154.0716 19.5371,154.9336 20.0691,155.7516 C22.8841,160.0766 26.5941,163.5356 30.7131,166.4866 C32.2181,169.7396 34.6921,172.9956 38.4611,172.9956 C38.6101,172.9956 39.5341,174.4896 39.6821,174.4826 C40.1401,174.7306 40.7061,175.1476 41.1651,175.3906 C43.6551,176.7096 44.4891,179.2406 46.9831,178.4296 C48.7821,178.7406 52.9741,180.9636 54.7701,181.2976 C59.2811,182.1386 63.5731,182.9876 68.1531,183.3346 C76.1921,183.9446 82.6871,183.6376 88.9921,178.6526 C89.4391,178.7156 97.8701,175.1846 98.2461,174.9166 C105.5191,169.7346 112.3531,165.5016 117.7851,156.8436 C120.4401,154.1746 122.5411,150.9346 123.3541,147.9476 C123.3861,147.8306 123.4061,147.7116 123.4341,147.5936 C124.3411,146.4296 125.0111,145.1406 125.4011,143.7996 C126.8831,141.1246 128.3171,138.4636 129.4481,135.5416 C128.5911,137.7546 129.7431,135.2846 129.9301,134.9566 C130.3601,134.1996 130.7801,133.4446 131.1791,132.6706 C132.5701,129.9686 133.4541,127.1506 133.4141,124.0866 C133.4131,123.9536 133.4001,123.8266 133.3931,123.6966 C134.0641,122.2616 134.4321,120.7466 134.4781,119.2566" id="Fill-1" fill="#A98E3B"></path>
            <path d="M124.6878,98.4808 C124.5468,95.4918 123.9958,92.5448 123.9238,89.5508 C123.8908,88.1198 123.8238,86.7088 123.6828,85.2848 C123.5398,84.0698 123.3808,82.8578 123.2088,81.6478 C123.5358,83.9658 123.2768,81.9648 123.2428,81.5178 C122.8298,76.1038 122.6918,69.5008 118.4798,65.4708 C118.7618,62.6538 117.7498,59.9108 115.9288,57.8168 C115.7328,56.5678 115.3978,55.3198 114.7308,54.0098 C113.9498,52.4768 112.9048,51.0438 111.7758,49.7498 C111.4298,49.3288 111.0618,48.9308 110.6688,48.5538 C110.3208,48.1988 109.0268,46.3038 110.1278,48.0438 C106.9948,43.0928 102.6728,39.3178 98.5348,35.1888 C94.0638,30.7288 88.7548,27.7098 82.7568,25.8298 C79.1558,24.7018 75.5998,23.7478 71.8298,23.3928 C69.9068,23.2118 67.9288,23.6098 65.9808,24.0838 C63.7968,24.1658 61.6358,24.4148 59.5178,25.1258 C59.3568,25.1798 59.2008,25.2448 59.0418,25.3048 C58.7218,25.3158 58.4028,25.3418 58.0828,25.3828 C57.0678,25.0348 55.9758,24.9888 54.9438,25.4058 C52.9818,26.1988 51.3948,27.1348 49.9828,28.3608 C48.7978,28.7328 47.7108,29.3578 46.8218,30.2678 C46.7518,30.3048 46.6798,30.3378 46.6108,30.3768 C45.0408,31.2338 43.6378,32.3488 42.2378,33.4518 C41.8308,33.7728 38.9418,36.1158 40.2128,35.1758 C38.0698,36.7828 35.8498,38.3308 34.0128,40.2908 C32.2148,42.2088 31.0898,44.2198 30.3828,46.4598 C28.6028,48.6388 26.9328,50.9028 25.4488,53.2078 C25.0338,53.8528 24.7298,54.5368 24.5078,55.2398 C23.5428,56.2518 22.4928,57.2548 21.8828,58.5238 C21.0008,60.3628 20.4528,62.4938 20.5778,64.5608 C20.0048,65.3878 19.5148,66.2968 19.1248,67.2688 C18.4278,69.0018 17.9008,70.7688 17.4558,72.5578 C15.1828,75.9528 14.6328,80.5468 14.5788,84.5498 C14.5708,85.1328 14.6268,85.7028 14.7258,86.2598 C14.5778,87.3718 14.4538,88.4868 14.3588,89.6058 C13.8208,90.8098 13.4958,92.1328 13.4328,93.5198 C13.2948,96.6358 13.9558,99.7578 14.5038,102.8148 C14.5218,102.9178 14.5358,103.0008 14.5498,103.0858 C14.6158,103.7398 14.6768,104.3928 14.7328,105.0468 C14.8668,106.5408 15.0118,108.0328 15.1358,109.5268 C15.4838,113.7378 15.7718,118.2908 17.3828,122.2778 C17.7708,124.4568 18.3438,126.3358 19.2998,128.5808 C19.6758,129.4628 20.0758,130.3298 20.4878,131.1948 C20.6108,131.4548 20.7068,131.6498 20.7788,131.7938 C20.8328,131.9458 20.9008,132.1348 20.9918,132.3788 C22.5368,136.5298 24.3738,140.2308 26.6888,143.9838 C28.9378,147.6288 31.4578,150.7698 34.6228,153.6448 C34.8098,153.8148 34.9928,153.9888 35.1718,154.1648 C35.8828,155.2378 36.7898,156.2218 37.8368,157.0858 C37.8718,157.1248 37.9058,157.1628 37.9388,157.2018 C37.9178,157.1928 37.9468,157.2238 38.0148,157.2868 C39.2578,158.6888 40.5528,160.0248 42.2578,161.0288 C42.3338,161.0968 42.4088,161.1658 42.4848,161.2338 C44.7878,163.2838 47.2408,165.2708 49.9808,166.6998 C54.6578,169.1388 59.7178,169.9918 64.8508,170.8398 C67.9738,171.3558 69.3438,172.7308 71.6748,171.0228 C71.9948,170.9128 75.3748,170.7398 75.6858,170.5898 C77.8158,171.7278 79.0278,170.2068 81.4758,169.5038 C85.5258,168.3418 89.0878,165.6338 92.7868,163.6708 C97.0948,161.3828 100.2428,157.2938 103.6308,153.9088 C109.8778,147.6688 115.4588,140.9088 117.8538,132.2718 C118.7708,131.2258 119.4538,129.9748 119.7598,128.5478 C120.5338,124.9488 121.4948,121.4328 122.1498,117.8308 C122.6068,117.0818 122.9678,116.2648 123.1958,115.3808 C124.3848,110.7438 124.8138,106.3598 124.1948,101.6898 C124.5528,100.6798 124.7408,99.6028 124.6878,98.4808" id="Fill-3" fill="#0455AF"></path>
            <path d="M122.0589,113.4696 C121.8419,113.0836 121.4469,112.8006 120.8719,112.7936 C120.0979,112.7836 119.3299,112.6936 118.5629,112.6136 C118.5099,111.3856 118.3149,110.2086 117.6419,109.1086 C117.0499,108.1426 116.0889,107.5046 115.1959,106.8196 C115.2639,106.4296 115.1849,106.0066 114.8709,105.6266 C113.3939,103.8476 111.7079,102.5946 109.3499,102.4446 C107.1699,102.3046 104.9749,103.6656 103.1579,104.7746 C103.0529,103.9256 103.0509,103.0606 102.9229,102.2076 C102.7399,100.9896 101.9369,99.8386 101.0169,99.0606 C99.2589,97.5736 96.8299,97.6126 94.7919,98.4296 C93.6089,97.2486 92.3459,95.8876 90.7659,95.2546 C89.3469,94.6846 87.9579,94.9256 86.4969,95.0216 C83.6789,93.7386 78.9629,93.4266 76.9759,96.2366 C75.7749,97.9346 75.1739,100.0016 75.4119,102.0726 C75.5859,103.5976 75.8959,104.4386 74.5139,105.3186 C73.7699,105.7926 73.0939,106.2736 72.4859,106.9146 C72.4549,106.9476 72.4349,106.9816 72.4079,107.0146 C72.2619,106.9636 72.1039,106.9276 71.9229,106.9256 C69.2489,106.8936 67.0309,107.0666 65.6039,109.5456 C64.7769,110.9816 63.4249,111.6746 62.3629,112.6996 C62.1489,112.8126 61.9569,112.9926 61.8169,113.2566 C61.7869,113.3086 61.7599,113.3636 61.7309,113.4156 C61.4069,113.8546 61.1389,114.3636 60.9729,114.9986 C60.9219,115.1916 60.9149,115.3766 60.9429,115.5516 C60.0619,116.1526 58.6759,116.6476 58.2139,116.9486 C57.0329,117.7206 57.4749,119.5886 58.9369,119.6166 C59.4759,119.6266 59.8939,119.5706 60.4239,119.4696 C60.7529,119.4066 60.9959,119.2626 61.1629,119.0736 C61.2189,119.0796 61.2719,119.0906 61.3319,119.0906 L120.8719,119.0906 C121.5709,119.0906 122.0029,118.6796 122.1729,118.1706 C122.2109,118.0846 122.2389,117.9936 122.2509,117.8966 C122.3999,116.8086 122.7469,115.7636 122.7319,114.6546 C122.7239,114.0816 122.4419,113.6866 122.0589,113.4696" id="Fill-5" fill="#FBEDD5"></path>
            <path d="M121.6096,117.7943 L54.8906,117.7943 C52.7986,117.7943 52.7966,121.0443 54.8906,121.0443 L121.6096,121.0443 C123.7006,121.0443 123.7046,117.7943 121.6096,117.7943" id="Fill-7" fill="#000000"></path>
            <path d="M54.8909,117.7943 C54.6979,117.7913 54.5679,117.7153 55.0239,117.8323 C54.9129,117.8043 55.5299,118.1143 55.5799,118.1773 C55.7189,118.4163 55.8589,118.6553 55.9979,118.8943 C56.0049,118.9153 55.5599,120.4293 55.6479,120.3323 C55.2869,120.7323 55.3319,120.5413 55.4639,120.4823 C55.5569,120.4403 55.6449,120.3793 55.7369,120.3353 C55.7849,120.3113 55.8349,120.2913 55.8829,120.2663 C56.1239,120.1423 55.5859,120.3783 55.7759,120.3103 C55.9079,120.2623 56.0369,120.2073 56.1669,120.1593 C56.4089,120.0703 56.6519,119.9883 56.8979,119.9163 C57.1069,119.8543 57.8519,119.7443 57.1059,119.8243 C57.9489,119.7333 58.7729,119.1423 58.7309,118.1993 C58.6949,117.3973 58.0109,116.4763 57.1059,116.5743 C56.0459,116.6893 54.9729,117.0783 54.0289,117.5623 C53.3549,117.9073 52.7939,118.5003 52.7989,119.3063 C52.8059,120.4963 53.8569,121.0293 54.8909,121.0443 C55.7419,121.0563 56.5549,120.2883 56.5159,119.4193 C56.4759,118.5283 55.8019,117.8073 54.8909,117.7943" id="Fill-9" fill="#000000"></path>
            <path d="M120.5598,114.4305 C120.8148,114.0665 121.2118,114.1695 121.5208,114.4915 C122.9698,116.0045 125.2658,113.7045 123.8188,112.1925 C122.0258,110.3195 119.1868,110.7435 117.7528,112.7905 C117.2498,113.5095 117.6228,114.5965 118.3358,115.0135 C119.1478,115.4885 120.0548,115.1515 120.5598,114.4305" id="Fill-11" fill="#000000"></path>
            <path d="M54.8909,117.7479 C54.6979,117.7449 54.5679,117.6689 55.0239,117.7859 C54.9129,117.7579 55.5299,118.0679 55.5799,118.1309 C55.7189,118.3699 55.8589,118.6089 55.9979,118.8479 C56.0049,118.8689 55.5599,120.3829 55.6479,120.2849 C55.2869,120.6859 55.3319,120.4949 55.4639,120.4359 C55.5569,120.3939 55.6449,120.3329 55.7369,120.2889 C55.7849,120.2649 55.8349,120.2449 55.8829,120.2199 C56.1239,120.0959 55.5859,120.3319 55.7759,120.2639 C55.9079,120.2159 56.0369,120.1609 56.1669,120.1129 C56.4089,120.0239 56.6519,119.9419 56.8979,119.8699 C57.1069,119.8079 57.8519,119.6969 57.1059,119.7779 C57.9489,119.6869 58.7729,119.0959 58.7309,118.1529 C58.6949,117.3509 58.0109,116.4299 57.1059,116.5279 C56.0459,116.6429 54.9729,117.0319 54.0289,117.5159 C53.3549,117.8609 52.7939,118.4539 52.7989,119.2599 C52.8059,120.4489 53.8569,120.9829 54.8909,120.9979 C55.7419,121.0099 56.5549,120.2419 56.5159,119.3729 C56.4759,118.4819 55.8019,117.7609 54.8909,117.7479" id="Fill-13" fill="#000000"></path>
            <path d="M62.6751,114.9554 C62.1291,113.3424 63.0121,112.0234 64.6551,111.7574 C65.5231,111.6164 66.0051,110.5384 65.7911,109.7584 C65.5371,108.8364 64.6611,108.4824 63.7921,108.6224 C60.4661,109.1624 58.4731,112.6634 59.5411,115.8194 C60.2091,117.7894 63.3491,116.9444 62.6751,114.9554" id="Fill-15" fill="#000000"></path>
            <path d="M65.8313,110.8773 C65.7193,111.0053 65.7273,110.9993 65.8563,110.8603 C65.9963,110.7333 66.0053,110.7253 65.8853,110.8343 C65.9713,110.7803 66.0603,110.7313 66.1513,110.6893 C65.9963,110.7593 66.0073,110.7643 66.1843,110.7053 C67.0023,110.4763 67.5903,109.5443 67.3183,108.7063 C67.0483,107.8713 66.1963,107.3253 65.3193,107.5713 C64.3523,107.8413 63.5843,108.4083 63.0253,109.2373 C62.5493,109.9433 62.8663,111.0683 63.6083,111.4603 C64.4293,111.8943 65.3233,111.6313 65.8313,110.8773" id="Fill-17" fill="#000000"></path>
            <path d="M67.1546,109.9583 C67.8376,108.3963 69.3726,107.5343 71.0106,108.3533 C72.8766,109.2853 74.5236,106.4833 72.6506,105.5473 C69.5726,104.0083 65.7746,105.0493 64.3486,108.3173 C63.5206,110.2163 66.3196,111.8723 67.1546,109.9583" id="Fill-19" fill="#000000"></path>
            <path d="M72.4241,108.493 C72.7531,108.379 72.4911,108.472 72.3901,108.449 C73.2171,108.638 74.1881,108.195 74.3891,107.313 C74.5771,106.486 74.1401,105.517 73.2541,105.314 C72.6801,105.183 72.1221,105.164 71.5601,105.359 C70.7581,105.637 70.1431,106.486 70.4251,107.358 C70.6821,108.152 71.5641,108.791 72.4241,108.493" id="Fill-21" fill="#000000"></path>
            <path d="M74.4485,107.2249 C74.3895,107.3809 74.3985,107.3109 74.4675,107.2029 C74.4685,107.2019 74.7035,106.8699 74.5945,106.9979 C74.4905,107.1209 74.6985,106.9059 74.7185,106.8859 C74.8835,106.7189 74.4355,107.0339 74.8015,106.8149 C74.8875,106.7639 74.9735,106.7139 75.0615,106.6659 C74.9195,106.7439 74.9605,106.6919 75.0895,106.6589 C75.1295,106.6489 75.5185,106.5619 75.3105,106.5929 C75.1135,106.6219 75.5405,106.5959 75.5425,106.5959 C76.3925,106.6069 77.2065,105.8409 77.1675,104.9709 C77.1275,104.0809 76.4535,103.3569 75.5425,103.3459 C73.5925,103.3219 71.9815,104.5749 71.3145,106.3609 C71.0155,107.1589 71.6455,108.1769 72.4495,108.3599 C73.3725,108.5699 74.1295,108.0789 74.4485,107.2249" id="Fill-23" fill="#000000"></path>
            <path d="M77.1673,104.971 C77.1763,104.814 77.1663,104.865 77.1403,105.123 C77.1553,105.045 77.1733,104.967 77.1943,104.89 C77.2163,104.809 77.2423,104.73 77.2713,104.652 C77.2403,104.788 77.1703,104.9 77.0613,104.989 C77.5793,104.318 77.7643,103.336 77.0613,102.691 C76.4803,102.158 75.3183,101.972 74.7633,102.691 C74.2403,103.367 73.9493,104.11 73.9173,104.971 C73.8863,105.822 74.6873,106.635 75.5423,106.596 C76.4493,106.555 77.1343,105.882 77.1673,104.971" id="Fill-25" fill="#000000"></path>
            <path d="M76.9778,102.6326 C76.2328,101.8446 76.4058,100.8806 77.1768,100.1906 C78.7398,98.7946 76.4348,96.5016 74.8788,97.8926 C72.7678,99.7796 72.7728,102.9136 74.6798,104.9306 C76.1208,106.4536 78.4148,104.1526 76.9778,102.6326" id="Fill-27" fill="#000000"></path>
            <path d="M77.6917,98.8641 C77.6137,97.0881 78.9807,95.4701 80.8747,95.7821 C81.7397,95.9251 82.6237,95.5561 82.8737,94.6471 C83.0867,93.8701 82.6087,92.7911 81.7387,92.6481 C77.8647,92.0101 74.2617,94.8021 74.4417,98.8641 C74.5337,100.9471 77.7847,100.9591 77.6917,98.8641" id="Fill-29" fill="#000000"></path>
            <path d="M81.9436,95.7259 C82.6046,95.5379 83.2246,95.6469 83.7686,96.1889 C85.2536,97.6659 87.5516,95.3689 86.0666,93.8909 C84.7586,92.5899 82.8576,92.0869 81.0796,92.5919 C79.0706,93.1629 79.9236,96.2989 81.9436,95.7259" id="Fill-31" fill="#000000"></path>
            <path d="M85.9407,96.4974 C87.0497,95.9404 88.4047,95.8594 89.5537,96.3654 C90.3627,96.7214 91.2907,96.5954 91.7777,95.7824 C92.1877,95.0954 91.9967,93.9114 91.1947,93.5584 C88.9067,92.5514 86.5467,92.5634 84.3007,93.6914 C82.4307,94.6294 84.0747,97.4344 85.9407,96.4974" id="Fill-33" fill="#000000"></path>
            <path d="M90.3743,96.5867 C90.7523,96.6147 91.1833,96.7757 91.4773,96.9937 C91.7523,97.1977 91.9663,97.5167 92.0263,97.7087 C92.2933,98.5447 93.1553,99.0827 94.0253,98.8437 C94.8483,98.6177 95.4283,97.6847 95.1603,96.8447 C94.4843,94.7237 92.5273,93.4977 90.3743,93.3367 C89.4973,93.2717 88.7493,94.1307 88.7493,94.9617 C88.7493,95.8957 89.4953,96.5207 90.3743,96.5867" id="Fill-35" fill="#000000"></path>
            <path d="M93.2473,98.9793 C93.2853,98.9863 93.7383,99.0383 93.4243,99.0023 C93.5943,99.0213 93.5423,99.1053 93.3933,98.9133 C93.9103,99.5833 94.8143,100.0133 95.6163,99.4953 C96.2793,99.0683 96.7553,97.9923 96.1993,97.2723 C95.6593,96.5703 95.0143,96.0093 94.1113,95.8453 C93.2783,95.6943 92.3193,96.0723 92.1123,96.9803 C91.9323,97.7753 92.3533,98.8173 93.2473,98.9793" id="Fill-37" fill="#000000"></path>
            <path d="M95.8225,99.5833 C96.4305,99.1843 96.7725,99.1383 97.4715,99.3733 C98.3035,99.6523 99.2475,99.0513 99.4705,98.2383 C99.7155,97.3513 99.1715,96.5203 98.3365,96.2393 C96.9645,95.7783 95.3915,95.9843 94.1815,96.7763 C93.4485,97.2573 93.1395,98.2153 93.5985,99.0003 C94.0255,99.7293 95.0855,100.0663 95.8225,99.5833" id="Fill-39" fill="#000000"></path>
            <path d="M98.3362,99.3734 C99.1402,99.1094 101.1412,99.7344 101.2172,100.7724 C101.3672,102.8454 104.6192,102.8624 104.4672,100.7724 C104.2402,97.6584 100.4352,95.2684 97.4722,96.2394 C95.4932,96.8884 96.3412,100.0284 98.3362,99.3734" id="Fill-41" fill="#000000"></path>
            <path d="M101.6926,101.9212 C102.1256,102.4372 101.9706,103.3512 101.7036,103.8922 C101.3146,104.6782 101.4916,105.6502 102.2866,106.1152 C103.0036,106.5352 104.1196,106.3222 104.5086,105.5322 C105.4806,103.5662 105.4306,101.3402 103.9906,99.6232 C103.4266,98.9502 102.2746,99.0412 101.6926,99.6232 C101.0266,100.2892 101.1276,101.2462 101.6926,101.9212" id="Fill-43" fill="#000000"></path>
            <path d="M103.8245,106.1927 C103.5935,106.2737 103.5665,106.2867 103.7465,106.2317 C103.5195,106.2517 103.5015,106.2557 103.6905,106.2457 C103.8825,106.2547 103.8605,106.2517 103.6285,106.2347 C103.4215,106.1307 103.3875,106.1257 103.5265,106.2187 C104.2105,106.7307 105.3725,106.3527 105.7505,105.6357 C106.2005,104.7837 105.8965,103.9587 105.1675,103.4127 C104.3385,102.7927 103.0445,102.9137 102.1835,103.3867 C101.4375,103.7967 101.1345,104.8857 101.6005,105.6097 C102.0885,106.3657 103.0265,106.6307 103.8245,106.1927" id="Fill-45" fill="#000000"></path>
            <path d="M105.7503,105.6361 C105.7963,105.5481 105.8473,105.4641 105.9033,105.3831 C105.8023,105.5171 105.8133,105.5141 105.9383,105.3741 C106.2293,105.1971 105.7513,105.4521 106.0833,105.2721 C106.4953,105.0491 105.8003,105.3611 106.2403,105.2031 C106.4313,105.1621 106.4323,105.1541 106.2453,105.1781 C106.3443,105.1691 106.4423,105.1671 106.5413,105.1721 C107.3923,105.1811 108.2053,104.4171 108.1663,103.5471 C108.1273,102.6581 107.4523,101.9321 106.5413,101.9221 C105.0633,101.9051 103.6683,102.7041 102.9433,103.9961 C102.5283,104.7381 102.7413,105.8041 103.5263,106.2191 C104.2943,106.6251 105.3063,106.4281 105.7503,105.6361" id="Fill-47" fill="#000000"></path>
            <path d="M107.8108,104.491 C108.7098,103.372 110.7158,102.844 111.3588,104.612 C112.0668,106.563 115.2078,105.721 114.4928,103.748 C113.1008,99.916 108.1148,98.957 105.5128,102.193 C104.2138,103.807 106.4988,106.121 107.8108,104.491" id="Fill-49" fill="#000000"></path>
            <path d="M112.1048,105.5833 C112.1998,105.6343 112.2908,105.6883 112.3818,105.7443 C112.4148,105.7643 112.6318,105.9333 112.4878,105.8133 C112.3208,105.6743 112.6018,105.9303 112.6308,105.9593 C112.6608,105.9893 112.8888,106.2803 112.7778,106.1213 C112.6828,105.9853 113.0068,106.6673 112.9058,106.3523 C112.9378,106.4533 112.9658,106.5533 112.9928,106.6553 C113.0998,107.0813 112.9948,106.4243 113.0068,106.8903 C113.0308,107.7393 113.7378,108.5553 114.6318,108.5153 C115.4928,108.4773 116.2818,107.8003 116.2568,106.8903 C116.2088,105.1513 115.2828,103.6083 113.7458,102.7773 C112.9738,102.3603 111.9758,102.5853 111.5218,103.3603 C111.0888,104.1003 111.3308,105.1653 112.1048,105.5833" id="Fill-51" fill="#000000"></path>
            <path d="M114.6321,108.5155 C114.7231,108.5035 114.8151,108.4995 114.9071,108.5015 C114.7031,108.4615 114.6951,108.4605 114.8831,108.4995 C115.0601,108.5575 115.0601,108.5485 114.8841,108.4735 C114.9461,108.5015 115.0081,108.5345 115.0671,108.5705 C115.1631,108.6325 115.1481,108.6145 115.0201,108.5145 C115.0911,108.5735 115.1571,108.6365 115.2201,108.7035 C115.1131,108.5505 115.1111,108.5515 115.2131,108.7045 C115.2991,108.8695 115.3011,108.8655 115.2201,108.6915 C115.5131,109.4875 116.3351,110.1125 117.2191,109.8265 C117.9991,109.5745 118.6681,108.6825 118.3541,107.8275 C117.7891,106.2925 116.3351,105.1175 114.6321,105.2655 C113.7871,105.3385 112.9651,105.9605 113.0071,106.8905 C113.0431,107.7075 113.7251,108.5935 114.6321,108.5155" id="Fill-53" fill="#000000"></path>
            <path d="M116.3548,109.8265 C117.4238,110.2325 117.3178,111.5005 116.7688,112.2385 C116.2448,112.9435 116.6528,114.0535 117.3518,114.4615 C118.1798,114.9465 119.0498,114.5855 119.5748,113.8785 C121.4988,111.2915 120.0678,107.7735 117.2188,106.6925 C116.3988,106.3815 115.4368,107.0375 115.2198,107.8275 C114.9688,108.7415 115.5318,109.5145 116.3548,109.8265" id="Fill-55" fill="#000000"></path>
            <path d="M118.1721,114.6839 C118.0881,114.6839 117.7551,114.5139 117.8941,114.6049 C118.0351,114.6999 117.7321,114.4389 117.7151,114.4119 C118.1581,115.1359 119.1901,115.4769 119.9381,114.9949 C120.6651,114.5259 120.9961,113.5469 120.5211,112.7709 C120.0201,111.9529 119.1361,111.4379 118.1721,111.4339 C117.3211,111.4309 116.5071,112.1839 116.5471,113.0589 C116.5861,113.9419 117.2611,114.6799 118.1721,114.6839" id="Fill-57" fill="#000000"></path>
            <path d="M61.1126,113.8377 C59.6726,113.7217 58.2996,114.5267 57.5586,115.7357 C57.1136,116.4617 57.3766,117.5547 58.1416,117.9597 C58.9336,118.3777 59.8896,118.1507 60.3646,117.3767 C60.4666,117.2207 60.4646,117.2147 60.3566,117.3597 C60.4196,117.2887 60.4856,117.2217 60.5566,117.1597 C60.3526,117.3417 60.6056,117.1537 60.6976,117.0967 C60.4426,117.2547 60.7486,117.0977 60.8416,117.0687 C60.6416,117.0857 60.6376,117.0877 60.8296,117.0747 C60.9246,117.0717 61.0186,117.0767 61.1126,117.0877 C61.9626,117.1557 62.7746,116.2917 62.7376,115.4627 C62.6956,114.5237 62.0226,113.9107 61.1126,113.8377" id="Fill-59" fill="#000000"></path>
            <path d="M58.1116,115.2186 C57.5096,115.5756 57.0166,115.9896 56.6186,116.5646 C56.5306,116.6916 56.2266,117.0606 56.6066,116.6226 C56.5166,116.7266 56.3266,116.8166 56.6986,116.5696 C56.4506,116.7336 57.0566,116.4516 56.6746,116.5866 C55.8736,116.8656 55.2566,117.7106 55.5396,118.5846 C55.7956,119.3766 56.6786,120.0206 57.5376,119.7196 C58.2476,119.4716 58.7916,119.1326 59.2216,118.5106 C59.2616,118.4516 59.2996,118.3926 59.3386,118.3336 C59.3586,118.3016 59.3806,118.2696 59.4006,118.2386 C59.4706,118.1396 59.4646,118.1486 59.3786,118.2646 C59.2846,118.3836 59.2846,118.3896 59.3796,118.2846 C59.4196,118.2426 59.4626,118.2036 59.5066,118.1666 C59.5866,118.0976 59.5686,118.1126 59.4546,118.2096 C59.5506,118.1436 59.6506,118.0826 59.7526,118.0256 C60.4826,117.5916 60.8126,116.5426 60.3356,115.8016 C59.8606,115.0656 58.8936,114.7546 58.1116,115.2186" id="Fill-61" fill="#000000"></path>
            <path d="M69.7669,3.7528 C69.7319,4.4048 68.7729,4.4068 68.7619,3.7528 C68.7519,3.0958 69.7319,3.1038 69.7669,3.7528 C69.8789,5.8328 73.1299,5.8458 73.0169,3.7528 C72.9079,1.7218 71.3829,0.0008 69.2649,0.0008 C67.2129,0.0008 65.5339,1.7178 65.5119,3.7528 C65.4919,5.7548 67.1729,7.4298 69.1489,7.4988 C71.3139,7.5748 72.9059,5.8258 73.0169,3.7528 C73.1289,1.6628 69.8789,1.6688 69.7669,3.7528" id="Fill-63" fill="#000000"></path>
            <path d="M50.4133,16.472 C56.2613,12.7 62.1093,8.928 67.9573,5.156 C69.7093,4.026 68.0813,1.211 66.3163,2.349 C60.4693,6.121 54.6213,9.893 48.7723,13.666 C47.0213,14.796 48.6483,17.61 50.4133,16.472" id="Fill-65" fill="#000000"></path>
            <path d="M89.8518,13.7274 C83.9718,9.9354 78.0918,6.1424 72.2118,2.3494 C70.4498,1.2124 68.8188,4.0244 70.5718,5.1554 C76.4518,8.9484 82.3308,12.7414 88.2108,16.5344 C89.9738,17.6704 91.6048,14.8584 89.8518,13.7274" id="Fill-67" fill="#000000"></path>
            <path d="M112.6262,139.7259 C103.5232,155.8259 88.5852,169.1419 69.2652,169.4709 C67.1762,169.5059 67.1692,172.7559 69.2652,172.7209 C89.7342,172.3719 105.7532,158.4849 115.4332,141.3669 C116.4642,139.5429 113.6572,137.9039 112.6262,139.7259" id="Fill-69" fill="#000000"></path>
            <path d="M123.1926,97.3231 C123.0486,112.1691 119.6836,126.6251 112.6266,139.7261 C111.6346,141.5671 114.4396,143.2101 115.4326,141.3661 C122.7566,127.7701 126.2936,112.7341 126.4426,97.3231 C126.4626,95.2311 123.2126,95.2291 123.1926,97.3231" id="Fill-71" fill="#000000"></path>
            <path d="M110.7288,51.6698 C119.0768,65.5078 123.0408,81.2138 123.1928,97.3228 C123.2118,99.4128 126.4618,99.4188 126.4428,97.3228 C126.2858,80.6598 122.1708,64.3448 113.5358,50.0298 C112.4568,48.2408 109.6448,49.8728 110.7288,51.6698" id="Fill-73" fill="#000000"></path>
            <path d="M69.2649,25.1751 C87.2099,25.4871 101.4769,37.0371 110.7289,51.6701 C111.8439,53.4331 114.6579,51.8041 113.5359,50.0291 C103.6609,34.4141 88.3759,22.2571 69.2649,21.9251 C67.1719,21.8891 67.1719,25.1391 69.2649,25.1751" id="Fill-75" fill="#000000"></path>
            <path d="M115.4973,141.3797 C105.8083,158.5087 89.7843,172.5357 69.2653,172.8577 C67.1753,172.8897 67.1693,176.1407 69.2653,176.1077 C90.9333,175.7677 108.0403,161.1647 118.3033,143.0197 C119.3343,141.1967 116.5273,139.5577 115.4973,141.3797" id="Fill-77" fill="#000000"></path>
            <path d="M126.511,97.3231 C126.367,112.7491 122.845,127.7781 115.497,141.3801 C114.503,143.2201 117.308,144.8631 118.303,143.0201 C125.919,128.9221 129.613,113.3131 129.761,97.3231 C129.781,95.2311 126.531,95.2291 126.511,97.3231" id="Fill-79" fill="#000000"></path>
            <path d="M113.2893,49.5155 C122.1353,63.9595 126.3603,80.4405 126.5113,97.3235 C126.5303,99.4125 129.7803,99.4185 129.7613,97.3235 C129.6053,79.8985 125.2253,62.7845 116.0963,47.8755 C115.0053,46.0945 112.1933,47.7255 113.2893,49.5155" id="Fill-81" fill="#000000"></path>
            <path d="M69.2649,21.7884 C88.1959,22.0954 103.4239,34.1014 113.2889,49.5154 C114.4139,51.2714 117.2279,49.6434 116.0959,47.8754 C105.6009,31.4764 89.3699,18.8644 69.2649,18.5384 C67.1719,18.5044 67.1719,21.7544 69.2649,21.7884" id="Fill-83" fill="#000000"></path>
            <path d="M123.2219,145.6165 C111.9479,165.5325 93.0269,181.4055 69.2649,181.7255 C67.1749,181.7535 67.1689,185.0045 69.2649,184.9755 C94.1599,184.6405 114.1859,168.1765 126.0279,147.2565 C127.0599,145.4345 124.2529,143.7945 123.2219,145.6165" id="Fill-85" fill="#000000"></path>
            <g id="Group-89" transform="translate(123.000000, 94.976000)">
                <mask id="mask-2" fill="white">
                    <use xlink:href="#path-1"></use>
                </mask>
                <g id="Clip-88"></g>
                <path d="M12.3801,2.3471 C12.2361,19.2601 8.3121,35.7501 0.2221,50.6401 C-0.7769,52.4791 2.0281,54.1211 3.0271,52.2811 C11.3851,36.8971 15.4821,19.8221 15.6301,2.3471 C15.6481,0.2551 12.3981,0.2531 12.3801,2.3471" id="Fill-87" fill="#000000" mask="url(#mask-2)"></path>
            </g>
            <path d="M120.0257,43.7083 C130.2617,59.7873 135.2197,78.3213 135.3797,97.3233 C135.3977,99.4133 138.6477,99.4183 138.6297,97.3233 C138.4647,77.7853 133.3597,58.6033 122.8327,42.0683 C121.7127,40.3093 118.8977,41.9373 120.0257,43.7083" id="Fill-90" fill="#000000"></path>
            <path d="M69.2649,12.9198 C90.7489,13.2158 108.4939,26.3018 120.0259,43.7088 C121.1759,45.4448 123.9919,43.8188 122.8319,42.0678 C110.6559,23.6878 91.9309,9.9828 69.2649,9.6698 C67.1719,9.6408 67.1709,12.8908 69.2649,12.9198" id="Fill-92" fill="#000000"></path>
            <path d="M23.1965,141.3665 C32.8775,158.4865 48.8945,172.3715 69.3655,172.7205 C71.4575,172.7565 71.4575,169.5065 69.3655,169.4705 C50.0465,169.1415 35.1065,155.8255 26.0035,139.7255 C24.9735,137.9055 22.1655,139.5415 23.1965,141.3665" id="Fill-94" fill="#000000"></path>
            <path d="M12.1877,97.3231 C12.3357,112.7331 15.8727,127.7701 23.1967,141.3661 C24.1897,143.2081 26.9967,141.5691 26.0027,139.7261 C18.9467,126.6261 15.5817,112.1681 15.4377,97.3231 C15.4167,95.2331 12.1667,95.2271 12.1877,97.3231" id="Fill-96" fill="#000000"></path>
            <path d="M25.095,50.0296 C16.459,64.3446 12.345,80.6596 12.188,97.3226 C12.167,99.4146 15.417,99.4166 15.438,97.3226 C15.59,81.2146 19.553,65.5086 27.902,51.6696 C28.985,49.8746 26.175,48.2386 25.095,50.0296" id="Fill-98" fill="#000000"></path>
            <path d="M69.3655,21.9251 C50.2525,22.2571 34.9695,34.4121 25.0945,50.0291 C23.9735,51.8021 26.7855,53.4351 27.9015,51.6701 C37.1525,37.0371 51.4195,25.4871 69.3655,25.1751 C71.4545,25.1391 71.4615,21.8891 69.3655,21.9251" id="Fill-100" fill="#000000"></path>
            <path d="M20.3264,143.0199 C30.5894,161.1649 47.6964,175.7679 69.3654,176.1069 C71.4574,176.1409 71.4584,172.8909 69.3654,172.8569 C48.8454,172.5359 32.8214,158.5099 23.1334,141.3799 C22.1024,139.5599 19.2944,141.1949 20.3264,143.0199" id="Fill-102" fill="#000000"></path>
            <path d="M8.8684,97.3231 C9.0174,113.3141 12.7114,128.9221 20.3264,143.0201 C21.3204,144.8611 24.1284,143.2221 23.1334,141.3801 C15.7854,127.7771 12.2634,112.7491 12.1184,97.3231 C12.0984,95.2331 8.8484,95.2271 8.8684,97.3231" id="Fill-104" fill="#000000"></path>
            <path d="M22.5334,47.8753 C13.4044,62.7843 9.0244,79.8983 8.8684,97.3233 C8.8494,99.4153 12.0994,99.4163 12.1184,97.3233 C12.2694,80.4393 16.4954,63.9593 25.3404,49.5153 C26.4344,47.7273 23.6254,46.0923 22.5334,47.8753" id="Fill-106" fill="#000000"></path>
            <path d="M69.3655,18.5384 C49.2615,18.8644 33.0295,31.4764 22.5335,47.8754 C21.4025,49.6424 24.2155,51.2734 25.3405,49.5154 C35.2055,34.1014 50.4345,22.0954 69.3655,21.7884 C71.4545,21.7544 71.4615,18.5044 69.3655,18.5384" id="Fill-108" fill="#000000"></path>
            <path d="M12.6018,147.2567 C24.4438,168.1757 44.4708,184.6407 69.3658,184.9757 C71.4568,185.0047 71.4578,181.7547 69.3658,181.7257 C45.6028,181.4057 26.6828,165.5327 15.4088,145.6167 C14.3778,143.7967 11.5688,145.4327 12.6018,147.2567" id="Fill-110" fill="#000000"></path>
            <path d="M0.0002,97.3231 C0.1472,114.7981 4.2442,131.8731 12.6022,147.2571 C13.6012,149.0951 16.4072,147.4571 15.4082,145.6161 C7.3182,130.7271 3.3932,114.2351 3.2502,97.3231 C3.2322,95.2331 -0.0178,95.2271 0.0002,97.3231" id="Fill-112" fill="#000000"></path>
            <path d="M15.7981,42.0682 C5.2711,58.6032 0.1641,77.7852 0.0001,97.3232 C-0.0169,99.4152 3.2331,99.4172 3.2501,97.3232 C3.4101,78.3212 8.3671,59.7872 18.6041,43.7082 C19.7311,41.9392 16.9191,40.3072 15.7981,42.0682" id="Fill-114" fill="#000000"></path>
            <path d="M69.3655,9.6698 C46.6985,9.9828 27.9735,23.6888 15.7985,42.0678 C14.6395,43.8168 17.4535,45.4458 18.6035,43.7088 C30.1355,26.3008 47.8805,13.2158 69.3655,12.9198 C71.4545,12.8908 71.4615,9.6408 69.3655,9.6698" id="Fill-116" fill="#000000"></path>
        </g>
    </g>
</svg>