<?xml version="1.0" encoding="UTF-8" standalone="no"?>
<svg width="140px" height="190px" viewBox="0 0 140 190" version="1.1" xmlns="http://www.w3.org/2000/svg" xmlns:xlink="http://www.w3.org/1999/xlink">
    <!-- Generator: Sketch 48 (47235) - http://www.bohemiancoding.com/sketch -->
    <title>mirror-with-cloud</title>
    <desc>Created with Sketch.</desc>
    <defs>
        <polygon id="path-1" points="0.084974116 0.263994429 49.729351 0.263994429 49.729351 33.7113402 0.084974116 33.7113402"></polygon>
        <polygon id="path-3" points="0.0565559261 0.264053235 49.7009769 0.264053235 49.7009769 33.7113402 0.0565559261 33.7113402"></polygon>
        <polygon id="path-5" points="0 0.101798858 11.8840522 0.101798858 11.8840522 44.2556947 0 44.2556947"></polygon>
    </defs>
    <g id="Page-1" stroke="none" stroke-width="1" fill="none" fill-rule="evenodd">
        <g id="mirror-with-cloud">
            <g id="Page-1" transform="translate(10.000000, 15.000000)">
                <path d="M81.6530722,132.401443 C81.0057526,132.453093 80.3559588,132.471959 79.7074021,132.483093 C79.1250309,132.49299 78.5556495,132.564124 78.0045155,132.686907 C75.1065773,131.750722 71.7082268,132.293814 69.5841031,134.636598 C69.1099794,135.15866 68.6200825,135.667732 68.1057526,136.150206 C68.0841031,136.170619 68.0714227,136.183608 68.0510103,136.202474 C67.9603918,136.255361 67.8478144,136.324021 67.6845155,136.430412 C67.2861649,136.690825 66.8627629,136.908866 66.436268,137.120103 C67.4435876,136.600825 65.4042062,137.434948 64.9798763,137.549381 C64.5261649,137.671237 64.0637938,137.757216 63.6008041,137.837938 C64.8063711,137.613402 62.4267835,137.895773 62.0089485,137.910309 C60.4118351,137.967526 58.8103918,137.854948 57.2210103,137.711753 C57.0363711,137.695052 56.1376082,137.584021 55.8741031,137.556186 C55.1909072,137.452577 54.5089485,137.341856 53.8279175,137.227113 C52.1992577,136.952784 50.5770928,136.640103 48.9536907,136.336701 C45.9221443,135.769794 42.8748247,135.26134 39.8083299,134.920825 C38.2334845,134.022371 36.6836907,133.083093 35.1846186,132.053196 C34.9934845,131.921753 34.8475052,131.823402 34.7364742,131.750103 C34.6390515,131.667835 34.5159588,131.565464 34.3548247,131.433711 C33.7452371,130.935155 33.1746186,130.392062 32.6064742,129.847732 C32.0367835,129.302165 31.5171959,128.70866 31.0003918,128.114536 C31.9449278,129.200103 30.1786392,126.816186 30.0045155,126.525773 C29.0036907,124.854124 27.7538969,123.339897 26.5226598,121.83433 C26.1063711,121.325258 25.6826598,120.822371 25.2642062,120.314845 C25.9792577,121.164742 24.738433,119.464021 24.6459588,119.313402 C24.5510103,119.158763 24.4755464,119.040928 24.4136907,118.948144 C24.3799794,118.837423 24.3311134,118.690206 24.2618351,118.496598 C23.999567,117.76268 23.7413196,117.027526 23.495134,116.287732 C22.6712165,113.813196 21.7105979,111.353814 20.5121443,109.032371 C20.4205979,107.41701 19.8679175,105.811546 18.894,104.41299 C18.8145155,103.993608 18.7436907,103.543299 18.7474021,103.671649 C18.5961649,102.123093 18.4854433,100.583505 18.2745155,99.0296907 C18.0833814,97.6230928 17.8155464,96.2375258 17.5266804,94.8482474 C17.3822474,94.1539175 17.2529691,93.457732 17.1289485,92.76 C17.2944124,93.5254639 17.0633814,91.2083505 17.0624536,91.1619588 C16.9894639,88.1183505 16.9996701,85.0484536 17.0605979,81.9992784 C17.1691546,81.6927835 17.2625567,81.3785567 17.3250309,81.0497938 C17.3670928,80.8286598 17.4035876,80.6065979 17.4437938,80.3851546 C18.9224536,81.7917526 20.9033814,82.668866 23.1004948,82.668866 C23.1403918,82.668866 23.1793608,82.663299 23.2189485,82.6626804 C23.5934845,82.9868041 23.9986392,83.2868041 24.4449278,83.5481443 C28.2614227,85.7839175 33.6391546,84.5372165 35.8041031,80.5694845 C42.3824536,68.5135052 50.5409072,59.5620619 60.6710103,49.7953608 C63.9280206,46.6546392 63.8256495,41.208866 60.6710103,38.0539175 C60.5701856,37.9534021 60.4622474,37.865567 60.3580206,37.7715464 C60.6781237,36.4827835 60.6812165,35.0882474 60.2902887,33.6668041 C59.3383299,30.2053608 55.9279175,27.5464948 52.3498763,27.5198969 C52.7636907,27.3420619 53.1818351,27.1731959 53.5925567,26.9876289 C53.641732,26.9656701 54.6549278,26.5298969 54.9676082,26.3845361 C55.2097732,26.2994845 55.4550309,26.2243299 55.7033814,26.1590722 C55.8246186,26.1516495 55.966268,26.1423711 56.1505979,26.1287629 C57.4600825,26.0635052 58.7729691,26.1256701 60.0836907,26.0619588 C60.6846186,26.0328866 61.2710103,25.9438144 61.8388454,25.8068041 C63.3771959,26.4364948 64.9990515,26.7736082 66.7127629,26.9304124 C67.4729691,27 68.2174021,27.0231959 68.9803918,27.0231959 C69.1390515,27.0231959 70.2076082,27.0742268 70.4575052,27.0417526 L70.471732,27.048866 C71.1685361,27.3921649 71.8214227,27.8270103 72.4724536,28.2473196 C72.5265773,28.282268 73.8270928,29.231134 73.7754433,29.1643299 C74.3160619,29.5973196 74.8461649,30.043299 75.3750309,30.4902062 C76.4398763,31.7251546 77.8687423,32.7024742 79.512866,33.3129897 C79.8942062,33.4527835 80.2746186,33.5956701 80.6537938,33.7416495 C80.705134,33.761134 80.7505979,33.7784536 80.7942062,33.7948454 C81.5655464,34.1427835 82.3053402,34.5497938 83.0281237,34.9883505 C83.0423505,34.9982474 83.0550309,35.0069072 83.0692577,35.0164948 C83.2758557,35.1739175 83.6012165,35.4228866 83.7666804,35.5762887 C83.8808041,35.6817526 83.9887423,35.7934021 84.0979175,35.9038144 C85.177299,38.2345361 86.5446186,39.9275258 88.7370928,41.5806186 C89.2238969,41.9474227 89.7236907,42.2814433 90.2349278,42.6136082 C90.9487423,43.0892784 90.9292577,43.0880412 90.1777113,42.6098969 C90.4300825,42.8984536 90.5915258,43.0790722 90.6700825,43.1604124 C93.0991546,46.5281443 94.7346186,50.1197938 96.4393608,53.9016495 C96.7798763,54.6575258 97.2589485,55.3048454 97.8323505,55.8485567 C97.8304948,55.8998969 97.8227629,55.9496907 97.8215258,56.0007216 C97.7061649,61.0060825 97.7064742,66.5987629 99.6277113,71.2902062 C100.015237,72.2369072 100.51132,73.1134021 101.094309,73.8964948 C101.14101,75.6881443 101.743175,77.3563918 102.731629,78.7227835 C102.763175,79.2940206 102.780495,79.8661856 102.797505,80.4361856 C102.868639,82.7734021 102.773072,85.1124742 102.853175,87.45 C102.915031,89.2478351 103.015546,91.0382474 103.005031,92.8382474 C103.000701,93.5560825 102.954619,94.271134 102.895237,94.985567 C102.870804,95.0823711 102.832144,95.2645361 102.776165,95.555567 C102.748021,95.6817526 102.727299,95.7869072 102.711835,95.8735052 C102.020289,97.1746392 101.680701,98.5837113 101.667093,99.9742268 C99.9632784,103.443711 97.4875052,106.92433 97.8604948,110.990722 C97.8697732,111.091237 97.8824536,111.189588 97.8935876,111.288866 C97.5410103,112.004536 97.2069897,112.731649 96.8899794,113.503299 C96.7112165,113.922371 96.6314227,114.116289 96.6447216,114.097423 C96.337299,114.744433 95.9834845,115.37134 95.6358557,115.995773 C94.7943093,117.509072 93.8711134,118.972577 93.0490515,120.497629 C92.9912165,120.604639 92.9466804,120.712577 92.8937938,120.819897 C92.4088454,121.530928 91.9718351,122.268247 91.6016289,123.049485 C90.6193608,123.930309 89.8266804,125.045258 89.3086392,126.327835 C87.029567,127.254124 85.3641031,129.240309 84.646268,131.540722 C84.226268,131.710825 83.7314227,131.91433 83.5511134,131.968144 C83.2492577,132.057835 81.6122474,132.36433 81.6530722,132.401443 M117.076268,104.199278 C119.748433,99.2090722 119.742557,93.5430928 119.484619,88.0348454 C119.225134,82.4882474 119.853588,76.7928866 118.155031,71.4046392 C117.948433,70.7492784 117.79132,67.4152577 117.650289,66.5214433 C117.526268,65.7380412 117.281938,65.3143299 117.138742,64.5343299 C117.084619,64.237732 116.280186,61.0985567 116.49668,62.7937113 C116.264103,60.9723711 114.411835,56.6257732 114.426371,56.0007216 C114.480804,53.6331959 111.42668,46.9620619 110.776887,45.5205155 C109.254309,42.1431959 107.870289,38.8206186 105.709979,35.7862887 C104.355959,33.8845361 103.053278,31.9147423 101.329052,30.3247423 C100.637505,29.6870103 98.0197732,26.7649485 97.4024536,25.9778351 C94.5490515,22.3379381 81.3091546,13.9218557 78.192866,12.3862887 C75.6447216,11.1306186 73.3303918,10.601134 70.499567,10.4248454 C69.7446186,10.3781443 68.1886392,10.1078351 68.170701,10.1069072 C68.1289485,10.0806186 63.7248247,8.59329897 61.5846186,9.24278351 C61.0959588,9.1614433 60.5955464,9.12309278 60.0836907,9.14783505 C56.9847216,9.29845361 53.9361649,9.44072165 50.8953402,10.2519588 C50.2396701,10.4270103 49.595134,10.3546392 48.9589485,10.6209278 C47.9946186,10.5296907 47.0108041,10.9292784 46.0520412,11.263299 C44.3816289,11.8456701 42.8219381,11.9551546 41.4629691,12.9989691 C39.389567,13.8235052 37.4513196,15.2802062 35.3120412,16.3326804 C31.9025567,18.0098969 28.8688454,20.2908247 26.1023505,22.9363918 C23.7518351,25.1848454 21.3533814,27.3231959 19.2976082,29.8620619 C17.431732,32.1671134 14.8671959,34.5828866 13.9730722,37.5170103 C13.3699794,38.3158763 12.2556495,39.2205155 11.9024536,40.2080412 C11.8811134,40.2683505 10.8144124,42.427732 10.7469897,42.5638144 C10.3266804,43.4118557 8.68781443,46.0156701 8.0683299,48.1271134 C6.86647423,52.2216495 3.55379381,56.1813402 3.77925773,60.5223711 C2.44286598,62.0016495 2.2325567,63.9479381 2.21894845,66.0643299 C2.21554639,66.5502062 2.19637113,67.0345361 2.18492784,67.5197938 C1.85740206,68.1074227 1.60039175,68.7408247 1.45224742,69.4261856 C0.90142268,71.9718557 0.809876289,74.4374227 0.912865979,76.9691753 C0.74771134,78.3024742 0.560907216,79.6348454 0.475546392,80.9712371 C0.242041237,84.6284536 0.264618557,88.5089691 0.491010309,92.1918557 C0.609154639,94.1158763 0.861216495,96.0293814 1.24131959,97.9193814 C1.49678351,99.1889691 1.76616495,100.450206 2.004,101.720722 C2.01389691,101.781649 2.02162887,101.827423 2.03059794,101.881856 C2.06461856,102.301856 3.00142268,110.424124 5.08131959,113.503918 C5.14781443,114.792062 9.23430928,124.540825 10.9269897,127.693918 C11.964,129.626289 12.8998763,131.31866 14.2981237,132.996186 C14.3652371,133.076598 14.9414227,133.821649 15.1554433,134.086082 C15.6354433,134.79866 16.0538969,135.556082 16.5215258,136.275155 C18.995134,140.076495 22.2558557,143.116701 25.8759588,145.710928 C27.1987423,148.570206 33.6298763,152.744227 33.7594639,152.738351 C34.1615258,152.956392 34.6594639,153.322887 35.0624536,153.536598 C37.2512165,154.695773 45.4415258,158.43433 47.0197732,158.728454 C50.9853402,159.46732 54.7582268,160.213299 58.782866,160.518247 C65.8480206,161.054227 70.6356495,159.286392 77.0992577,157.331443 C77.4908041,157.386186 84.901732,153.35567 85.2320412,153.12 C91.6238969,148.565567 97.630701,144.844639 102.405649,137.235464 C104.738227,134.889588 106.585546,132.041443 107.299361,129.417216 C107.327505,129.313608 107.65534,129.209072 107.679155,129.105155 C108.476474,128.082371 109.374309,126.948866 109.717299,125.770825 C111.01967,123.419381 111.661423,121.080309 112.656371,118.51299 C111.902969,120.457423 112.915856,118.286907 113.079155,117.998969 C113.456784,117.333402 113.82668,116.669691 114.176784,115.989588 C115.39967,113.614021 116.177505,111.137629 116.142247,108.444742 C116.140701,108.328144 116.128948,108.215876 116.122763,108.101443 C116.712557,106.841134 117.036062,105.509381 117.076268,104.199278" id="Fill-1" fill="#A88D3A"></path>
                <path d="M108.664206,85.6301753 C108.540495,83.0028557 108.055237,80.4126495 107.993381,77.7813093 C107.963691,76.5237835 107.904619,75.2835773 107.781216,74.0316186 C107.655031,72.964299 107.515546,71.8991443 107.363381,70.8355361 C107.65132,72.872134 107.423381,71.1145052 107.393691,70.7204845 C107.030907,65.9625464 106.337505,60.3615155 103.517196,56.6173918 C103.203278,54.1759485 102.565546,51.7301753 100.965959,49.8899691 C100.793381,48.7923402 100.498639,47.6956392 99.9125567,46.5441959 C99.226268,45.1963608 98.3080206,43.9372887 97.3155464,42.7994536 C97.0118351,42.429866 96.6877113,42.0794536 96.342866,41.7485258 C96.0360619,41.4361546 94.8991546,39.7706907 95.8675052,41.3006907 C93.1136907,36.9488351 89.3148247,33.6312062 85.6777113,30.0024433 C81.7486392,26.0820309 77.0825567,23.4278041 71.8102887,21.7762577 C68.6448247,20.7847113 65.5201856,19.9462577 62.206268,19.6341959 C60.5160619,19.4752268 58.7779175,19.8253299 57.0660619,20.2416186 C55.1463711,20.3136804 53.2467835,20.5326495 51.3855464,21.1573918 C51.2432784,21.2047113 51.106268,21.2622371 50.9664742,21.3141959 C50.6859588,21.3244021 50.4048247,21.3472887 50.124,21.3831649 C49.231732,21.0772887 48.2720412,21.6556392 47.3652371,22.0224433 C45.640701,22.7192474 44.2458557,22.9227526 43.0050309,24.0008969 C41.9633814,24.3274948 41.0083299,24.8767732 40.2261649,25.6762577 C40.1652371,25.7090412 40.1021443,25.738732 40.0412165,25.772134 C38.6609072,26.5258454 37.4281237,27.5053299 36.1971959,28.4752268 C35.8393608,28.7569794 33.3011134,30.8167732 34.4182268,29.991 C32.5344124,31.4031649 30.582866,32.7633711 28.9687423,34.4860515 C27.3886392,36.1719278 26.0909072,37.9391443 25.4689485,39.907701 C23.904,41.8227526 22.7463711,43.8129588 21.4412165,45.8390412 C21.0765773,46.4056392 20.8096701,47.0074948 20.615134,47.6251237 C19.7667835,48.5146082 19.1522474,49.3963608 18.6171959,50.5116186 C17.8421443,52.1272887 16.7411134,54.0008969 16.8509072,55.8169794 C16.3477113,56.5440928 16.2261649,57.343268 15.882866,58.1974948 C15.2704948,59.7213093 14.8075052,61.2738866 14.4156495,62.8462577 C12.4186392,65.829866 11.9352371,69.8678041 11.887299,73.3864639 C11.8801856,73.8986289 11.9305979,74.3993505 12.0168866,74.8889381 C11.8863711,75.8662577 11.7775052,76.8463608 11.694,77.8292474 C11.221732,78.8875979 10.9350309,80.0507938 10.8809072,81.2693505 C10.7590515,84.0086289 11.3398763,86.7522371 11.8226598,89.4395567 C11.8375052,89.5292474 11.849567,89.6025464 11.8622474,89.677701 C11.9200825,90.2520309 11.9738969,90.8263608 12.0230722,91.4013093 C12.1409072,92.7138866 12.2689485,94.0258454 12.3775052,95.3390412 C12.6833814,99.039866 12.9360619,103.041309 14.352866,106.545124 C14.6930722,108.461103 15.1971959,110.112649 16.0378144,112.085536 C16.3681237,112.860588 16.7188454,113.622031 17.0810103,114.383165 C17.189567,114.611722 17.2733814,114.783371 17.3367835,114.909557 C17.3837938,115.042856 17.4444124,115.208938 17.5242062,115.423577 C18.8822474,119.071825 20.4960619,122.324814 22.5314227,125.623268 C24.5083299,128.827392 26.7224536,131.587392 29.5041031,134.114505 C29.6692577,134.264196 29.8297732,134.417289 29.9871959,134.571928 C30.6125567,135.514608 31.4089485,136.379351 32.3299794,137.138629 C32.3599794,137.172649 32.3893608,137.20667 32.4196701,137.240691 C32.4014227,137.232959 32.4261649,137.260175 32.4864742,137.315845 C33.5785361,138.54801 34.7166804,139.72234 36.215134,140.604402 C36.2816289,140.664402 36.3475052,140.725021 36.4146186,140.784711 C38.4382268,142.586876 40.5945155,144.332134 43.0031753,145.588423 C47.1134845,147.732031 51.5612165,148.482031 56.0729691,149.227392 C58.8175052,149.681103 65.322866,149.139247 65.5959588,149.007804 C65.5127629,149.452237 68.5322474,148.671309 70.6842062,148.053371 C74.244,147.031825 77.375134,144.651928 80.6256495,142.926155 C84.4121443,140.915536 87.7968866,137.321412 90.7755464,134.346155 C96.2664742,128.861722 100.553381,122.920794 102.657402,115.328938 C103.464,114.409454 104.064,113.310588 104.333072,112.056464 C105.012247,108.893165 105.857814,105.802546 106.433691,102.637082 C106.834825,101.978938 107.152763,101.260794 107.352247,100.483577 C108.398227,96.4082165 108.774928,92.5555361 108.230907,88.4504845 C108.546062,87.5631649 108.710598,86.6158454 108.664206,85.6301753" id="Fill-3" fill="#1A56A3"></path>
                <path d="M106.353062,98.8039485 C106.162546,98.4649794 105.814918,98.2160103 105.309557,98.2095155 C104.629763,98.2008557 103.955536,98.1213711 103.280381,98.0514742 C103.234608,96.9717835 103.06234,95.9372474 102.470691,94.9710619 C101.951103,94.1214742 101.106464,93.5610619 100.321515,92.9595155 C100.381206,92.6162165 100.311928,92.2441546 100.035124,91.9107526 C98.7373918,90.346732 97.256567,89.245701 95.1837835,89.1133299 C93.2674948,88.9911649 91.3382165,90.1874536 89.7411031,91.1619897 C89.6486289,90.4147732 89.6470825,89.6548763 89.5345052,88.9061134 C89.3736804,87.8353918 88.6679072,86.8231237 87.8591443,86.1393093 C86.3139897,84.8329175 84.1796598,84.8669381 82.3886289,85.5853918 C81.3479072,84.5474536 80.2382165,83.3514742 78.849866,82.7941546 C77.6022371,82.2937423 76.382134,82.5049794 75.0983196,82.5897216 C72.6213093,81.4617835 68.4760515,81.1877629 66.729866,83.6570412 C65.674299,85.1502371 65.1457423,86.9669381 65.3545052,88.7870412 C65.5082165,90.1274536 65.7797629,90.8660103 64.5652268,91.6398247 C63.9114124,92.0564227 63.3182165,92.4792062 62.7825464,93.0430206 C62.7556392,93.0714742 62.7383196,93.1017835 62.7141959,93.1308557 C62.5864639,93.085701 62.4475979,93.0538454 62.2883196,93.0519897 C59.938732,93.0241546 57.9884227,93.1763196 56.7336804,95.3548763 C56.0068763,96.6173505 54.8195567,97.2260103 53.8855361,98.1272474 C53.6978041,98.2268351 53.529866,98.384567 53.4055361,98.6165258 C53.3792474,98.6626082 53.3563608,98.7102371 53.3306907,98.7569381 C53.0449175,99.1426082 52.809866,99.5892062 52.6638866,100.148381 C52.6196598,100.317557 52.6137835,100.480237 52.6379072,100.63333 C51.8628557,101.162196 50.6449175,101.597351 50.2394536,101.862402 C49.2008969,102.540649 49.5899691,104.18168 50.8744021,104.206423 C51.3485258,104.215701 51.7156392,104.165598 52.1820309,104.076835 C52.4712062,104.021784 52.684299,103.895907 52.8308969,103.729825 C52.8803814,103.734773 52.9267732,103.74467 52.9796598,103.74467 L105.309557,103.74467 C105.923784,103.74467 106.304814,103.383433 106.453577,102.934979 C106.487598,102.860443 106.511103,102.780031 106.522856,102.694979 C106.653062,101.738072 106.95832,100.820753 106.945021,99.8446701 C106.938216,99.3414742 106.690175,98.9947732 106.353062,98.8039485" id="Fill-5" fill="#FAEDD5"></path>
                <path d="M105.958299,103.530433 L86.2019072,103.530433 L54.5420103,103.530433 L47.3185052,103.530433 C46.6718041,103.530433 46.670567,104.535588 47.3185052,104.535588 L67.0748969,104.535588 L98.7347938,104.535588 L105.958299,104.535588 C106.605,104.535588 106.606237,103.530433 105.958299,103.530433" id="Fill-7" fill="#020203"></path>
                <path d="M47.3185052,103.530433 C47.2625258,103.529814 47.1836598,103.511567 47.1286082,103.52301 C47.1357216,103.521464 47.1777835,103.500742 47.2000515,103.547753 C47.4304639,103.793629 47.4737629,104.001155 47.3302577,104.171258 C47.2990206,104.20899 47.2984021,104.212082 47.3287113,104.181155 C47.2863402,104.181155 47.2696392,104.218577 47.355,104.167856 C47.5473711,104.052804 47.7521134,103.962186 47.9602577,103.879608 C48.2256186,103.774144 48.4962371,103.680742 48.7690206,103.597546 C48.8754124,103.565072 48.9821134,103.533835 49.0897423,103.506928 C49.1373711,103.494866 49.4284021,103.446619 49.2654124,103.463629 C49.9022165,103.396515 49.9090206,102.390433 49.2654124,102.458474 C48.5151031,102.537649 47.7255155,102.851258 47.0559278,103.186206 C46.7621134,103.333113 46.4067526,103.549608 46.4052062,103.922907 C46.4036598,104.427959 46.9244845,104.530639 47.3185052,104.535588 C47.9655155,104.543629 47.9658247,103.538474 47.3185052,103.530433" id="Fill-9" fill="#020203"></path>
                <path d="M104.236732,99.1814845 C104.806113,98.3683918 105.87034,98.3526186 106.534979,99.0469485 C106.983124,99.5151959 107.693227,98.8035464 107.245701,98.3362268 C106.105082,97.1445773 104.29766,97.3474639 103.368588,98.6739588 C102.996835,99.2049897 103.868072,99.7078763 104.236732,99.1814845" id="Fill-11" fill="#020203"></path>
                <path d="M47.3185052,103.489639 C47.2625258,103.489021 47.1836598,103.470773 47.1286082,103.482216 C47.1357216,103.48067 47.1777835,103.459948 47.2000515,103.506959 C47.4304639,103.752835 47.4737629,103.960361 47.3302577,104.130155 C47.2990206,104.167887 47.2984021,104.171289 47.3287113,104.140361 C47.2863402,104.140361 47.2696392,104.177784 47.355,104.126753 C47.5473711,104.01201 47.7521134,103.921082 47.9602577,103.838505 C48.2256186,103.733351 48.4962371,103.639639 48.7690206,103.556753 C48.8754124,103.523969 48.9821134,103.493041 49.0897423,103.466134 C49.1373711,103.454072 49.4284021,103.405825 49.2654124,103.422835 C49.9022165,103.355722 49.9090206,102.349639 49.2654124,102.41768 C48.5151031,102.496856 47.7255155,102.810464 47.0559278,103.145412 C46.7621134,103.29232 46.4067526,103.508814 46.4052062,103.882113 C46.4036598,104.387165 46.9244845,104.489845 47.3185052,104.494794 C47.9655155,104.502835 47.9658247,103.49768 47.3185052,103.489639" id="Fill-13" fill="#020203"></path>
                <path d="M53.2680309,100.356093 C52.6389588,98.4988763 53.7356598,96.7171237 55.6553505,96.406299 C56.2921546,96.303 56.0218454,95.3343402 55.3878247,95.4370206 C52.9405052,95.8335155 51.5076186,98.2873299 52.2987526,100.623 C52.5050412,101.232588 53.4761753,100.970938 53.2680309,100.356093" id="Fill-15" fill="#020203"></path>
                <path d="M56.1353505,96.0582062 C56.331433,95.7548041 56.6552474,95.5720206 56.9982371,95.4817113 C57.6229794,95.316866 57.3582371,94.3469691 56.7307113,94.512433 C56.1313299,94.6704742 55.6049381,95.0283093 55.2675155,95.5509897 C54.9155567,96.0959381 55.7852474,96.6006804 56.1353505,96.0582062" id="Fill-17" fill="#020203"></path>
                <path d="M57.2983299,95.2505876 C58.1114227,93.3874948 60.1000825,92.5815155 61.9538969,93.5078041 C62.530701,93.7963608 63.0400825,92.9294536 62.4608041,92.6402784 C60.1622474,91.4913093 57.4736907,92.3526495 56.4304948,94.7430619 C56.1744124,95.3303814 57.0400825,95.8425464 57.2983299,95.2505876" id="Fill-19" fill="#020203"></path>
                <path d="M62.4826701,93.5374639 C62.5330825,93.5176701 62.5819485,93.5018969 62.6335979,93.4861237 C62.757,93.4490103 62.5816392,93.4774639 62.710299,93.4715876 C62.7628763,93.4694227 62.8173093,93.4678763 62.8698866,93.4749897 C62.7873093,93.4641649 62.937,93.4960206 62.944732,93.4981856 C63.1980309,93.568701 63.5029794,93.4112784 63.5629794,93.1471546 C63.6235979,92.880866 63.4828763,92.6040619 63.2119485,92.5289072 C62.8872062,92.4385979 62.5306082,92.4426186 62.2154536,92.5681856 C61.9723608,92.665299 61.7744227,92.9083918 61.8644227,93.186433 C61.9408144,93.4221031 62.2210206,93.6416907 62.4826701,93.5374639" id="Fill-21" fill="#020203"></path>
                <path d="M63.6152784,93.0693093 C63.9019794,92.3026082 64.6646598,91.8269381 65.4697113,91.8371443 C66.1167216,91.8451856 66.1170309,90.8400309 65.4697113,90.8319897 C64.1905361,90.8159072 63.0891959,91.6166289 62.646,92.8024021 C62.419299,93.4088969 63.3901237,93.6708557 63.6152784,93.0693093" id="Fill-23" fill="#020203"></path>
                <path d="M65.9723196,91.3344742 C65.9726289,91.3060206 65.9751031,91.277567 65.9763402,91.2491134 C65.9781959,91.198701 65.9568557,91.332 65.9788144,91.2348866 C65.9973711,91.1526186 66.0134536,91.0706598 66.0366495,90.9896289 C66.0462371,90.9556082 66.0567526,90.9222062 66.0681959,90.8888041 C66.067268,90.8912784 66.1145876,90.7641649 66.0975773,90.8034433 C66.0904639,90.8198351 66.2296392,90.5999381 66.1495361,90.6955052 C66.3239691,90.4876701 66.3533505,90.1885979 66.1495361,89.9847835 C65.9707732,89.8060206 65.613866,89.7757113 65.4388144,89.9847835 C65.1375773,90.3447835 64.972732,90.8656082 64.9671649,91.3344742 C64.959433,91.9814845 65.9645876,91.9817938 65.9723196,91.3344742" id="Fill-25" fill="#020203"></path>
                <path d="M66.0771031,89.9339691 C65.0871031,88.8873711 65.1922577,87.4254124 66.2515361,86.4787113 C66.7349381,86.0466495 66.0220515,85.3377835 65.5408144,85.7676804 C64.0661753,87.0858247 64.0191649,89.2204639 65.3660722,90.6446907 C65.8117423,91.1157216 66.5215361,90.4040722 66.0771031,89.9339691" id="Fill-27" fill="#020203"></path>
                <path d="M66.4328969,85.9672577 C66.3351649,83.7525155 68.170732,81.9976701 70.401866,82.3654021 C71.0346495,82.4696289 71.3068144,81.5012784 70.6687732,81.3961237 C67.8265052,80.927567 65.2987732,83.046433 65.4277423,85.9672577 C65.4565052,86.6114845 66.4616598,86.6148866 66.4328969,85.9672577" id="Fill-29" fill="#020203"></path>
                <path d="M70.8491753,82.3161649 C71.7603093,82.057299 72.6819588,82.2920412 73.3543299,82.9610103 C73.813299,83.4181237 74.5243299,82.7074021 74.0647423,82.2502887 C73.1452577,81.3354433 71.831134,80.9921443 70.5819588,81.3468866 C69.9609278,81.5234845 70.2247423,82.4936907 70.8491753,82.3161649" id="Fill-31" fill="#020203"></path>
                <path d="M74.1419072,83.0875361 C75.4414948,82.435268 76.9164433,82.3833093 78.2515979,82.9712474 C78.838299,83.2291856 79.3504639,82.3635155 78.7591237,82.1031031 C77.0726289,81.3608351 75.2846907,81.3914536 73.6343814,82.219701 C73.0560309,82.5098041 73.5647938,83.3773299 74.1419072,83.0875361" id="Fill-33" fill="#020203"></path>
                <path d="M78.5053299,83.0396598 C79.5101753,83.1148144 80.5320309,83.7055361 80.8505876,84.705433 C81.0463608,85.3196598 82.0168763,85.0570825 81.819866,84.4382165 C81.3574948,82.9880103 79.9728557,82.144299 78.5053299,82.0345052 C77.859866,81.9862577 77.863268,82.9917216 78.5053299,83.0396598" id="Fill-35" fill="#020203"></path>
                <path d="M81.2770515,85.1757835 C81.5591134,85.2193918 81.8090103,85.3372268 81.9583918,85.5425876 C82.1182887,85.7615567 82.3947835,85.8698041 82.6462268,85.7228969 C82.8621031,85.5964021 82.9870515,85.2555773 82.8265361,85.0350619 C82.5147835,84.6076392 82.0765361,84.2884639 81.544268,84.2065052 C81.276433,84.1653711 81.0036495,84.2745464 80.9260206,84.5575361 C80.8604536,84.7956804 81.0070515,85.1343402 81.2770515,85.1757835" id="Fill-37" fill="#020203"></path>
                <path d="M82.8264742,85.7997835 C83.4929691,85.3627732 84.2343093,85.268134 84.9898763,85.5220515 C85.6044124,85.7286495 85.8682268,84.758134 85.2570928,84.5527732 C84.2680206,84.2206082 83.191732,84.3600928 82.3189485,84.9316392 C81.7801856,85.2848351 82.2833814,86.1557629 82.8264742,85.7997835" id="Fill-39" fill="#020203"></path>
                <path d="M85.2571856,85.5220515 C86.5771856,85.0890619 88.8500722,86.1226701 88.9607938,87.6440103 C89.0074948,88.2854536 90.0129588,88.2904021 89.9659485,87.6440103 C89.8085258,85.4827732 86.9823402,83.8989588 84.9899691,84.5527732 C84.3779072,84.7534948 84.6401753,85.7243196 85.2571856,85.5220515" id="Fill-41" fill="#020203"></path>
                <path d="M89.1080722,87.9993093 C89.7782784,88.7984845 89.7006495,89.9650825 89.2617835,90.8536392 C88.9760103,91.4316804 89.8429175,91.9413711 90.1296186,91.3608557 C90.7852887,90.033433 90.7992062,88.4576598 89.8187938,87.2885876 C89.4025052,86.7925052 88.694567,87.5066289 89.1080722,87.9993093" id="Fill-43" fill="#020203"></path>
                <path d="M89.8595258,91.6090206 C89.8771546,91.5988144 89.9226186,91.5691237 89.8768454,91.5913918 C89.9093196,91.5756186 89.9485979,91.5663402 89.9835464,91.5570619 C90.0726186,91.5326289 90.0961237,91.5304639 90.178701,91.5298454 C90.2479794,91.5289175 90.3172577,91.5341753 90.3444742,91.5388144 C90.355299,91.5409794 90.4434433,91.5632474 90.4177732,91.5552062 C90.3837526,91.5443814 90.4994227,91.6096392 90.4310722,91.5536598 C90.6407629,91.7253093 90.9361237,91.7590206 91.1417938,91.5536598 C91.3190103,91.3764433 91.3527216,91.0158247 91.1417938,90.8429381 C90.6525155,90.4430412 89.8935464,90.421701 89.352,90.7411856 C88.7956082,91.0696392 89.3003505,91.9390206 89.8595258,91.6090206" id="Fill-45" fill="#020203"></path>
                <path d="M91.2201649,91.4519691 C91.5282062,90.8961959 92.0796495,90.5751649 92.7152165,90.5850619 C93.3622268,90.595268 93.3625361,89.5901134 92.7152165,89.5799072 C91.7372784,89.564134 90.8267629,90.0886701 90.3523299,90.9447526 C90.0387216,91.510732 90.9062474,92.018567 91.2201649,91.4519691" id="Fill-47" fill="#020203"></path>
                <path d="M93.1761031,90.2578763 C94.4583711,88.6635464 97.0597113,88.6196289 97.8412577,90.773134 C98.0602268,91.3762268 99.0319794,91.1158144 98.8105361,90.5059175 C97.8001237,87.7224124 94.2749691,87.2974639 92.4653814,89.5471546 C92.0636289,90.0466392 92.7703299,90.762 93.1761031,90.2578763" id="Fill-49" fill="#020203"></path>
                <path d="M98.0720103,91.0733505 C98.8235567,91.479433 99.2995361,92.1542784 99.3233505,93.0211856 C99.3409794,93.6666495 100.346443,93.669433 100.328505,93.0211856 C100.295103,91.8100515 99.6434536,90.7804639 98.5795361,90.2055155 C98.0104639,89.8977835 97.5023196,90.7653093 98.0720103,91.0733505" id="Fill-51" fill="#020203"></path>
                <path d="M99.8258969,93.5238866 C100.423732,93.4688351 101.023113,93.7725464 101.235588,94.3583196 C101.453938,94.9617216 102.425381,94.7016186 102.204557,94.0911031 C101.848887,93.1082165 100.889814,92.4213093 99.8258969,92.518732 C99.1872371,92.5771856 99.1807423,93.5829588 99.8258969,93.5238866" id="Fill-53" fill="#020203"></path>
                <path d="M101.586433,94.7093505 C103.042825,95.2620309 103.383959,97.0041959 102.503134,98.1893505 C102.116845,98.7089381 102.98901,99.2105876 103.370969,98.696567 C104.674268,96.943268 103.855299,94.4993505 101.85334,93.7400722 C101.248082,93.5102784 100.986433,94.4817216 101.586433,94.7093505" id="Fill-55" fill="#020203"></path>
                <path d="M102.937113,98.9455979 C102.964639,98.9440515 102.992474,98.9465258 103.02,98.9443608 C102.93,98.9508557 103.001443,98.9425052 103.039175,98.9524021 C103.047526,98.9548763 103.13567,98.9820928 103.090206,98.9653918 C103.042577,98.9477629 103.160722,99.0015773 103.160722,99.0015773 C103.188557,99.0173505 103.215773,99.0346701 103.24268,99.0526082 C103.200619,99.0247732 103.228454,99.0377629 103.252887,99.0618866 C103.261546,99.0705464 103.344124,99.1596186 103.304536,99.1098247 C103.268351,99.0640515 103.33299,99.1617835 103.334536,99.164567 C103.463814,99.4030206 103.793505,99.4787938 104.022371,99.3448763 C104.263299,99.2038454 104.332268,98.896732 104.20268,98.6570412 C103.969175,98.2262165 103.427938,97.9160103 102.937113,97.9404433 C102.674845,97.9531237 102.421856,98.1621959 102.434536,98.4430206 C102.445979,98.7040515 102.655979,98.9592062 102.937113,98.9455979" id="Fill-57" fill="#020203"></path>
                <path d="M52.7871959,100.052845 C51.8457526,99.9721237 50.9476082,100.462021 50.4626598,101.263052 C50.1264742,101.817897 50.9955464,102.323567 51.3304948,101.770577 C51.6441031,101.252845 52.1927629,101.007278 52.7871959,101.058 C53.4314227,101.113361 53.4277113,100.107897 52.7871959,100.052845" id="Fill-59" fill="#020203"></path>
                <path d="M50.6165258,101.140454 C50.2184845,101.374268 49.8742577,101.646124 49.6110619,102.027464 C49.5439485,102.124577 49.471268,102.242103 49.4607526,102.252928 C49.3803402,102.335505 49.2841546,102.383443 49.1316804,102.435402 C48.5236392,102.644474 48.7849794,103.615918 49.3988969,103.40468 C49.7960103,103.268598 50.1068351,103.083031 50.3477629,102.735711 C50.5692062,102.417155 50.7618866,102.221072 51.1237423,102.008598 C51.6813711,101.681072 51.1760103,100.812 50.6165258,101.140454" id="Fill-61" fill="#020203"></path>
                <path d="M61.3192268,2.37225773 C61.2245876,4.12370103 58.5845876,4.13885567 58.5845876,2.37225773 C58.5845876,0.604731959 61.2245876,0.620195876 61.3192268,2.37225773 C61.3535567,3.01586598 62.3590206,3.0198866 62.3243814,2.37225773 C62.2547938,1.08627835 61.293866,9.27835052e-05 59.9519072,9.27835052e-05 C58.6628351,9.27835052e-05 57.579433,1.08349485 57.579433,2.37225773 C57.579433,3.62452577 58.6009794,4.68658763 59.8501546,4.73916495 C61.2313918,4.79730928 62.2529381,3.69998969 62.3243814,2.37225773 C62.3590206,1.72586598 61.353866,1.72803093 61.3192268,2.37225773" id="Fill-63" fill="#020203"></path>
                <path d="M42.9161134,12.7521031 C48.0560103,9.43663918 53.1959072,6.12148454 58.3358041,2.8063299 C58.8776598,2.45684536 58.3741546,1.5862268 57.8282784,1.93849485 C52.6886907,5.25364948 47.5487938,8.56880412 42.4085876,11.884268 C41.8670412,12.2337526 42.3702371,13.1040619 42.9161134,12.7521031" id="Fill-65" fill="#020203"></path>
                <path d="M77.578701,11.9385773 C72.4109691,8.60517526 67.2432371,5.2717732 62.0755052,1.93837113 C61.5299381,1.58672165 61.0258144,2.45641237 61.5679794,2.80620619 C66.7357113,6.13960825 71.9034433,9.47301031 77.0711753,12.8067216 C77.616433,13.1580619 78.1211753,12.2883711 77.578701,11.9385773" id="Fill-67" fill="#020203"></path>
                <path d="M98.8627423,122.348381 C90.8771753,136.692711 77.1319175,148.846732 59.9518144,148.949722 C59.3054227,148.953433 59.3038763,149.958588 59.9518144,149.954876 C77.4848041,149.849722 91.5715052,137.51168 99.7305773,122.855598 C100.045423,122.289928 99.1778969,121.782402 98.8627423,122.348381" id="Fill-69" fill="#020203"></path>
                <path d="M108.275474,84.6123402 C108.230629,97.7337835 105.177433,110.809763 98.8625876,122.34832 C98.5520722,122.915845 99.4195979,123.42399 99.7304227,122.855536 C106.129701,111.163577 109.235474,97.9097629 109.280629,84.6123402 C109.282794,83.9656392 108.277639,83.9647113 108.275474,84.6123402" id="Fill-71" fill="#020203"></path>
                <path d="M97.1946186,44.0201443 C104.644825,56.1862268 108.227814,70.3963299 108.275443,84.6123093 C108.277608,85.2590103 109.282763,85.2602474 109.280598,84.6123093 C109.232351,70.2265361 105.601732,55.8243711 98.0624536,43.5129278 C97.7253402,42.9621031 96.8553402,43.4665361 97.1946186,44.0201443" id="Fill-73" fill="#020203"></path>
                <path d="M59.9519381,20.2750515 C75.9286392,20.3730928 89.0655464,30.9637113 97.1946186,44.0202062 C97.5357526,44.5682474 98.4057526,44.0641237 98.0624536,43.5129897 C89.7444124,30.1530928 76.2880206,19.3701031 59.9519381,19.2698969 C59.3049278,19.2658763 59.3043093,20.2710309 59.9519381,20.2750515" id="Fill-75" fill="#020203"></path>
                <path d="M101.385588,123.801742 C92.8832165,139.053804 78.1900206,151.824216 59.9518763,151.926588 C59.3051753,151.92999 59.3042474,152.935144 59.9518763,152.931742 C78.5416701,152.827515 93.5775464,139.872464 102.253423,124.309268 C102.568577,123.743598 101.701052,123.236072 101.385588,123.801742" id="Fill-77" fill="#020203"></path>
                <path d="M111.192495,84.6123402 C111.147649,98.2437835 107.955897,111.821722 101.385588,123.801619 C101.074144,124.369144 101.941979,124.876979 102.253423,124.309144 C108.907856,112.176155 112.152495,98.4194536 112.197649,84.6123402 C112.199814,83.9656392 111.19466,83.9647113 111.192495,84.6123402" id="Fill-79" fill="#020203"></path>
                <path d="M99.4453299,42.1267423 C107.331309,54.8278763 111.144402,69.7140619 111.19234,84.6123093 C111.194505,85.2590103 112.19966,85.2602474 112.197495,84.6123093 C112.148938,69.5448866 108.289144,54.4650928 100.313474,41.6192165 C99.9729588,41.070866 99.1029588,41.5749897 99.4453299,42.1267423" id="Fill-81" fill="#020203"></path>
                <path d="M59.9519381,17.2984021 C76.7983299,17.3945876 90.7736907,28.3779897 99.4452371,42.1266495 C99.7897732,42.6725258 100.659773,42.1687113 100.313381,41.619433 C91.4510103,27.5686082 77.1586392,16.3912887 59.9519381,16.2932474 C59.3049278,16.2895361 59.3043093,17.2946907 59.9519381,17.2984021" id="Fill-83" fill="#020203"></path>
                <g id="Group-87" transform="translate(59.381443, 127.014742)">
                    <mask id="mask-2" fill="white">
                        <use xlink:href="#path-1"></use>
                    </mask>
                    <g id="Clip-86"></g>
                    <path d="M48.7934536,0.51071134 C41.0856186,14.3060722 29.0234536,26.312567 13.5570619,30.8351443 C9.33262887,32.0700928 4.97025773,32.6852474 0.570463918,32.7062784 C-0.0762371134,32.7090619 -0.0774742268,33.7142165 0.570463918,33.711433 C16.7293299,33.6344227 31.2719072,25.1540103 41.4777835,12.9724639 C44.5866495,9.26143299 47.3011856,5.2426701 49.6612887,1.01823711 C49.9770619,0.452876289 49.1092268,-0.0546494845 48.7934536,0.51071134" id="Fill-85" fill="#020203" mask="url(#mask-2)"></path>
                </g>
                <path d="M118.986959,84.6123402 C118.941804,99.5507938 115.395,114.412856 108.174897,127.52533 C107.862526,128.092546 108.730361,128.600381 109.042732,128.032856 C116.346959,114.767289 119.946649,99.7258454 119.992113,84.6123402 C119.994278,83.9656392 118.989124,83.9647113 118.986959,84.6123402" id="Fill-88" fill="#020203"></path>
                <path d="M105.365722,37.0228763 C114.474278,51.1463814 118.937474,67.8628763 118.986959,84.6124639 C118.989124,85.2588557 119.994278,85.2604021 119.992113,84.6124639 C119.94232,67.695866 115.43366,50.7808144 106.233866,36.5153505 C105.884381,35.9734948 105.013763,36.477 105.365722,37.0228763" id="Fill-90" fill="#020203"></path>
                <path d="M59.9519381,9.50375258 C79.0436907,9.59653608 95.2263711,21.5185979 105.365753,37.0230309 C105.718639,37.5621031 106.588948,37.0589072 106.233897,36.5155052 C95.898433,20.7116907 79.4083299,8.59323711 59.9519381,8.49859794 C59.3049278,8.49550515 59.304,9.50065979 59.9519381,9.50375258" id="Fill-92" fill="#020203"></path>
                <path d="M20.2616289,122.855474 C28.420701,137.512175 42.5074021,149.849598 60.0403918,149.954753 C60.6870928,149.958773 60.6880206,148.953619 60.0403918,148.949598 C42.8599794,148.846608 29.1150309,136.692278 21.1297732,122.348258 C20.8149278,121.782897 19.9464742,122.289495 20.2616289,122.855474" id="Fill-94" fill="#020203"></path>
                <path d="M10.7116082,84.6123402 C10.7567629,97.9097629 13.8625361,111.163577 20.2615052,122.855536 C20.5723299,123.423371 21.4404742,122.916464 21.1296495,122.34832 C14.8144948,110.809763 11.7616082,97.7337835 11.7167629,84.6123402 C11.7145979,83.9656392 10.7094433,83.9644021 10.7116082,84.6123402" id="Fill-96" fill="#020203"></path>
                <path d="M21.9297526,43.5128969 C14.3904742,55.8243402 10.7598557,70.2268144 10.7116082,84.6122784 C10.7094433,85.2592887 11.7145979,85.2599072 11.7167629,84.6122784 C11.7643918,70.396299 15.3473814,56.1861959 22.7975876,44.0201134 C23.1365567,43.4671237 22.2674845,42.9614536 21.9297526,43.5128969" id="Fill-98" fill="#020203"></path>
                <path d="M60.0404536,19.2698969 C43.7040619,19.3701031 30.2476701,30.1530928 21.9296289,43.5129897 C21.5869485,44.0635052 22.4563299,44.568866 22.7977732,44.0202062 C30.9268454,30.9637113 44.0634433,20.3730928 60.0404536,20.2750515 C60.6868454,20.2710309 60.6883918,19.2658763 60.0404536,19.2698969" id="Fill-100" fill="#020203"></path>
                <path d="M17.7387835,124.309144 C26.4146598,139.87234 41.4505361,152.827392 60.0403299,152.931619 C60.6870309,152.93533 60.6879588,151.930175 60.0403299,151.926464 C41.8021856,151.824402 27.1089897,139.05399 18.6069278,123.801619 C18.2917732,123.236567 17.4233196,123.742856 17.7387835,124.309144" id="Fill-102" fill="#020203"></path>
                <path d="M7.79458763,84.6123402 C7.83974227,98.4194536 11.0843814,112.176155 17.7388144,124.309144 C18.0499485,124.876361 18.9184021,124.369763 18.6066495,123.801619 C12.0360309,111.821722 8.84458763,98.2437835 8.79974227,84.6123402 C8.79757732,83.9656392 7.79242268,83.9644021 7.79458763,84.6123402" id="Fill-104" fill="#020203"></path>
                <path d="M19.6788557,41.6193402 C11.7031856,54.4652165 7.84308247,69.544701 7.79452577,84.612433 C7.79236082,85.259134 8.79751546,85.2600619 8.79968041,84.612433 C8.84761856,69.7138763 12.6607113,54.828 20.5466907,42.126866 C20.8890619,41.5754227 20.0196804,41.0703711 19.6788557,41.6193402" id="Fill-106" fill="#020203"></path>
                <path d="M60.0404536,16.2932474 C42.8337526,16.3912887 28.5410722,27.5686082 19.6790103,41.619433 C19.3326186,42.1680928 20.202,42.6731443 20.5468454,42.1266495 C29.2183918,28.3779897 43.1940619,17.3945876 60.0404536,17.2984021 C60.6868454,17.2946907 60.6883918,16.2895361 60.0404536,16.2932474" id="Fill-108" fill="#020203"></path>
                <g id="Group-112" transform="translate(10.824742, 127.014742)">
                    <mask id="mask-4" fill="white">
                        <use xlink:href="#path-3"></use>
                    </mask>
                    <g id="Clip-111"></g>
                    <path d="M0.124701031,1.01814433 C7.99305155,15.101134 20.3626392,27.3204124 36.1692371,31.8649485 C40.411299,33.0847423 44.8033608,33.6906186 49.2158351,33.7113402 C49.8622268,33.714433 49.8631546,32.7092784 49.2158351,32.7061856 C33.3894433,32.6310309 19.2003711,24.3315464 9.17016495,12.4407216 C6.05325773,8.74546392 3.34892784,4.72824742 0.992536082,0.510618557 C0.677072165,-0.0541237113 -0.191381443,0.452164948 0.124701031,1.01814433" id="Fill-110" fill="#020203" mask="url(#mask-4)"></path>
                </g>
                <g id="Group-115" transform="translate(0.000000, 84.025052)">
                    <mask id="mask-6" fill="white">
                        <use xlink:href="#path-5"></use>
                    </mask>
                    <g id="Clip-114"></g>
                    <path d="M-3.09278351e-05,0.58728866 C0.045742268,15.7007938 3.64543299,30.7422371 10.9493505,44.0078041 C11.2617216,44.5747113 12.129866,44.0681134 11.8171856,43.5002784 C4.59739175,30.3878041 1.05027835,15.5257423 1.00512371,0.58728866 C1.00326804,-0.0594123711 -0.00188659794,-0.0606494845 -3.09278351e-05,0.58728866" id="Fill-113" fill="#020203" mask="url(#mask-6)"></path>
                </g>
                <path d="M13.7586186,36.5154742 C4.55851546,50.7809381 0.0498556701,67.6956804 6.18556701e-05,84.6122784 C-0.00179381443,85.2592887 1.00336082,85.2599072 1.00521649,84.6122784 C1.05470103,67.863 5.51789691,51.1465052 14.6264536,37.023 C14.9781031,36.477433 14.1084124,35.9733093 13.7586186,36.5154742" id="Fill-116" fill="#020203"></path>
                <path d="M60.0404536,8.49859794 C40.5840619,8.59323711 24.0939588,20.7116907 13.7584948,36.5155052 C13.4034433,37.0585979 14.2734433,37.5627216 14.6266392,37.0230309 C24.7660206,21.5185979 40.9483918,9.59653608 60.0404536,9.50375258 C60.6868454,9.50065979 60.6883918,8.49550515 60.0404536,8.49859794" id="Fill-118" fill="#020203"></path>
            </g>
        </g>
    </g>
</svg>