<?xml version="1.0" encoding="UTF-8" standalone="no"?>
<svg width="154px" height="153px" viewBox="0 0 154 153" version="1.1" xmlns="http://www.w3.org/2000/svg" xmlns:xlink="http://www.w3.org/1999/xlink">
    <!-- Generator: Sketch 47.1 (45422) - http://www.bohemiancoding.com/sketch -->
    <title>out-middle-down</title>
    <desc>Created with Sketch.</desc>
    <defs></defs>
    <g id="Boxes" stroke="none" stroke-width="1" fill="none" fill-rule="evenodd">
        <g id="out-middle-down">
            <g id="Group" transform="translate(0.000000, -1.000000)">
                <polygon id="Fill-1" fill="#A98F3B" points="5.28232677 5.45081299 153.231657 5.45081299 140.517996 1.58862795 1.05277953 1.58862795"></polygon>
                <polygon id="Stroke-2" stroke="#000000" stroke-width="0.65" points="5.28232677 5.45081299 153.231657 5.45081299 140.517996 1.58862795 1.05277953 1.58862795"></polygon>
                <polygon id="Fill-3" fill="#1D1D1B" points="1.0529626 140.960783 5.28250984 152.740783 5.28250984 5.45050787 1.0529626 1.5877126"></polygon>
                <polygon id="Stroke-4" stroke="#000000" stroke-width="0.65" points="1.0529626 140.960783 5.28250984 152.740783 5.28250984 5.45050787 1.0529626 1.5877126"></polygon>
                <path d="M140.254801,2.54444094 C144.492281,3.83142913 148.730372,5.1196378 152.968463,6.40662598 C154.191986,6.77825984 154.714959,4.86516929 153.495096,4.49414567 C149.257616,3.20715748 145.020136,1.91955906 140.781435,0.63196063 C139.557911,0.260326772 139.034939,2.17402756 140.254801,2.54444094" id="Fill-5" fill="#000000"></path>
                <path d="M0.351557087,2.2893622 C1.76181299,3.57635039 3.17145866,4.86455906 4.58110433,6.15154724 C5.52208858,7.01075984 6.92807283,5.61209843 5.98342717,4.74922441 C4.5737815,3.46223622 3.16352559,2.1746378 1.75449016,0.88703937 C0.813505906,0.0278267717 -0.593088583,1.42648819 0.351557087,2.2893622" id="Fill-8" fill="#000000"></path>
                <polygon id="Fill-10" fill="#A98F3B" points="5.28458465 153.39813 153.232085 153.39813 153.232085 5.45124016 5.28458465 5.45124016"></polygon>
                <path d="M153.231841,152.406313 L103.252274,152.406313 L23.5822736,152.406313 L5.28434055,152.406313 L6.27597441,153.397947 L6.27597441,103.41899 L6.27597441,23.7483799 L6.27597441,5.45105709 L5.28434055,6.44269094 L55.2639075,6.44269094 L134.934518,6.44269094 L153.231841,6.44269094 C152.901093,6.11194291 152.570955,5.78119488 152.240207,5.45105709 L152.240207,55.4300138 L152.240207,135.100624 L152.240207,153.397947 C152.240207,154.674561 154.223474,154.676392 154.223474,153.397947 L154.223474,103.41899 L154.223474,23.7483799 L154.223474,5.45105709 C154.223474,4.91465945 153.769459,4.45942323 153.231841,4.45942323 L103.252274,4.45942323 L23.5822736,4.45942323 L5.28434055,4.45942323 C4.74855315,4.45942323 4.29270669,4.91343898 4.29270669,5.45105709 L4.29270669,55.4300138 L4.29270669,135.100624 L4.29270669,153.397947 C4.29270669,153.934344 4.74733268,154.389581 5.28434055,154.389581 L55.2639075,154.389581 L134.934518,154.389581 L153.231841,154.389581 C154.507844,154.389581 154.510285,152.406313 153.231841,152.406313" id="Fill-12" fill="#000000"></path>
                <path d="M2.04459646,140.960783 L2.04459646,93.7663346 L2.04459646,18.8744843 L2.04459646,1.5877126 C2.04459646,0.312318898 0.0613287402,0.310488189 0.0613287402,1.5877126 L0.0613287402,48.7821614 L0.0613287402,123.675232 L0.0613287402,140.960783 C0.0613287402,142.237398 2.04459646,142.239228 2.04459646,140.960783" id="Fill-13" fill="#000000"></path>
                <path d="M0.991633858,1.68870669 L0.991633858,141.045911" id="Fill-337" fill="#006D3C"></path>
                <path d="M0,1.68870669 L0,48.8776634 L0,123.761581 L0,141.045911 C0,142.321915 1.98326772,142.324356 1.98326772,141.045911 L1.98326772,93.8569547 L1.98326772,18.9724272 L1.98326772,1.68870669 C1.98326772,0.41209252 0,0.410261811 0,1.68870669" id="Fill-339" fill="#000000"></path>
            </g>
        </g>
    </g>
</svg>