<?xml version="1.0" encoding="UTF-8" standalone="no"?>
<svg width="171px" height="171px" viewBox="0 0 171 171" version="1.1" xmlns="http://www.w3.org/2000/svg" xmlns:xlink="http://www.w3.org/1999/xlink">
    <!-- Generator: Sketch 47.1 (45422) - http://www.bohemiancoding.com/sketch -->
    <title>out-almost</title>
    <desc>Created with Sketch.</desc>
    <defs>
        <polygon id="path-1" points="0.0984049489 0.34 23.6634367 0.34 23.6634367 25.2585821 0.0984049489 25.2585821 0.0984049489 0.34"></polygon>
    </defs>
    <g id="Boxes" stroke="none" stroke-width="1" fill="none" fill-rule="evenodd">
        <g id="out-almost">
            <g id="Group-30" transform="translate(85.588235, 91.000000) scale(-1, 1) translate(-85.588235, -91.000000) translate(0.000000, 11.000000)">
                <polygon id="Fill-8" fill="#EF88B7" points="23.1688235 148.014118 170.121176 148.014118 170.121176 1.31058824 23.1688235 1.31058824"></polygon>
                <path d="M170.121471,147.058 L120.360882,147.058 L41.3779412,147.058 L23.1691176,147.058 C23.4879412,147.376824 23.8067647,147.695059 24.125,148.013882 L24.125,98.338 L24.125,19.488 L24.125,1.31035294 C23.8067647,1.62858824 23.4879412,1.94741176 23.1691176,2.26623529 L72.9291176,2.26623529 L151.913235,2.26623529 L170.121471,2.26623529 C169.802647,1.94741176 169.483824,1.62858824 169.165588,1.31035294 L169.165588,50.9862353 L169.165588,129.836235 L169.165588,148.013882 C169.165588,149.243882 171.077353,149.246235 171.077353,148.013882 L171.077353,98.338 L171.077353,19.488 L171.077353,1.31035294 C171.077353,0.793882353 170.639118,0.354470588 170.121471,0.354470588 L120.360882,0.354470588 L41.3779412,0.354470588 L23.1691176,0.354470588 C22.6526471,0.354470588 22.2132353,0.792705882 22.2132353,1.31035294 L22.2132353,50.9862353 L22.2132353,129.836235 L22.2132353,148.013882 C22.2132353,148.530353 22.6514706,148.969765 23.1691176,148.969765 L72.9291176,148.969765 L151.913235,148.969765 L170.121471,148.969765 C171.351471,148.969765 171.353824,147.058 170.121471,147.058" id="Fill-9" fill="#000000"></path>
                <polygon id="Fill-11" fill="#EF88B7" points="1.62994118 158.731941 23.3087647 148.013706 23.3087647 1.869 1.62994118 24.2878235"></polygon>
                <path d="M2.11188235,159.557176 C9.33835294,155.984824 16.5648235,152.411882 23.7907059,148.839529 C24.0865882,148.693059 24.2642353,148.332471 24.2642353,148.013647 L24.2642353,98.3695294 L24.2642353,19.9530588 L24.2642353,1.86894118 C24.2642353,1.05188235 23.2124706,0.593647059 22.6330588,1.19305882 C18.7489412,5.20952941 14.8648235,9.226 10.9807059,13.2424706 C8.47894118,15.8301176 5.97658824,18.4177647 3.47423529,21.0048235 C2.59835294,21.9107059 1.01364706,23.0248235 0.674235294,24.2877647 C0.242470588,25.8912941 0.674235294,28.1989412 0.674235294,29.8412941 L0.674235294,44.0954118 L0.674235294,134.207176 L0.674235294,158.731882 C0.674235294,159.961882 2.586,159.963647 2.586,158.731882 L2.586,95.3295294 L2.586,49.9871765 L2.586,33.5501176 C2.586,30.8230588 3.04482353,27.6383529 2.586,24.9412941 C2.55305882,24.7512941 2.57188235,24.4971765 2.586,24.3012941 C2.55776471,24.6971765 2.03717647,25.0971765 2.54894118,24.7118824 C2.80423529,24.5201176 3.01482353,24.2301176 3.23717647,24.0007059 C5.66717647,21.4877647 8.09658824,18.9748235 10.5265882,16.4624706 C15.0130588,11.8230588 19.4989412,7.18423529 23.9848235,2.54541176 C23.4407059,2.31952941 22.8965882,2.09423529 22.3524706,1.86894118 L22.3524706,64.9783529 L22.3524706,144.592471 C22.3524706,145.271882 22.0124706,147.066588 22.3524706,147.672471 C22.816,148.496 21.0971765,146.948353 22.7601176,147.221294 C22.1401176,147.119529 20.5665882,148.306 20.0095294,148.581294 C13.7218824,151.689529 7.43482353,154.798353 1.14717647,157.906588 C0.0442352941,158.451882 1.01188235,160.101294 2.11188235,159.557176" id="Fill-13" fill="#000000"></path>
                <polygon id="Fill-15" fill="#000000" points="136.222647 158.956588 169.982059 148.013647 23.3085294 148.013647 1.62970588 158.956588"></polygon>
                <path d="M2.16994118,159.577 C9.29935294,155.987588 16.4293529,152.398176 23.5587647,148.808765 C24.6575882,148.255824 23.6911176,146.605824 22.5940588,147.158176 C15.4646471,150.747588 8.33405882,154.337 1.20464706,157.926412 C0.105823529,158.479353 1.07288235,160.129353 2.16994118,159.577" id="Fill-17" fill="#000000"></path>
                <path d="M170.121471,147.027588 L120.407941,147.027588 L41.4997059,147.027588 L23.3085294,147.027588 C23.6273529,147.346412 23.9461765,147.664647 24.2644118,147.983471 L24.2644118,98.3175882 L24.2644118,19.4840588 L24.2644118,1.31052941 C23.9461765,1.62876471 23.6273529,1.94758824 23.3085294,2.26641176 L73.0220588,2.26641176 L151.930294,2.26641176 L170.121471,2.26641176 C169.802647,1.94758824 169.483824,1.62876471 169.165588,1.31052941 L169.165588,50.9758235 L169.165588,129.809353 L169.165588,147.983471 C169.165588,149.213471 171.077353,149.215824 171.077353,147.983471 L171.077353,98.3175882 L171.077353,19.4840588 L171.077353,1.31052941 C171.077353,0.793470588 170.639118,0.354647059 170.121471,0.354647059 L120.407941,0.354647059 L41.4997059,0.354647059 L23.3085294,0.354647059 C22.7920588,0.354647059 22.3526471,0.792294118 22.3526471,1.31052941 L22.3526471,50.9758235 L22.3526471,129.809353 L22.3526471,147.983471 C22.3526471,148.499941 22.7908824,148.939353 23.3085294,148.939353 L73.0220588,148.939353 L151.930294,148.939353 L170.121471,148.939353 C171.351471,148.939353 171.353824,147.027588 170.121471,147.027588" id="Fill-19" fill="#000000"></path>
                <path d="M136.476588,159.812529 C147.745412,156.186647 159.013647,152.561353 170.283059,148.935471 C171.449529,148.560765 170.950118,146.713706 169.774235,147.091941 C158.506,150.717824 147.237176,154.343706 135.968353,157.969 C134.801294,158.344294 135.300706,160.191353 136.476588,159.812529" id="Fill-21" fill="#000000"></path>
                <g id="Group-25" transform="translate(0.588235, 0.000000)">
                    <mask id="mask-2" fill="white">
                        <use xlink:href="#path-1"></use>
                    </mask>
                    <g id="Clip-24"></g>
                    <path d="M1.71723529,24.9638824 C8.94370588,17.3044706 16.1695882,9.64505882 23.3960588,1.98623529 C24.2401765,1.09152941 22.8907647,-0.262588235 22.0448824,0.634470588 C14.8178235,8.29388235 7.59135294,15.9527059 0.365470588,23.6121176 C-0.478058824,24.5068235 0.871352941,25.8609412 1.71723529,24.9638824" id="Fill-23" fill="#000000" mask="url(#mask-2)"></path>
                </g>
                <path d="M2.58582353,158.731941 L2.58582353,113.206647 L2.58582353,40.9625294 L2.58582353,24.2878235 C2.58582353,23.0578235 0.674058824,23.0554706 0.674058824,24.2878235 L0.674058824,69.8131176 L0.674058824,142.057235 L0.674058824,158.731941 C0.674058824,159.961941 2.58582353,159.963706 2.58582353,158.731941" id="Fill-26" fill="#000000"></path>
                <path d="M136.222647,157.934941 L90.865,157.934941 L18.2344118,157.934941 L1.62970588,157.934941 C0.399705882,157.934941 0.397941176,159.846706 1.62970588,159.846706 L46.9873529,159.846706 L119.617353,159.846706 L136.222647,159.846706 C137.452647,159.846706 137.454412,157.934941 136.222647,157.934941" id="Fill-28" fill="#000000"></path>
            </g>
        </g>
    </g>
</svg>