<?xml version="1.0" encoding="UTF-8" standalone="no"?>
<svg width="150px" height="150px" viewBox="0 0 150 150" version="1.1" xmlns="http://www.w3.org/2000/svg" xmlns:xlink="http://www.w3.org/1999/xlink">
    <!-- Generator: Sketch 48 (47235) - http://www.bohemiancoding.com/sketch -->
    <title>Box</title>
    <desc>Created with Sketch.</desc>
    <defs>
        <polygon id="path-1" points="0.0410869565 0.444130435 137.715 0.444130435 137.715 137.888199 0.0410869565 137.888199"></polygon>
        <polygon id="path-3" points="0 0.37389354 5.99505176 0.37389354 5.99505176 149.003046 0 149.003046"></polygon>
    </defs>
    <g id="Boxes" stroke="none" stroke-width="1" fill="none" fill-rule="evenodd">
        <g id="Box">
            <g id="Page-1" transform="translate(4.000000, 0.000000)">
                <polygon id="Fill-1" fill="#D42314" points="4.99052795 149.150776 141.150466 149.150776 141.150466 13.2204969 4.99052795 13.2204969"></polygon>
                <g id="Group-26" transform="translate(0.000000, 0.373602)">
                    <g id="Group-4" transform="translate(4.192547, 11.645963)">
                        <mask id="mask-2" fill="white">
                            <use xlink:href="#path-1"></use>
                        </mask>
                        <g id="Clip-3"></g>
                        <path d="M136.958012,0.444130435 L90.8535093,0.444130435 L17.4839441,0.444130435 L0.798074534,0.444130435 C0.388602484,0.444130435 0.0410869565,0.791180124 0.0410869565,1.20111801 L0.0410869565,47.1793789 L0.0410869565,120.404068 L0.0410869565,137.131398 C0.0410869565,137.540404 0.387670807,137.888385 0.798074534,137.888385 L46.9025776,137.888385 L120.272143,137.888385 L136.958012,137.888385 C137.367484,137.888385 137.715,137.541335 137.715,137.131398 L137.715,91.1531366 L137.715,17.9284472 L137.715,1.20111801 C137.715,0.227049689 136.201025,0.225186335 136.201025,1.20111801 L136.201025,47.1793789 L136.201025,120.404068 L136.201025,137.131398 L136.958012,136.37441 L90.8535093,136.37441 L17.4839441,136.37441 L0.798074534,136.37441 L1.55506211,137.131398 L1.55506211,91.1531366 L1.55506211,17.9284472 L1.55506211,1.20111801 L0.798074534,1.95810559 L46.9025776,1.95810559 L120.272143,1.95810559 L136.958012,1.95810559 C137.932547,1.95810559 137.933944,0.444130435 136.958012,0.444130435" id="Fill-2" fill="#000000" mask="url(#mask-2)"></path>
                    </g>
                    <polygon id="Fill-5" fill="#D42314" points="0.780279503 1.1051087 5.11956522 12.8470342 5.11956522 148.259767 0.780279503 125.67545"></polygon>
                    <g id="Group-9">
                        <mask id="mask-4" fill="white">
                            <use xlink:href="#path-3"></use>
                        </mask>
                        <g id="Clip-8"></g>
                        <path d="M0.0505900621,1.30621118 C0.957111801,3.75978261 1.86409938,6.2128882 2.77062112,8.66645963 C3.22574534,9.89906832 3.65664596,11.1447205 4.13785714,12.3675466 C4.31440994,12.8156832 4.36798137,12.9861801 4.36285714,12.9503106 C4.60881988,14.6692547 4.36285714,16.609472 4.36285714,18.3391304 L4.36285714,48.092236 L4.36285714,128.563509 L4.36285714,148.259627 C4.85804348,148.192081 5.35416149,148.125466 5.84934783,148.057919 C4.8571118,142.894565 3.86534161,137.730745 2.87357143,132.566925 C2.37559006,129.976863 1.5063354,126.945652 1.53708075,124.867081 C1.65214286,117.266925 1.53708075,109.656056 1.53708075,102.054969 L1.53708075,21.8031056 L1.53708075,1.10496894 C1.53708075,0.130900621 0.0231055901,0.129503106 0.0231055901,1.10496894 L0.0231055901,56.893323 L0.0231055901,123.824534 C0.0231055901,126.148137 0.508975155,128.264441 0.951987578,130.566615 C2.09795031,136.531211 3.2434472,142.495807 4.38940994,148.46087 C4.55338509,149.312422 5.8768323,149.096739 5.8768323,148.259627 L5.8768323,95.0930124 L5.8768323,20.4787267 C5.8768323,18.0726708 6.14282609,15.4956522 5.8768323,13.1003106 C5.73801242,11.8541925 5.1123913,10.6513975 4.67729814,9.47375776 C3.62170807,6.61677019 2.56565217,3.76071429 1.51052795,0.903726708 C1.17559006,-0.00279503106 -0.288540373,0.389440994 0.0505900621,1.30621118" id="Fill-7" fill="#000000" mask="url(#mask-4)"></path>
                    </g>
                    <polygon id="Fill-10" fill="#D42314" points="125.489022 0.89673913 141.021475 12.8468944 5.1196118 12.8468944 0.780326087 0.89673913"></polygon>
                    <path d="M125.106848,1.55049689 C130.284177,5.53388199 135.461972,9.51773292 140.639301,13.5006522 C140.766475,13.031087 140.894115,12.5605901 141.021289,12.0900932 L95.0528106,12.0900932 L21.8434938,12.0900932 L5.1198913,12.0900932 C5.36305901,12.2754969 5.60669255,12.4609006 5.84939441,12.6458385 C4.40343168,8.66245342 2.95653727,4.67906832 1.51057453,0.695217391 C1.26694099,1.01478261 1.02377329,1.33434783 0.780139752,1.65391304 L42.9874379,1.65391304 L110.177189,1.65391304 L125.488835,1.65391304 C126.462904,1.65391304 126.464767,0.139937888 125.488835,0.139937888 L83.2820031,0.139937888 L16.0917857,0.139937888 L0.780139752,0.139937888 C0.320357143,0.139937888 -0.119860248,0.628602484 0.050636646,1.09770186 C1.49659938,5.0815528 2.94349379,9.06493789 4.38945652,13.0487888 C4.50451863,13.3650932 4.76771739,13.6040683 5.1198913,13.6040683 L51.0879037,13.6040683 L124.297686,13.6040683 L141.021289,13.6040683 C141.840699,13.6040683 141.960419,12.6220807 141.403276,12.1939752 C136.225947,8.21012422 131.048618,4.22627329 125.871289,0.242888199 C125.098929,-0.350590062 124.34427,0.963540373 125.106848,1.55049689" id="Fill-12" fill="#000000"></path>
                    <path d="M0.103835404,1.28799689 L4.17479814,13.076972 C4.49110248,13.9918789 5.9538354,13.5987112 5.63473602,12.6740217 L1.56377329,0.885512422 C1.24746894,-0.0298602484 -0.215729814,0.363307453 0.103835404,1.28799689" id="Fill-14" fill="#000000"></path>
                    <path d="M141.150559,12.1182764 L95.0898447,12.1182764 L21.7896894,12.1182764 L5.11965839,12.1182764 C4.71018634,12.1182764 4.36267081,12.4653261 4.36267081,12.875264 L4.36267081,58.8442081 L4.36267081,132.053059 L4.36267081,148.777127 C4.36267081,149.186134 4.70925466,149.534115 5.11965839,149.534115 L51.1803727,149.534115 L124.480528,149.534115 L141.150559,149.534115 C141.560031,149.534115 141.907547,149.187065 141.907547,148.777127 L141.907547,102.808649 L141.907547,29.5993323 L141.907547,12.875264 C141.907547,11.9011957 140.393571,11.8993323 140.393571,12.875264 L140.393571,58.8442081 L140.393571,132.053059 L140.393571,148.777127 L141.150559,148.02014 L95.0898447,148.02014 L21.7896894,148.02014 L5.11965839,148.02014 C5.37214286,148.272158 5.62416149,148.524643 5.87664596,148.777127 L5.87664596,102.808649 L5.87664596,29.5993323 L5.87664596,12.875264 C5.62416149,13.1277484 5.37214286,13.3802329 5.11965839,13.6322516 L51.1803727,13.6322516 L124.480528,13.6322516 L141.150559,13.6322516 C142.125093,13.6322516 142.126491,12.1182764 141.150559,12.1182764" id="Fill-16" fill="#000000"></path>
                    <path d="M125.106848,1.61142857 C130.299084,5.57431677 135.490854,9.53767081 140.68309,13.500559 C141.457314,14.0917081 142.211972,12.7775776 141.447065,12.193882 L125.871289,0.303819876 C125.097065,-0.286863354 124.341475,1.02726708 125.106848,1.61142857" id="Fill-18" fill="#000000"></path>
                    <path d="M0.0505900621,125.877019 C1.4965528,133.577329 2.9434472,141.278106 4.38940994,148.978416 C4.5692236,149.934783 6.02869565,149.529503 5.84934783,148.575932 C4.40338509,140.875155 2.95649068,133.174845 1.51052795,125.474534 C1.33071429,124.518168 -0.128757764,124.922981 0.0505900621,125.877019" id="Fill-20" fill="#000000"></path>
                    <path d="M0.0232919255,1.1051087 L0.0232919255,43.2648913 L0.0232919255,110.38104 L0.0232919255,125.67545 C0.0232919255,126.649984 1.53726708,126.651382 1.53726708,125.67545 L1.53726708,83.5152019 L1.53726708,16.3995186 L1.53726708,1.1051087 C1.53726708,0.130574534 0.0232919255,0.129177019 0.0232919255,1.1051087" id="Fill-22" fill="#000000"></path>
                    <path d="M0.780279503,1.86209627 L42.9871118,1.86209627 L110.177329,1.86209627 L125.488975,1.86209627 C126.463043,1.86209627 126.464907,0.348121118 125.488975,0.348121118 L83.2821429,0.348121118 L16.0919255,0.348121118 L0.780279503,0.348121118 C-0.19378882,0.348121118 -0.195652174,1.86209627 0.780279503,1.86209627" id="Fill-24" fill="#000000"></path>
                </g>
            </g>
        </g>
    </g>
</svg>