<?xml version="1.0" encoding="UTF-8" standalone="no"?>
<svg width="305px" height="305px" viewBox="0 0 305 305" version="1.1" xmlns="http://www.w3.org/2000/svg" xmlns:xlink="http://www.w3.org/1999/xlink">
    <!-- Generator: Sketch 47.1 (45422) - http://www.bohemiancoding.com/sketch -->
    <title>Slice</title>
    <desc>Created with Sketch.</desc>
    <defs>
        <path d="M1.2526,2.614 L107.0406,27.36 L1.2526,2.614 Z" id="path-1"></path>
    </defs>
    <g id="Page-1" stroke="none" stroke-width="1" fill="none" fill-rule="evenodd">
        <polygon id="Fill-2964" fill="#D42314" points="100.235825 25.3118 -0.224174798 0.1258 -0.682174798 307.3488 100.235825 284.0638"></polygon>
        <polygon id="Fill-2966" fill="#D42314" points="306.061925 307.3489 -1.9760748 307.3489 103.811925 283.1069 306.061925 282.7009"></polygon>
        <polygon id="Fill-2968" fill="#FCE8DD" points="100.235725 283.979 305.177725 283.979 305.177725 235.453 100.235725 235.453"></polygon>
        <polygon id="Fill-2970" fill="#FFDC00" points="100.511725 235.453 306.175725 235.453 306.175725 23.459 100.511725 23.459"></polygon>
        <g id="Group-3124" transform="translate(-2.949275, -3.000000)">
            <path d="M223.4023,174.6487 C223.3813,174.6697 223.3663,174.6917 223.3453,174.7107 C223.5473,174.5217 223.5143,174.5487 223.4023,174.6487" id="Fill-2972" fill="#196D3B"></path>
            <path d="M223.4023,174.6487 C223.3813,174.6697 223.3663,174.6917 223.3453,174.7107 C223.5473,174.5217 223.5143,174.5487 223.4023,174.6487 Z" id="Stroke-2974" stroke="#000000" stroke-width="0.65"></path>
            <path d="M196.8613,102.0999 C196.1123,101.8739 195.3403,101.7009 194.5303,101.6519 C190.6353,101.4179 187.5903,103.8329 184.9833,106.3979 C184.4003,106.5089 183.9663,106.6009 184.8813,106.4969 L184.8813,106.4969 C182.0623,106.8169 179.6953,106.8689 177.0853,108.2069 C175.9053,108.8119 174.9883,109.7199 174.2913,110.7759 C174.1723,110.7959 174.0633,110.7869 173.9433,110.8099 C170.6363,111.4669 166.7423,111.5369 164.1463,114.1339 C163.8713,114.4079 163.6923,114.7349 163.4593,115.0319 C160.4723,115.6029 157.8453,117.5249 157.1313,121.0189 C157.1163,121.0909 157.1233,121.1569 157.1093,121.2279 C156.9263,121.3329 156.6743,121.5509 156.3453,121.8889 C155.4893,122.7159 154.7283,123.6239 154.0613,124.6149 C153.0843,126.8599 152.5673,128.7499 152.2873,131.1869 C151.8543,134.9679 153.0173,138.8599 153.3403,142.5529 C153.5263,144.6729 154.3063,146.6179 155.5373,148.1459 C154.1823,149.5359 153.2973,151.4699 153.3403,154.0109 C153.4083,157.9829 154.1163,161.5119 155.8453,165.0899 C157.5673,168.6539 160.4943,170.0879 163.7803,170.8429 C164.8543,172.5349 166.4723,173.8219 168.5983,174.1929 C169.1873,174.2979 169.7773,174.3989 170.3663,174.4959 C172.0203,176.9429 174.5623,178.8209 177.6903,178.4929 C180.2253,178.2259 181.9783,177.3939 183.9403,176.3719 C185.5403,178.1399 187.8113,179.2879 190.3243,179.2469 C190.8903,179.2389 191.9603,179.4219 191.9893,179.2839 C192.8783,179.8189 193.6873,180.5079 194.6383,180.9589 C196.7363,181.9549 198.5683,182.3359 200.8763,182.5489 C201.2453,182.5829 204.4753,182.8999 203.3853,182.7069 C205.9503,183.1609 208.5023,182.7249 210.5223,181.4579 C214.4133,182.3149 218.8643,180.7779 220.5913,176.8959 C220.8233,176.6879 221.0733,176.5079 221.2793,176.2639 C220.1773,177.5749 222.9133,175.0859 223.4023,174.6489 C224.2863,173.8029 225.0123,172.8389 225.6733,171.8089 C226.0953,171.1499 226.4403,170.2039 226.7163,169.3099 C226.7813,169.2819 226.8473,169.2549 226.9113,169.2269 C227.7833,168.5669 228.6453,167.8949 229.4983,167.2099 C229.5073,167.2019 229.5163,167.1929 229.5253,167.1839 C229.8203,167.0799 230.3683,166.8339 231.3413,166.3459 C235.2373,164.5609 237.8953,160.4869 238.6013,156.3249 C238.7623,155.3749 238.7793,154.4329 238.7123,153.5109 C240.0123,152.0989 240.8403,150.2669 241.0163,148.2569 C242.7163,146.1329 243.4713,143.2709 242.6623,140.5299 C242.0463,138.4389 240.9203,136.3459 239.1783,134.9619 C239.4403,134.1449 239.6253,133.2949 239.6373,132.3999 C239.7023,127.7409 236.3283,122.7159 232.2063,120.1279 C231.9093,118.4279 231.1273,116.8039 229.8373,115.5139 L229.6923,115.3689 C229.4033,115.0799 229.0773,114.8499 228.7573,114.6099 C228.3513,111.9949 226.8173,109.5459 224.5183,108.2619 C224.0283,107.5769 223.5093,106.9139 222.8753,106.3769 C220.8603,104.6709 218.3773,103.7999 215.9563,103.9439 C214.3813,101.6099 211.7183,100.0449 208.7443,100.0569 C208.6073,100.0579 208.4043,100.0419 208.2023,100.0239 C208.1483,99.9919 208.1283,99.9779 208.0603,99.9399 C204.3703,97.6619 199.4783,98.8249 196.8613,102.0999" id="Fill-2976" fill="#196D3B"></path>
            <path d="M196.8613,102.0999 C196.1123,101.8739 195.3403,101.7009 194.5303,101.6519 C190.6353,101.4179 187.5903,103.8329 184.9833,106.3979 C184.4003,106.5089 183.9663,106.6009 184.8813,106.4969 L184.8813,106.4969 C182.0623,106.8169 179.6953,106.8689 177.0853,108.2069 C175.9053,108.8119 174.9883,109.7199 174.2913,110.7759 C174.1723,110.7959 174.0633,110.7869 173.9433,110.8099 C170.6363,111.4669 166.7423,111.5369 164.1463,114.1339 C163.8713,114.4079 163.6923,114.7349 163.4593,115.0319 C160.4723,115.6029 157.8453,117.5249 157.1313,121.0189 C157.1163,121.0909 157.1233,121.1569 157.1093,121.2279 C156.9263,121.3329 156.6743,121.5509 156.3453,121.8889 C155.4893,122.7159 154.7283,123.6239 154.0613,124.6149 C153.0843,126.8599 152.5673,128.7499 152.2873,131.1869 C151.8543,134.9679 153.0173,138.8599 153.3403,142.5529 C153.5263,144.6729 154.3063,146.6179 155.5373,148.1459 C154.1823,149.5359 153.2973,151.4699 153.3403,154.0109 C153.4083,157.9829 154.1163,161.5119 155.8453,165.0899 C157.5673,168.6539 160.4943,170.0879 163.7803,170.8429 C164.8543,172.5349 166.4723,173.8219 168.5983,174.1929 C169.1873,174.2979 169.7773,174.3989 170.3663,174.4959 C172.0203,176.9429 174.5623,178.8209 177.6903,178.4929 C180.2253,178.2259 181.9783,177.3939 183.9403,176.3719 C185.5403,178.1399 187.8113,179.2879 190.3243,179.2469 C190.8903,179.2389 191.9603,179.4219 191.9893,179.2839 C192.8783,179.8189 193.6873,180.5079 194.6383,180.9589 C196.7363,181.9549 198.5683,182.3359 200.8763,182.5489 C201.2453,182.5829 204.4753,182.8999 203.3853,182.7069 C205.9503,183.1609 208.5023,182.7249 210.5223,181.4579 C214.4133,182.3149 218.8643,180.7779 220.5913,176.8959 C220.8233,176.6879 221.0733,176.5079 221.2793,176.2639 C220.1773,177.5749 222.9133,175.0859 223.4023,174.6489 C224.2863,173.8029 225.0123,172.8389 225.6733,171.8089 C226.0953,171.1499 226.4403,170.2039 226.7163,169.3099 C226.7813,169.2819 226.8473,169.2549 226.9113,169.2269 C227.7833,168.5669 228.6453,167.8949 229.4983,167.2099 C229.5073,167.2019 229.5163,167.1929 229.5253,167.1839 C229.8203,167.0799 230.3683,166.8339 231.3413,166.3459 C235.2373,164.5609 237.8953,160.4869 238.6013,156.3249 C238.7623,155.3749 238.7793,154.4329 238.7123,153.5109 C240.0123,152.0989 240.8403,150.2669 241.0163,148.2569 C242.7163,146.1329 243.4713,143.2709 242.6623,140.5299 C242.0463,138.4389 240.9203,136.3459 239.1783,134.9619 C239.4403,134.1449 239.6253,133.2949 239.6373,132.3999 C239.7023,127.7409 236.3283,122.7159 232.2063,120.1279 C231.9093,118.4279 231.1273,116.8039 229.8373,115.5139 L229.6923,115.3689 C229.4033,115.0799 229.0773,114.8499 228.7573,114.6099 C228.3513,111.9949 226.8173,109.5459 224.5183,108.2619 C224.0283,107.5769 223.5093,106.9139 222.8753,106.3769 C220.8603,104.6709 218.3773,103.7999 215.9563,103.9439 C214.3813,101.6099 211.7183,100.0449 208.7443,100.0569 C208.6073,100.0579 208.4043,100.0419 208.2023,100.0239 C208.1483,99.9919 208.1283,99.9779 208.0603,99.9399 C204.3703,97.6619 199.4783,98.8249 196.8613,102.0999 Z" id="Stroke-2978" stroke="#000000" stroke-width="0.65"></path>
            <path d="M186.9146,178.1624 C185.2876,176.6184 182.8216,179.0754 184.4536,180.6234 C185.8616,181.9594 186.8416,183.6034 187.9516,185.1804 C188.6466,186.1684 189.4856,187.0294 190.3296,187.8884 C190.2276,188.1104 190.1646,188.3664 190.1796,188.6754 C190.4266,193.7264 191.5056,198.6774 191.4856,203.7594 C191.4836,204.0114 191.5396,204.2224 191.6226,204.4104 C191.4736,211.8974 191.2626,219.3814 191.1956,226.8694 C191.1396,233.1514 189.4646,241.4994 192.0126,247.4244 C192.5096,248.5784 193.6576,248.5044 194.4276,247.8744 C195.4066,248.0724 196.5596,247.5494 196.5616,246.2554 C196.5896,228.0884 193.7436,208.7724 196.3536,190.7324 C196.3746,190.5934 196.3416,190.4734 196.3336,190.3434 C196.3376,190.3244 196.3516,190.3174 196.3536,190.2984 C196.7196,188.2044 198.3616,186.7114 199.3696,184.9124 C200.4686,182.9524 197.4616,181.1974 196.3636,183.1554 C196.0836,183.6554 195.7636,184.1284 195.4456,184.6014 C194.7376,184.3164 193.9076,184.4394 193.4636,185.3314 C193.3776,185.5034 193.2926,185.6714 193.2046,185.8414 C192.1886,184.7734 191.1596,183.7334 190.3166,182.4994 C189.2736,180.9734 188.2636,179.4404 186.9146,178.1624" id="Fill-2980" fill="#196D3B"></path>
            <path d="M186.9146,178.1624 C185.2876,176.6184 182.8216,179.0754 184.4536,180.6234 C185.8616,181.9594 186.8416,183.6034 187.9516,185.1804 C188.6466,186.1684 189.4856,187.0294 190.3296,187.8884 C190.2276,188.1104 190.1646,188.3664 190.1796,188.6754 C190.4266,193.7264 191.5056,198.6774 191.4856,203.7594 C191.4836,204.0114 191.5396,204.2224 191.6226,204.4104 C191.4736,211.8974 191.2626,219.3814 191.1956,226.8694 C191.1396,233.1514 189.4646,241.4994 192.0126,247.4244 C192.5096,248.5784 193.6576,248.5044 194.4276,247.8744 C195.4066,248.0724 196.5596,247.5494 196.5616,246.2554 C196.5896,228.0884 193.7436,208.7724 196.3536,190.7324 C196.3746,190.5934 196.3416,190.4734 196.3336,190.3434 C196.3376,190.3244 196.3516,190.3174 196.3536,190.2984 C196.7196,188.2044 198.3616,186.7114 199.3696,184.9124 C200.4686,182.9524 197.4616,181.1974 196.3636,183.1554 C196.0836,183.6554 195.7636,184.1284 195.4456,184.6014 C194.7376,184.3164 193.9076,184.4394 193.4636,185.3314 C193.3776,185.5034 193.2926,185.6714 193.2046,185.8414 C192.1886,184.7734 191.1596,183.7334 190.3166,182.4994 C189.2736,180.9734 188.2636,179.4404 186.9146,178.1624 Z" id="Stroke-2982" stroke="#000000" stroke-width="0.65"></path>
            <polygon id="Fill-2984" fill="#D42314" points="309.2896 2.614 1.2526 2.614 107.0406 27.36 309.2896 27.775"></polygon>
            <g id="Stroke-2986">
                <use stroke="#000000" stroke-width="0.65" xlink:href="#path-1"></use>
                <use stroke="#979797" stroke-width="1" xlink:href="#path-1"></use>
            </g>
            <path d="M103.6172,25.8206 C74.4382,18.5806 45.2602,11.3406 16.0812,4.1006 C11.9802,3.0826 7.8792,2.0656 3.7772,1.0476 C1.7472,0.5436 0.8812,3.6766 2.9132,4.1816 C32.0922,11.4216 61.2702,18.6616 90.4492,25.9016 C94.5502,26.9196 98.6522,27.9366 102.7532,28.9546 C104.7832,29.4586 105.6492,26.3246 103.6172,25.8206" id="Fill-2988" fill="#000000"></path>
            <path d="M103.1123,285.4124 C73.6423,292.2274 44.1733,299.0434 14.7033,305.8574 C10.4893,306.8324 6.2753,307.8074 2.0613,308.7814 C0.0243,309.2534 0.8863,312.3874 2.9243,311.9154 C32.3943,305.1004 61.8643,298.2854 91.3333,291.4704 L103.9763,288.5464 C106.0133,288.0754 105.1513,284.9404 103.1123,285.4124" id="Fill-2990" fill="#000000"></path>
            <path d="M197.5898,240.0784 L294.1428,240.0784 L307.7838,240.0784 C309.8758,240.0784 309.8788,236.8284 307.7838,236.8284 L211.2318,236.8284 L197.5898,236.8284 C195.4988,236.8284 195.4948,240.0784 197.5898,240.0784" id="Fill-2992" fill="#000000"></path>
            <path d="M103.1851,240.0784 L178.4511,240.0784 L189.4081,240.0784 C191.4991,240.0784 191.5031,236.8284 189.4081,236.8284 L114.1431,236.8284 L103.1851,236.8284 C101.0941,236.8284 101.0901,240.0784 103.1851,240.0784" id="Fill-2994" fill="#000000"></path>
            <path d="M309.5791,285.3547 L239.8401,285.3547 L128.7441,285.3547 L103.3251,285.3547 C103.8661,285.8957 104.4081,286.4377 104.9501,286.9797 L104.9501,199.4197 L104.9501,59.6887 L104.9501,27.3877 C104.9501,25.2957 101.7001,25.2927 101.7001,27.3877 L101.7001,114.9467 L101.7001,254.6777 L101.7001,286.9797 C101.7001,287.8577 102.4441,288.6047 103.3251,288.6047 L173.0641,288.6047 L284.1601,288.6047 L309.5791,288.6047 C311.6701,288.6047 311.6741,285.3547 309.5791,285.3547" id="Fill-2998" fill="#000000"></path>
            <path d="M103.4619,29.0808 L172.7099,29.0808 L282.4939,29.0808 L307.7839,29.0808 C309.8749,29.0808 309.8789,25.8308 307.7839,25.8308 L238.5359,25.8308 L128.7519,25.8308 L103.4619,25.8308 C101.3709,25.8308 101.3669,29.0808 103.4619,29.0808" id="Fill-3000" fill="#000000"></path>
            <path d="M152.8623,147.5032 C152.9513,147.6022 153.3723,148.0462 153.2903,148.1252 C153.2783,148.1362 153.2683,147.7412 153.2963,147.7802 C153.3353,147.6982 153.3323,147.7002 153.2863,147.7862 C153.2503,147.8552 153.2103,147.9222 153.1663,147.9862 C152.7993,148.5282 152.3853,149.0192 152.0803,149.6022 C151.1103,151.4522 153.9143,153.0972 154.8863,151.2422 C155.3423,150.3722 156.1333,149.6702 156.4023,148.7042 C156.7793,147.3472 156.0343,146.1762 155.1603,145.2052 C153.7583,143.6482 151.4653,145.9522 152.8623,147.5032" id="Fill-3002" fill="#000000"></path>
            <path d="M152.0801,149.6018 C149.9761,153.1078 150.4241,156.2348 151.9161,159.8348 C152.7051,161.7388 155.8511,160.9038 155.0501,158.9708 C153.8991,156.1938 153.2261,154.0088 154.8861,151.2418 C155.9651,149.4438 153.1561,147.8088 152.0801,149.6018" id="Fill-3004" fill="#000000"></path>
            <path d="M151.916,159.8347 C152.503,161.3647 152.193,162.9847 152.634,164.5417 C153.047,165.9997 153.934,167.1667 155.225,167.9517 C157.018,169.0407 158.652,166.2307 156.866,165.1457 C156.155,164.7137 155.749,163.8137 155.664,163.2677 C155.436,161.7967 155.598,160.3977 155.05,158.9707 C154.308,157.0377 151.165,157.8767 151.916,159.8347" id="Fill-3006" fill="#000000"></path>
            <path d="M155.1602,145.2053 C153.6122,143.5333 153.0022,141.4483 153.2162,139.2003 C153.4142,137.1193 150.1622,137.1323 149.9662,139.2003 C149.6732,142.2823 150.7712,145.2453 152.8622,147.5033 C154.2862,149.0403 156.5802,146.7383 155.1602,145.2053" id="Fill-3008" fill="#000000"></path>
            <path d="M152.9941,138.3796 C152.3061,137.1606 152.7331,135.8686 153.3451,134.7056 C154.3161,132.8556 151.5131,131.2106 150.5381,133.0656 C149.3691,135.2896 148.8981,137.7356 150.1881,140.0196 C151.2171,141.8406 154.0251,140.2046 152.9941,138.3796" id="Fill-3010" fill="#000000"></path>
            <path d="M153.5664,133.885 C153.5074,132.387 153.1484,130.935 153.1984,129.424 C153.2994,126.446 154.7154,124.151 156.9414,122.227 C158.5274,120.858 156.2204,118.568 154.6444,119.929 C152.2114,122.031 150.5334,124.636 150.0844,127.856 C149.7934,129.936 150.2364,131.83 150.3164,133.885 C150.3974,135.97 153.6484,135.98 153.5664,133.885" id="Fill-3012" fill="#000000"></path>
            <path d="M156.9419,122.2273 C157.8219,121.4293 158.0239,120.0363 158.4479,119.0613 C159.1369,117.4743 160.3049,116.7303 162.0379,116.6343 C164.1179,116.5193 164.1309,113.2683 162.0379,113.3843 C159.6259,113.5183 157.4699,114.4123 156.1319,116.5033 C155.6619,117.2383 155.3479,118.0703 155.0579,118.8903 C154.9559,119.1783 154.8709,119.4773 154.7499,119.7593 C154.7539,119.7483 154.5469,120.0173 154.6439,119.9293 C153.0919,121.3373 155.3959,123.6303 156.9419,122.2273" id="Fill-3014" fill="#000000"></path>
            <path d="M162.4702,116.5764 C163.6602,116.1914 164.1772,115.1164 164.9632,114.2694 C166.4842,112.6304 168.5552,112.2974 170.7162,112.3444 C172.8082,112.3894 172.8082,109.1394 170.7162,109.0944 C168.2062,109.0394 165.6842,109.4714 163.6702,111.0584 C163.0932,111.5134 162.5992,112.0234 162.1382,112.5944 C161.9352,112.8454 161.7272,113.0724 161.5992,113.2834 C161.3842,113.6384 161.1262,113.5974 161.6062,113.4424 C159.6242,114.0824 160.4712,117.2224 162.4702,116.5764" id="Fill-3016" fill="#000000"></path>
            <path d="M170.7163,112.344 C172.8953,112.239 174.4073,111.182 176.0623,109.863 C178.2653,108.107 180.2743,107.558 183.0743,108.217 C185.1093,108.695 185.9773,105.562 183.9383,105.082 C181.7153,104.56 179.5143,104.4 177.3523,105.261 C175.1123,106.154 173.1463,108.976 170.7163,109.094 C168.6343,109.195 168.6223,112.446 170.7163,112.344" id="Fill-3018" fill="#000000"></path>
            <path d="M183.0747,108.2166 C184.5467,108.4766 185.7647,107.9396 186.8017,106.9006 C187.6157,106.0836 188.1887,105.0496 189.0437,104.2726 C190.5947,102.8626 188.2907,100.5696 186.7447,101.9746 C186.1037,102.5586 185.6257,103.2956 185.0747,103.9606 C184.8097,104.2816 184.5347,104.6286 184.2037,104.8836 C184.0147,105.0296 183.7267,105.0446 183.9387,105.0826 C183.0747,104.9296 182.1877,105.3156 181.9397,106.2176 C181.7237,107.0026 182.2057,108.0626 183.0747,108.2166" id="Fill-3020" fill="#000000"></path>
            <path d="M189.0435,104.2727 C190.6665,102.5167 192.7805,102.9317 194.9595,102.9547 C197.0515,102.9767 197.0535,99.7267 194.9595,99.7047 C191.8605,99.6727 189.0285,99.5027 186.7455,101.9747 C185.3275,103.5087 187.6205,105.8137 189.0435,104.2727" id="Fill-3022" fill="#000000"></path>
            <path d="M194.9595,102.9548 C197.6095,102.8418 199.7065,100.7798 202.1045,99.8678 C204.0405,99.1318 203.2005,95.9888 201.2405,96.7338 C199.8885,97.2478 198.6245,97.8798 197.3805,98.6138 C196.6455,99.0468 195.8425,99.6668 194.9595,99.7048 C192.8765,99.7938 192.8645,103.0448 194.9595,102.9548" id="Fill-3024" fill="#000000"></path>
            <path d="M202.4922,99.7043 C203.6192,99.1663 204.5242,99.1323 205.6372,99.7373 C207.4752,100.7353 209.1172,97.9313 207.2772,96.9303 C205.0952,95.7453 203.0512,95.8473 200.8522,96.8973 C198.9652,97.7993 200.6122,100.6013 202.4922,99.7043" id="Fill-3026" fill="#000000"></path>
            <path d="M155.2251,167.9514 C155.2611,167.9714 155.6411,168.2024 155.4791,168.0844 C155.3401,167.9814 155.5591,168.1384 155.5621,168.1724 C155.5801,168.3414 155.3871,167.9134 155.5151,168.1404 C155.4541,168.0334 155.4111,167.8044 155.4561,168.0494 C155.5301,168.4404 155.6661,168.8094 155.8431,169.1664 C156.2221,169.9294 157.3641,170.2024 158.0661,169.7494 C158.8481,169.2454 159.0551,168.3424 158.6491,167.5254 C158.8681,167.9654 158.6621,167.4774 158.6211,167.3124 C158.5551,167.0444 158.4691,166.7924 158.3401,166.5424 C158.0191,165.9214 157.4721,165.4724 156.8661,165.1454 C156.1181,164.7414 155.0611,164.9344 154.6421,165.7284 C154.2421,166.4854 154.4261,167.5194 155.2251,167.9514" id="Fill-3028" fill="#000000"></path>
            <path d="M155.8433,169.1663 C157.0123,171.8413 159.9113,173.1043 162.6963,172.6903 C163.5653,172.5623 164.0433,171.4643 163.8313,170.6913 C163.5753,169.7613 162.7033,169.4273 161.8323,169.5573 C160.4083,169.7693 159.1843,168.7493 158.6493,167.5253 C158.2983,166.7213 157.1203,166.5373 156.4263,166.9423 C155.5963,167.4283 155.4903,168.3583 155.8433,169.1663" id="Fill-3030" fill="#000000"></path>
            <path d="M162.2642,172.7493 C162.3292,172.7413 162.7702,172.6603 162.8122,172.7243 C162.5622,172.6823 162.5202,172.6803 162.6852,172.7193 C162.4382,172.6023 162.3872,172.5833 162.5302,172.6613 C162.3122,172.4793 162.2622,172.4443 162.3802,172.5583 C162.2112,172.3253 162.1742,172.2773 162.2682,172.4133 C162.3142,172.5103 162.3782,172.6033 162.4302,172.6973 C162.7962,173.3723 163.2432,173.9153 163.9012,174.3273 C164.6222,174.7793 165.7232,174.5033 166.1242,173.7443 C166.5462,172.9443 166.3112,172.0043 165.5412,171.5203 C165.3632,171.4093 165.5102,171.4903 165.5842,171.5713 C165.5422,171.5243 165.4552,171.4243 165.3992,171.3873 C165.2762,171.3053 165.5262,171.6113 165.4782,171.4833 C165.4522,171.4163 165.3952,171.3523 165.3592,171.2883 C165.2362,171.0703 165.1312,170.8493 164.9832,170.6463 C164.3302,169.7563 163.3622,169.3723 162.2642,169.4993 C161.4222,169.5963 160.5972,170.1773 160.6392,171.1243 C160.6752,171.9213 161.3602,172.8533 162.2642,172.7493" id="Fill-3032" fill="#000000"></path>
            <path d="M163.9009,174.3274 C165.4099,175.3164 167.2199,175.8744 169.0309,175.7614 C171.1079,175.6304 171.1229,172.3794 169.0309,172.5114 C167.7349,172.5924 166.6209,172.2284 165.5409,171.5204 C163.7869,170.3714 162.1569,173.1834 163.9009,174.3274" id="Fill-3034" fill="#000000"></path>
            <path d="M169.0308,175.761 C169.2458,175.771 169.2658,175.77 169.0898,175.757 C169.2758,175.816 169.2778,175.813 169.0968,175.748 C169.2308,175.835 169.2508,175.846 169.1558,175.779 C169.0628,175.706 169.0768,175.725 169.1988,175.834 C169.2668,175.904 169.3318,175.976 169.3928,176.051 C169.3148,175.945 169.3098,175.938 169.3798,176.032 C169.5058,176.19 169.6208,176.357 169.7438,176.518 C170.5028,177.515 171.3548,178.318 172.4378,178.968 C174.2358,180.047 175.8708,177.239 174.0778,176.162 C172.1798,175.023 171.5868,172.601 169.0308,172.511 C166.9388,172.437 166.9418,175.687 169.0308,175.761" id="Fill-3036" fill="#000000"></path>
            <path d="M172.4375,178.968 C174.6535,180.139 177.1495,180.35 179.5315,179.556 C181.5055,178.899 180.6595,175.758 178.6675,176.422 C177.1125,176.941 175.5475,176.939 174.0775,176.162 C172.2295,175.186 170.5855,177.989 172.4375,178.968" id="Fill-3038" fill="#000000"></path>
            <path d="M179.5317,179.5559 C180.1847,179.3039 180.8247,179.0019 181.4887,178.7759 C181.5817,178.7439 181.6767,178.7149 181.7717,178.6869 C181.7917,178.6809 182.1887,178.6189 181.9567,178.6389 C181.7167,178.6599 182.0927,178.6479 182.1397,178.6549 C181.8287,178.6099 182.1747,178.6739 182.2897,178.7049 C184.3127,179.2459 185.1757,176.1129 183.1547,175.5719 C181.4997,175.1279 180.1737,175.8399 178.6677,176.4219 C177.8497,176.7389 177.2827,177.5139 177.5327,178.4209 C177.7477,179.2029 178.7087,179.8739 179.5317,179.5559" id="Fill-3040" fill="#000000"></path>
            <path d="M182.29,178.7053 C183.198,178.9443 183.921,179.4373 184.73,179.8933 C185.87,180.5363 187.082,180.9723 188.362,181.2343 C190.404,181.6533 191.277,178.5213 189.227,178.1013 C186.987,177.6413 185.329,176.1443 183.154,175.5713 C181.13,175.0373 180.267,178.1713 182.29,178.7053" id="Fill-3042" fill="#000000"></path>
            <path d="M188.3623,181.2346 C188.9833,181.3856 189.5943,181.4336 190.2283,181.3656 C190.4483,181.3406 190.6663,181.3116 190.8873,181.2996 C191.1513,181.2866 191.0453,181.2476 191.2413,181.3376 C192.0383,181.7046 192.9913,181.5636 193.4653,180.7546 C193.8753,180.0536 193.6833,178.8996 192.8823,178.5316 C192.1833,178.2096 191.5013,178.0056 190.7223,178.0596 C190.2023,178.0956 189.6763,178.2106 189.2263,178.1006 C187.1953,177.6046 186.3283,180.7376 188.3623,181.2346" id="Fill-3044" fill="#000000"></path>
            <path d="M191.6299,181.5012 C191.3819,181.4012 191.8559,181.6272 191.9039,181.6562 C192.0459,181.7422 192.1799,181.8392 192.3129,181.9382 C192.6419,182.1812 192.9669,182.4212 193.3159,182.6362 C194.0399,183.0822 195.1349,182.8162 195.5389,182.0532 C195.9589,181.2592 195.7299,180.3062 194.9559,179.8292 C194.5719,179.5932 194.2189,179.3202 193.8539,179.0582 C193.4329,178.7562 192.9739,178.5592 192.4939,178.3672 C191.7029,178.0512 190.6749,178.7122 190.4949,179.5022 C190.2809,180.4412 190.7829,181.1622 191.6299,181.5012" id="Fill-3046" fill="#000000"></path>
            <path d="M193.3154,182.636 C195.7754,184.297 198.5364,184.82 201.4454,184.352 C203.5054,184.021 202.6304,180.888 200.5814,181.218 C198.5314,181.547 196.6514,180.974 194.9564,179.829 C193.2174,178.656 191.5894,181.47 193.3154,182.636" id="Fill-3048" fill="#000000"></path>
            <path d="M201.0137,184.4094 C201.1927,184.3884 200.8367,184.3124 201.2637,184.4684 C201.1087,184.4114 201.6057,184.6234 201.5897,184.6164 C202.1847,184.8684 202.7567,185.1074 203.3937,185.2314 C205.2317,185.5894 206.9617,185.0574 208.5697,184.1714 C210.4007,183.1604 208.7637,180.3524 206.9287,181.3644 C205.7107,182.0374 204.5897,182.3224 203.2647,181.8194 C202.5447,181.5464 201.8237,181.0584 201.0137,181.1594 C198.9657,181.4144 198.9397,184.6674 201.0137,184.4094" id="Fill-3050" fill="#000000"></path>
            <path d="M208.5693,184.1711 C208.7733,184.0681 208.9773,183.9681 209.1823,183.8671 C209.3563,183.7801 208.9333,183.9251 209.2253,183.8511 C209.3323,183.8231 209.4383,183.7881 209.5433,183.7581 C209.5793,183.7481 209.8583,183.7111 209.6773,183.7291 C209.4603,183.7511 209.8993,183.7301 209.9393,183.7301 C210.2333,183.7301 210.5293,183.7521 210.8193,183.7941 C211.6873,183.9201 212.5653,183.5791 212.8183,182.6591 C213.0283,181.8961 212.5573,180.7871 211.6833,180.6601 C210.7173,180.5211 209.7813,180.3971 208.8133,180.5961 C208.1473,180.7331 207.5323,181.0611 206.9283,181.3641 C206.1453,181.7591 205.9233,182.8641 206.3453,183.5881 C206.8123,184.3851 207.7823,184.5671 208.5693,184.1711" id="Fill-3052" fill="#000000"></path>
            <path d="M210.8198,183.7942 C214.7958,184.4702 219.0498,183.4872 221.3018,179.8922 C222.4158,178.1142 219.6048,176.4812 218.4958,178.2512 C217.0758,180.5192 214.1708,181.0832 211.6838,180.6602 C209.6378,180.3132 208.7588,183.4442 210.8198,183.7942" id="Fill-3054" fill="#000000"></path>
            <path d="M205.6372,99.7371 C206.3052,100.0871 206.8972,100.5391 207.6222,100.7771 C208.4302,101.0421 209.4322,100.4691 209.6212,99.6421 C209.8242,98.7481 209.3512,97.9271 208.4862,97.6431 C208.1472,97.5311 208.7522,97.8251 208.4152,97.6011 C208.3142,97.5341 208.2042,97.4751 208.1002,97.4111 C207.8302,97.2431 207.5592,97.0791 207.2772,96.9301 C206.5252,96.5361 205.4772,96.7141 205.0542,97.5131 C204.6582,98.2621 204.8332,99.3161 205.6372,99.7371" id="Fill-3056" fill="#000000"></path>
            <path d="M207.6221,100.7771 C208.3661,100.9771 209.0741,100.8521 209.8241,100.8351 C210.6731,100.8151 211.4891,100.1011 211.4491,99.2101 C211.4101,98.3461 210.7341,97.5641 209.8241,97.5851 C209.5501,97.5911 209.2781,97.6221 209.0051,97.6411 C208.8751,97.6511 208.7461,97.6501 208.6161,97.6581 C208.2761,97.6811 208.8101,97.7301 208.4861,97.6431 C207.6661,97.4221 206.6831,97.9191 206.4871,98.7781 C206.2921,99.6331 206.7441,100.5401 207.6221,100.7771" id="Fill-3058" fill="#000000"></path>
            <path d="M209.8237,100.8347 C212.0527,100.9097 213.8957,103.4437 215.1447,105.0097 C216.4487,106.6447 218.7357,104.3317 217.4437,102.7117 C215.5327,100.3177 213.1017,97.6947 209.8237,97.5847 C207.7317,97.5147 207.7347,100.7647 209.8237,100.8347" id="Fill-3060" fill="#000000"></path>
            <path d="M216.2939,105.4856 C217.8149,105.4226 218.7539,105.3506 220.1069,106.0546 C221.9609,107.0176 223.6059,104.2146 221.7479,103.2486 C220.9189,102.8176 220.0659,102.4196 219.1369,102.2766 C218.1889,102.1306 217.2489,102.1956 216.2939,102.2356 C214.2109,102.3226 214.1989,105.5736 216.2939,105.4856" id="Fill-3062" fill="#000000"></path>
            <path d="M220.1074,106.0544 C220.1574,106.0834 220.5284,106.3484 220.3974,106.2354 C220.2544,106.1134 220.5694,106.4044 220.6044,106.4384 C220.8284,106.6584 221.0334,106.8954 221.2344,107.1354 C221.5744,107.5414 221.8914,107.9814 222.3004,108.3224 C222.9534,108.8644 223.9674,109.0094 224.5984,108.3224 C225.1494,107.7224 225.2964,106.6044 224.5984,106.0234 C224.1524,105.6534 223.8144,105.1664 223.4404,104.7274 C222.9534,104.1544 222.4034,103.6254 221.7484,103.2484 C221.0104,102.8244 219.9364,103.0524 219.5244,103.8314 C219.1154,104.6054 219.3204,105.6014 220.1074,106.0544" id="Fill-3064" fill="#000000"></path>
            <path d="M222.6289,108.5759 C224.6119,109.4479 226.7919,111.1329 226.8869,113.4849 C226.9709,115.5699 230.2209,115.5799 230.1369,113.4849 C229.9959,109.9859 227.3679,107.1329 224.2699,105.7699 C222.3729,104.9349 220.7169,107.7349 222.6289,108.5759" id="Fill-3066" fill="#000000"></path>
            <path d="M228.0801,115.052 C228.9841,115.385 230.4331,116.716 230.4841,117.923 C230.5721,120.007 233.8231,120.017 233.7341,117.923 C233.6191,115.211 231.4131,112.828 228.9441,111.918 C228.1201,111.615 227.1631,112.258 226.9451,113.053 C226.6961,113.96 227.2531,114.748 228.0801,115.052" id="Fill-3068" fill="#000000"></path>
            <path d="M230.4839,117.9226 C230.5589,118.6726 230.3999,119.4386 230.5609,120.1816 C230.7759,121.1736 231.5029,121.7526 232.4219,122.0716 C233.2259,122.3516 234.2349,121.7546 234.4219,120.9376 C234.6279,120.0316 234.1469,119.2376 233.2869,118.9386 C233.4629,119.0246 233.5009,119.0416 233.4009,118.9906 C233.2879,118.9276 233.3309,118.9676 233.5279,119.1096 C233.3389,118.9356 233.6369,119.3026 233.6789,119.3636 C233.7339,119.5116 233.7439,119.5246 233.7089,119.4026 C233.7199,119.4876 233.7319,119.5736 233.7429,119.6596 C233.7229,119.6496 233.7379,119.3836 233.7379,119.3646 C233.7459,118.8806 233.7819,118.4076 233.7339,117.9226 C233.6499,117.0796 233.0469,116.2556 232.1089,116.2976 C231.3009,116.3346 230.3939,117.0166 230.4839,117.9226" id="Fill-3070" fill="#000000"></path>
            <path d="M232.4224,122.072 C234.5234,122.74 235.7474,124.597 236.1014,126.698 C236.4484,128.756 239.5814,127.884 239.2354,125.834 C238.6904,122.605 236.4074,119.931 233.2864,118.938 C231.2884,118.303 230.4334,121.44 232.4224,122.072" id="Fill-3072" fill="#000000"></path>
            <path d="M236.5195,127.4153 C237.6865,128.7043 238.2945,130.4763 238.0355,132.2153 C237.9055,133.0903 238.2545,133.9513 239.1705,134.2143 C239.9355,134.4343 241.0405,133.9463 241.1695,133.0793 C241.6095,130.1223 240.8375,127.3463 238.8175,125.1173 C237.4095,123.5643 235.1165,125.8683 236.5195,127.4153" id="Fill-3074" fill="#000000"></path>
            <path d="M221.3022,179.8918 C221.4212,179.6988 221.5212,179.4988 221.6132,179.2918 C221.7042,179.0878 221.7892,178.8778 221.8742,178.6698 C221.8922,178.6238 222.0402,178.3048 221.9322,178.5218 C221.8142,178.7588 222.2142,178.0428 222.0842,178.2338 C221.9582,178.4178 222.1882,178.1328 222.2242,178.0988 C222.0242,178.2928 222.3432,178.0268 222.4112,177.9868 C223.1432,177.5538 223.4712,176.5028 222.9942,175.7628 C222.5192,175.0268 221.5542,174.7168 220.7712,175.1798 C220.1072,175.5728 219.5322,176.1088 219.1722,176.7978 C219.0132,177.1028 218.8922,177.4298 218.7632,177.7478 C218.6282,178.0798 218.7922,177.7168 218.7262,177.8298 C218.6462,177.9688 218.5802,178.1148 218.4962,178.2508 C218.0512,178.9768 218.3142,180.0708 219.0792,180.4748 C219.8712,180.8938 220.8272,180.6658 221.3022,179.8918" id="Fill-3076" fill="#000000"></path>
            <path d="M222.4116,177.9866 C224.8276,176.8386 226.6556,174.8666 227.3516,172.2576 C227.8916,170.2336 224.7576,169.3706 224.2186,171.3926 C223.7256,173.2386 222.4566,174.3796 220.7706,175.1796 C219.9786,175.5566 219.7716,176.6916 220.1876,177.4036 C220.6626,178.2146 221.6156,178.3646 222.4116,177.9866" id="Fill-3078" fill="#000000"></path>
            <path d="M227.3521,172.2571 C227.9541,170.6741 227.8241,169.6321 229.5921,169.0051 C230.4191,168.7121 230.9721,167.8961 230.7271,167.0061 C230.5071,166.2051 229.5591,165.5761 228.7281,165.8711 C227.3271,166.3681 226.0331,167.1171 225.2751,168.4451 C224.7491,169.3671 224.5901,170.4131 224.2181,171.3931 C223.9061,172.2131 224.5641,173.1751 225.3531,173.3921 C226.2671,173.6431 227.0391,173.0801 227.3521,172.2571" id="Fill-3080" fill="#000000"></path>
            <path d="M229.5918,169.0051 C232.6888,167.9841 235.2078,166.1031 236.8208,163.2381 C237.8498,161.4141 235.0428,159.7741 234.0148,161.5981 C232.8188,163.7221 231.0348,165.1101 228.7278,165.8711 C226.7508,166.5231 227.5978,169.6631 229.5918,169.0051" id="Fill-3082" fill="#000000"></path>
            <path d="M236.2383,163.8215 C239.0003,161.8075 240.3893,158.6235 240.0723,155.2165 C239.8813,153.1515 236.6293,153.1315 236.8223,155.2165 C237.0253,157.3965 236.4473,159.6665 234.5983,161.0155 C232.9253,162.2355 234.5453,165.0565 236.2383,163.8215" id="Fill-3084" fill="#000000"></path>
            <path d="M240.0728,155.2161 C240.0558,155.1111 240.0508,155.0051 240.0548,154.8991 C240.0488,154.9421 240.0438,154.9851 240.0378,155.0271 C240.0958,154.8461 240.0938,154.8331 240.0298,154.9871 C240.0638,154.9181 240.1018,154.8511 240.1438,154.7871 C240.2058,154.6941 240.1978,154.6991 240.1168,154.8011 C240.1668,154.7401 240.2188,154.6821 240.2738,154.6261 C240.3978,154.4941 240.5318,154.3741 240.6698,154.2571 C241.3178,153.7021 241.2808,152.5201 240.6698,151.9581 C239.9788,151.3241 239.0628,151.3671 238.3708,151.9581 C237.4378,152.7561 236.6878,153.9421 236.8228,155.2161 C236.9118,156.0591 237.5068,156.8831 238.4478,156.8411 C239.2518,156.8051 240.1688,156.1211 240.0728,155.2161" id="Fill-3086" fill="#000000"></path>
            <path d="M240.6694,154.2566 C241.5904,153.3146 242.2324,152.2696 242.4234,150.9536 C242.6034,149.7216 242.5584,148.7116 243.2334,147.6086 C244.3284,145.8196 241.5184,144.1856 240.4274,145.9686 C239.7674,147.0456 239.4334,148.1516 239.3154,149.4026 C239.2154,150.4776 239.1724,151.1396 238.3714,151.9586 C236.9074,153.4546 239.2034,155.7556 240.6694,154.2566" id="Fill-3088" fill="#000000"></path>
            <path d="M243.2334,147.6086 C244.9574,144.8586 245.7484,141.3606 244.2954,138.3376 C243.3894,136.4526 240.5864,138.0996 241.4884,139.9776 C242.4064,141.8856 241.4634,144.3156 240.4274,145.9686 C239.3134,147.7456 242.1244,149.3786 243.2334,147.6086" id="Fill-3090" fill="#000000"></path>
            <path d="M244.459,138.7253 C243.895,137.2423 243.156,135.9823 242.12,134.7813 C241.461,134.0173 241.092,133.6973 241.228,132.6473 C241.341,131.7693 240.399,131.0313 239.603,131.0223 C238.632,131.0123 238.09,131.7803 237.978,132.6473 C237.598,135.5913 240.372,137.0833 241.325,139.5893 C242.062,141.5243 245.205,140.6853 244.459,138.7253" id="Fill-3092" fill="#000000"></path>
            <path d="M198.1899,182.4124 C197.3179,183.9964 196.4469,185.5794 195.5759,187.1634 C194.5669,188.9974 197.3719,190.6394 198.3819,188.8044 C199.2529,187.2204 200.1249,185.6364 200.9959,184.0534 C202.0049,182.2194 199.1999,180.5774 198.1899,182.4124" id="Fill-3094" fill="#000000"></path>
            <path d="M195.5757,187.1633 C194.1187,190.5063 193.8627,193.8953 193.8497,197.5143 C193.8427,199.6043 197.0927,199.6073 197.0997,197.5143 C197.1107,194.5403 197.1767,191.5703 198.3817,188.8043 C199.2087,186.9053 196.4097,185.2483 195.5757,187.1633" id="Fill-3096" fill="#000000"></path>
            <path d="M193.8496,197.5139 C193.8636,205.4369 194.0526,213.3559 194.2776,221.2759 C194.3376,223.3629 197.5876,223.3709 197.5276,221.2759 C197.3026,213.3559 197.1136,205.4369 197.0996,197.5139 C197.0966,195.4219 193.8466,195.4179 193.8496,197.5139" id="Fill-3098" fill="#000000"></path>
            <path d="M181.2021,178.4592 C183.1281,180.8362 184.5901,183.6652 186.1821,186.2692 C187.2721,188.0502 190.0841,186.4192 188.9891,184.6282 C187.2431,181.7732 185.6121,178.7682 183.5001,176.1602 C182.1831,174.5352 179.8961,176.8472 181.2021,178.4592" id="Fill-3100" fill="#000000"></path>
            <path d="M186.1826,186.2688 C188.1936,189.8748 189.4486,192.9568 189.6056,197.1548 C189.6836,199.2398 192.9346,199.2488 192.8556,197.1548 C192.6776,192.3928 191.2796,188.7368 188.9886,184.6278 C187.9706,182.8008 185.1616,184.4388 186.1826,186.2688" id="Fill-3102" fill="#000000"></path>
            <path d="M189.606,197.1545 C189.744,205.4305 189.419,213.6975 189.432,221.9715 C189.435,224.0625 192.685,224.0665 192.682,221.9715 C192.669,213.6975 192.994,205.4305 192.856,197.1545 C192.821,195.0645 189.571,195.0585 189.606,197.1545" id="Fill-3104" fill="#000000"></path>
            <path d="M194.4092,181.5598 C194.0232,182.1708 193.7532,182.8458 193.3952,183.4728 C193.3142,183.6148 193.2242,183.7488 193.1392,183.8878 C193.0312,184.0398 193.0372,184.0348 193.1582,183.8708 C193.1052,183.9318 193.0502,183.9908 192.9912,184.0458 C193.1752,183.9178 193.1962,183.9018 193.0532,183.9968 C193.2842,183.9148 193.3162,183.9018 193.1502,183.9538 C193.4052,183.9158 193.7542,184.0338 193.3522,183.8808 C192.5312,183.5718 191.5702,184.2258 191.3532,185.0168 C191.1022,185.9288 191.6632,186.7048 192.4882,187.0158 C193.8292,187.5218 195.0612,186.7498 195.8292,185.6898 C196.3902,184.9148 196.7072,184.0048 197.2152,183.2008 C197.6842,182.4578 197.3712,181.4098 196.6322,180.9768 C195.8512,180.5198 194.8792,180.8158 194.4092,181.5598" id="Fill-3106" fill="#000000"></path>
            <path d="M193.3521,183.8811 C192.3691,183.4761 191.5701,182.3191 190.9611,181.5021 C190.2411,180.5371 189.6051,179.5121 188.9091,178.5301 C187.7091,176.8381 184.8901,178.4591 186.1031,180.1701 C187.8961,182.6981 189.4821,185.7741 192.4881,187.0161 C193.3061,187.3531 194.2661,186.6501 194.4871,185.8801 C194.7541,184.9501 194.1591,184.2151 193.3521,183.8811" id="Fill-3108" fill="#000000"></path>
            <path d="M197.4697,192.2112 C197.9067,190.3802 198.6347,189.0812 200.0267,187.8242 C201.3297,186.6472 202.5217,185.5082 203.5517,184.0712 C204.7717,182.3682 201.9547,180.7442 200.7447,182.4312 C199.6667,183.9352 198.1937,184.9622 196.9317,186.2842 C195.5627,187.7182 194.7927,189.4332 194.3357,191.3472 C193.8507,193.3802 196.9837,194.2482 197.4697,192.2112" id="Fill-3110" fill="#000000"></path>
            <path d="M189.4316,221.9719 C189.4226,230.0409 189.1106,238.0939 189.2316,246.1669 C189.2626,248.2569 192.5126,248.2629 192.4816,246.1669 C192.3606,238.0939 192.6726,230.0409 192.6816,221.9719 C192.6836,219.8799 189.4336,219.8769 189.4316,221.9719" id="Fill-3112" fill="#000000"></path>
            <path d="M194.2778,221.2756 C194.5708,229.5676 194.8408,237.8696 194.8658,246.1676 C194.8718,248.2576 198.1218,248.2626 198.1158,246.1676 C198.0908,237.8696 197.8208,229.5676 197.5278,221.2756 C197.4538,219.1896 194.2038,219.1796 194.2778,221.2756" id="Fill-3114" fill="#000000"></path>
            <path d="M194.0469,246.5081 C193.8879,246.5061 193.7299,246.5031 193.5709,246.4911 C193.5099,246.4871 193.1599,246.4371 193.3639,246.4731 C193.2199,246.4471 193.0799,246.4091 192.9389,246.3741 C192.8929,246.3621 192.5539,246.2401 192.7859,246.3411 C192.6919,246.3001 192.6049,246.2441 192.5139,246.1961 C192.2019,246.0251 192.5439,246.2721 192.4469,246.1321 C192.3509,245.9921 192.5189,246.3341 192.4189,246.0641 C192.4559,246.1651 192.4959,246.5181 192.4819,246.1671 C192.4439,245.2901 191.7609,244.5421 190.8569,244.5421 C190.0049,244.5421 189.1939,245.2861 189.2319,246.1671 C189.3409,248.7621 191.7779,249.7291 194.0469,249.7581 C196.1389,249.7861 196.1399,246.5361 194.0469,246.5081" id="Fill-3116" fill="#000000"></path>
            <path d="M194.8657,246.1672 C194.8587,246.4342 194.8607,246.3312 194.8817,246.1262 C194.8477,246.4482 194.7527,246.1612 194.9197,246.1152 C194.9117,246.1172 194.7827,246.3912 194.7687,246.3802 C194.7877,246.3952 194.9837,246.0772 194.7447,246.3702 L194.9017,246.2562 C194.8397,246.3022 194.7747,246.3442 194.7067,246.3822 C194.4657,246.5602 194.9737,246.3402 194.6377,246.4182 C194.5277,246.4432 194.4137,246.4722 194.3047,246.5032 C194.1897,246.5232 194.2117,246.5212 194.3687,246.4952 C194.2617,246.5042 194.1547,246.5082 194.0467,246.5082 C193.1977,246.5252 192.3817,247.2432 192.4217,248.1332 C192.4607,248.9992 193.1367,249.7762 194.0467,249.7582 C196.1557,249.7172 198.0557,248.4152 198.1157,246.1672 C198.1377,245.3172 197.3517,244.5042 196.4907,244.5422 C195.5907,244.5832 194.8897,245.2562 194.8657,246.1672" id="Fill-3118" fill="#000000"></path>
            <path d="M245.5654,236.886 C229.0844,239.572 212.6094,242.37 196.0584,244.601 C193.9954,244.878 194.8744,248.011 196.9224,247.735 C213.4744,245.505 229.9474,242.705 246.4294,240.021 C248.4884,239.685 247.6144,236.553 245.5654,236.886" id="Fill-3120" fill="#000000"></path>
            <path d="M244.6577,237.0344 C227.6807,239.7914 210.9077,243.5504 193.9857,246.5814 C191.9297,246.9494 192.8007,250.0824 194.8487,249.7154 C211.7717,246.6834 228.5447,242.9254 245.5217,240.1684 C247.5807,239.8344 246.7067,236.7014 244.6577,237.0344" id="Fill-3122" fill="#000000"></path>
        </g>
    </g>
</svg>