<?xml version="1.0" encoding="UTF-8" standalone="no"?>
<svg width="21px" height="310px" viewBox="0 0 21 310" version="1.1" xmlns="http://www.w3.org/2000/svg" xmlns:xlink="http://www.w3.org/1999/xlink">
    <!-- Generator: Sketch 47.1 (45422) - http://www.bohemiancoding.com/sketch -->
    <title>rope-middle</title>
    <desc>Created with Sketch.</desc>
    <defs></defs>
    <g id="Page-1" stroke="none" stroke-width="1" fill="none" fill-rule="evenodd">
        <g id="rope-middle">
            <path d="M17.5518,241.5984 L17.5518,68.0984 C17.5518,65.9764 16.7148,64.3984 15.4708,63.3524 C16.7168,62.3044 17.5518,60.7214 17.5518,58.5984 L17.5518,0.9644 L2.5518,0.9644 L2.5518,58.5984 C2.5518,61.3614 3.9668,63.2064 5.8598,64.1484 C5.2808,64.8714 4.8578,65.7584 4.6688,66.8164 C3.4048,67.8644 2.5518,69.4554 2.5518,71.5984 L2.5518,250.0984 C2.5518,252.4524 3.5768,254.1454 5.0518,255.1774 L5.0518,258.0194 C3.5768,259.0514 2.5518,260.7444 2.5518,263.0984 L2.5518,308.8844 L18.0518,308.8844 L18.0518,249.5984 C18.0518,247.7584 17.4198,246.3274 16.4428,245.2954 C17.1288,244.3314 17.5518,243.1014 17.5518,241.5984" id="Fill-8931" fill="#FFDC00"></path>
            <path d="M17.5518,241.5984 L17.5518,68.0984 C17.5518,65.9764 16.7148,64.3984 15.4708,63.3524 C16.7168,62.3044 17.5518,60.7214 17.5518,58.5984 L17.5518,0.9644 L2.5518,0.9644 L2.5518,58.5984 C2.5518,61.3614 3.9668,63.2064 5.8598,64.1484 C5.2808,64.8714 4.8578,65.7584 4.6688,66.8164 C3.4048,67.8644 2.5518,69.4554 2.5518,71.5984 L2.5518,250.0984 C2.5518,252.4524 3.5768,254.1454 5.0518,255.1774 L5.0518,258.0194 C3.5768,259.0514 2.5518,260.7444 2.5518,263.0984 L2.5518,308.8844 L18.0518,308.8844 L18.0518,249.5984 C18.0518,247.7584 17.4198,246.3274 16.4428,245.2954 C17.1288,244.3314 17.5518,243.1014 17.5518,241.5984 Z" id="Stroke-8933" stroke="#000000" stroke-width="0.65"></path>
            <path d="M15.6133,203.5378 C20.3613,211.3708 14.6143,217.3368 9.1083,222.4438 C7.5713,223.8688 9.8743,226.1628 11.4063,224.7418 C18.0973,218.5358 24.0193,211.1378 18.4193,201.8978 C17.3373,200.1118 14.5253,201.7428 15.6133,203.5378" id="Fill-8935" fill="#000000"></path>
            <path d="M5.1357,228.6389 C0.6647,220.6689 6.3327,215.2829 11.7947,210.2479 C13.3367,208.8269 11.0337,206.5339 9.4967,207.9499 C6.3157,210.8829 2.7007,213.5589 1.0867,217.7509 C-0.4803,221.8199 0.2387,226.5509 2.3297,230.2789 C3.3537,232.1029 6.1607,230.4669 5.1357,228.6389" id="Fill-8937" fill="#000000"></path>
            <path d="M15.8691,190.0066 C20.2361,197.9516 14.6121,203.3016 9.1631,208.3236 C7.6221,209.7446 9.9251,212.0376 11.4621,210.6216 C14.6421,207.6906 18.2541,205.0156 19.8691,200.8266 C21.4311,196.7796 20.7231,192.0916 18.6761,188.3656 C17.6681,186.5326 14.8601,188.1706 15.8691,190.0066" id="Fill-8939" fill="#000000"></path>
            <path d="M4.9316,214.3713 C0.9866,206.4683 6.4806,201.3563 11.8496,196.4083 C13.3906,194.9883 11.0876,192.6943 9.5506,194.1103 C6.3776,197.0353 2.7806,199.7013 1.1556,203.8733 C-0.3804,207.8143 0.2786,212.3113 2.1246,216.0113 C3.0596,217.8833 5.8636,216.2393 4.9316,214.3713" id="Fill-8941" fill="#000000"></path>
            <path d="M15.5508,175.7048 C20.2988,183.5378 14.5528,189.5038 9.0468,194.6098 C7.5098,196.0358 9.8128,198.3298 11.3448,196.9078 C18.0358,190.7028 23.9578,183.3048 18.3578,174.0638 C17.2748,172.2778 14.4628,173.9098 15.5508,175.7048" id="Fill-8943" fill="#000000"></path>
            <path d="M5.0742,200.8054 C0.6032,192.8354 6.2702,187.4494 11.7332,182.4144 C13.2742,180.9934 10.9712,178.7004 9.4352,180.1164 C6.2532,183.0494 2.6382,185.7254 1.0242,189.9174 C-0.5418,193.9864 0.1772,198.7174 2.2672,202.4454 C3.2912,204.2704 6.0992,202.6334 5.0742,200.8054" id="Fill-8945" fill="#000000"></path>
            <path d="M15.8076,162.1731 C20.1736,170.1181 14.5506,175.4681 9.1016,180.4901 C7.5606,181.9111 9.8636,184.2051 11.3996,182.7881 C14.5796,179.8571 18.1916,177.1821 19.8076,172.9941 C21.3696,168.9461 20.6616,164.2581 18.6136,160.5331 C17.6066,158.6991 14.7986,160.3371 15.8076,162.1731" id="Fill-8947" fill="#000000"></path>
            <path d="M4.8691,186.5378 C0.9241,178.6348 6.4191,173.5228 11.7871,168.5748 C13.3281,167.1548 11.0251,164.8608 9.4891,166.2768 C6.3151,169.2018 2.7181,171.8688 1.0931,176.0398 C-0.4419,179.9808 0.2161,184.4778 2.0631,188.1788 C2.9971,190.0498 5.8021,188.4058 4.8691,186.5378" id="Fill-8949" fill="#000000"></path>
            <path d="M15.6592,147.8196 C20.4072,155.6526 14.6612,161.6186 9.1552,166.7246 C7.6182,168.1506 9.9212,170.4446 11.4532,169.0236 C18.1442,162.8176 24.0662,155.4196 18.4662,146.1796 C17.3832,144.3926 14.5712,146.0246 15.6592,147.8196" id="Fill-8951" fill="#000000"></path>
            <path d="M5.1826,172.9202 C0.7116,164.9502 6.3786,159.5642 11.8416,154.5292 C13.3826,153.1082 11.0796,150.8152 9.5436,152.2312 C6.3616,155.1642 2.7466,157.8402 1.1326,162.0332 C-0.4334,166.1012 0.2856,170.8322 2.3766,174.5612 C3.3996,176.3852 6.2076,174.7482 5.1826,172.9202" id="Fill-8953" fill="#000000"></path>
            <path d="M15.916,134.2878 C20.282,142.2328 14.659,147.5828 9.21,152.6048 C7.669,154.0258 9.972,156.3198 11.508,154.9038 C14.688,151.9718 18.3,149.2968 19.916,145.1088 C21.478,141.0608 20.77,136.3728 18.723,132.6478 C17.715,130.8138 14.907,132.4528 15.916,134.2878" id="Fill-8955" fill="#000000"></path>
            <path d="M4.9775,158.6531 C1.0335,150.7491 6.5275,145.6381 11.8955,140.6901 C13.4375,139.2691 11.1335,136.9761 9.5975,138.3921 C6.4235,141.3171 2.8275,143.9831 1.2025,148.1551 C-0.3335,152.0961 0.3255,156.5931 2.1715,160.2931 C3.1055,162.1651 5.9105,160.5211 4.9775,158.6531" id="Fill-8957" fill="#000000"></path>
            <path d="M15.7686,119.7693 C20.5166,127.6023 14.7706,133.5683 9.2646,138.6743 C7.7276,140.1003 10.0306,142.3943 11.5626,140.9733 C18.2536,134.7673 24.1756,127.3693 18.5756,118.1283 C17.4926,116.3423 14.6806,117.9743 15.7686,119.7693" id="Fill-8959" fill="#000000"></path>
            <path d="M5.292,144.8699 C0.821,136.8999 6.488,131.5139 11.951,126.4789 C13.492,125.0579 11.189,122.7649 9.653,124.1809 C6.471,127.1139 2.856,129.7899 1.242,133.9819 C-0.324,138.0509 0.395,142.7819 2.485,146.5109 C3.509,148.3349 6.317,146.6979 5.292,144.8699" id="Fill-8961" fill="#000000"></path>
            <path d="M16.0254,106.2375 C20.3914,114.1825 14.7684,119.5325 9.3194,124.5545 C7.7784,125.9755 10.0814,128.2695 11.6174,126.8525 C14.7974,123.9215 18.4094,121.2465 20.0254,117.0585 C21.5874,113.0105 20.8794,108.3225 18.8324,104.5975 C17.8244,102.7635 15.0164,104.4015 16.0254,106.2375" id="Fill-8963" fill="#000000"></path>
            <path d="M5.0869,130.6023 C1.1419,122.6993 6.6369,117.5873 12.0049,112.6393 C13.5459,111.2193 11.2429,108.9253 9.7069,110.3413 C6.5329,113.2663 2.9359,115.9333 1.3119,120.1043 C-0.2241,124.0453 0.4349,128.5423 2.2809,132.2433 C3.2149,134.1143 6.0199,132.4703 5.0869,130.6023" id="Fill-8965" fill="#000000"></path>
            <path d="M15.6787,301.7322 C16.8867,303.7842 17.3637,305.9642 17.2297,308.3342 C17.1117,310.4232 20.3617,310.4172 20.4797,308.3342 C20.6437,305.4222 19.9637,302.6042 18.4857,300.0912 C17.4247,298.2912 14.6147,299.9242 15.6787,301.7322" id="Fill-8967" fill="#000000"></path>
            <path d="M15.3604,287.4304 C20.1084,295.2634 14.3614,301.2294 8.8554,306.3354 C7.3194,307.7614 9.6214,310.0554 11.1544,308.6344 C17.8454,302.4284 23.7674,295.0304 18.1674,285.7894 C17.0844,284.0034 14.2724,285.6354 15.3604,287.4304" id="Fill-8969" fill="#000000"></path>
            <path d="M3.3701,308.2366 C2.7981,301.8416 7.2681,298.1246 11.5431,294.1396 C13.0761,292.7106 10.7731,290.4166 9.2441,291.8416 C4.3171,296.4356 -0.5329,300.9366 0.1201,308.2366 C0.3061,310.3026 3.5571,310.3226 3.3701,308.2366" id="Fill-8971" fill="#000000"></path>
            <path d="M15.6172,273.8987 C19.9832,281.8437 14.3602,287.1937 8.9112,292.2157 C7.3692,293.6367 9.6732,295.9307 11.2092,294.5137 C14.3892,291.5827 18.0012,288.9077 19.6172,284.7197 C21.1792,280.6717 20.4712,275.9837 18.4232,272.2587 C17.4152,270.4247 14.6072,272.0627 15.6172,273.8987" id="Fill-8973" fill="#000000"></path>
            <path d="M4.6787,298.2634 C0.7337,290.3604 6.2287,285.2484 11.5967,280.3004 C13.1377,278.8804 10.8347,276.5864 9.2987,278.0024 C6.1247,280.9274 2.5277,283.5944 0.9027,287.7654 C-0.6323,291.7064 0.0257,296.2034 1.8717,299.9044 C2.8067,301.7754 5.6117,300.1314 4.6787,298.2634" id="Fill-8975" fill="#000000"></path>
            <path d="M15.4688,259.5452 C20.2168,267.3782 14.4698,273.3442 8.9648,278.4502 C7.4278,279.8762 9.7298,282.1702 11.2628,280.7492 C17.9538,274.5432 23.8758,267.1452 18.2758,257.9052 C17.1928,256.1182 14.3808,257.7502 15.4688,259.5452" id="Fill-8977" fill="#000000"></path>
            <path d="M4.9922,284.6458 C0.5212,276.6758 6.1882,271.2898 11.6512,266.2548 C13.1922,264.8338 10.8892,262.5408 9.3532,263.9568 C6.1712,266.8898 2.5562,269.5658 0.9422,273.7588 C-0.6238,277.8278 0.0952,282.5578 2.1852,286.2868 C3.2092,288.1108 6.0172,286.4738 4.9922,284.6458" id="Fill-8979" fill="#000000"></path>
            <path d="M15.7256,246.0134 C20.0916,253.9584 14.4686,259.3084 9.0196,264.3304 C7.4786,265.7514 9.7816,268.0454 11.3176,266.6294 C14.4976,263.6974 18.1096,261.0224 19.7256,256.8344 C21.2876,252.7864 20.5796,248.0984 18.5316,244.3734 C17.5246,242.5394 14.7166,244.1784 15.7256,246.0134" id="Fill-8981" fill="#000000"></path>
            <path d="M4.7871,270.3787 C0.8421,262.4757 6.3371,257.3637 11.7051,252.4157 C13.2461,250.9947 10.9431,248.7017 9.4071,250.1177 C6.2331,253.0427 2.6361,255.7087 1.0111,259.8807 C-0.5239,263.8217 0.1341,268.3187 1.9811,272.0187 C2.9151,273.8907 5.7201,272.2467 4.7871,270.3787" id="Fill-8983" fill="#000000"></path>
            <path d="M15.5781,231.4949 C20.3261,239.3279 14.5791,245.2939 9.0741,250.3999 C7.5371,251.8259 9.8391,254.1199 11.3721,252.6989 C18.0631,246.4929 23.9851,239.0949 18.3851,229.8539 C17.3021,228.0679 14.4901,229.6999 15.5781,231.4949" id="Fill-8985" fill="#000000"></path>
            <path d="M5.1016,256.5955 C0.6306,248.6255 6.2976,243.2395 11.7606,238.2045 C13.3016,236.7835 10.9986,234.4905 9.4616,235.9065 C6.2806,238.8395 2.6656,241.5155 1.0516,245.7075 C-0.5144,249.7765 0.2046,254.5075 2.2946,258.2365 C3.3186,260.0605 6.1266,258.4235 5.1016,256.5955" id="Fill-8987" fill="#000000"></path>
            <path d="M15.835,217.9631 C20.201,225.9081 14.578,231.2581 9.129,236.2801 C7.588,237.7011 9.891,239.9951 11.427,238.5781 C14.607,235.6471 18.219,232.9721 19.835,228.7841 C21.397,224.7361 20.689,220.0481 18.641,216.3231 C17.633,214.4891 14.825,216.1271 15.835,217.9631" id="Fill-8989" fill="#000000"></path>
            <path d="M4.8965,242.3279 C0.9515,234.4249 6.4465,229.3129 11.8145,224.3649 C13.3555,222.9449 11.0525,220.6509 9.5165,222.0669 C6.3425,224.9919 2.7455,227.6589 1.1205,231.8299 C-0.4145,235.7709 0.2435,240.2679 2.0895,243.9689 C3.0245,245.8399 5.8295,244.1959 4.8965,242.3279" id="Fill-8991" fill="#000000"></path>
            <path d="M15.6563,8.4729 C20.4033,16.3059 14.6573,22.2719 9.1513,27.3779 C7.6143,28.8039 9.9173,31.0979 11.4493,29.6769 C18.1403,23.4709 24.0623,16.0729 18.4623,6.8319 C17.3803,5.0459 14.5683,6.6779 15.6563,8.4729" id="Fill-8993" fill="#000000"></path>
            <path d="M5.1787,33.5735 C0.7077,25.6035 6.3747,20.2175 11.8377,15.1825 C13.3787,13.7615 11.0757,11.4685 9.5397,12.8845 C6.3577,15.8175 2.7427,18.4935 1.1297,22.6855 C-0.4373,26.7545 0.2817,31.4855 2.3727,35.2135 C3.3967,37.0385 6.2037,35.4015 5.1787,33.5735" id="Fill-8995" fill="#000000"></path>
            <path d="M17.4414,2.1873 C16.8744,7.0893 12.5644,10.1453 9.2064,13.2583 C7.6694,14.6833 9.9714,16.9773 11.5044,15.5563 C15.6844,11.6823 19.9954,8.1973 20.6914,2.1873 C20.9314,0.1133 17.6794,0.1303 17.4414,2.1873" id="Fill-8997" fill="#000000"></path>
            <path d="M4.9746,19.3059 C1.7806,13.0199 5.0366,7.5229 9.7996,3.2339 C11.3586,1.8319 9.0536,-0.4611 7.5016,0.9359 C1.5516,6.2929 -1.6924,13.3489 2.1676,20.9469 C3.1156,22.8109 5.9206,21.1679 4.9746,19.3059" id="Fill-8999" fill="#000000"></path>
            <path d="M5.1172,5.74 C4.3142,4.427 3.8712,3.03 3.6172,1.516 C3.4712,0.651 2.4022,0.166 1.6182,0.382 C0.7002,0.634 0.3372,1.512 0.4832,2.381 C0.7802,4.147 1.3752,5.849 2.3102,7.381 C3.3992,9.162 6.2122,7.532 5.1172,5.74" id="Fill-9001" fill="#000000"></path>
            <path d="M15.4033,92.365 C20.1513,100.198 14.4043,106.164 8.8983,111.27 C7.3623,112.696 9.6643,114.99 11.1973,113.569 C17.8883,107.363 23.8103,99.965 18.2103,90.725 C17.1273,88.938 14.3153,90.57 15.4033,92.365" id="Fill-9003" fill="#000000"></path>
            <path d="M4.9268,117.4656 C0.4558,109.4956 6.1228,104.1096 11.5848,99.0746 C13.1268,97.6536 10.8238,95.3606 9.2868,96.7766 C6.1058,99.7096 2.4908,102.3856 0.8768,106.5786 C-0.6902,110.6476 0.0288,115.3776 2.1198,119.1066 C3.1438,120.9306 5.9518,119.2936 4.9268,117.4656" id="Fill-9005" fill="#000000"></path>
            <path d="M15.6592,78.8333 C20.0262,86.7783 14.4022,92.1283 8.9542,97.1503 C7.4122,98.5713 9.7152,100.8653 11.2522,99.4493 C14.4322,96.5173 18.0442,93.8423 19.6602,89.6543 C21.2212,85.6063 20.5132,80.9183 18.4662,77.1933 C17.4582,75.3593 14.6502,76.9983 15.6592,78.8333" id="Fill-9007" fill="#000000"></path>
            <path d="M4.7217,103.1985 C0.7767,95.2955 6.2717,90.1835 11.6397,85.2355 C13.1807,83.8145 10.8777,81.5215 9.3407,82.9375 C6.1677,85.8625 2.5707,88.5285 0.9457,92.7005 C-0.5903,96.6415 0.0687,101.1385 1.9147,104.8385 C2.8497,106.7105 5.6547,105.0665 4.7217,103.1985" id="Fill-9009" fill="#000000"></path>
            <path d="M15.5117,64.4797 C20.2597,72.3127 14.5127,78.2787 9.0077,83.3857 C7.4707,84.8107 9.7727,87.1047 11.3057,85.6837 C17.9967,79.4777 23.9187,72.0797 18.3187,62.8397 C17.2357,61.0537 14.4237,62.6847 15.5117,64.4797" id="Fill-9011" fill="#000000"></path>
            <path d="M5.0352,89.5808 C0.5642,81.6108 6.2312,76.2248 11.6942,71.1898 C13.2352,69.7688 10.9322,67.4758 9.3952,68.8918 C6.2142,71.8248 2.5992,74.5008 0.9852,78.6928 C-0.5808,82.7618 0.1382,87.4928 2.2282,91.2208 C3.2522,93.0448 6.0602,91.4088 5.0352,89.5808" id="Fill-9013" fill="#000000"></path>
            <path d="M15.7686,50.9485 C20.1346,58.8935 14.5116,64.2435 9.0626,69.2655 C7.5216,70.6865 9.8246,72.9805 11.3606,71.5635 C14.5406,68.6325 18.1526,65.9575 19.7686,61.7685 C21.3306,57.7215 20.6226,53.0335 18.5746,49.3075 C17.5666,47.4745 14.7596,49.1125 15.7686,50.9485" id="Fill-9015" fill="#000000"></path>
            <path d="M4.8301,75.3132 C0.8851,67.4102 6.3801,62.2982 11.7481,57.3502 C13.2891,55.9302 10.9861,53.6362 9.4501,55.0522 C6.2761,57.9772 2.6791,60.6432 1.0541,64.8152 C-0.4809,68.7562 0.1771,73.2532 2.0231,76.9532 C2.9581,78.8252 5.7631,77.1812 4.8301,75.3132" id="Fill-9017" fill="#000000"></path>
            <path d="M15.6211,36.4294 C20.3691,44.2624 14.6221,50.2284 9.1161,55.3344 C7.5801,56.7604 9.8821,59.0544 11.4151,57.6334 C18.1061,51.4274 24.0281,44.0294 18.4281,34.7894 C17.3451,33.0024 14.5331,34.6344 15.6211,36.4294" id="Fill-9019" fill="#000000"></path>
            <path d="M5.1445,61.53 C0.6735,53.56 6.3405,48.174 11.8035,43.139 C13.3445,41.718 11.0415,39.425 9.5045,40.841 C6.3235,43.774 2.7085,46.45 1.0945,50.643 C-0.4715,54.712 0.2465,59.442 2.3375,63.171 C3.3615,64.995 6.1695,63.358 5.1445,61.53" id="Fill-9021" fill="#000000"></path>
            <path d="M15.8779,22.8982 C20.2439,30.8422 14.6209,36.1922 9.1719,41.2152 C7.6299,42.6362 9.9329,44.9292 11.4699,43.5132 C14.6499,40.5822 18.2619,37.9072 19.8779,33.7182 C21.4399,29.6712 20.7319,24.9832 18.6839,21.2572 C17.6759,19.4242 14.8679,21.0622 15.8779,22.8982" id="Fill-9023" fill="#000000"></path>
            <path d="M4.9395,47.2629 C0.9945,39.3599 6.4895,34.2479 11.8575,29.2999 C13.3985,27.8789 11.0955,25.5859 9.5595,27.0019 C6.3855,29.9269 2.7885,32.5929 1.1635,36.7649 C-0.3715,40.7059 0.2865,45.2029 2.1325,48.9029 C3.0675,50.7749 5.8725,49.1309 4.9395,47.2629" id="Fill-9025" fill="#000000"></path>
        </g>
    </g>
</svg>