<?xml version="1.0" encoding="UTF-8" standalone="no"?>
<svg width="57px" height="267px" viewBox="0 0 57 267" version="1.1" xmlns="http://www.w3.org/2000/svg" xmlns:xlink="http://www.w3.org/1999/xlink">
    <!-- Generator: Sketch 47.1 (45422) - http://www.bohemiancoding.com/sketch -->
    <title>rope-end</title>
    <desc>Created with Sketch.</desc>
    <defs></defs>
    <g id="Page-1" stroke="none" stroke-width="1" fill="none" fill-rule="evenodd">
        <g id="rope-end">
            <path d="M39.627,246.8351 C39.489,246.9211 39.354,247.0071 39.217,247.0931 C39.182,247.0551 39.15,247.0121 39.114,246.9741 C39.142,246.8111 39.156,246.6501 39.173,246.4901 C39.597,246.3711 40.022,246.2601 40.448,246.1571 C40.216,246.4041 39.95,246.6351 39.627,246.8351 M50.645,233.5321 C50.787,229.0941 48.316,225.6811 43.833,223.9571 C42.231,223.3411 40.361,223.2791 38.684,223.0851 C38.55,223.0691 38.416,223.0541 38.283,223.0391 C38.218,223.0271 38.146,223.0111 38.07,222.9921 L38.07,163.2041 C38.07,161.3641 37.439,159.9341 36.461,158.9011 C37.148,157.9381 37.57,156.7081 37.57,155.2041 L37.57,0.9331 L22.57,0.9331 L22.57,163.7041 C22.57,166.0591 23.596,167.7511 25.07,168.7831 L25.07,171.6261 C23.596,172.6571 22.57,174.3511 22.57,176.7041 L22.57,227.4881 C15.648,227.6231 9.394,230.7971 5.496,237.1391 C3.4,240.5491 2.794,245.1711 3.628,249.0471 C4.115,251.3091 4.894,254.0261 6.576,255.7091 C6.935,256.0771 7.342,256.3691 7.771,256.6271 C7.781,256.9581 7.789,257.4271 7.789,258.0651 C7.79,262.1081 11.449,265.0481 15.345,264.7021 C20.68,264.2291 25.856,262.4291 30.808,260.2201 C31.904,262.2241 34.106,263.3801 36.57,263.7041 C39.951,264.1491 42.746,262.8201 44.764,260.1301 C45.159,259.6021 45.431,258.9991 45.672,258.3821 C46.148,258.0861 46.622,257.7901 47.098,257.4951 C50.023,255.6791 52.573,252.9471 53.567,249.5821 C54.356,246.9101 54.113,244.1021 55.102,241.4981 C56.376,238.1421 53.748,234.5351 50.645,233.5321" id="Fill-2289" fill="#A98E3B"></path>
            <path d="M35.6318,117.1447 C40.3798,124.9777 34.6328,130.9437 29.1268,136.0497 C27.5908,137.4747 29.8928,139.7697 31.4258,138.3477 C38.1168,132.1417 44.0378,124.7447 38.4388,115.5037 C37.3558,113.7177 34.5438,115.3497 35.6318,117.1447" id="Fill-2291" fill="#000000"></path>
            <path d="M25.1553,142.2453 C20.6843,134.2753 26.3513,128.8893 31.8133,123.8533 C33.3553,122.4333 31.0523,120.1403 29.5153,121.5563 C26.3343,124.4893 22.7193,127.1653 21.1053,131.3573 C19.5383,135.4263 20.2573,140.1573 22.3483,143.8863 C23.3723,145.7103 26.1803,144.0733 25.1553,142.2453" id="Fill-2293" fill="#000000"></path>
            <path d="M35.8877,103.6125 C40.2547,111.5575 34.6307,116.9075 29.1827,121.9295 C27.6407,123.3505 29.9437,125.6445 31.4807,124.2275 C34.6607,121.2975 38.2727,118.6225 39.8887,114.4335 C41.4497,110.3855 40.7417,105.6985 38.6947,101.9725 C37.6867,100.1385 34.8787,101.7765 35.8877,103.6125" id="Fill-2295" fill="#000000"></path>
            <path d="M24.9502,127.9777 C21.0052,120.0747 26.5002,114.9627 31.8682,110.0147 C33.4092,108.5937 31.1062,106.2997 29.5692,107.7167 C26.3962,110.6417 22.7992,113.3077 21.1742,117.4797 C19.6382,121.4197 20.2972,125.9177 22.1432,129.6187 C23.0782,131.4897 25.8832,129.8447 24.9502,127.9777" id="Fill-2297" fill="#000000"></path>
            <path d="M35.5693,89.3107 C40.3173,97.1447 34.5713,103.1107 29.0653,108.2157 C27.5283,109.6417 29.8313,111.9357 31.3633,110.5147 C38.0543,104.3087 43.9763,96.9107 38.3763,87.6707 C37.2933,85.8837 34.4813,87.5157 35.5693,89.3107" id="Fill-2299" fill="#000000"></path>
            <path d="M25.0928,114.4123 C20.6218,106.4413 26.2888,101.0563 31.7518,96.0203 C33.2928,94.6003 30.9898,92.3073 29.4538,93.7233 C26.2718,96.6553 22.6568,99.3323 21.0428,103.5243 C19.4768,107.5933 20.1958,112.3233 22.2868,116.0523 C23.3098,117.8763 26.1178,116.2393 25.0928,114.4123" id="Fill-2301" fill="#000000"></path>
            <path d="M35.8262,75.7795 C40.1922,83.7235 34.5692,89.0745 29.1202,94.0965 C27.5792,95.5175 29.8822,97.8105 31.4182,96.3945 C34.5982,93.4635 38.2102,90.7885 39.8262,86.5995 C41.3882,82.5525 40.6802,77.8645 38.6332,74.1385 C37.6252,72.3055 34.8172,73.9435 35.8262,75.7795" id="Fill-2303" fill="#000000"></path>
            <path d="M24.8877,100.1447 C20.9437,92.2417 26.4377,87.1287 31.8057,82.1817 C33.3467,80.7607 31.0437,78.4667 29.5077,79.8827 C26.3337,82.8087 22.7367,85.4747 21.1127,89.6467 C19.5767,93.5867 20.2357,98.0847 22.0817,101.7847 C23.0157,103.6567 25.8207,102.0117 24.8877,100.1447" id="Fill-2305" fill="#000000"></path>
            <path d="M35.6787,61.426 C40.4257,69.259 34.6797,75.225 29.1737,80.331 C27.6367,81.757 29.9397,84.051 31.4717,82.629 C38.1627,76.424 44.0847,69.026 38.4847,59.785 C37.4027,57.999 34.5907,59.631 35.6787,61.426" id="Fill-2307" fill="#000000"></path>
            <path d="M25.2012,86.5266 C20.7302,78.5566 26.3972,73.1716 31.8602,68.1356 C33.4012,66.7146 31.0982,64.4216 29.5622,65.8386 C26.3802,68.7706 22.7652,71.4476 21.1522,75.6386 C19.5852,79.7086 20.3042,84.4386 22.3952,88.1676 C23.4192,89.9916 26.2262,88.3546 25.2012,86.5266" id="Fill-2309" fill="#000000"></path>
            <path d="M35.9346,47.8947 C40.3006,55.8387 34.6776,61.1897 29.2286,66.2117 C27.6876,67.6317 29.9906,69.9257 31.5276,68.5097 C34.7076,65.5787 38.3196,62.9037 39.9346,58.7147 C41.4966,54.6677 40.7886,49.9797 38.7416,46.2537 C37.7336,44.4207 34.9256,46.0587 35.9346,47.8947" id="Fill-2311" fill="#000000"></path>
            <path d="M24.9971,72.259 C21.0521,64.356 26.5461,59.244 31.9141,54.296 C33.4561,52.876 31.1531,50.582 29.6161,51.998 C26.4421,54.923 22.8461,57.589 21.2211,61.762 C19.6851,65.702 20.3441,70.199 22.1901,73.9 C23.1251,75.771 25.9291,74.127 24.9971,72.259" id="Fill-2313" fill="#000000"></path>
            <path d="M35.7881,33.3752 C40.5351,41.2092 34.7891,47.1752 29.2831,52.2812 C27.7461,53.7062 30.0491,56.0002 31.5811,54.5792 C38.2721,48.3732 44.1941,40.9752 38.5941,31.7352 C37.5111,29.9482 34.6991,31.5802 35.7881,33.3752" id="Fill-2315" fill="#000000"></path>
            <path d="M25.3105,58.4767 C20.8395,50.5057 26.5065,45.1207 31.9695,40.0847 C33.5105,38.6647 31.2075,36.3717 29.6715,37.7877 C26.4895,40.7197 22.8745,43.3967 21.2605,47.5887 C19.6945,51.6577 20.4135,56.3877 22.5045,60.1167 C23.5275,61.9407 26.3355,60.3037 25.3105,58.4767" id="Fill-2317" fill="#000000"></path>
            <path d="M36.0439,19.8439 C40.4099,27.7879 34.7869,33.1389 29.3379,38.1609 C27.7969,39.5819 30.0999,41.8749 31.6359,40.4589 C34.8159,37.5279 38.4279,34.8529 40.0439,30.6639 C41.6059,26.6169 40.8979,21.9289 38.8509,18.2029 C37.8429,16.3699 35.0349,18.0079 36.0439,19.8439" id="Fill-2319" fill="#000000"></path>
            <path d="M25.1064,44.2092 C21.1614,36.3062 26.6554,31.1932 32.0234,26.2462 C33.5654,24.8252 31.2624,22.5312 29.7254,23.9472 C26.5514,26.8732 22.9554,29.5392 21.3304,33.7112 C19.7944,37.6512 20.4534,42.1492 22.2994,45.8492 C23.2344,47.7212 26.0384,46.0762 25.1064,44.2092" id="Fill-2321" fill="#000000"></path>
            <path d="M35.4414,228.8703 C40.1894,236.7033 34.4424,242.6693 28.9364,247.7753 C27.3994,249.2003 29.7024,251.4953 31.2344,250.0733 C37.9254,243.8673 43.8474,236.4703 38.2474,227.2293 C37.1654,225.4433 34.3534,227.0753 35.4414,228.8703" id="Fill-2323" fill="#000000"></path>
            <path d="M24.9639,253.9709 C20.4929,246.0009 26.1599,240.6149 31.6229,235.5799 C33.1649,234.1589 30.8609,231.8659 29.3249,233.2819 C26.1439,236.2149 22.5279,238.8909 20.9149,243.0829 C19.3479,247.1519 20.0669,251.8829 22.1579,255.6119 C23.1819,257.4359 25.9889,255.7989 24.9639,253.9709" id="Fill-2325" fill="#000000"></path>
            <path d="M35.6973,215.3381 C40.0633,223.2831 34.4403,228.6331 28.9913,233.6551 C27.4503,235.0761 29.7533,237.3701 31.2903,235.9531 C34.4703,233.0231 38.0823,230.3481 39.6973,226.1591 C41.2593,222.1111 40.5513,217.4241 38.5043,213.6981 C37.4963,211.8641 34.6883,213.5021 35.6973,215.3381" id="Fill-2327" fill="#000000"></path>
            <path d="M24.7598,239.7033 C20.8148,231.8003 26.3088,226.6883 31.6768,221.7403 C33.2188,220.3193 30.9158,218.0263 29.3788,219.4423 C26.2048,222.3673 22.6088,225.0333 20.9838,229.2053 C19.4478,233.1453 20.1068,237.6433 21.9528,241.3443 C22.8878,243.2153 25.6918,241.5713 24.7598,239.7033" id="Fill-2329" fill="#000000"></path>
            <path d="M35.3789,201.0363 C40.1269,208.8703 34.3799,214.8363 28.8749,219.9423 C27.3379,221.3673 29.6399,223.6613 31.1729,222.2403 C37.8639,216.0343 43.7859,208.6363 38.1859,199.3963 C37.1029,197.6093 34.2909,199.2413 35.3789,201.0363" id="Fill-2331" fill="#000000"></path>
            <path d="M24.9023,226.1379 C20.4313,218.1669 26.0983,212.7819 31.5613,207.7459 C33.1023,206.3259 30.7993,204.0329 29.2633,205.4489 C26.0813,208.3809 22.4663,211.0579 20.8523,215.2499 C19.2863,219.3189 20.0053,224.0489 22.0953,227.7779 C23.1193,229.6019 25.9273,227.9649 24.9023,226.1379" id="Fill-2333" fill="#000000"></path>
            <path d="M35.6357,187.5051 C40.0017,195.4491 34.3787,200.8001 28.9297,205.8221 C27.3887,207.2431 29.6917,209.5361 31.2277,208.1201 C34.4077,205.1891 38.0197,202.5141 39.6357,198.3251 C41.1977,194.2781 40.4897,189.5901 38.4417,185.8641 C37.4347,184.0311 34.6267,185.6691 35.6357,187.5051" id="Fill-2335" fill="#000000"></path>
            <path d="M24.6973,211.8703 C20.7523,203.9673 26.2473,198.8543 31.6153,193.9073 C33.1563,192.4863 30.8533,190.1923 29.3173,191.6083 C26.1433,194.5343 22.5463,197.2003 20.9213,201.3723 C19.3863,205.3123 20.0443,209.8103 21.8913,213.5103 C22.8253,215.3823 25.6303,213.7373 24.6973,211.8703" id="Fill-2337" fill="#000000"></path>
            <path d="M35.4873,173.1516 C40.2353,180.9846 34.4893,186.9506 28.9833,192.0566 C27.4463,193.4826 29.7493,195.7766 31.2813,194.3546 C37.9723,188.1496 43.8943,180.7516 38.2943,171.5106 C37.2113,169.7246 34.3993,171.3566 35.4873,173.1516" id="Fill-2339" fill="#000000"></path>
            <path d="M25.0107,198.2521 C20.5397,190.2821 26.2067,184.8971 31.6697,179.8611 C33.2107,178.4401 30.9077,176.1471 29.3717,177.5641 C26.1897,180.4961 22.5747,183.1731 20.9607,187.3641 C19.3947,191.4341 20.1137,196.1641 22.2037,199.8931 C23.2277,201.7171 26.0357,200.0801 25.0107,198.2521" id="Fill-2341" fill="#000000"></path>
            <path d="M35.7441,159.6203 C40.1101,167.5643 34.4871,172.9153 29.0381,177.9373 C27.4971,179.3573 29.8001,181.6513 31.3361,180.2353 C34.5161,177.3043 38.1281,174.6293 39.7441,170.4403 C41.3061,166.3933 40.5981,161.7053 38.5511,157.9793 C37.5431,156.1463 34.7351,157.7843 35.7441,159.6203" id="Fill-2343" fill="#000000"></path>
            <path d="M24.8057,183.9846 C20.8617,176.0816 26.3557,170.9696 31.7237,166.0216 C33.2647,164.6016 30.9617,162.3076 29.4257,163.7236 C26.2517,166.6486 22.6547,169.3156 21.0307,173.4876 C19.4947,177.4276 20.1537,181.9246 21.9997,185.6256 C22.9337,187.4966 25.7387,185.8526 24.8057,183.9846" id="Fill-2345" fill="#000000"></path>
            <path d="M35.5967,145.1008 C40.3447,152.9348 34.5987,158.9008 29.0927,164.0068 C27.5557,165.4318 29.8587,167.7258 31.3907,166.3048 C38.0817,160.0988 44.0037,152.7008 38.4037,143.4608 C37.3207,141.6748 34.5087,143.3058 35.5967,145.1008" id="Fill-2347" fill="#000000"></path>
            <path d="M25.1201,170.2023 C20.6491,162.2313 26.3161,156.8463 31.7791,151.8103 C33.3201,150.3903 31.0171,148.0973 29.4811,149.5133 C26.2991,152.4453 22.6841,155.1223 21.0701,159.3143 C19.5041,163.3833 20.2231,168.1133 22.3131,171.8423 C23.3371,173.6663 26.1451,172.0293 25.1201,170.2023" id="Fill-2349" fill="#000000"></path>
            <path d="M35.8535,131.5695 C40.2195,139.5145 34.5965,144.8645 29.1475,149.8865 C27.6065,151.3075 29.9095,153.6005 31.4455,152.1845 C34.6255,149.2535 38.2375,146.5785 39.8535,142.3895 C41.4155,138.3425 40.7075,133.6545 38.6595,129.9285 C37.6525,128.0955 34.8445,129.7335 35.8535,131.5695" id="Fill-2351" fill="#000000"></path>
            <path d="M24.915,155.9348 C20.97,148.0318 26.465,142.9188 31.833,137.9718 C33.374,136.5508 31.071,134.2568 29.535,135.6728 C26.361,138.5988 22.764,141.2648 21.139,145.4368 C19.604,149.3768 20.262,153.8748 22.109,157.5748 C23.043,159.4468 25.848,157.8018 24.915,155.9348" id="Fill-2353" fill="#000000"></path>
            <path d="M44.2393,257.6281 C44.9843,262.5721 37.6503,262.7241 34.8393,261.3001 C32.5033,260.1151 31.2853,258.3631 29.5553,256.4741 C28.1403,254.9271 25.8473,257.2311 27.2583,258.7721 C30.6783,262.5101 34.3003,266.2261 39.9403,265.4801 C44.3033,264.9031 48.0613,261.3301 47.3733,256.7641 C47.0623,254.7021 43.9293,255.5781 44.2393,257.6281" id="Fill-2355" fill="#000000"></path>
            <path d="M22.9072,253.1506 C27.7342,250.0286 32.1002,252.7736 36.3882,255.3566 C38.1842,256.4386 39.8202,253.6296 38.0292,252.5496 C32.6712,249.3226 27.1572,246.5346 21.2672,250.3446 C19.5162,251.4766 21.1442,254.2916 22.9072,253.1506" id="Fill-2357" fill="#000000"></path>
            <path d="M50.6973,247.5549 C53.0363,250.8989 50.1713,255.2059 46.2843,255.4869 C43.3243,255.7009 40.5173,253.8699 38.0293,252.5499 C36.1823,251.5709 34.5383,254.3749 36.3883,255.3569 C40.5023,257.5379 45.1463,260.1089 49.7883,257.7749 C54.1963,255.5589 56.4913,250.1849 53.5043,245.9139 C52.3133,244.2129 49.4943,245.8349 50.6973,247.5549" id="Fill-2359" fill="#000000"></path>
            <path d="M31.6377,251.0891 C34.6767,247.5241 39.0057,247.7761 43.2447,248.2761 C45.3187,248.5201 45.3007,245.2681 43.2447,245.0261 C38.1477,244.4241 32.9307,244.5781 29.3397,248.7911 C27.9907,250.3741 30.2787,252.6841 31.6377,251.0891" id="Fill-2361" fill="#000000"></path>
            <path d="M37.4111,246.7678 C37.9561,244.0558 39.6771,241.6448 42.3751,240.7558 C44.3521,240.1048 43.5061,236.9648 41.5121,237.6218 C37.7721,238.8538 35.0511,242.0568 34.2771,245.9048 C33.8661,247.9468 36.9981,248.8208 37.4111,246.7678" id="Fill-2363" fill="#000000"></path>
            <path d="M50.6504,235.2394 C53.8964,236.5984 54.8184,240.5534 52.3344,243.1384 C49.9174,245.6534 46.3484,245.2304 43.2454,245.0254 C41.1574,244.8874 41.1664,248.1374 43.2454,248.2754 C48.0284,248.5924 53.5384,248.3004 56.0704,243.4374 C58.4834,238.8024 56.0674,234.0124 51.5134,232.1054 C49.5884,231.2984 48.7464,234.4414 50.6504,235.2394" id="Fill-2365" fill="#000000"></path>
            <path d="M42.5879,225.8058 C46.2309,226.0048 49.5359,228.3668 48.4979,232.3648 C47.5359,236.0718 43.7569,236.7688 40.6819,237.9378 C38.7459,238.6728 39.5849,241.8168 41.5459,241.0718 C46.2149,239.2968 51.3729,237.6428 51.8789,231.7658 C52.3669,226.0928 47.7889,222.8398 42.5879,222.5558 C40.4979,222.4418 40.5039,225.6918 42.5879,225.8058" id="Fill-2367" fill="#000000"></path>
            <path d="M44.2393,257.6281 C44.9843,262.5721 37.6503,262.7241 34.8393,261.3001 C32.5033,260.1151 31.2853,258.3631 29.5553,256.4741 C28.1403,254.9271 25.8473,257.2311 27.2583,258.7721 C30.6783,262.5101 34.3003,266.2261 39.9403,265.4801 C44.3033,264.9031 48.0613,261.3301 47.3733,256.7641 C47.0623,254.7021 43.9293,255.5781 44.2393,257.6281" id="Fill-2369" fill="#000000"></path>
            <path d="M22.9072,253.1506 C27.7342,250.0286 32.1002,252.7736 36.3882,255.3566 C38.1842,256.4386 39.8202,253.6296 38.0292,252.5496 C32.6712,249.3226 27.1572,246.5346 21.2672,250.3446 C19.5162,251.4766 21.1442,254.2916 22.9072,253.1506" id="Fill-2371" fill="#000000"></path>
            <path d="M50.6973,247.5549 C53.0363,250.8989 50.1713,255.2059 46.2843,255.4869 C43.3243,255.7009 40.5173,253.8699 38.0293,252.5499 C36.1823,251.5709 34.5383,254.3749 36.3883,255.3569 C40.5023,257.5379 45.1463,260.1089 49.7883,257.7749 C54.1963,255.5589 56.4913,250.1849 53.5043,245.9139 C52.3133,244.2129 49.4943,245.8349 50.6973,247.5549" id="Fill-2373" fill="#000000"></path>
            <path d="M50.6504,235.2394 C53.8964,236.5984 54.8184,240.5534 52.3344,243.1384 C49.9174,245.6534 46.3484,245.2304 43.2454,245.0254 C41.1574,244.8874 41.1664,248.1374 43.2454,248.2754 C48.0284,248.5924 53.5384,248.3004 56.0704,243.4374 C58.4834,238.8024 56.0674,234.0124 51.5134,232.1054 C49.5884,231.2984 48.7464,234.4414 50.6504,235.2394" id="Fill-2375" fill="#000000"></path>
            <path d="M42.5879,225.8058 C46.2309,226.0048 49.5359,228.3668 48.4979,232.3648 C47.5359,236.0718 43.7569,236.7688 40.6819,237.9378 C38.7459,238.6728 39.5849,241.8168 41.5459,241.0718 C46.2149,239.2968 51.3729,237.6428 51.8789,231.7658 C52.3669,226.0928 47.7889,222.8398 42.5879,222.5558 C40.4979,222.4418 40.5039,225.6918 42.5879,225.8058" id="Fill-2377" fill="#000000"></path>
            <path d="M40.1348,222.9787 C43.1958,224.4757 40.2498,228.9977 38.9228,230.5797 C37.5858,232.1717 39.8738,234.4827 41.2208,232.8767 C43.9048,229.6797 47.0868,222.7707 41.7758,220.1727 C39.9048,219.2567 38.2548,222.0587 40.1348,222.9787" id="Fill-2379" fill="#000000"></path>
            <path d="M4.1797,242.0363 C-0.1323,244.7383 -0.3613,250.2653 2.6487,254.1013 C5.9817,258.3483 11.2877,257.8413 16.0867,257.3503 C18.1477,257.1403 18.1687,253.8893 16.0867,254.1003 C13.0627,254.4093 9.0737,255.2503 6.4077,253.3063 C3.6977,251.3273 2.6167,246.8503 5.8197,244.8433 C7.5877,243.7343 5.9577,240.9223 4.1797,242.0363" id="Fill-2381" fill="#000000"></path>
            <path d="M25.3896,254.0998 C23.6026,248.6408 18.7896,246.5278 13.6686,245.1228 C11.6486,244.5688 10.7866,247.7038 12.8046,248.2568 C16.7086,249.3278 20.8646,250.7138 22.2556,254.9638 C22.9036,256.9428 26.0426,256.0958 25.3896,254.0998" id="Fill-2383" fill="#000000"></path>
            <path d="M21.7803,249.6115 C22.4863,245.7505 21.4363,241.7305 18.3963,239.1155 C16.8183,237.7575 14.5093,240.0465 16.0983,241.4135 C18.2323,243.2495 19.1533,245.9755 18.6463,248.7485 C18.2733,250.7935 21.4043,251.6705 21.7803,249.6115" id="Fill-2385" fill="#000000"></path>
            <path d="M10.8516,230.093 C5.8296,230.181 1.9176,234.059 2.6096,239.23 C3.3266,244.597 8.3026,246.771 12.8046,248.257 C14.7956,248.914 15.6486,245.777 13.6686,245.123 C10.8206,244.183 7.6166,243.268 6.2226,240.254 C4.5926,236.732 7.2066,233.406 10.8516,233.343 C12.9406,233.307 12.9476,230.056 10.8516,230.093" id="Fill-2387" fill="#000000"></path>
            <path d="M22.7227,224.5471 C17.8507,222.8821 12.4307,224.3461 10.8137,229.6811 C10.1637,231.8201 10.4517,233.9151 11.3227,235.9411 C12.4927,238.6621 14.6357,240.0561 16.7487,242.0181 C18.2797,243.4401 20.5827,241.1471 19.0467,239.7201 C16.6407,237.4851 13.3617,235.5131 13.7047,231.7091 C14.0987,227.3481 18.2967,226.4641 21.8587,227.6811 C23.8417,228.3591 24.6937,225.2211 22.7227,224.5471" id="Fill-2389" fill="#000000"></path>
            <path d="M5.498,254.6799 C3.089,258.9009 5.958,263.4469 9.939,265.3889 C12.788,266.7789 16.098,266.9229 19.158,266.2469 C22.81,265.4409 27.426,261.7079 31.13,262.8259 C33.137,263.4319 33.994,260.2959 31.994,259.6929 C28.523,258.6459 25.364,260.5759 22.204,261.8209 C19.195,263.0039 15.979,263.9619 12.749,262.9919 C10.149,262.2099 6.531,259.4279 8.305,256.3209 C9.343,254.5009 6.536,252.8619 5.498,254.6799" id="Fill-2391" fill="#000000"></path>
            <path d="M29.5557,256.4738 C25.8057,252.7608 20.4387,253.4288 15.6547,254.1598 C13.5937,254.4738 14.4697,257.6058 16.5187,257.2928 C20.0417,256.7548 24.4597,256.0008 27.2577,258.7718 C28.7457,260.2448 31.0447,257.9478 29.5557,256.4738" id="Fill-2393" fill="#000000"></path>
            <path d="M4.1797,242.0363 C-0.1323,244.7383 -0.3613,250.2653 2.6487,254.1013 C5.9817,258.3483 11.2877,257.8413 16.0867,257.3503 C18.1477,257.1403 18.1687,253.8893 16.0867,254.1003 C13.0627,254.4093 9.0737,255.2503 6.4077,253.3063 C3.6977,251.3273 2.6167,246.8503 5.8197,244.8433 C7.5877,243.7343 5.9577,240.9223 4.1797,242.0363" id="Fill-2395" fill="#000000"></path>
            <path d="M10.8516,230.093 C5.8296,230.181 1.9176,234.059 2.6096,239.23 C3.3266,244.597 8.3026,246.771 12.8046,248.257 C14.7956,248.914 15.6486,245.777 13.6686,245.123 C10.8206,244.183 7.6166,243.268 6.2226,240.254 C4.5926,236.732 7.2066,233.406 10.8516,233.343 C12.9406,233.307 12.9476,230.056 10.8516,230.093" id="Fill-2397" fill="#000000"></path>
            <path d="M22.7227,224.5471 C17.8507,222.8821 12.4307,224.3461 10.8137,229.6811 C10.1637,231.8201 10.4517,233.9151 11.3227,235.9411 C12.4927,238.6621 14.6357,240.0561 16.7487,242.0181 C18.2797,243.4401 20.5827,241.1471 19.0467,239.7201 C16.6407,237.4851 13.3617,235.5131 13.7047,231.7091 C14.0987,227.3481 18.2967,226.4641 21.8587,227.6811 C23.8417,228.3591 24.6937,225.2211 22.7227,224.5471" id="Fill-2399" fill="#000000"></path>
            <path d="M35.4219,5.9719 C40.1699,13.8049 34.4229,19.7709 28.9169,24.8769 C27.3809,26.3019 29.6829,28.5959 31.2159,27.1749 C37.9069,20.9689 43.8289,13.5719 38.2289,4.3309 C37.1459,2.5449 34.3339,4.1759 35.4219,5.9719" id="Fill-2401" fill="#000000"></path>
            <path d="M24.9453,31.0724 C20.4743,23.1024 26.1413,17.7164 31.6043,12.6804 C33.1453,11.2604 30.8423,8.9674 29.3053,10.3834 C26.1243,13.3154 22.5093,15.9924 20.8953,20.1844 C19.3293,24.2534 20.0483,28.9834 22.1383,32.7124 C23.1623,34.5374 25.9703,32.9004 24.9453,31.0724" id="Fill-2403" fill="#000000"></path>
            <path d="M36.7197,1.9465 C35.2427,5.6795 31.8207,8.1165 28.9727,10.7575 C27.4357,12.1815 29.7377,14.4765 31.2707,13.0545 C34.6267,9.9425 38.1207,7.1895 39.8537,2.8105 C40.6227,0.8655 37.4817,0.0205 36.7197,1.9465" id="Fill-2405" fill="#000000"></path>
            <path d="M24.7402,16.8049 C22.3792,12.2079 23.3272,7.2049 26.6912,3.3889 C28.0692,1.8259 25.7792,-0.4821 24.3932,1.0909 C20.0182,6.0529 18.8722,12.4849 21.9332,18.4459 C22.8892,20.3059 25.6952,18.6629 24.7402,16.8049" id="Fill-2407" fill="#000000"></path>
        </g>
    </g>
</svg>