<?xml version="1.0" encoding="UTF-8" standalone="no"?>
<svg width="168px" height="85px" viewBox="0 0 168 85" version="1.1" xmlns="http://www.w3.org/2000/svg" xmlns:xlink="http://www.w3.org/1999/xlink">
    <!-- Generator: Sketch 47.1 (45422) - http://www.bohemiancoding.com/sketch -->
    <title>Group 180</title>
    <desc>Created with Sketch.</desc>
    <defs></defs>
    <g id="Page-1" stroke="none" stroke-width="1" fill="none" fill-rule="evenodd">
        <g id="Group-180" transform="translate(0.000000, 0.140000)">
            <g id="shell">
                <path d="M12.9099,70.6155 C13.1889,70.9185 13.4759,71.2095 13.7719,71.4965 C13.8479,71.5705 13.9189,71.6305 13.9829,71.6805 C14.5289,71.6865 15.0509,71.8285 15.5919,72.0965 C15.7749,71.8925 16.0049,71.7065 16.2829,71.5465 C17.9009,70.6105 19.2419,70.2665 20.2519,68.6155 C21.3639,66.7985 22.9819,65.3555 24.4999,63.8925 C25.0329,63.3945 25.6219,63.1725 26.1949,63.1495 C26.4469,62.8865 26.7289,62.6625 27.0279,62.4655 C26.6119,62.4935 26.1959,62.5255 25.7799,62.5565 C25.7979,62.1015 25.4299,61.6155 24.8559,61.7695 C20.8389,62.8555 16.6939,62.7525 12.5859,63.1855 C10.5459,63.4015 8.3519,63.8405 6.2989,63.7065 C4.9499,63.6185 3.8959,63.1395 2.8889,62.4535 C2.0019,61.2575 1.6919,59.6335 1.6879,57.9265 C1.8099,57.4665 1.9299,57.0035 2.0369,56.5355 C2.3869,55.0125 2.4649,53.4215 3.0669,51.9715 C3.2369,51.5645 3.1539,51.2295 2.9429,50.9925 C3.5849,49.6065 4.5289,48.3095 5.2919,46.9565 C5.3109,46.9385 5.3319,46.9275 5.3509,46.9075 C6.9419,45.3405 7.8499,42.6155 8.0549,40.4365 C8.0619,40.3595 8.0589,40.2885 8.0539,40.2205 C8.4469,39.4305 8.7639,38.7195 8.7729,37.7225 C8.7739,37.5735 8.7889,37.4335 8.8089,37.2985 C10.1439,35.3685 10.7889,32.7055 11.4839,30.5425 C11.9219,30.2045 12.3789,29.8835 12.8339,29.5355 C13.0459,29.3735 13.2809,29.2685 13.5269,29.2055 C13.6269,28.8155 13.7009,28.4335 13.7759,28.1785 C14.1869,26.7835 14.7609,25.4045 15.3469,24.0755 C16.5839,21.2655 18.4509,19.0485 20.7479,17.0375 C21.7399,16.1695 22.8099,15.4125 23.9109,14.6905 C25.1939,13.8475 26.1839,12.7965 27.3029,11.7595 C29.2589,9.9435 31.5809,8.4165 33.7149,6.8175 C36.1619,4.9845 39.5559,4.5735 42.4799,3.9525 C45.7769,3.2515 49.1159,2.7675 52.4779,2.5355 C59.3649,2.0595 65.7749,2.9825 72.2089,5.4605 C72.7379,5.6645 73.1389,5.9785 73.4299,6.3535 C73.5239,6.3715 73.6209,6.3935 73.7209,6.4225 C77.7299,7.5795 81.7819,7.5655 85.9109,7.7515 C87.8639,7.8395 89.7809,8.0005 91.7369,7.9405 C93.6659,7.8815 95.5829,8.0375 97.2839,9.0145 C97.5559,9.1715 97.7789,9.3545 97.9619,9.5555 C99.3579,10.1345 100.6969,10.9075 102.0139,11.6175 C105.3479,13.4135 108.7429,15.0985 112.1789,16.6915 C115.1419,18.0655 117.5609,20.4025 119.2619,23.1665 C120.0459,24.4415 120.8279,25.7285 121.6009,27.0135 C122.3979,28.3375 122.5959,30.0755 123.5429,31.2945 C123.8909,31.7435 124.0749,32.2225 124.1329,32.6995 C126.7009,32.7925 130.2019,34.0555 131.6289,36.2575 C132.3479,34.7055 134.0749,34.0795 135.7339,34.5495 C135.9859,34.6205 136.2059,34.7215 136.4069,34.8375 C137.6719,35.0015 138.7339,35.4295 139.8899,36.4535 C140.0029,36.5705 140.1209,36.6805 140.2419,36.7875 C140.3219,36.7155 140.3999,36.6405 140.4799,36.5685 C141.1389,35.9655 142.1159,35.3505 143.0539,35.4035 C144.0979,35.4625 145.0429,35.7785 145.8009,36.3645 C146.6519,35.7345 147.7859,35.8805 148.6529,36.4785 C148.8439,36.4385 149.0479,36.4175 149.2649,36.4175 C149.7549,36.4175 150.1719,36.5275 150.5219,36.7125 C150.7099,36.6155 150.9299,36.5555 151.1889,36.5555 C152.7929,36.5555 153.0109,38.6945 151.8489,39.2865 C151.7779,40.4485 151.0539,41.5595 149.6779,41.7455 C149.8249,42.4745 149.7899,43.2155 149.3649,43.9415 C148.7309,45.0225 147.6599,45.5725 146.5669,45.6285 C146.4879,45.9855 146.3799,46.3475 146.2369,46.6955 C146.2479,46.8345 146.2499,46.9765 146.2339,47.1265 C145.8879,50.2885 143.2499,51.6255 140.4249,51.9885 C140.5009,52.2435 140.5429,52.5255 140.5409,52.8375 C140.5049,56.8875 139.0719,60.5705 134.8129,61.7145 C133.8459,61.9735 132.7749,61.9765 131.7089,61.7825 C131.5549,62.0005 131.4049,62.2215 131.2689,62.4545 C130.6429,63.5285 130.6909,65.1435 130.3749,66.3375 C130.0119,67.7065 129.1549,68.9135 128.1589,69.8895 C126.4439,71.5675 124.0329,72.2575 121.9409,73.3055 C119.5179,74.5215 117.6749,76.7185 115.2779,78.0525 C109.8929,81.0505 103.5109,82.0615 97.4289,82.2915 C94.0259,82.4195 90.6509,81.9005 87.2639,81.6855 C84.3889,81.5035 81.3669,82.2415 78.6149,81.1095 C78.4919,81.0585 78.3729,80.9975 78.2559,80.9305 C77.7439,80.9205 77.2309,80.9005 76.7209,80.8905 C73.9939,80.8365 71.3879,81.0345 68.6759,80.5685 C67.9399,80.4415 67.2109,80.2735 66.4839,80.0875 C65.4449,80.2475 64.4079,80.4095 63.3729,80.5695 C60.0789,81.0785 56.7609,81.4905 53.4419,80.9815 C52.2159,80.7945 51.0539,80.0235 50.0559,79.3375 C48.6369,78.3615 47.3709,77.8545 45.6399,77.6545 C42.4759,77.2905 40.0319,78.8645 37.0099,79.2195 C33.2829,79.6565 29.4329,80.2395 25.6839,80.3565 C22.6209,80.4525 19.6639,79.6215 16.8989,78.3755 C14.9049,77.4765 12.5849,76.9755 11.5179,74.9875 C10.9689,74.5455 10.4589,74.0305 9.9949,73.5305 C8.1909,71.5845 11.0989,68.6625 12.9099,70.6155" id="Fill-6" fill="#A1A0A5"></path>
                <path d="M12.9099,70.6155 C13.1889,70.9185 13.4759,71.2095 13.7719,71.4965 C13.8479,71.5705 13.9189,71.6305 13.9829,71.6805 C14.5289,71.6865 15.0509,71.8285 15.5919,72.0965 C15.7749,71.8925 16.0049,71.7065 16.2829,71.5465 C17.9009,70.6105 19.2419,70.2665 20.2519,68.6155 C21.3639,66.7985 22.9819,65.3555 24.4999,63.8925 C25.0329,63.3945 25.6219,63.1725 26.1949,63.1495 C26.4469,62.8865 26.7289,62.6625 27.0279,62.4655 C26.6119,62.4935 26.1959,62.5255 25.7799,62.5565 C25.7979,62.1015 25.4299,61.6155 24.8559,61.7695 C20.8389,62.8555 16.6939,62.7525 12.5859,63.1855 C10.5459,63.4015 8.3519,63.8405 6.2989,63.7065 C4.9499,63.6185 3.8959,63.1395 2.8889,62.4535 C2.0019,61.2575 1.6919,59.6335 1.6879,57.9265 C1.8099,57.4665 1.9299,57.0035 2.0369,56.5355 C2.3869,55.0125 2.4649,53.4215 3.0669,51.9715 C3.2369,51.5645 3.1539,51.2295 2.9429,50.9925 C3.5849,49.6065 4.5289,48.3095 5.2919,46.9565 C5.3109,46.9385 5.3319,46.9275 5.3509,46.9075 C6.9419,45.3405 7.8499,42.6155 8.0549,40.4365 C8.0619,40.3595 8.0589,40.2885 8.0539,40.2205 C8.4469,39.4305 8.7639,38.7195 8.7729,37.7225 C8.7739,37.5735 8.7889,37.4335 8.8089,37.2985 C10.1439,35.3685 10.7889,32.7055 11.4839,30.5425 C11.9219,30.2045 12.3789,29.8835 12.8339,29.5355 C13.0459,29.3735 13.2809,29.2685 13.5269,29.2055 C13.6269,28.8155 13.7009,28.4335 13.7759,28.1785 C14.1869,26.7835 14.7609,25.4045 15.3469,24.0755 C16.5839,21.2655 18.4509,19.0485 20.7479,17.0375 C21.7399,16.1695 22.8099,15.4125 23.9109,14.6905 C25.1939,13.8475 26.1839,12.7965 27.3029,11.7595 C29.2589,9.9435 31.5809,8.4165 33.7149,6.8175 C36.1619,4.9845 39.5559,4.5735 42.4799,3.9525 C45.7769,3.2515 49.1159,2.7675 52.4779,2.5355 C59.3649,2.0595 65.7749,2.9825 72.2089,5.4605 C72.7379,5.6645 73.1389,5.9785 73.4299,6.3535 C73.5239,6.3715 73.6209,6.3935 73.7209,6.4225 C77.7299,7.5795 81.7819,7.5655 85.9109,7.7515 C87.8639,7.8395 89.7809,8.0005 91.7369,7.9405 C93.6659,7.8815 95.5829,8.0375 97.2839,9.0145 C97.5559,9.1715 97.7789,9.3545 97.9619,9.5555 C99.3579,10.1345 100.6969,10.9075 102.0139,11.6175 C105.3479,13.4135 108.7429,15.0985 112.1789,16.6915 C115.1419,18.0655 117.5609,20.4025 119.2619,23.1665 C120.0459,24.4415 120.8279,25.7285 121.6009,27.0135 C122.3979,28.3375 122.5959,30.0755 123.5429,31.2945 C123.8909,31.7435 124.0749,32.2225 124.1329,32.6995 C126.7009,32.7925 130.2019,34.0555 131.6289,36.2575 C132.3479,34.7055 134.0749,34.0795 135.7339,34.5495 C135.9859,34.6205 136.2059,34.7215 136.4069,34.8375 C137.6719,35.0015 138.7339,35.4295 139.8899,36.4535 C140.0029,36.5705 140.1209,36.6805 140.2419,36.7875 C140.3219,36.7155 140.3999,36.6405 140.4799,36.5685 C141.1389,35.9655 142.1159,35.3505 143.0539,35.4035 C144.0979,35.4625 145.0429,35.7785 145.8009,36.3645 C146.6519,35.7345 147.7859,35.8805 148.6529,36.4785 C148.8439,36.4385 149.0479,36.4175 149.2649,36.4175 C149.7549,36.4175 150.1719,36.5275 150.5219,36.7125 C150.7099,36.6155 150.9299,36.5555 151.1889,36.5555 C152.7929,36.5555 153.0109,38.6945 151.8489,39.2865 C151.7779,40.4485 151.0539,41.5595 149.6779,41.7455 C149.8249,42.4745 149.7899,43.2155 149.3649,43.9415 C148.7309,45.0225 147.6599,45.5725 146.5669,45.6285 C146.4879,45.9855 146.3799,46.3475 146.2369,46.6955 C146.2479,46.8345 146.2499,46.9765 146.2339,47.1265 C145.8879,50.2885 143.2499,51.6255 140.4249,51.9885 C140.5009,52.2435 140.5429,52.5255 140.5409,52.8375 C140.5049,56.8875 139.0719,60.5705 134.8129,61.7145 C133.8459,61.9735 132.7749,61.9765 131.7089,61.7825 C131.5549,62.0005 131.4049,62.2215 131.2689,62.4545 C130.6429,63.5285 130.6909,65.1435 130.3749,66.3375 C130.0119,67.7065 129.1549,68.9135 128.1589,69.8895 C126.4439,71.5675 124.0329,72.2575 121.9409,73.3055 C119.5179,74.5215 117.6749,76.7185 115.2779,78.0525 C109.8929,81.0505 103.5109,82.0615 97.4289,82.2915 C94.0259,82.4195 90.6509,81.9005 87.2639,81.6855 C84.3889,81.5035 81.3669,82.2415 78.6149,81.1095 C78.4919,81.0585 78.3729,80.9975 78.2559,80.9305 C77.7439,80.9205 77.2309,80.9005 76.7209,80.8905 C73.9939,80.8365 71.3879,81.0345 68.6759,80.5685 C67.9399,80.4415 67.2109,80.2735 66.4839,80.0875 C65.4449,80.2475 64.4079,80.4095 63.3729,80.5695 C60.0789,81.0785 56.7609,81.4905 53.4419,80.9815 C52.2159,80.7945 51.0539,80.0235 50.0559,79.3375 C48.6369,78.3615 47.3709,77.8545 45.6399,77.6545 C42.4759,77.2905 40.0319,78.8645 37.0099,79.2195 C33.2829,79.6565 29.4329,80.2395 25.6839,80.3565 C22.6209,80.4525 19.6639,79.6215 16.8989,78.3755 C14.9049,77.4765 12.5849,76.9755 11.5179,74.9875 C10.9689,74.5455 10.4589,74.0305 9.9949,73.5305 C8.1909,71.5845 11.0989,68.6625 12.9099,70.6155 Z" id="Stroke-8" stroke="#000000" stroke-width="0.65"></path>
                <path d="M20.1746,55.8197 C24.0396,54.7197 24.9216,50.5497 25.9916,47.1407 C28.0866,40.4737 30.9186,34.5757 35.9456,29.5967 C47.2406,18.4117 63.6926,15.0957 78.6856,19.7307 C80.6886,20.3497 81.5446,17.2137 79.5496,16.5957 C65.8226,12.3527 51.2206,14.2677 39.3666,22.5607 C34.7036,25.8237 30.6706,29.9357 27.6936,34.8007 C26.0776,37.4407 24.8276,40.2727 23.8286,43.1977 C22.9346,45.8117 22.3706,51.8157 19.3106,52.6857 C17.3026,53.2567 18.1556,56.3937 20.1746,55.8197" id="Fill-10" fill="#000000"></path>
                <path d="M78.6853,19.7308 C86.3443,22.5128 94.1563,21.6898 101.9033,23.6388 C109.3863,25.5218 113.2383,30.8418 118.5553,35.8588 C120.0763,37.2928 122.3783,34.9998 120.8533,33.5608 C115.9993,28.9818 112.2123,23.8118 105.7373,21.4178 C97.3043,18.3008 88.0793,19.6958 79.5493,16.5958 C77.5813,15.8808 76.7323,19.0208 78.6853,19.7308" id="Fill-12" fill="#000000"></path>
                <path d="M20.1775,55.8324 C30.6095,53.8984 39.4005,57.5454 44.5175,66.9414 C45.5185,68.7794 48.3245,67.1414 47.3235,65.3024 C41.4825,54.5744 31.1475,50.5054 19.3135,52.6984 C17.2595,53.0794 18.1295,56.2124 20.1775,55.8324" id="Fill-14" fill="#000000"></path>
                <path d="M0.9363,53.8226 C0.6523,61.0996 16.8073,56.4816 20.1773,55.8326 C22.2283,55.4366 21.3603,52.3036 19.3133,52.6986 C18.1413,52.9246 4.1153,55.6326 4.1863,53.8226 C4.2683,51.7306 1.0173,51.7346 0.9363,53.8226" id="Fill-16" fill="#000000"></path>
                <path d="M44.5173,66.9417 C48.7773,73.8847 53.9973,78.3967 62.5423,78.4207 C64.6343,78.4257 64.6373,75.1757 62.5423,75.1707 C55.1643,75.1497 50.9753,71.2537 47.3243,65.3017 C46.2323,63.5217 43.4193,65.1527 44.5173,66.9417" id="Fill-18" fill="#000000"></path>
                <path d="M116.8123,78.1614 C123.4223,74.4464 132.7213,70.6914 133.2373,61.9544 C133.3603,59.8654 130.1093,59.8724 129.9873,61.9544 C129.5763,68.9084 120.4293,72.4004 115.1723,75.3544 C113.3483,76.3804 114.9853,79.1884 116.8123,78.1614" id="Fill-22" fill="#000000"></path>
                <path d="M118.1375,35.142 C119.6145,40.946 119.5455,46.695 121.9905,52.364 C123.8605,56.703 126.8075,59.82 130.4945,62.708 C132.1225,63.984 134.4395,61.7 132.7925,60.41 C129.1065,57.522 126.2395,54.446 124.5225,50.007 C122.5265,44.848 122.6035,39.513 121.2715,34.278 C120.7555,32.252 117.6205,33.111 118.1375,35.142" id="Fill-24" fill="#000000"></path>
                <path d="M120.949,36.1927 C122.924,34.0827 126.205,34.0247 128.602,35.5227 C130.766,36.8747 131.476,39.6307 132.201,41.9137 C132.831,43.8997 135.97,43.0507 135.335,41.0487 C134.189,37.4407 132.88,33.8447 129.206,32.1887 C125.664,30.5907 121.37,30.9877 118.651,33.8947 C117.223,35.4217 119.516,37.7237 120.949,36.1927" id="Fill-26" fill="#000000"></path>
                <path d="M132.1287,41.6849 C133.4727,46.1129 135.9667,50.5389 139.7997,53.2789 C141.5037,54.4979 143.1287,51.6799 141.4397,50.4729 C138.3387,48.2549 136.3407,44.3749 135.2627,40.8209 C134.6567,38.8249 131.5197,39.6759 132.1287,41.6849" id="Fill-28" fill="#000000"></path>
                <path d="M139.032,52.0541 C139.113,54.2211 138.965,56.5931 137.463,58.2901 C136.027,59.9141 134.194,60.6531 132.076,59.9921 C130.075,59.3681 129.219,62.5041 131.212,63.1261 C134.273,64.0801 137.301,63.1121 139.516,60.8481 C141.823,58.4911 142.401,55.2541 142.282,52.0541 C142.205,49.9691 138.955,49.9591 139.032,52.0541" id="Fill-30" fill="#000000"></path>
                <path d="M133.2507,36.8256 C134.2067,35.2616 136.8467,35.9406 137.9887,36.7656 C139.4027,37.7876 140.1577,39.7136 140.9897,41.2096 C142.3097,43.5786 143.3057,45.4296 145.7467,46.8026 C147.5717,47.8286 149.2127,45.0216 147.3877,43.9956 C143.3457,41.7226 143.2967,35.8376 139.1167,33.5736 C136.3297,32.0636 132.2017,32.3076 130.4437,35.1846 C129.3517,36.9746 132.1607,38.6096 133.2507,36.8256" id="Fill-32" fill="#000000"></path>
                <path d="M144.9421,45.3988 C144.8891,48.0458 143.3971,50.0928 140.6201,50.2508 C138.5401,50.3688 138.5261,53.6198 140.6201,53.5008 C142.7321,53.3808 144.6651,52.6358 146.1631,51.0938 C147.6481,49.5658 148.1511,47.4708 148.1921,45.3988 C148.2341,43.3068 144.9841,43.3068 144.9421,45.3988" id="Fill-34" fill="#000000"></path>
                <path d="M141.3308,37.7777 C142.9028,36.0757 144.5858,37.3547 145.6428,38.9527 C146.6098,40.4137 147.2858,41.7707 148.6518,42.9237 C150.2408,44.2647 152.5518,41.9767 150.9498,40.6257 C148.8628,38.8637 148.1898,36.0487 145.7898,34.5487 C143.4518,33.0887 140.8858,33.4727 139.0328,35.4797 C137.6158,37.0137 139.9088,39.3187 141.3308,37.7777" id="Fill-36" fill="#000000"></path>
                <path d="M148.1765,41.7748 C148.1675,42.1408 148.1325,42.4638 147.9905,42.8108 C147.9445,42.9248 147.7325,43.2258 147.6415,43.3198 C147.3525,43.6218 146.9765,43.7628 146.5675,43.7738 C144.4795,43.8288 144.4715,47.0788 146.5675,47.0238 C149.4755,46.9478 151.3625,44.5728 151.4265,41.7748 C151.4745,39.6818 148.2245,39.6828 148.1765,41.7748" id="Fill-38" fill="#000000"></path>
                <path d="M146.7292,38.0316 C148.5762,36.8546 149.7682,39.3516 150.7842,40.4446 C152.2092,41.9806 154.5042,39.6776 153.0822,38.1466 C151.9452,36.9246 151.2202,35.4686 149.5622,34.8556 C148.1162,34.3206 146.4082,34.3846 145.0892,35.2246 C143.3312,36.3466 144.9592,39.1606 146.7292,38.0316" id="Fill-40" fill="#000000"></path>
                <path d="M150.3074,39.2963 C150.3084,39.3543 150.3064,39.4103 150.3014,39.4683 C150.2914,39.5943 150.3004,39.5443 150.3274,39.3193 C150.3444,39.3403 150.2844,39.5153 150.2764,39.5433 C150.2274,39.7223 150.0964,39.8233 150.2754,39.5873 C150.2204,39.6583 150.1604,39.7633 150.1234,39.8433 C150.0584,39.9913 150.3574,39.6273 150.1054,39.8523 C150.0754,39.8793 149.8054,40.1173 149.9704,39.9883 C150.1374,39.8573 149.8184,40.0803 149.7824,40.1013 C149.7334,40.1293 149.3474,40.3083 149.5964,40.2073 C148.8104,40.5243 148.1694,41.3053 148.4614,42.2063 C148.7064,42.9663 149.6164,43.6813 150.4604,43.3413 C152.2404,42.6253 153.5154,41.2963 153.5574,39.2963 C153.5754,38.4453 152.7974,37.6323 151.9324,37.6713 C151.0364,37.7113 150.3274,38.3853 150.3074,39.2963" id="Fill-42" fill="#000000"></path>
                <path d="M150.6218,38.2162 C150.4638,38.3032 150.0498,38.2162 150.3608,38.2962 C150.5088,38.3342 150.6558,38.3752 150.8038,38.4162 C151.0238,38.4792 151.3998,38.6422 151.6208,38.6022 C151.7468,38.6372 151.6908,38.6112 151.4528,38.5252 C151.0038,37.7792 150.8408,37.6032 150.9658,37.9942 C150.9558,37.9282 150.9468,37.8622 150.9368,37.7962 C150.9318,37.9782 150.9378,37.9492 150.9568,37.7132 C150.8198,38.0182 151.0998,37.5282 150.9138,37.8372 C150.7858,38.0502 150.6638,38.2662 150.5288,38.4762 C150.0558,39.2152 150.3778,40.2692 151.1118,40.6992 C151.8978,41.1582 152.8598,40.8572 153.3358,40.1162 C153.7628,39.4502 154.1708,38.7252 154.1858,37.9112 C154.2018,37.0822 153.8668,36.1872 153.1278,35.7442 C152.6368,35.4502 152.0648,35.3922 151.5228,35.2402 C150.6488,34.9972 149.7968,34.9602 148.9808,35.4092 C148.2128,35.8332 147.9628,36.8892 148.3978,37.6332 C148.8508,38.4072 149.8508,38.6412 150.6218,38.2162" id="Fill-44" fill="#000000"></path>
                <path d="M73.5339,77.804 C66.6239,76.097 60.0289,80.07 53.0539,78.089 C45.9959,76.086 44.3549,69.299 39.9969,64.359 C36.0439,59.877 30.9909,59.606 25.3609,60.205 C21.7599,60.589 18.1649,61.06 14.5679,61.487 C12.9519,61.679 10.8099,62.331 9.1719,62.127 C5.2479,61.638 3.7799,58.266 4.0809,54.721 C4.2579,52.637 1.0069,52.649 0.8309,54.721 C0.2639,61.388 1.4459,65.995 9.1719,65.377 C13.3729,65.041 17.5769,64.379 21.7629,63.883 C26.8259,63.282 32.7119,61.83 36.8439,65.737 C41.5969,70.232 42.8669,76.831 49.0549,80.002 C51.9529,81.488 55.2989,82.053 58.5319,82.028 C63.3579,81.991 67.8429,79.745 72.6699,80.938 C74.6999,81.439 75.5659,78.305 73.5339,77.804" id="Fill-46" fill="#000000"></path>
                <path d="M4.0808,54.7211 C4.5888,50.6891 7.0658,48.2001 8.6418,44.6181 C10.6468,40.0601 10.1638,34.7451 13.6638,30.8611 C15.0598,29.3111 12.7688,27.0051 11.3648,28.5631 C7.7158,32.6131 7.8518,37.4131 6.0828,42.3031 C4.4248,46.8861 1.4598,49.7281 0.8308,54.7211 C0.5698,56.7901 3.8218,56.7711 4.0808,54.7211" id="Fill-48" fill="#000000"></path>
                <path d="M43.0994,5.3959 C53.5784,3.8479 63.1434,3.1449 73.1374,7.3639 C75.0414,8.1669 76.7004,5.3699 74.7784,4.5579 C63.9484,-0.0141 53.6324,0.5789 42.2354,2.2619 C40.1734,2.5659 41.0504,5.6989 43.0994,5.3959" id="Fill-50" fill="#000000"></path>
                <path d="M13.6638,30.8607 C14.9888,29.2817 15.6428,27.6637 16.4478,25.8087 C18.2968,21.5537 21.1118,18.8897 24.6788,16.0687 C30.6818,11.3187 35.1268,6.6237 43.0998,5.3957 C45.1598,5.0787 44.2848,1.9457 42.2348,2.2617 C34.3958,3.4687 29.8118,7.7077 23.9218,12.5537 C21.0118,14.9487 18.0118,17.0377 15.7938,20.1637 C13.9448,22.7667 13.4018,26.1357 11.3648,28.5627 C10.0288,30.1547 12.3168,32.4647 13.6638,30.8607" id="Fill-52" fill="#000000"></path>
                <path d="M73.5251,7.5277 C80.2721,10.1247 87.1601,8.3207 94.0461,9.7447 C99.5681,10.8867 103.4811,14.9757 108.6281,16.9237 C110.5861,17.6647 111.4321,14.5237 109.4921,13.7897 C104.3101,11.8287 100.5041,7.8067 94.9101,6.6107 C88.0371,5.1407 81.1231,6.9857 74.3891,4.3937 C72.4361,3.6417 71.5901,6.7827 73.5251,7.5277" id="Fill-54" fill="#000000"></path>
                <path d="M108.6277,16.9232 C113.4847,18.5692 116.8937,21.2022 119.0937,25.8412 C120.4767,28.7592 121.4687,31.7192 123.8137,34.0462 C125.2997,35.5212 127.5997,33.2242 126.1117,31.7472 C123.3807,29.0372 122.6587,25.0962 120.6817,21.8952 C118.0937,17.7072 114.0647,15.3402 109.4917,13.7892 C107.5067,13.1162 106.6537,16.2542 108.6277,16.9232" id="Fill-56" fill="#000000"></path>
                <path d="M46.6931,74.1507 C44.3291,71.0297 40.6681,68.4517 36.8321,67.4887 C32.0471,66.2867 29.0451,70.0647 24.7891,71.3797 C21.3411,72.4447 18.5161,71.6697 15.3911,70.2257 C14.0741,69.6177 12.7121,68.6587 11.2271,68.5377 C8.4981,68.3147 7.8841,70.2827 8.2961,72.6457 C8.6531,74.7027 11.7861,73.8307 11.4291,71.7817 C11.5511,72.4847 15.5011,73.9667 16.4311,74.3097 C19.1721,75.3207 22.1241,75.4287 24.9461,74.7167 C28.1061,73.9217 30.6031,71.1887 33.6941,70.5657 C37.2601,69.8457 41.8811,73.1417 43.8871,75.7917 C45.1331,77.4377 47.9571,75.8197 46.6931,74.1507" id="Fill-58" fill="#000000"></path>
                <path d="M12.615,72.4495 C15.489,73.7745 18.079,73.5075 20.415,71.1915 C23.824,67.8125 24.748,63.4135 30.401,63.2235 C32.487,63.1535 32.496,59.9035 30.401,59.9735 C27.616,60.0675 24.959,60.8615 22.867,62.7785 C20.452,64.9905 18.277,71.4975 14.256,69.6425 C12.369,68.7735 10.716,71.5735 12.615,72.4495" id="Fill-60" fill="#000000"></path>
                <path d="M8.2957,72.6458 C10.0427,78.5658 17.0687,80.5968 22.6177,81.0658 C26.9197,81.4288 31.0797,80.1688 35.1337,78.8718 C40.3317,77.2078 43.5947,77.1808 48.6097,79.7708 C50.4657,80.7288 52.1107,77.9258 50.2497,76.9648 C44.7217,74.1098 40.9447,73.5818 35.0387,75.4858 C30.8597,76.8328 26.6767,78.2528 22.2277,77.7408 C18.3327,77.2918 12.6977,76.0798 11.4297,71.7818 C10.8387,69.7798 7.7007,70.6318 8.2957,72.6458" id="Fill-62" fill="#000000"></path>
                <path d="M5.7087,49.5238 C7.5877,47.2718 13.6967,49.0208 16.2437,49.1688 C19.4887,49.3548 22.5917,49.1668 25.4257,47.4488 C27.2117,46.3658 25.5797,43.5528 23.7847,44.6418 C19.9577,46.9628 15.1087,45.7668 10.9067,45.4198 C8.3127,45.2048 5.2317,45.0428 3.4107,47.2258 C2.0797,48.8218 4.3667,51.1318 5.7087,49.5238" id="Fill-64" fill="#000000"></path>
                <path d="M9.072,43.4965 C10.358,41.5295 15.534,42.9055 17.401,43.1185 C20.66,43.4915 23.791,43.5905 26.911,42.4705 C28.865,41.7675 28.022,38.6265 26.047,39.3365 C21.649,40.9155 17.374,39.5685 12.898,39.3785 C10.311,39.2675 7.782,39.5385 6.266,41.8555 C5.118,43.6115 7.93,45.2415 9.072,43.4965" id="Fill-66" fill="#000000"></path>
                <path d="M10.4949,37.7386 C11.9729,34.4626 18.9749,36.7846 21.2869,37.2396 C24.2269,37.8186 26.9039,37.9816 29.7659,36.9676 C31.7229,36.2736 30.8799,33.1326 28.9009,33.8336 C23.9429,35.5916 19.0949,32.7366 14.0539,32.9586 C11.5759,33.0666 8.7959,33.6436 7.6889,36.0986 C6.8369,37.9906 9.6369,39.6446 10.4949,37.7386" id="Fill-68" fill="#000000"></path>
                <path d="M13.6638,30.8607 C16.6598,28.1387 22.6108,31.0787 25.8578,32.0947 C28.5888,32.9507 31.1568,33.3707 33.7138,31.8657 C35.5148,30.8057 33.8818,27.9957 32.0728,29.0597 C28.7808,30.9977 22.8358,27.5117 19.3668,26.8437 C16.3188,26.2577 13.7078,26.4347 11.3648,28.5627 C9.8128,29.9717 12.1178,32.2647 13.6638,30.8607" id="Fill-70" fill="#000000"></path>
                <path d="M17.5623,23.4447 C20.6893,20.0747 26.8783,23.7947 30.0593,25.3817 C32.7503,26.7247 35.2473,27.7717 38.2853,27.3487 C40.3473,27.0617 39.4693,23.9297 37.4203,24.2157 C33.0453,24.8237 28.2483,20.3997 23.9813,19.3537 C20.7923,18.5717 17.6193,18.6087 15.2633,21.1467 C13.8423,22.6777 16.1353,24.9817 17.5623,23.4447" id="Fill-72" fill="#000000"></path>
                <path d="M25.948,15.0267 C29.758,12.3497 34.08,16.6007 36.848,18.8747 C39.02,20.6597 41.217,22.0837 43.944,22.8357 C45.963,23.3917 46.825,20.2567 44.807,19.7017 C38.414,17.9387 31.829,6.9357 24.308,12.2207 C22.609,13.4147 24.232,16.2337 25.948,15.0267" id="Fill-74" fill="#000000"></path>
                <path d="M42.6677,5.4535 C46.7837,5.0015 48.4357,8.6375 49.9687,11.7945 C51.2237,14.3775 52.6717,16.8795 55.2637,18.3015 C57.0977,19.3075 58.7387,16.5025 56.9027,15.4945 C53.4797,13.6155 52.7607,9.1935 50.6327,6.2125 C48.7167,3.5275 46.0427,1.8325 42.6677,2.2035 C40.6107,2.4305 40.5877,5.6825 42.6677,5.4535" id="Fill-76" fill="#000000"></path>
                <path d="M55.8494,3.9672 C62.4444,4.4752 59.8114,14.6122 64.9214,17.3362 C66.7664,18.3212 68.4104,15.5162 66.5624,14.5302 C63.7224,13.0162 63.9644,7.3402 62.4094,4.7282 C60.9714,2.3152 58.6114,0.9302 55.8494,0.7172 C53.7644,0.5562 53.7744,3.8072 55.8494,3.9672" id="Fill-78" fill="#000000"></path>
                <path d="M62.9998,4.4271 C66.2708,5.4131 65.9778,10.0921 66.7258,12.7261 C67.2908,14.7141 68.2808,16.6881 70.1688,17.6811 C72.0188,18.6551 73.6628,15.8501 71.8098,14.8741 C69.0378,13.4161 69.4768,8.3711 68.4648,5.8461 C67.5828,3.6411 66.1828,1.9921 63.8638,1.2931 C61.8568,0.6891 60.9998,3.8241 62.9998,4.4271" id="Fill-80" fill="#000000"></path>
                <path d="M70.5574,6.3334 C73.4084,7.3144 73.2034,11.8454 73.6774,14.1764 C74.0834,16.1754 74.9104,17.8154 76.6004,18.9924 C78.3214,20.1894 79.9474,17.3744 78.2404,16.1864 C75.9434,14.5874 76.6214,9.9694 75.6544,7.5994 C74.8404,5.6074 73.4884,3.9104 71.4204,3.1994 C69.4394,2.5174 68.5874,5.6544 70.5574,6.3334" id="Fill-82" fill="#000000"></path>
                <path d="M77.5027,8.7445 C79.3647,9.3285 79.1407,14.3205 79.4337,15.7175 C79.8787,17.8425 80.8107,19.6405 82.5557,20.9485 C84.2307,22.2035 85.8517,19.3835 84.1957,18.1415 C80.3377,15.2515 84.0017,7.3765 78.3657,5.6105 C76.3657,4.9845 75.5097,8.1205 77.5027,8.7445" id="Fill-84" fill="#000000"></path>
                <path d="M81.9128,9.1771 C83.6438,9.6201 83.6148,15.1061 84.0418,16.6471 C84.5588,18.5181 85.3388,20.2831 86.8098,21.5931 C88.3688,22.9801 90.6748,20.6901 89.1088,19.2951 C85.3978,15.9931 88.3068,7.4591 82.7758,6.0431 C80.7488,5.5251 79.8848,8.6571 81.9128,9.1771" id="Fill-86" fill="#000000"></path>
                <path d="M87.2253,9.2357 C90.3353,9.5047 90.2473,14.0027 90.5013,16.2417 C90.7263,18.2207 91.1323,20.1497 92.3583,21.7647 C93.6073,23.4097 96.4303,21.7917 95.1643,20.1247 C92.9833,17.2507 93.9933,13.2677 92.6313,10.0447 C91.5913,7.5837 89.9053,6.2167 87.2253,5.9857 C85.1413,5.8047 85.1543,9.0557 87.2253,9.2357" id="Fill-88" fill="#000000"></path>
                <path d="M95.5564,10.059 C98.1704,11.317 97.5774,14.631 97.5924,17.037 C97.6064,19.182 98.0754,21.255 99.5404,22.878 C100.9464,24.434 103.2394,22.129 101.8394,20.58 C99.9794,18.522 101.0934,14.726 100.6454,12.167 C100.2624,9.98 99.2444,8.238 97.1964,7.253 C95.3204,6.351 93.6694,9.153 95.5564,10.059" id="Fill-90" fill="#000000"></path>
                <path d="M107.699,22.3617 C106.46,20.8317 107.289,17.8997 107.139,16.0637 C107.001,14.3517 106.551,12.6227 105.151,11.5157 C103.527,10.2327 101.213,12.5177 102.853,13.8137 C104.388,15.0267 103.924,17.5557 103.873,19.2867 C103.812,21.3337 104.095,23.0487 105.4,24.6597 C106.718,26.2857 109.004,23.9737 107.699,22.3617" id="Fill-92" fill="#000000"></path>
                <path d="M112.2722,25.847 C111.7722,22.061 115.6992,16.803 110.8792,14.269 C109.0302,13.296 107.3852,16.1 109.2392,17.076 C110.5432,17.76 110.1262,19.481 109.8272,20.679 C109.3842,22.45 108.7762,23.984 109.0222,25.847 C109.2922,27.891 112.5452,27.917 112.2722,25.847" id="Fill-94" fill="#000000"></path>
                <path d="M113.8484,19.3129 C115.6464,21.0239 113.6444,23.7849 113.2444,25.7899 C112.9084,27.4809 112.7714,29.2839 113.7544,30.7859 C114.8954,32.5289 117.7104,30.9019 116.5614,29.1449 C115.3024,27.2229 117.3504,24.1099 117.7534,22.1759 C118.1724,20.1669 117.6274,18.4239 116.1464,17.0139 C114.6304,15.5729 112.3284,17.8679 113.8484,19.3129" id="Fill-96" fill="#000000"></path>
                <path d="M119.5037,32.347 C118.5977,31.114 119.7627,29.027 120.3037,27.831 C121.0787,26.118 121.4577,24.448 120.9577,22.596 C120.4127,20.579 117.2757,21.435 117.8237,23.46 C118.3877,25.544 116.6347,27.546 116.1957,29.553 C115.8737,31.028 115.7597,32.71 116.6967,33.988 C117.9227,35.656 120.7447,34.036 119.5037,32.347" id="Fill-98" fill="#000000"></path>
            </g>
            <g id="shadow" transform="translate(17.000000, 73.000000)">
                <path d="M45.5427,5.4212 C52.1337,5.5382 58.4697,9.1132 65.0537,9.9602 C76.6777,11.4542 89.4157,11.0932 99.8127,5.1612 C101.6287,4.1252 99.9937,1.3162 98.1727,2.3552 C87.5447,8.4182 73.3867,8.5132 61.6167,6.1272 C56.1927,5.0282 51.1437,2.2712 45.5427,2.1712 C43.4507,2.1332 43.4497,5.3832 45.5427,5.4212" id="Fill-20" fill="#000000"></path>
                <path d="M25.4832,8.5862 C28.0102,8.5242 30.4622,8.0252 32.9192,7.4602 C34.9562,6.9902 34.0932,3.8572 32.0542,4.3262 C29.8772,4.8272 27.7252,5.2812 25.4832,5.3362 C23.3962,5.3882 23.3872,8.6382 25.4832,8.5862" id="Fill-100" fill="#000000"></path>
                <path d="M100.0583,5.2796 C114.8853,4.9346 129.7013,5.4426 144.4743,6.7386 C146.5573,6.9216 146.5453,3.6706 144.4743,3.4886 C129.7013,2.1926 114.8853,1.6846 100.0583,2.0296 C97.9703,2.0776 97.9623,5.3276 100.0583,5.2796" id="Fill-102" fill="#000000"></path>
                <path d="M45.5437,8.7513 C49.1137,8.8973 52.6767,9.1323 56.2127,9.6503 C58.2587,9.9503 59.1427,6.8193 57.0767,6.5173 C53.2487,5.9553 49.4087,5.6583 45.5437,5.5013 C43.4527,5.4153 43.4567,8.6663 45.5437,8.7513" id="Fill-104" fill="#000000"></path>
                <path d="M25.4871,8.5872 C28.7751,8.5362 32.0631,8.5142 35.3521,8.5312 C37.4431,8.5432 37.4461,5.2932 35.3521,5.2812 C32.0631,5.2642 28.7751,5.2862 25.4871,5.3372 C23.3971,5.3702 23.3911,8.6202 25.4871,8.5872" id="Fill-106" fill="#000000"></path>
                <path d="M3.4646,6.4886 C3.4576,6.5076 3.4506,6.5246 3.4436,6.5436 C3.1446,7.3496 3.7826,8.3466 4.5796,8.5426 C7.1666,9.1746 10.2806,8.7706 12.9086,8.7496 C17.1016,8.7156 21.2946,8.6516 25.4866,8.5876 C27.5756,8.5556 27.5816,5.3056 25.4866,5.3376 C21.6246,5.3966 17.7626,5.4506 13.9016,5.4896 C11.2766,5.5166 8.0136,6.0356 5.4436,5.4076 C5.8216,6.0746 6.1996,6.7406 6.5776,7.4066 C6.5846,7.3886 6.5916,7.3706 6.5986,7.3526 C7.3286,5.3896 4.1896,4.5426 3.4646,6.4886" id="Fill-108" fill="#000000"></path>
                <path d="M56.6453,9.7083 C63.2153,10.5533 69.8133,10.7153 76.4313,10.7183 C78.5223,10.7193 78.5263,7.4693 76.4313,7.4683 C69.8133,7.4653 63.2153,7.3033 56.6453,6.4583 C54.5763,6.1923 54.5953,9.4453 56.6453,9.7083" id="Fill-110" fill="#000000"></path>
                <path d="M76.4314,10.7181 C97.6504,10.7431 118.8334,11.6841 140.0554,10.7141 C142.1384,10.6191 142.1504,7.3681 140.0554,7.4641 C118.8334,8.4341 97.6504,7.4931 76.4314,7.4681 C74.3394,7.4651 74.3364,10.7151 76.4314,10.7181" id="Fill-112" fill="#000000"></path>
                <path d="M140.0554,10.7142 C142.8954,10.5872 145.7354,10.4502 148.5754,10.3182 C150.6574,10.2222 150.6684,6.9722 148.5754,7.0682 C145.7354,7.2002 142.8954,7.3372 140.0554,7.4642 C137.9724,7.5582 137.9614,10.8082 140.0554,10.7142" id="Fill-114" fill="#000000"></path>
                <path d="M143.6541,6.5169 C145.0001,7.2779 146.4351,7.8449 147.9461,8.1749 C149.9851,8.6199 150.8561,5.4879 148.8101,5.0409 C147.5521,4.7669 146.4141,4.3429 145.2951,3.7099 C143.4711,2.6789 141.8321,5.4859 143.6541,6.5169" id="Fill-116" fill="#000000"></path>
                <path d="M144.5886,6.7698 C145.8296,6.6628 147.0726,6.6118 148.3186,6.5858 C150.4076,6.5428 150.4146,3.2928 148.3186,3.3358 C147.0726,3.3618 145.8296,3.4128 144.5886,3.5198 C143.7136,3.5958 142.9636,4.2118 142.9636,5.1448 C142.9636,5.9648 143.7086,6.8458 144.5886,6.7698" id="Fill-118" fill="#000000"></path>
                <path d="M39.5251,6.0276 C33.0291,5.6976 26.5191,6.0756 20.0221,6.1736 C14.7821,6.2516 7.6241,7.0916 2.8731,4.4896 C1.0381,3.4846 -0.6039,6.2906 1.2331,7.2966 C5.8781,9.8406 12.1821,9.4686 17.2961,9.4516 C24.7031,9.4246 32.1211,8.9016 39.5251,9.2776 C41.6161,9.3836 41.6101,6.1326 39.5251,6.0276" id="Fill-120" fill="#000000"></path>
                <path d="M80.5095,7.6595 C74.1315,7.7245 67.7375,7.9315 61.3625,7.6295 C54.7425,7.3155 48.1885,6.2765 41.5615,6.0555 C39.4695,5.9855 39.4715,9.2355 41.5615,9.3055 C48.1885,9.5265 54.7425,10.5655 61.3625,10.8795 C67.7375,11.1815 74.1315,10.9745 80.5095,10.9095 C82.5995,10.8885 82.6055,7.6385 80.5095,7.6595" id="Fill-122" fill="#000000"></path>
                <path d="M89.0007,7.7112 C86.1707,7.6412 83.3407,7.6372 80.5097,7.6592 C78.4197,7.6762 78.4147,10.9262 80.5097,10.9092 C83.3407,10.8872 86.1707,10.8912 89.0007,10.9612 C91.0927,11.0132 91.0917,7.7632 89.0007,7.7112" id="Fill-124" fill="#000000"></path>
                <path d="M16.8796,6.2659 C20.9126,5.9109 24.9056,5.2149 28.9456,4.9309 C31.0206,4.7849 31.0366,1.5339 28.9456,1.6809 C24.9056,1.9649 20.9126,2.6609 16.8796,3.0159 C14.8126,3.1989 14.7926,6.4509 16.8796,6.2659" id="Fill-126" fill="#000000"></path>
                <path d="M101.5359,4.1819 C111.6749,4.1389 121.6809,4.5779 131.8039,4.9089 C133.8949,4.9769 133.8929,1.7269 131.8039,1.6589 C121.6809,1.3279 111.6759,0.8889 101.5359,0.9319 C99.4449,0.9409 99.4409,4.1909 101.5359,4.1819" id="Fill-128" fill="#000000"></path>
                <path d="M131.8035,4.9085 C137.3915,5.0785 142.9385,5.6045 148.4785,6.3425 C150.5455,6.6175 150.5255,3.3645 148.4785,3.0925 C142.9385,2.3545 137.3915,1.8285 131.8035,1.6585 C129.7115,1.5955 129.7135,4.8455 131.8035,4.9085" id="Fill-130" fill="#000000"></path>
                <path d="M55.8943,7.2952 C47.9573,6.4632 40.0753,6.9042 32.1243,7.1022 C28.1333,7.2002 24.1453,7.1642 20.1553,7.0142 C18.1143,6.9372 15.0183,6.2052 13.0833,6.9922 C11.9313,7.4622 11.2993,9.2872 12.6963,9.9632 C12.7643,9.9962 12.8333,10.0292 12.9023,10.0632 C14.7773,10.9712 16.4263,8.1692 14.5423,7.2562 C14.4743,7.2232 14.4053,7.1902 14.3363,7.1562 C14.2063,8.1472 14.0783,9.1372 13.9483,10.1272 C15.7663,9.3862 19.2353,10.2362 21.1773,10.3052 C25.3453,10.4502 29.5193,10.4472 33.6873,10.3062 C41.1093,10.0552 48.4873,9.7692 55.8943,10.5452 C57.9723,10.7632 57.9573,7.5122 55.8943,7.2952" id="Fill-132" fill="#000000"></path>
                <path d="M17.9753,10.1741 C24.7273,10.4141 31.4133,9.3031 38.1703,9.2801 C40.2613,9.2741 40.2663,6.0241 38.1703,6.0301 C31.4133,6.0531 24.7283,7.1641 17.9753,6.9241 C15.8833,6.8501 15.8863,10.1001 17.9753,10.1741" id="Fill-134" fill="#000000"></path>
                <path d="M13.2908,10.2269 C20.1448,12.0719 28.7248,11.0409 35.7468,10.9329 C44.1248,10.8029 52.4458,10.5219 60.8228,10.8669 C62.9138,10.9529 62.9098,7.7029 60.8228,7.6169 C53.0258,7.2949 45.2878,7.5019 37.4908,7.6519 C33.0788,7.7369 28.6688,7.7399 24.2568,7.6519 C21.0448,7.5869 17.2828,7.9349 14.1538,7.0929 C12.1328,6.5489 11.2698,9.6829 13.2908,10.2269" id="Fill-136" fill="#000000"></path>
                <path d="M11.1667,7.8968 C17.8707,7.8848 24.5717,8.1388 31.2717,7.8098 C33.3537,7.7088 33.3657,4.4578 31.2717,4.5598 C24.5717,4.8888 17.8707,4.6348 11.1667,4.6468 C9.0757,4.6508 9.0717,7.9008 11.1667,7.8968" id="Fill-138" fill="#000000"></path>
                <path d="M13.1843,7.303 C19.5513,7.056 25.9153,7.463 32.2843,7.36 C34.3733,7.325 34.3793,4.075 32.2843,4.11 C25.9153,4.213 19.5513,3.806 13.1843,4.053 C11.0993,4.133 11.0883,7.384 13.1843,7.303" id="Fill-140" fill="#000000"></path>
                <path d="M16.5496,6.4144 C21.3856,6.2764 26.1666,7.2534 31.0036,6.8694 C33.0736,6.7054 33.0916,3.4544 31.0036,3.6194 C26.1676,4.0024 21.3856,3.0264 16.5496,3.1644 C14.4626,3.2244 14.4536,6.4744 16.5496,6.4144" id="Fill-142" fill="#000000"></path>
                <path d="M16.8796,6.2659 C21.3436,5.9169 25.8036,6.1359 30.2716,6.2629 C32.3636,6.3229 32.3616,3.0729 30.2716,3.0129 C25.8036,2.8849 21.3436,2.6669 16.8796,3.0159 C14.8086,3.1779 14.7906,6.4289 16.8796,6.2659" id="Fill-144" fill="#000000"></path>
                <path d="M21.5203,5.5648 C24.0533,5.3248 26.5903,5.3738 29.1323,5.4178 C31.2243,5.4538 31.2243,2.2038 29.1323,2.1678 C26.5903,2.1238 24.0543,2.0748 21.5203,2.3148 C19.4563,2.5098 19.4353,5.7618 21.5203,5.5648" id="Fill-146" fill="#000000"></path>
                <path d="M101.3386,4.4583 C101.6936,4.4503 102.0646,4.4443 102.4116,4.3623 C102.5546,4.3293 103.0476,4.2113 102.3406,4.3083 C101.9456,4.2623 101.8956,4.2913 102.1876,4.3963 C102.3536,4.4953 102.5276,4.5793 102.7086,4.6483 C102.9066,4.7363 103.1066,4.8183 103.3126,4.8873 C104.3826,5.2423 105.5716,5.3153 106.6876,5.3903 C108.7756,5.5283 108.7666,2.2773 106.6876,2.1403 C105.8286,2.0823 104.8706,2.0443 104.0616,1.7173 C103.4976,1.4883 102.9956,1.1093 102.3596,1.1003 C101.9326,1.0943 101.6796,1.2003 101.3386,1.2083 C99.2506,1.2543 99.2426,4.5043 101.3386,4.4583" id="Fill-148" fill="#000000"></path>
                <path d="M105.8123,4.1761 C107.1843,4.1821 108.8283,4.0761 110.1253,4.4221 C110.4953,4.5211 110.6363,4.6751 111.0723,4.9011 C111.8383,5.3001 112.7513,5.3491 113.5933,5.4371 C115.6703,5.6551 115.6563,2.4031 113.5933,2.1871 C113.3853,2.1651 112.5983,2.0381 112.5703,2.0281 C112.9453,2.1591 112.4503,1.9081 112.2653,1.7931 C111.7743,1.4881 111.2413,1.3331 110.6713,1.2311 C109.0743,0.9441 107.4293,0.9331 105.8123,0.9261 C103.7203,0.9171 103.7183,4.1671 105.8123,4.1761" id="Fill-150" fill="#000000"></path>
                <path d="M116.7058,4.2747 C117.5008,4.3017 118.4288,4.3457 119.0108,4.4377 C119.0818,4.4487 119.1518,4.4797 119.2238,4.4877 C119.4808,4.5157 119.2758,4.4737 119.2438,4.4827 C119.1218,4.5157 119.1098,4.4157 119.2848,4.5447 L118.7018,3.9617 C118.7218,3.9997 118.7418,4.0377 118.7628,4.0757 L118.7628,2.4357 C117.7298,4.7977 120.0108,5.3587 121.8408,5.5107 C123.9258,5.6847 123.9138,2.4337 121.8408,2.2607 C121.5568,2.2377 121.3158,2.2097 121.0398,2.1557 C120.7118,2.0917 121.0238,2.2017 120.9178,2.1237 L121.5008,2.7067 C121.4928,2.6927 121.4858,2.6787 121.4778,2.6657 C121.5328,3.0827 121.5878,3.5007 121.6428,3.9177 C121.5118,4.2047 121.5418,4.1277 121.7318,3.6877 C121.8098,3.3997 121.8098,3.1117 121.7318,2.8237 C121.6068,2.3677 121.3128,1.9977 120.9248,1.7387 C120.7108,1.5947 120.4978,1.4907 120.2448,1.4057 C119.1438,1.0337 117.8518,1.0647 116.7058,1.0247 C114.6138,0.9537 114.6158,4.2037 116.7058,4.2747" id="Fill-152" fill="#000000"></path>
                <path d="M128.8152,2.43 C128.8242,2.43 128.1802,2.337 128.5032,2.402 C128.4242,2.386 128.3032,2.333 128.2282,2.34 C128.0932,2.299 128.1682,2.332 128.4512,2.439 C128.6232,3.117 128.7942,3.793 128.9662,4.471 C128.9842,4.459 128.9982,4.406 129.0112,4.389 C129.3992,3.928 129.3052,3.063 129.0342,2.589 C128.4022,1.487 126.8902,1.466 125.7832,1.404 C124.9062,1.355 124.1582,2.186 124.1582,3.029 C124.1582,3.95 124.9032,4.605 125.7832,4.654 C125.9912,4.665 126.1982,4.684 126.4062,4.697 C126.7182,4.716 126.3802,4.681 126.5062,4.703 C126.7352,4.745 127.1682,4.963 126.6702,4.689 C126.4612,4.573 126.0192,3.933 126.0162,3.458 C126.0152,3.188 126.1442,2.954 126.2112,2.739 C126.1552,2.918 126.0442,3.039 125.9852,3.246 C125.7642,4.024 126.1222,4.84 126.8112,5.245 C127.4032,5.594 128.1522,5.62 128.8152,5.68 C129.6912,5.757 130.4402,4.877 130.4402,4.055 C130.4402,3.111 129.6932,2.507 128.8152,2.43" id="Fill-154" fill="#000000"></path>
                <path d="M134.5134,2.8724 C134.5844,2.9334 134.6574,2.9924 134.7284,3.0534 C134.8674,3.2924 135.0064,3.5314 135.1464,3.7694 C135.1444,3.7594 135.1424,3.7474 135.1394,3.7354 C135.0854,4.1534 135.0314,4.5704 134.9764,4.9874 C134.9834,4.9764 134.9914,4.9664 134.9984,4.9544 L134.4154,5.5374 C134.5344,5.4614 134.4734,5.4844 134.2304,5.6074 C134.2994,5.5864 134.3694,5.5654 134.4414,5.5484 C134.5964,5.5064 134.7544,5.4724 134.9094,5.4264 C135.0144,5.3954 135.1164,5.3594 135.2184,5.3214 C135.9214,5.0564 136.4864,4.6114 136.5934,3.8144 C136.8704,1.7504 134.3564,1.7374 132.9934,1.6884 C132.1434,1.6574 131.3294,2.4574 131.3684,3.3134 C131.4094,4.2204 132.0824,4.9054 132.9934,4.9384 C133.2484,4.9474 133.5044,4.9584 133.7594,4.9744 C133.8714,4.9814 133.9834,4.9884 134.0944,4.9994 C134.1604,5.0054 134.4924,5.0554 134.1954,5.0034 C133.9094,4.9544 134.2774,5.0304 134.3454,5.0374 C134.3724,5.0404 134.4104,5.0674 134.4374,5.0644 C134.0224,5.1114 133.4614,4.2444 133.4304,4.0304 L133.4304,3.1664 C133.4874,2.8224 133.9124,2.3994 134.0684,2.3044 C133.8354,2.4464 134.4754,2.1654 134.2874,2.2134 C134.0504,2.2734 133.8144,2.3504 133.5764,2.4134 C133.0054,2.5674 132.5104,2.8154 132.1814,3.3314 C131.6684,4.1304 132.0484,5.2664 132.8724,5.6794 C133.6314,6.0584 134.6674,5.9054 135.0964,5.0964 C135.4854,4.3584 135.3254,3.2784 134.5134,2.8724" id="Fill-156" fill="#000000"></path>
                <path d="M138.8708,5.1741 C139.0958,5.1891 139.3208,5.2031 139.5448,5.2251 C139.5898,5.2301 139.6338,5.2351 139.6778,5.2381 C139.8748,5.2621 139.8378,5.2561 139.5678,5.2221 C139.5678,5.2221 139.7708,5.2631 139.7878,5.2651 C139.8198,5.2721 139.8518,5.2811 139.8848,5.2921 C139.5138,5.1861 139.2238,4.9601 139.0128,4.6131 C138.9388,4.3401 138.8648,4.0671 138.7908,3.7941 L138.8438,3.3871 C138.9828,3.1491 139.1228,2.9091 139.2618,2.6701 C139.3238,2.5931 139.5468,2.4891 139.6608,2.4031 C139.8698,2.2441 139.6338,2.3911 139.5288,2.4151 C139.2978,2.4711 139.0628,2.5111 138.8318,2.5661 C138.4308,2.6581 137.9828,2.7781 137.6368,3.0021 C136.8428,3.5171 136.5518,4.4851 137.0138,5.3311 C137.4318,6.0971 138.2928,6.2091 139.0618,6.2901 C139.9108,6.3781 140.7248,5.4791 140.6868,4.6651 C140.6438,3.7081 139.9718,3.1351 139.0618,3.0401 C139.2138,3.0671 139.2128,3.0661 139.0578,3.0361 C138.8718,2.9831 138.9348,3.0111 139.2468,3.1221 L139.8298,3.7051 C139.8228,3.6951 139.8158,3.6871 139.8088,3.6771 C139.8838,3.9501 139.9568,4.2241 140.0308,4.4971 C140.0308,4.4871 140.0298,4.4771 140.0298,4.4671 C139.9558,4.7401 139.8828,5.0141 139.8078,5.2871 C139.6368,5.5921 139.3928,5.7891 139.0768,5.8771 C139.1208,5.8611 139.1658,5.8451 139.2108,5.8301 C139.3158,5.8031 139.4188,5.7681 139.5238,5.7401 C139.8118,5.6661 140.1048,5.6181 140.3928,5.5491 C141.2008,5.3581 141.8918,4.9131 142.0128,4.0231 C142.2658,2.1371 140.1718,2.0081 138.8708,1.9241 C138.0208,1.8681 137.2088,2.7111 137.2458,3.5491 C137.2878,4.4771 137.9608,5.1141 138.8708,5.1741" id="Fill-158" fill="#000000"></path>
                <path d="M142.5652,3.3431 C142.6942,3.3671 142.7112,3.3711 142.6182,3.3531 C142.3532,3.2951 142.5152,3.4051 143.1032,3.6851 C143.2432,3.9231 143.3812,4.1621 143.5212,4.4021 C143.5182,4.3921 143.5152,4.3831 143.5122,4.3731 C143.4582,4.7911 143.4032,5.2081 143.3482,5.6251 C143.3032,5.7261 142.8022,6.2951 142.6252,6.2241 C142.6552,6.2361 142.7912,6.1731 142.8252,6.1641 C143.0082,6.1141 143.1972,6.0771 143.3852,6.0451 C143.8032,5.9711 144.2412,5.9341 144.6462,5.7961 C145.3822,5.5461 145.9932,4.9611 145.9932,4.1341 C145.9932,3.2691 145.3302,2.6361 144.5332,2.4421 C143.7092,2.2401 142.7332,2.7031 142.5342,3.5761 C142.3432,4.4141 142.7862,5.3611 143.6692,5.5751 C143.8822,5.6341 143.8382,5.6111 143.5372,5.5051 C143.2882,5.1821 143.0392,4.8581 142.7902,4.5341 C142.7942,4.5441 142.7962,4.5551 142.8002,4.5661 C142.8552,4.1491 142.9102,3.7311 142.9642,3.3141 C142.9572,3.3241 142.9492,3.3351 142.9422,3.3451 L143.5252,2.7621 C143.8912,2.5381 143.7962,2.6701 143.6172,2.7101 C143.4962,2.7371 143.3772,2.7651 143.2542,2.7881 C142.9892,2.8391 142.7202,2.8731 142.4552,2.9221 C142.0322,3.0001 141.5682,3.1051 141.1972,3.3291 C140.4092,3.8061 140.0702,4.8311 140.5512,5.6541 C140.9842,6.3931 141.7922,6.5181 142.5652,6.5931 C143.4142,6.6751 144.2272,5.7861 144.1902,4.9681 C144.1482,4.0171 143.4742,3.4311 142.5652,3.3431" id="Fill-160" fill="#000000"></path>
                <path d="M48.5066,6.5218 C49.3016,6.2918 50.0816,6.0128 50.9236,6.0808 C51.1056,6.0948 51.2736,6.1568 51.4096,6.2538 C52.4036,6.1398 53.4216,5.9468 54.4116,6.0828 C54.9066,6.1508 55.2776,6.2788 55.7106,6.5118 C55.7426,6.5288 55.7776,6.5428 55.8096,6.5578 C57.0816,6.6958 58.3356,7.0138 59.5246,7.4838 C60.5016,7.8698 60.0756,9.4648 59.0866,9.0738 C57.3996,8.4078 55.6256,8.0508 53.8096,8.1418 C53.2846,8.1678 53.0216,7.7788 53.0156,7.3728 C52.4806,7.4128 51.9406,7.5008 51.4176,7.5648 C51.2776,7.6758 51.1086,7.7448 50.9236,7.7298 C50.2276,7.6728 49.6036,7.9208 48.9446,8.1118 C47.9216,8.4098 47.4866,6.8178 48.5066,6.5218" id="Fill-162" fill="#1D1D1B"></path>
                <path d="M48.5066,6.5218 C49.3016,6.2918 50.0816,6.0128 50.9236,6.0808 C51.1056,6.0948 51.2736,6.1568 51.4096,6.2538 C52.4036,6.1398 53.4216,5.9468 54.4116,6.0828 C54.9066,6.1508 55.2776,6.2788 55.7106,6.5118 C55.7426,6.5288 55.7776,6.5428 55.8096,6.5578 C57.0816,6.6958 58.3356,7.0138 59.5246,7.4838 C60.5016,7.8698 60.0756,9.4648 59.0866,9.0738 C57.3996,8.4078 55.6256,8.0508 53.8096,8.1418 C53.2846,8.1678 53.0216,7.7788 53.0156,7.3728 C52.4806,7.4128 51.9406,7.5008 51.4176,7.5648 C51.2776,7.6758 51.1086,7.7448 50.9236,7.7298 C50.2276,7.6728 49.6036,7.9208 48.9446,8.1118 C47.9216,8.4098 47.4866,6.8178 48.5066,6.5218 Z" id="Stroke-164" stroke="#000000" stroke-width="0.65"></path>
                <path d="M149.4578,5.0267 C148.9618,5.0127 148.4668,4.9867 147.9698,4.9827 C147.6858,4.9807 147.5028,5.1307 147.4098,5.3267 C145.9338,5.1377 144.4618,4.9057 142.9788,4.7437 C142.9088,4.4187 142.6938,4.1237 142.2948,3.9877 C139.9808,3.2007 137.5458,3.5137 135.1508,3.5387 C134.6508,3.5437 134.3398,3.8397 134.2158,4.2047 C133.2818,4.1727 132.3478,4.1517 131.4108,4.1507 C131.3968,4.1507 131.3848,4.1547 131.3708,4.1547 C128.7608,3.9337 126.1368,3.7897 123.5068,3.6927 C123.4638,3.3347 123.2418,3.0057 122.7838,2.8877 C120.7098,2.3547 118.5688,2.8107 116.4548,2.6457 C113.9428,2.4497 111.4268,2.3327 108.9068,2.3017 C108.1538,2.2937 107.8288,2.9497 107.9288,3.5237 C105.6448,3.5317 103.3648,3.5417 101.0978,3.5377 C100.9278,3.5377 100.7788,3.5697 100.6438,3.6167 C100.2038,3.4147 99.6648,3.4247 99.2048,3.8347 C98.6508,4.3267 97.9368,4.5767 97.2558,4.8527 C97.0758,4.8527 96.8958,4.8517 96.7168,4.8517 C96.0618,4.8507 95.6628,5.2457 95.5148,5.7277 C95.3058,5.8157 95.0938,5.8817 94.8778,5.9027 C94.5408,5.9347 94.2738,6.0697 94.0718,6.2577 C93.9018,6.2577 93.7328,6.2537 93.5628,6.2537 C93.0078,6.2537 92.6388,6.5367 92.4468,6.9167 C92.4158,6.9247 92.3868,6.9297 92.3548,6.9437 C91.2578,7.3907 90.0738,7.2907 88.9198,7.4357 C88.7208,7.4617 88.5348,7.5277 88.3818,7.6307 C88.0978,7.6687 87.8118,7.7087 87.5278,7.7587 C86.4818,7.9427 86.9278,9.5317 87.9668,9.3487 C88.1948,9.3087 88.4238,9.2777 88.6518,9.2487 C88.7368,9.2727 88.8258,9.2877 88.9198,9.2757 C89.7488,9.1717 90.6018,9.1777 91.4318,9.0687 C92.6298,9.0547 93.8308,9.0967 95.0298,9.1027 C95.2618,9.1047 95.4388,9.0247 95.5698,8.9027 C102.4088,9.0047 109.2458,9.5587 116.0788,9.4077 C116.2828,9.4027 116.4608,9.3587 116.6148,9.2887 C116.6968,9.3027 116.7758,9.3197 116.8678,9.3197 C126.8878,9.3017 136.8988,8.8117 146.9188,8.7947 C147.3598,8.7937 147.6838,8.6127 147.8948,8.3477 L149.4578,8.3477 L149.4578,5.0267 Z" id="Fill-166" fill="#1D1D1B"></path>
                <path d="M149.4578,5.0267 C148.9618,5.0127 148.4668,4.9867 147.9698,4.9827 C147.6858,4.9807 147.5028,5.1307 147.4098,5.3267 C145.9338,5.1377 144.4618,4.9057 142.9788,4.7437 C142.9088,4.4187 142.6938,4.1237 142.2948,3.9877 C139.9808,3.2007 137.5458,3.5137 135.1508,3.5387 C134.6508,3.5437 134.3398,3.8397 134.2158,4.2047 C133.2818,4.1727 132.3478,4.1517 131.4108,4.1507 C131.3968,4.1507 131.3848,4.1547 131.3708,4.1547 C128.7608,3.9337 126.1368,3.7897 123.5068,3.6927 C123.4638,3.3347 123.2418,3.0057 122.7838,2.8877 C120.7098,2.3547 118.5688,2.8107 116.4548,2.6457 C113.9428,2.4497 111.4268,2.3327 108.9068,2.3017 C108.1538,2.2937 107.8288,2.9497 107.9288,3.5237 C105.6448,3.5317 103.3648,3.5417 101.0978,3.5377 C100.9278,3.5377 100.7788,3.5697 100.6438,3.6167 C100.2038,3.4147 99.6648,3.4247 99.2048,3.8347 C98.6508,4.3267 97.9368,4.5767 97.2558,4.8527 C97.0758,4.8527 96.8958,4.8517 96.7168,4.8517 C96.0618,4.8507 95.6628,5.2457 95.5148,5.7277 C95.3058,5.8157 95.0938,5.8817 94.8778,5.9027 C94.5408,5.9347 94.2738,6.0697 94.0718,6.2577 C93.9018,6.2577 93.7328,6.2537 93.5628,6.2537 C93.0078,6.2537 92.6388,6.5367 92.4468,6.9167 C92.4158,6.9247 92.3868,6.9297 92.3548,6.9437 C91.2578,7.3907 90.0738,7.2907 88.9198,7.4357 C88.7208,7.4617 88.5348,7.5277 88.3818,7.6307 C88.0978,7.6687 87.8118,7.7087 87.5278,7.7587 C86.4818,7.9427 86.9278,9.5317 87.9668,9.3487 C88.1948,9.3087 88.4238,9.2777 88.6518,9.2487 C88.7368,9.2727 88.8258,9.2877 88.9198,9.2757 C89.7488,9.1717 90.6018,9.1777 91.4318,9.0687 C92.6298,9.0547 93.8308,9.0967 95.0298,9.1027 C95.2618,9.1047 95.4388,9.0247 95.5698,8.9027 C102.4088,9.0047 109.2458,9.5587 116.0788,9.4077 C116.2828,9.4027 116.4608,9.3587 116.6148,9.2887 C116.6968,9.3027 116.7758,9.3197 116.8678,9.3197 C126.8878,9.3017 136.8988,8.8117 146.9188,8.7947 C147.3598,8.7937 147.6838,8.6127 147.8948,8.3477 L149.4578,8.3477 L149.4578,5.0267 Z" id="Stroke-168" stroke="#000000" stroke-width="0.65"></path>
                <path d="M37.321,7.4544 C38.558,7.5424 39.794,7.6504 41.031,7.7294 C42.087,7.7964 42.093,9.4454 41.031,9.3784 C39.794,9.3004 38.558,9.1914 37.321,9.1024 C36.267,9.0284 36.259,7.3794 37.321,7.4544" id="Fill-170" fill="#1D1D1B"></path>
                <path d="M37.321,7.4544 C38.558,7.5424 39.794,7.6504 41.031,7.7294 C42.087,7.7964 42.093,9.4454 41.031,9.3784 C39.794,9.3004 38.558,9.1914 37.321,9.1024 C36.267,9.0284 36.259,7.3794 37.321,7.4544 Z" id="Stroke-172" stroke="#000000" stroke-width="0.65"></path>
                <path d="M31.1052,5.4974 C31.4222,5.1804 31.9532,5.1804 32.2712,5.4974 C32.5452,5.7724 32.8202,6.0474 33.0952,6.3214 C33.4132,6.6404 33.4132,7.1704 33.0952,7.4874 C32.7772,7.8064 32.2472,7.8064 31.9292,7.4874 C31.6542,7.2134 31.3792,6.9374 31.1052,6.6634 C30.7872,6.3464 30.7872,5.8144 31.1052,5.4974" id="Fill-174" fill="#1D1D1B"></path>
                <path d="M31.1052,5.4974 C31.4222,5.1804 31.9532,5.1804 32.2712,5.4974 C32.5452,5.7724 32.8202,6.0474 33.0952,6.3214 C33.4132,6.6404 33.4132,7.1704 33.0952,7.4874 C32.7772,7.8064 32.2472,7.8064 31.9292,7.4874 C31.6542,7.2134 31.3792,6.9374 31.1052,6.6634 C30.7872,6.3464 30.7872,5.8144 31.1052,5.4974 Z" id="Stroke-176" stroke="#000000" stroke-width="0.65"></path>
            </g>
        </g>
    </g>
</svg>