<?xml version="1.0" encoding="UTF-8" standalone="no"?>
<svg width="308px" height="308px" viewBox="0 0 308 308" version="1.1" xmlns="http://www.w3.org/2000/svg" xmlns:xlink="http://www.w3.org/1999/xlink">
    <!-- Generator: Sketch 47.1 (45422) - http://www.bohemiancoding.com/sketch -->
    <title>Slice</title>
    <desc>Created with Sketch.</desc>
    <defs></defs>
    <g id="Page-1" stroke="none" stroke-width="1" fill="none" fill-rule="evenodd">
        <g id="Group-2" transform="translate(-2.000000, -3.000000)">
            <g id="Group">
                <polygon id="Fill-3127" fill="#FBEDD5" points="2.1289 312.0317 50.3579 287.2007 311.5249 287.2007 311.5249 312.0317"></polygon>
                <polygon id="Fill-3129" fill="#FFDC00" points="50.823 288.573 310.664 288.573 310.664 238.871 50.823 238.871"></polygon>
                <polygon id="Fill-3131" fill="#F088B6" points="50.872 238.871 311.531 238.871 311.531 26.95 50.872 26.95"></polygon>
                <polygon id="Fill-3152" fill="#FBEDD5" points="2.4102 2.5282 50.6392 27.3602 311.8052 27.3602 311.8052 2.5282"></polygon>
                <path d="M52.54,25.6352 C36.025,17.4652 19.512,9.2952 2.998,1.1252 C1.129,0.2002 -0.52,3.0032 1.357,3.9312 C17.871,12.1012 34.386,20.2712 50.899,28.4422 C52.768,29.3662 54.416,26.5642 52.54,25.6352" id="Fill-3156" fill="#1D1D1B"></path>
                <path d="M50.8994,287.1274 C34.3854,294.9604 17.8714,302.7944 1.3574,310.6284 C-0.5316,311.5234 1.1164,314.3274 2.9984,313.4354 C19.5114,305.6014 36.0254,297.7674 52.5404,289.9334 C54.4284,289.0374 52.7814,286.2344 50.8994,287.1274" id="Fill-3158" fill="#1D1D1B"></path>
                <path d="M311.4482,286.5063 L223.7562,286.5063 L84.5842,286.5063 L52.5602,286.5063 C50.4692,286.5063 50.4662,289.7563 52.5602,289.7563 L140.2532,289.7563 L279.4262,289.7563 L311.4482,289.7563 C313.5402,289.7563 313.5432,286.5063 311.4482,286.5063" id="Fill-3166" fill="#1D1D1B"></path>
                <path d="M51.7197,28.6635 L139.3247,28.6635 L279.1297,28.6635 L311.4487,28.6635 C313.5397,28.6635 313.5427,25.4135 311.4487,25.4135 L223.8427,25.4135 L84.0377,25.4135 L51.7197,25.4135 C49.6277,25.4135 49.6247,28.6635 51.7197,28.6635" id="Fill-3168" fill="#1D1D1B"></path>
                <polygon id="Fill-3125" fill="#FBEDD5" points="51.3945 27.9008 2.2805 2.5278 2.0565 312.0318 51.3945 288.5738"></polygon>
                <path d="M53.1553,288.1313 L53.1553,199.8563 L53.1553,59.2243 L53.1553,27.0383 C53.1553,24.9473 49.9053,24.9443 49.9053,27.0383 L49.9053,115.3143 L49.9053,255.9443 L49.9053,288.1313 C49.9053,290.2223 53.1553,290.2263 53.1553,288.1313" id="Fill-3160" fill="#1D1D1B"></path>
                <path d="M52.5605,240.4965 L140.3315,240.4965 L279.6295,240.4965 L311.6815,240.4965 C313.7725,240.4965 313.7765,237.2465 311.6815,237.2465 L223.9105,237.2465 L84.6125,237.2465 L52.5605,237.2465 C50.4685,237.2465 50.4655,240.4965 52.5605,240.4965" id="Fill-3162" fill="#1D1D1B"></path>
            </g>
            <g id="big-tree" transform="translate(188.000000, 184.840000)">
                <path d="M28.8623,30.2434 C28.8543,30.2504 28.8483,30.2594 28.8413,30.2664 C28.9163,30.1954 28.9043,30.2064 28.8623,30.2434" id="Fill-3132" fill="#006D3C"></path>
                <path d="M28.8623,30.2434 C28.8543,30.2504 28.8483,30.2594 28.8413,30.2664 C28.9163,30.1954 28.9043,30.2064 28.8623,30.2434 Z" id="Stroke-3134" stroke="#000000" stroke-width="0.65"></path>
                <path d="M18.9336,3.1028 C18.6536,3.0188 18.3646,2.9538 18.0616,2.9358 C16.6046,2.8478 15.4646,3.7508 14.4896,4.7108 C14.2716,4.7518 14.1096,4.7868 14.4516,4.7488 C13.3976,4.8678 12.5116,4.8868 11.5356,5.3878 C11.0936,5.6138 10.7506,5.9538 10.4906,6.3488 C10.4456,6.3558 10.4046,6.3528 10.3596,6.3618 C9.1216,6.6078 7.6656,6.6328 6.6946,7.6048 C6.5916,7.7068 6.5246,7.8298 6.4376,7.9408 C5.3206,8.1548 4.3376,8.8738 4.0706,10.1808 C4.0646,10.2068 4.0676,10.2318 4.0626,10.2588 C3.9946,10.2978 3.8996,10.3788 3.7766,10.5058 C3.4556,10.8158 3.1706,11.1558 2.9216,11.5258 C2.5566,12.3658 2.3636,13.0728 2.2586,13.9848 C2.0956,15.3988 2.5316,16.8548 2.6526,18.2368 C2.7216,19.0298 3.0136,19.7568 3.4746,20.3288 C2.9666,20.8488 2.6356,21.5728 2.6526,22.5228 C2.6776,24.0088 2.9426,25.3288 3.5886,26.6668 C4.2336,27.9998 5.3296,28.5378 6.5576,28.8198 C6.9596,29.4528 7.5656,29.9338 8.3606,30.0728 C8.5796,30.1128 8.8006,30.1498 9.0216,30.1858 C9.6406,31.1018 10.5906,31.8038 11.7616,31.6808 C12.7096,31.5818 13.3656,31.2708 14.0996,30.8878 C14.6986,31.5488 15.5476,31.9788 16.4886,31.9638 C16.6996,31.9598 17.0996,32.0288 17.1106,31.9768 C17.4436,32.1768 17.7466,32.4348 18.1016,32.6038 C18.8866,32.9768 19.5716,33.1198 20.4356,33.1988 C20.5736,33.2108 21.7816,33.3308 21.3736,33.2578 C22.3326,33.4268 23.2876,33.2648 24.0436,32.7898 C25.4986,33.1108 27.1646,32.5368 27.8106,31.0828 C27.8976,31.0058 27.9916,30.9388 28.0686,30.8468 C27.6556,31.3378 28.6786,30.4068 28.8626,30.2438 C29.1926,29.9268 29.4646,29.5668 29.7116,29.1808 C29.8706,28.9338 29.9986,28.5808 30.1026,28.2468 C30.1256,28.2358 30.1506,28.2258 30.1746,28.2148 C30.5006,27.9678 30.8236,27.7168 31.1426,27.4598 C31.1456,27.4568 31.1496,27.4548 31.1526,27.4508 C31.2636,27.4128 31.4676,27.3198 31.8316,27.1368 C33.2886,26.4698 34.2846,24.9458 34.5476,23.3878 C34.6086,23.0338 34.6146,22.6808 34.5896,22.3348 C35.0766,21.8078 35.3856,21.1228 35.4516,20.3708 C36.0876,19.5758 36.3706,18.5048 36.0676,17.4798 C35.8366,16.6978 35.4156,15.9148 34.7636,15.3968 C34.8626,15.0908 34.9306,14.7728 34.9356,14.4388 C34.9596,12.6948 33.6976,10.8158 32.1566,9.8468 C32.0446,9.2108 31.7516,8.6038 31.2696,8.1218 L31.2146,8.0668 C31.1066,7.9588 30.9856,7.8728 30.8656,7.7838 C30.7136,6.8048 30.1396,5.8878 29.2796,5.4088 C29.0966,5.1518 28.9026,4.9038 28.6646,4.7038 C27.9116,4.0648 26.9826,3.7398 26.0766,3.7928 C25.4876,2.9198 24.4916,2.3338 23.3786,2.3388 C23.3276,2.3388 23.2506,2.3328 23.1756,2.3268 C23.1556,2.3148 23.1486,2.3088 23.1226,2.2948 C21.7426,1.4428 19.9126,1.8778 18.9336,3.1028" id="Fill-3136" fill="#006D3C"></path>
                <path d="M18.9336,3.1028 C18.6536,3.0188 18.3646,2.9538 18.0616,2.9358 C16.6046,2.8478 15.4646,3.7508 14.4896,4.7108 C14.2716,4.7518 14.1096,4.7868 14.4516,4.7488 C13.3976,4.8678 12.5116,4.8868 11.5356,5.3878 C11.0936,5.6138 10.7506,5.9538 10.4906,6.3488 C10.4456,6.3558 10.4046,6.3528 10.3596,6.3618 C9.1216,6.6078 7.6656,6.6328 6.6946,7.6048 C6.5916,7.7068 6.5246,7.8298 6.4376,7.9408 C5.3206,8.1548 4.3376,8.8738 4.0706,10.1808 C4.0646,10.2068 4.0676,10.2318 4.0626,10.2588 C3.9946,10.2978 3.8996,10.3788 3.7766,10.5058 C3.4556,10.8158 3.1706,11.1558 2.9216,11.5258 C2.5566,12.3658 2.3636,13.0728 2.2586,13.9848 C2.0956,15.3988 2.5316,16.8548 2.6526,18.2368 C2.7216,19.0298 3.0136,19.7568 3.4746,20.3288 C2.9666,20.8488 2.6356,21.5728 2.6526,22.5228 C2.6776,24.0088 2.9426,25.3288 3.5886,26.6668 C4.2336,27.9998 5.3296,28.5378 6.5576,28.8198 C6.9596,29.4528 7.5656,29.9338 8.3606,30.0728 C8.5796,30.1128 8.8006,30.1498 9.0216,30.1858 C9.6406,31.1018 10.5906,31.8038 11.7616,31.6808 C12.7096,31.5818 13.3656,31.2708 14.0996,30.8878 C14.6986,31.5488 15.5476,31.9788 16.4886,31.9638 C16.6996,31.9598 17.0996,32.0288 17.1106,31.9768 C17.4436,32.1768 17.7466,32.4348 18.1016,32.6038 C18.8866,32.9768 19.5716,33.1198 20.4356,33.1988 C20.5736,33.2108 21.7816,33.3308 21.3736,33.2578 C22.3326,33.4268 23.2876,33.2648 24.0436,32.7898 C25.4986,33.1108 27.1646,32.5368 27.8106,31.0828 C27.8976,31.0058 27.9916,30.9388 28.0686,30.8468 C27.6556,31.3378 28.6786,30.4068 28.8626,30.2438 C29.1926,29.9268 29.4646,29.5668 29.7116,29.1808 C29.8706,28.9338 29.9986,28.5808 30.1026,28.2468 C30.1256,28.2358 30.1506,28.2258 30.1746,28.2148 C30.5006,27.9678 30.8236,27.7168 31.1426,27.4598 C31.1456,27.4568 31.1496,27.4548 31.1526,27.4508 C31.2636,27.4128 31.4676,27.3198 31.8316,27.1368 C33.2886,26.4698 34.2846,24.9458 34.5476,23.3878 C34.6086,23.0338 34.6146,22.6808 34.5896,22.3348 C35.0766,21.8078 35.3856,21.1228 35.4516,20.3708 C36.0876,19.5758 36.3706,18.5048 36.0676,17.4798 C35.8366,16.6978 35.4156,15.9148 34.7636,15.3968 C34.8626,15.0908 34.9306,14.7728 34.9356,14.4388 C34.9596,12.6948 33.6976,10.8158 32.1566,9.8468 C32.0446,9.2108 31.7516,8.6038 31.2696,8.1218 L31.2146,8.0668 C31.1066,7.9588 30.9856,7.8728 30.8656,7.7838 C30.7136,6.8048 30.1396,5.8878 29.2796,5.4088 C29.0966,5.1518 28.9026,4.9038 28.6646,4.7038 C27.9116,4.0648 26.9826,3.7398 26.0766,3.7928 C25.4876,2.9198 24.4916,2.3338 23.3786,2.3388 C23.3276,2.3388 23.2506,2.3328 23.1756,2.3268 C23.1556,2.3148 23.1486,2.3088 23.1226,2.2948 C21.7426,1.4428 19.9126,1.8778 18.9336,3.1028 Z" id="Stroke-3138" stroke="#000000" stroke-width="0.65"></path>
                <path d="M15.2119,31.5579 C14.6039,30.9799 13.6809,31.8999 14.2909,32.4789 C14.8179,32.9779 15.1849,33.5929 15.5999,34.1829 C15.8599,34.5529 16.1739,34.8749 16.4889,35.1959 C16.4509,35.2799 16.4279,35.3749 16.4339,35.4909 C16.5259,37.3799 16.9299,39.2319 16.9219,41.1329 C16.9219,41.2279 16.9419,41.3069 16.9739,41.3769 C16.9179,44.1779 16.8389,46.9779 16.8139,49.7789 C16.7929,52.1289 16.1659,55.2519 17.1189,57.4679 C17.3059,57.8999 17.7339,57.8719 18.0229,57.6369 C18.3889,57.7109 18.8199,57.5149 18.8209,57.0309 C18.8309,50.2349 17.7669,43.0089 18.7429,36.2599 C18.7509,36.2079 18.7389,36.1629 18.7359,36.1149 C18.7369,36.1079 18.7419,36.1049 18.7429,36.0979 C18.8799,35.3149 19.4939,34.7559 19.8709,34.0819 C20.2819,33.3499 19.1569,32.6939 18.7469,33.4259 C18.6429,33.6129 18.5229,33.7889 18.4029,33.9659 C18.1389,33.8599 17.8279,33.9059 17.6619,34.2399 C17.6299,34.3039 17.5979,34.3669 17.5659,34.4299 C17.1859,34.0309 16.7999,33.6419 16.4839,33.1799 C16.0949,32.6089 15.7169,32.0369 15.2119,31.5579" id="Fill-3140" fill="#2B924C"></path>
                <path d="M1.6416,21.1262 C1.4626,20.9232 1.5576,20.6812 1.5876,20.4362 C1.6776,19.7102 1.6956,19.9582 1.5356,20.1502 C1.4036,20.3102 1.2896,20.4842 1.1916,20.6652 C0.7866,21.4122 0.9826,22.4702 1.7746,22.8892 C2.5336,23.2892 3.5646,23.1042 3.9976,22.3062 C4.2276,21.8832 4.5616,21.5582 4.6746,21.0692 C4.8796,20.1892 4.5026,19.4742 3.9396,18.8282 C3.3786,18.1862 2.2076,18.2122 1.6416,18.8282 C1.0126,19.5132 1.0426,20.4412 1.6416,21.1262" id="Fill-3170" fill="#1D1D1B"></path>
                <path d="M1.1914,20.6653 C0.2784,22.1863 0.3744,23.6713 1.0274,25.2473 C1.3634,26.0583 2.1054,26.6363 3.0264,26.3823 C3.7924,26.1723 4.5004,25.1993 4.1624,24.3833 C3.9984,23.9873 3.8224,23.5973 3.7284,23.1773 C3.6724,22.9263 3.7274,23.3863 3.7244,23.1163 C3.7234,23.0773 3.7374,22.8133 3.7254,22.8893 C3.7424,22.7853 3.8884,22.4873 3.9984,22.3063 C5.0774,20.5083 2.2674,18.8723 1.1914,20.6653" id="Fill-3172" fill="#1D1D1B"></path>
                <path d="M1.0273,25.2473 C1.0293,25.2533 1.1743,25.7863 1.1363,25.5253 C1.1623,25.6993 1.1513,25.8863 1.1623,26.0603 C1.1813,26.3723 1.2093,26.6913 1.2943,26.9923 C1.5193,27.7893 2.0193,28.4393 2.7243,28.8683 C3.4743,29.3233 4.5093,29.0333 4.9483,28.2853 C5.3983,27.5143 5.1173,26.5183 4.3653,26.0613 C4.4843,26.1343 4.4573,26.1463 4.3513,26.0503 C4.6143,26.2893 4.3373,25.9393 4.4233,26.1433 C4.5083,26.3463 4.4273,26.1283 4.4163,26.0813 C4.3443,25.7863 4.4953,26.1793 4.4253,26.2483 C4.4863,26.1873 4.3943,25.6283 4.3863,25.5253 C4.3563,25.1323 4.3023,24.7513 4.1623,24.3833 C3.8473,23.5643 3.0683,22.9993 2.1633,23.2483 C1.3793,23.4643 0.7123,24.4243 1.0273,25.2473" id="Fill-3174" fill="#1D1D1B"></path>
                <path d="M3.9395,18.8284 C3.8085,18.6864 3.6585,18.4684 3.5875,18.2424 C3.5665,18.1734 3.4785,17.6624 3.5065,17.9674 C3.4875,17.7524 3.4985,17.5394 3.5185,17.3254 C3.5985,16.4754 2.7125,15.6634 1.8935,15.7004 C0.9435,15.7424 0.3545,16.4164 0.2685,17.3254 C0.1345,18.7314 0.6945,20.1034 1.6415,21.1264 C2.2385,21.7704 3.3355,21.7304 3.9395,21.1264 C4.5815,20.4844 4.5385,19.4744 3.9395,18.8284" id="Fill-3176" fill="#1D1D1B"></path>
                <path d="M3.2959,16.5051 C3.3699,16.6401 3.2859,16.5441 3.2749,16.4431 C3.3079,16.7291 3.3349,16.2931 3.2989,16.4671 C3.2659,16.6301 3.3539,16.3251 3.3629,16.2981 C3.4499,16.0381 3.2039,16.6011 3.4259,16.1751 C3.8179,15.4211 3.6459,14.3751 2.8429,13.9511 C2.0969,13.5571 1.0389,13.7301 0.6199,14.5341 C0.0129,15.7011 -0.1651,16.9561 0.4899,18.1451 C0.8999,18.8911 1.9879,19.1951 2.7139,18.7281 C3.4689,18.2411 3.7349,17.3021 3.2959,16.5051" id="Fill-3178" fill="#1D1D1B"></path>
                <path d="M3.6484,15.3547 C3.6444,15.2547 3.6324,15.1597 3.6224,15.0597 C3.6564,15.3867 3.5054,14.0807 3.5674,14.6577 C3.5344,14.3387 3.4974,14.0207 3.5114,13.7007 C3.5484,12.8917 3.9544,12.3137 4.5994,11.7547 C6.1854,10.3857 3.8774,8.0947 2.3014,9.4577 C1.2334,10.3797 0.5224,11.5797 0.3304,12.9837 C0.2634,13.4657 0.2454,13.9347 0.2914,14.4197 C0.3174,14.6927 0.3614,14.9627 0.3944,15.2347 C0.4424,15.6147 0.3804,14.9117 0.3984,15.3547 C0.4794,17.4387 3.7294,17.4497 3.6484,15.3547" id="Fill-3180" fill="#1D1D1B"></path>
                <path d="M4.5996,11.7551 C4.9116,11.4701 5.0666,11.0901 5.2136,10.7061 C5.2486,10.6131 5.2806,10.5191 5.3136,10.4251 C5.3376,10.3561 5.4936,9.9391 5.3796,10.2291 C5.2696,10.5121 5.4506,10.1391 5.4856,10.0581 C5.5866,9.8241 5.3066,10.2241 5.4096,10.1441 C5.4176,10.1371 5.5646,9.9831 5.5656,9.9841 C5.5636,9.9821 5.2206,10.2431 5.5046,10.0421 C5.7496,9.8691 5.4456,10.0711 5.4496,10.0531 C5.4526,10.0311 5.6486,9.9961 5.6716,9.9881 C6.0426,9.8801 5.3326,10.0061 5.7666,9.9811 C6.6136,9.9331 7.4326,9.2681 7.3916,8.3561 C7.3536,7.5171 6.6756,6.6801 5.7666,6.7311 C4.5076,6.8031 3.3936,7.2931 2.7026,8.3821 C2.4846,8.7241 2.3396,9.1131 2.2036,9.4931 C2.1656,9.5951 2.0886,9.7341 2.0796,9.8421 C2.1096,9.4971 2.2566,9.4881 2.1546,9.6521 C2.0356,9.8411 2.4606,9.3121 2.3016,9.4571 C1.6726,10.0321 1.6746,11.1801 2.3016,11.7551 C2.9746,12.3721 3.9296,12.3691 4.5996,11.7551" id="Fill-3182" fill="#1D1D1B"></path>
                <path d="M6.1982,9.9231 C6.5782,9.8011 6.8862,9.6061 7.1592,9.3151 C7.2612,9.2051 7.6402,8.7151 7.4342,8.9621 C7.2322,9.2061 7.5222,8.8601 7.5742,8.8051 C7.6642,8.7071 7.7602,8.6191 7.8612,8.5321 C7.5832,8.7731 7.8762,8.5521 8.0212,8.4761 C7.8832,8.5491 7.8442,8.5271 8.0112,8.4901 C8.1372,8.4631 8.2592,8.4211 8.3862,8.3991 C8.6452,8.3541 8.1792,8.4051 8.4782,8.3951 C8.6472,8.3891 8.8142,8.3871 8.9842,8.3911 C11.0762,8.4361 11.0762,5.1861 8.9842,5.1411 C7.7652,5.1141 6.6042,5.3921 5.6482,6.1681 C5.4362,6.3401 5.2532,6.5261 5.0802,6.7371 C4.9692,6.8751 4.8622,7.0181 4.7552,7.1581 C4.7622,7.1481 5.0232,6.8531 4.8812,6.9931 C4.5732,7.2961 5.2452,6.8181 5.3352,6.7891 C4.5002,7.0591 3.9602,7.9151 4.1992,8.7881 C4.4252,9.6081 5.3602,10.1941 6.1982,9.9231" id="Fill-3184" fill="#1D1D1B"></path>
                <path d="M8.9844,8.3909 C10.1194,8.3349 10.8214,7.8219 11.6894,7.1709 C12.2324,6.7639 12.6214,6.6649 13.2944,6.8239 C15.3284,7.3019 16.1964,4.1689 14.1584,3.6899 C13.1594,3.4539 12.1484,3.3859 11.1724,3.7559 C10.7694,3.9089 10.4004,4.1049 10.0504,4.3559 C9.8734,4.4829 9.2614,5.1269 8.9844,5.1409 C6.9024,5.2419 6.8894,8.4929 8.9844,8.3909" id="Fill-3186" fill="#1D1D1B"></path>
                <path d="M13.2939,6.8235 C14.2049,6.9595 14.9379,6.7615 15.6159,6.1265 C15.9469,5.8155 16.1699,5.4085 16.5019,5.0985 C17.1259,4.5175 17.1329,3.3805 16.5019,2.8005 C15.8339,2.1875 14.8689,2.1805 14.2039,2.8005 C13.9869,3.0025 13.8209,3.2455 13.6359,3.4735 C13.5349,3.5975 13.4189,3.7065 13.3169,3.8285 C13.5059,3.6975 13.5289,3.6785 13.3869,3.7715 C13.6229,3.6385 13.8799,3.6115 14.1579,3.6895 C13.3209,3.5655 12.3699,3.8975 12.1589,4.8245 C11.9829,5.5965 12.3959,6.6895 13.2939,6.8235" id="Fill-3188" fill="#1D1D1B"></path>
                <path d="M16.502,5.0989 C16.576,5.0109 16.657,4.9309 16.744,4.8569 C16.627,4.9569 16.645,4.9589 16.798,4.8629 C16.63,4.9379 16.635,4.9469 16.812,4.8909 C16.61,4.9089 16.606,4.9099 16.799,4.8939 C17.19,4.8879 17.581,4.9059 17.973,4.9099 C18.823,4.9179 19.637,4.1559 19.598,3.2849 C19.558,2.3969 18.884,1.6689 17.973,1.6599 C16.556,1.6449 15.243,1.6759 14.204,2.7999 C13.608,3.4449 13.566,4.4609 14.204,5.0989 C14.807,5.7019 15.904,5.7449 16.502,5.0989" id="Fill-3190" fill="#1D1D1B"></path>
                <path d="M17.9727,4.9094 C18.6017,4.8824 19.1387,4.6894 19.6837,4.3834 C19.8847,4.2704 20.0787,4.1464 20.2797,4.0334 C20.4077,3.9614 20.5387,3.8974 20.6667,3.8274 C20.9457,3.6764 20.5397,3.8624 20.8937,3.7284 C21.6857,3.4274 22.3167,2.6194 22.0287,1.7294 C21.7787,0.9564 20.8797,0.2704 20.0297,0.5944 C19.4447,0.8164 18.8917,1.0774 18.3537,1.3944 C18.1917,1.4894 18.0017,1.5714 17.8507,1.6814 C17.7007,1.7914 18.1807,1.5994 17.9137,1.6564 C17.6087,1.7214 18.3077,1.6444 17.9727,1.6594 C17.1237,1.6954 16.3067,2.3814 16.3477,3.2844 C16.3857,4.1344 17.0627,4.9484 17.9727,4.9094" id="Fill-3192" fill="#1D1D1B"></path>
                <path d="M21.2813,3.5647 C21.4503,3.4847 21.4003,3.5487 21.2713,3.5697 C21.3483,3.5577 21.6393,3.5507 21.4413,3.5197 C21.4073,3.5137 21.0793,3.5407 21.2703,3.5217 C21.3553,3.5487 21.3653,3.5457 21.2993,3.5157 C21.2023,3.4627 21.2413,3.4837 21.4153,3.5767 C22.1663,3.9747 23.2173,3.7917 23.6383,2.9937 C24.0363,2.2417 23.8573,1.1957 23.0553,0.7707 C21.8983,0.1567 20.8023,0.2107 19.6403,0.7577 C18.8703,1.1227 18.6113,2.2897 19.0573,2.9817 C19.5693,3.7747 20.4573,3.9537 21.2813,3.5647" id="Fill-3194" fill="#1D1D1B"></path>
                <path d="M2.7246,28.8684 C2.5716,28.7474 2.4616,28.5984 2.3956,28.4244 C2.3416,28.2844 2.3306,28.2744 2.3646,28.3954 C2.3726,28.5914 2.5096,28.7724 2.5866,28.9514 C2.9236,29.7354 4.1356,29.9704 4.8106,29.5344 C5.6236,29.0094 5.7526,28.1494 5.3936,27.3104 C5.4336,27.4054 5.5376,27.6544 5.4666,27.4074 C5.4186,27.2414 5.3406,27.0454 5.2516,26.8954 C5.0426,26.5424 4.7126,26.2684 4.3656,26.0614 C3.6336,25.6264 2.5486,25.8734 2.1416,26.6444 C1.7276,27.4294 1.9446,28.4034 2.7246,28.8684" id="Fill-3196" fill="#1D1D1B"></path>
                <path d="M2.5869,28.9514 C3.2359,30.3974 4.8159,30.9304 6.2819,30.7274 C7.1279,30.6114 7.6629,29.4884 7.4169,28.7294 C7.1169,27.8014 6.3239,27.4694 5.4179,27.5944 C5.8529,27.5344 5.1779,27.4914 5.6139,27.5714 C5.2979,27.5144 5.7679,27.7164 5.5049,27.5294 C5.4669,27.5044 5.4299,27.4794 5.3919,27.4554 C5.5439,27.5694 5.5529,27.5644 5.4199,27.4384 C5.4519,27.4764 5.4829,27.5144 5.5149,27.5524 C5.4669,27.4744 5.4269,27.3944 5.3939,27.3104 C5.0439,26.5334 3.8539,26.2874 3.1699,26.7274 C2.3649,27.2464 2.2129,28.1194 2.5869,28.9514" id="Fill-3198" fill="#1D1D1B"></path>
                <path d="M5.8506,30.7864 C6.1356,30.7854 6.0456,30.7234 5.5806,30.5964 C5.3236,30.5574 5.1306,30.4304 5.0036,30.2154 C4.9956,30.2524 5.0886,30.3704 5.1076,30.3994 C5.3366,30.7594 5.5906,30.9884 5.9416,31.2314 C6.6406,31.7194 7.7766,31.3834 8.1636,30.6484 C8.6026,29.8184 8.3286,28.9444 7.5806,28.4264 C7.7016,28.5094 7.9876,28.9004 7.8106,28.5744 C7.7146,28.3984 7.5846,28.2334 7.4416,28.0954 C7.0196,27.6824 6.4346,27.4894 5.8506,27.5364 C5.0046,27.6034 4.1836,28.2354 4.2256,29.1614 C4.2616,29.9834 4.9426,30.8584 5.8506,30.7864" id="Fill-3200" fill="#1D1D1B"></path>
                <path d="M5.9414,31.2317 C6.6554,31.6877 7.5094,31.9427 8.3594,31.9027 C9.2074,31.8627 10.0244,31.1837 9.9844,30.2777 C9.9464,29.4317 9.2684,28.6097 8.3594,28.6527 C8.2484,28.6627 8.1354,28.6637 8.0244,28.6557 C8.1774,28.6747 8.1544,28.6637 7.9574,28.6227 C7.7694,28.5587 7.7404,28.5507 7.8704,28.5967 C7.7704,28.5457 7.6734,28.4887 7.5814,28.4257 C6.8634,27.9667 5.7564,28.2527 5.3584,29.0077 C4.9334,29.8127 5.1744,30.7427 5.9414,31.2317" id="Fill-3202" fill="#1D1D1B"></path>
                <path d="M8.3594,31.9026 C8.1964,31.8936 8.0234,31.8496 7.8814,31.7666 C7.8434,31.7446 7.5884,31.5126 7.7364,31.6726 C7.6954,31.6276 7.5164,31.3816 7.6534,31.5606 C7.7684,31.7126 7.8814,31.8666 8.0024,32.0146 C8.3094,32.3936 8.6904,32.6966 9.1064,32.9526 C9.8314,33.3986 10.9254,33.1326 11.3294,32.3696 C11.7494,31.5756 11.5204,30.6226 10.7464,30.1466 C10.3704,29.9146 10.8294,30.2996 10.5794,30.0316 C10.5214,29.9706 10.4634,29.9096 10.4064,29.8486 C10.1394,29.5696 10.5964,30.1186 10.4014,29.8416 C10.2964,29.6926 10.1874,29.5416 10.0624,29.4076 C9.6004,28.9086 9.0284,28.6906 8.3594,28.6526 C7.5084,28.6046 6.6964,29.4346 6.7344,30.2776 C6.7754,31.1996 7.4484,31.8506 8.3594,31.9026" id="Fill-3204" fill="#1D1D1B"></path>
                <path d="M9.1064,32.9524 C10.1684,33.5084 11.3764,33.6514 12.5244,33.2734 C13.3304,33.0084 13.9384,32.1384 13.6594,31.2744 C13.3984,30.4704 12.5244,29.8554 11.6604,30.1394 C11.6514,30.1424 11.1454,30.2784 11.4434,30.2304 C11.3114,30.2524 11.1724,30.2454 11.0404,30.2404 C10.7734,30.2294 11.3794,30.3234 10.9264,30.2144 C10.6094,30.1374 11.0564,30.3084 10.7464,30.1464 C9.9944,29.7524 8.9464,29.9294 8.5234,30.7284 C8.1274,31.4774 8.3014,32.5314 9.1064,32.9524" id="Fill-3206" fill="#1D1D1B"></path>
                <path d="M12.5244,33.2737 C12.7514,33.1847 12.9734,33.0817 13.2034,33.0017 C13.2324,32.9907 13.3834,32.9627 13.3964,32.9407 C13.3394,33.0367 12.7354,32.8917 13.0034,32.9587 C13.8274,33.1617 14.8034,32.6947 15.0024,31.8237 C15.1934,30.9837 14.7504,30.0417 13.8674,29.8247 C13.0384,29.6207 12.4164,29.8437 11.6604,30.1397 C10.8714,30.4487 10.2354,31.2437 10.5254,32.1387 C10.7734,32.9057 11.6764,33.6047 12.5244,33.2737" id="Fill-3208" fill="#1D1D1B"></path>
                <path d="M13.0029,32.9583 C13.1629,33.0003 13.3869,32.9693 13.0239,32.9363 C13.0739,32.9403 13.1569,32.9983 13.2009,33.0243 C13.3569,33.1173 13.5139,33.2113 13.6719,33.3003 C14.1659,33.5783 14.6999,33.7813 15.2549,33.8953 C16.0849,34.0673 17.0499,33.6543 17.2539,32.7613 C17.4389,31.9483 17.0089,30.9463 16.1189,30.7623 C15.8679,30.7103 15.6299,30.6423 15.3899,30.5563 C15.7749,30.6933 15.2439,30.4543 15.1369,30.3913 C14.7359,30.1543 14.3179,29.9443 13.8669,29.8243 C13.0469,29.6053 12.0649,30.0993 11.8679,30.9593 C11.6739,31.8123 12.1239,32.7243 13.0029,32.9583" id="Fill-3210" fill="#1D1D1B"></path>
                <path d="M15.2549,33.8958 C15.5639,33.9598 15.8719,34.0048 16.1869,33.9838 C16.2519,33.9798 16.3729,33.9848 16.4329,33.9588 C16.5229,33.9578 16.5139,33.9528 16.4069,33.9458 C16.2719,33.9208 16.2909,33.9378 16.4659,33.9948 C17.2539,34.3198 18.2869,33.6438 18.4649,32.8598 C18.6809,31.9138 18.1739,31.2088 17.3299,30.8608 C17.0519,30.7468 16.7329,30.6998 16.4329,30.7088 C16.3509,30.7118 16.2679,30.7228 16.1869,30.7338 C16.0969,30.7468 15.8539,30.7068 16.1189,30.7618 C15.2889,30.5888 14.3229,31.0038 14.1199,31.8968 C13.9349,32.7098 14.3649,33.7098 15.2549,33.8958" id="Fill-3212" fill="#1D1D1B"></path>
                <path d="M16.0781,33.8313 C16.3621,33.9523 16.5881,34.1463 16.8471,34.3123 C17.5651,34.7693 18.6711,34.4843 19.0701,33.7293 C19.4951,32.9253 19.2541,31.9943 18.4871,31.5063 C18.2271,31.3413 18.0031,31.1463 17.7191,31.0243 C16.9391,30.6903 15.9391,30.7673 15.4951,31.6073 C15.1261,32.3063 15.2441,33.4733 16.0781,33.8313" id="Fill-3214" fill="#1D1D1B"></path>
                <path d="M16.8467,34.3127 C17.9977,35.0887 19.3017,35.2677 20.6497,35.0517 C21.4917,34.9167 22.0337,33.8247 21.7837,33.0527 C21.4887,32.1397 20.6877,31.7727 19.7847,31.9167 C20.0897,31.8687 19.6347,31.9107 19.5727,31.9167 C19.3737,31.9007 19.3557,31.9057 19.5167,31.9327 C19.4347,31.9197 19.3547,31.9037 19.2747,31.8827 C18.8697,31.7857 18.8697,31.7647 18.4877,31.5057 C17.7817,31.0297 16.6557,31.3477 16.2637,32.0887 C15.8297,32.9107 16.0927,33.8027 16.8467,34.3127" id="Fill-3216" fill="#1D1D1B"></path>
                <path d="M20.2168,35.1096 C20.4238,35.0846 19.6988,34.9836 20.0378,35.0946 C19.5388,34.9316 19.7858,34.9906 19.9148,35.0466 C20.2168,35.1796 20.5058,35.3096 20.8278,35.3786 C21.7828,35.5816 22.6918,35.3466 23.5338,34.8806 C24.2788,34.4696 24.5848,33.3826 24.1168,32.6586 C23.6308,31.9036 22.6918,31.6346 21.8948,32.0756 C21.5278,32.2776 21.9688,32.0536 21.6708,32.1856 C21.2548,32.3696 21.9658,32.1086 21.5878,32.2116 C21.4368,32.2036 21.4348,32.2096 21.5818,32.2266 C21.7248,32.2516 21.7288,32.2506 21.5928,32.2236 C21.5738,32.2166 21.3278,32.1656 21.3228,32.1406 C21.3308,32.1816 21.7318,32.3166 21.4148,32.1776 C21.2448,32.1036 21.0778,32.0146 20.9018,31.9606 C20.6828,31.8926 20.4468,31.8316 20.2168,31.8596 C19.3768,31.9636 18.5498,32.5326 18.5918,33.4846 C18.6278,34.2756 19.3138,35.2216 20.2168,35.1096" id="Fill-3218" fill="#1D1D1B"></path>
                <path d="M23.5342,34.8811 C23.5622,34.8671 23.7132,34.8161 23.7222,34.7871 C23.6942,34.8661 23.3342,34.8891 23.6322,34.8371 C23.8292,34.8031 23.2682,34.9061 23.5012,34.8591 C23.5532,34.8481 23.8512,34.8821 23.5812,34.8451 C24.4192,34.9601 25.3672,34.6431 25.5802,33.7101 C25.7542,32.9451 25.3462,31.8351 24.4452,31.7111 C23.4672,31.5761 22.7772,31.6301 21.8942,32.0751 C21.1342,32.4581 20.8562,33.5921 21.3112,34.2981 C21.8122,35.0751 22.7212,35.2911 23.5342,34.8811" id="Fill-3220" fill="#1D1D1B"></path>
                <path d="M23.5811,34.845 C25.5211,35.175 27.5241,34.681 28.6221,32.928 C29.7351,31.151 26.9251,29.518 25.8161,31.287 C25.7111,31.453 25.6961,31.479 25.7711,31.362 C25.6271,31.491 25.6101,31.514 25.7201,31.431 C25.6271,31.493 25.5301,31.551 25.4301,31.602 C25.5601,31.555 25.5291,31.565 25.3411,31.63 C25.2291,31.664 25.1161,31.692 25.0011,31.714 C25.1421,31.701 25.1091,31.702 24.9041,31.719 C24.8271,31.72 24.2581,31.679 24.4451,31.711 C23.5811,31.565 22.6951,31.94 22.4461,32.846 C22.2311,33.626 22.7111,34.698 23.5811,34.845" id="Fill-3222" fill="#1D1D1B"></path>
                <path d="M21.415,3.5764 C21.745,3.7584 22.038,3.9264 22.395,4.0654 C23.189,4.3744 24.213,3.7254 24.394,2.9304 C24.606,1.9984 24.109,1.2634 23.26,0.9314 C23.714,1.1084 23.136,0.8144 23.056,0.7704 C22.311,0.3614 21.25,0.5624 20.832,1.3534 C20.43,2.1144 20.619,3.1394 21.415,3.5764" id="Fill-3224" fill="#1D1D1B"></path>
                <path d="M22.3955,4.0657 C22.7715,4.1387 23.1075,4.1407 23.4835,4.1237 C24.3315,4.0837 25.1495,3.4047 25.1085,2.4987 C25.0705,1.6517 24.3925,0.8307 23.4835,0.8737 C23.3745,0.8777 22.8335,0.8477 23.2595,0.9317 C22.4275,0.7677 21.4655,1.1677 21.2605,2.0667 C21.0775,2.8717 21.5035,3.8897 22.3955,4.0657" id="Fill-3226" fill="#1D1D1B"></path>
                <path d="M23.4834,4.1233 C23.6964,4.1313 23.5064,4.1293 23.4064,4.1083 C23.5824,4.1443 23.4894,4.1413 23.3754,4.0773 C23.4554,4.1213 23.5344,4.1673 23.6144,4.2103 C23.8604,4.3443 23.5694,4.1523 23.7074,4.2693 C24.0904,4.5963 24.4204,4.9783 24.7334,5.3713 C25.2664,6.0393 26.4834,5.9693 27.0314,5.3713 C27.6814,4.6633 27.5994,3.7853 27.0314,3.0733 C26.1314,1.9473 24.9974,0.9283 23.4834,0.8733 C22.6324,0.8433 21.8204,1.6433 21.8584,2.4983 C21.8994,3.4043 22.5724,4.0913 23.4834,4.1233" id="Fill-3228" fill="#1D1D1B"></path>
                <path d="M25.8828,5.8479 C25.9498,5.8449 26.6708,5.8349 26.6718,5.8309 C26.6688,5.8469 26.2408,5.7479 26.6578,5.8549 C26.9698,5.9339 26.3898,5.7179 26.7798,5.9189 C27.5348,6.3069 28.5778,6.1409 29.0038,5.3359 C29.3968,4.5919 29.2278,3.5279 28.4208,3.1129 C27.5768,2.6789 26.8198,2.5579 25.8828,2.5979 C25.0338,2.6339 24.2168,3.3199 24.2578,4.2229 C24.2958,5.0729 24.9728,5.8859 25.8828,5.8479" id="Fill-3230" fill="#1D1D1B"></path>
                <path d="M26.7803,5.9192 C26.6523,5.8382 26.6713,5.8062 26.7803,5.9242 C26.8623,6.0122 26.9413,6.1022 27.0193,6.1932 C27.1373,6.3342 27.2493,6.4772 27.3863,6.6002 C28.0183,7.1672 29.0683,7.2712 29.6843,6.6002 C30.2533,5.9802 30.3603,4.9072 29.6843,4.3022 C29.2353,3.8982 28.9503,3.4472 28.4213,3.1122 C27.7013,2.6582 26.5973,2.9382 26.1973,3.6952 C25.7743,4.4972 26.0113,5.4342 26.7803,5.9192" id="Fill-3232" fill="#1D1D1B"></path>
                <path d="M27.7148,6.8538 C27.9078,6.9388 28.0858,7.0418 28.2678,7.1488 C28.4768,7.2718 28.1038,6.9988 28.2908,7.1568 C28.3868,7.2368 28.4728,7.3238 28.5628,7.4098 C28.6518,7.4958 28.6888,7.5558 28.5908,7.4198 C28.6478,7.4988 28.6938,7.5828 28.7458,7.6658 C28.9028,7.9128 28.7338,7.5738 28.7748,7.7358 C28.8348,7.9788 28.7688,7.3508 28.7868,7.7908 C28.8228,8.6388 29.5088,9.4568 30.4118,9.4168 C31.2618,9.3778 32.0748,8.7008 32.0368,7.7908 C31.9678,6.1478 30.8448,4.7048 29.3558,4.0468 C28.5798,3.7058 27.5738,3.7948 27.1318,4.6298 C26.7598,5.3358 26.8848,6.4878 27.7148,6.8538" id="Fill-3234" fill="#1D1D1B"></path>
                <path d="M29.9805,9.3577 C29.5705,9.1997 29.9045,9.3517 29.9985,9.4077 C29.7125,9.2387 30.0145,9.4447 30.0825,9.5097 L30.1755,9.6157 C30.0665,9.4737 30.0615,9.4787 30.1625,9.6317 C30.1445,9.5857 30.1265,9.5377 30.1105,9.4907 C30.1595,9.6747 30.1625,9.6577 30.1215,9.4367 C30.1755,10.2837 30.8295,11.1027 31.7465,11.0617 C32.5805,11.0237 33.4295,10.3447 33.3715,9.4367 C33.2735,7.9227 32.2215,6.7557 30.8445,6.2237 C30.0495,5.9177 29.0275,6.5617 28.8455,7.3597 C28.6335,8.2897 29.1285,9.0297 29.9805,9.3577" id="Fill-3236" fill="#1D1D1B"></path>
                <path d="M30.1211,9.4368 C30.1521,9.8338 30.0861,10.2178 30.2001,10.6128 C30.4091,11.3288 30.9331,11.6968 31.5911,11.9608 C32.3811,12.2788 33.4091,11.6148 33.5901,10.8258 C33.8041,9.8858 33.3011,9.1668 32.4541,8.8268 C33.3861,9.2018 33.3601,10.5908 33.3791,9.8178 C33.3831,9.6898 33.3811,9.5648 33.3711,9.4368 C33.3061,8.5908 32.6711,7.7698 31.7461,7.8118 C30.9221,7.8478 30.0511,8.5288 30.1211,9.4368" id="Fill-3238" fill="#1D1D1B"></path>
                <path d="M31.5908,11.9612 C31.7668,12.0182 31.6768,12.0052 31.5678,11.9392 C31.6428,11.9842 31.7218,12.0242 31.7988,12.0692 C31.9468,12.1542 31.8828,12.1612 31.7928,12.0602 C31.8678,12.1452 31.9548,12.2242 32.0328,12.3062 C32.1688,12.4462 31.9608,12.1292 32.0278,12.3172 C32.0388,12.3452 32.1938,12.6012 32.1118,12.4422 C32.0348,12.2902 32.1488,12.5552 32.1588,12.5922 C32.1948,12.7142 32.2188,12.8362 32.2398,12.9622 C32.3858,13.8022 33.4598,14.3492 34.2388,14.0972 C35.1438,13.8042 35.5298,12.9972 35.3738,12.0982 C35.1048,10.5432 33.9338,9.3052 32.4538,8.8262 C31.6458,8.5652 30.6448,9.1322 30.4548,9.9622 C30.2528,10.8522 30.7238,11.6812 31.5908,11.9612" id="Fill-3240" fill="#1D1D1B"></path>
                <path d="M32.6582,13.679 C32.8832,13.928 32.6362,13.548 32.7672,13.829 C32.8192,13.915 32.8652,14.005 32.9072,14.096 C32.8482,13.964 32.8382,13.951 32.8762,14.061 C32.8912,14.122 32.9552,14.535 32.9492,14.362 C32.9392,14.095 32.8902,14.918 32.9572,14.464 C32.8342,15.301 33.1652,16.251 34.0932,16.463 C34.8632,16.638 35.9592,16.227 36.0922,15.327 C36.3092,13.845 35.9732,12.506 34.9562,11.381 C34.3852,10.748 33.2312,10.756 32.6582,11.381 C32.0382,12.057 32.0492,13.004 32.6582,13.679" id="Fill-3242" fill="#1D1D1B"></path>
                <path d="M28.6221,32.928 C28.6951,32.8 28.9671,32.288 28.9261,32.258 C28.9731,32.144 28.9571,32.184 28.8791,32.378 C28.8201,32.46 28.7491,32.531 28.6671,32.588 C29.3781,32.125 29.7411,31.127 29.2501,30.365 C28.7911,29.655 27.7881,29.286 27.0261,29.782 C26.6491,30.028 26.3381,30.299 26.1021,30.688 C26.0011,30.856 25.9361,31.056 25.8591,31.231 C25.7231,31.537 26.0141,30.943 25.8161,31.287 C25.3941,32.027 25.6181,33.098 26.3991,33.511 C27.1711,33.919 28.1721,33.717 28.6221,32.928" id="Fill-3244" fill="#1D1D1B"></path>
                <path d="M28.667,32.5881 C29.796,32.0451 30.635,31.0641 30.969,29.8531 C31.193,29.0341 30.689,28.0491 29.833,27.8541 C28.975,27.6581 28.076,28.1121 27.834,28.9891 C27.813,29.0801 27.785,29.1691 27.753,29.2571 C27.83,29.0791 27.828,29.0721 27.746,29.2361 C27.53,29.4691 27.948,29.0981 27.644,29.3811 C27.573,29.4461 27.215,29.6921 27.513,29.5121 C27.353,29.6091 27.195,29.7001 27.026,29.7821 C26.259,30.1511 25.994,31.3091 26.443,32.0051 C26.951,32.7941 27.846,32.9841 28.667,32.5881" id="Fill-3246" fill="#1D1D1B"></path>
                <path d="M30.9688,29.8528 C31.0258,29.6988 31.0698,29.2378 31.1928,29.1378 C31.0838,29.3758 31.0718,29.4178 31.1528,29.2638 C30.9908,29.4528 30.9708,29.4798 31.0908,29.3478 C30.9068,29.4748 30.8938,29.4858 31.0538,29.3818 C31.2088,29.3018 31.2188,29.2948 31.0848,29.3618 C31.8808,29.0708 32.5048,28.2458 32.2198,27.3628 C31.9668,26.5818 31.0748,25.9148 30.2208,26.2278 C29.4448,26.5118 28.7938,26.9068 28.3458,27.6238 C28.0828,28.0458 28.0038,28.5328 27.8338,28.9898 C27.5378,29.7878 28.1648,30.8048 28.9698,30.9888 C29.8908,31.1978 30.6518,30.7078 30.9688,29.8528" id="Fill-3248" fill="#1D1D1B"></path>
                <path d="M31.085,29.3616 C32.484,28.8976 33.643,28.0506 34.376,26.7546 C34.795,26.0136 34.576,24.9446 33.793,24.5306 C33.023,24.1246 32.017,24.3236 31.57,25.1136 C31.518,25.2056 31.463,25.2956 31.408,25.3856 C31.172,25.7776 31.509,25.2946 31.345,25.4796 C31.28,25.5526 31.215,25.6246 31.146,25.6926 C31.101,25.7366 30.849,25.9556 31.095,25.7626 C30.947,25.8786 30.782,25.9756 30.618,26.0636 C30.582,26.0836 30.234,26.2386 30.428,26.1616 C30.62,26.0846 30.215,26.2296 30.221,26.2276 C29.415,26.4946 28.806,27.3616 29.086,28.2266 C29.346,29.0296 30.221,29.6476 31.085,29.3616" id="Fill-3250" fill="#1D1D1B"></path>
                <path d="M33.793,27.3372 C35.099,26.3852 35.874,24.9062 35.721,23.2632 C35.643,22.4192 35.03,21.5962 34.096,21.6382 C33.283,21.6752 32.387,22.3572 32.471,23.2632 C32.49,23.4702 32.499,23.6752 32.481,23.8832 C32.51,23.5502 32.407,24.1222 32.382,24.1972 C32.481,23.9102 32.255,24.4122 32.205,24.4802 C32.438,24.1602 31.84,24.7582 32.152,24.5302 C31.444,25.0472 31.095,25.9412 31.57,26.7542 C31.979,27.4522 33.08,27.8572 33.793,27.3372" id="Fill-3252" fill="#1D1D1B"></path>
                <path d="M35.7207,23.2629 C35.7077,23.4249 35.6547,23.5679 35.5617,23.6889 C35.4967,23.7719 35.5247,23.7519 35.6427,23.6299 C36.2757,23.0589 36.2677,21.9059 35.6427,21.3319 C34.9667,20.7119 34.0197,20.7229 33.3447,21.3319 C32.7947,21.8289 32.4517,22.5149 32.4707,23.2629 C32.4917,24.1129 33.2027,24.9279 34.0957,24.8879 C34.9577,24.8499 35.7437,24.1739 35.7207,23.2629" id="Fill-3254" fill="#1D1D1B"></path>
                <path d="M35.6426,23.6301 C36.1506,23.1091 36.4806,22.5231 36.5786,21.7991 C36.6096,21.5661 36.6396,21.3301 36.6476,21.0941 C36.6586,20.9721 36.6536,21.0191 36.6306,21.2351 C36.6416,21.1941 36.6516,21.1531 36.6626,21.1121 C36.6756,21.0701 36.6896,21.0271 36.7046,20.9851 C36.6396,21.1521 36.6566,21.1441 36.7536,20.9591 C37.1966,20.2331 36.9366,19.1401 36.1706,18.7351 C35.3796,18.3181 34.4196,18.5431 33.9476,19.3181 C33.6046,19.8801 33.4566,20.4461 33.3976,21.0941 C33.3906,21.1681 33.3856,21.2411 33.3806,21.3161 C33.3666,21.5671 33.3616,21.4141 33.3966,21.2581 C33.3516,21.4581 33.3906,21.2701 33.4496,21.1941 C33.1806,21.5361 33.7276,20.9401 33.3446,21.3321 C32.7506,21.9421 32.6926,23.0311 33.3446,23.6301 C33.9866,24.2201 35.0086,24.2801 35.6426,23.6301" id="Fill-3256" fill="#1D1D1B"></path>
                <path d="M36.7539,20.9592 C37.6009,19.6062 37.8489,17.9482 37.1479,16.4892 C36.7669,15.6982 35.6379,15.4882 34.9239,15.9062 C34.1149,16.3792 33.9589,17.3352 34.3409,18.1292 C34.2809,17.9772 34.2799,17.9922 34.3379,18.1792 C34.3199,18.0112 34.3169,18.0272 34.3279,18.2302 C34.3389,18.5352 34.3909,18.1462 34.3059,18.4732 C34.2629,18.6402 34.2209,18.8092 34.1559,18.9692 C34.2349,18.7722 33.9819,19.2642 33.9469,19.3182 C33.4819,20.0622 33.7889,21.1082 34.5299,21.5422 C35.3099,21.9972 36.2859,21.7042 36.7539,20.9592" id="Fill-3258" fill="#1D1D1B"></path>
                <path d="M37.3105,16.8772 C37.0315,16.1452 36.6985,15.5662 36.1875,14.9722 C36.1265,14.9012 36.0675,14.8192 35.9985,14.7582 C35.8905,14.6612 36.1875,15.1112 36.0495,14.8182 C36.0825,14.8882 36.1155,14.9902 36.1175,15.0782 C36.1235,15.4102 36.1415,14.9542 36.1495,14.8962 C36.2575,14.0492 35.3255,13.2342 34.5245,13.2712 C33.5515,13.3142 33.0155,13.9882 32.8995,14.8962 C32.8105,15.5932 33.0705,16.2492 33.4895,16.7912 C33.6485,16.9962 33.8175,17.1932 33.9905,17.3882 C33.7115,17.0732 33.9565,17.3522 34.0135,17.4432 C34.0455,17.4952 34.2625,17.9652 34.1765,17.7412 C34.4795,18.5332 35.2855,19.1642 36.1755,18.8762 C36.9485,18.6262 37.6355,17.7282 37.3105,16.8772" id="Fill-3260" fill="#1D1D1B"></path>
                <path d="M18.2871,32.8303 C17.9641,33.4173 17.6411,34.0053 17.3181,34.5923 C16.9081,35.3363 17.1111,36.3973 17.9011,36.8153 C18.6631,37.2183 19.6861,37.0273 20.1241,36.2323 C20.4471,35.6443 20.7701,35.0583 21.0941,34.4713 C21.5031,33.7263 21.3001,32.6643 20.5111,32.2473 C19.7481,31.8453 18.7241,32.0353 18.2871,32.8303" id="Fill-3262" fill="#1D1D1B"></path>
                <path d="M17.3184,34.592 C16.7024,36.006 16.5444,37.408 16.5384,38.946 C16.5314,41.037 19.7814,41.04 19.7884,38.946 C19.7904,38.593 19.7934,38.24 19.8094,37.888 C19.8164,37.755 19.8254,37.623 19.8354,37.491 C19.8384,37.447 19.8844,37.061 19.8464,37.31 C19.8784,37.104 19.9224,36.9 19.9764,36.698 C20.0094,36.578 20.0504,36.46 20.0894,36.342 C20.1054,36.29 20.2344,35.98 20.1244,36.233 C20.4744,35.428 20.3614,34.488 19.5414,34.009 C18.8534,33.607 17.6714,33.783 17.3184,34.592" id="Fill-3264" fill="#1D1D1B"></path>
                <path d="M16.5381,38.9456 C16.5441,41.8836 16.6131,44.8196 16.6971,47.7556 C16.7571,49.8416 20.0071,49.8506 19.9471,47.7556 C19.8631,44.8196 19.7941,41.8836 19.7881,38.9456 C19.7851,36.8546 16.5351,36.8506 16.5381,38.9456" id="Fill-3266" fill="#1D1D1B"></path>
                <path d="M12.1484,32.6038 C11.8884,32.2828 12.2484,32.7528 12.3254,32.8678 C12.4924,33.1158 12.6524,33.3688 12.8104,33.6228 C13.1574,34.1758 13.4944,34.7358 13.8354,35.2918 C14.2934,36.0408 15.2914,36.3248 16.0584,35.8748 C16.8064,35.4378 17.1014,34.4038 16.6414,33.6518 C15.9464,32.5158 15.2884,31.3438 14.4474,30.3058 C13.8944,29.6238 12.7234,29.7308 12.1484,30.3058 C11.4744,30.9808 11.5944,31.9188 12.1484,32.6038" id="Fill-3268" fill="#1D1D1B"></path>
                <path d="M13.8359,35.2922 C14.5029,36.4902 14.9119,37.3992 14.9649,38.8132 C15.0429,40.8962 18.2939,40.9072 18.2149,38.8132 C18.1419,36.8622 17.5809,35.3362 16.6419,33.6512 C15.6229,31.8252 12.8149,33.4622 13.8359,35.2922" id="Fill-3270" fill="#1D1D1B"></path>
                <path d="M14.9648,38.8127 C15.0168,41.8807 14.8958,44.9457 14.9008,48.0137 C14.9028,50.1047 18.1528,50.1087 18.1508,48.0137 C18.1458,44.9457 18.2668,41.8807 18.2148,38.8127 C18.1808,36.7227 14.9298,36.7167 14.9648,38.8127" id="Fill-3272" fill="#1D1D1B"></path>
                <path d="M16.8857,32.5149 C16.7717,32.7009 16.6827,32.8989 16.5807,33.0909 C16.5607,33.1299 16.4267,33.3869 16.4127,33.3799 L16.5417,33.2069 C16.8617,32.9309 17.2307,32.8299 17.6487,32.9059 C16.8377,32.6479 15.8387,33.2069 15.6497,34.0399 C15.4477,34.9269 15.9167,35.7639 16.7837,36.0389 C17.5327,36.2769 18.3907,36.0249 18.9047,35.4329 C19.2447,35.0379 19.4247,34.5909 19.6917,34.1549 C20.1357,33.4289 19.8737,32.3359 19.1087,31.9319 C18.3177,31.5129 17.3597,31.7399 16.8857,32.5149" id="Fill-3274" fill="#1D1D1B"></path>
                <path d="M17.6484,32.9055 C18.0564,33.0765 17.6054,32.7525 17.8774,33.0215 C17.8164,32.9605 17.7494,32.9055 17.6874,32.8435 C17.5894,32.7465 17.5024,32.6415 17.4114,32.5385 C17.2144,32.3145 17.4614,32.6255 17.3594,32.4735 C17.1144,32.1105 16.8654,31.7485 16.6124,31.3905 C16.1224,30.6995 15.1704,30.3035 14.3884,30.8075 C13.7024,31.2515 13.2804,32.2895 13.8054,33.0315 C14.6594,34.2365 15.3674,35.4455 16.7844,36.0395 C17.5704,36.3685 18.6054,35.6845 18.7834,34.9045 C19.0004,33.9535 18.4904,33.2585 17.6484,32.9055" id="Fill-3276" fill="#1D1D1B"></path>
                <path d="M19.8896,37.2512 C19.9356,37.0562 19.9776,36.8512 20.0566,36.6652 C19.9686,36.8712 20.1796,36.4692 20.1816,36.4672 C20.3576,36.1532 20.0226,36.5762 20.2786,36.3562 C20.3806,36.2702 20.4746,36.1662 20.5746,36.0762 C21.1276,35.5762 21.6026,35.0892 22.0406,34.4782 C22.5526,33.7642 22.1656,32.6682 21.4576,32.2542 C20.6406,31.7762 19.7466,32.1222 19.2346,32.8372 C18.9666,33.2112 18.3736,33.6472 17.9806,34.0592 C17.3536,34.7162 16.9646,35.5082 16.7546,36.3872 C16.5516,37.2402 17.0236,38.1482 17.8906,38.3862 C18.7156,38.6132 19.6846,38.1082 19.8896,37.2512" id="Fill-3278" fill="#1D1D1B"></path>
                <path d="M14.9004,48.0139 C14.8974,51.0049 14.7814,53.9919 14.8264,56.9849 C14.8574,59.0739 18.1074,59.0799 18.0764,56.9849 C18.0314,53.9919 18.1474,51.0049 18.1504,48.0139 C18.1534,45.9219 14.9034,45.9189 14.9004,48.0139" id="Fill-3280" fill="#1D1D1B"></path>
                <path d="M16.6973,47.7551 C16.8053,50.8301 16.9063,53.9071 16.9153,56.9841 C16.9213,59.0751 20.1713,59.0791 20.1653,56.9841 C20.1563,53.9071 20.0553,50.8301 19.9473,47.7551 C19.8733,45.6701 16.6233,45.6601 16.6973,47.7551" id="Fill-3282" fill="#1D1D1B"></path>
                <path d="M17.6338,56.0881 C17.4398,56.0761 17.4458,56.0841 17.6538,56.1111 C17.5888,56.1011 17.5268,56.0861 17.4658,56.0661 C17.3458,56.0281 17.3848,56.0431 17.5818,56.1111 C17.8988,56.3161 18.0638,56.6071 18.0758,56.9841 C18.0038,56.1401 17.3808,55.3171 16.4508,55.3591 C15.6328,55.3961 14.7478,56.0771 14.8258,56.9841 C14.9588,58.5361 16.1648,59.2991 17.6338,59.3381 C18.4848,59.3601 19.2978,58.5741 19.2588,57.7131 C19.2188,56.8141 18.5448,56.1121 17.6338,56.0881" id="Fill-3284" fill="#1D1D1B"></path>
                <path d="M16.915,56.9846 C16.942,56.6056 17.202,56.1116 17.634,56.0886 C16.787,56.1346 15.969,56.8026 16.009,57.7136 C16.047,58.5536 16.725,59.3876 17.634,59.3386 C19.028,59.2616 20.061,58.4136 20.165,56.9846 C20.227,56.1346 19.374,55.3226 18.54,55.3596 C17.607,55.4016 16.98,56.0746 16.915,56.9846" id="Fill-3286" fill="#1D1D1B"></path>
                <path d="M36.4629,52.5579 C30.3529,53.5529 24.2439,54.5889 18.1089,55.4169 C16.0449,55.6969 16.9239,58.8289 18.9719,58.5509 C25.1089,57.7229 31.2169,56.6869 37.3269,55.6919 C39.3869,55.3559 38.5129,52.2239 36.4629,52.5579" id="Fill-3288" fill="#1D1D1B"></path>
                <path d="M36.127,52.6125 C29.834,53.6455 23.611,55.0105 17.34,56.1515 C15.285,56.5255 16.155,59.6585 18.203,59.2865 C24.475,58.1445 30.698,56.7795 36.991,55.7465 C39.05,55.4085 38.176,52.2755 36.127,52.6125" id="Fill-3290" fill="#1D1D1B"></path>
            </g>
            <g id="small-tree" transform="translate(274.000000, 215.840000)">
                <path d="M13.6494,13.677 C13.6464,13.68 13.6434,13.684 13.6404,13.687 C13.6714,13.657 13.6674,13.661 13.6494,13.677" id="Fill-3142" fill="#006D3C"></path>
                <path d="M13.6494,13.677 C13.6464,13.68 13.6434,13.684 13.6404,13.687 C13.6714,13.657 13.6674,13.661 13.6494,13.677 Z" id="Stroke-3144" stroke="#000000" stroke-width="0.65"></path>
                <path d="M9.5352,2.4309 C9.4192,2.3959 9.2992,2.3689 9.1742,2.3619 C8.5692,2.3259 8.0982,2.6999 7.6932,3.0969 C7.6032,3.1149 7.5362,3.1279 7.6782,3.1129 C7.2412,3.1619 6.8742,3.1699 6.4702,3.3769 C6.2862,3.4709 6.1442,3.6129 6.0362,3.7759 C6.0172,3.7789 6.0012,3.7779 5.9822,3.7819 C5.4702,3.8829 4.8662,3.8939 4.4642,4.2959 C4.4212,4.3389 4.3932,4.3899 4.3572,4.4359 C3.8942,4.5239 3.4872,4.8229 3.3762,5.3639 C3.3742,5.3749 3.3752,5.3849 3.3732,5.3959 C3.3452,5.4119 3.3062,5.4469 3.2542,5.4979 C3.1212,5.6269 3.0042,5.7679 2.9002,5.9209 C2.7492,6.2689 2.6692,6.5619 2.6252,6.9399 C2.5572,7.5259 2.7382,8.1289 2.7882,8.7019 C2.8172,9.0309 2.9382,9.3319 3.1292,9.5689 C2.9192,9.7849 2.7812,10.0839 2.7882,10.4779 C2.7992,11.0939 2.9092,11.6409 3.1772,12.1959 C3.4432,12.7479 3.8972,12.9699 4.4072,13.0869 C4.5732,13.3499 4.8242,13.5489 5.1532,13.6069 C5.2452,13.6229 5.3362,13.6379 5.4282,13.6539 C5.6842,14.0329 6.0782,14.3239 6.5632,14.2729 C6.9562,14.2319 7.2272,14.1029 7.5322,13.9449 C7.7802,14.2179 8.1322,14.3969 8.5212,14.3899 C8.6092,14.3889 8.7752,14.4169 8.7792,14.3959 C8.9182,14.4789 9.0432,14.5849 9.1902,14.6559 C9.5152,14.8099 9.8002,14.8689 10.1572,14.9019 C10.2152,14.9079 10.7152,14.9559 10.5462,14.9259 C10.9432,14.9959 11.3402,14.9289 11.6522,14.7329 C12.2562,14.8659 12.9462,14.6269 13.2142,14.0259 C13.2492,13.9939 13.2882,13.9649 13.3202,13.9279 C13.1492,14.1309 13.5732,13.7449 13.6492,13.6769 C13.7862,13.5459 13.8982,13.3969 14.0012,13.2369 C14.0662,13.1349 14.1202,12.9889 14.1632,12.8499 C14.1732,12.8449 14.1832,12.8409 14.1932,12.8369 C14.3282,12.7349 14.4622,12.6299 14.5942,12.5239 C14.5962,12.5229 14.5972,12.5219 14.5982,12.5199 C14.6442,12.5039 14.7292,12.4659 14.8802,12.3899 C15.4832,12.1139 15.8952,11.4819 16.0052,10.8359 C16.0302,10.6899 16.0332,10.5429 16.0222,10.4009 C16.2232,10.1819 16.3522,9.8979 16.3802,9.5859 C16.6432,9.2569 16.7602,8.8129 16.6352,8.3879 C16.5392,8.0639 16.3652,7.7399 16.0952,7.5249 C16.1362,7.3989 16.1642,7.2669 16.1662,7.1279 C16.1762,6.4059 15.6532,5.6269 15.0142,5.2259 C14.9682,4.9619 14.8472,4.7099 14.6462,4.5099 L14.6242,4.4879 C14.5792,4.4429 14.5292,4.4079 14.4792,4.3699 C14.4162,3.9649 14.1792,3.5849 13.8222,3.3859 C13.7462,3.2799 13.6662,3.1769 13.5672,3.0939 C13.2552,2.8289 12.8702,2.6949 12.4952,2.7169 C12.2512,2.3549 11.8382,2.1129 11.3772,2.1149 C11.3552,2.1149 11.3242,2.1119 11.2932,2.1089 C11.2842,2.1039 11.2812,2.1019 11.2702,2.0959 C10.6992,1.7439 9.9402,1.9229 9.5352,2.4309" id="Fill-3146" fill="#006D3C"></path>
                <path d="M9.5352,2.4309 C9.4192,2.3959 9.2992,2.3689 9.1742,2.3619 C8.5692,2.3259 8.0982,2.6999 7.6932,3.0969 C7.6032,3.1149 7.5362,3.1279 7.6782,3.1129 C7.2412,3.1619 6.8742,3.1699 6.4702,3.3769 C6.2862,3.4709 6.1442,3.6129 6.0362,3.7759 C6.0172,3.7789 6.0012,3.7779 5.9822,3.7819 C5.4702,3.8829 4.8662,3.8939 4.4642,4.2959 C4.4212,4.3389 4.3932,4.3899 4.3572,4.4359 C3.8942,4.5239 3.4872,4.8229 3.3762,5.3639 C3.3742,5.3749 3.3752,5.3849 3.3732,5.3959 C3.3452,5.4119 3.3062,5.4469 3.2542,5.4979 C3.1212,5.6269 3.0042,5.7679 2.9002,5.9209 C2.7492,6.2689 2.6692,6.5619 2.6252,6.9399 C2.5572,7.5259 2.7382,8.1289 2.7882,8.7019 C2.8172,9.0309 2.9382,9.3319 3.1292,9.5689 C2.9192,9.7849 2.7812,10.0839 2.7882,10.4779 C2.7992,11.0939 2.9092,11.6409 3.1772,12.1959 C3.4432,12.7479 3.8972,12.9699 4.4072,13.0869 C4.5732,13.3499 4.8242,13.5489 5.1532,13.6069 C5.2452,13.6229 5.3362,13.6379 5.4282,13.6539 C5.6842,14.0329 6.0782,14.3239 6.5632,14.2729 C6.9562,14.2319 7.2272,14.1029 7.5322,13.9449 C7.7802,14.2179 8.1322,14.3969 8.5212,14.3899 C8.6092,14.3889 8.7752,14.4169 8.7792,14.3959 C8.9182,14.4789 9.0432,14.5849 9.1902,14.6559 C9.5152,14.8099 9.8002,14.8689 10.1572,14.9019 C10.2152,14.9079 10.7152,14.9559 10.5462,14.9259 C10.9432,14.9959 11.3402,14.9289 11.6522,14.7329 C12.2562,14.8659 12.9462,14.6269 13.2142,14.0259 C13.2492,13.9939 13.2882,13.9649 13.3202,13.9279 C13.1492,14.1309 13.5732,13.7449 13.6492,13.6769 C13.7862,13.5459 13.8982,13.3969 14.0012,13.2369 C14.0662,13.1349 14.1202,12.9889 14.1632,12.8499 C14.1732,12.8449 14.1832,12.8409 14.1932,12.8369 C14.3282,12.7349 14.4622,12.6299 14.5942,12.5239 C14.5962,12.5229 14.5972,12.5219 14.5982,12.5199 C14.6442,12.5039 14.7292,12.4659 14.8802,12.3899 C15.4832,12.1139 15.8952,11.4819 16.0052,10.8359 C16.0302,10.6899 16.0332,10.5429 16.0222,10.4009 C16.2232,10.1819 16.3522,9.8979 16.3802,9.5859 C16.6432,9.2569 16.7602,8.8129 16.6352,8.3879 C16.5392,8.0639 16.3652,7.7399 16.0952,7.5249 C16.1362,7.3989 16.1642,7.2669 16.1662,7.1279 C16.1762,6.4059 15.6532,5.6269 15.0142,5.2259 C14.9682,4.9619 14.8472,4.7099 14.6462,4.5099 L14.6242,4.4879 C14.5792,4.4429 14.5292,4.4079 14.4792,4.3699 C14.4162,3.9649 14.1792,3.5849 13.8222,3.3859 C13.7462,3.2799 13.6662,3.1769 13.5672,3.0939 C13.2552,2.8289 12.8702,2.6949 12.4952,2.7169 C12.2512,2.3549 11.8382,2.1129 11.3772,2.1149 C11.3552,2.1149 11.3242,2.1119 11.2932,2.1089 C11.2842,2.1039 11.2812,2.1019 11.2702,2.0959 C10.6992,1.7439 9.9402,1.9229 9.5352,2.4309 Z" id="Stroke-3148" stroke="#000000" stroke-width="0.65"></path>
                <path d="M7.9932,14.2219 C7.7402,13.9829 7.3582,14.3639 7.6112,14.6039 C7.8302,14.8109 7.9812,15.0659 8.1532,15.3099 C8.2622,15.4629 8.3912,15.5969 8.5222,15.7299 C8.5072,15.7639 8.4972,15.8039 8.4992,15.8519 C8.5372,16.6349 8.7052,17.4019 8.7012,18.1899 C8.7012,18.2289 8.7102,18.2619 8.7222,18.2909 C8.6992,19.4509 8.6672,20.6119 8.6562,21.7729 C8.6482,22.7459 8.3892,24.0399 8.7832,24.9579 C8.8602,25.1379 9.0382,25.1259 9.1572,25.0289 C9.3092,25.0589 9.4882,24.9779 9.4882,24.7779 C9.4932,21.9609 9.0522,18.9669 9.4562,16.1699 C9.4592,16.1489 9.4542,16.1299 9.4532,16.1109 C9.4542,16.1079 9.4562,16.1059 9.4562,16.1029 C9.5132,15.7789 9.7672,15.5469 9.9242,15.2679 C10.0942,14.9639 9.6282,14.6929 9.4582,14.9959 C9.4142,15.0739 9.3642,15.1469 9.3152,15.2199 C9.2062,15.1759 9.0772,15.1949 9.0082,15.3329 C8.9952,15.3599 8.9812,15.3859 8.9682,15.4119 C8.8102,15.2459 8.6512,15.0849 8.5202,14.8939 C8.3582,14.6579 8.2022,14.4199 7.9932,14.2219" id="Fill-3150" fill="#2B924C"></path>
                <path d="M1.6396,10.2161 C1.6696,10.2541 1.7006,10.2911 1.7296,10.3291 C1.5896,10.0901 1.4516,9.8511 1.3116,9.6121 C1.3046,9.5251 1.2966,9.4381 1.2896,9.3501 C1.3636,9.0761 1.4376,8.8031 1.5116,8.5291 C1.4576,8.6481 1.3726,8.7471 1.3066,8.8591 C0.8726,9.5911 1.1166,10.6741 1.8896,11.0821 C2.6716,11.4951 3.6506,11.2801 4.1126,10.4991 C4.3316,10.1291 4.5296,9.8101 4.5396,9.3501 C4.5526,8.7681 4.2856,8.3571 3.9386,7.9181 C3.4086,7.2481 2.1866,7.3221 1.6396,7.9181 C0.9886,8.6281 1.0746,9.5021 1.6396,10.2161" id="Fill-3292" fill="#1D1D1B"></path>
                <path d="M1.3066,8.8586 C0.8336,9.6946 0.7746,10.5816 1.1426,11.4626 C1.4686,12.2436 2.2336,12.8916 3.1416,12.5976 C3.8926,12.3546 4.6266,11.4386 4.2766,10.5986 C4.2206,10.4636 4.1796,10.3176 4.1196,10.1856 C4.1336,10.4236 4.1386,10.4476 4.1336,10.2546 C4.1386,10.3376 4.1316,10.4196 4.1126,10.4996 C4.5316,9.7586 4.3136,8.6896 3.5296,8.2756 C2.7596,7.8696 1.7526,8.0686 1.3066,8.8586" id="Fill-3294" fill="#1D1D1B"></path>
                <path d="M1.1426,11.4622 C1.2646,11.8332 1.1636,11.2582 1.1676,11.6112 C1.1706,11.8082 1.2126,12.0362 1.2726,12.2312 C1.4476,12.8002 1.7986,13.1732 2.2756,13.5092 C2.9716,14.0002 4.1126,13.6562 4.4976,12.9262 C4.9386,12.0922 4.6596,11.2272 3.9146,10.7022 C4.3096,11.3882 4.4606,11.5672 4.3696,11.2392 C4.4036,11.4862 4.4156,11.5372 4.4066,11.3902 C4.4936,11.2752 4.3346,10.7762 4.2766,10.5992 C4.0126,9.7922 3.1406,9.1842 2.2776,9.4632 C1.4726,9.7242 0.8596,10.5982 1.1426,11.4622" id="Fill-3296" fill="#1D1D1B"></path>
                <path d="M3.9385,7.9182 C3.9835,7.9702 4.0775,8.2492 4.0345,8.0662 C3.9805,7.8402 4.0235,8.4122 4.0495,7.9902 C4.1035,7.1412 3.2645,6.3282 2.4245,6.3652 C1.4995,6.4072 0.8565,7.0802 0.7995,7.9902 C0.7475,8.8412 1.0945,9.5872 1.6395,10.2162 C2.1995,10.8602 3.3735,10.8312 3.9385,10.2162 C4.5685,9.5292 4.5345,8.6052 3.9385,7.9182" id="Fill-3298" fill="#1D1D1B"></path>
                <path d="M3.8281,7.1702 C4.0011,7.4702 4.0181,7.7502 3.8811,8.0112 C4.2521,7.2482 4.1131,6.2192 3.2981,5.7872 C2.5681,5.4022 1.4721,5.5552 1.0741,6.3702 C0.6651,7.2122 0.6211,7.9522 1.0211,8.8112 C1.3831,9.5832 2.5551,9.8392 3.2451,9.3942 C4.0411,8.8812 4.2141,7.9962 3.8281,7.1702" id="Fill-3300" fill="#1D1D1B"></path>
                <path d="M4.1025,7.1907 C4.0925,6.9917 4.0535,6.7927 4.0285,6.5937 C4.0795,6.9877 4.0605,6.8207 4.0465,6.5547 C4.0375,6.3527 4.1015,6.4797 4.0415,6.5047 C4.0225,6.6297 4.0235,6.6467 4.0445,6.5547 C4.0705,6.4717 4.0635,6.4787 4.0245,6.5777 C3.9625,6.7947 4.1285,6.4687 4.0115,6.5877 C3.8735,6.7297 4.2185,6.4017 4.2065,6.4137 C4.8465,5.8497 4.8255,4.6827 4.2065,4.1147 C3.5235,3.4887 2.5905,3.5137 1.9085,4.1147 C1.3285,4.6257 0.9495,5.3097 0.8455,6.0747 C0.8135,6.3207 0.7905,6.5457 0.8075,6.7927 C0.8205,6.9887 0.8595,7.1987 0.8835,7.3867 C0.8775,7.3367 0.8395,6.9287 0.8525,7.1907 C0.8935,8.0387 1.5705,8.8567 2.4775,8.8157 C3.3235,8.7777 4.1465,8.0997 4.1025,7.1907" id="Fill-3302" fill="#1D1D1B"></path>
                <path d="M4.2061,6.4133 C4.4661,6.1323 4.6341,5.8163 4.7421,5.4513 C4.8181,5.1943 4.5401,5.7973 4.7031,5.5513 C4.5311,5.8093 4.3021,5.9483 3.9971,5.9763 C4.8411,5.8993 5.6641,5.2823 5.6221,4.3503 C5.5851,3.5353 4.9031,2.6433 3.9971,2.7253 C3.3131,2.7873 2.6631,2.9713 2.1971,3.5103 C1.9901,3.7493 1.8631,3.9673 1.7431,4.2513 C1.6961,4.3613 1.6451,4.4733 1.6081,4.5873 C1.6021,4.6083 1.5941,4.6303 1.5861,4.6513 C1.6461,4.4443 1.7541,4.2663 1.9081,4.1143 C1.3321,4.7393 1.2431,5.8033 1.9081,6.4133 C2.5351,6.9883 3.5911,7.0803 4.2061,6.4133" id="Fill-3304" fill="#1D1D1B"></path>
                <path d="M4.4287,5.9172 C4.8147,5.7622 5.0947,5.5762 5.3637,5.2722 C5.5197,5.0952 5.5307,5.1272 5.3167,5.2772 C5.5397,5.1202 5.0537,5.3822 5.2577,5.3122 C5.4267,5.2542 4.8717,5.3272 5.3027,5.3302 C6.1537,5.3352 6.9667,4.5782 6.9277,3.7052 C6.8877,2.8202 6.2137,2.0862 5.3027,2.0802 C4.7167,2.0762 4.0997,2.1882 3.6047,2.5192 C3.4217,2.6412 3.2357,2.7852 3.0867,2.9492 C2.7737,3.2952 2.9417,3.0342 3.5647,2.7832 C2.7797,3.1002 2.1387,3.8812 2.4297,4.7822 C2.6757,5.5422 3.5847,6.2572 4.4287,5.9172" id="Fill-3306" fill="#1D1D1B"></path>
                <path d="M5.3027,5.3303 C6.0457,5.2603 6.4447,5.0093 7.0247,4.6013 C6.7637,4.7843 7.1407,4.5403 7.1387,4.5453 C7.0337,4.7303 6.4067,4.5713 6.7947,4.6593 C7.6217,4.8483 8.5937,4.4063 8.7937,3.5243 C8.9827,2.6983 8.5457,1.7273 7.6587,1.5253 C7.0997,1.3983 6.5497,1.3603 5.9927,1.5293 C5.7627,1.5993 5.5007,1.7243 5.2937,1.8583 C5.1437,1.9743 4.9927,2.0893 4.8437,2.2053 C4.9697,2.0973 5.1217,2.0553 5.3027,2.0803 C4.4587,2.1593 3.6357,2.7703 3.6777,3.7053 C3.7137,4.5183 4.3967,5.4153 5.3027,5.3303" id="Fill-3308" fill="#1D1D1B"></path>
                <path d="M7.2275,4.718 C8.0555,4.738 8.5115,4.246 9.0365,3.711 C9.6325,3.104 9.6875,2.011 9.0365,1.413 C8.3925,0.822 7.3735,0.765 6.7385,1.413 C6.6745,1.478 6.6155,1.546 6.5605,1.619 C6.2685,2.011 6.4545,1.449 7.2275,1.468 C6.3765,1.447 5.5635,2.23 5.6025,3.093 C5.6425,3.99 6.3165,4.696 7.2275,4.718" id="Fill-3310" fill="#1D1D1B"></path>
                <path d="M9.0361,3.7112 L8.6871,3.8872 C8.5011,3.9042 8.4711,3.9112 8.5951,3.9092 C8.7041,3.9282 8.8411,3.9152 8.9501,3.9172 C9.8011,3.9352 10.6141,3.1572 10.5751,2.2922 C10.5351,1.3972 9.8621,0.6862 8.9501,0.6672 C8.0901,0.6492 7.3801,0.7902 6.7381,1.4132 C6.1281,2.0062 6.0981,3.1232 6.7381,3.7112 C7.3951,4.3142 8.3851,4.3442 9.0361,3.7112" id="Fill-3312" fill="#1D1D1B"></path>
                <path d="M8.9502,3.9172 C9.3692,3.8742 9.6742,3.8072 10.0482,3.6182 C10.1152,3.5832 10.1792,3.5432 10.2462,3.5052 C10.2642,3.4942 10.6352,3.3062 10.3922,3.4032 C11.1782,3.0862 11.8192,2.3062 11.5272,1.4042 C11.2822,0.6462 10.3732,-0.0708 9.5282,0.2702 C9.2532,0.3812 8.9772,0.4882 8.7182,0.6332 C8.6462,0.6752 8.5742,0.7172 8.5032,0.7592 C8.2392,0.8942 8.3882,0.8622 8.9502,0.6672 C8.1072,0.7542 7.2832,1.3532 7.3252,2.2922 C7.3612,3.0982 8.0452,4.0102 8.9502,3.9172" id="Fill-3314" fill="#1D1D1B"></path>
                <path d="M10.7813,3.2395 C10.4733,3.2415 10.1673,3.2425 9.8603,3.2445 C10.6323,3.5955 11.6453,3.4905 12.0843,2.6615 C12.4613,1.9485 12.3263,0.8145 11.5013,0.4385 C10.6503,0.0505 9.9883,0.0665 9.1403,0.4325 C8.3573,0.7715 8.1223,1.9805 8.5573,2.6565 C9.0823,3.4695 9.9423,3.6015 10.7813,3.2395" id="Fill-3316" fill="#1D1D1B"></path>
                <path d="M2.2754,13.509 C2.3074,13.531 2.3394,13.554 2.3724,13.577 L1.7894,12.994 C1.6804,12.716 1.6534,12.655 1.7094,12.808 C1.9904,13.609 2.8334,14.227 3.7084,13.944 C4.4984,13.688 5.1444,12.803 4.8424,11.945 C4.6434,11.375 4.4284,11.062 3.9154,10.702 C3.2164,10.214 2.0794,10.553 1.6924,11.285 C1.2534,12.117 1.5294,12.988 2.2754,13.509" id="Fill-3318" fill="#1D1D1B"></path>
                <path d="M1.873,13.1965 C2.277,13.9645 3.157,14.4845 4.031,14.4195 C4.877,14.3565 5.697,13.7175 5.656,12.7945 C5.619,11.9675 4.938,11.1015 4.031,11.1695 C3.781,11.1685 3.85,11.2165 4.235,11.3125 C4.422,11.3355 4.57,11.4165 4.679,11.5555 C4.282,10.8025 3.171,10.5115 2.456,10.9725 C1.689,11.4675 1.448,12.3905 1.873,13.1965" id="Fill-3320" fill="#1D1D1B"></path>
                <path d="M4.0313,14.4192 L4.1403,14.4192 L3.3203,14.1962 C2.8923,13.7142 2.7603,13.5902 2.9253,13.8252 C3.0073,13.9812 3.1163,14.1102 3.2523,14.2142 C3.9043,14.7562 4.9193,14.9012 5.5503,14.2142 C6.0993,13.6142 6.2483,12.4962 5.5503,11.9162 C5.5613,11.9262 5.7763,12.2202 5.6523,12.0552 C5.5063,11.8602 5.3833,11.6952 5.1913,11.5482 C4.8573,11.2892 4.4563,11.1672 4.0313,11.1692 C3.1803,11.1722 2.3663,11.9142 2.4063,12.7942 C2.4453,13.6722 3.1203,14.4232 4.0313,14.4192" id="Fill-3322" fill="#1D1D1B"></path>
                <path d="M3.5801,14.468 C4.0331,14.738 4.5201,14.876 5.0491,14.872 C5.8981,14.866 6.7141,14.129 6.6741,13.247 C6.6351,12.372 5.9601,11.616 5.0491,11.622 C5.1331,11.621 5.4981,11.826 5.2211,11.662 C4.4891,11.227 3.4051,11.473 2.9971,12.245 C2.5831,13.029 2.8001,14.004 3.5801,14.468" id="Fill-3324" fill="#1D1D1B"></path>
                <path d="M4.6172,14.8147 C4.3902,14.7827 3.5092,13.8867 4.2682,14.6917 C4.4442,14.8767 4.6532,15.0247 4.8652,15.1667 C5.5722,15.6427 6.6962,15.3257 7.0882,14.5837 C7.5212,13.7627 7.2602,12.8687 6.5052,12.3607 C6.5582,12.3957 6.7332,12.5337 6.7232,12.5987 C6.7342,12.5277 6.4542,12.2397 6.3862,12.1737 C6.1502,11.9457 5.8102,11.7267 5.4812,11.6807 C4.6432,11.5617 3.6942,11.8847 3.4822,12.8157 C3.3072,13.5827 3.7172,14.6867 4.6172,14.8147" id="Fill-3326" fill="#1D1D1B"></path>
                <path d="M4.8652,15.1663 C5.5592,15.4923 6.2472,15.6063 6.9962,15.3943 C7.8132,15.1623 8.4032,14.2343 8.1312,13.3953 C7.8612,12.5623 7.0082,12.0123 6.1322,12.2603 C6.2512,12.2273 6.4062,12.3133 6.5052,12.3603 C5.7372,11.9993 4.7172,12.1203 4.2822,12.9433 C3.9012,13.6643 4.0442,14.7803 4.8652,15.1663" id="Fill-3328" fill="#1D1D1B"></path>
                <path d="M6.9961,15.3938 C7.4181,15.2248 7.3061,15.3768 6.6781,15.2658 C7.5121,15.4138 8.4691,15.0418 8.6761,14.1308 C8.8561,13.3398 8.4361,12.2898 7.5411,12.1318 C7.0211,12.0398 6.6161,12.0668 6.1321,12.2598 C5.3461,12.5758 4.7061,13.3588 4.9971,14.2588 C5.2431,15.0198 6.1511,15.7328 6.9961,15.3938" id="Fill-3330" fill="#1D1D1B"></path>
                <path d="M6.6777,15.2659 C6.6147,15.2469 6.3847,15.1039 6.5617,15.2149 C6.6287,15.2579 6.6987,15.2979 6.7707,15.3349 C7.0297,15.4699 7.3067,15.5799 7.5907,15.6469 C8.4167,15.8379 9.3897,15.3919 9.5897,14.5119 C9.7797,13.6819 9.3407,12.7179 8.4547,12.5129 C8.2707,12.4699 8.3037,12.4799 8.4557,12.5529 C8.3817,12.5179 8.3137,12.4709 8.2407,12.4329 C8.0177,12.3139 7.7837,12.2049 7.5407,12.1319 C6.7277,11.8869 5.7347,12.4259 5.5417,13.2669 C5.3427,14.1439 5.8057,15.0029 6.6777,15.2659" id="Fill-3332" fill="#1D1D1B"></path>
                <path d="M8.0234,15.7043 C8.1544,15.7213 8.4514,15.7973 8.0834,15.6863 C8.8964,15.9323 9.8894,15.3933 10.0824,14.5523 C10.2814,13.6763 9.8184,12.8143 8.9464,12.5533 C8.6294,12.4573 8.3354,12.4943 8.0234,12.4543 C7.1754,12.3483 6.3624,13.2783 6.3984,14.0793 C6.4414,15.0523 7.1164,15.5903 8.0234,15.7043" id="Fill-3334" fill="#1D1D1B"></path>
                <path d="M7.6943,15.5227 C7.8083,15.5797 7.9003,15.6467 8.0063,15.7177 C8.7123,16.1967 9.8393,15.8767 10.2293,15.1347 C10.6643,14.3127 10.3993,13.4217 9.6463,12.9127 C9.5413,12.8397 9.4493,12.7737 9.3353,12.7167 C8.5743,12.3387 7.5403,12.4877 7.1113,13.2997 C6.7233,14.0347 6.8823,15.1197 7.6943,15.5227" id="Fill-3336" fill="#1D1D1B"></path>
                <path d="M8.0068,15.718 C8.5468,16.059 9.2208,16.257 9.8608,16.174 C10.7008,16.065 11.5288,15.504 11.4858,14.549 C11.4508,13.762 10.7648,12.807 9.8608,12.924 C9.8218,12.929 9.4248,12.973 9.6278,12.951 C9.7188,12.942 9.9478,13.102 9.6468,12.912 C8.9268,12.458 7.8238,12.737 7.4238,13.495 C7.0008,14.295 7.2368,15.235 8.0068,15.718" id="Fill-3338" fill="#1D1D1B"></path>
                <path d="M9.8613,16.1741 C9.1843,15.9531 8.9863,15.9031 9.2653,16.0231 C9.3943,16.0771 9.5243,16.1321 9.6533,16.1861 C9.8153,16.2441 9.9633,16.2631 10.1343,16.2851 C10.7093,16.3621 11.1883,16.2051 11.6953,15.9491 C12.4563,15.5661 12.7333,14.4321 12.2783,13.7261 C11.7773,12.9481 10.8683,12.7331 10.0543,13.1431 C10.2253,13.0571 10.5013,13.0851 10.6833,13.1081 C10.4123,13.0741 10.9423,13.2291 10.8073,13.1731 C10.4813,13.0391 10.2233,12.9231 9.8613,12.9241 C9.0113,12.9261 8.1973,13.6691 8.2363,14.5491 C8.2763,15.4271 8.9503,16.1761 9.8613,16.1741" id="Fill-3340" fill="#1D1D1B"></path>
                <path d="M11.6953,15.9495 C11.5803,16.0075 11.0613,16.0525 11.4023,16.0905 C12.2503,16.1845 13.0633,15.2745 13.0273,14.4655 C12.9843,13.5045 12.3103,12.9415 11.4023,12.8405 C10.9023,12.7845 10.4953,12.9245 10.0543,13.1425 C9.2923,13.5225 9.0183,14.6635 9.4713,15.3665 C9.9753,16.1465 10.8793,16.3545 11.6953,15.9495" id="Fill-3342" fill="#1D1D1B"></path>
                <path d="M10.9697,16.0315 C12.2407,16.2195 13.3577,15.9145 14.1067,14.8095 C14.5847,14.1045 14.2637,12.9775 13.5237,12.5875 C12.7007,12.1525 11.8107,12.4175 11.2997,13.1705 C11.4067,13.0135 11.4897,12.9575 11.6537,12.8745 C11.7077,12.8705 11.7627,12.8665 11.8167,12.8635 C11.6257,12.8595 11.6317,12.8715 11.8337,12.8975 C10.9967,12.7745 10.0457,13.1055 9.8347,14.0335 C9.6587,14.8035 10.0717,15.8985 10.9697,16.0315" id="Fill-3344" fill="#1D1D1B"></path>
                <path d="M9.8604,3.2444 C9.9374,3.2944 10.0174,3.3384 10.1004,3.3764 C10.8594,3.7574 11.8964,3.6024 12.3244,2.7934 C12.7144,2.0564 12.5524,0.9764 11.7414,0.5704 C11.6584,0.5314 11.5784,0.4874 11.5014,0.4384 C10.7664,0.0084 9.6874,0.2464 9.2774,1.0204 C8.8654,1.8014 9.0774,2.7854 9.8604,3.2444" id="Fill-3346" fill="#1D1D1B"></path>
                <path d="M10.9209,3.5979 C11.0099,3.6109 11.0989,3.6109 11.1879,3.5979 C12.0329,3.5389 12.8539,2.8929 12.8129,1.9729 C12.7749,1.1429 12.0959,0.2849 11.1879,0.3479 C11.0989,0.3609 11.0099,0.3609 10.9209,0.3479 C10.0709,0.2869 9.2589,1.1389 9.2959,1.9729 C9.3379,2.9059 10.0109,3.5339 10.9209,3.5979" id="Fill-3348" fill="#1D1D1B"></path>
                <path d="M11.1875,3.5979 C11.0345,3.5609 10.8815,3.5239 10.7285,3.4869 C10.6245,3.3969 10.6165,3.3939 10.7055,3.4769 C10.7655,3.5879 10.9345,3.7279 11.0115,3.8229 C11.5525,4.4829 12.7555,4.4249 13.3095,3.8229 C13.9545,3.1199 13.8865,2.2289 13.3095,1.5239 C12.7415,0.8299 12.0855,0.4399 11.1875,0.3479 C10.3385,0.2619 9.5255,1.1579 9.5625,1.9729 C9.6055,2.9269 10.2785,3.5059 11.1875,3.5979" id="Fill-3350" fill="#1D1D1B"></path>
                <path d="M12.1611,4.2981 C12.2481,4.2931 12.3351,4.2901 12.4221,4.2891 C12.2851,4.2901 12.1571,4.2591 12.0381,4.1951 C12.8011,4.5671 13.8301,4.4281 14.2621,3.6121 C14.6461,2.8821 14.4941,1.7861 13.6791,1.3891 C13.1751,1.1441 12.7231,1.0241 12.1611,1.0481 C11.3121,1.0851 10.4951,1.7691 10.5361,2.6731 C10.5741,3.5221 11.2511,4.3371 12.1611,4.2981" id="Fill-3352" fill="#1D1D1B"></path>
                <path d="M12.0381,4.1956 C11.6861,3.9436 12.0151,4.2486 12.0891,4.3206 C12.6951,4.9176 13.7891,4.9706 14.3871,4.3206 C14.9771,3.6756 15.0341,2.6596 14.3871,2.0226 C14.1501,1.7906 13.9591,1.5896 13.6791,1.3886 C12.9841,0.8926 11.8401,1.2446 11.4551,1.9716 C11.0121,2.8096 11.2971,3.6666 12.0381,4.1956" id="Fill-3354" fill="#1D1D1B"></path>
                <path d="M12.417,4.5745 L12.54,4.6335 C12.678,4.7195 12.701,4.7315 12.608,4.6735 C12.569,4.6555 12.539,4.6285 12.519,4.5905 C12.409,4.4635 12.361,4.3065 12.374,4.1215 C12.46,4.9645 13.061,5.7885 13.999,5.7465 C14.807,5.7105 15.716,5.0265 15.624,4.1215 C15.521,3.1045 15.006,2.2215 14.058,1.7675 C13.292,1.4015 12.268,1.5315 11.834,2.3505 C11.451,3.0765 11.599,4.1825 12.417,4.5745" id="Fill-3356" fill="#1D1D1B"></path>
                <path d="M13.1787,5.5247 C13.3207,5.5977 13.3117,5.5807 13.1547,5.4717 C12.9807,5.0447 12.9207,4.9617 12.9737,5.2207 C13.1007,6.0647 14.2067,6.6037 14.9727,6.3557 C15.8927,6.0577 16.2427,5.2607 16.1077,4.3567 C16.0067,3.6857 15.4327,2.9967 14.8197,2.7177 C14.0467,2.3677 13.0337,2.4707 12.5957,3.3007 C12.2197,4.0137 12.3527,5.1487 13.1787,5.5247" id="Fill-3358" fill="#1D1D1B"></path>
                <path d="M12.916,4.7893 C12.945,5.5303 13.13,6.2023 13.833,6.5803 C14.581,6.9833 15.637,6.7923 16.056,5.9973 C16.455,5.2413 16.271,4.2053 15.473,3.7743 C15.448,3.7613 15.423,3.7473 15.397,3.7333 L15.98,4.3163 C15.97,4.2973 15.96,4.2783 15.949,4.2593 C16.023,4.5323 16.097,4.8063 16.171,5.0793 C16.165,4.9823 16.17,4.8863 16.166,4.7893 C16.132,3.9403 15.442,3.1233 14.541,3.1643 C13.689,3.2023 12.879,3.8793 12.916,4.7893" id="Fill-3360" fill="#1D1D1B"></path>
                <path d="M14.2207,6.7444 C14.0867,6.6954 13.9747,6.6444 13.8837,6.5284 C13.8237,6.4524 13.7467,6.1784 13.8107,6.4764 C13.9867,7.3084 15.0087,7.8704 15.8087,7.6114 C16.6887,7.3264 17.1327,6.5054 16.9447,5.6124 C16.7337,4.6184 16.0067,3.9484 15.0847,3.6104 C14.2847,3.3174 13.2697,3.9384 13.0857,4.7454 C12.8767,5.6644 13.3657,6.4304 14.2207,6.7444" id="Fill-3362" fill="#1D1D1B"></path>
                <path d="M14.2285,7.1936 C14.1205,7.0636 14.0735,6.7176 14.0425,7.0046 C13.9545,7.8526 14.8545,8.6666 15.6675,8.6296 C16.6245,8.5876 17.1975,7.9136 17.2925,7.0046 C17.3775,6.2026 17.0235,5.4936 16.5265,4.8956 C15.9805,4.2396 14.7845,4.2896 14.2285,4.8956 C13.5875,5.5926 13.6465,6.4936 14.2285,7.1936" id="Fill-3364" fill="#1D1D1B"></path>
                <path d="M14.1064,14.8098 C14.1584,14.7138 14.2034,14.6158 14.2414,14.5128 C14.3904,14.1678 14.3454,14.2518 14.1074,14.7648 C14.7784,14.2368 14.7014,13.0118 14.1074,12.4668 C13.3944,11.8128 12.5254,11.9038 11.8084,12.4668 C11.6504,12.5908 11.5224,12.7438 11.4224,12.9218 C11.3844,12.9908 11.0604,13.6438 11.2994,13.1698 C10.9164,13.9268 11.0764,14.9668 11.8824,15.3928 C12.6234,15.7848 13.6964,15.6198 14.1064,14.8098" id="Fill-3366" fill="#1D1D1B"></path>
                <path d="M13.7783,15.0188 C14.4683,14.6608 14.9213,14.0638 15.1563,13.3318 C15.4173,12.5218 14.8513,11.5218 14.0213,11.3328 C13.1323,11.1298 12.3003,11.6008 12.0223,12.4678 C12.0703,12.3188 12.4153,12.0688 12.1373,12.2118 C11.3823,12.6048 11.0953,13.7238 11.5543,14.4358 C12.0503,15.2058 12.9693,15.4388 13.7783,15.0188" id="Fill-3368" fill="#1D1D1B"></path>
                <path d="M15.1563,13.3313 C15.3823,12.6663 15.1673,13.5383 14.5283,13.8073 C15.3093,13.4783 15.9583,12.7183 15.6643,11.8083 C15.4213,11.0593 14.5043,10.3193 13.6653,10.6733 C13.1373,10.8933 12.6763,11.1303 12.3623,11.6323 C12.1993,11.8933 12.1193,12.1813 12.0223,12.4683 C11.7493,13.2733 12.3363,14.2793 13.1573,14.4673 C14.0573,14.6723 14.8633,14.1943 15.1563,13.3313" id="Fill-3370" fill="#1D1D1B"></path>
                <path d="M14.5283,13.8069 C15.3453,13.5189 15.9893,13.0579 16.4413,12.3049 C16.8803,11.5749 16.6283,10.4879 15.8583,10.0809 C15.0723,9.6649 14.1023,9.8849 13.6353,10.6639 C13.3843,11.0809 13.7583,10.4949 13.7573,10.6039 C13.7573,10.6719 13.2703,10.8119 13.6653,10.6729 C12.8653,10.9539 12.2463,11.7959 12.5303,12.6709 C12.7853,13.4609 13.6713,14.1099 14.5283,13.8069" id="Fill-3372" fill="#1D1D1B"></path>
                <path d="M16.1875,12.6331 C16.8355,12.1211 17.1695,11.2121 17.1195,10.4011 C17.0675,9.5541 16.4095,8.7351 15.4945,8.7761 C14.6595,8.8131 13.8135,9.4911 13.8695,10.4011 C13.8895,10.7341 14.0035,10.2141 13.8705,10.5171 C13.9165,10.4131 14.1225,10.1521 13.8895,10.3351 C13.2195,10.8641 13.2935,12.0871 13.8895,12.6331 C14.6005,13.2861 15.4725,13.1981 16.1875,12.6331" id="Fill-3374" fill="#1D1D1B"></path>
                <path d="M17.1191,10.4006 L17.1311,10.2776 C17.0571,10.5506 16.9831,10.8246 16.9091,11.0976 C16.8751,11.1426 16.8401,11.1876 16.8051,11.2326 C17.4071,10.6306 17.4511,9.5276 16.8051,8.9336 C16.1561,8.3376 15.1491,8.2926 14.5071,8.9336 C14.0831,9.3576 13.9271,9.8086 13.8691,10.4006 C13.7861,11.2496 14.6761,12.0616 15.4941,12.0256 C16.4451,11.9826 17.0301,11.3096 17.1191,10.4006" id="Fill-3376" fill="#1D1D1B"></path>
                <path d="M16.8047,11.2327 C17.0677,10.9297 17.3047,10.6277 17.4027,10.2267 C17.4447,10.0567 17.4737,9.8617 17.4817,9.6857 C17.4877,9.5607 17.4347,9.8997 17.4067,9.9527 C17.8087,9.2047 17.6177,8.1487 16.8237,7.7297 C16.0677,7.3307 15.0307,7.5127 14.6007,8.3127 C14.4767,8.5417 14.3707,8.7767 14.3117,9.0297 C14.2877,9.1927 14.2657,9.3567 14.2447,9.5207 C14.2087,9.8787 14.2957,9.6827 14.5067,8.9337 C13.9497,9.5757 13.8287,10.6107 14.5067,11.2327 C15.1177,11.7937 16.2087,11.9177 16.8047,11.2327" id="Fill-3378" fill="#1D1D1B"></path>
                <path d="M17.4063,9.9524 C17.8113,9.2704 18.0513,8.3134 17.7303,7.5524 C17.4013,6.7714 16.6413,6.1224 15.7313,6.4174 C14.9823,6.6594 14.2433,7.5774 14.5953,8.4164 C14.6993,8.6604 14.6373,8.3084 14.6483,8.1994 C14.6183,8.5034 14.7563,8.0504 14.6003,8.3124 C14.1653,9.0434 14.4113,10.1284 15.1833,10.5354 C15.9673,10.9494 16.9423,10.7334 17.4063,9.9524" id="Fill-3380" fill="#1D1D1B"></path>
                <path d="M17.7305,7.552 C17.5495,7.117 17.4145,6.83 17.1205,6.469 C17.0785,6.417 17.0395,6.36 16.9915,6.313 C16.8395,6.126 16.8785,6.247 17.1095,6.677 C17.2275,7.15 17.2885,7.259 17.2935,7.004 C17.3605,6.156 16.4975,5.342 15.6675,5.379 C14.7295,5.422 14.1155,6.095 14.0425,7.004 C14.0125,7.392 14.1235,7.823 14.3325,8.153 C14.4345,8.316 14.5725,8.461 14.6925,8.612 C14.8475,8.805 14.6255,8.486 14.5955,8.416 C14.9195,9.198 15.6885,9.845 16.5945,9.551 C17.3475,9.308 18.0785,8.393 17.7305,7.552" id="Fill-3382" fill="#1D1D1B"></path>
                <path d="M8.2451,13.7961 C8.1131,14.0341 7.9821,14.2731 7.8511,14.5111 C7.4411,15.2561 7.6441,16.3171 8.4341,16.7341 C9.1961,17.1371 10.2201,16.9461 10.6571,16.1511 C10.7891,15.9131 10.9201,15.6751 11.0511,15.4371 C11.4611,14.6921 11.2581,13.6301 10.4681,13.2131 C9.7061,12.8111 8.6821,13.0001 8.2451,13.7961" id="Fill-3384" fill="#1D1D1B"></path>
                <path d="M7.8516,14.511 C7.5326,15.259 7.4086,15.947 7.4036,16.765 C7.3976,17.615 8.1546,18.429 9.0286,18.39 C9.9136,18.351 10.6476,17.676 10.6536,16.765 C10.6546,16.632 10.6546,16.498 10.6616,16.365 C10.6656,16.256 10.7286,15.958 10.6426,16.358 C10.6726,16.219 10.8426,15.718 10.6576,16.152 C10.9906,15.372 10.9166,14.372 10.0746,13.928 C9.3766,13.56 8.2076,13.676 7.8516,14.511" id="Fill-3386" fill="#1D1D1B"></path>
                <path d="M7.4033,16.7649 C7.4053,17.9569 7.4333,19.1489 7.4673,20.3409 C7.5273,22.4279 10.7773,22.4359 10.7173,20.3409 C10.6833,19.1489 10.6553,17.9569 10.6533,16.7649 C10.6493,14.6739 7.3993,14.6699 7.4033,16.7649" id="Fill-3388" fill="#1D1D1B"></path>
                <path d="M5.9043,14.8743 C5.6213,14.5133 5.9663,15.0013 6.0443,15.1263 C6.1763,15.3403 6.3063,15.5553 6.4373,15.7703 C6.8813,16.4953 7.9143,16.8353 8.6613,16.3533 C9.3893,15.8833 9.7183,14.9053 9.2443,14.1293 C8.9163,13.5923 8.5923,13.0713 8.2023,12.5763 C7.6753,11.9043 6.4503,11.9813 5.9043,12.5763 C5.2513,13.2883 5.3413,14.1573 5.9043,14.8743" id="Fill-3390" fill="#1D1D1B"></path>
                <path d="M6.4375,15.7698 C6.4985,15.8768 6.5595,15.9848 6.6185,16.0938 C6.6535,16.1598 6.6875,16.2248 6.7195,16.2908 C6.6375,16.0828 6.6195,16.0378 6.6615,16.1528 C6.6705,16.2418 6.7145,16.4068 6.7545,16.4868 C6.7765,16.5998 6.7735,16.5668 6.7465,16.3878 C6.7555,16.4958 6.7615,16.6028 6.7645,16.7108 C6.7995,17.5588 7.4875,18.3758 8.3895,18.3358 C9.2405,18.2978 10.0525,17.6208 10.0145,16.7108 C9.9745,15.7478 9.7095,14.9638 9.2445,14.1288 C8.8305,13.3868 7.7485,13.0778 7.0205,13.5458 C6.2695,14.0318 5.9945,14.9748 6.4375,15.7698" id="Fill-3392" fill="#1D1D1B"></path>
                <path d="M6.7646,16.7112 C6.7856,17.9562 6.7366,19.2002 6.7386,20.4452 C6.7416,22.5362 9.9916,22.5402 9.9886,20.4452 C9.9866,19.2002 10.0356,17.9562 10.0146,16.7112 C9.9796,14.6222 6.7296,14.6152 6.7646,16.7112" id="Fill-3394" fill="#1D1D1B"></path>
                <path d="M7.6758,13.6682 C7.6398,13.7282 7.6068,13.7902 7.5758,13.8542 C7.4298,14.1102 7.5408,14.0132 7.9098,13.5602 C8.3268,13.5052 8.7448,13.4502 9.1618,13.3962 C9.1338,13.3922 9.1048,13.3872 9.0758,13.3832 C8.2388,13.2532 7.2868,13.5952 7.0768,14.5182 C6.9008,15.2942 7.3138,16.3772 8.2118,16.5172 C9.3338,16.6902 9.9578,16.2282 10.4828,15.3082 C10.9028,14.5692 10.6808,13.4982 9.8998,13.0852 C9.1278,12.6772 8.1248,12.8792 7.6758,13.6682" id="Fill-3396" fill="#1D1D1B"></path>
                <path d="M9.4639,13.5461 C9.3189,13.4691 9.3349,13.4861 9.5099,13.5991 C9.3919,13.4631 9.3899,13.4671 9.5049,13.6091 C9.4089,13.4811 9.3239,13.3441 9.2329,13.2121 C8.7479,12.5161 7.7869,12.1271 7.0089,12.6291 C6.3169,13.0751 5.9069,14.1061 6.4259,14.8521 C6.8139,15.4091 7.1929,16.0411 7.8229,16.3531 C8.5849,16.7291 9.6169,16.5831 10.0469,15.7701 C10.4349,15.0361 10.2769,13.9481 9.4639,13.5461" id="Fill-3398" fill="#1D1D1B"></path>
                <path d="M10.6592,16.3342 C10.7622,15.9402 10.6342,16.4432 10.5172,16.4542 C10.5392,16.4522 10.7262,16.2512 10.7472,16.2312 C11.0132,15.9892 11.2192,15.7302 11.4352,15.4382 C11.9442,14.7542 11.5702,13.5952 10.8522,13.2162 C10.0022,12.7672 9.1732,13.0672 8.6292,13.7992 C8.8302,13.5282 8.5022,13.8862 8.4492,13.9342 C8.3702,14.0062 8.2912,14.0762 8.2202,14.1562 C7.8792,14.5372 7.6542,14.9752 7.5252,15.4702 C7.3122,16.2922 7.7962,17.2722 8.6602,17.4692 C9.5092,17.6622 10.4302,17.2142 10.6592,16.3342" id="Fill-3400" fill="#1D1D1B"></path>
                <path d="M6.7383,20.4456 C6.7373,21.6596 6.6903,22.8716 6.7083,24.0866 C6.7393,26.1756 9.9893,26.1816 9.9583,24.0866 C9.9403,22.8716 9.9873,21.6596 9.9883,20.4456 C9.9913,18.3536 6.7413,18.3506 6.7383,20.4456" id="Fill-3402" fill="#1D1D1B"></path>
                <path d="M7.4678,20.3411 C7.5118,21.5881 7.5528,22.8371 7.5558,24.0861 C7.5628,26.1771 10.8128,26.1811 10.8058,24.0861 C10.8028,22.8371 10.7618,21.5881 10.7178,20.3411 C10.6438,18.2551 7.3938,18.2451 7.4678,20.3411" id="Fill-3404" fill="#1D1D1B"></path>
                <path d="M8.8135,22.7571 C9.0445,22.8541 9.2765,22.9511 9.5075,23.0491 C9.6475,23.2871 9.7875,23.5271 9.9255,23.7661 C9.9175,23.7291 9.9095,23.6921 9.9005,23.6541 C9.7085,22.8251 8.7125,22.2571 7.9015,22.5191 C7.0355,22.7991 6.5605,23.6301 6.7665,24.5181 C6.9965,25.5101 7.8785,25.9401 8.8135,26.0071 C9.6635,26.0691 10.4755,25.2161 10.4385,24.3821 C10.3965,23.4491 9.7235,22.8221 8.8135,22.7571" id="Fill-3406" fill="#1D1D1B"></path>
                <path d="M7.6143,23.6545 C7.7853,23.4235 7.9563,23.1925 8.1283,22.9625 C8.4013,22.8875 8.6753,22.8145 8.9483,22.7405 C8.9033,22.7465 8.8583,22.7515 8.8133,22.7575 C7.9723,22.8605 7.1453,23.4295 7.1883,24.3825 C7.2233,25.1735 7.9093,26.1185 8.8133,26.0075 C9.6703,25.9015 10.5923,25.4835 10.7483,24.5175 C10.8833,23.6825 10.5323,22.7285 9.6133,22.5185 C8.8323,22.3415 7.7593,22.7575 7.6143,23.6545" id="Fill-3408" fill="#1D1D1B"></path>
                <path d="M16.1982,21.3586 C13.7192,21.7616 11.2392,22.1826 8.7492,22.5186 C6.6852,22.7976 7.5642,25.9296 9.6132,25.6536 C12.1032,25.3166 14.5822,24.8966 17.0622,24.4926 C19.1212,24.1566 18.2482,21.0246 16.1982,21.3586" id="Fill-3410" fill="#1D1D1B"></path>
                <path d="M16.0615,21.3811 C13.5075,21.8001 10.9825,22.3551 8.4375,22.8181 C6.3825,23.1911 7.2525,26.3231 9.3005,25.9511 C11.8465,25.4881 14.3725,24.9341 16.9255,24.5151 C18.9845,24.1761 18.1115,21.0441 16.0615,21.3811" id="Fill-3412" fill="#1D1D1B"></path>
            </g>
        </g>
    </g>
</svg>