<?xml version="1.0" encoding="UTF-8" standalone="no"?>
<svg width="150px" height="150px" viewBox="0 0 150 150" version="1.1" xmlns="http://www.w3.org/2000/svg" xmlns:xlink="http://www.w3.org/1999/xlink">
    <!-- Generator: Sketch 48 (47235) - http://www.bohemiancoding.com/sketch -->
    <title>special</title>
    <desc>Created with Sketch.</desc>
    <defs></defs>
    <g id="Boxes" stroke="none" stroke-width="1" fill="none" fill-rule="evenodd">
        <g id="special">
            <g id="Group" transform="translate(-2.000000, -2.000000)">
                <polygon id="Fill-115" fill="#D42314" points="152.624422 152.140915 140.469042 152.140915 140.531439 29.6332509 1.07315431 29.6339147 1.07315431 1.51829397 152.624422 1.51829397"></polygon>
                <polygon id="Fill-117" fill="#A1A0A5" points="1.41387931 152.140716 122.058276 152.140716 122.058276 73.5416379 1.41387931 73.5416379"></polygon>
                <path d="M2.14498103,74.4631069 L42.5148862,74.4631069 L107.254628,74.4631069 L122.057878,74.4631069 C123.445869,74.4631069 123.44786,72.4631069 122.057878,72.4631069 L81.6873086,72.4631069 L16.9488948,72.4631069 L2.14498103,72.4631069 C0.756989655,72.4631069 0.754334483,74.4631069 2.14498103,74.4631069" id="Fill-118" fill="#000000"></path>
                <path d="M120.979479,73.5417707 L120.979479,142.076417 L120.979479,151.800322 C120.979479,153.18765 122.979479,153.190305 122.979479,151.800322 L122.979479,83.2650121 L122.979479,73.5417707 C122.979479,72.1531155 120.979479,72.1511241 120.979479,73.5417707" id="Fill-120" fill="#000000"></path>
                <path d="M151.823157,0.566613793 C147.748795,10.0734586 143.675097,19.581631 139.600071,29.0891397 C139.059079,30.3510103 140.917036,31.4515793 141.463338,30.1777603 C145.537036,20.6702517 149.612062,11.1627431 153.686424,1.65523448 C154.227416,0.3927 152.369459,-0.707205172 151.823157,0.566613793" id="Fill-137" fill="#000000"></path>
                <path d="M1.16157155,30.5548526 L48.316106,30.5548526 L123.399072,30.5548526 L140.531572,30.5548526 C141.919563,30.5548526 141.922218,28.5548526 140.531572,28.5548526 L93.3770371,28.5548526 L18.2940716,28.5548526 L1.16157155,28.5548526 C-0.227083621,28.5548526 -0.229075,30.5548526 1.16157155,30.5548526" id="Fill-139" fill="#000000"></path>
                <path d="M139.452908,29.6335164 L139.452908,71.3091026 L139.452908,137.400327 L139.452908,152.704077 C139.452908,154.092068 141.452908,154.094723 141.452908,152.704077 L141.452908,111.028491 L141.452908,44.9379302 L141.452908,29.6335164 C141.452908,28.245525 139.452908,28.2428698 139.452908,29.6335164" id="Fill-141" fill="#000000"></path>
            </g>
        </g>
    </g>
</svg>