<?xml version="1.0" encoding="UTF-8" standalone="no"?>
<svg width="150px" height="150px" viewBox="0 0 150 150" version="1.1" xmlns="http://www.w3.org/2000/svg" xmlns:xlink="http://www.w3.org/1999/xlink">
    <!-- Generator: Sketch 47.1 (45422) - http://www.bohemiancoding.com/sketch -->
    <title>strange-pink</title>
    <desc>Created with Sketch.</desc>
    <defs></defs>
    <g id="Boxes" stroke="none" stroke-width="1" fill="none" fill-rule="evenodd">
        <g id="strange-pink">
            <g id="Group" transform="translate(-2.000000, -1.000000)">
                <polygon id="Fill-91" fill="#EF88B7" points="2.06875536 152.136798 152.731648 152.136798 152.731648 1.19630901 2.06875536 1.19630901"></polygon>
                <polygon id="Fill-94" fill="#016D3C" points="5.71915021 139.966172 148.557785 139.966172 148.557785 1.19630901 5.71915021 1.19630901"></polygon>
                <polygon id="Fill-95" fill="#FFDC00" points="9.47000858 123.030798 140.625133 123.030798 140.625133 1.19630901 9.47000858 1.19630901"></polygon>
                <path d="M139.550967,1.19611073 L139.550967,42.3160936 L139.550967,107.907536 L139.550967,123.0306 L140.625001,121.956566 L96.4772326,121.956566 L25.6940738,121.956566 L9.46987639,121.956566 C9.82744721,122.314797 10.185679,122.672368 10.5439107,123.0306 L10.5439107,81.9106172 L10.5439107,16.3191751 L10.5439107,1.19611073 C10.5439107,-0.185923605 8.39584206,-0.188567382 8.39584206,1.19611073 L8.39584206,42.3160936 L8.39584206,107.907536 L8.39584206,123.0306 C8.39584206,123.61157 8.88824549,124.104634 9.46987639,124.104634 L53.6176446,124.104634 L124.400803,124.104634 L140.625001,124.104634 C141.205971,124.104634 141.699035,123.612892 141.699035,123.0306 L141.699035,81.9106172 L141.699035,16.3191751 L141.699035,1.19611073 C141.699035,-0.185923605 139.550967,-0.188567382 139.550967,1.19611073" id="Fill-97" fill="#000000"></path>
                <path d="M153.679905,151.851403 C152.326952,147.793866 150.97466,143.736991 149.621707,139.679454 C149.186806,138.37475 147.111441,138.933909 147.550969,140.25051 C148.903261,144.308046 150.255553,148.365583 151.608506,152.422458 C152.043407,153.727823 154.118772,153.168003 153.679905,151.851403" id="Fill-103" fill="#000000"></path>
                <path d="M2.71674506,152.422591 C4.06903691,148.364393 5.4219897,144.307518 6.77494249,140.24932 C7.2131485,138.935363 5.13910558,138.370917 4.70354335,139.678264 C3.35059056,143.735801 1.99763777,147.793998 0.645345923,151.851535 C0.207139914,153.166153 2.28118283,153.729938 2.71674506,152.422591" id="Fill-104" fill="#000000"></path>
                <path d="M148.586008,138.891344 L100.194978,138.891344 L23.4388661,138.891344 L5.73878026,138.891344 C4.35674592,138.891344 4.35410215,141.039413 5.73878026,141.039413 L54.1298103,141.039413 L130.885922,141.039413 L148.586008,141.039413 C149.968042,141.039413 149.970686,138.891344 148.586008,138.891344" id="Fill-105" fill="#000000"></path>
                <path d="M6.81281459,139.965379 L6.81281459,93.013224 L6.81281459,18.2531639 L6.81281459,1.19419399 C6.81281459,-0.187840343 4.66474592,-0.19048412 4.66474592,1.19419399 L4.66474592,48.1463485 L4.66474592,122.906409 L4.66474592,139.965379 C4.66474592,141.347413 6.81281459,141.350057 6.81281459,139.965379" id="Fill-106" fill="#000000"></path>
                <path d="M149.660703,139.965379 L149.660703,93.013224 L149.660703,18.2531639 L149.660703,1.19419399 C149.660703,-0.187840343 147.512634,-0.19048412 147.512634,1.19419399 L147.512634,48.1463485 L147.512634,122.906409 L147.512634,139.965379 C147.512634,141.347413 149.660703,141.350057 149.660703,139.965379" id="Fill-107" fill="#000000"></path>
            </g>
        </g>
    </g>
</svg>