<?xml version="1.0" encoding="UTF-8" standalone="no"?>
<svg width="99px" height="154px" viewBox="0 0 99 154" version="1.1" xmlns="http://www.w3.org/2000/svg" xmlns:xlink="http://www.w3.org/1999/xlink">
    <!-- Generator: Sketch 47.1 (45422) - http://www.bohemiancoding.com/sketch -->
    <title>Group 3124</title>
    <desc>Created with Sketch.</desc>
    <defs></defs>
    <g id="Page-1" stroke="none" stroke-width="1" fill="none" fill-rule="evenodd">
        <g id="Group-3124" transform="translate(0.050725, 0.000000)">
            <path d="M74.4023,78.6487 C74.3813,78.6697 74.3663,78.6917 74.3453,78.7107 C74.5473,78.5217 74.5143,78.5487 74.4023,78.6487" id="Fill-2972" fill="#196D3B"></path>
            <path d="M74.4023,78.6487 C74.3813,78.6697 74.3663,78.6917 74.3453,78.7107 C74.5473,78.5217 74.5143,78.5487 74.4023,78.6487 Z" id="Stroke-2974" stroke="#000000" stroke-width="0.65"></path>
            <path d="M47.8613,6.0999 C47.1123,5.8739 46.3403,5.7009 45.5303,5.6519 C41.6353,5.4179 38.5903,7.8329 35.9833,10.3979 C35.4003,10.5089 34.9663,10.6009 35.8813,10.4969 L35.8813,10.4969 C33.0623,10.8169 30.6953,10.8689 28.0853,12.2069 C26.9053,12.8119 25.9883,13.7199 25.2913,14.7759 C25.1723,14.7959 25.0633,14.7869 24.9433,14.8099 C21.6363,15.4669 17.7423,15.5369 15.1463,18.1339 C14.8713,18.4079 14.6923,18.7349 14.4593,19.0319 C11.4723,19.6029 8.8453,21.5249 8.1313,25.0189 C8.1163,25.0909 8.1233,25.1569 8.1093,25.2279 C7.9263,25.3329 7.6743,25.5509 7.3453,25.8889 C6.4893,26.7159 5.7283,27.6239 5.0613,28.6149 C4.0843,30.8599 3.5673,32.7499 3.2873,35.1869 C2.8543,38.9679 4.0173,42.8599 4.3403,46.5529 C4.5263,48.6729 5.3063,50.6179 6.5373,52.1459 C5.1823,53.5359 4.2973,55.4699 4.3403,58.0109 C4.4083,61.9829 5.1163,65.5119 6.8453,69.0899 C8.5673,72.6539 11.4943,74.0879 14.7803,74.8429 C15.8543,76.5349 17.4723,77.8219 19.5983,78.1929 C20.1873,78.2979 20.7773,78.3989 21.3663,78.4959 C23.0203,80.9429 25.5623,82.8209 28.6903,82.4929 C31.2253,82.2259 32.9783,81.3939 34.9403,80.3719 C36.5403,82.1399 38.8113,83.2879 41.3243,83.2469 C41.8903,83.2389 42.9603,83.4219 42.9893,83.2839 C43.8783,83.8189 44.6873,84.5079 45.6383,84.9589 C47.7363,85.9549 49.5683,86.3359 51.8763,86.5489 C52.2453,86.5829 55.4753,86.8999 54.3853,86.7069 C56.9503,87.1609 59.5023,86.7249 61.5223,85.4579 C65.4133,86.3149 69.8643,84.7779 71.5913,80.8959 C71.8233,80.6879 72.0733,80.5079 72.2793,80.2639 C71.1773,81.5749 73.9133,79.0859 74.4023,78.6489 C75.2863,77.8029 76.0123,76.8389 76.6733,75.8089 C77.0953,75.1499 77.4403,74.2039 77.7163,73.3099 C77.7813,73.2819 77.8473,73.2549 77.9113,73.2269 C78.7833,72.5669 79.6453,71.8949 80.4983,71.2099 C80.5073,71.2019 80.5163,71.1929 80.5253,71.1839 C80.8203,71.0799 81.3683,70.8339 82.3413,70.3459 C86.2373,68.5609 88.8953,64.4869 89.6013,60.3249 C89.7623,59.3749 89.7793,58.4329 89.7123,57.5109 C91.0123,56.0989 91.8403,54.2669 92.0163,52.2569 C93.7163,50.1329 94.4713,47.2709 93.6623,44.5299 C93.0463,42.4389 91.9203,40.3459 90.1783,38.9619 C90.4403,38.1449 90.6253,37.2949 90.6373,36.3999 C90.7023,31.7409 87.3283,26.7159 83.2063,24.1279 C82.9093,22.4279 82.1273,20.8039 80.8373,19.5139 L80.6923,19.3689 C80.4033,19.0799 80.0773,18.8499 79.7573,18.6099 C79.3513,15.9949 77.8173,13.5459 75.5183,12.2619 C75.0283,11.5769 74.5093,10.9139 73.8753,10.3769 C71.8603,8.6709 69.3773,7.7999 66.9563,7.9439 C65.3813,5.6099 62.7183,4.0449 59.7443,4.0569 C59.6073,4.0579 59.4043,4.0419 59.2023,4.0239 C59.1483,3.9919 59.1283,3.9779 59.0603,3.9399 C55.3703,1.6619 50.4783,2.8249 47.8613,6.0999" id="Fill-2976" fill="#196D3B"></path>
            <path d="M47.8613,6.0999 C47.1123,5.8739 46.3403,5.7009 45.5303,5.6519 C41.6353,5.4179 38.5903,7.8329 35.9833,10.3979 C35.4003,10.5089 34.9663,10.6009 35.8813,10.4969 L35.8813,10.4969 C33.0623,10.8169 30.6953,10.8689 28.0853,12.2069 C26.9053,12.8119 25.9883,13.7199 25.2913,14.7759 C25.1723,14.7959 25.0633,14.7869 24.9433,14.8099 C21.6363,15.4669 17.7423,15.5369 15.1463,18.1339 C14.8713,18.4079 14.6923,18.7349 14.4593,19.0319 C11.4723,19.6029 8.8453,21.5249 8.1313,25.0189 C8.1163,25.0909 8.1233,25.1569 8.1093,25.2279 C7.9263,25.3329 7.6743,25.5509 7.3453,25.8889 C6.4893,26.7159 5.7283,27.6239 5.0613,28.6149 C4.0843,30.8599 3.5673,32.7499 3.2873,35.1869 C2.8543,38.9679 4.0173,42.8599 4.3403,46.5529 C4.5263,48.6729 5.3063,50.6179 6.5373,52.1459 C5.1823,53.5359 4.2973,55.4699 4.3403,58.0109 C4.4083,61.9829 5.1163,65.5119 6.8453,69.0899 C8.5673,72.6539 11.4943,74.0879 14.7803,74.8429 C15.8543,76.5349 17.4723,77.8219 19.5983,78.1929 C20.1873,78.2979 20.7773,78.3989 21.3663,78.4959 C23.0203,80.9429 25.5623,82.8209 28.6903,82.4929 C31.2253,82.2259 32.9783,81.3939 34.9403,80.3719 C36.5403,82.1399 38.8113,83.2879 41.3243,83.2469 C41.8903,83.2389 42.9603,83.4219 42.9893,83.2839 C43.8783,83.8189 44.6873,84.5079 45.6383,84.9589 C47.7363,85.9549 49.5683,86.3359 51.8763,86.5489 C52.2453,86.5829 55.4753,86.8999 54.3853,86.7069 C56.9503,87.1609 59.5023,86.7249 61.5223,85.4579 C65.4133,86.3149 69.8643,84.7779 71.5913,80.8959 C71.8233,80.6879 72.0733,80.5079 72.2793,80.2639 C71.1773,81.5749 73.9133,79.0859 74.4023,78.6489 C75.2863,77.8029 76.0123,76.8389 76.6733,75.8089 C77.0953,75.1499 77.4403,74.2039 77.7163,73.3099 C77.7813,73.2819 77.8473,73.2549 77.9113,73.2269 C78.7833,72.5669 79.6453,71.8949 80.4983,71.2099 C80.5073,71.2019 80.5163,71.1929 80.5253,71.1839 C80.8203,71.0799 81.3683,70.8339 82.3413,70.3459 C86.2373,68.5609 88.8953,64.4869 89.6013,60.3249 C89.7623,59.3749 89.7793,58.4329 89.7123,57.5109 C91.0123,56.0989 91.8403,54.2669 92.0163,52.2569 C93.7163,50.1329 94.4713,47.2709 93.6623,44.5299 C93.0463,42.4389 91.9203,40.3459 90.1783,38.9619 C90.4403,38.1449 90.6253,37.2949 90.6373,36.3999 C90.7023,31.7409 87.3283,26.7159 83.2063,24.1279 C82.9093,22.4279 82.1273,20.8039 80.8373,19.5139 L80.6923,19.3689 C80.4033,19.0799 80.0773,18.8499 79.7573,18.6099 C79.3513,15.9949 77.8173,13.5459 75.5183,12.2619 C75.0283,11.5769 74.5093,10.9139 73.8753,10.3769 C71.8603,8.6709 69.3773,7.7999 66.9563,7.9439 C65.3813,5.6099 62.7183,4.0449 59.7443,4.0569 C59.6073,4.0579 59.4043,4.0419 59.2023,4.0239 C59.1483,3.9919 59.1283,3.9779 59.0603,3.9399 C55.3703,1.6619 50.4783,2.8249 47.8613,6.0999 Z" id="Stroke-2978" stroke="#000000" stroke-width="0.65"></path>
            <path d="M37.9146,82.1624 C36.2876,80.6184 33.8216,83.0754 35.4536,84.6234 C36.8616,85.9594 37.8416,87.6034 38.9516,89.1804 C39.6466,90.1684 40.4856,91.0294 41.3296,91.8884 C41.2276,92.1104 41.1646,92.3664 41.1796,92.6754 C41.4266,97.7264 42.5056,102.6774 42.4856,107.7594 C42.4836,108.0114 42.5396,108.2224 42.6226,108.4104 C42.4736,115.8974 42.2626,123.3814 42.1956,130.8694 C42.1396,137.1514 40.4646,145.4994 43.0126,151.4244 C43.5096,152.5784 44.6576,152.5044 45.4276,151.8744 C46.4066,152.0724 47.5596,151.5494 47.5616,150.2554 C47.5896,132.0884 44.7436,112.7724 47.3536,94.7324 C47.3746,94.5934 47.3416,94.4734 47.3336,94.3434 C47.3376,94.3244 47.3516,94.3174 47.3536,94.2984 C47.7196,92.2044 49.3616,90.7114 50.3696,88.9124 C51.4686,86.9524 48.4616,85.1974 47.3636,87.1554 C47.0836,87.6554 46.7636,88.1284 46.4456,88.6014 C45.7376,88.3164 44.9076,88.4394 44.4636,89.3314 C44.3776,89.5034 44.2926,89.6714 44.2046,89.8414 C43.1886,88.7734 42.1596,87.7334 41.3166,86.4994 C40.2736,84.9734 39.2636,83.4404 37.9146,82.1624" id="Fill-2980" fill="#196D3B"></path>
            <path d="M37.9146,82.1624 C36.2876,80.6184 33.8216,83.0754 35.4536,84.6234 C36.8616,85.9594 37.8416,87.6034 38.9516,89.1804 C39.6466,90.1684 40.4856,91.0294 41.3296,91.8884 C41.2276,92.1104 41.1646,92.3664 41.1796,92.6754 C41.4266,97.7264 42.5056,102.6774 42.4856,107.7594 C42.4836,108.0114 42.5396,108.2224 42.6226,108.4104 C42.4736,115.8974 42.2626,123.3814 42.1956,130.8694 C42.1396,137.1514 40.4646,145.4994 43.0126,151.4244 C43.5096,152.5784 44.6576,152.5044 45.4276,151.8744 C46.4066,152.0724 47.5596,151.5494 47.5616,150.2554 C47.5896,132.0884 44.7436,112.7724 47.3536,94.7324 C47.3746,94.5934 47.3416,94.4734 47.3336,94.3434 C47.3376,94.3244 47.3516,94.3174 47.3536,94.2984 C47.7196,92.2044 49.3616,90.7114 50.3696,88.9124 C51.4686,86.9524 48.4616,85.1974 47.3636,87.1554 C47.0836,87.6554 46.7636,88.1284 46.4456,88.6014 C45.7376,88.3164 44.9076,88.4394 44.4636,89.3314 C44.3776,89.5034 44.2926,89.6714 44.2046,89.8414 C43.1886,88.7734 42.1596,87.7334 41.3166,86.4994 C40.2736,84.9734 39.2636,83.4404 37.9146,82.1624 Z" id="Stroke-2982" stroke="#000000" stroke-width="0.65"></path>
            <path d="M3.8623,51.5032 C3.9513,51.6022 4.3723,52.0462 4.2903,52.1252 C4.2783,52.1362 4.2683,51.7412 4.2963,51.7802 C4.3353,51.6982 4.3323,51.7002 4.2863,51.7862 C4.2503,51.8552 4.2103,51.9222 4.1663,51.9862 C3.7993,52.5282 3.3853,53.0192 3.0803,53.6022 C2.1103,55.4522 4.9143,57.0972 5.8863,55.2422 C6.3423,54.3722 7.1333,53.6702 7.4023,52.7042 C7.7793,51.3472 7.0343,50.1762 6.1603,49.2052 C4.7583,47.6482 2.4653,49.9522 3.8623,51.5032" id="Fill-3002" fill="#000000"></path>
            <path d="M3.0801,53.6018 C0.9761,57.1078 1.4241,60.2348 2.9161,63.8348 C3.7051,65.7388 6.8511,64.9038 6.0501,62.9708 C4.8991,60.1938 4.2261,58.0088 5.8861,55.2418 C6.9651,53.4438 4.1561,51.8088 3.0801,53.6018" id="Fill-3004" fill="#000000"></path>
            <path d="M2.916,63.8347 C3.503,65.3647 3.193,66.9847 3.634,68.5417 C4.047,69.9997 4.934,71.1667 6.225,71.9517 C8.018,73.0407 9.652,70.2307 7.866,69.1457 C7.155,68.7137 6.749,67.8137 6.664,67.2677 C6.436,65.7967 6.598,64.3977 6.05,62.9707 C5.308,61.0377 2.165,61.8767 2.916,63.8347" id="Fill-3006" fill="#000000"></path>
            <path d="M6.1602,49.2053 C4.6122,47.5333 4.0022,45.4483 4.2162,43.2003 C4.4142,41.1193 1.1622,41.1323 0.9662,43.2003 C0.6732,46.2823 1.7712,49.2453 3.8622,51.5033 C5.2862,53.0403 7.5802,50.7383 6.1602,49.2053" id="Fill-3008" fill="#000000"></path>
            <path d="M3.9941,42.3796 C3.3061,41.1606 3.7331,39.8686 4.3451,38.7056 C5.3161,36.8556 2.5131,35.2106 1.5381,37.0656 C0.3691,39.2896 -0.1019,41.7356 1.1881,44.0196 C2.2171,45.8406 5.0251,44.2046 3.9941,42.3796" id="Fill-3010" fill="#000000"></path>
            <path d="M4.5664,37.885 C4.5074,36.387 4.1484,34.935 4.1984,33.424 C4.2994,30.446 5.7154,28.151 7.9414,26.227 C9.5274,24.858 7.2204,22.568 5.6444,23.929 C3.2114,26.031 1.5334,28.636 1.0844,31.856 C0.7934,33.936 1.2364,35.83 1.3164,37.885 C1.3974,39.97 4.6484,39.98 4.5664,37.885" id="Fill-3012" fill="#000000"></path>
            <path d="M7.9419,26.2273 C8.8219,25.4293 9.0239,24.0363 9.4479,23.0613 C10.1369,21.4743 11.3049,20.7303 13.0379,20.6343 C15.1179,20.5193 15.1309,17.2683 13.0379,17.3843 C10.6259,17.5183 8.4699,18.4123 7.1319,20.5033 C6.6619,21.2383 6.3479,22.0703 6.0579,22.8903 C5.9559,23.1783 5.8709,23.4773 5.7499,23.7593 C5.7539,23.7483 5.5469,24.0173 5.6439,23.9293 C4.0919,25.3373 6.3959,27.6303 7.9419,26.2273" id="Fill-3014" fill="#000000"></path>
            <path d="M13.4702,20.5764 C14.6602,20.1914 15.1772,19.1164 15.9632,18.2694 C17.4842,16.6304 19.5552,16.2974 21.7162,16.3444 C23.8082,16.3894 23.8082,13.1394 21.7162,13.0944 C19.2062,13.0394 16.6842,13.4714 14.6702,15.0584 C14.0932,15.5134 13.5992,16.0234 13.1382,16.5944 C12.9352,16.8454 12.7272,17.0724 12.5992,17.2834 C12.3842,17.6384 12.1262,17.5974 12.6062,17.4424 C10.6242,18.0824 11.4712,21.2224 13.4702,20.5764" id="Fill-3016" fill="#000000"></path>
            <path d="M21.7163,16.344 C23.8953,16.239 25.4073,15.182 27.0623,13.863 C29.2653,12.107 31.2743,11.558 34.0743,12.217 C36.1093,12.695 36.9773,9.562 34.9383,9.082 C32.7153,8.56 30.5143,8.4 28.3523,9.261 C26.1123,10.154 24.1463,12.976 21.7163,13.094 C19.6343,13.195 19.6223,16.446 21.7163,16.344" id="Fill-3018" fill="#000000"></path>
            <path d="M34.0747,12.2166 C35.5467,12.4766 36.7647,11.9396 37.8017,10.9006 C38.6157,10.0836 39.1887,9.0496 40.0437,8.2726 C41.5947,6.8626 39.2907,4.5696 37.7447,5.9746 C37.1037,6.5586 36.6257,7.2956 36.0747,7.9606 C35.8097,8.2816 35.5347,8.6286 35.2037,8.8836 C35.0147,9.0296 34.7267,9.0446 34.9387,9.0826 C34.0747,8.9296 33.1877,9.3156 32.9397,10.2176 C32.7237,11.0026 33.2057,12.0626 34.0747,12.2166" id="Fill-3020" fill="#000000"></path>
            <path d="M40.0435,8.2727 C41.6665,6.5167 43.7805,6.9317 45.9595,6.9547 C48.0515,6.9767 48.0535,3.7267 45.9595,3.7047 C42.8605,3.6727 40.0285,3.5027 37.7455,5.9747 C36.3275,7.5087 38.6205,9.8137 40.0435,8.2727" id="Fill-3022" fill="#000000"></path>
            <path d="M45.9595,6.9548 C48.6095,6.8418 50.7065,4.7798 53.1045,3.8678 C55.0405,3.1318 54.2005,-0.0112 52.2405,0.7338 C50.8885,1.2478 49.6245,1.8798 48.3805,2.6138 C47.6455,3.0468 46.8425,3.6668 45.9595,3.7048 C43.8765,3.7938 43.8645,7.0448 45.9595,6.9548" id="Fill-3024" fill="#000000"></path>
            <path d="M53.4922,3.7043 C54.6192,3.1663 55.5242,3.1323 56.6372,3.7373 C58.4752,4.7353 60.1172,1.9313 58.2772,0.9303 C56.0952,-0.2547 54.0512,-0.1527 51.8522,0.8973 C49.9652,1.7993 51.6122,4.6013 53.4922,3.7043" id="Fill-3026" fill="#000000"></path>
            <path d="M6.2251,71.9514 C6.2611,71.9714 6.6411,72.2024 6.4791,72.0844 C6.3401,71.9814 6.5591,72.1384 6.5621,72.1724 C6.5801,72.3414 6.3871,71.9134 6.5151,72.1404 C6.4541,72.0334 6.4111,71.8044 6.4561,72.0494 C6.5301,72.4404 6.6661,72.8094 6.8431,73.1664 C7.2221,73.9294 8.3641,74.2024 9.0661,73.7494 C9.8481,73.2454 10.0551,72.3424 9.6491,71.5254 C9.8681,71.9654 9.6621,71.4774 9.6211,71.3124 C9.5551,71.0444 9.4691,70.7924 9.3401,70.5424 C9.0191,69.9214 8.4721,69.4724 7.8661,69.1454 C7.1181,68.7414 6.0611,68.9344 5.6421,69.7284 C5.2421,70.4854 5.4261,71.5194 6.2251,71.9514" id="Fill-3028" fill="#000000"></path>
            <path d="M6.8433,73.1663 C8.0123,75.8413 10.9113,77.1043 13.6963,76.6903 C14.5653,76.5623 15.0433,75.4643 14.8313,74.6913 C14.5753,73.7613 13.7033,73.4273 12.8323,73.5573 C11.4083,73.7693 10.1843,72.7493 9.6493,71.5253 C9.2983,70.7213 8.1203,70.5373 7.4263,70.9423 C6.5963,71.4283 6.4903,72.3583 6.8433,73.1663" id="Fill-3030" fill="#000000"></path>
            <path d="M13.2642,76.7493 C13.3292,76.7413 13.7702,76.6603 13.8122,76.7243 C13.5622,76.6823 13.5202,76.6803 13.6852,76.7193 C13.4382,76.6023 13.3872,76.5833 13.5302,76.6613 C13.3122,76.4793 13.2622,76.4443 13.3802,76.5583 C13.2112,76.3253 13.1742,76.2773 13.2682,76.4133 C13.3142,76.5103 13.3782,76.6033 13.4302,76.6973 C13.7962,77.3723 14.2432,77.9153 14.9012,78.3273 C15.6222,78.7793 16.7232,78.5033 17.1242,77.7443 C17.5462,76.9443 17.3112,76.0043 16.5412,75.5203 C16.3632,75.4093 16.5102,75.4903 16.5842,75.5713 C16.5422,75.5243 16.4552,75.4243 16.3992,75.3873 C16.2762,75.3053 16.5262,75.6113 16.4782,75.4833 C16.4522,75.4163 16.3952,75.3523 16.3592,75.2883 C16.2362,75.0703 16.1312,74.8493 15.9832,74.6463 C15.3302,73.7563 14.3622,73.3723 13.2642,73.4993 C12.4222,73.5963 11.5972,74.1773 11.6392,75.1243 C11.6752,75.9213 12.3602,76.8533 13.2642,76.7493" id="Fill-3032" fill="#000000"></path>
            <path d="M14.9009,78.3274 C16.4099,79.3164 18.2199,79.8744 20.0309,79.7614 C22.1079,79.6304 22.1229,76.3794 20.0309,76.5114 C18.7349,76.5924 17.6209,76.2284 16.5409,75.5204 C14.7869,74.3714 13.1569,77.1834 14.9009,78.3274" id="Fill-3034" fill="#000000"></path>
            <path d="M20.0308,79.761 C20.2458,79.771 20.2658,79.77 20.0898,79.757 C20.2758,79.816 20.2778,79.813 20.0968,79.748 C20.2308,79.835 20.2508,79.846 20.1558,79.779 C20.0628,79.706 20.0768,79.725 20.1988,79.834 C20.2668,79.904 20.3318,79.976 20.3928,80.051 C20.3148,79.945 20.3098,79.938 20.3798,80.032 C20.5058,80.19 20.6208,80.357 20.7438,80.518 C21.5028,81.515 22.3548,82.318 23.4378,82.968 C25.2358,84.047 26.8708,81.239 25.0778,80.162 C23.1798,79.023 22.5868,76.601 20.0308,76.511 C17.9388,76.437 17.9418,79.687 20.0308,79.761" id="Fill-3036" fill="#000000"></path>
            <path d="M23.4375,82.968 C25.6535,84.139 28.1495,84.35 30.5315,83.556 C32.5055,82.899 31.6595,79.758 29.6675,80.422 C28.1125,80.941 26.5475,80.939 25.0775,80.162 C23.2295,79.186 21.5855,81.989 23.4375,82.968" id="Fill-3038" fill="#000000"></path>
            <path d="M30.5317,83.5559 C31.1847,83.3039 31.8247,83.0019 32.4887,82.7759 C32.5817,82.7439 32.6767,82.7149 32.7717,82.6869 C32.7917,82.6809 33.1887,82.6189 32.9567,82.6389 C32.7167,82.6599 33.0927,82.6479 33.1397,82.6549 C32.8287,82.6099 33.1747,82.6739 33.2897,82.7049 C35.3127,83.2459 36.1757,80.1129 34.1547,79.5719 C32.4997,79.1279 31.1737,79.8399 29.6677,80.4219 C28.8497,80.7389 28.2827,81.5139 28.5327,82.4209 C28.7477,83.2029 29.7087,83.8739 30.5317,83.5559" id="Fill-3040" fill="#000000"></path>
            <path d="M33.29,82.7053 C34.198,82.9443 34.921,83.4373 35.73,83.8933 C36.87,84.5363 38.082,84.9723 39.362,85.2343 C41.404,85.6533 42.277,82.5213 40.227,82.1013 C37.987,81.6413 36.329,80.1443 34.154,79.5713 C32.13,79.0373 31.267,82.1713 33.29,82.7053" id="Fill-3042" fill="#000000"></path>
            <path d="M39.3623,85.2346 C39.9833,85.3856 40.5943,85.4336 41.2283,85.3656 C41.4483,85.3406 41.6663,85.3116 41.8873,85.2996 C42.1513,85.2866 42.0453,85.2476 42.2413,85.3376 C43.0383,85.7046 43.9913,85.5636 44.4653,84.7546 C44.8753,84.0536 44.6833,82.8996 43.8823,82.5316 C43.1833,82.2096 42.5013,82.0056 41.7223,82.0596 C41.2023,82.0956 40.6763,82.2106 40.2263,82.1006 C38.1953,81.6046 37.3283,84.7376 39.3623,85.2346" id="Fill-3044" fill="#000000"></path>
            <path d="M42.6299,85.5012 C42.3819,85.4012 42.8559,85.6272 42.9039,85.6562 C43.0459,85.7422 43.1799,85.8392 43.3129,85.9382 C43.6419,86.1812 43.9669,86.4212 44.3159,86.6362 C45.0399,87.0822 46.1349,86.8162 46.5389,86.0532 C46.9589,85.2592 46.7299,84.3062 45.9559,83.8292 C45.5719,83.5932 45.2189,83.3202 44.8539,83.0582 C44.4329,82.7562 43.9739,82.5592 43.4939,82.3672 C42.7029,82.0512 41.6749,82.7122 41.4949,83.5022 C41.2809,84.4412 41.7829,85.1622 42.6299,85.5012" id="Fill-3046" fill="#000000"></path>
            <path d="M44.3154,86.636 C46.7754,88.297 49.5364,88.82 52.4454,88.352 C54.5054,88.021 53.6304,84.888 51.5814,85.218 C49.5314,85.547 47.6514,84.974 45.9564,83.829 C44.2174,82.656 42.5894,85.47 44.3154,86.636" id="Fill-3048" fill="#000000"></path>
            <path d="M52.0137,88.4094 C52.1927,88.3884 51.8367,88.3124 52.2637,88.4684 C52.1087,88.4114 52.6057,88.6234 52.5897,88.6164 C53.1847,88.8684 53.7567,89.1074 54.3937,89.2314 C56.2317,89.5894 57.9617,89.0574 59.5697,88.1714 C61.4007,87.1604 59.7637,84.3524 57.9287,85.3644 C56.7107,86.0374 55.5897,86.3224 54.2647,85.8194 C53.5447,85.5464 52.8237,85.0584 52.0137,85.1594 C49.9657,85.4144 49.9397,88.6674 52.0137,88.4094" id="Fill-3050" fill="#000000"></path>
            <path d="M59.5693,88.1711 C59.7733,88.0681 59.9773,87.9681 60.1823,87.8671 C60.3563,87.7801 59.9333,87.9251 60.2253,87.8511 C60.3323,87.8231 60.4383,87.7881 60.5433,87.7581 C60.5793,87.7481 60.8583,87.7111 60.6773,87.7291 C60.4603,87.7511 60.8993,87.7301 60.9393,87.7301 C61.2333,87.7301 61.5293,87.7521 61.8193,87.7941 C62.6873,87.9201 63.5653,87.5791 63.8183,86.6591 C64.0283,85.8961 63.5573,84.7871 62.6833,84.6601 C61.7173,84.5211 60.7813,84.3971 59.8133,84.5961 C59.1473,84.7331 58.5323,85.0611 57.9283,85.3641 C57.1453,85.7591 56.9233,86.8641 57.3453,87.5881 C57.8123,88.3851 58.7823,88.5671 59.5693,88.1711" id="Fill-3052" fill="#000000"></path>
            <path d="M61.8198,87.7942 C65.7958,88.4702 70.0498,87.4872 72.3018,83.8922 C73.4158,82.1142 70.6048,80.4812 69.4958,82.2512 C68.0758,84.5192 65.1708,85.0832 62.6838,84.6602 C60.6378,84.3132 59.7588,87.4442 61.8198,87.7942" id="Fill-3054" fill="#000000"></path>
            <path d="M56.6372,3.7371 C57.3052,4.0871 57.8972,4.5391 58.6222,4.7771 C59.4302,5.0421 60.4322,4.4691 60.6212,3.6421 C60.8242,2.7481 60.3512,1.9271 59.4862,1.6431 C59.1472,1.5311 59.7522,1.8251 59.4152,1.6011 C59.3142,1.5341 59.2042,1.4751 59.1002,1.4111 C58.8302,1.2431 58.5592,1.0791 58.2772,0.9301 C57.5252,0.5361 56.4772,0.7141 56.0542,1.5131 C55.6582,2.2621 55.8332,3.3161 56.6372,3.7371" id="Fill-3056" fill="#000000"></path>
            <path d="M58.6221,4.7771 C59.3661,4.9771 60.0741,4.8521 60.8241,4.8351 C61.6731,4.8151 62.4891,4.1011 62.4491,3.2101 C62.4101,2.3461 61.7341,1.5641 60.8241,1.5851 C60.5501,1.5911 60.2781,1.6221 60.0051,1.6411 C59.8751,1.6511 59.7461,1.6501 59.6161,1.6581 C59.2761,1.6811 59.8101,1.7301 59.4861,1.6431 C58.6661,1.4221 57.6831,1.9191 57.4871,2.7781 C57.2921,3.6331 57.7441,4.5401 58.6221,4.7771" id="Fill-3058" fill="#000000"></path>
            <path d="M60.8237,4.8347 C63.0527,4.9097 64.8957,7.4437 66.1447,9.0097 C67.4487,10.6447 69.7357,8.3317 68.4437,6.7117 C66.5327,4.3177 64.1017,1.6947 60.8237,1.5847 C58.7317,1.5147 58.7347,4.7647 60.8237,4.8347" id="Fill-3060" fill="#000000"></path>
            <path d="M67.2939,9.4856 C68.8149,9.4226 69.7539,9.3506 71.1069,10.0546 C72.9609,11.0176 74.6059,8.2146 72.7479,7.2486 C71.9189,6.8176 71.0659,6.4196 70.1369,6.2766 C69.1889,6.1306 68.2489,6.1956 67.2939,6.2356 C65.2109,6.3226 65.1989,9.5736 67.2939,9.4856" id="Fill-3062" fill="#000000"></path>
            <path d="M71.1074,10.0544 C71.1574,10.0834 71.5284,10.3484 71.3974,10.2354 C71.2544,10.1134 71.5694,10.4044 71.6044,10.4384 C71.8284,10.6584 72.0334,10.8954 72.2344,11.1354 C72.5744,11.5414 72.8914,11.9814 73.3004,12.3224 C73.9534,12.8644 74.9674,13.0094 75.5984,12.3224 C76.1494,11.7224 76.2964,10.6044 75.5984,10.0234 C75.1524,9.6534 74.8144,9.1664 74.4404,8.7274 C73.9534,8.1544 73.4034,7.6254 72.7484,7.2484 C72.0104,6.8244 70.9364,7.0524 70.5244,7.8314 C70.1154,8.6054 70.3204,9.6014 71.1074,10.0544" id="Fill-3064" fill="#000000"></path>
            <path d="M73.6289,12.5759 C75.6119,13.4479 77.7919,15.1329 77.8869,17.4849 C77.9709,19.5699 81.2209,19.5799 81.1369,17.4849 C80.9959,13.9859 78.3679,11.1329 75.2699,9.7699 C73.3729,8.9349 71.7169,11.7349 73.6289,12.5759" id="Fill-3066" fill="#000000"></path>
            <path d="M79.0801,19.052 C79.9841,19.385 81.4331,20.716 81.4841,21.923 C81.5721,24.007 84.8231,24.017 84.7341,21.923 C84.6191,19.211 82.4131,16.828 79.9441,15.918 C79.1201,15.615 78.1631,16.258 77.9451,17.053 C77.6961,17.96 78.2531,18.748 79.0801,19.052" id="Fill-3068" fill="#000000"></path>
            <path d="M81.4839,21.9226 C81.5589,22.6726 81.3999,23.4386 81.5609,24.1816 C81.7759,25.1736 82.5029,25.7526 83.4219,26.0716 C84.2259,26.3516 85.2349,25.7546 85.4219,24.9376 C85.6279,24.0316 85.1469,23.2376 84.2869,22.9386 C84.4629,23.0246 84.5009,23.0416 84.4009,22.9906 C84.2879,22.9276 84.3309,22.9676 84.5279,23.1096 C84.3389,22.9356 84.6369,23.3026 84.6789,23.3636 C84.7339,23.5116 84.7439,23.5246 84.7089,23.4026 C84.7199,23.4876 84.7319,23.5736 84.7429,23.6596 C84.7229,23.6496 84.7379,23.3836 84.7379,23.3646 C84.7459,22.8806 84.7819,22.4076 84.7339,21.9226 C84.6499,21.0796 84.0469,20.2556 83.1089,20.2976 C82.3009,20.3346 81.3939,21.0166 81.4839,21.9226" id="Fill-3070" fill="#000000"></path>
            <path d="M83.4224,26.072 C85.5234,26.74 86.7474,28.597 87.1014,30.698 C87.4484,32.756 90.5814,31.884 90.2354,29.834 C89.6904,26.605 87.4074,23.931 84.2864,22.938 C82.2884,22.303 81.4334,25.44 83.4224,26.072" id="Fill-3072" fill="#000000"></path>
            <path d="M87.5195,31.4153 C88.6865,32.7043 89.2945,34.4763 89.0355,36.2153 C88.9055,37.0903 89.2545,37.9513 90.1705,38.2143 C90.9355,38.4343 92.0405,37.9463 92.1695,37.0793 C92.6095,34.1223 91.8375,31.3463 89.8175,29.1173 C88.4095,27.5643 86.1165,29.8683 87.5195,31.4153" id="Fill-3074" fill="#000000"></path>
            <path d="M72.3022,83.8918 C72.4212,83.6988 72.5212,83.4988 72.6132,83.2918 C72.7042,83.0878 72.7892,82.8778 72.8742,82.6698 C72.8922,82.6238 73.0402,82.3048 72.9322,82.5218 C72.8142,82.7588 73.2142,82.0428 73.0842,82.2338 C72.9582,82.4178 73.1882,82.1328 73.2242,82.0988 C73.0242,82.2928 73.3432,82.0268 73.4112,81.9868 C74.1432,81.5538 74.4712,80.5028 73.9942,79.7628 C73.5192,79.0268 72.5542,78.7168 71.7712,79.1798 C71.1072,79.5728 70.5322,80.1088 70.1722,80.7978 C70.0132,81.1028 69.8922,81.4298 69.7632,81.7478 C69.6282,82.0798 69.7922,81.7168 69.7262,81.8298 C69.6462,81.9688 69.5802,82.1148 69.4962,82.2508 C69.0512,82.9768 69.3142,84.0708 70.0792,84.4748 C70.8712,84.8938 71.8272,84.6658 72.3022,83.8918" id="Fill-3076" fill="#000000"></path>
            <path d="M73.4116,81.9866 C75.8276,80.8386 77.6556,78.8666 78.3516,76.2576 C78.8916,74.2336 75.7576,73.3706 75.2186,75.3926 C74.7256,77.2386 73.4566,78.3796 71.7706,79.1796 C70.9786,79.5566 70.7716,80.6916 71.1876,81.4036 C71.6626,82.2146 72.6156,82.3646 73.4116,81.9866" id="Fill-3078" fill="#000000"></path>
            <path d="M78.3521,76.2571 C78.9541,74.6741 78.8241,73.6321 80.5921,73.0051 C81.4191,72.7121 81.9721,71.8961 81.7271,71.0061 C81.5071,70.2051 80.5591,69.5761 79.7281,69.8711 C78.3271,70.3681 77.0331,71.1171 76.2751,72.4451 C75.7491,73.3671 75.5901,74.4131 75.2181,75.3931 C74.9061,76.2131 75.5641,77.1751 76.3531,77.3921 C77.2671,77.6431 78.0391,77.0801 78.3521,76.2571" id="Fill-3080" fill="#000000"></path>
            <path d="M80.5918,73.0051 C83.6888,71.9841 86.2078,70.1031 87.8208,67.2381 C88.8498,65.4141 86.0428,63.7741 85.0148,65.5981 C83.8188,67.7221 82.0348,69.1101 79.7278,69.8711 C77.7508,70.5231 78.5978,73.6631 80.5918,73.0051" id="Fill-3082" fill="#000000"></path>
            <path d="M87.2383,67.8215 C90.0003,65.8075 91.3893,62.6235 91.0723,59.2165 C90.8813,57.1515 87.6293,57.1315 87.8223,59.2165 C88.0253,61.3965 87.4473,63.6665 85.5983,65.0155 C83.9253,66.2355 85.5453,69.0565 87.2383,67.8215" id="Fill-3084" fill="#000000"></path>
            <path d="M91.0728,59.2161 C91.0558,59.1111 91.0508,59.0051 91.0548,58.8991 C91.0488,58.9421 91.0438,58.9851 91.0378,59.0271 C91.0958,58.8461 91.0938,58.8331 91.0298,58.9871 C91.0638,58.9181 91.1018,58.8511 91.1438,58.7871 C91.2058,58.6941 91.1978,58.6991 91.1168,58.8011 C91.1668,58.7401 91.2188,58.6821 91.2738,58.6261 C91.3978,58.4941 91.5318,58.3741 91.6698,58.2571 C92.3178,57.7021 92.2808,56.5201 91.6698,55.9581 C90.9788,55.3241 90.0628,55.3671 89.3708,55.9581 C88.4378,56.7561 87.6878,57.9421 87.8228,59.2161 C87.9118,60.0591 88.5068,60.8831 89.4478,60.8411 C90.2518,60.8051 91.1688,60.1211 91.0728,59.2161" id="Fill-3086" fill="#000000"></path>
            <path d="M91.6694,58.2566 C92.5904,57.3146 93.2324,56.2696 93.4234,54.9536 C93.6034,53.7216 93.5584,52.7116 94.2334,51.6086 C95.3284,49.8196 92.5184,48.1856 91.4274,49.9686 C90.7674,51.0456 90.4334,52.1516 90.3154,53.4026 C90.2154,54.4776 90.1724,55.1396 89.3714,55.9586 C87.9074,57.4546 90.2034,59.7556 91.6694,58.2566" id="Fill-3088" fill="#000000"></path>
            <path d="M94.2334,51.6086 C95.9574,48.8586 96.7484,45.3606 95.2954,42.3376 C94.3894,40.4526 91.5864,42.0996 92.4884,43.9776 C93.4064,45.8856 92.4634,48.3156 91.4274,49.9686 C90.3134,51.7456 93.1244,53.3786 94.2334,51.6086" id="Fill-3090" fill="#000000"></path>
            <path d="M95.459,42.7253 C94.895,41.2423 94.156,39.9823 93.12,38.7813 C92.461,38.0173 92.092,37.6973 92.228,36.6473 C92.341,35.7693 91.399,35.0313 90.603,35.0223 C89.632,35.0123 89.09,35.7803 88.978,36.6473 C88.598,39.5913 91.372,41.0833 92.325,43.5893 C93.062,45.5243 96.205,44.6853 95.459,42.7253" id="Fill-3092" fill="#000000"></path>
            <path d="M49.1899,86.4124 C48.3179,87.9964 47.4469,89.5794 46.5759,91.1634 C45.5669,92.9974 48.3719,94.6394 49.3819,92.8044 C50.2529,91.2204 51.1249,89.6364 51.9959,88.0534 C53.0049,86.2194 50.1999,84.5774 49.1899,86.4124" id="Fill-3094" fill="#000000"></path>
            <path d="M46.5757,91.1633 C45.1187,94.5063 44.8627,97.8953 44.8497,101.5143 C44.8427,103.6043 48.0927,103.6073 48.0997,101.5143 C48.1107,98.5403 48.1767,95.5703 49.3817,92.8043 C50.2087,90.9053 47.4097,89.2483 46.5757,91.1633" id="Fill-3096" fill="#000000"></path>
            <path d="M44.8496,101.5139 C44.8636,109.4369 45.0526,117.3559 45.2776,125.2759 C45.3376,127.3629 48.5876,127.3709 48.5276,125.2759 C48.3026,117.3559 48.1136,109.4369 48.0996,101.5139 C48.0966,99.4219 44.8466,99.4179 44.8496,101.5139" id="Fill-3098" fill="#000000"></path>
            <path d="M32.2021,82.4592 C34.1281,84.8362 35.5901,87.6652 37.1821,90.2692 C38.2721,92.0502 41.0841,90.4192 39.9891,88.6282 C38.2431,85.7732 36.6121,82.7682 34.5001,80.1602 C33.1831,78.5352 30.8961,80.8472 32.2021,82.4592" id="Fill-3100" fill="#000000"></path>
            <path d="M37.1826,90.2688 C39.1936,93.8748 40.4486,96.9568 40.6056,101.1548 C40.6836,103.2398 43.9346,103.2488 43.8556,101.1548 C43.6776,96.3928 42.2796,92.7368 39.9886,88.6278 C38.9706,86.8008 36.1616,88.4388 37.1826,90.2688" id="Fill-3102" fill="#000000"></path>
            <path d="M40.606,101.1545 C40.744,109.4305 40.419,117.6975 40.432,125.9715 C40.435,128.0625 43.685,128.0665 43.682,125.9715 C43.669,117.6975 43.994,109.4305 43.856,101.1545 C43.821,99.0645 40.571,99.0585 40.606,101.1545" id="Fill-3104" fill="#000000"></path>
            <path d="M45.4092,85.5598 C45.0232,86.1708 44.7532,86.8458 44.3952,87.4728 C44.3142,87.6148 44.2242,87.7488 44.1392,87.8878 C44.0312,88.0398 44.0372,88.0348 44.1582,87.8708 C44.1052,87.9318 44.0502,87.9908 43.9912,88.0458 C44.1752,87.9178 44.1962,87.9018 44.0532,87.9968 C44.2842,87.9148 44.3162,87.9018 44.1502,87.9538 C44.4052,87.9158 44.7542,88.0338 44.3522,87.8808 C43.5312,87.5718 42.5702,88.2258 42.3532,89.0168 C42.1022,89.9288 42.6632,90.7048 43.4882,91.0158 C44.8292,91.5218 46.0612,90.7498 46.8292,89.6898 C47.3902,88.9148 47.7072,88.0048 48.2152,87.2008 C48.6842,86.4578 48.3712,85.4098 47.6322,84.9768 C46.8512,84.5198 45.8792,84.8158 45.4092,85.5598" id="Fill-3106" fill="#000000"></path>
            <path d="M44.3521,87.8811 C43.3691,87.4761 42.5701,86.3191 41.9611,85.5021 C41.2411,84.5371 40.6051,83.5121 39.9091,82.5301 C38.7091,80.8381 35.8901,82.4591 37.1031,84.1701 C38.8961,86.6981 40.4821,89.7741 43.4881,91.0161 C44.3061,91.3531 45.2661,90.6501 45.4871,89.8801 C45.7541,88.9501 45.1591,88.2151 44.3521,87.8811" id="Fill-3108" fill="#000000"></path>
            <path d="M48.4697,96.2112 C48.9067,94.3802 49.6347,93.0812 51.0267,91.8242 C52.3297,90.6472 53.5217,89.5082 54.5517,88.0712 C55.7717,86.3682 52.9547,84.7442 51.7447,86.4312 C50.6667,87.9352 49.1937,88.9622 47.9317,90.2842 C46.5627,91.7182 45.7927,93.4332 45.3357,95.3472 C44.8507,97.3802 47.9837,98.2482 48.4697,96.2112" id="Fill-3110" fill="#000000"></path>
            <path d="M40.4316,125.9719 C40.4226,134.0409 40.1106,142.0939 40.2316,150.1669 C40.2626,152.2569 43.5126,152.2629 43.4816,150.1669 C43.3606,142.0939 43.6726,134.0409 43.6816,125.9719 C43.6836,123.8799 40.4336,123.8769 40.4316,125.9719" id="Fill-3112" fill="#000000"></path>
            <path d="M45.2778,125.2756 C45.5708,133.5676 45.8408,141.8696 45.8658,150.1676 C45.8718,152.2576 49.1218,152.2626 49.1158,150.1676 C49.0908,141.8696 48.8208,133.5676 48.5278,125.2756 C48.4538,123.1896 45.2038,123.1796 45.2778,125.2756" id="Fill-3114" fill="#000000"></path>
            <path d="M45.0469,150.5081 C44.8879,150.5061 44.7299,150.5031 44.5709,150.4911 C44.5099,150.4871 44.1599,150.4371 44.3639,150.4731 C44.2199,150.4471 44.0799,150.4091 43.9389,150.3741 C43.8929,150.3621 43.5539,150.2401 43.7859,150.3411 C43.6919,150.3001 43.6049,150.2441 43.5139,150.1961 C43.2019,150.0251 43.5439,150.2721 43.4469,150.1321 C43.3509,149.9921 43.5189,150.3341 43.4189,150.0641 C43.4559,150.1651 43.4959,150.5181 43.4819,150.1671 C43.4439,149.2901 42.7609,148.5421 41.8569,148.5421 C41.0049,148.5421 40.1939,149.2861 40.2319,150.1671 C40.3409,152.7621 42.7779,153.7291 45.0469,153.7581 C47.1389,153.7861 47.1399,150.5361 45.0469,150.5081" id="Fill-3116" fill="#000000"></path>
            <path d="M45.8657,150.1672 C45.8587,150.4342 45.8607,150.3312 45.8817,150.1262 C45.8477,150.4482 45.7527,150.1612 45.9197,150.1152 C45.9117,150.1172 45.7827,150.3912 45.7687,150.3802 C45.7877,150.3952 45.9837,150.0772 45.7447,150.3702 L45.9017,150.2562 C45.8397,150.3022 45.7747,150.3442 45.7067,150.3822 C45.4657,150.5602 45.9737,150.3402 45.6377,150.4182 C45.5277,150.4432 45.4137,150.4722 45.3047,150.5032 C45.1897,150.5232 45.2117,150.5212 45.3687,150.4952 C45.2617,150.5042 45.1547,150.5082 45.0467,150.5082 C44.1977,150.5252 43.3817,151.2432 43.4217,152.1332 C43.4607,152.9992 44.1367,153.7762 45.0467,153.7582 C47.1557,153.7172 49.0557,152.4152 49.1157,150.1672 C49.1377,149.3172 48.3517,148.5042 47.4907,148.5422 C46.5907,148.5832 45.8897,149.2562 45.8657,150.1672" id="Fill-3118" fill="#000000"></path>
            <path d="M96.5654,140.886 C80.0844,143.572 63.6094,146.37 47.0584,148.601 C44.9954,148.878 45.8744,152.011 47.9224,151.735 C64.4744,149.505 80.9474,146.705 97.4294,144.021 C99.4884,143.685 98.6144,140.553 96.5654,140.886" id="Fill-3120" fill="#000000"></path>
            <path d="M95.6577,141.0344 C78.6807,143.7914 61.9077,147.5504 44.9857,150.5814 C42.9297,150.9494 43.8007,154.0824 45.8487,153.7154 C62.7717,150.6834 79.5447,146.9254 96.5217,144.1684 C98.5807,143.8344 97.7067,140.7014 95.6577,141.0344" id="Fill-3122" fill="#000000"></path>
        </g>
    </g>
</svg>