<?xml version="1.0" encoding="UTF-8" standalone="no"?>
<svg width="150px" height="150px" viewBox="0 0 150 150" version="1.1" xmlns="http://www.w3.org/2000/svg" xmlns:xlink="http://www.w3.org/1999/xlink">
    <!-- Generator: Sketch 47.1 (45422) - http://www.bohemiancoding.com/sketch -->
    <title>two-vases</title>
    <desc>Created with Sketch.</desc>
    <defs></defs>
    <g id="Page-1" stroke="none" stroke-width="1" fill="none" fill-rule="evenodd">
        <g id="two-vases">
            <g id="Group" transform="translate(42.000000, 92.000000)">
                <path d="M52.1921902,13.5051025 C51.9436264,13.1661194 51.6693697,12.8821546 51.3807728,12.6319106 C51.0897858,11.6333008 50.8585498,10.6388322 50.843612,9.70293135 C50.8173216,8.05356879 50.0871654,6.86328275 49.0522796,6.10249357 C49.2159971,3.61602627 47.6845811,1 44.4239736,1 L42.2836958,1 C38.7159686,1 37.212038,4.12893779 37.7456137,6.79347472 C36.0630279,8.84452924 35.0974531,11.3203479 34.2406249,13.8730736 C34.213737,13.9523471 34.2340523,14.0156476 34.213737,14.0931464 C32.5323462,15.8513621 32.4026867,17.7693081 31.832663,20.202532 C31.6838832,20.838495 31.7639494,21.3892685 31.9294595,21.8944893 C31.5231533,23.2551543 31.1670378,24.6312006 31.0493285,26.0841542 C30.6962006,30.4613542 32.3925291,35.3266187 31.2978923,39.5866832 C31.1270047,40.2516343 31.211851,40.8213388 31.3893112,41.3413494 C31.3683984,41.506404 31.3044649,41.6448369 31.31044,41.8240897 C31.4616098,46.0735055 32.188181,50.279735 32.1194674,54.5380247 C32.1027371,55.5585234 32.4917156,56.3234537 33.0844447,56.8334073 C32.7827026,58.5892567 33.7948831,60.604224 36.1317414,60.604224 C36.4890519,60.604224 36.7746613,60.5024699 37.0704283,60.4160973 C37.4815146,60.525542 37.9176963,60.6030408 38.4052638,60.604224 C41.4238801,60.6125063 44.4407038,60.7000621 47.4593201,60.7260922 C47.9504727,60.8935132 48.491816,61 49.1048604,61 C51.8510125,61 53.3776484,59.1429881 53.6949258,57.0718194 C53.8305603,56.6216168 53.9249668,56.1406513 53.9195892,55.5934274 C53.8968839,53.3406395 53.872386,51.2830775 54.429862,49.0894489 C55.0034708,46.8313367 55.5298764,44.6181856 55.5244988,42.2742923 C55.5239013,41.889165 55.4844657,41.5288846 55.4121671,41.1916763 C55.4790881,40.870441 55.5215113,40.5296832 55.5244988,40.16467 C55.6039675,31.432159 57.7579881,21.0982045 52.1921902,13.5051025" id="Fill-11" fill="#A1A0A5"></path>
                <path d="M52.1921902,13.5051025 C51.9436264,13.1661194 51.6693697,12.8821546 51.3807728,12.6319106 C51.0897858,11.6333008 50.8585498,10.6388322 50.843612,9.70293135 C50.8173216,8.05356879 50.0871654,6.86328275 49.0522796,6.10249357 C49.2159971,3.61602627 47.6845811,1 44.4239736,1 L42.2836958,1 C38.7159686,1 37.212038,4.12893779 37.7456137,6.79347472 C36.0630279,8.84452924 35.0974531,11.3203479 34.2406249,13.8730736 C34.213737,13.9523471 34.2340523,14.0156476 34.213737,14.0931464 C32.5323462,15.8513621 32.4026867,17.7693081 31.832663,20.202532 C31.6838832,20.838495 31.7639494,21.3892685 31.9294595,21.8944893 C31.5231533,23.2551543 31.1670378,24.6312006 31.0493285,26.0841542 C30.6962006,30.4613542 32.3925291,35.3266187 31.2978923,39.5866832 C31.1270047,40.2516343 31.211851,40.8213388 31.3893112,41.3413494 C31.3683984,41.506404 31.3044649,41.6448369 31.31044,41.8240897 C31.4616098,46.0735055 32.188181,50.279735 32.1194674,54.5380247 C32.1027371,55.5585234 32.4917156,56.3234537 33.0844447,56.8334073 C32.7827026,58.5892567 33.7948831,60.604224 36.1317414,60.604224 C36.4890519,60.604224 36.7746613,60.5024699 37.0704283,60.4160973 C37.4815146,60.525542 37.9176963,60.6030408 38.4052638,60.604224 C41.4238801,60.6125063 44.4407038,60.7000621 47.4593201,60.7260922 C47.9504727,60.8935132 48.491816,61 49.1048604,61 C51.8510125,61 53.3776484,59.1429881 53.6949258,57.0718194 C53.8305603,56.6216168 53.9249668,56.1406513 53.9195892,55.5934274 C53.8968839,53.3406395 53.872386,51.2830775 54.429862,49.0894489 C55.0034708,46.8313367 55.5298764,44.6181856 55.5244988,42.2742923 C55.5239013,41.889165 55.4844657,41.5288846 55.4121671,41.1916763 C55.4790881,40.870441 55.5215113,40.5296832 55.5244988,40.16467 C55.6039675,31.432159 57.7579881,21.0982045 52.1921902,13.5051025 Z" id="Stroke-13" stroke="#000000" stroke-width="0.65"></path>
                <path d="M24.5320411,52.461421 C24.1036556,52.0327864 23.6111903,51.9499953 23.1578848,52.0492272 C22.2987405,51.2260139 21.357123,50.4814815 20.4208455,49.6741219 C18.0261586,47.6084555 18.2759513,44.4248163 17.2127008,41.7038675 C17.1029345,41.4237871 16.9320549,41.2212132 16.7386288,41.0556311 C16.5630026,38.2536527 16.3642364,35.4528487 16.3363498,32.6438244 C16.3238899,31.3303236 15.0072868,30.8905328 14.0710093,31.2757167 C13.1335451,30.6656464 11.5315494,31.0637481 11.5380761,32.5122981 C11.5529094,36.0734881 11.7184489,39.7362586 11.0841773,43.2134832 C10.704445,44.7553934 10.2736862,46.2773397 9.64653451,47.7534867 C9.61568126,47.8180755 9.57355471,47.8797284 9.5415148,47.9443172 C8.72924365,49.6494607 6.75463563,50.6406048 5.41607923,51.9582157 C3.09496547,54.2423095 1.31853025,56.1817342 1.00821775,59.5033586 C0.878871435,60.8826224 2.3046476,61.2936419 3.2972916,60.7980699 C3.33763815,60.8010057 3.36552475,60.8203823 3.40705797,60.8203823 L25.0007732,60.8203823 C25.1277462,60.8203823 25.2232726,60.7757574 25.334819,60.7534449 C26.1648901,60.795134 27.0181011,60.299562 26.9997078,59.2403061 C26.9558013,56.690224 26.3909495,54.3233391 24.5320411,52.461421" id="Fill-15" fill="#A1A0A5"></path>
                <path d="M24.5320411,52.461421 C24.1036556,52.0327864 23.6111903,51.9499953 23.1578848,52.0492272 C22.2987405,51.2260139 21.357123,50.4814815 20.4208455,49.6741219 C18.0261586,47.6084555 18.2759513,44.4248163 17.2127008,41.7038675 C17.1029345,41.4237871 16.9320549,41.2212132 16.7386288,41.0556311 C16.5630026,38.2536527 16.3642364,35.4528487 16.3363498,32.6438244 C16.3238899,31.3303236 15.0072868,30.8905328 14.0710093,31.2757167 C13.1335451,30.6656464 11.5315494,31.0637481 11.5380761,32.5122981 C11.5529094,36.0734881 11.7184489,39.7362586 11.0841773,43.2134832 C10.704445,44.7553934 10.2736862,46.2773397 9.64653451,47.7534867 C9.61568126,47.8180755 9.57355471,47.8797284 9.5415148,47.9443172 C8.72924365,49.6494607 6.75463563,50.6406048 5.41607923,51.9582157 C3.09496547,54.2423095 1.31853025,56.1817342 1.00821775,59.5033586 C0.878871435,60.8826224 2.3046476,61.2936419 3.2972916,60.7980699 C3.33763815,60.8010057 3.36552475,60.8203823 3.40705797,60.8203823 L25.0007732,60.8203823 C25.1277462,60.8203823 25.2232726,60.7757574 25.334819,60.7534449 C26.1648901,60.795134 27.0181011,60.299562 26.9997078,59.2403061 C26.9558013,56.690224 26.3909495,54.3233391 24.5320411,52.461421 Z" id="Stroke-17" stroke="#000000" stroke-width="0.65"></path>
                <path d="M37.136302,2.92010096 C36.9618136,4.93532317 36.8113531,6.86310683 35.9160275,8.67332109 C34.8198972,10.8888248 33.4360041,12.8786426 32.5481157,15.2075801 C30.3833155,20.8851777 30.0280457,27.0318713 30.0000132,33.0728116 C29.9942922,34.3081765 31.8535947,34.3099489 31.8593156,33.0728116 C31.8896365,26.5491869 32.1854087,19.4495313 35.2953065,13.5911486 C36.1551624,11.9711723 37.2490043,10.4522229 37.9709857,8.75544243 C38.7381625,6.95586259 38.8285532,4.84788462 38.9956044,2.92010096 C39.1020137,1.68946248 37.2421392,1.69714289 37.136302,2.92010096" id="Fill-28" fill="#1D1D1B"></path>
                <path d="M30.0000224,32.9397627 C30.0564952,42.4921437 31.4781106,51.931376 33.1751749,61.2981692 C33.3976085,62.527239 35.2030083,62.006396 34.981151,60.7809182 C33.3140518,51.581154 31.928164,42.3215227 31.8728438,32.9397627 C31.8653525,31.6879434 29.9925311,31.6855487 30.0000224,32.9397627" id="Fill-30" fill="#1D1D1B"></path>
                <path d="M48.0043589,2.91992723 C48.166091,4.80244927 48.2521188,6.84209426 48.9661489,8.60884148 C49.6767379,10.3667284 50.8232008,11.9290976 51.7064188,13.5912931 C54.8200489,19.4515068 55.1102491,26.5503929 55.1360575,33.0727676 C55.1406456,34.3078958 57.0045797,34.3102586 56.9999915,33.0727676 C56.9759038,27.0323941 56.6243371,20.8874689 54.4587325,15.2085963 C53.5869849,12.9244066 52.2455258,10.9650951 51.1564148,8.79786158 C50.215845,6.92656261 50.0495247,5.02572926 49.868293,2.91992723 C49.7633392,1.69897554 47.898258,1.68775247 48.0043589,2.91992723" id="Fill-32" fill="#1D1D1B"></path>
                <path d="M55.1334649,32.9405614 C55.0714393,42.3225073 53.6850537,51.5810224 52.0189788,60.7796195 C51.7967206,62.0043415 53.5954612,62.5292224 53.8182937,61.2973102 C55.5153814,51.9315421 56.9367999,42.4932734 56.9999741,32.9405614 C57.0080144,31.6870788 55.1415052,31.6858804 55.1334649,32.9405614" id="Fill-34" fill="#1D1D1B"></path>
                <path d="M43.068513,0.000118992318 C41.3383449,0.0229278289 37.7699844,0.266222086 37.0589238,1.99715935 C36.6476008,2.99973444 38.5101283,3.43107488 38.9190772,2.43508902 C38.8068982,2.70778133 38.8698134,2.51872142 39.117913,2.40670469 C39.4372373,2.26174186 39.7405361,2.13857414 40.0853826,2.04024271 C41.0540394,1.76400236 42.0505925,1.6606023 43.068513,1.64742386 C44.3084174,1.63120424 44.3125722,-0.0161006248 43.068513,0.000118992318" id="Fill-36" fill="#1D1D1B"></path>
                <path d="M48.915217,2.36665396 C48.6053944,1.53740619 47.6521378,1.10999944 46.9809499,0.81435458 C45.681621,0.242075291 44.2718433,0.0270608499 42.8886867,0.000184044843 C41.7037711,-0.0227595693 41.7037711,2.10706335 42.8886867,2.1306625 C43.9410638,2.15098398 44.9724841,2.29978971 45.9789826,2.66360988 C46.3312854,2.79012752 47.1763591,3.04250728 47.3258895,3.44238169 C47.7948714,4.69706962 49.3813668,3.6134755 48.915217,2.36665396" id="Fill-38" fill="#1D1D1B"></path>
                <path d="M15.0035565,30.942761 C15.3012908,34.6476626 15.599671,38.3525643 15.8974053,42.0574659 C15.998157,43.3093422 18.0984433,43.3190046 17.9963999,42.0574659 C17.6986655,38.3525643 17.4002854,34.6476626 17.1025511,30.942761 C17.0017993,29.6908847 14.9021589,29.6806185 15.0035565,30.942761" id="Fill-40" fill="#1D1D1B"></path>
                <path d="M23.2450284,53.6327965 C24.5419558,55.1205184 25.3653185,56.9750436 25.2897999,59.0815264 C25.2457473,60.3073295 26.9501606,60.3049857 26.9942131,59.0815264 C27.0875625,56.4922225 26.0434127,54.1144457 24.4501797,52.2862882 C23.6839804,51.4067803 22.4793535,52.7538746 23.2450284,53.6327965" id="Fill-44" fill="#1D1D1B"></path>
                <path d="M19.2569203,49.5947703 C20.604832,51.0369707 22.0884136,52.3263666 23.4698309,53.7319398 C24.29209,54.568645 25.5559632,53.2546401 24.7320563,52.4167903 C23.3511883,51.0112172 21.8665081,49.7218213 20.5191456,48.2796208 C19.716111,47.4205959 18.4544349,48.7363176 19.2569203,49.5947703" id="Fill-46" fill="#1D1D1B"></path>
                <path d="M16.0172923,42.1337362 C16.5027865,44.6413234 17.2709101,46.841371 19.2719253,48.7210882 C20.1744547,49.5697415 21.6158639,48.2895318 20.7145906,47.4431029 C18.9660576,45.7997408 18.4083358,43.8338236 17.9856481,41.6532404 C17.7639411,40.5092824 15.7962134,40.9942272 16.0172923,42.1337362" id="Fill-48" fill="#1D1D1B"></path>
                <path d="M10.8974183,30.9425487 C10.5996797,34.6475162 10.3012952,38.3524838 10.0035565,42.0574513 C9.90215748,43.3172006 12.0018285,43.3111616 12.1025817,42.0574513 C12.4003203,38.3524838 12.6987048,34.6475162 12.9964435,30.9425487 C13.0978425,29.6827994 10.9981715,29.6888384 10.8974183,30.9425487" id="Fill-50" fill="#1D1D1B"></path>
                <path d="M2.54975917,52.2864451 C0.956526938,54.1145305 -0.0870978633,56.4922133 0.00572705621,59.082001 C0.0497795604,60.3030683 1.75471636,60.3089275 1.71013942,59.082001 C1.63462084,56.9750154 2.45850756,55.1205634 3.75490982,53.6329003 C4.5205843,52.754599 3.31648252,51.406386 2.54975917,52.2864451" id="Fill-54" fill="#1D1D1B"></path>
                <path d="M7.48098088,48.2795468 C6.1329837,49.7217244 4.64930791,51.0110999 3.26780305,52.4166508 C2.4443932,53.253915 3.70724794,54.5690436 4.53010848,53.7317794 C5.91161334,52.3262285 7.39583844,51.0368531 8.74328632,49.5946754 C9.54527323,48.7368087 8.28406641,47.4205355 7.48098088,48.2795468" id="Fill-56" fill="#1D1D1B"></path>
                <path d="M10.0144453,41.6536849 C9.59238754,43.8330239 9.03404023,45.8004905 7.28488698,47.4431971 C6.38487383,48.2895748 7.82502048,49.5697071 8.728802,48.721105 C10.7298082,46.8415016 11.4966722,44.6426993 11.9827923,42.1341516 C12.2032421,40.9963798 10.2367794,40.5075717 10.0144453,41.6536849" id="Fill-58" fill="#1D1D1B"></path>
                <path d="M14.0742768,29.0001602 C13.0488428,29.0178983 11.4398907,29.2866988 11.0428152,30.5959076 C10.8717129,31.1607981 11.2375179,31.8089213 11.7124744,31.9596952 C12.2417117,32.127525 12.7202083,31.7522958 12.8919006,31.1853586 C12.8275897,31.3136187 12.7638689,31.4411967 12.699558,31.5694568 C12.7502987,31.5141958 12.7443986,31.5162425 12.6818577,31.5749147 C12.6865778,31.6233534 12.6039767,31.6219889 12.7178482,31.5558121 C12.777439,31.5203359 12.8346698,31.4794018 12.8960307,31.4466545 C12.7679989,31.5155603 12.9349712,31.4330098 12.9851219,31.4152717 C13.3491569,31.2829182 13.6937216,31.224246 14.0742768,31.2174236 C15.3068037,31.1955921 15.3103438,28.9783286 14.0742768,29.0001602" id="Fill-60" fill="#1D1D1B"></path>
                <path d="M16.8916867,30.3447396 C16.7064056,29.83279 16.1619642,29.5570725 15.7566262,29.3759839 C15.1677174,29.1125204 14.5206589,29.0124452 13.8946939,29.0001911 C12.7020538,28.9763636 12.7014837,31.1889119 13.8946939,31.2127393 C14.2920505,31.2209087 14.6683137,31.2787754 15.0491375,31.4203785 C15.1209696,31.4476098 15.195082,31.4741604 15.2646337,31.5095612 C15.1842502,31.4687141 15.2885777,31.5279424 15.3108114,31.5401965 C15.3763724,31.5783204 15.4464942,31.7076694 15.4048772,31.5973823 C15.3986062,31.5810435 15.2515215,31.3495769 15.2919983,31.4619063 C15.4903916,32.0099375 16.1648147,32.1338402 16.5593209,31.8588034 C17.0342106,31.5272616 17.0912201,30.8954939 16.8916867,30.3447396" id="Fill-62" fill="#1D1D1B"></path>
            </g>
        </g>
    </g>
</svg>