<?xml version="1.0" encoding="UTF-8" standalone="no"?>
<svg width="174px" height="174px" viewBox="0 0 174 174" version="1.1" xmlns="http://www.w3.org/2000/svg" xmlns:xlink="http://www.w3.org/1999/xlink">
    <!-- Generator: Sketch 48.1 (47250) - http://www.bohemiancoding.com/sketch -->
    <title>ugly-out-box</title>
    <desc>Created with Sketch.</desc>
    <defs></defs>
    <g id="Boxes" stroke="none" stroke-width="1" fill="none" fill-rule="evenodd">
        <g id="ugly-out-box">
            <g id="Group">
                <polygon id="Fill-542" fill="#FFDC00" points="0.984424898 161.794492 150.768665 161.794492 150.768665 12.2636059 0.984424898 12.2636059"></polygon>
                <g id="Group-561" transform="translate(0.000000, 0.178419)">
                    <path d="M0.984335689,12.8101022 L51.7475638,12.8101022 L132.172892,12.8101022 L150.768576,12.8101022 C150.527265,12.5683449 150.285508,12.3270337 150.04375,12.0852764 L150.04375,62.9287929 L150.04375,143.290337 L150.04375,161.616162 C150.285508,161.374405 150.527265,161.133094 150.768576,160.891337 L100.005348,160.891337 L19.5800194,160.891337 L0.984335689,160.891337 C1.22609296,161.133094 1.46740418,161.374405 1.70916145,161.616162 L1.70916145,110.773092 L1.70916145,30.4111019 L1.70916145,12.0852764 C1.70916145,11.1525929 0.259509925,11.1508087 0.259509925,12.0852764 L0.259509925,62.9287929 L0.259509925,143.290337 L0.259509925,161.616162 C0.259509925,162.008237 0.59181466,162.340988 0.984335689,162.340988 L51.7475638,162.340988 L132.172892,162.340988 L150.768576,162.340988 C151.160651,162.340988 151.493402,162.009129 151.493402,161.616162 L151.493402,110.773092 L151.493402,30.4111019 L151.493402,12.0852764 C151.493402,11.6936475 151.161543,11.3604507 150.768576,11.3604507 L100.005348,11.3604507 L19.5800194,11.3604507 L0.984335689,11.3604507 C0.051652199,11.3604507 0.0498680125,12.8101022 0.984335689,12.8101022" id="Fill-543" fill="#000000"></path>
                    <polygon id="Fill-545" fill="#F088B6" points="172.723169 1.16105936 150.626466 12.0851872 150.626466 161.046472 172.723169 138.195949"></polygon>
                    <polygon id="Fill-547" fill="#D42314" points="172.723169 0.93192521 35.5366237 0.93192521 1.12635693 12.085321 150.626466 12.085321"></polygon>
                    <path d="M172.723169,0.207099447 L151.786633,0.207099447 L105.243452,0.207099447 L58.3238075,0.207099447 L42.389684,0.207099447 C40.1902281,0.207099447 37.7820224,-0.0734638789 35.5950558,0.207099447 C34.516069,0.345373901 33.4210246,0.856097284 32.3906569,1.19018621 L22.3314134,4.45078702 C15.6175196,6.6270485 8.90317981,8.80286393 2.18928604,10.9791254 C1.7708943,11.1151696 1.35205652,11.2507678 0.933664792,11.386366 C0.172263206,11.6330298 0.284220908,12.8101468 1.12635693,12.8101468 L20.9968419,12.8101468 L66.3142868,12.8101468 L115.640353,12.8101468 L147.535362,12.8101468 C149.397161,12.8101468 150.560897,12.9287952 152.216176,12.0933499 C158.590628,8.87601557 164.96508,5.65823523 171.339533,2.44090094 C171.922516,2.14651017 172.505945,1.85211939 173.088927,1.55728258 C173.922143,1.13710666 173.188842,-0.114054122 172.357411,0.306121798 C166.785397,3.11799971 161.213382,5.93076972 155.641814,8.74353973 C154.2894,9.42599106 152.936987,10.1084424 151.584574,10.7913398 C151.235319,10.9675282 150.889187,11.1562059 150.53458,11.3212432 C150.171052,11.4902948 150.318693,11.4006395 150.610408,11.3604953 C150.076044,11.434093 149.478788,11.3604953 148.940855,11.3604953 L120.152114,11.3604953 L72.0883603,11.3604953 L25.4122574,11.3604953 L9.33049248,11.3604953 L4.21746003,11.3604953 C3.46141101,11.3604953 2.18928604,11.1084789 1.4675826,11.3604953 C1.37703514,11.3921646 1.22582533,11.3604953 1.12635693,11.3604953 C1.19058765,11.8350889 1.25481836,12.3096825 1.31904907,12.7842761 C12.6223166,9.12044912 23.8689361,4.98871925 35.3046795,1.76826263 C35.759201,1.64024725 35.5607102,1.64604585 36.3613639,1.65675097 C37.548294,1.67236261 38.7365622,1.65675097 39.9239383,1.65675097 L54.0457744,1.65675097 L99.456443,1.65675097 L146.967099,1.65675097 L163.998943,1.65675097 C166.716259,1.65675097 169.648124,1.9707678 172.352951,1.65675097 C172.472937,1.64292353 172.602291,1.65675097 172.723169,1.65675097 C173.656299,1.65675097 173.657637,0.207099447 172.723169,0.207099447" id="Fill-549" fill="#000000"></path>
                    <path d="M172.29889,0.515050036 C165.031452,4.17352444 157.76446,7.83199885 150.497023,11.4900272 C149.663808,11.9102031 150.396662,13.1613639 151.228985,12.7420801 C158.495977,9.08360567 165.763415,5.42513127 173.030406,1.76665686 C173.864067,1.34692699 173.130767,0.0962122567 172.29889,0.515050036" id="Fill-551" fill="#000000"></path>
                    <path d="M0.984335689,12.8410132 L51.6993907,12.8410132 L132.048445,12.8410132 L150.626287,12.8410132 C150.38453,12.599702 150.143219,12.3579447 149.901461,12.1161875 L149.901461,62.9494448 L149.901461,143.294039 L149.901461,161.616296 L150.626287,160.89147 L99.9116782,160.89147 L19.5621776,160.89147 L0.984335689,160.89147 C1.22609296,161.133228 1.46740418,161.374539 1.70916145,161.616296 L1.70916145,110.783485 L1.70916145,30.4384446 L1.70916145,12.1161875 C1.70916145,11.183504 0.259509925,11.1817198 0.259509925,12.1161875 L0.259509925,62.9494448 L0.259509925,143.294039 L0.259509925,161.616296 C0.259509925,162.008371 0.59181466,162.341122 0.984335689,162.341122 L51.6993907,162.341122 L132.048445,162.341122 L150.626287,162.341122 C151.018362,162.341122 151.351113,162.009263 151.351113,161.616296 L151.351113,110.783485 L151.351113,30.4384446 L151.351113,12.1161875 C151.351113,11.7245585 151.019254,11.3913617 150.626287,11.3913617 L99.9116782,11.3913617 L19.5621776,11.3913617 L0.984335689,11.3913617 C0.051652199,11.3913617 0.0498680125,12.8410132 0.984335689,12.8410132" id="Fill-553" fill="#000000"></path>
                    <path d="M35.3438423,0.299877145 C23.8581418,3.99537342 12.3719952,7.69086969 0.885848594,11.386366 C0.00133813987,11.6709437 0.379585677,13.0710841 1.27123288,12.7842761 C12.7573795,9.08877981 24.24308,5.39328354 35.7292266,1.69778726 C36.6137371,1.41320952 36.2354895,0.0126231194 35.3438423,0.299877145" id="Fill-555" fill="#000000"></path>
                    <path d="M172.210483,137.683531 C164.844915,145.490239 157.479794,153.296947 150.11378,161.103655 C149.473703,161.782092 150.496934,162.808891 151.139241,162.129116 C158.504363,154.321962 165.86993,146.515254 173.235944,138.708546 C173.875575,138.030109 172.852344,137.00331 172.210483,137.683531" id="Fill-557" fill="#000000"></path>
                    <path d="M171.998343,1.16105936 L171.998343,47.5218073 L171.998343,121.3452 L171.998343,138.195949 C171.998343,139.128633 173.447995,139.129971 173.447995,138.195949 L173.447995,91.8352012 L173.447995,18.0118087 L173.447995,1.16105936 C173.447995,0.227929825 171.998343,0.226591685 171.998343,1.16105936" id="Fill-559" fill="#000000"></path>
                </g>
            </g>
        </g>
    </g>
</svg>