<?xml version="1.0" encoding="UTF-8" standalone="no"?>
<svg width="187px" height="222px" viewBox="0 0 187 222" version="1.1" xmlns="http://www.w3.org/2000/svg" xmlns:xlink="http://www.w3.org/1999/xlink">
    <!-- Generator: Sketch 47.1 (45422) - http://www.bohemiancoding.com/sketch -->
    <title>vase</title>
    <desc>Created with Sketch.</desc>
    <defs></defs>
    <g id="Page-1" stroke="none" stroke-width="1" fill="none" fill-rule="evenodd">
        <g id="vase">
            <path d="M148.8164,217.5813 C149.8884,217.7883 150.9964,217.8173 152.0784,217.6603 C152.4914,217.9693 152.9974,218.1823 153.6374,218.1823 C153.8274,218.1823 154.0054,218.1643 154.1754,218.1333 C154.5664,218.1973 155.0014,218.1633 155.4734,217.9913 C156.3224,217.6843 157.2634,217.8733 158.1624,217.7883 C159.4154,217.6703 160.6354,217.2593 161.8604,216.9763 C162.5844,216.8093 161.9464,216.0153 162.5784,215.8543 C163.0044,215.8813 165.0294,214.9333 165.4624,214.9283 C166.8034,214.9153 168.2104,213.9013 168.4704,212.5403 C168.9774,211.7923 168.4704,212.5403 168.2214,211.8003 C168.6384,210.7073 168.7704,209.5403 168.9134,208.3663 C169.0704,207.5173 169.2224,206.6653 169.3784,205.8143 C169.4214,205.6663 169.4594,205.5163 169.5104,205.3673 C170.0904,203.7043 170.5444,202.1193 170.5664,200.4463 C170.6044,200.3103 170.6374,200.1733 170.6774,200.0363 C170.7934,199.6413 170.8314,199.2703 170.8104,198.9273 C171.0294,198.3153 171.2404,197.7003 171.4224,197.0733 C172.1794,194.4753 172.4274,191.2343 172.6474,188.5253 C172.6654,188.3083 172.6614,188.1033 172.6424,187.9113 C172.7974,187.2143 172.9464,186.5173 173.1034,185.8293 C173.5524,183.8583 173.8974,181.8593 174.2884,179.8753 C174.6484,178.0403 174.6234,175.7203 175.3024,174.0033 C175.5804,173.3043 175.6904,172.5643 175.5874,171.8833 C176.0804,170.4483 176.5144,168.9973 176.7764,167.5133 C177.3874,164.0423 177.9034,160.4713 178.2564,156.9603 C178.2894,156.6393 178.2764,156.3493 178.2314,156.0823 C178.2654,155.9173 178.3074,155.7533 178.3374,155.5873 C178.7834,153.8313 179.5284,152.1913 179.7374,150.3973 C179.7944,149.9093 179.6854,149.4453 179.4724,149.0333 C179.6064,148.6123 179.7434,148.1943 179.8704,147.7863 C180.0874,147.0903 180.0684,146.4713 179.8874,145.9473 C180.2454,144.7073 180.5444,143.4593 180.7164,142.2233 C181.1424,139.1703 180.8624,135.6663 181.8184,132.7513 C182.0924,131.9133 182.0164,131.1883 181.7254,130.6083 C182.0864,129.4333 182.4704,128.2943 182.6284,126.9913 C182.8714,124.9753 182.9594,122.9393 182.9314,120.9073 C182.9244,120.4653 182.8424,120.0743 182.7074,119.7333 C183.5804,116.5053 182.7494,112.9253 183.8434,109.8243 C184.1854,108.8553 184.0454,108.0383 183.6344,107.4253 C183.6594,103.2413 183.9194,99.0743 184.2554,94.9073 C184.2884,94.5023 184.2524,94.1433 184.1674,93.8233 C184.1714,93.7423 184.1774,93.6623 184.1774,93.5783 C184.1774,89.1193 184.6194,84.3943 183.8824,79.9873 C184.0354,79.3413 183.9644,78.6113 183.5614,77.8643 C183.8084,78.3233 183.6304,76.1513 183.6294,75.7303 C183.6244,74.1793 183.4894,72.6883 183.2324,71.1563 C182.5934,67.3493 183.1294,63.4773 182.0514,59.7223 C181.9594,59.3973 181.8314,59.1163 181.6764,58.8713 C181.5634,57.6723 181.6704,56.4423 181.4284,55.2363 C181.3084,54.6353 181.0684,54.1713 180.7544,53.8303 C180.4374,52.0143 179.8784,50.2743 179.3994,48.5123 C179.2954,47.4413 179.0504,46.5583 178.5874,45.5673 C178.4764,45.3323 178.3494,45.1303 178.2124,44.9533 C177.9384,44.0353 177.6964,43.1053 177.3784,42.1943 C177.2574,41.8523 177.0984,41.5573 176.9124,41.3053 C176.8484,39.8593 176.2604,38.4493 175.4644,37.2433 C175.3534,36.8693 175.2384,36.4923 175.1024,36.1143 C174.5714,34.6293 173.6624,33.3803 172.8804,32.0423 C172.0874,30.6833 171.6874,29.2773 170.7304,27.9933 C169.7454,26.6723 168.8474,25.5333 168.4184,23.9193 C168.1904,23.0643 169.0264,21.4433 168.4614,21.1123 C168.1314,20.1273 167.9264,20.2453 167.5854,19.1273 C167.1354,17.6563 166.8084,16.1023 166.4534,14.5883 C166.1664,13.3633 165.3314,12.2383 165.0974,11.0013 C165.0874,10.9533 165.0344,10.3923 165.0254,10.3443 C165.0184,9.7283 164.2414,9.5653 164.2364,9.0193 C164.4234,8.1963 164.5474,7.4773 164.2964,6.5833 C164.2534,6.4293 164.1964,6.2833 164.1334,6.1423 C164.0504,4.7223 163.1504,3.3653 161.4284,3.3653 C161.0204,3.3653 160.6614,3.4443 160.3454,3.5793 C159.9334,3.2613 159.4134,3.0563 158.7794,3.0333 C156.6124,2.9573 154.6584,2.1993 152.4864,2.7863 C150.8974,2.3283 149.1864,2.2943 147.5754,2.6763 C145.6804,2.3983 143.9144,2.9663 141.9854,3.0333 C141.3514,3.0563 140.8314,3.2613 140.4204,3.5793 C140.1044,3.4443 139.7454,3.3653 139.3374,3.3653 C137.6144,3.3653 136.7134,4.7223 136.6314,6.1423 C136.5694,6.2833 136.5114,6.4293 136.4684,6.5833 C136.2174,7.4773 136.3404,8.1963 136.5294,9.0193 C136.5244,9.5653 135.7464,9.7283 135.7404,10.3443 C135.7314,10.3923 135.6764,10.9533 135.6684,11.0013 C135.4334,12.2383 134.5994,13.3633 134.3124,14.5883 C133.9574,16.1023 133.6284,17.6563 133.1794,19.1273 C132.8374,20.2453 132.6334,20.1273 132.3044,21.1123 C131.7384,21.4433 132.5754,23.0643 132.3474,23.9193 C131.9174,25.5333 131.0194,26.6723 130.0354,27.9933 C129.0774,29.2773 128.6774,30.6833 127.8834,32.0423 C127.1034,33.3803 126.1934,34.6293 125.6624,36.1143 C125.5274,36.4923 125.4114,36.8693 125.2994,37.2433 C124.5044,38.4493 123.9174,39.8593 123.8524,41.3053 C123.6664,41.5573 123.5074,41.8523 123.3874,42.1943 C123.0694,43.1053 122.8264,44.0353 122.5534,44.9533 C122.4164,45.1303 122.2894,45.3323 122.1784,45.5673 C121.7134,46.5583 121.4694,47.4413 121.3654,48.5123 C120.8864,50.2743 120.3284,52.0143 120.0094,53.8303 C119.6964,54.1713 119.4574,54.6353 119.3374,55.2363 C119.0944,56.4423 119.2024,57.6723 119.0874,58.8713 C118.9344,59.1163 118.8064,59.3973 118.7124,59.7223 C117.6354,63.4773 118.1714,67.3493 117.5334,71.1563 C117.2764,72.6883 117.1414,74.1793 117.1354,75.7303 C117.1334,76.1513 116.9564,78.3233 117.2044,77.8643 C116.8004,78.6113 116.7304,79.3413 116.8814,79.9873 C116.1464,84.3943 116.5874,89.1193 116.5874,93.5783 C116.5874,93.6623 116.5934,93.7423 116.5984,93.8233 C116.5124,94.1433 116.4764,94.5023 116.5094,94.9073 C116.8464,99.0743 117.1054,103.2413 117.1304,107.4253 C116.7204,108.0383 116.5804,108.8553 116.9214,109.8243 C118.0154,112.9253 117.1854,116.5053 118.0584,119.7333 C117.9224,120.0743 117.8394,120.4653 117.8344,120.9073 C117.8054,122.9393 117.8944,124.9753 118.1374,126.9913 C118.2954,128.2943 118.6784,129.4333 119.0404,130.6083 C118.7494,131.1883 118.6724,131.9133 118.9474,132.7513 C119.9024,135.6663 119.6224,139.1703 120.0484,142.2233 C120.2214,143.4593 120.5204,144.7073 120.8774,145.9473 C120.6964,146.4713 120.6764,147.0903 120.8944,147.7863 C121.0224,148.1943 121.1594,148.6123 121.2934,149.0333 C121.0794,149.4453 120.9714,149.9093 121.0284,150.3973 C121.2364,152.1913 121.9824,153.8313 122.4274,155.5873 C122.4584,155.7533 122.4994,155.9173 122.5344,156.0823 C122.4894,156.3493 122.4764,156.6393 122.5084,156.9603 C122.8624,160.4713 123.3774,164.0423 123.9894,167.5133 C124.2514,168.9973 124.6854,170.4483 125.1774,171.8833 C125.0744,172.5643 125.1854,173.3043 125.4624,174.0033 C126.1424,175.7203 126.1164,178.0403 126.4774,179.8753 C126.8674,181.8593 127.2124,183.8583 127.6624,185.8293 C127.8184,186.5173 127.9664,187.2143 128.1224,187.9113 C128.1034,188.1033 128.1004,188.3083 128.1184,188.5253 C128.3374,191.2343 128.5864,194.4753 129.3424,197.0733 C129.5244,197.7003 129.7354,198.3153 129.9544,198.9273 C129.9344,199.2703 129.9714,199.6413 130.0874,200.0363 C130.1284,200.1733 130.1604,200.3103 130.1984,200.4463 C130.2204,202.1193 130.6744,203.7043 131.2544,205.3673 C131.3064,205.5163 131.3424,205.6663 131.3854,205.8143 C131.5424,206.6653 131.6944,207.5173 131.8514,208.3663 C131.9954,209.5403 132.1274,210.7073 132.5434,211.8003 C132.2954,212.5403 131.7874,211.7923 132.2954,212.5403 C132.5554,213.9013 133.9614,214.9153 135.3024,214.9283 C135.7354,214.9333 137.7614,215.8813 138.1874,215.8543 C138.8184,216.0153 138.1814,216.8093 138.9054,216.9763 C140.1294,217.2593 141.3504,217.6703 142.6034,217.7883 C143.5014,217.8733 144.4434,217.6843 145.2914,217.9913 C145.7644,218.1633 146.1994,218.1973 146.5894,218.1333 C146.7584,218.1643 146.9384,218.1823 147.1284,218.1823 C147.8304,218.1823 148.3864,217.9453 148.8164,217.5813" id="Fill-3435" fill="#F088B6"></path>
            <path d="M135.2559,5.0754 C134.8189,10.5274 134.6369,16.4294 132.1749,21.4274 C129.2909,27.2794 125.6179,32.7164 123.2109,38.7974 C116.5109,55.7244 115.4329,74.0784 115.3829,92.0974 C115.3779,94.1894 118.6279,94.1924 118.6329,92.0974 C118.6849,73.2744 119.4829,52.8014 128.1399,35.6294 C130.5289,30.8874 133.6019,26.4514 135.7019,21.5604 C137.8809,16.4894 138.0709,10.4884 138.5059,5.0754 C138.6729,2.9904 135.4219,3.0014 135.2559,5.0754" id="Fill-3441" fill="#1D1D1B"></path>
            <path d="M115.3838,92.0979 C115.5278,132.7299 124.4458,172.4989 131.4178,212.3269 C131.7788,214.3839 134.9098,213.5129 134.5518,211.4639 C127.6278,171.9149 118.7768,132.4439 118.6338,92.0979 C118.6268,90.0069 115.3768,90.0029 115.3838,92.0979" id="Fill-3443" fill="#1D1D1B"></path>
            <path d="M150.3828,216.5607 C146.7948,216.5077 143.1958,216.1647 139.7678,215.0427 C138.2038,214.5317 135.0048,213.5377 134.5518,211.6707 C134.0598,209.6397 130.9248,210.4997 131.4178,212.5357 C133.0218,219.1457 145.3238,219.7367 150.3828,219.8107 C152.4748,219.8407 152.4758,216.5907 150.3828,216.5607" id="Fill-3445" fill="#1D1D1B"></path>
            <path d="M167.5967,211.5119 C166.9507,213.6669 163.1927,214.6199 161.3557,215.1469 C157.7797,216.1729 154.0877,216.5059 150.3827,216.5609 C148.2927,216.5909 148.2867,219.8409 150.3827,219.8109 C155.9747,219.7279 168.6617,219.2859 170.7307,212.3759 C171.3317,210.3679 168.1967,209.5099 167.5967,211.5119" id="Fill-3447" fill="#1D1D1B"></path>
            <path d="M163.6426,5.1242 C164.0726,10.4782 164.2656,16.3832 166.3636,21.4152 C168.4376,26.3902 171.5886,30.8792 174.0086,35.6782 C182.6686,52.8482 183.4636,73.3242 183.5146,92.1462 C183.5206,94.2372 186.7706,94.2412 186.7646,92.1462 C186.7156,74.1262 185.6376,55.7732 178.9376,38.8462 C176.5606,32.8402 172.9696,27.4372 170.0796,21.6772 C167.5396,16.6132 167.3376,10.6712 166.8926,5.1242 C166.7266,3.0542 163.4756,3.0352 163.6426,5.1242" id="Fill-3449" fill="#1D1D1B"></path>
            <path d="M183.5146,92.1467 C183.3716,132.4927 174.5206,171.9637 167.5966,211.5117 C167.2386,213.5577 170.3696,214.4357 170.7306,212.3757 C177.7026,172.5477 186.6206,132.7787 186.7646,92.1467 C186.7716,90.0557 183.5216,90.0527 183.5146,92.1467" id="Fill-3451" fill="#1D1D1B"></path>
            <path d="M150.5908,5.9553 C147.7438,5.9333 144.8788,5.8173 142.0688,5.3283 C141.3768,5.2083 138.6358,4.8563 138.3768,4.3193 C137.4698,2.4353 134.6658,4.0823 135.5708,5.9593 C136.2788,7.4293 138.4858,7.8823 139.9018,8.2043 C143.3898,8.9983 147.0278,9.1783 150.5908,9.2053 C152.6828,9.2223 152.6848,5.9723 150.5908,5.9553" id="Fill-3453" fill="#1D1D1B"></path>
            <path d="M163.8877,4.2551 C163.5097,4.9011 160.2667,5.2381 159.4867,5.3601 C156.5477,5.8171 153.5607,5.9331 150.5907,5.9551 C148.4997,5.9711 148.4947,9.2211 150.5907,9.2051 C154.3497,9.1771 158.1667,8.9921 161.8587,8.2271 C163.4887,7.8881 165.7717,7.4751 166.6937,5.8961 C167.7497,4.0861 164.9427,2.4481 163.8877,4.2551" id="Fill-3455" fill="#1D1D1B"></path>
            <path d="M150.5908,0.7893 C147.0268,0.8163 143.3908,0.9953 139.9018,1.7893 C138.4878,2.1103 136.2778,2.5673 135.5708,4.0343 C134.6668,5.9103 137.4688,7.5603 138.3768,5.6753 C138.6368,5.1373 141.4138,4.7793 142.0688,4.6653 C144.8788,4.1773 147.7428,4.0603 150.5908,4.0393 C152.6818,4.0223 152.6868,0.7723 150.5908,0.7893" id="Fill-3457" fill="#1D1D1B"></path>
            <path d="M166.6934,4.0988 C165.7704,2.5178 163.4834,2.1048 161.8584,1.7678 C158.1674,1.0008 154.3484,0.8178 150.5904,0.7888 C148.4994,0.7728 148.4974,4.0228 150.5904,4.0388 C153.5604,4.0618 156.5474,4.1758 159.4864,4.6338 C160.3394,4.7668 163.4974,5.0708 163.8874,5.7388 C164.9414,7.5438 167.7514,5.9108 166.6934,4.0988" id="Fill-3459" fill="#1D1D1B"></path>
            <path d="M2.3252,218.6652 C11.9662,219.0762 21.5322,220.5742 31.1762,221.0892 C43.3462,221.7382 55.5432,221.8162 67.7272,221.8232 C69.8192,221.8242 69.8222,218.5742 67.7272,218.5732 C55.5432,218.5662 43.3462,218.4842 31.1762,217.8392 C21.5312,217.3272 11.9662,215.8262 2.3252,215.4152 C0.2342,215.3262 0.2382,218.5762 2.3252,218.6652" id="Fill-3461" fill="#1D1D1B"></path>
            <path d="M67.7275,221.8234 C96.1435,221.7994 124.5425,220.7894 152.9365,219.7514 C155.0215,219.6754 155.0315,216.4254 152.9365,216.5014 C124.5425,217.5394 96.1435,218.5494 67.7275,218.5734 C65.6365,218.5754 65.6325,221.8254 67.7275,221.8234" id="Fill-3463" fill="#1D1D1B"></path>
            <path d="M3.9424,213.5412 C13.5334,212.9892 23.0454,211.5872 32.6524,211.1112 C44.3324,210.5332 56.0364,210.4592 67.7274,210.4522 C69.8194,210.4512 69.8224,207.2012 67.7274,207.2022 C56.0354,207.2092 44.3334,207.2872 32.6524,207.8612 C23.0454,208.3342 13.5334,209.7392 3.9424,210.2912 C1.8634,210.4112 1.8494,213.6622 3.9424,213.5412" id="Fill-3465" fill="#1D1D1B"></path>
            <path d="M67.7275,210.4533 C89.3015,210.4623 110.8735,210.7483 132.4445,211.1633 C134.5365,211.2043 134.5365,207.9543 132.4445,207.9133 C110.8735,207.4983 89.3015,207.2123 67.7275,207.2033 C65.6355,207.2023 65.6325,210.4523 67.7275,210.4533" id="Fill-3467" fill="#1D1D1B"></path>
            <path d="M110.3145,209.7629 L102.3595,209.7629 C101.9015,209.4749 101.3375,209.2619 100.5815,209.2619 L57.7595,209.2619 C56.8155,209.2619 56.1085,209.5449 55.6295,209.9669 C55.5435,209.9619 55.4835,209.9299 55.3925,209.9299 C44.3055,209.9369 32.5585,209.5029 21.5405,210.8379 C20.9635,210.6259 20.2655,210.4809 19.3295,210.5219 C16.3635,210.6509 14.1135,211.1179 12.5835,212.2649 L3.6725,212.2649 C3.4675,213.8309 3.1475,215.3629 2.7295,216.8689 L11.1125,216.8689 C11.5305,217.1629 12.0595,217.4259 12.8515,217.5809 C16.8525,218.3669 21.0625,218.3369 25.2795,218.3399 C29.2065,218.3429 33.1105,218.5599 37.0275,218.6779 C37.6405,219.0449 38.5535,219.2869 39.7725,219.2799 C45.5625,219.2419 51.3355,219.5039 57.1255,219.5299 C58.1265,219.5339 58.8715,219.3429 59.4635,219.0799 C59.9245,219.0889 60.3845,219.1149 60.8455,219.1209 C61.2345,219.3239 61.6865,219.4749 62.2785,219.4749 L134.5805,219.4749 C136.3715,219.4749 137.2105,218.3599 137.1405,217.2849 C137.0905,217.2829 137.0415,217.2759 136.9915,217.2729 C137.3175,215.9259 136.6155,214.3009 134.8235,214.3279 C132.8855,214.3579 133.2245,211.2419 131.7155,210.3579 C129.9575,209.3269 127.5655,209.9829 125.6485,209.5759 C120.8865,208.5609 115.6535,207.1689 110.9575,209.2019 C110.6815,209.3219 110.4915,209.5379 110.3145,209.7629" id="Fill-3469" fill="#1D1D1B"></path>
            <path d="M110.3145,209.7629 L102.3595,209.7629 C101.9015,209.4749 101.3375,209.2619 100.5815,209.2619 L57.7595,209.2619 C56.8155,209.2619 56.1085,209.5449 55.6295,209.9669 C55.5435,209.9619 55.4835,209.9299 55.3925,209.9299 C44.3055,209.9369 32.5585,209.5029 21.5405,210.8379 C20.9635,210.6259 20.2655,210.4809 19.3295,210.5219 C16.3635,210.6509 14.1135,211.1179 12.5835,212.2649 L3.6725,212.2649 C3.4675,213.8309 3.1475,215.3629 2.7295,216.8689 L11.1125,216.8689 C11.5305,217.1629 12.0595,217.4259 12.8515,217.5809 C16.8525,218.3669 21.0625,218.3369 25.2795,218.3399 C29.2065,218.3429 33.1105,218.5599 37.0275,218.6779 C37.6405,219.0449 38.5535,219.2869 39.7725,219.2799 C45.5625,219.2419 51.3355,219.5039 57.1255,219.5299 C58.1265,219.5339 58.8715,219.3429 59.4635,219.0799 C59.9245,219.0889 60.3845,219.1149 60.8455,219.1209 C61.2345,219.3239 61.6865,219.4749 62.2785,219.4749 L134.5805,219.4749 C136.3715,219.4749 137.2105,218.3599 137.1405,217.2849 C137.0905,217.2829 137.0415,217.2759 136.9915,217.2729 C137.3175,215.9259 136.6155,214.3009 134.8235,214.3279 C132.8855,214.3579 133.2245,211.2419 131.7155,210.3579 C129.9575,209.3269 127.5655,209.9829 125.6485,209.5759 C120.8865,208.5609 115.6535,207.1689 110.9575,209.2019 C110.6815,209.3219 110.4915,209.5379 110.3145,209.7629 Z" id="Stroke-3471" stroke="#1D1D1B" stroke-width="0.65"></path>
        </g>
    </g>
</svg>