<?xml version="1.0" encoding="UTF-8" standalone="no"?>
<svg width="150px" height="150px" viewBox="0 0 150 150" version="1.1" xmlns="http://www.w3.org/2000/svg" xmlns:xlink="http://www.w3.org/1999/xlink">
    <!-- Generator: Sketch 48 (47235) - http://www.bohemiancoding.com/sketch -->
    <title>vase-up-side-down</title>
    <desc>Created with Sketch.</desc>
    <defs></defs>
    <g id="Page-1" stroke="none" stroke-width="1" fill="none" fill-rule="evenodd">
        <g id="vase-up-side-down">
            <g id="Group" transform="translate(-3.000000, -3.000000)">
                <polygon id="Fill-118" fill="#F088B6" points="21.6303168 29.7739634 21.5989159 153.672412 1.13757974 153.672412 1.13757974 1.0862694 153.764476 1.0862694 153.764476 29.7913341"></polygon>
                <path d="M82.8364763,13.7531767 C82.3126832,13.6522931 81.7721875,13.6375948 81.2437177,13.7137586 C81.0412823,13.5634353 80.7940841,13.4598793 80.4814116,13.4598793 C80.3885453,13.4598793 80.3016918,13.4685647 80.218847,13.483931 C80.0277694,13.4518621 79.8159806,13.4685647 79.5841487,13.5527457 C79.1699246,13.703069 78.7096013,13.6102026 78.2713254,13.6522931 C77.6593427,13.70975 77.0627263,13.910181 76.4647737,14.0484784 C76.111347,14.1299871 76.4220151,14.5188233 76.1140194,14.5963233 C75.9055711,14.5836293 74.916778,15.0472931 74.7049892,15.0486293 C74.0495797,15.0553103 73.3627694,15.550375 73.2351616,16.215806 C72.9879634,16.5805905 73.2351616,16.215806 73.3567565,16.57725 C73.153653,17.1110647 73.088847,17.6809569 73.0193642,18.2541897 C72.9425323,18.66975 72.8677047,19.0853103 72.7915409,19.5015388 C72.7708297,19.573694 72.7527909,19.6471853 72.727403,19.7200086 C72.4441272,20.5317543 72.2223168,21.3067543 72.2116272,22.1231767 C72.1929203,22.1899871 72.1768858,22.2574655 72.1575108,22.3236078 C72.100722,22.5173578 72.0826832,22.6984138 72.0920366,22.8661078 C71.9851401,23.16475 71.8822522,23.4647284 71.7933944,23.7707198 C71.4232651,25.0407845 71.3023384,26.6235216 71.1947737,27.9470345 C71.1867565,28.0532629 71.1880927,28.1528103 71.1974461,28.2470129 C71.1212823,28.5877457 71.0484591,28.9284784 70.9722953,29.2645345 C70.7531573,30.2266034 70.5841272,31.2033707 70.3937177,32.1727888 C70.2173384,33.0693836 70.2300323,34.2024871 69.8979849,35.041625 C69.7623599,35.3830259 69.7082435,35.7444698 69.7583513,36.0771853 C69.5178341,36.7780259 69.3060453,37.4868836 69.1784375,38.2117759 C68.8791272,39.9067543 68.6272522,41.6525086 68.4548815,43.3668621 C68.438847,43.5238664 68.445528,43.6655043 68.4675754,43.7957845 C68.4502047,43.876625 68.4301616,43.9567974 68.4154634,44.0376379 C68.1976616,44.8954828 67.8335453,45.6965388 67.7319935,46.5730905 C67.7039332,46.8109353 67.7567134,47.0380905 67.8609375,47.2391897 C67.7954634,47.4456336 67.728653,47.6487371 67.6665194,47.8485 C67.5602909,48.1885647 67.5696444,48.4912155 67.6578341,48.746431 C67.4834591,49.3524009 67.3378125,49.9623793 67.2529634,50.5670129 C67.0451832,52.0575517 67.1814763,53.7692328 66.7151401,55.1929612 C66.5808513,55.6025086 66.6182651,55.9566034 66.7605711,56.2398793 C66.5841918,56.8144483 66.3964547,57.3703103 66.3196228,58.0070129 C66.2007004,58.9924655 66.1572737,59.9866034 66.1713039,60.9794052 C66.1746444,61.1958707 66.2147306,61.3856121 66.2808728,61.5526379 C65.8546228,63.1293621 66.2601616,64.8784569 65.7256789,66.3937155 C65.558653,66.8660647 65.6274677,67.2662586 65.8278987,67.565569 C65.8152047,69.6092974 65.6889332,71.6443405 65.5239116,73.6800517 C65.5078772,73.8784784 65.5259159,74.0541897 65.5680065,74.2098578 C65.5653341,74.2492759 65.5626616,74.2880259 65.5626616,74.3294483 C65.5626616,76.5081336 65.3468642,78.8157629 65.7063039,80.9683922 C65.6321444,81.2844052 65.6662177,81.6411724 65.8633082,82.0059569 C65.7423815,81.7814741 65.8292349,82.8424224 65.829903,83.0481983 C65.8332435,83.8064957 65.8987177,84.5340603 66.0243211,85.2830043 C66.3363254,87.1430043 66.0744289,89.0337371 66.6008944,90.8690172 C66.6463254,91.0273578 66.7091272,91.164319 66.7839547,91.2845776 C66.8394073,91.8705043 66.7872953,92.4704612 66.9048815,93.0603966 C66.9643427,93.3543621 67.0812608,93.580181 67.2342565,93.7465388 C67.3892565,94.6344483 67.6625108,95.4836078 67.896347,96.3447931 C67.9471228,96.8679181 68.0667134,97.300181 68.2932004,97.7832198 C68.3473168,97.8981336 68.4094504,97.9970129 68.4769289,98.0838664 C68.6105496,98.5321638 68.7288039,98.985806 68.884472,99.431431 C68.9432651,99.5984569 69.020097,99.7427672 69.1116272,99.8656983 C69.1423599,100.571884 69.4296444,101.260698 69.8184806,101.849966 C69.872597,102.033026 69.9293858,102.216754 69.995528,102.401819 C70.2547522,103.126711 70.6990409,103.737358 71.0811961,104.390763 C71.4686961,105.054858 71.6637823,105.741668 72.1314547,106.368349 C72.6124892,107.013737 73.0514332,107.570267 73.2612177,108.359297 C73.3721228,108.776862 72.9639116,109.567897 73.2405065,109.729578 C73.4008513,110.21128 73.5010668,110.153823 73.6680927,110.699664 C73.8872306,111.418543 74.0475754,112.177509 74.2206142,112.917099 C74.3615841,113.515052 74.7691272,114.064901 74.8833728,114.669534 C74.8880496,114.692918 74.9141056,114.966841 74.9181142,114.990224 C74.9214547,115.290871 75.3016056,115.371043 75.304278,115.636948 C75.2120797,116.039815 75.1519504,116.390569 75.2748815,116.827509 C75.2955927,116.903672 75.323653,116.974491 75.3543858,117.043306 C75.394472,117.737466 75.8340841,118.399556 76.6752263,118.399556 C76.8749892,118.399556 77.0500323,118.360806 77.2043642,118.295332 C77.4061315,118.450332 77.6600108,118.550547 77.9693427,118.561905 C79.0282866,118.599319 79.9830065,118.96878 81.0432866,118.682832 C81.8202909,118.906647 82.6554203,118.922681 83.4431142,118.73628 C84.3684375,118.871905 85.2309591,118.594642 86.173653,118.561905 C86.4829849,118.550547 86.7375323,118.450332 86.9386315,118.295332 C87.0929634,118.360806 87.2680065,118.399556 87.4677694,118.399556 C88.3089116,118.399556 88.7485237,117.737466 88.789278,117.043306 C88.8200108,116.974491 88.847403,116.903672 88.8687823,116.827509 C88.9910453,116.390569 88.9309159,116.039815 88.8393858,115.636948 C88.8413901,115.371043 89.2215409,115.290871 89.2248815,114.990224 C89.2288901,114.966841 89.2549461,114.692918 89.2596228,114.669534 C89.3745366,114.064901 89.7820797,113.515052 89.9217134,112.917099 C90.0954203,112.177509 90.2557651,111.418543 90.4755711,110.699664 C90.642597,110.153823 90.7421444,110.21128 90.9031573,109.729578 C91.1790841,109.567897 90.7708728,108.776862 90.881778,108.359297 C91.0915625,107.570267 91.5305065,107.013737 92.0115409,106.368349 C92.4792134,105.741668 92.6749677,105.054858 93.0624677,104.390763 C93.4439547,103.737358 93.8882435,103.126711 94.1474677,102.401819 C94.2136099,102.216754 94.2703987,102.033026 94.3245151,101.849966 C94.7133513,101.260698 95.0006358,100.571884 95.0313685,99.8656983 C95.1228987,99.7427672 95.2003987,99.5984569 95.2585237,99.431431 C95.4141918,98.985806 95.5331142,98.5321638 95.6660668,98.0838664 C95.7335453,97.9970129 95.7956789,97.8981336 95.8497953,97.7832198 C96.0762823,97.300181 96.1958728,96.8679181 96.2466487,96.3447931 C96.4804849,95.4836078 96.7537392,94.6344483 96.9087392,93.7465388 C97.0617349,93.580181 97.1793211,93.3543621 97.2381142,93.0603966 C97.3557004,92.4704612 97.3035884,91.8705043 97.3590409,91.2845776 C97.4345366,91.164319 97.4966703,91.0273578 97.5421013,90.8690172 C98.0685668,89.0337371 97.8066703,87.1430043 98.1193427,85.2830043 C98.244278,84.5340603 98.3104203,83.8064957 98.3130927,83.0481983 C98.3137608,82.8424224 98.4006142,81.7814741 98.2796875,82.0059569 C98.476778,81.6411724 98.5108513,81.2844052 98.4366918,80.9683922 C98.7967996,78.8157629 98.5810022,76.5081336 98.5810022,74.3294483 C98.5810022,74.2880259 98.5776616,74.2492759 98.5756573,74.2098578 C98.6170797,74.0541897 98.6344504,73.8784784 98.6190841,73.6800517 C98.4540625,71.6443405 98.3277909,69.6092974 98.315097,67.565569 C98.515528,67.2662586 98.5843427,66.8660647 98.4179849,66.3937155 C97.8828341,64.8784569 98.2883728,63.1293621 97.8621228,61.5526379 C97.9289332,61.3856121 97.9690194,61.1958707 97.9716918,60.9794052 C97.985722,59.9866034 97.9422953,58.9924655 97.8233728,58.0070129 C97.7465409,57.3703103 97.5588039,56.8144483 97.3830927,56.2398793 C97.5247306,55.9566034 97.5621444,55.6025086 97.4278556,55.1929612 C96.9615194,53.7692328 97.0984806,52.0575517 96.8900323,50.5670129 C96.8058513,49.9623793 96.6595366,49.3524009 96.4851616,48.746431 C96.5733513,48.4912155 96.5833728,48.1885647 96.4771444,47.8485 C96.4143427,47.6487371 96.3475323,47.4456336 96.2820582,47.2391897 C96.3862823,47.0380905 96.4390625,46.8109353 96.4116703,46.5730905 C96.3101185,45.6965388 95.9453341,44.8954828 95.7275323,44.0376379 C95.7128341,43.9567974 95.6927909,43.876625 95.6760884,43.7957845 C95.6974677,43.6655043 95.7041487,43.5238664 95.6881142,43.3668621 C95.5157435,41.6525086 95.2638685,39.9067543 94.9652263,38.2117759 C94.8369504,37.4868836 94.6251616,36.7780259 94.3846444,36.0771853 C94.4347522,35.7444698 94.3806358,35.3830259 94.2456789,35.041625 C93.9136315,34.2024871 93.9256573,33.0693836 93.749278,32.1727888 C93.5588685,31.2033707 93.3898384,30.2266034 93.1707004,29.2645345 C93.0945366,28.9284784 93.0217134,28.5877457 92.9462177,28.2470129 C92.954903,28.1528103 92.9569073,28.0532629 92.948222,27.9470345 C92.8406573,26.6235216 92.7197306,25.0407845 92.3496013,23.7707198 C92.2607435,23.4647284 92.1578556,23.16475 92.0509591,22.8661078 C92.0609806,22.6984138 92.0422737,22.5173578 91.9854849,22.3236078 C91.966778,22.2574655 91.9500754,22.1899871 91.9313685,22.1231767 C91.9206789,21.3067543 91.6995366,20.5317543 91.4155927,19.7200086 C91.3908728,19.6471853 91.3721659,19.573694 91.3514547,19.5015388 C91.2752909,19.0853103 91.2011315,18.66975 91.1242996,18.2541897 C91.0541487,17.6809569 90.9900108,17.1110647 90.7862392,16.57725 C90.9078341,16.215806 91.1557004,16.5805905 90.9078341,16.215806 C90.7802263,15.550375 90.0934159,15.0553103 89.4380065,15.0486293 C89.2268858,15.0472931 88.2367565,14.5836293 88.0289763,14.5963233 C87.7209806,14.5188233 88.0316487,14.1299871 87.6788901,14.0484784 C87.0802694,13.910181 86.483653,13.70975 85.8716703,13.6522931 C85.4333944,13.6102026 84.9730711,13.703069 84.558847,13.5527457 C84.3276832,13.4685647 84.1152263,13.4518621 83.9248168,13.483931 C83.841972,13.4685647 83.7544504,13.4598793 83.6615841,13.4598793 C83.3181789,13.4598793 83.0462608,13.5747931 82.8364763,13.7531767" id="Fill-119" fill="#D42314"></path>
                <path d="M89.7530841,117.56436 C89.9809073,114.787054 90.1379116,112.011084 91.3511875,109.4763 C92.8163384,106.414381 94.7057349,103.62839 95.9056487,100.435524 C98.9488599,92.3427866 99.4325668,83.6180237 99.4612953,75.0529375 C99.465972,73.6552651 97.2946358,73.6532608 97.2899591,75.0529375 C97.2592263,84.1939289 96.8870927,94.0905453 92.7081056,102.435157 C91.5362522,104.774187 90.0196573,106.961558 88.9881056,109.372744 C87.905778,111.901515 87.8028901,114.868562 87.5817478,117.56436 C87.4675022,118.956687 89.6395065,118.949338 89.7530841,117.56436" id="Fill-121" fill="#000000"></path>
                <path d="M99.4604935,75.0523362 C99.3649547,55.1749224 95.0349763,35.7284353 91.6176272,16.2418621 C91.3764418,14.8682414 89.2839418,15.4501595 89.5237909,16.8191034 C92.908403,36.1179397 97.1942866,55.366 97.2891573,75.0523362 C97.2958384,76.4493405 99.4671746,76.452681 99.4604935,75.0523362" id="Fill-123" fill="#000000"></path>
                <path d="M82.0714978,14.5432759 C83.8005496,14.5686638 85.5282651,14.7343534 87.1798168,15.2748491 C87.8305496,15.4866379 89.3344504,15.9376078 89.5235237,16.7179526 C89.8528987,18.0748707 91.947403,17.5003017 91.6173599,16.1407112 C90.7942565,12.7467457 84.6958082,12.4106897 82.0714978,12.3719397 C80.6738254,12.3518966 80.6731573,14.5232328 82.0714978,14.5432759" id="Fill-125" fill="#000000"></path>
                <path d="M73.9436853,16.7955194 C74.2196121,15.8755409 76.0161422,15.4452823 76.7891379,15.223472 C78.5121767,14.7290754 80.2859914,14.5700668 82.0718319,14.5433427 C83.4675,14.5232996 83.4715086,12.3519634 82.0718319,12.3720065 C79.178944,12.4147651 72.9107974,12.6759935 71.8498491,16.218278 C71.448319,17.5598297 73.5434914,18.1330625 73.9436853,16.7955194" id="Fill-127" fill="#000000"></path>
                <path d="M75.8856616,117.540175 C75.6678599,114.881791 75.5622996,111.982222 74.5340884,109.478838 C73.5205754,107.010864 71.9498642,104.788084 70.759972,102.410972 C66.5803168,94.067028 66.2081832,84.1697435 66.1781185,75.0287522 C66.1734418,73.6317478 64.0021056,73.6290754 64.0067823,75.0287522 C64.0348427,83.5945065 64.5185496,92.3186013 67.5617608,100.412006 C68.7416315,103.550756 70.5702306,106.314032 72.0400582,109.312481 C73.3081185,111.898041 73.4804892,114.688041 73.7143254,117.540175 C73.827903,118.923149 75.9999073,118.935175 75.8856616,117.540175" id="Fill-129" fill="#000000"></path>
                <path d="M66.178319,75.028819 C66.2731897,55.3424828 70.5590733,36.0944224 73.9443534,16.7955862 C74.1835345,15.4286466 72.0917026,14.8420517 71.8498491,16.2183448 C68.4325,35.7049181 64.1025216,55.1507371 64.0069828,75.028819 C64.0003017,76.4264914 66.1716379,76.4284957 66.178319,75.028819" id="Fill-131" fill="#000000"></path>
                <path d="M81.9697457,117.425996 C83.3340129,117.437353 84.7089698,117.488129 86.0551983,117.721297 C86.4500474,117.790112 86.8509095,117.867612 87.2337328,117.985198 C87.4181293,118.041987 87.7936034,118.307892 87.6847026,118.080737 C88.2906724,119.338776 90.1640345,118.239746 89.5594009,116.985047 C89.1765776,116.190004 88.042806,115.930112 87.2691422,115.753733 C85.5407586,115.36022 83.7362112,115.26869 81.9697457,115.254659 C80.5720733,115.24397 80.5707371,117.415306 81.9697457,117.425996" id="Fill-133" fill="#000000"></path>
                <path d="M75.7265194,118.112405 C75.5822091,118.358935 75.9316272,118.100379 76.1881789,118.020875 C76.6778987,117.869884 77.1976832,117.784366 77.7021013,117.706866 C79.1111315,117.488397 80.5455496,117.436953 81.9699461,117.426263 C83.3669504,117.415573 83.3696228,115.244237 81.9699461,115.254927 C80.1079418,115.268957 78.2165409,115.363828 76.3879418,115.74331 C75.5027047,115.927039 74.3475539,116.166888 73.851153,117.016047 C73.1456358,118.225315 75.0216703,119.319668 75.7265194,118.112405" id="Fill-135" fill="#000000"></path>
                <path d="M81.9697457,119.950291 C83.7368793,119.936261 85.5400905,119.844731 87.2691422,119.45055 C88.0401336,119.274838 89.1779138,119.011606 89.5594009,118.219903 C90.1633664,116.966541 88.2913405,115.86417 87.6847026,117.124213 C87.7862543,116.913761 87.5236897,117.14292 87.351319,117.183006 C86.9177198,117.285894 86.4954784,117.406153 86.0551983,117.482985 C84.7089698,117.716821 83.3340129,117.767597 81.9697457,117.778955 C80.5734095,117.789644 80.570069,119.960981 81.9697457,119.950291" id="Fill-137" fill="#000000"></path>
                <path d="M73.8513534,118.188703 C74.3484224,119.03853 75.5035733,119.277711 76.3881422,119.46144 C78.2167414,119.840922 80.1081422,119.935793 81.9694784,119.950491 C83.3671509,119.960513 83.3691552,117.789177 81.9694784,117.779155 C80.54575,117.767797 79.1113319,117.716353 77.7016336,117.498552 C77.2419784,117.427065 76.7823233,117.342216 76.3326897,117.221957 C76.1716767,117.17853 76.0026466,117.13978 75.8469784,117.076978 C75.6599095,117.002151 75.5830776,116.847819 75.7267198,117.092345 C75.0218707,115.887086 73.1445,116.978099 73.8513534,118.188703" id="Fill-139" fill="#000000"></path>
                <path d="M152.980524,12.8625948 C142.810653,12.1931552 132.646795,11.4201595 122.449532,11.3887586 C121.05186,11.38475 121.049856,13.5560862 122.449532,13.5600948 C132.646795,13.5914957 142.810653,14.3644914 152.980524,15.033931 C154.375524,15.1261293 154.370179,12.954125 152.980524,12.8625948" id="Fill-141" fill="#000000"></path>
                <path d="M122.449399,11.3887586 C108.567545,11.4047931 94.6950453,11.8945129 80.8238815,12.4016034 C79.4308858,12.4523793 79.4242047,14.6237155 80.8238815,14.5729397 C94.6950453,14.0658491 108.567545,13.5761293 122.449399,13.5600948 C123.846403,13.5587586 123.849075,11.3874224 122.449399,11.3887586" id="Fill-143" fill="#000000"></path>
                <path d="M153.608808,15.4345259 C143.177041,16.0585345 132.931006,16.9350862 122.449131,16.9437716 C121.052127,16.9451078 121.050123,19.116444 122.449131,19.1151078 C132.931006,19.1064224 143.177041,18.2298707 153.608808,17.6058621 C154.997795,17.5230172 155.007149,15.3510129 153.608808,15.4345259" id="Fill-145" fill="#000000"></path>
                <path d="M122.449399,16.9436379 C111.910067,16.9369569 101.372071,16.7986595 90.8347435,16.5962241 C89.4370711,16.5688319 89.4370711,18.7401681 90.8347435,18.7675603 C101.372071,18.9699957 111.910067,19.1082931 122.449399,19.1149741 C123.846403,19.1156422 123.849075,16.944306 122.449399,16.9436379" id="Fill-147" fill="#000000"></path>
                <path d="M153.879925,14.1009246 L150.106476,14.1009246 C149.902037,13.9572823 149.643481,13.8290065 149.257317,13.7528427 C147.302446,13.3693513 145.246024,13.3840496 143.185593,13.3827134 C141.267468,13.3813772 139.3607,13.2751487 137.446584,13.2176918 C137.147274,13.037972 136.700981,12.9190496 136.1057,12.9237263 C133.27695,12.9424332 130.456886,12.8134892 127.628804,12.8014634 C127.139752,12.7994591 126.775636,12.8916573 126.486347,13.0212694 C126.261196,13.0165927 126.036713,13.0038987 125.810894,13.0012263 C125.621153,12.9016789 125.400679,12.8281875 125.11139,12.8281875 L89.7914332,12.8281875 C88.9168858,12.8281875 88.5060022,13.3726918 88.5400754,13.8978211 C88.5647953,13.8991573 88.588847,13.9024978 88.6135668,13.9038341 C88.4538901,14.5612478 88.7972953,15.3556228 89.6725108,15.3415927 C90.6185453,15.3282306 90.4535237,16.8501703 91.1904418,17.2824332 C92.0496228,17.7855151 93.2181358,17.4648254 94.1541487,17.6639203 C96.4804849,18.159653 99.0373168,18.8391142 101.331584,17.8463125 C101.465873,17.7881875 101.558739,17.6819591 101.644925,17.5723901 L105.531282,17.5723901 C105.755097,17.7133599 106.030356,17.8169159 106.400485,17.8169159 L127.318804,17.8169159 C127.780463,17.8169159 128.125205,17.6786185 128.359041,17.4728427 C128.401131,17.4755151 128.430528,17.4908815 128.475291,17.4908815 C133.891606,17.4875409 139.629278,17.6993297 145.012856,17.0472608 C145.293459,17.1501487 145.63486,17.2216358 146.092511,17.2022608 C147.540959,17.1387909 148.640657,16.9102996 149.387597,16.3497608 L153.740959,16.3497608 C153.777037,16.0711616 153.829149,15.7972392 153.879925,15.5233168 L153.879925,14.1009246 Z" id="Fill-149" fill="#1D1D1B"></path>
                <path d="M153.879925,14.1009246 L150.106476,14.1009246 C149.902037,13.9572823 149.643481,13.8290065 149.257317,13.7528427 C147.302446,13.3693513 145.246024,13.3840496 143.185593,13.3827134 C141.267468,13.3813772 139.3607,13.2751487 137.446584,13.2176918 C137.147274,13.037972 136.700981,12.9190496 136.1057,12.9237263 C133.27695,12.9424332 130.456886,12.8134892 127.628804,12.8014634 C127.139752,12.7994591 126.775636,12.8916573 126.486347,13.0212694 C126.261196,13.0165927 126.036713,13.0038987 125.810894,13.0012263 C125.621153,12.9016789 125.400679,12.8281875 125.11139,12.8281875 L89.7914332,12.8281875 C88.9168858,12.8281875 88.5060022,13.3726918 88.5400754,13.8978211 C88.5647953,13.8991573 88.588847,13.9024978 88.6135668,13.9038341 C88.4538901,14.5612478 88.7972953,15.3556228 89.6725108,15.3415927 C90.6185453,15.3282306 90.4535237,16.8501703 91.1904418,17.2824332 C92.0496228,17.7855151 93.2181358,17.4648254 94.1541487,17.6639203 C96.4804849,18.159653 99.0373168,18.8391142 101.331584,17.8463125 C101.465873,17.7881875 101.558739,17.6819591 101.644925,17.5723901 L105.531282,17.5723901 C105.755097,17.7133599 106.030356,17.8169159 106.400485,17.8169159 L127.318804,17.8169159 C127.780463,17.8169159 128.125205,17.6786185 128.359041,17.4728427 C128.401131,17.4755151 128.430528,17.4908815 128.475291,17.4908815 C133.891606,17.4875409 139.629278,17.6993297 145.012856,17.0472608 C145.293459,17.1501487 145.63486,17.2216358 146.092511,17.2022608 C147.540959,17.1387909 148.640657,16.9102996 149.387597,16.3497608 L153.740959,16.3497608 C153.777037,16.0711616 153.829149,15.7972392 153.879925,15.5233168 L153.879925,14.1009246 Z" id="Stroke-151" stroke="#000000" stroke-width="0.65"></path>
                <path d="M0.200163793,1.63404741 C7.03085345,11.1966121 13.8622112,20.7591767 20.6929009,30.3210733 C21.4979655,31.4488319 23.3820172,30.3658362 22.5675991,29.2260517 C15.7369095,19.662819 8.90555172,10.1009224 2.07486207,0.537689655 C1.26979741,-0.589400862 -0.61425431,0.493594828 0.200163793,1.63404741" id="Fill-162" fill="#000000"></path>
                <path d="M93.5215884,30.879875 L146.220252,30.879875 L153.715037,30.879875 C155.112709,30.879875 155.114713,28.7085388 153.715037,28.7085388 L101.016373,28.7085388 L93.5215884,28.7085388 C92.1245841,28.7085388 92.1219116,30.879875 93.5215884,30.879875" id="Fill-164" fill="#000000"></path>
                <path d="M22.6840496,153.665397 L22.6840496,111.717853 L22.6840496,45.1974655 L22.6840496,29.7943405 C22.3219375,30.1557845 21.9604935,30.5178966 21.5983815,30.8800086 L69.9463556,30.8800086 C71.3433599,30.8800086 71.3453642,28.7086724 69.9463556,28.7086724 L21.5983815,28.7086724 C21.0117866,28.7086724 20.5127134,29.2057414 20.5127134,29.7943405 L20.5127134,71.7412155 L20.5127134,138.260935 L20.5127134,153.665397 C20.5127134,155.062401 22.6840496,155.065073 22.6840496,153.665397" id="Fill-166" fill="#000000"></path>
            </g>
        </g>
    </g>
</svg>