<?xml version="1.0" encoding="UTF-8" standalone="no"?>
<svg width="174px" height="174px" viewBox="0 0 174 174" version="1.1" xmlns="http://www.w3.org/2000/svg" xmlns:xlink="http://www.w3.org/1999/xlink">
    <!-- Generator: Sketch 48.1 (47250) - http://www.bohemiancoding.com/sketch -->
    <title>white-cube-brown-sides</title>
    <desc>Created with Sketch.</desc>
    <defs></defs>
    <g id="Boxes" stroke="none" stroke-width="1" fill="none" fill-rule="evenodd">
        <g id="white-cube-brown-sides">
            <g id="Group-136" transform="translate(0.000000, 6.000000)">
                <polygon id="Fill-127" fill="#FDEDD8" points="13.0263309 161.032522 172.836375 161.032522 172.836375 1.49243382 13.0263309 1.49243382"></polygon>
                <polygon id="Fill-129" fill="#A98F3B" points="1.33941618 167.553172 13.1778132 161.03265 13.1778132 2.10028235 1.33941618 21.3451941"></polygon>
                <polygon id="Fill-130" fill="#000000" points="147.440535 168.61434 172.685021 161.032906 13.1775574 161.032906 1.33916029 167.797796"></polygon>
                <path d="M1.92660221,168.472493 C5.76803603,166.280861 9.60883015,164.089229 13.450264,161.897596 C14.6119699,161.234861 13.565411,159.437287 12.4005066,160.102582 C8.55907279,162.293574 4.71827868,164.485846 0.876844853,166.676839 C-0.284861029,167.340214 0.761697794,169.137148 1.92660221,168.472493" id="Fill-131" fill="#000000"></path>
                <path d="M172.836183,159.960119 L118.77336,159.960119 L32.9606537,159.960119 L13.1777493,159.960119 C13.5244699,160.30684 13.8705507,160.652921 14.2172713,160.999641 L14.2172713,106.987994 L14.2172713,21.2565309 L14.2172713,1.49281765 C13.8705507,1.83889853 13.5244699,2.18561912 13.1777493,2.53233971 L67.2405728,2.53233971 L153.053279,2.53233971 L172.836183,2.53233971 C172.490102,2.18561912 172.143382,1.83889853 171.796661,1.49281765 L171.796661,55.503825 L171.796661,141.235288 L171.796661,160.999641 C171.796661,162.337266 173.875705,162.339825 173.875705,160.999641 L173.875705,106.987994 L173.875705,21.2565309 L173.875705,1.49281765 C173.875705,0.930516176 173.399764,0.453295588 172.836183,0.453295588 L118.77336,0.453295588 L32.9606537,0.453295588 L13.1777493,0.453295588 C12.6154478,0.453295588 12.1382272,0.929236765 12.1382272,1.49281765 L12.1382272,55.503825 L12.1382272,141.235288 L12.1382272,160.999641 C12.1382272,161.561943 12.6141684,162.039163 13.1777493,162.039163 L67.2405728,162.039163 L153.053279,162.039163 L172.836183,162.039163 C174.174448,162.039163 174.176367,159.960119 172.836183,159.960119" id="Fill-132" fill="#000000"></path>
                <path d="M147.985081,168.728568 L173.012294,162.035325 C174.30386,161.689884 173.755632,159.683766 172.459588,160.030487 C164.117184,162.261781 155.774779,164.492435 147.433015,166.723729 C146.141449,167.069171 146.689676,169.075288 147.985081,168.728568" id="Fill-133" fill="#000000"></path>
                <path d="M2.23711544,21.8698809 C6.18282132,15.2521235 10.1291669,8.63500588 14.0755125,2.01724853 C14.7619169,0.865777941 12.9656228,-0.181420588 12.2798581,0.968130882 C8.3335125,7.58524853 4.38780662,14.2030059 0.441461029,20.8207632 C-0.244943382,21.9728735 1.55199044,23.0194324 2.23711544,21.8698809" id="Fill-134" fill="#000000"></path>
                <path d="M2.37893824,167.553172 L2.37893824,118.044415 L2.37893824,39.4789368 L2.37893824,21.3451941 C2.37893824,20.0075691 0.299894118,20.00565 0.299894118,21.3451941 L0.299894118,70.8539515 L0.299894118,149.419429 L0.299894118,167.553172 C0.299894118,168.890797 2.37893824,168.893356 2.37893824,167.553172" id="Fill-135" fill="#000000"></path>
            </g>
        </g>
    </g>
</svg>