<?xml version="1.0" encoding="UTF-8" standalone="no"?>
<svg width="291px" height="272px" viewBox="0 0 291 272" version="1.1" xmlns="http://www.w3.org/2000/svg" xmlns:xlink="http://www.w3.org/1999/xlink">
    <!-- Generator: Sketch 48 (47235) - http://www.bohemiancoding.com/sketch -->
    <title>Page 1</title>
    <desc>Created with Sketch.</desc>
    <defs>
        <polygon id="path-1" points="0.197820556 0.202472027 60.789418 0.202472027 60.789418 22 0.197820556 22"></polygon>
        <polygon id="path-3" points="0.347099482 0.81 40.4086313 0.81 40.4086313 43.1716895 0.347099482 43.1716895"></polygon>
    </defs>
    <g id="Page-3" stroke="none" stroke-width="1" fill="none" fill-rule="evenodd">
        <g id="Page-1" transform="translate(0.000000, -1.000000)">
            <polygon id="Fill-1" fill="#FFDC00" points="38.568 252.046 288.386 252.046 288.386 2.65 38.568 2.65"></polygon>
            <g id="Group-24" transform="translate(0.000000, 0.190000)">
                <path d="M288.3862,250.2312 L203.7942,250.2312 L69.5222,250.2312 L38.5682,250.2312 C39.1102,250.7732 39.6512,251.3142 40.1932,251.8562 L40.1932,167.4062 L40.1932,33.3612 L40.1932,2.4602 C39.6512,3.0022 39.1102,3.5432 38.5682,4.0852 L123.1602,4.0852 L257.4322,4.0852 L288.3862,4.0852 C287.8452,3.5432 287.3032,3.0022 286.7612,2.4602 L286.7612,86.9092 L286.7612,220.9542 L286.7612,251.8562 C286.7612,253.9472 290.0112,253.9502 290.0112,251.8562 L290.0112,167.4062 L290.0112,33.3612 L290.0112,2.4602 C290.0112,1.5812 289.2672,0.8352 288.3862,0.8352 L203.7942,0.8352 L69.5222,0.8352 L38.5682,0.8352 C37.6892,0.8352 36.9432,1.5792 36.9432,2.4602 L36.9432,86.9092 L36.9432,220.9542 L36.9432,251.8562 C36.9432,252.7342 37.6872,253.4812 38.5682,253.4812 L123.1602,253.4812 L257.4322,253.4812 L288.3862,253.4812 C290.4782,253.4812 290.4812,250.2312 288.3862,250.2312" id="Fill-2" fill="#000000"></path>
                <polygon id="Fill-4" fill="#FFDC00" points="1.9507 270.0764 38.8047 251.8564 38.8047 3.4094 1.9507 41.5214"></polygon>
                <path d="M2.771,271.4792 C15.055,265.4062 27.34,259.3332 39.625,253.2592 C40.127,253.0102 40.43,252.3972 40.43,251.8562 L40.43,167.4602 L40.43,34.1522 L40.43,3.4102 C40.43,2.0202 38.641,1.2412 37.656,2.2602 C31.053,9.0882 24.451,15.9172 17.848,22.7442 C13.594,27.1432 9.34,31.5422 5.087,35.9412 C3.598,37.4812 0.903,39.3742 0.326,41.5212 C-0.407,44.2472 0.326,48.1702 0.326,50.9632 L0.326,75.1942 L0.326,228.3842 L0.326,270.0762 C0.326,272.1672 3.576,272.1712 3.576,270.0762 L3.576,162.2922 L3.576,85.2102 L3.576,57.2672 C3.576,52.6312 4.357,47.2172 3.576,42.6322 C3.521,42.3102 3.552,41.8772 3.576,41.5442 C3.529,42.2172 2.644,42.8972 3.514,42.2422 C3.947,41.9172 4.306,41.4232 4.683,41.0332 C8.814,36.7612 12.945,32.4892 17.076,28.2182 C24.702,20.3322 32.328,12.4452 39.954,4.5592 C39.03,4.1752 38.105,3.7922 37.18,3.4102 L37.18,110.6952 L37.18,246.0392 C37.18,247.1942 36.601,250.2452 37.18,251.2752 C37.967,252.6762 35.045,250.0442 37.873,250.5082 C36.818,250.3352 34.143,252.3522 33.196,252.8202 C22.507,258.1042 11.819,263.3892 1.13,268.6732 C-0.745,269.6002 0.901,272.4042 2.771,271.4792" id="Fill-6" fill="#000000"></path>
                <polygon id="Fill-8" fill="#000000" points="230.7583 270.4587 288.1503 251.8557 38.8053 251.8557 1.9503 270.4587"></polygon>
                <path d="M2.8686,271.5129 C14.9896,265.4109 27.1096,259.3089 39.2306,253.2069 C41.0986,252.2669 39.4556,249.4619 37.5906,250.4009 C25.4696,256.5029 13.3486,262.6049 1.2276,268.7069 C-0.6404,269.6479 1.0036,272.4519 2.8686,271.5129" id="Fill-10" fill="#000000"></path>
                <path d="M288.3862,250.1794 L203.8742,250.1794 L69.7302,250.1794 L38.8052,250.1794 C39.3462,250.7214 39.8882,251.2624 40.4302,251.8044 L40.4302,167.3724 L40.4302,33.3554 L40.4302,2.4594 C39.8882,3.0014 39.3462,3.5434 38.8052,4.0844 L123.3172,4.0844 L257.4612,4.0844 L288.3862,4.0844 C287.8452,3.5434 287.3032,3.0014 286.7612,2.4594 L286.7612,86.8914 L286.7612,220.9084 L286.7612,251.8044 C286.7612,253.8954 290.0112,253.8994 290.0112,251.8044 L290.0112,167.3724 L290.0112,33.3554 L290.0112,2.4594 C290.0112,1.5814 289.2672,0.8344 288.3862,0.8344 L203.8742,0.8344 L69.7302,0.8344 L38.8052,0.8344 C37.9262,0.8344 37.1802,1.5794 37.1802,2.4594 L37.1802,86.8914 L37.1802,220.9084 L37.1802,251.8044 C37.1802,252.6824 37.9242,253.4294 38.8052,253.4294 L123.3172,253.4294 L257.4612,253.4294 L288.3862,253.4294 C290.4782,253.4294 290.4812,250.1794 288.3862,250.1794" id="Fill-12" fill="#000000"></path>
                <g id="Group-16" transform="translate(229.000000, 250.000000)">
                    <mask id="mask-2" fill="white">
                        <use xlink:href="#path-1"></use>
                    </mask>
                    <g id="Clip-15"></g>
                    <path d="M2.1899,21.9138 C21.3469,15.7498 40.5039,9.5868 59.6619,3.4228 C61.6439,2.7848 60.7959,-0.3542 58.7969,0.2888 C39.6399,6.4528 20.4829,12.6158 1.3269,18.7798 C-0.6571,19.4178 0.1909,22.5568 2.1899,21.9138" id="Fill-14" fill="#000000" mask="url(#mask-2)"></path>
                </g>
                <g id="Group-19">
                    <mask id="mask-4" fill="white">
                        <use xlink:href="#path-3"></use>
                    </mask>
                    <g id="Clip-18"></g>
                    <path d="M3.1001,42.6707 C15.3841,29.6497 27.6691,16.6297 39.9541,3.6087 C41.3891,2.0877 39.0951,-0.2143 37.6561,1.3107 C25.3711,14.3317 13.0861,27.3517 0.8011,40.3727 C-0.6329,41.8937 1.6611,44.1957 3.1001,42.6707" id="Fill-17" fill="#000000" mask="url(#mask-4)"></path>
                </g>
                <path d="M3.5757,270.0764 L3.5757,192.6834 L3.5757,69.8684 L3.5757,41.5214 C3.5757,39.4304 0.3257,39.4274 0.3257,41.5214 L0.3257,118.9144 L0.3257,241.7294 L0.3257,270.0764 C0.3257,272.1674 3.5757,272.1714 3.5757,270.0764" id="Fill-20" fill="#000000"></path>
                <path d="M230.7583,268.7214 L153.6513,268.7214 L30.1783,268.7214 L1.9503,268.7214 C-0.1397,268.7214 -0.1437,271.9714 1.9503,271.9714 L79.0583,271.9714 L202.5303,271.9714 L230.7583,271.9714 C232.8493,271.9714 232.8533,268.7214 230.7583,268.7214" id="Fill-22" fill="#000000"></path>
            </g>
        </g>
    </g>
</svg>